G04 #@! TF.GenerationSoftware,KiCad,Pcbnew,(6.0.2)*
G04 #@! TF.CreationDate,2022-05-10T20:27:20-07:00*
G04 #@! TF.ProjectId,iflfu-middle,69666c66-752d-46d6-9964-646c652e6b69,rev?*
G04 #@! TF.SameCoordinates,Original*
G04 #@! TF.FileFunction,Copper,L2,Bot*
G04 #@! TF.FilePolarity,Positive*
%FSLAX46Y46*%
G04 Gerber Fmt 4.6, Leading zero omitted, Abs format (unit mm)*
G04 Created by KiCad (PCBNEW (6.0.2)) date 2022-05-10 20:27:20*
%MOMM*%
%LPD*%
G01*
G04 APERTURE LIST*
G04 #@! TA.AperFunction,CastellatedPad*
%ADD10C,2.540000*%
G04 #@! TD*
G04 APERTURE END LIST*
D10*
G04 #@! TO.P,,*
G04 #@! TO.N,Net-(D1-Pad2)*
X145750000Y-82884717D03*
G04 #@! TD*
G04 #@! TO.P,,*
G04 #@! TO.N,Net-(D1-Pad2)*
X145750000Y-131884717D03*
G04 #@! TD*
G04 #@! TO.P,,*
G04 #@! TO.N,GND*
X194450000Y-131834717D03*
G04 #@! TD*
G04 #@! TO.P,,*
G04 #@! TO.N,Net-(D39-Pad1)*
X183750000Y-142634717D03*
G04 #@! TD*
G04 #@! TO.P,,*
G04 #@! TO.N,Net-(D1-Pad2)*
X156450000Y-136784717D03*
G04 #@! TD*
G04 #@! TO.P,,*
G04 #@! TO.N,VDD*
X150700000Y-133084717D03*
G04 #@! TD*
G04 #@! TO.P,,*
G04 #@! TO.N,VDD*
X156450000Y-143784717D03*
G04 #@! TD*
G04 #@! TO.P,,*
G04 #@! TO.N,Net-(D21-Pad1)*
X183750000Y-134769717D03*
G04 #@! TD*
G04 #@! TO.P,,*
G04 #@! TO.N,GND*
X194450000Y-83204717D03*
G04 #@! TD*
G04 #@! TA.AperFunction,NonConductor*
G36*
X194596073Y-80938644D02*
G01*
X194599500Y-80946917D01*
X194599500Y-81724011D01*
X194596073Y-81732284D01*
X194587657Y-81735710D01*
X194432894Y-81733820D01*
X194347072Y-81732771D01*
X194108047Y-81769347D01*
X193878205Y-81844471D01*
X193663720Y-81956125D01*
X193470350Y-82101311D01*
X193303290Y-82276130D01*
X193167025Y-82475886D01*
X193166822Y-82476323D01*
X193166821Y-82476325D01*
X193088898Y-82644198D01*
X193065216Y-82695216D01*
X193065088Y-82695678D01*
X193065086Y-82695683D01*
X193012746Y-82884416D01*
X193000596Y-82928228D01*
X193000545Y-82928702D01*
X193000545Y-82928704D01*
X192983299Y-83090072D01*
X192974900Y-83168666D01*
X192988820Y-83410072D01*
X193041980Y-83645964D01*
X193132954Y-83870005D01*
X193259298Y-84076179D01*
X193417619Y-84258950D01*
X193603665Y-84413409D01*
X193812440Y-84535407D01*
X194038337Y-84621669D01*
X194275290Y-84669877D01*
X194275771Y-84669895D01*
X194275774Y-84669895D01*
X194380825Y-84673747D01*
X194516935Y-84678738D01*
X194517410Y-84678677D01*
X194517414Y-84678677D01*
X194553877Y-84674006D01*
X194586314Y-84669850D01*
X194594955Y-84672198D01*
X194599405Y-84679968D01*
X194599500Y-84681455D01*
X194599500Y-130354011D01*
X194596073Y-130362284D01*
X194587657Y-130365710D01*
X194432894Y-130363820D01*
X194347072Y-130362771D01*
X194108047Y-130399347D01*
X193878205Y-130474471D01*
X193663720Y-130586125D01*
X193470350Y-130731311D01*
X193303290Y-130906130D01*
X193167025Y-131105886D01*
X193065216Y-131325216D01*
X193065088Y-131325678D01*
X193065086Y-131325683D01*
X193006033Y-131538624D01*
X193000596Y-131558228D01*
X193000545Y-131558702D01*
X193000545Y-131558704D01*
X192995252Y-131608228D01*
X192974900Y-131798666D01*
X192988820Y-132040072D01*
X193041980Y-132275964D01*
X193042163Y-132276414D01*
X193042163Y-132276415D01*
X193087429Y-132387890D01*
X193132954Y-132500005D01*
X193133206Y-132500416D01*
X193221850Y-132645069D01*
X193259298Y-132706179D01*
X193417619Y-132888950D01*
X193603665Y-133043409D01*
X193604075Y-133043649D01*
X193604077Y-133043650D01*
X193721755Y-133112415D01*
X193727169Y-133119548D01*
X193725954Y-133128420D01*
X193718821Y-133133834D01*
X193715852Y-133134217D01*
X183900099Y-133134217D01*
X183900000Y-133134176D01*
X183899901Y-133134217D01*
X183899617Y-133134334D01*
X183899459Y-133134717D01*
X183899500Y-133134816D01*
X183899500Y-133289011D01*
X183896073Y-133297284D01*
X183887657Y-133300710D01*
X183732894Y-133298820D01*
X183647072Y-133297771D01*
X183408047Y-133334347D01*
X183178205Y-133409471D01*
X182963720Y-133521125D01*
X182770350Y-133666311D01*
X182603290Y-133841130D01*
X182467025Y-134040886D01*
X182365216Y-134260216D01*
X182365088Y-134260678D01*
X182365086Y-134260683D01*
X182355791Y-134294201D01*
X182300596Y-134493228D01*
X182300545Y-134493702D01*
X182300545Y-134493704D01*
X182294542Y-134549877D01*
X182274900Y-134733666D01*
X182288820Y-134975072D01*
X182341980Y-135210964D01*
X182342163Y-135211414D01*
X182342163Y-135211415D01*
X182432772Y-135434557D01*
X182432954Y-135435005D01*
X182559298Y-135641179D01*
X182717619Y-135823950D01*
X182903665Y-135978409D01*
X183112440Y-136100407D01*
X183338337Y-136186669D01*
X183575290Y-136234877D01*
X183575771Y-136234895D01*
X183575774Y-136234895D01*
X183680825Y-136238747D01*
X183816935Y-136243738D01*
X183817410Y-136243677D01*
X183817414Y-136243677D01*
X183853877Y-136239006D01*
X183886314Y-136234850D01*
X183894955Y-136237198D01*
X183899405Y-136244968D01*
X183899500Y-136246455D01*
X183899500Y-141154011D01*
X183896073Y-141162284D01*
X183887657Y-141165710D01*
X183732894Y-141163820D01*
X183647072Y-141162771D01*
X183408047Y-141199347D01*
X183178205Y-141274471D01*
X182963720Y-141386125D01*
X182770350Y-141531311D01*
X182603290Y-141706130D01*
X182467025Y-141905886D01*
X182365216Y-142125216D01*
X182365088Y-142125678D01*
X182365086Y-142125683D01*
X182312385Y-142315719D01*
X182300596Y-142358228D01*
X182300545Y-142358702D01*
X182300545Y-142358704D01*
X182291997Y-142438687D01*
X182274900Y-142598666D01*
X182288820Y-142840072D01*
X182341980Y-143075964D01*
X182342163Y-143076414D01*
X182342163Y-143076415D01*
X182346823Y-143087890D01*
X182432954Y-143300005D01*
X182559298Y-143506179D01*
X182717619Y-143688950D01*
X182903665Y-143843409D01*
X182904075Y-143843649D01*
X182904077Y-143843650D01*
X182926576Y-143856797D01*
X183112440Y-143965407D01*
X183338337Y-144051669D01*
X183575290Y-144099877D01*
X183575771Y-144099895D01*
X183575774Y-144099895D01*
X183680825Y-144103747D01*
X183816935Y-144108738D01*
X183817410Y-144108677D01*
X183817414Y-144108677D01*
X183853877Y-144104006D01*
X183886314Y-144099850D01*
X183894955Y-144102198D01*
X183899405Y-144109968D01*
X183899500Y-144111455D01*
X183899500Y-145922517D01*
X183896073Y-145930790D01*
X183887800Y-145934217D01*
X156312200Y-145934217D01*
X156303927Y-145930790D01*
X156300500Y-145922517D01*
X156300500Y-145262938D01*
X156303927Y-145254665D01*
X156312629Y-145251246D01*
X156393003Y-145254193D01*
X156516935Y-145258738D01*
X156517410Y-145258677D01*
X156517414Y-145258677D01*
X156756307Y-145228074D01*
X156756309Y-145228074D01*
X156756782Y-145228013D01*
X156988390Y-145158527D01*
X157205540Y-145052147D01*
X157287888Y-144993409D01*
X157402013Y-144912005D01*
X157402018Y-144912001D01*
X157402399Y-144911729D01*
X157573680Y-144741044D01*
X157714785Y-144544676D01*
X157821922Y-144327900D01*
X157852893Y-144225964D01*
X157887683Y-144111455D01*
X157892216Y-144096535D01*
X157923778Y-143856797D01*
X157925540Y-143784717D01*
X157905727Y-143543723D01*
X157846819Y-143309201D01*
X157750398Y-143087449D01*
X157619055Y-142884423D01*
X157573826Y-142834717D01*
X159499459Y-142834717D01*
X159499500Y-142834816D01*
X159499617Y-142835100D01*
X159500000Y-142835258D01*
X159500099Y-142835217D01*
X180699901Y-142835217D01*
X180700000Y-142835258D01*
X180700099Y-142835217D01*
X180700383Y-142835100D01*
X180700541Y-142834717D01*
X180700500Y-142834618D01*
X180700500Y-134634816D01*
X180700541Y-134634717D01*
X180700383Y-134634334D01*
X180700099Y-134634217D01*
X180700000Y-134634176D01*
X180699901Y-134634217D01*
X159500099Y-134634217D01*
X159500000Y-134634176D01*
X159499901Y-134634217D01*
X159499617Y-134634334D01*
X159499459Y-134634717D01*
X159499500Y-134634816D01*
X159499500Y-142834618D01*
X159499459Y-142834717D01*
X157573826Y-142834717D01*
X157456316Y-142705575D01*
X157425593Y-142681311D01*
X157320353Y-142598198D01*
X157266551Y-142555708D01*
X157266138Y-142555480D01*
X157266135Y-142555478D01*
X157055279Y-142439079D01*
X157055275Y-142439077D01*
X157054858Y-142438847D01*
X157054410Y-142438688D01*
X157054407Y-142438687D01*
X156827375Y-142358291D01*
X156827374Y-142358291D01*
X156826920Y-142358130D01*
X156826450Y-142358046D01*
X156826445Y-142358045D01*
X156589327Y-142315808D01*
X156588861Y-142315725D01*
X156588387Y-142315719D01*
X156588385Y-142315719D01*
X156459432Y-142314144D01*
X156347072Y-142312771D01*
X156346604Y-142312843D01*
X156346598Y-142312843D01*
X156327919Y-142315702D01*
X156313969Y-142317837D01*
X156305274Y-142315702D01*
X156300635Y-142308042D01*
X156300500Y-142306272D01*
X156300500Y-138262938D01*
X156303927Y-138254665D01*
X156312629Y-138251246D01*
X156393003Y-138254193D01*
X156516935Y-138258738D01*
X156517410Y-138258677D01*
X156517414Y-138258677D01*
X156756307Y-138228074D01*
X156756309Y-138228074D01*
X156756782Y-138228013D01*
X156988390Y-138158527D01*
X157205540Y-138052147D01*
X157287888Y-137993409D01*
X157402013Y-137912005D01*
X157402018Y-137912001D01*
X157402399Y-137911729D01*
X157573680Y-137741044D01*
X157714785Y-137544676D01*
X157821922Y-137327900D01*
X157852893Y-137225964D01*
X157892077Y-137096991D01*
X157892216Y-137096535D01*
X157923778Y-136856797D01*
X157925540Y-136784717D01*
X157905727Y-136543723D01*
X157846819Y-136309201D01*
X157756106Y-136100576D01*
X157750590Y-136087890D01*
X157750589Y-136087888D01*
X157750398Y-136087449D01*
X157619055Y-135884423D01*
X157456316Y-135705575D01*
X157425593Y-135681311D01*
X157374258Y-135640770D01*
X157266551Y-135555708D01*
X157266138Y-135555480D01*
X157266135Y-135555478D01*
X157055279Y-135439079D01*
X157055275Y-135439077D01*
X157054858Y-135438847D01*
X157054410Y-135438688D01*
X157054407Y-135438687D01*
X156827375Y-135358291D01*
X156827374Y-135358291D01*
X156826920Y-135358130D01*
X156826450Y-135358046D01*
X156826445Y-135358045D01*
X156589327Y-135315808D01*
X156588861Y-135315725D01*
X156588387Y-135315719D01*
X156588385Y-135315719D01*
X156459432Y-135314144D01*
X156347072Y-135312771D01*
X156346604Y-135312843D01*
X156346598Y-135312843D01*
X156327919Y-135315702D01*
X156313969Y-135317837D01*
X156305274Y-135315702D01*
X156300635Y-135308042D01*
X156300500Y-135306272D01*
X156300500Y-133134816D01*
X156300541Y-133134717D01*
X156300383Y-133134334D01*
X156300099Y-133134217D01*
X156300000Y-133134176D01*
X156299901Y-133134217D01*
X152186320Y-133134217D01*
X152178047Y-133130790D01*
X152174623Y-133122231D01*
X152175533Y-133085018D01*
X152175533Y-133085011D01*
X152175540Y-133084717D01*
X152155727Y-132843723D01*
X152096819Y-132609201D01*
X152048608Y-132498325D01*
X152000590Y-132387890D01*
X152000589Y-132387888D01*
X152000398Y-132387449D01*
X151869055Y-132184423D01*
X151706316Y-132005575D01*
X151675593Y-131981311D01*
X151553664Y-131885018D01*
X151516551Y-131855708D01*
X151516138Y-131855480D01*
X151516135Y-131855478D01*
X151305279Y-131739079D01*
X151305275Y-131739077D01*
X151304858Y-131738847D01*
X151304410Y-131738688D01*
X151304407Y-131738687D01*
X151077375Y-131658291D01*
X151077374Y-131658291D01*
X151076920Y-131658130D01*
X151076450Y-131658046D01*
X151076445Y-131658045D01*
X150839327Y-131615808D01*
X150838861Y-131615725D01*
X150838387Y-131615719D01*
X150838385Y-131615719D01*
X150709432Y-131614144D01*
X150597072Y-131612771D01*
X150358047Y-131649347D01*
X150128205Y-131724471D01*
X149990665Y-131796070D01*
X149916425Y-131834717D01*
X149913720Y-131836125D01*
X149720350Y-131981311D01*
X149720021Y-131981656D01*
X149720018Y-131981658D01*
X149664652Y-132039596D01*
X149553290Y-132156130D01*
X149417025Y-132355886D01*
X149416822Y-132356323D01*
X149416821Y-132356325D01*
X149350128Y-132500005D01*
X149315216Y-132575216D01*
X149315088Y-132575678D01*
X149315086Y-132575683D01*
X149295953Y-132644676D01*
X149250596Y-132808228D01*
X149250545Y-132808702D01*
X149250545Y-132808704D01*
X149228818Y-133012005D01*
X149224900Y-133048666D01*
X149224927Y-133049135D01*
X149224927Y-133049136D01*
X149229119Y-133121844D01*
X149226174Y-133130300D01*
X149217438Y-133134217D01*
X146567227Y-133134217D01*
X146558954Y-133130790D01*
X146555527Y-133122517D01*
X146558954Y-133114244D01*
X146560433Y-133112992D01*
X146575638Y-133102147D01*
X146601235Y-133083888D01*
X146702013Y-133012005D01*
X146702018Y-133012001D01*
X146702399Y-133011729D01*
X146873680Y-132841044D01*
X147014785Y-132644676D01*
X147061574Y-132550005D01*
X147121712Y-132428325D01*
X147121922Y-132427900D01*
X147134335Y-132387046D01*
X147153311Y-132324585D01*
X147192216Y-132196535D01*
X147223778Y-131956797D01*
X147225540Y-131884717D01*
X147205727Y-131643723D01*
X147146819Y-131409201D01*
X147050398Y-131187449D01*
X146919055Y-130984423D01*
X146756316Y-130805575D01*
X146725593Y-130781311D01*
X146661915Y-130731022D01*
X146566551Y-130655708D01*
X146566138Y-130655480D01*
X146566135Y-130655478D01*
X146355279Y-130539079D01*
X146355275Y-130539077D01*
X146354858Y-130538847D01*
X146354410Y-130538688D01*
X146354407Y-130538687D01*
X146127375Y-130458291D01*
X146127374Y-130458291D01*
X146126920Y-130458130D01*
X146126450Y-130458046D01*
X146126445Y-130458045D01*
X145889327Y-130415808D01*
X145888861Y-130415725D01*
X145888387Y-130415719D01*
X145888385Y-130415719D01*
X145759432Y-130414144D01*
X145647072Y-130412771D01*
X145646604Y-130412843D01*
X145646598Y-130412843D01*
X145627919Y-130415702D01*
X145613969Y-130417837D01*
X145605274Y-130415702D01*
X145600635Y-130408042D01*
X145600500Y-130406272D01*
X145600500Y-129934717D01*
X147999459Y-129934717D01*
X147999500Y-129934816D01*
X147999617Y-129935100D01*
X148000000Y-129935258D01*
X148000099Y-129935217D01*
X192899901Y-129935217D01*
X192900000Y-129935258D01*
X192900099Y-129935217D01*
X192900383Y-129935100D01*
X192900541Y-129934717D01*
X192900500Y-129934618D01*
X192900500Y-121534816D01*
X192900541Y-121534717D01*
X192900383Y-121534334D01*
X192900099Y-121534217D01*
X192900000Y-121534176D01*
X192899901Y-121534217D01*
X148000099Y-121534217D01*
X148000000Y-121534176D01*
X147999901Y-121534217D01*
X147999617Y-121534334D01*
X147999459Y-121534717D01*
X147999500Y-121534816D01*
X147999500Y-129934618D01*
X147999459Y-129934717D01*
X145600500Y-129934717D01*
X145600500Y-116934717D01*
X157299459Y-116934717D01*
X157299500Y-116934816D01*
X157299617Y-116935100D01*
X157300000Y-116935258D01*
X157300099Y-116935217D01*
X183899901Y-116935217D01*
X183900000Y-116935258D01*
X183900099Y-116935217D01*
X183900383Y-116935100D01*
X183900541Y-116934717D01*
X183900500Y-116934618D01*
X183900500Y-108534816D01*
X183900541Y-108534717D01*
X183900383Y-108534334D01*
X183900099Y-108534217D01*
X183900000Y-108534176D01*
X183899901Y-108534217D01*
X157300099Y-108534217D01*
X157300000Y-108534176D01*
X157299901Y-108534217D01*
X157299617Y-108534334D01*
X157299459Y-108534717D01*
X157299500Y-108534816D01*
X157299500Y-116934618D01*
X157299459Y-116934717D01*
X145600500Y-116934717D01*
X145600500Y-104034717D01*
X147999459Y-104034717D01*
X147999500Y-104034816D01*
X147999617Y-104035100D01*
X148000000Y-104035258D01*
X148000099Y-104035217D01*
X192899901Y-104035217D01*
X192900000Y-104035258D01*
X192900099Y-104035217D01*
X192900383Y-104035100D01*
X192900541Y-104034717D01*
X192900500Y-104034618D01*
X192900500Y-95634816D01*
X192900541Y-95634717D01*
X192900383Y-95634334D01*
X192900099Y-95634217D01*
X192900000Y-95634176D01*
X192899901Y-95634217D01*
X148000099Y-95634217D01*
X148000000Y-95634176D01*
X147999901Y-95634217D01*
X147999617Y-95634334D01*
X147999459Y-95634717D01*
X147999500Y-95634816D01*
X147999500Y-104034618D01*
X147999459Y-104034717D01*
X145600500Y-104034717D01*
X145600500Y-90834717D01*
X167599459Y-90834717D01*
X167599500Y-90834816D01*
X167599617Y-90835100D01*
X167600000Y-90835258D01*
X167600099Y-90835217D01*
X172999901Y-90835217D01*
X173000000Y-90835258D01*
X173000099Y-90835217D01*
X173000383Y-90835100D01*
X173000541Y-90834717D01*
X173000500Y-90834618D01*
X173000500Y-82834816D01*
X173000541Y-82834717D01*
X173000383Y-82834334D01*
X173000099Y-82834217D01*
X173000000Y-82834176D01*
X172999901Y-82834217D01*
X167600099Y-82834217D01*
X167600000Y-82834176D01*
X167599901Y-82834217D01*
X167599617Y-82834334D01*
X167599459Y-82834717D01*
X167599500Y-82834816D01*
X167599500Y-90834618D01*
X167599459Y-90834717D01*
X145600500Y-90834717D01*
X145600500Y-84362938D01*
X145603927Y-84354665D01*
X145612629Y-84351246D01*
X145693003Y-84354193D01*
X145816935Y-84358738D01*
X145817410Y-84358677D01*
X145817414Y-84358677D01*
X146056307Y-84328074D01*
X146056309Y-84328074D01*
X146056782Y-84328013D01*
X146288390Y-84258527D01*
X146505540Y-84152147D01*
X146611532Y-84076544D01*
X146702013Y-84012005D01*
X146702018Y-84012001D01*
X146702399Y-84011729D01*
X146785322Y-83929094D01*
X146873344Y-83841379D01*
X146873345Y-83841378D01*
X146873680Y-83841044D01*
X147014785Y-83644676D01*
X147121922Y-83427900D01*
X147152893Y-83325964D01*
X147153311Y-83324585D01*
X147192216Y-83196535D01*
X147223778Y-82956797D01*
X147225540Y-82884717D01*
X147205727Y-82643723D01*
X147146819Y-82409201D01*
X147050398Y-82187449D01*
X146919055Y-81984423D01*
X146756316Y-81805575D01*
X146725593Y-81781311D01*
X146664222Y-81732844D01*
X146566551Y-81655708D01*
X146566138Y-81655480D01*
X146566135Y-81655478D01*
X146355279Y-81539079D01*
X146355275Y-81539077D01*
X146354858Y-81538847D01*
X146354410Y-81538688D01*
X146354407Y-81538687D01*
X146127375Y-81458291D01*
X146127374Y-81458291D01*
X146126920Y-81458130D01*
X146126450Y-81458046D01*
X146126445Y-81458045D01*
X145889327Y-81415808D01*
X145888861Y-81415725D01*
X145888387Y-81415719D01*
X145888385Y-81415719D01*
X145759432Y-81414144D01*
X145647072Y-81412771D01*
X145646604Y-81412843D01*
X145646598Y-81412843D01*
X145627919Y-81415702D01*
X145613969Y-81417837D01*
X145605274Y-81415702D01*
X145600635Y-81408042D01*
X145600500Y-81406272D01*
X145600500Y-80946917D01*
X145603927Y-80938644D01*
X145612200Y-80935217D01*
X194587800Y-80935217D01*
X194596073Y-80938644D01*
G37*
G04 #@! TD.AperFunction*
M02*
