G04 #@! TF.GenerationSoftware,KiCad,Pcbnew,(6.0.2)*
G04 #@! TF.CreationDate,2022-06-03T10:06:41-07:00*
G04 #@! TF.ProjectId,iflfu-middle,69666c66-752d-46d6-9964-646c652e6b69,rev?*
G04 #@! TF.SameCoordinates,Original*
G04 #@! TF.FileFunction,Copper,L1,Top*
G04 #@! TF.FilePolarity,Positive*
%FSLAX46Y46*%
G04 Gerber Fmt 4.6, Leading zero omitted, Abs format (unit mm)*
G04 Created by KiCad (PCBNEW (6.0.2)) date 2022-06-03 10:06:41*
%MOMM*%
%LPD*%
G01*
G04 APERTURE LIST*
%ADD10C,0.015000*%
G04 #@! TA.AperFunction,NonConductor*
%ADD11C,0.015000*%
G04 #@! TD*
G04 #@! TA.AperFunction,CastellatedPad*
%ADD12O,5.080000X2.540000*%
G04 #@! TD*
G04 #@! TA.AperFunction,CastellatedPad*
%ADD13O,2.540000X5.080000*%
G04 #@! TD*
G04 #@! TA.AperFunction,ViaPad*
%ADD14C,0.800000*%
G04 #@! TD*
G04 APERTURE END LIST*
D10*
D11*
X127819248Y31958638D02*
X127783248Y31958638D01*
X127783248Y31895781D02*
X127783248Y32015781D01*
X127834676Y32015781D01*
X127875819Y32015781D02*
X127875819Y31918638D01*
X127880962Y31907209D01*
X127886105Y31901495D01*
X127896391Y31895781D01*
X127916962Y31895781D01*
X127927248Y31901495D01*
X127932391Y31907209D01*
X127937534Y31918638D01*
X127937534Y32015781D01*
X128050676Y31907209D02*
X128045534Y31901495D01*
X128030105Y31895781D01*
X128019819Y31895781D01*
X128004391Y31901495D01*
X127994105Y31912924D01*
X127988962Y31924352D01*
X127983819Y31947209D01*
X127983819Y31964352D01*
X127988962Y31987209D01*
X127994105Y31998638D01*
X128004391Y32010067D01*
X128019819Y32015781D01*
X128030105Y32015781D01*
X128045534Y32010067D01*
X128050676Y32004352D01*
X128096962Y31895781D02*
X128096962Y32015781D01*
X128158676Y31895781D02*
X128112391Y31964352D01*
X128158676Y32015781D02*
X128096962Y31947209D01*
X128204962Y31895781D02*
X128204962Y32015781D01*
X128256391Y31895781D02*
X128256391Y32015781D01*
X128318105Y31895781D01*
X128318105Y32015781D01*
X128426105Y32010067D02*
X128415819Y32015781D01*
X128400391Y32015781D01*
X128384962Y32010067D01*
X128374676Y31998638D01*
X128369534Y31987209D01*
X128364391Y31964352D01*
X128364391Y31947209D01*
X128369534Y31924352D01*
X128374676Y31912924D01*
X128384962Y31901495D01*
X128400391Y31895781D01*
X128410676Y31895781D01*
X128426105Y31901495D01*
X128431248Y31907209D01*
X128431248Y31947209D01*
X128410676Y31947209D01*
D10*
D11*
X119074316Y31833988D02*
X119074316Y31953988D01*
D12*
X145750000Y-82884717D03*
X145750000Y-131884717D03*
X194450000Y-131834717D03*
X183750000Y-142634717D03*
X156450000Y-136784717D03*
D13*
X150700000Y-133084717D03*
D12*
X156450000Y-143784717D03*
X183750000Y-134769717D03*
X194450000Y-83204717D03*
D14*
X147300000Y-131884717D03*
X150700000Y-131434717D03*
X158100000Y-136784717D03*
X158100000Y-143784717D03*
X181900000Y-142634717D03*
X182100000Y-134769717D03*
X192800000Y-131834717D03*
X192800000Y-83204717D03*
X147400000Y-82834717D03*
G04 #@! TA.AperFunction,NonConductor*
G36*
X194596073Y-80938644D02*
G01*
X194599500Y-80946917D01*
X194599500Y-81722517D01*
X194596073Y-81730790D01*
X194587800Y-81734217D01*
X193118696Y-81734217D01*
X193118482Y-81734235D01*
X193118472Y-81734235D01*
X192959224Y-81747328D01*
X192939006Y-81748990D01*
X192704484Y-81807898D01*
X192676806Y-81819933D01*
X192483173Y-81904127D01*
X192483171Y-81904128D01*
X192482732Y-81904319D01*
X192279706Y-82035662D01*
X192100858Y-82198401D01*
X192100562Y-82198776D01*
X192100560Y-82198778D01*
X192043194Y-82271417D01*
X191950991Y-82388166D01*
X191950763Y-82388579D01*
X191950761Y-82388582D01*
X191865902Y-82542305D01*
X191834130Y-82599859D01*
X191753413Y-82827797D01*
X191753329Y-82828267D01*
X191753328Y-82828272D01*
X191718624Y-83023102D01*
X191711008Y-83065856D01*
X191708054Y-83307645D01*
X191744630Y-83546670D01*
X191819754Y-83776512D01*
X191931408Y-83990997D01*
X192076594Y-84184367D01*
X192076939Y-84184696D01*
X192076941Y-84184699D01*
X192104498Y-84211033D01*
X192251413Y-84351427D01*
X192451169Y-84487692D01*
X192451606Y-84487895D01*
X192451608Y-84487896D01*
X192670059Y-84589297D01*
X192670062Y-84589298D01*
X192670499Y-84589501D01*
X192670961Y-84589629D01*
X192670966Y-84589631D01*
X192883907Y-84648684D01*
X192903511Y-84654121D01*
X192903985Y-84654172D01*
X192903987Y-84654172D01*
X192958645Y-84660013D01*
X193100907Y-84675217D01*
X194587800Y-84675217D01*
X194596073Y-84678644D01*
X194599500Y-84686917D01*
X194599500Y-130352517D01*
X194596073Y-130360790D01*
X194587800Y-130364217D01*
X193118696Y-130364217D01*
X193118482Y-130364235D01*
X193118472Y-130364235D01*
X192959224Y-130377328D01*
X192939006Y-130378990D01*
X192938545Y-130379106D01*
X192938544Y-130379106D01*
X192902618Y-130388130D01*
X192704484Y-130437898D01*
X192666369Y-130454471D01*
X192483173Y-130534127D01*
X192483171Y-130534128D01*
X192482732Y-130534319D01*
X192279706Y-130665662D01*
X192100858Y-130828401D01*
X192100562Y-130828776D01*
X192100560Y-130828778D01*
X192061370Y-130878401D01*
X191950991Y-131018166D01*
X191950763Y-131018579D01*
X191950761Y-131018582D01*
X191896184Y-131117449D01*
X191834130Y-131229859D01*
X191833971Y-131230307D01*
X191833970Y-131230310D01*
X191807279Y-131305683D01*
X191753413Y-131457797D01*
X191753329Y-131458267D01*
X191753328Y-131458272D01*
X191732763Y-131573723D01*
X191711008Y-131695856D01*
X191711002Y-131696330D01*
X191711002Y-131696332D01*
X191710305Y-131753413D01*
X191708054Y-131937645D01*
X191744630Y-132176670D01*
X191819754Y-132406512D01*
X191931408Y-132620997D01*
X192076594Y-132814367D01*
X192251413Y-132981427D01*
X192443841Y-133112693D01*
X192444074Y-133112852D01*
X192448978Y-133120345D01*
X192447146Y-133129110D01*
X192439653Y-133134014D01*
X192437481Y-133134217D01*
X183900099Y-133134217D01*
X183900000Y-133134176D01*
X183899901Y-133134217D01*
X183899617Y-133134334D01*
X183899459Y-133134717D01*
X183899500Y-133134816D01*
X183899500Y-133287517D01*
X183896073Y-133295790D01*
X183887800Y-133299217D01*
X182418696Y-133299217D01*
X182418482Y-133299235D01*
X182418472Y-133299235D01*
X182259224Y-133312328D01*
X182239006Y-133313990D01*
X182004484Y-133372898D01*
X181976806Y-133384933D01*
X181783173Y-133469127D01*
X181783171Y-133469128D01*
X181782732Y-133469319D01*
X181579706Y-133600662D01*
X181400858Y-133763401D01*
X181400562Y-133763776D01*
X181400560Y-133763778D01*
X181343194Y-133836417D01*
X181250991Y-133953166D01*
X181134130Y-134164859D01*
X181053413Y-134392797D01*
X181011008Y-134630856D01*
X181011002Y-134631330D01*
X181011002Y-134631332D01*
X181010949Y-134635645D01*
X181008054Y-134872645D01*
X181044630Y-135111670D01*
X181119754Y-135341512D01*
X181231408Y-135555997D01*
X181376594Y-135749367D01*
X181376939Y-135749696D01*
X181376941Y-135749699D01*
X181434881Y-135805067D01*
X181551413Y-135916427D01*
X181751169Y-136052692D01*
X181751606Y-136052895D01*
X181751608Y-136052896D01*
X181970059Y-136154297D01*
X181970062Y-136154298D01*
X181970499Y-136154501D01*
X181970961Y-136154629D01*
X181970966Y-136154631D01*
X182179629Y-136212498D01*
X182203511Y-136219121D01*
X182203985Y-136219172D01*
X182203987Y-136219172D01*
X182258645Y-136225013D01*
X182400907Y-136240217D01*
X183887800Y-136240217D01*
X183896073Y-136243644D01*
X183899500Y-136251917D01*
X183899500Y-141152517D01*
X183896073Y-141160790D01*
X183887800Y-141164217D01*
X182418696Y-141164217D01*
X182418482Y-141164235D01*
X182418472Y-141164235D01*
X182259224Y-141177328D01*
X182239006Y-141178990D01*
X182004484Y-141237898D01*
X181976806Y-141249933D01*
X181783173Y-141334127D01*
X181783171Y-141334128D01*
X181782732Y-141334319D01*
X181579706Y-141465662D01*
X181400858Y-141628401D01*
X181400562Y-141628776D01*
X181400560Y-141628778D01*
X181343194Y-141701417D01*
X181250991Y-141818166D01*
X181134130Y-142029859D01*
X181053413Y-142257797D01*
X181053329Y-142258267D01*
X181053328Y-142258272D01*
X181028058Y-142400137D01*
X181011008Y-142495856D01*
X181011002Y-142496330D01*
X181011002Y-142496332D01*
X181010936Y-142501742D01*
X181008054Y-142737645D01*
X181044630Y-142976670D01*
X181119754Y-143206512D01*
X181119975Y-143206936D01*
X181224537Y-143407797D01*
X181231408Y-143420997D01*
X181376594Y-143614367D01*
X181376939Y-143614696D01*
X181376941Y-143614699D01*
X181469105Y-143702773D01*
X181551413Y-143781427D01*
X181751169Y-143917692D01*
X181751606Y-143917895D01*
X181751608Y-143917896D01*
X181970059Y-144019297D01*
X181970062Y-144019298D01*
X181970499Y-144019501D01*
X181970961Y-144019629D01*
X181970966Y-144019631D01*
X182183907Y-144078684D01*
X182203511Y-144084121D01*
X182203985Y-144084172D01*
X182203987Y-144084172D01*
X182258645Y-144090013D01*
X182400907Y-144105217D01*
X183887800Y-144105217D01*
X183896073Y-144108644D01*
X183899500Y-144116917D01*
X183899500Y-145922517D01*
X183896073Y-145930790D01*
X183887800Y-145934217D01*
X156312200Y-145934217D01*
X156303927Y-145930790D01*
X156300500Y-145922517D01*
X156300500Y-145266917D01*
X156303927Y-145258644D01*
X156312200Y-145255217D01*
X157781304Y-145255217D01*
X157781518Y-145255199D01*
X157781528Y-145255199D01*
X157940776Y-145242106D01*
X157960994Y-145240444D01*
X158195516Y-145181536D01*
X158306392Y-145133326D01*
X158416827Y-145085307D01*
X158416829Y-145085306D01*
X158417268Y-145085115D01*
X158620294Y-144953772D01*
X158799142Y-144791033D01*
X158820202Y-144764367D01*
X158948714Y-144601641D01*
X158949009Y-144601268D01*
X159065870Y-144389575D01*
X159146587Y-144161637D01*
X159159269Y-144090444D01*
X159188909Y-143924044D01*
X159188992Y-143923578D01*
X159189062Y-143917896D01*
X159191940Y-143682267D01*
X159191946Y-143681789D01*
X159155370Y-143442764D01*
X159080246Y-143212922D01*
X159008647Y-143075382D01*
X158968816Y-142998867D01*
X158968815Y-142998866D01*
X158968592Y-142998437D01*
X158845668Y-142834717D01*
X159499459Y-142834717D01*
X159499500Y-142834816D01*
X159499617Y-142835100D01*
X159500000Y-142835258D01*
X159500099Y-142835217D01*
X180699901Y-142835217D01*
X180700000Y-142835258D01*
X180700099Y-142835217D01*
X180700383Y-142835100D01*
X180700541Y-142834717D01*
X180700500Y-142834618D01*
X180700500Y-134634816D01*
X180700541Y-134634717D01*
X180700383Y-134634334D01*
X180700099Y-134634217D01*
X180700000Y-134634176D01*
X180699901Y-134634217D01*
X159500099Y-134634217D01*
X159500000Y-134634176D01*
X159499901Y-134634217D01*
X159499617Y-134634334D01*
X159499459Y-134634717D01*
X159499500Y-134634816D01*
X159499500Y-142834618D01*
X159499459Y-142834717D01*
X158845668Y-142834717D01*
X158823406Y-142805067D01*
X158752353Y-142737167D01*
X158648933Y-142638338D01*
X158648587Y-142638007D01*
X158448831Y-142501742D01*
X158448392Y-142501538D01*
X158229941Y-142400137D01*
X158229938Y-142400136D01*
X158229501Y-142399933D01*
X158229039Y-142399805D01*
X158229034Y-142399803D01*
X157996954Y-142335442D01*
X157996955Y-142335442D01*
X157996489Y-142335313D01*
X157996015Y-142335262D01*
X157996013Y-142335262D01*
X157937324Y-142328990D01*
X157799093Y-142314217D01*
X156312200Y-142314217D01*
X156303927Y-142310790D01*
X156300500Y-142302517D01*
X156300500Y-138266917D01*
X156303927Y-138258644D01*
X156312200Y-138255217D01*
X157781304Y-138255217D01*
X157781518Y-138255199D01*
X157781528Y-138255199D01*
X157940776Y-138242106D01*
X157960994Y-138240444D01*
X158195516Y-138181536D01*
X158306392Y-138133325D01*
X158416827Y-138085307D01*
X158416829Y-138085306D01*
X158417268Y-138085115D01*
X158620294Y-137953772D01*
X158799142Y-137791033D01*
X158820202Y-137764367D01*
X158948714Y-137601641D01*
X158949009Y-137601268D01*
X159065870Y-137389575D01*
X159146587Y-137161637D01*
X159188992Y-136923578D01*
X159191946Y-136681789D01*
X159155370Y-136442764D01*
X159080246Y-136212922D01*
X158968592Y-135998437D01*
X158823406Y-135805067D01*
X158807731Y-135790087D01*
X158648933Y-135638338D01*
X158648587Y-135638007D01*
X158448831Y-135501742D01*
X158448392Y-135501538D01*
X158229941Y-135400137D01*
X158229938Y-135400136D01*
X158229501Y-135399933D01*
X158229039Y-135399805D01*
X158229034Y-135399803D01*
X157996954Y-135335442D01*
X157996955Y-135335442D01*
X157996489Y-135335313D01*
X157996015Y-135335262D01*
X157996013Y-135335262D01*
X157937324Y-135328990D01*
X157799093Y-135314217D01*
X156312200Y-135314217D01*
X156303927Y-135310790D01*
X156300500Y-135302517D01*
X156300500Y-133134816D01*
X156300541Y-133134717D01*
X156300383Y-133134334D01*
X156300099Y-133134217D01*
X156300000Y-133134176D01*
X156299901Y-133134217D01*
X152182200Y-133134217D01*
X152173927Y-133130790D01*
X152170500Y-133122517D01*
X152170500Y-131753413D01*
X152169038Y-131735624D01*
X152155766Y-131574198D01*
X152155727Y-131573723D01*
X152139168Y-131507797D01*
X152096936Y-131339667D01*
X152096819Y-131339201D01*
X152000398Y-131117449D01*
X151869055Y-130914423D01*
X151706316Y-130735575D01*
X151675593Y-130711311D01*
X151633300Y-130677911D01*
X151516551Y-130585708D01*
X151516138Y-130585480D01*
X151516135Y-130585478D01*
X151305279Y-130469079D01*
X151305275Y-130469077D01*
X151304858Y-130468847D01*
X151304410Y-130468688D01*
X151304407Y-130468687D01*
X151077375Y-130388291D01*
X151077374Y-130388291D01*
X151076920Y-130388130D01*
X151076450Y-130388046D01*
X151076445Y-130388045D01*
X150839327Y-130345808D01*
X150838861Y-130345725D01*
X150838387Y-130345719D01*
X150838385Y-130345719D01*
X150709432Y-130344144D01*
X150597072Y-130342771D01*
X150358047Y-130379347D01*
X150128205Y-130454471D01*
X149913720Y-130566125D01*
X149720350Y-130711311D01*
X149720021Y-130711656D01*
X149720018Y-130711658D01*
X149631944Y-130803822D01*
X149553290Y-130886130D01*
X149417025Y-131085886D01*
X149416822Y-131086323D01*
X149416821Y-131086325D01*
X149411379Y-131098050D01*
X149315216Y-131305216D01*
X149315088Y-131305678D01*
X149315086Y-131305683D01*
X149272770Y-131458272D01*
X149250596Y-131538228D01*
X149229500Y-131735624D01*
X149229500Y-133122517D01*
X149226073Y-133130790D01*
X149217800Y-133134217D01*
X147835571Y-133134217D01*
X147827298Y-133130790D01*
X147823871Y-133122517D01*
X147827298Y-133114244D01*
X147829216Y-133112693D01*
X147920294Y-133053772D01*
X148099142Y-132891033D01*
X148120202Y-132864367D01*
X148248714Y-132701641D01*
X148249009Y-132701268D01*
X148276611Y-132651268D01*
X148365638Y-132489996D01*
X148365640Y-132489992D01*
X148365870Y-132489575D01*
X148446587Y-132261637D01*
X148455494Y-132211637D01*
X148488909Y-132024044D01*
X148488992Y-132023578D01*
X148491946Y-131781789D01*
X148455370Y-131542764D01*
X148380246Y-131312922D01*
X148268592Y-131098437D01*
X148123406Y-130905067D01*
X148103590Y-130886130D01*
X147948933Y-130738338D01*
X147948587Y-130738007D01*
X147748831Y-130601742D01*
X147748392Y-130601538D01*
X147529941Y-130500137D01*
X147529938Y-130500136D01*
X147529501Y-130499933D01*
X147529039Y-130499805D01*
X147529034Y-130499803D01*
X147316093Y-130440750D01*
X147296489Y-130435313D01*
X147296015Y-130435262D01*
X147296013Y-130435262D01*
X147237324Y-130428990D01*
X147099093Y-130414217D01*
X145612200Y-130414217D01*
X145603927Y-130410790D01*
X145600500Y-130402517D01*
X145600500Y-129934717D01*
X147999459Y-129934717D01*
X147999500Y-129934816D01*
X147999617Y-129935100D01*
X148000000Y-129935258D01*
X148000099Y-129935217D01*
X192899901Y-129935217D01*
X192900000Y-129935258D01*
X192900099Y-129935217D01*
X192900383Y-129935100D01*
X192900541Y-129934717D01*
X192900500Y-129934618D01*
X192900500Y-121534816D01*
X192900541Y-121534717D01*
X192900383Y-121534334D01*
X192900099Y-121534217D01*
X192900000Y-121534176D01*
X192899901Y-121534217D01*
X148000099Y-121534217D01*
X148000000Y-121534176D01*
X147999901Y-121534217D01*
X147999617Y-121534334D01*
X147999459Y-121534717D01*
X147999500Y-121534816D01*
X147999500Y-129934618D01*
X147999459Y-129934717D01*
X145600500Y-129934717D01*
X145600500Y-119575579D01*
X187745497Y-119575579D01*
X187775134Y-119748057D01*
X187843654Y-119909090D01*
X187947383Y-120050041D01*
X188080755Y-120163349D01*
X188236616Y-120242936D01*
X188237278Y-120243098D01*
X188406102Y-120284409D01*
X188406106Y-120284410D01*
X188406606Y-120284532D01*
X188409981Y-120284741D01*
X188417465Y-120285206D01*
X188417476Y-120285206D01*
X188417648Y-120285217D01*
X188543822Y-120285217D01*
X188544153Y-120285178D01*
X188544160Y-120285178D01*
X188620628Y-120276262D01*
X188673828Y-120270060D01*
X188838331Y-120210348D01*
X188984685Y-120114394D01*
X189105040Y-119987345D01*
X189192939Y-119836015D01*
X189243667Y-119668524D01*
X189249392Y-119576250D01*
X189254461Y-119494533D01*
X189254461Y-119494532D01*
X189254503Y-119493855D01*
X189224866Y-119321377D01*
X189156346Y-119160344D01*
X189052617Y-119019393D01*
X188919245Y-118906085D01*
X188763384Y-118826498D01*
X188762722Y-118826336D01*
X188593898Y-118785025D01*
X188593894Y-118785024D01*
X188593394Y-118784902D01*
X188590019Y-118784693D01*
X188582535Y-118784228D01*
X188582524Y-118784228D01*
X188582352Y-118784217D01*
X188456178Y-118784217D01*
X188455847Y-118784256D01*
X188455840Y-118784256D01*
X188379372Y-118793172D01*
X188326172Y-118799374D01*
X188161669Y-118859086D01*
X188015315Y-118955040D01*
X187894960Y-119082089D01*
X187807061Y-119233419D01*
X187756333Y-119400910D01*
X187756291Y-119401584D01*
X187756291Y-119401585D01*
X187750567Y-119493855D01*
X187745497Y-119575579D01*
X145600500Y-119575579D01*
X145600500Y-116934717D01*
X157299459Y-116934717D01*
X157299500Y-116934816D01*
X157299617Y-116935100D01*
X157300000Y-116935258D01*
X157300099Y-116935217D01*
X183899901Y-116935217D01*
X183900000Y-116935258D01*
X183900099Y-116935217D01*
X183900383Y-116935100D01*
X183900541Y-116934717D01*
X183900500Y-116934618D01*
X183900500Y-108534816D01*
X183900541Y-108534717D01*
X183900383Y-108534334D01*
X183900099Y-108534217D01*
X183900000Y-108534176D01*
X183899901Y-108534217D01*
X157300099Y-108534217D01*
X157300000Y-108534176D01*
X157299901Y-108534217D01*
X157299617Y-108534334D01*
X157299459Y-108534717D01*
X157299500Y-108534816D01*
X157299500Y-116934618D01*
X157299459Y-116934717D01*
X145600500Y-116934717D01*
X145600500Y-104034717D01*
X147999459Y-104034717D01*
X147999500Y-104034816D01*
X147999617Y-104035100D01*
X148000000Y-104035258D01*
X148000099Y-104035217D01*
X192899901Y-104035217D01*
X192900000Y-104035258D01*
X192900099Y-104035217D01*
X192900383Y-104035100D01*
X192900541Y-104034717D01*
X192900500Y-104034618D01*
X192900500Y-95634816D01*
X192900541Y-95634717D01*
X192900383Y-95634334D01*
X192900099Y-95634217D01*
X192900000Y-95634176D01*
X192899901Y-95634217D01*
X148000099Y-95634217D01*
X148000000Y-95634176D01*
X147999901Y-95634217D01*
X147999617Y-95634334D01*
X147999459Y-95634717D01*
X147999500Y-95634816D01*
X147999500Y-104034618D01*
X147999459Y-104034717D01*
X145600500Y-104034717D01*
X145600500Y-90834717D01*
X167599459Y-90834717D01*
X167599500Y-90834816D01*
X167599617Y-90835100D01*
X167600000Y-90835258D01*
X167600099Y-90835217D01*
X172999901Y-90835217D01*
X173000000Y-90835258D01*
X173000099Y-90835217D01*
X173000383Y-90835100D01*
X173000541Y-90834717D01*
X173000500Y-90834618D01*
X173000500Y-82834816D01*
X173000541Y-82834717D01*
X173000383Y-82834334D01*
X173000099Y-82834217D01*
X173000000Y-82834176D01*
X172999901Y-82834217D01*
X167600099Y-82834217D01*
X167600000Y-82834176D01*
X167599901Y-82834217D01*
X167599617Y-82834334D01*
X167599459Y-82834717D01*
X167599500Y-82834816D01*
X167599500Y-90834618D01*
X167599459Y-90834717D01*
X145600500Y-90834717D01*
X145600500Y-86675579D01*
X149045497Y-86675579D01*
X149075134Y-86848057D01*
X149143654Y-87009090D01*
X149247383Y-87150041D01*
X149380755Y-87263349D01*
X149536616Y-87342936D01*
X149537278Y-87343098D01*
X149706102Y-87384409D01*
X149706106Y-87384410D01*
X149706606Y-87384532D01*
X149709981Y-87384741D01*
X149717465Y-87385206D01*
X149717476Y-87385206D01*
X149717648Y-87385217D01*
X149843822Y-87385217D01*
X149844153Y-87385178D01*
X149844160Y-87385178D01*
X149920628Y-87376262D01*
X149973828Y-87370060D01*
X150138331Y-87310348D01*
X150284685Y-87214394D01*
X150405040Y-87087345D01*
X150492939Y-86936015D01*
X150543667Y-86768524D01*
X150549392Y-86676250D01*
X150554461Y-86594533D01*
X150554461Y-86594532D01*
X150554503Y-86593855D01*
X150524866Y-86421377D01*
X150456346Y-86260344D01*
X150352617Y-86119393D01*
X150219245Y-86006085D01*
X150063384Y-85926498D01*
X150062722Y-85926336D01*
X149893898Y-85885025D01*
X149893894Y-85885024D01*
X149893394Y-85884902D01*
X149890019Y-85884693D01*
X149882535Y-85884228D01*
X149882524Y-85884228D01*
X149882352Y-85884217D01*
X149756178Y-85884217D01*
X149755847Y-85884256D01*
X149755840Y-85884256D01*
X149679372Y-85893172D01*
X149626172Y-85899374D01*
X149461669Y-85959086D01*
X149315315Y-86055040D01*
X149194960Y-86182089D01*
X149107061Y-86333419D01*
X149056333Y-86500910D01*
X149056291Y-86501584D01*
X149056291Y-86501585D01*
X149050567Y-86593855D01*
X149045497Y-86675579D01*
X145600500Y-86675579D01*
X145600500Y-84366917D01*
X145603927Y-84358644D01*
X145612200Y-84355217D01*
X147081304Y-84355217D01*
X147081518Y-84355199D01*
X147081528Y-84355199D01*
X147240776Y-84342106D01*
X147260994Y-84340444D01*
X147495516Y-84281536D01*
X147657661Y-84211033D01*
X147716827Y-84185307D01*
X147716829Y-84185306D01*
X147717268Y-84185115D01*
X147920294Y-84053772D01*
X148099142Y-83891033D01*
X148120202Y-83864367D01*
X148248714Y-83701641D01*
X148249009Y-83701268D01*
X148315049Y-83581637D01*
X148365638Y-83489996D01*
X148365640Y-83489992D01*
X148365870Y-83489575D01*
X148446587Y-83261637D01*
X148475061Y-83101789D01*
X148488909Y-83024044D01*
X148488992Y-83023578D01*
X148491946Y-82781789D01*
X148455370Y-82542764D01*
X148380246Y-82312922D01*
X148268592Y-82098437D01*
X148123406Y-81905067D01*
X148122897Y-81904580D01*
X148021602Y-81807781D01*
X147948587Y-81738007D01*
X147748831Y-81601742D01*
X147748392Y-81601538D01*
X147529941Y-81500137D01*
X147529938Y-81500136D01*
X147529501Y-81499933D01*
X147529039Y-81499805D01*
X147529034Y-81499803D01*
X147296954Y-81435442D01*
X147296955Y-81435442D01*
X147296489Y-81435313D01*
X147296015Y-81435262D01*
X147296013Y-81435262D01*
X147237324Y-81428990D01*
X147099093Y-81414217D01*
X145612200Y-81414217D01*
X145603927Y-81410790D01*
X145600500Y-81402517D01*
X145600500Y-80946917D01*
X145603927Y-80938644D01*
X145612200Y-80935217D01*
X194587800Y-80935217D01*
X194596073Y-80938644D01*
G37*
G04 #@! TD.AperFunction*
M02*
