  0
SECTION
  2
HEADER
  9
$ACADVER
  1
AC1032
  9
$ACADMAINTVER
 90
      197
  9
$DWGCODEPAGE
  3
ANSI_1252
  9
$REQUIREDVERSIONS
160
                 0
  9
$INSBASE
 10
0.0
 20
0.0
 30
0.0
  9
$EXTMIN
 10
1.000000000000000E+20
 20
1.000000000000000E+20
 30
1.000000000000000E+20
  9
$EXTMAX
 10
-1.000000000000000E+20
 20
-1.000000000000000E+20
 30
-1.000000000000000E+20
  9
$LIMMIN
 10
0.0
 20
0.0
  9
$LIMMAX
 10
12.0
 20
9.0
  9
$ORTHOMODE
 70
     0
  9
$REGENMODE
 70
     1
  9
$FILLMODE
 70
     1
  9
$QTEXTMODE
 70
     0
  9
$MIRRTEXT
 70
     0
  9
$LTSCALE
 40
1.0
  9
$ATTMODE
 70
     1
  9
$TEXTSIZE
 40
0.2
  9
$TRACEWID
 40
0.05
  9
$TEXTSTYLE
  7
Standard
  9
$CLAYER
  8
0
  9
$CELTYPE
  6
ByLayer
  9
$CECOLOR
 62
   256
  9
$CELTSCALE
 40
1.0
  9
$DISPSILH
 70
     0
  9
$DIMSCALE
 40
1.0
  9
$DIMASZ
 40
0.18
  9
$DIMEXO
 40
0.0625
  9
$DIMDLI
 40
0.38
  9
$DIMRND
 40
0.0
  9
$DIMDLE
 40
0.0
  9
$DIMEXE
 40
0.18
  9
$DIMTP
 40
0.0
  9
$DIMTM
 40
0.0
  9
$DIMTXT
 40
0.18
  9
$DIMCEN
 40
0.09
  9
$DIMTSZ
 40
0.0
  9
$DIMTOL
 70
     0
  9
$DIMLIM
 70
     0
  9
$DIMTIH
 70
     1
  9
$DIMTOH
 70
     1
  9
$DIMSE1
 70
     0
  9
$DIMSE2
 70
     0
  9
$DIMTAD
 70
     0
  9
$DIMZIN
 70
     0
  9
$DIMBLK
  1

  9
$DIMASO
 70
     1
  9
$DIMSHO
 70
     1
  9
$DIMPOST
  1

  9
$DIMAPOST
  1

  9
$DIMALT
 70
     0
  9
$DIMALTD
 70
     2
  9
$DIMALTF
 40
25.4
  9
$DIMLFAC
 40
1.0
  9
$DIMTOFL
 70
     0
  9
$DIMTVP
 40
0.0
  9
$DIMTIX
 70
     0
  9
$DIMSOXD
 70
     0
  9
$DIMSAH
 70
     0
  9
$DIMBLK1
  1

  9
$DIMBLK2
  1

  9
$DIMSTYLE
  2
Standard
  9
$DIMCLRD
 70
     0
  9
$DIMCLRE
 70
     0
  9
$DIMCLRT
 70
     0
  9
$DIMTFAC
 40
1.0
  9
$DIMGAP
 40
0.09
  9
$DIMJUST
 70
     0
  9
$DIMSD1
 70
     0
  9
$DIMSD2
 70
     0
  9
$DIMTOLJ
 70
     1
  9
$DIMTZIN
 70
     0
  9
$DIMALTZ
 70
     0
  9
$DIMALTTZ
 70
     0
  9
$DIMUPT
 70
     0
  9
$DIMDEC
 70
     4
  9
$DIMTDEC
 70
     4
  9
$DIMALTU
 70
     2
  9
$DIMALTTD
 70
     2
  9
$DIMTXSTY
  7
Standard
  9
$DIMAUNIT
 70
     0
  9
$DIMADEC
 70
     0
  9
$DIMALTRND
 40
0.0
  9
$DIMAZIN
 70
     0
  9
$DIMDSEP
 70
    46
  9
$DIMATFIT
 70
     3
  9
$DIMFRAC
 70
     0
  9
$DIMLDRBLK
  1

  9
$DIMLUNIT
 70
     2
  9
$DIMLWD
 70
    -2
  9
$DIMLWE
 70
    -2
  9
$DIMTMOVE
 70
     0
  9
$DIMFXL
 40
1.0
  9
$DIMFXLON
 70
     0
  9
$DIMJOGANG
 40
0.7853981633974483
  9
$DIMTFILL
 70
     0
  9
$DIMTFILLCLR
 70
     0
  9
$DIMARCSYM
 70
     0
  9
$DIMLTYPE
  6

  9
$DIMLTEX1
  6

  9
$DIMLTEX2
  6

  9
$DIMTXTDIRECTION
 70
     0
  9
$LUNITS
 70
     2
  9
$LUPREC
 70
     4
  9
$SKETCHINC
 40
0.1
  9
$FILLETRAD
 40
0.0
  9
$AUNITS
 70
     0
  9
$AUPREC
 70
     0
  9
$MENU
  1
.
  9
$ELEVATION
 40
0.0
  9
$PELEVATION
 40
0.0
  9
$THICKNESS
 40
0.0
  9
$LIMCHECK
 70
     0
  9
$CHAMFERA
 40
0.0
  9
$CHAMFERB
 40
0.0
  9
$CHAMFERC
 40
0.0
  9
$CHAMFERD
 40
0.0
  9
$SKPOLY
 70
     0
  9
$TDCREATE
 40
2459666.855034722
  9
$TDUCREATE
 40
2459667.146701389
  9
$TDUPDATE
 40
2459666.855034722
  9
$TDUUPDATE
 40
2459667.146701389
  9
$TDINDWG
 40
0.0000462963
  9
$TDUSRTIMER
 40
0.0000462963
  9
$USRTIMER
 70
     1
  9
$ANGBASE
 50
0.0
  9
$ANGDIR
 70
     0
  9
$PDMODE
 70
     0
  9
$PDSIZE
 40
0.0
  9
$PLINEWID
 40
0.0
  9
$SPLFRAME
 70
     0
  9
$SPLINETYPE
 70
     6
  9
$SPLINESEGS
 70
     8
  9
$HANDSEED
  5
BB
  9
$SURFTAB1
 70
     6
  9
$SURFTAB2
 70
     6
  9
$SURFTYPE
 70
     6
  9
$SURFU
 70
     6
  9
$SURFV
 70
     6
  9
$UCSBASE
  2

  9
$UCSNAME
  2

  9
$UCSORG
 10
0.0
 20
0.0
 30
0.0
  9
$UCSXDIR
 10
1.0
 20
0.0
 30
0.0
  9
$UCSYDIR
 10
0.0
 20
1.0
 30
0.0
  9
$UCSORTHOREF
  2

  9
$UCSORTHOVIEW
 70
     0
  9
$UCSORGTOP
 10
0.0
 20
0.0
 30
0.0
  9
$UCSORGBOTTOM
 10
0.0
 20
0.0
 30
0.0
  9
$UCSORGLEFT
 10
0.0
 20
0.0
 30
0.0
  9
$UCSORGRIGHT
 10
0.0
 20
0.0
 30
0.0
  9
$UCSORGFRONT
 10
0.0
 20
0.0
 30
0.0
  9
$UCSORGBACK
 10
0.0
 20
0.0
 30
0.0
  9
$PUCSBASE
  2

  9
$PUCSNAME
  2

  9
$PUCSORG
 10
0.0
 20
0.0
 30
0.0
  9
$PUCSXDIR
 10
1.0
 20
0.0
 30
0.0
  9
$PUCSYDIR
 10
0.0
 20
1.0
 30
0.0
  9
$PUCSORTHOREF
  2

  9
$PUCSORTHOVIEW
 70
     0
  9
$PUCSORGTOP
 10
0.0
 20
0.0
 30
0.0
  9
$PUCSORGBOTTOM
 10
0.0
 20
0.0
 30
0.0
  9
$PUCSORGLEFT
 10
0.0
 20
0.0
 30
0.0
  9
$PUCSORGRIGHT
 10
0.0
 20
0.0
 30
0.0
  9
$PUCSORGFRONT
 10
0.0
 20
0.0
 30
0.0
  9
$PUCSORGBACK
 10
0.0
 20
0.0
 30
0.0
  9
$USERI1
 70
     0
  9
$USERI2
 70
     0
  9
$USERI3
 70
     0
  9
$USERI4
 70
     0
  9
$USERI5
 70
     0
  9
$USERR1
 40
0.0
  9
$USERR2
 40
0.0
  9
$USERR3
 40
0.0
  9
$USERR4
 40
0.0
  9
$USERR5
 40
0.0
  9
$WORLDVIEW
 70
     1
  9
$SHADEDGE
 70
     3
  9
$SHADEDIF
 70
    70
  9
$TILEMODE
 70
     1
  9
$MAXACTVP
 70
    64
  9
$PINSBASE
 10
0.0
 20
0.0
 30
0.0
  9
$PLIMCHECK
 70
     0
  9
$PEXTMIN
 10
1.000000000000000E+20
 20
1.000000000000000E+20
 30
1.000000000000000E+20
  9
$PEXTMAX
 10
-1.000000000000000E+20
 20
-1.000000000000000E+20
 30
-1.000000000000000E+20
  9
$PLIMMIN
 10
0.0
 20
0.0
  9
$PLIMMAX
 10
12.0
 20
9.0
  9
$UNITMODE
 70
     0
  9
$VISRETAIN
 70
     1
  9
$PLINEGEN
 70
     0
  9
$PSLTSCALE
 70
     1
  9
$TREEDEPTH
 70
  3020
  9
$CMLSTYLE
  2
Standard
  9
$CMLJUST
 70
     0
  9
$CMLSCALE
 40
1.0
  9
$PROXYGRAPHICS
 70
     1
  9
$MEASUREMENT
 70
     0
  9
$CELWEIGHT
370
    -1
  9
$ENDCAPS
280
     0
  9
$JOINSTYLE
280
     0
  9
$LWDISPLAY
290
     1
  9
$INSUNITS
 70
     0
  9
$HYPERLINKBASE
  1

  9
$STYLESHEET
  1

  9
$XEDIT
290
     1
  9
$CEPSNTYPE
380
     0
  9
$PSTYLEMODE
290
     1
  9
$FINGERPRINTGUID
  2
{CDCEAF49-D778-B045-964E-0B14E6C7F82A}
  9
$VERSIONGUID
  2
{D995CD86-B55F-AB4F-B15F-D25BB6C11E4D}
  9
$EXTNAMES
290
     1
  9
$PSVPSCALE
 40
0.0
  9
$OLESTARTUP
290
     0
  9
$SORTENTS
280
   127
  9
$INDEXCTL
280
     0
  9
$HIDETEXT
280
     1
  9
$XCLIPFRAME
280
     2
  9
$HALOGAP
280
     0
  9
$OBSCOLOR
 70
   257
  9
$OBSLTYPE
280
     0
  9
$INTERSECTIONDISPLAY
280
     0
  9
$INTERSECTIONCOLOR
 70
   257
  9
$DIMASSOC
280
     2
  9
$PROJECTNAME
  1

  9
$CAMERADISPLAY
290
     0
  9
$LENSLENGTH
 40
50.0
  9
$CAMERAHEIGHT
 40
0.0
  9
$STEPSPERSEC
 40
2.0
  9
$STEPSIZE
 40
6.0
  9
$3DDWFPREC
 40
2.0
  9
$PSOLWIDTH
 40
0.25
  9
$PSOLHEIGHT
 40
4.0
  9
$LOFTANG1
 40
1.570796326794896
  9
$LOFTANG2
 40
1.570796326794896
  9
$LOFTMAG1
 40
0.0
  9
$LOFTMAG2
 40
0.0
  9
$LOFTPARAM
 70
     7
  9
$LOFTNORMALS
280
     1
  9
$LATITUDE
 40
37.795
  9
$LONGITUDE
 40
-122.394
  9
$NORTHDIRECTION
 40
0.0
  9
$TIMEZONE
 70
 -8000
  9
$LIGHTGLYPHDISPLAY
280
     1
  9
$TILEMODELIGHTSYNCH
280
     1
  9
$CMATERIAL
347
11
  9
$SOLIDHIST
280
     0
  9
$SHOWHIST
280
     1
  9
$DWFFRAME
280
     2
  9
$DGNFRAME
280
     0
  9
$REALWORLDSCALE
290
     1
  9
$INTERFERECOLOR
 62
     1
  9
$INTERFEREOBJVS
345
33
  9
$INTERFEREVPVS
346
30
  9
$CSHADOW
280
     0
  9
$SHADOWPLANELOCATION
 40
0.0
  0
ENDSEC
  0
SECTION
  2
CLASSES
  0
CLASS
  1
ACDBDICTIONARYWDFLT
  2
AcDbDictionaryWithDefault
  3
ObjectDBX Classes
 90
        0
 91
        1
280
     0
281
     0
  0
CLASS
  1
MATERIAL
  2
AcDbMaterial
  3
ObjectDBX Classes
 90
     1153
 91
        3
280
     0
281
     0
  0
CLASS
  1
VISUALSTYLE
  2
AcDbVisualStyle
  3
ObjectDBX Classes
 90
     4095
 91
       24
280
     0
281
     0
  0
CLASS
  1
SCALE
  2
AcDbScale
  3
ObjectDBX Classes
 90
     1153
 91
       17
280
     0
281
     0
  0
CLASS
  1
TABLESTYLE
  2
AcDbTableStyle
  3
ObjectDBX Classes
 90
     4095
 91
        1
280
     0
281
     0
  0
CLASS
  1
MLEADERSTYLE
  2
AcDbMLeaderStyle
  3
ACDB_MLEADERSTYLE_CLASS
 90
     4095
 91
        1
280
     0
281
     0
  0
CLASS
  1
ACDBSECTIONVIEWSTYLE
  2
AcDbSectionViewStyle
  3
ObjectDBX Classes
 90
     1025
 91
        1
280
     0
281
     0
  0
CLASS
  1
ACDBDETAILVIEWSTYLE
  2
AcDbDetailViewStyle
  3
ObjectDBX Classes
 90
     1025
 91
        1
280
     0
281
     0
  0
CLASS
  1
IMAGEDEF
  2
AcDbRasterImageDef
  3
ISM
 90
        0
 91
        1
280
     0
281
     0
  0
CLASS
  1
IMAGE
  2
AcDbRasterImage
  3
ISM
 90
     2175
 91
        1
280
     0
281
     1
  0
CLASS
  1
DICTIONARYVAR
  2
AcDbDictionaryVar
  3
ObjectDBX Classes
 90
        0
 91
        5
280
     0
281
     0
  0
CLASS
  1
CELLSTYLEMAP
  2
AcDbCellStyleMap
  3
ObjectDBX Classes
 90
     1152
 91
        1
280
     0
281
     0
  0
ENDSEC
  0
SECTION
  2
TABLES
  0
TABLE
  2
VPORT
  5
8
330
0
100
AcDbSymbolTable
 70
     1
  0
VPORT
  5
57
330
8
100
AcDbSymbolTableRecord
100
AcDbViewportTableRecord
  2
*Active
 70
     0
 10
0.0
 20
0.0
 11
1.0
 21
1.0
 12
0.0
 22
0.0
 13
0.0
 23
0.0
 14
1.0
 24
1.0
 15
0.0
 25
0.0
 16
0.0
 26
0.0
 36
1.0
 17
-3318.362213134765
 27
3405.055084228516
 37
0.0
 40
8663.767628173827
 41
0.9215183772060527
 42
50.0
 43
0.0
 44
0.0
 50
0.0
 51
0.0
 71
     0
 72
   100
 73
     1
 74
     1
 75
     0
 76
     0
 77
     0
 78
     0
281
     0
 65
     1
110
0.0
120
0.0
130
0.0
111
1.0
121
0.0
131
0.0
112
0.0
122
1.0
132
0.0
 79
     0
146
0.0
 60
     3
 61
     5
292
     1
282
     1
141
0.0
142
0.0
 63
   250
421
  3355443
  0
ENDTAB
  0
TABLE
  2
LTYPE
  5
5
330
0
100
AcDbSymbolTable
 70
     1
  0
LTYPE
  5
5B
330
5
100
AcDbSymbolTableRecord
100
AcDbLinetypeTableRecord
  2
ByBlock
 70
     0
  3

 72
    65
 73
     0
 40
0.0
  0
LTYPE
  5
5C
330
5
100
AcDbSymbolTableRecord
100
AcDbLinetypeTableRecord
  2
ByLayer
 70
     0
  3

 72
    65
 73
     0
 40
0.0
  0
LTYPE
  5
5D
330
5
100
AcDbSymbolTableRecord
100
AcDbLinetypeTableRecord
  2
Continuous
 70
     0
  3
Solid line
 72
    65
 73
     0
 40
0.0
  0
ENDTAB
  0
TABLE
  2
LAYER
  5
2
330
0
100
AcDbSymbolTable
 70
     2
  0
LAYER
  5
54
330
2
100
AcDbSymbolTableRecord
100
AcDbLayerTableRecord
  2
0
 70
     0
 62
     7
  6
Continuous
370
    -3
390
F
347
21
348
0
  0
LAYER
  5
78
330
2
100
AcDbSymbolTableRecord
100
AcDbLayerTableRecord
  2
Layer 1
 70
     0
 62
     7
  6
Continuous
370
     0
390
F
347
21
348
0
  0
ENDTAB
  0
TABLE
  2
STYLE
  5
3
330
0
100
AcDbSymbolTable
 70
     2
  0
STYLE
  5
55
330
3
100
AcDbSymbolTableRecord
100
AcDbTextStyleTableRecord
  2
Standard
 70
     0
 40
0.0
 41
1.0
 50
0.0
 71
     0
 42
0.2
  3
txt
  4

  0
STYLE
  5
5A
330
3
100
AcDbSymbolTableRecord
100
AcDbTextStyleTableRecord
  2
Annotative
 70
     0
 40
0.0
 41
1.0
 50
0.0
 71
     0
 42
0.2
  3
txt
  4

1001
AcadAnnotative
1000
AnnotativeData
1002
{
1070
     1
1070
     1
1002
}
  0
ENDTAB
  0
TABLE
  2
VIEW
  5
6
330
0
100
AcDbSymbolTable
 70
     0
  0
ENDTAB
  0
TABLE
  2
UCS
  5
7
330
0
100
AcDbSymbolTable
 70
     0
  0
ENDTAB
  0
TABLE
  2
APPID
  5
9
330
0
100
AcDbSymbolTable
 70
     2
  0
APPID
  5
56
330
9
100
AcDbSymbolTableRecord
100
AcDbRegAppTableRecord
  2
ACAD
 70
     0
  0
APPID
  5
5E
330
9
100
AcDbSymbolTableRecord
100
AcDbRegAppTableRecord
  2
AcadAnnotative
 70
     0
  0
ENDTAB
  0
TABLE
  2
DIMSTYLE
  5
A
330
0
100
AcDbSymbolTable
 70
     2
100
AcDbDimStyleTable
 71
     0
  0
DIMSTYLE
105
58
330
A
100
AcDbSymbolTableRecord
100
AcDbDimStyleTableRecord
  2
Standard
 70
     0
340
55
  0
DIMSTYLE
105
59
330
A
100
AcDbSymbolTableRecord
100
AcDbDimStyleTableRecord
  2
Annotative
 70
     0
340
55
1001
AcadAnnotative
1000
AnnotativeData
1002
{
1070
     1
1070
     1
1002
}
  0
ENDTAB
  0
TABLE
  2
BLOCK_RECORD
  5
1
330
0
100
AcDbSymbolTable
 70
     3
  0
BLOCK_RECORD
  5
70
330
1
100
AcDbSymbolTableRecord
100
AcDbBlockTableRecord
  2
*Model_Space
340
73
 70
     0
280
     1
281
     0
  0
BLOCK_RECORD
  5
6C
330
1
100
AcDbSymbolTableRecord
100
AcDbBlockTableRecord
  2
*Paper_Space
340
6F
 70
     0
280
     1
281
     0
  0
BLOCK_RECORD
  5
74
330
1
100
AcDbSymbolTableRecord
100
AcDbBlockTableRecord
  2
*Paper_Space0
340
77
 70
     0
280
     1
281
     0
  0
BLOCK_RECORD
  5
79
330
1
100
AcDbSymbolTableRecord
100
AcDbBlockTableRecord
  2
Block_0
340
0
102
{BLKREFS
331
7A
102
}
 70
     0
280
     1
281
     0
  0
BLOCK_RECORD
  5
8F
330
1
100
AcDbSymbolTableRecord
100
AcDbBlockTableRecord
  2
Block_1
340
0
102
{BLKREFS
331
90
102
}
 70
     0
280
     1
281
     0
  0
ENDTAB
  0
ENDSEC
  0
SECTION
  2
BLOCKS
  0
BLOCK
  5
71
330
70
100
AcDbEntity
  8
0
100
AcDbBlockBegin
  2
*Model_Space
 70
     0
 10
0.0
 20
0.0
 30
0.0
  3
*Model_Space
  1

  0
ENDBLK
  5
72
330
70
100
AcDbEntity
  8
0
100
AcDbBlockEnd
  0
BLOCK
  5
6D
330
6C
100
AcDbEntity
 67
     1
  8
0
100
AcDbBlockBegin
  2
*Paper_Space
 70
     0
 10
0.0
 20
0.0
 30
0.0
  3
*Paper_Space
  1

  0
ENDBLK
  5
6E
330
6C
100
AcDbEntity
 67
     1
  8
0
100
AcDbBlockEnd
  0
BLOCK
  5
75
330
74
100
AcDbEntity
 67
     1
  8
0
100
AcDbBlockBegin
  2
*Paper_Space0
 70
     0
 10
0.0
 20
0.0
 30
0.0
  3
*Paper_Space0
  1

  0
ENDBLK
  5
76
330
74
100
AcDbEntity
 67
     1
  8
0
100
AcDbBlockEnd
  0
BLOCK
  5
7B
330
79
100
AcDbEntity
  8
0
100
AcDbBlockBegin
  2
Block_0
 70
     0
 10
0.0
 20
0.0
 30
0.0
  3
Block_0
  1

  0
SPLINE
  5
7D
330
79
100
AcDbEntity
  8
Layer 1
100
AcDbSpline
210
0.0
220
0.0
230
1.0
 70
    11
 71
     3
 72
    17
 73
    13
 74
     0
 42
0.0000000001
 43
0.0000000001
 40
0.0
 40
0.0
 40
0.0
 40
0.0
 40
1.0
 40
1.0
 40
1.0
 40
2.0
 40
2.0
 40
2.0
 40
3.0
 40
3.0
 40
3.0
 40
4.0
 40
4.0
 40
4.0
 40
4.0
 10
273.71923828125
 20
-311.17919921875
 30
0.0
 10
273.71923828125
 20
-311.17919921875
 30
0.0
 10
273.71923828125
 20
-323.17626953125
 30
0.0
 10
273.71923828125
 20
-323.17626953125
 30
0.0
 10
273.71923828125
 20
-323.17626953125
 30
0.0
 10
270.03662109375
 20
-323.17626953125
 30
0.0
 10
270.03662109375
 20
-323.17626953125
 30
0.0
 10
270.03662109375
 20
-323.17626953125
 30
0.0
 10
270.03662109375
 20
-311.17919921875
 30
0.0
 10
270.03662109375
 20
-311.17919921875
 30
0.0
 10
270.03662109375
 20
-311.17919921875
 30
0.0
 10
273.71923828125
 20
-311.17919921875
 30
0.0
 10
273.71923828125
 20
-311.17919921875
 30
0.0
  0
HATCH
  5
7E
330
79
100
AcDbEntity
  8
Layer 1
 62
   250
420
  2301728
440
 33554687
100
AcDbHatch
 10
0.0
 20
0.0
 30
0.0
210
0.0
220
0.0
230
1.0
  2
SOLID
 70
     1
 71
     1
 91
        1
 92
        1
 93
        1
 72
     4
 94
        3
 73
     0
 74
     0
 95
       17
 96
       13
 40
0.0
 40
0.0
 40
0.0
 40
0.0
 40
1.0
 40
1.0
 40
1.0
 40
2.0
 40
2.0
 40
2.0
 40
3.0
 40
3.0
 40
3.0
 40
4.0
 40
4.0
 40
4.0
 40
4.0
 10
273.71923828125
 20
-311.17919921875
 10
273.71923828125
 20
-311.17919921875
 10
273.71923828125
 20
-323.17626953125
 10
273.71923828125
 20
-323.17626953125
 10
273.71923828125
 20
-323.17626953125
 10
270.03662109375
 20
-323.17626953125
 10
270.03662109375
 20
-323.17626953125
 10
270.03662109375
 20
-323.17626953125
 10
270.03662109375
 20
-311.17919921875
 10
270.03662109375
 20
-311.17919921875
 10
270.03662109375
 20
-311.17919921875
 10
273.71923828125
 20
-311.17919921875
 10
273.71923828125
 20
-311.17919921875
 97
        0
 97
        1
330
7D
 75
     2
 76
     1
 98
        1
 10
0.0
 20
0.0
450
        0
451
        0
460
0.0
461
0.0
452
        0
462
0.0
453
        0
470

  0
SPLINE
  5
7F
330
79
100
AcDbEntity
  8
Layer 1
100
AcDbSpline
210
0.0
220
0.0
230
1.0
 70
    11
 71
     3
 72
    23
 73
    19
 74
     0
 42
0.0000000001
 43
0.0000000001
 40
0.0
 40
0.0
 40
0.0
 40
0.0
 40
1.0
 40
1.0
 40
1.0
 40
2.0
 40
2.0
 40
2.0
 40
3.0
 40
3.0
 40
3.0
 40
4.0
 40
4.0
 40
4.0
 40
5.0
 40
5.0
 40
5.0
 40
6.0
 40
6.0
 40
6.0
 40
6.0
 10
259.55126953125
 20
-341.83203125
 30
0.0
 10
259.55126953125
 20
-341.83203125
 30
0.0
 10
259.55126953125
 20
-344.7763671875
 30
0.0
 10
259.55126953125
 20
-344.7763671875
 30
0.0
 10
259.55126953125
 20
-344.7763671875
 30
0.0
 10
251.14013671875
 20
-344.7763671875
 30
0.0
 10
251.14013671875
 20
-344.7763671875
 30
0.0
 10
251.14013671875
 20
-344.7763671875
 30
0.0
 10
251.14013671875
 20
-332.779296875
 30
0.0
 10
251.14013671875
 20
-332.779296875
 30
0.0
 10
251.14013671875
 20
-332.779296875
 30
0.0
 10
254.82275390625
 20
-332.779296875
 30
0.0
 10
254.82275390625
 20
-332.779296875
 30
0.0
 10
254.82275390625
 20
-332.779296875
 30
0.0
 10
254.82275390625
 20
-341.83203125
 30
0.0
 10
254.82275390625
 20
-341.83203125
 30
0.0
 10
254.82275390625
 20
-341.83203125
 30
0.0
 10
259.55126953125
 20
-341.83203125
 30
0.0
 10
259.55126953125
 20
-341.83203125
 30
0.0
  0
HATCH
  5
80
330
79
100
AcDbEntity
  8
Layer 1
 62
   250
420
  2301728
440
 33554687
100
AcDbHatch
 10
0.0
 20
0.0
 30
0.0
210
0.0
220
0.0
230
1.0
  2
SOLID
 70
     1
 71
     1
 91
        1
 92
        1
 93
        1
 72
     4
 94
        3
 73
     0
 74
     0
 95
       23
 96
       19
 40
0.0
 40
0.0
 40
0.0
 40
0.0
 40
1.0
 40
1.0
 40
1.0
 40
2.0
 40
2.0
 40
2.0
 40
3.0
 40
3.0
 40
3.0
 40
4.0
 40
4.0
 40
4.0
 40
5.0
 40
5.0
 40
5.0
 40
6.0
 40
6.0
 40
6.0
 40
6.0
 10
259.55126953125
 20
-341.83203125
 10
259.55126953125
 20
-341.83203125
 10
259.55126953125
 20
-344.7763671875
 10
259.55126953125
 20
-344.7763671875
 10
259.55126953125
 20
-344.7763671875
 10
251.14013671875
 20
-344.7763671875
 10
251.14013671875
 20
-344.7763671875
 10
251.14013671875
 20
-344.7763671875
 10
251.14013671875
 20
-332.779296875
 10
251.14013671875
 20
-332.779296875
 10
251.14013671875
 20
-332.779296875
 10
254.82275390625
 20
-332.779296875
 10
254.82275390625
 20
-332.779296875
 10
254.82275390625
 20
-332.779296875
 10
254.82275390625
 20
-341.83203125
 10
254.82275390625
 20
-341.83203125
 10
254.82275390625
 20
-341.83203125
 10
259.55126953125
 20
-341.83203125
 10
259.55126953125
 20
-341.83203125
 97
        0
 97
        1
330
7F
 75
     2
 76
     1
 98
        1
 10
0.0
 20
0.0
450
        0
451
        0
460
0.0
461
0.0
452
        0
462
0.0
453
        0
470

  0
SPLINE
  5
81
330
79
100
AcDbEntity
  8
Layer 1
100
AcDbSpline
210
0.0
220
0.0
230
1.0
 70
     9
 71
     3
 72
    20
 73
    16
 74
     0
 42
0.0000000001
 43
0.0000000001
 40
0.0
 40
0.0
 40
0.0
 40
0.0
 40
1.0
 40
1.0
 40
1.0
 40
2.0
 40
2.0
 40
2.0
 40
3.0
 40
3.0
 40
3.0
 40
4.0
 40
4.0
 40
4.0
 40
5.0
 40
5.0
 40
5.0
 40
5.0
 10
265.84423828125
 20
-342.236328125
 30
0.0
 10
266.46533203125
 20
-342.236328125
 30
0.0
 10
266.912109375
 20
-341.96533203125
 30
0.0
 10
267.1845703125
 20
-341.42333984375
 30
0.0
 10
267.45703125
 20
-340.88134765625
 30
0.0
 10
267.59326171875
 20
-339.8896484375
 30
0.0
 10
267.59326171875
 20
-338.4482421875
 30
0.0
 10
267.59326171875
 20
-336.3623046875
 30
0.0
 10
267.03369140625
 20
-335.3193359375
 30
0.0
 10
265.91455078125
 20
-335.3193359375
 30
0.0
 10
264.70751953125
 20
-335.3193359375
 30
0.0
 10
264.10400390625
 20
-336.5087890625
 30
0.0
 10
264.10400390625
 20
-338.8876953125
 30
0.0
 10
264.10400390625
 20
-341.1201171875
 30
0.0
 10
264.68408203125
 20
-342.236328125
 30
0.0
 10
265.84423828125
 20
-342.236328125
 30
0.0
  0
SPLINE
  5
82
330
79
100
AcDbEntity
  8
Layer 1
100
AcDbSpline
210
0.0
220
0.0
230
1.0
 70
     9
 71
     3
 72
    29
 73
    25
 74
     0
 42
0.0000000001
 43
0.0000000001
 40
0.0
 40
0.0
 40
0.0
 40
0.0
 40
1.0
 40
1.0
 40
1.0
 40
2.0
 40
2.0
 40
2.0
 40
3.0
 40
3.0
 40
3.0
 40
4.0
 40
4.0
 40
4.0
 40
5.0
 40
5.0
 40
5.0
 40
6.0
 40
6.0
 40
6.0
 40
7.0
 40
7.0
 40
7.0
 40
8.0
 40
8.0
 40
8.0
 40
8.0
 10
265.86181640625
 20
-344.9609375
 30
0.0
 10
264.17431640625
 20
-344.9609375
 30
0.0
 10
262.798828125
 20
-344.4013671875
 30
0.0
 10
261.7353515625
 20
-343.2822265625
 30
0.0
 10
260.671875
 20
-342.1630859375
 30
0.0
 10
260.14013671875
 20
-340.666015625
 30
0.0
 10
260.14013671875
 20
-338.791015625
 30
0.0
 10
260.14013671875
 20
-336.998046875
 30
0.0
 10
260.6484375
 20
-335.51708984375
 30
0.0
 10
261.6650390625
 20
-334.34814453125
 30
0.0
 10
262.681640625
 20
-333.17919921875
 30
0.0
 10
264.09228515625
 20
-332.5947265625
 30
0.0
 10
265.89697265625
 20
-332.5947265625
 30
0.0
 10
267.56689453125
 20
-332.5947265625
 30
0.0
 10
268.927734375
 20
-333.1455078125
 30
0.0
 10
269.9794921875
 20
-334.2470703125
 30
0.0
 10
271.03125
 20
-335.3486328125
 30
0.0
 10
271.55712890625
 20
-336.8193359375
 30
0.0
 10
271.55712890625
 20
-338.6591796875
 30
0.0
 10
271.55712890625
 20
-340.5634765625
 30
0.0
 10
271.02685546875
 20
-342.08984375
 30
0.0
 10
269.96630859375
 20
-343.23828125
 30
0.0
 10
268.90576171875
 20
-344.38671875
 30
0.0
 10
267.53759765625
 20
-344.9609375
 30
0.0
 10
265.86181640625
 20
-344.9609375
 30
0.0
  0
HATCH
  5
83
330
79
100
AcDbEntity
  8
Layer 1
 62
   250
420
  2301728
440
 33554687
100
AcDbHatch
 10
0.0
 20
0.0
 30
0.0
210
0.0
220
0.0
230
1.0
  2
SOLID
 70
     1
 71
     1
 91
        2
 92
        1
 93
        1
 72
     4
 94
        3
 73
     0
 74
     0
 95
       20
 96
       16
 40
0.0
 40
0.0
 40
0.0
 40
0.0
 40
1.0
 40
1.0
 40
1.0
 40
2.0
 40
2.0
 40
2.0
 40
3.0
 40
3.0
 40
3.0
 40
4.0
 40
4.0
 40
4.0
 40
5.0
 40
5.0
 40
5.0
 40
5.0
 10
265.84423828125
 20
-342.236328125
 10
266.46533203125
 20
-342.236328125
 10
266.912109375
 20
-341.96533203125
 10
267.1845703125
 20
-341.42333984375
 10
267.45703125
 20
-340.88134765625
 10
267.59326171875
 20
-339.8896484375
 10
267.59326171875
 20
-338.4482421875
 10
267.59326171875
 20
-336.3623046875
 10
267.03369140625
 20
-335.3193359375
 10
265.91455078125
 20
-335.3193359375
 10
264.70751953125
 20
-335.3193359375
 10
264.10400390625
 20
-336.5087890625
 10
264.10400390625
 20
-338.8876953125
 10
264.10400390625
 20
-341.1201171875
 10
264.68408203125
 20
-342.236328125
 10
265.84423828125
 20
-342.236328125
 97
        0
 97
        1
330
81
 92
        1
 93
        1
 72
     4
 94
        3
 73
     0
 74
     0
 95
       29
 96
       25
 40
0.0
 40
0.0
 40
0.0
 40
0.0
 40
1.0
 40
1.0
 40
1.0
 40
2.0
 40
2.0
 40
2.0
 40
3.0
 40
3.0
 40
3.0
 40
4.0
 40
4.0
 40
4.0
 40
5.0
 40
5.0
 40
5.0
 40
6.0
 40
6.0
 40
6.0
 40
7.0
 40
7.0
 40
7.0
 40
8.0
 40
8.0
 40
8.0
 40
8.0
 10
265.86181640625
 20
-344.9609375
 10
264.17431640625
 20
-344.9609375
 10
262.798828125
 20
-344.4013671875
 10
261.7353515625
 20
-343.2822265625
 10
260.671875
 20
-342.1630859375
 10
260.14013671875
 20
-340.666015625
 10
260.14013671875
 20
-338.791015625
 10
260.14013671875
 20
-336.998046875
 10
260.6484375
 20
-335.51708984375
 10
261.6650390625
 20
-334.34814453125
 10
262.681640625
 20
-333.17919921875
 10
264.09228515625
 20
-332.5947265625
 10
265.89697265625
 20
-332.5947265625
 10
267.56689453125
 20
-332.5947265625
 10
268.927734375
 20
-333.1455078125
 10
269.9794921875
 20
-334.2470703125
 10
271.03125
 20
-335.3486328125
 10
271.55712890625
 20
-336.8193359375
 10
271.55712890625
 20
-338.6591796875
 10
271.55712890625
 20
-340.5634765625
 10
271.02685546875
 20
-342.08984375
 10
269.96630859375
 20
-343.23828125
 10
268.90576171875
 20
-344.38671875
 10
267.53759765625
 20
-344.9609375
 10
265.86181640625
 20
-344.9609375
 97
        0
 97
        1
330
82
 75
     2
 76
     1
 98
        1
 10
0.0
 20
0.0
450
        0
451
        0
460
0.0
461
0.0
452
        0
462
0.0
453
        0
470

  0
SPLINE
  5
84
330
79
100
AcDbEntity
  8
Layer 1
100
AcDbSpline
210
0.0
220
0.0
230
1.0
 70
    11
 71
     3
 72
    29
 73
    25
 74
     0
 42
0.0000000001
 43
0.0000000001
 40
0.0
 40
0.0
 40
0.0
 40
0.0
 40
1.0
 40
1.0
 40
1.0
 40
2.0
 40
2.0
 40
2.0
 40
3.0
 40
3.0
 40
3.0
 40
4.0
 40
4.0
 40
4.0
 40
5.0
 40
5.0
 40
5.0
 40
6.0
 40
6.0
 40
6.0
 40
7.0
 40
7.0
 40
7.0
 40
8.0
 40
8.0
 40
8.0
 40
8.0
 10
283.11669921875
 20
-332.779296875
 30
0.0
 10
283.11669921875
 20
-332.779296875
 30
0.0
 10
279.39404296875
 20
-344.7763671875
 30
0.0
 10
279.39404296875
 20
-344.7763671875
 30
0.0
 10
279.39404296875
 20
-344.7763671875
 30
0.0
 10
275.64111328125
 20
-344.7763671875
 30
0.0
 10
275.64111328125
 20
-344.7763671875
 30
0.0
 10
275.64111328125
 20
-344.7763671875
 30
0.0
 10
271.74853515625
 20
-332.779296875
 30
0.0
 10
271.74853515625
 20
-332.779296875
 30
0.0
 10
271.74853515625
 20
-332.779296875
 30
0.0
 10
275.62890625
 20
-332.779296875
 30
0.0
 10
275.62890625
 20
-332.779296875
 30
0.0
 10
275.62890625
 20
-332.779296875
 30
0.0
 10
277.52783203125
 20
-339.318359375
 30
0.0
 10
277.52783203125
 20
-339.318359375
 30
0.0
 10
277.6572265625
 20
-339.705078125
 30
0.0
 10
277.77197265625
 20
-340.0859375
 30
0.0
 10
277.8720703125
 20
-340.4609375
 30
0.0
 10
277.8720703125
 20
-340.4609375
 30
0.0
 10
280.08935546875
 20
-332.779296875
 30
0.0
 10
280.08935546875
 20
-332.779296875
 30
0.0
 10
280.08935546875
 20
-332.779296875
 30
0.0
 10
283.11669921875
 20
-332.779296875
 30
0.0
 10
283.11669921875
 20
-332.779296875
 30
0.0
  0
HATCH
  5
85
330
79
100
AcDbEntity
  8
Layer 1
 62
   250
420
  2301728
440
 33554687
100
AcDbHatch
 10
0.0
 20
0.0
 30
0.0
210
0.0
220
0.0
230
1.0
  2
SOLID
 70
     1
 71
     1
 91
        1
 92
        1
 93
        1
 72
     4
 94
        3
 73
     0
 74
     0
 95
       29
 96
       25
 40
0.0
 40
0.0
 40
0.0
 40
0.0
 40
1.0
 40
1.0
 40
1.0
 40
2.0
 40
2.0
 40
2.0
 40
3.0
 40
3.0
 40
3.0
 40
4.0
 40
4.0
 40
4.0
 40
5.0
 40
5.0
 40
5.0
 40
6.0
 40
6.0
 40
6.0
 40
7.0
 40
7.0
 40
7.0
 40
8.0
 40
8.0
 40
8.0
 40
8.0
 10
283.11669921875
 20
-332.779296875
 10
283.11669921875
 20
-332.779296875
 10
279.39404296875
 20
-344.7763671875
 10
279.39404296875
 20
-344.7763671875
 10
279.39404296875
 20
-344.7763671875
 10
275.64111328125
 20
-344.7763671875
 10
275.64111328125
 20
-344.7763671875
 10
275.64111328125
 20
-344.7763671875
 10
271.74853515625
 20
-332.779296875
 10
271.74853515625
 20
-332.779296875
 10
271.74853515625
 20
-332.779296875
 10
275.62890625
 20
-332.779296875
 10
275.62890625
 20
-332.779296875
 10
275.62890625
 20
-332.779296875
 10
277.52783203125
 20
-339.318359375
 10
277.52783203125
 20
-339.318359375
 10
277.6572265625
 20
-339.705078125
 10
277.77197265625
 20
-340.0859375
 10
277.8720703125
 20
-340.4609375
 10
277.8720703125
 20
-340.4609375
 10
280.08935546875
 20
-332.779296875
 10
280.08935546875
 20
-332.779296875
 10
280.08935546875
 20
-332.779296875
 10
283.11669921875
 20
-332.779296875
 10
283.11669921875
 20
-332.779296875
 97
        0
 97
        1
330
84
 75
     2
 76
     1
 98
        1
 10
0.0
 20
0.0
450
        0
451
        0
460
0.0
461
0.0
452
        0
462
0.0
453
        0
470

  0
SPLINE
  5
86
330
79
100
AcDbEntity
  8
Layer 1
100
AcDbSpline
210
0.0
220
0.0
230
1.0
 70
    11
 71
     3
 72
    41
 73
    37
 74
     0
 42
0.0000000001
 43
0.0000000001
 40
0.0
 40
0.0
 40
0.0
 40
0.0
 40
1.0
 40
1.0
 40
1.0
 40
2.0
 40
2.0
 40
2.0
 40
3.0
 40
3.0
 40
3.0
 40
4.0
 40
4.0
 40
4.0
 40
5.0
 40
5.0
 40
5.0
 40
6.0
 40
6.0
 40
6.0
 40
7.0
 40
7.0
 40
7.0
 40
8.0
 40
8.0
 40
8.0
 40
9.0
 40
9.0
 40
9.0
 40
10.0
 40
10.0
 40
10.0
 40
11.0
 40
11.0
 40
11.0
 40
12.0
 40
12.0
 40
12.0
 40
12.0
 10
293.24853515625
 20
-341.9111328125
 30
0.0
 10
293.24853515625
 20
-341.9111328125
 30
0.0
 10
293.24853515625
 20
-344.7763671875
 30
0.0
 10
293.24853515625
 20
-344.7763671875
 30
0.0
 10
293.24853515625
 20
-344.7763671875
 30
0.0
 10
284.22216796875
 20
-344.7763671875
 30
0.0
 10
284.22216796875
 20
-344.7763671875
 30
0.0
 10
284.22216796875
 20
-344.7763671875
 30
0.0
 10
284.22216796875
 20
-332.779296875
 30
0.0
 10
284.22216796875
 20
-332.779296875
 30
0.0
 10
284.22216796875
 20
-332.779296875
 30
0.0
 10
293.24853515625
 20
-332.779296875
 30
0.0
 10
293.24853515625
 20
-332.779296875
 30
0.0
 10
293.24853515625
 20
-332.779296875
 30
0.0
 10
293.24853515625
 20
-335.5478515625
 30
0.0
 10
293.24853515625
 20
-335.5478515625
 30
0.0
 10
293.24853515625
 20
-335.5478515625
 30
0.0
 10
287.83447265625
 20
-335.5478515625
 30
0.0
 10
287.83447265625
 20
-335.5478515625
 30
0.0
 10
287.83447265625
 20
-335.5478515625
 30
0.0
 10
287.83447265625
 20
-337.2880859375
 30
0.0
 10
287.83447265625
 20
-337.2880859375
 30
0.0
 10
287.83447265625
 20
-337.2880859375
 30
0.0
 10
292.21142578125
 20
-337.2880859375
 30
0.0
 10
292.21142578125
 20
-337.2880859375
 30
0.0
 10
292.21142578125
 20
-337.2880859375
 30
0.0
 10
292.21142578125
 20
-339.951171875
 30
0.0
 10
292.21142578125
 20
-339.951171875
 30
0.0
 10
292.21142578125
 20
-339.951171875
 30
0.0
 10
287.83447265625
 20
-339.951171875
 30
0.0
 10
287.83447265625
 20
-339.951171875
 30
0.0
 10
287.83447265625
 20
-339.951171875
 30
0.0
 10
287.83447265625
 20
-341.9111328125
 30
0.0
 10
287.83447265625
 20
-341.9111328125
 30
0.0
 10
287.83447265625
 20
-341.9111328125
 30
0.0
 10
293.24853515625
 20
-341.9111328125
 30
0.0
 10
293.24853515625
 20
-341.9111328125
 30
0.0
  0
HATCH
  5
87
330
79
100
AcDbEntity
  8
Layer 1
 62
   250
420
  2301728
440
 33554687
100
AcDbHatch
 10
0.0
 20
0.0
 30
0.0
210
0.0
220
0.0
230
1.0
  2
SOLID
 70
     1
 71
     1
 91
        1
 92
        1
 93
        1
 72
     4
 94
        3
 73
     0
 74
     0
 95
       41
 96
       37
 40
0.0
 40
0.0
 40
0.0
 40
0.0
 40
1.0
 40
1.0
 40
1.0
 40
2.0
 40
2.0
 40
2.0
 40
3.0
 40
3.0
 40
3.0
 40
4.0
 40
4.0
 40
4.0
 40
5.0
 40
5.0
 40
5.0
 40
6.0
 40
6.0
 40
6.0
 40
7.0
 40
7.0
 40
7.0
 40
8.0
 40
8.0
 40
8.0
 40
9.0
 40
9.0
 40
9.0
 40
10.0
 40
10.0
 40
10.0
 40
11.0
 40
11.0
 40
11.0
 40
12.0
 40
12.0
 40
12.0
 40
12.0
 10
293.24853515625
 20
-341.9111328125
 10
293.24853515625
 20
-341.9111328125
 10
293.24853515625
 20
-344.7763671875
 10
293.24853515625
 20
-344.7763671875
 10
293.24853515625
 20
-344.7763671875
 10
284.22216796875
 20
-344.7763671875
 10
284.22216796875
 20
-344.7763671875
 10
284.22216796875
 20
-344.7763671875
 10
284.22216796875
 20
-332.779296875
 10
284.22216796875
 20
-332.779296875
 10
284.22216796875
 20
-332.779296875
 10
293.24853515625
 20
-332.779296875
 10
293.24853515625
 20
-332.779296875
 10
293.24853515625
 20
-332.779296875
 10
293.24853515625
 20
-335.5478515625
 10
293.24853515625
 20
-335.5478515625
 10
293.24853515625
 20
-335.5478515625
 10
287.83447265625
 20
-335.5478515625
 10
287.83447265625
 20
-335.5478515625
 10
287.83447265625
 20
-335.5478515625
 10
287.83447265625
 20
-337.2880859375
 10
287.83447265625
 20
-337.2880859375
 10
287.83447265625
 20
-337.2880859375
 10
292.21142578125
 20
-337.2880859375
 10
292.21142578125
 20
-337.2880859375
 10
292.21142578125
 20
-337.2880859375
 10
292.21142578125
 20
-339.951171875
 10
292.21142578125
 20
-339.951171875
 10
292.21142578125
 20
-339.951171875
 10
287.83447265625
 20
-339.951171875
 10
287.83447265625
 20
-339.951171875
 10
287.83447265625
 20
-339.951171875
 10
287.83447265625
 20
-341.9111328125
 10
287.83447265625
 20
-341.9111328125
 10
287.83447265625
 20
-341.9111328125
 10
293.24853515625
 20
-341.9111328125
 10
293.24853515625
 20
-341.9111328125
 97
        0
 97
        1
330
86
 75
     2
 76
     1
 98
        1
 10
0.0
 20
0.0
450
        0
451
        0
460
0.0
461
0.0
452
        0
462
0.0
453
        0
470

  0
SPLINE
  5
88
330
79
100
AcDbEntity
  8
Layer 1
100
AcDbSpline
210
0.0
220
0.0
230
1.0
 70
    11
 71
     3
 72
    32
 73
    28
 74
     0
 42
0.0000000001
 43
0.0000000001
 40
0.0
 40
0.0
 40
0.0
 40
0.0
 40
1.0
 40
1.0
 40
1.0
 40
2.0
 40
2.0
 40
2.0
 40
3.0
 40
3.0
 40
3.0
 40
4.0
 40
4.0
 40
4.0
 40
5.0
 40
5.0
 40
5.0
 40
6.0
 40
6.0
 40
6.0
 40
7.0
 40
7.0
 40
7.0
 40
8.0
 40
8.0
 40
8.0
 40
9.0
 40
9.0
 40
9.0
 40
9.0
 10
265.79345703125
 20
-354.37939453125
 30
0.0
 10
265.79345703125
 20
-354.37939453125
 30
0.0
 10
262.03857421875
 20
-361.29638671875
 30
0.0
 10
262.03857421875
 20
-361.29638671875
 30
0.0
 10
262.03857421875
 20
-361.29638671875
 30
0.0
 10
262.03857421875
 20
-366.37646484375
 30
0.0
 10
262.03857421875
 20
-366.37646484375
 30
0.0
 10
262.03857421875
 20
-366.37646484375
 30
0.0
 10
258.46142578125
 20
-366.37646484375
 30
0.0
 10
258.46142578125
 20
-366.37646484375
 30
0.0
 10
258.46142578125
 20
-366.37646484375
 30
0.0
 10
258.46142578125
 20
-361.29638671875
 30
0.0
 10
258.46142578125
 20
-361.29638671875
 30
0.0
 10
258.46142578125
 20
-361.29638671875
 30
0.0
 10
254.42529296875
 20
-354.37939453125
 30
0.0
 10
254.42529296875
 20
-354.37939453125
 30
0.0
 10
254.42529296875
 20
-354.37939453125
 30
0.0
 10
258.45458984375
 20
-354.37939453125
 30
0.0
 10
258.45458984375
 20
-354.37939453125
 30
0.0
 10
258.45458984375
 20
-354.37939453125
 30
0.0
 10
260.5576171875
 20
-358.333984375
 30
0.0
 10
260.5576171875
 20
-358.333984375
 30
0.0
 10
260.5576171875
 20
-358.333984375
 30
0.0
 10
262.5732421875
 20
-354.37939453125
 30
0.0
 10
262.5732421875
 20
-354.37939453125
 30
0.0
 10
262.5732421875
 20
-354.37939453125
 30
0.0
 10
265.79345703125
 20
-354.37939453125
 30
0.0
 10
265.79345703125
 20
-354.37939453125
 30
0.0
  0
HATCH
  5
89
330
79
100
AcDbEntity
  8
Layer 1
 62
   250
420
  2301728
440
 33554687
100
AcDbHatch
 10
0.0
 20
0.0
 30
0.0
210
0.0
220
0.0
230
1.0
  2
SOLID
 70
     1
 71
     1
 91
        1
 92
        1
 93
        1
 72
     4
 94
        3
 73
     0
 74
     0
 95
       32
 96
       28
 40
0.0
 40
0.0
 40
0.0
 40
0.0
 40
1.0
 40
1.0
 40
1.0
 40
2.0
 40
2.0
 40
2.0
 40
3.0
 40
3.0
 40
3.0
 40
4.0
 40
4.0
 40
4.0
 40
5.0
 40
5.0
 40
5.0
 40
6.0
 40
6.0
 40
6.0
 40
7.0
 40
7.0
 40
7.0
 40
8.0
 40
8.0
 40
8.0
 40
9.0
 40
9.0
 40
9.0
 40
9.0
 10
265.79345703125
 20
-354.37939453125
 10
265.79345703125
 20
-354.37939453125
 10
262.03857421875
 20
-361.29638671875
 10
262.03857421875
 20
-361.29638671875
 10
262.03857421875
 20
-361.29638671875
 10
262.03857421875
 20
-366.37646484375
 10
262.03857421875
 20
-366.37646484375
 10
262.03857421875
 20
-366.37646484375
 10
258.46142578125
 20
-366.37646484375
 10
258.46142578125
 20
-366.37646484375
 10
258.46142578125
 20
-366.37646484375
 10
258.46142578125
 20
-361.29638671875
 10
258.46142578125
 20
-361.29638671875
 10
258.46142578125
 20
-361.29638671875
 10
254.42529296875
 20
-354.37939453125
 10
254.42529296875
 20
-354.37939453125
 10
254.42529296875
 20
-354.37939453125
 10
258.45458984375
 20
-354.37939453125
 10
258.45458984375
 20
-354.37939453125
 10
258.45458984375
 20
-354.37939453125
 10
260.5576171875
 20
-358.333984375
 10
260.5576171875
 20
-358.333984375
 10
260.5576171875
 20
-358.333984375
 10
262.5732421875
 20
-354.37939453125
 10
262.5732421875
 20
-354.37939453125
 10
262.5732421875
 20
-354.37939453125
 10
265.79345703125
 20
-354.37939453125
 10
265.79345703125
 20
-354.37939453125
 97
        0
 97
        1
330
88
 75
     2
 76
     1
 98
        1
 10
0.0
 20
0.0
450
        0
451
        0
460
0.0
461
0.0
452
        0
462
0.0
453
        0
470

  0
SPLINE
  5
8A
330
79
100
AcDbEntity
  8
Layer 1
100
AcDbSpline
210
0.0
220
0.0
230
1.0
 70
     9
 71
     3
 72
    20
 73
    16
 74
     0
 42
0.0000000001
 43
0.0000000001
 40
0.0
 40
0.0
 40
0.0
 40
0.0
 40
1.0
 40
1.0
 40
1.0
 40
2.0
 40
2.0
 40
2.0
 40
3.0
 40
3.0
 40
3.0
 40
4.0
 40
4.0
 40
4.0
 40
5.0
 40
5.0
 40
5.0
 40
5.0
 10
271.04736328125
 20
-363.83642578125
 30
0.0
 10
271.66845703125
 20
-363.83642578125
 30
0.0
 10
272.115234375
 20
-363.5654296875
 30
0.0
 10
272.3876953125
 20
-363.0234375
 30
0.0
 10
272.66015625
 20
-362.4814453125
 30
0.0
 10
272.79638671875
 20
-361.48974609375
 30
0.0
 10
272.79638671875
 20
-360.04833984375
 30
0.0
 10
272.79638671875
 20
-357.96240234375
 30
0.0
 10
272.23681640625
 20
-356.91943359375
 30
0.0
 10
271.11767578125
 20
-356.91943359375
 30
0.0
 10
269.91064453125
 20
-356.91943359375
 30
0.0
 10
269.30712890625
 20
-358.10888671875
 30
0.0
 10
269.30712890625
 20
-360.48779296875
 30
0.0
 10
269.30712890625
 20
-362.72021484375
 30
0.0
 10
269.88720703125
 20
-363.83642578125
 30
0.0
 10
271.04736328125
 20
-363.83642578125
 30
0.0
  0
SPLINE
  5
8B
330
79
100
AcDbEntity
  8
Layer 1
100
AcDbSpline
210
0.0
220
0.0
230
1.0
 70
     9
 71
     3
 72
    29
 73
    25
 74
     0
 42
0.0000000001
 43
0.0000000001
 40
0.0
 40
0.0
 40
0.0
 40
0.0
 40
1.0
 40
1.0
 40
1.0
 40
2.0
 40
2.0
 40
2.0
 40
3.0
 40
3.0
 40
3.0
 40
4.0
 40
4.0
 40
4.0
 40
5.0
 40
5.0
 40
5.0
 40
6.0
 40
6.0
 40
6.0
 40
7.0
 40
7.0
 40
7.0
 40
8.0
 40
8.0
 40
8.0
 40
8.0
 10
271.06494140625
 20
-366.56103515625
 30
0.0
 10
269.37744140625
 20
-366.56103515625
 30
0.0
 10
268.001953125
 20
-366.00146484375
 30
0.0
 10
266.9384765625
 20
-364.88232421875
 30
0.0
 10
265.875
 20
-363.76318359375
 30
0.0
 10
265.34326171875
 20
-362.26611328125
 30
0.0
 10
265.34326171875
 20
-360.39111328125
 30
0.0
 10
265.34326171875
 20
-358.59814453125
 30
0.0
 10
265.8515625
 20
-357.1171875
 30
0.0
 10
266.8681640625
 20
-355.9482421875
 30
0.0
 10
267.884765625
 20
-354.779296875
 30
0.0
 10
269.29541015625
 20
-354.19482421875
 30
0.0
 10
271.10009765625
 20
-354.19482421875
 30
0.0
 10
272.77001953125
 20
-354.19482421875
 30
0.0
 10
274.130859375
 20
-354.74560546875
 30
0.0
 10
275.1826171875
 20
-355.84716796875
 30
0.0
 10
276.234375
 20
-356.94873046875
 30
0.0
 10
276.76025390625
 20
-358.41943359375
 30
0.0
 10
276.76025390625
 20
-360.25927734375
 30
0.0
 10
276.76025390625
 20
-362.16357421875
 30
0.0
 10
276.22998046875
 20
-363.68994140625
 30
0.0
 10
275.16943359375
 20
-364.83837890625
 30
0.0
 10
274.10888671875
 20
-365.98681640625
 30
0.0
 10
272.74072265625
 20
-366.56103515625
 30
0.0
 10
271.06494140625
 20
-366.56103515625
 30
0.0
  0
HATCH
  5
8C
330
79
100
AcDbEntity
  8
Layer 1
 62
   250
420
  2301728
440
 33554687
100
AcDbHatch
 10
0.0
 20
0.0
 30
0.0
210
0.0
220
0.0
230
1.0
  2
SOLID
 70
     1
 71
     1
 91
        2
 92
        1
 93
        1
 72
     4
 94
        3
 73
     0
 74
     0
 95
       20
 96
       16
 40
0.0
 40
0.0
 40
0.0
 40
0.0
 40
1.0
 40
1.0
 40
1.0
 40
2.0
 40
2.0
 40
2.0
 40
3.0
 40
3.0
 40
3.0
 40
4.0
 40
4.0
 40
4.0
 40
5.0
 40
5.0
 40
5.0
 40
5.0
 10
271.04736328125
 20
-363.83642578125
 10
271.66845703125
 20
-363.83642578125
 10
272.115234375
 20
-363.5654296875
 10
272.3876953125
 20
-363.0234375
 10
272.66015625
 20
-362.4814453125
 10
272.79638671875
 20
-361.48974609375
 10
272.79638671875
 20
-360.04833984375
 10
272.79638671875
 20
-357.96240234375
 10
272.23681640625
 20
-356.91943359375
 10
271.11767578125
 20
-356.91943359375
 10
269.91064453125
 20
-356.91943359375
 10
269.30712890625
 20
-358.10888671875
 10
269.30712890625
 20
-360.48779296875
 10
269.30712890625
 20
-362.72021484375
 10
269.88720703125
 20
-363.83642578125
 10
271.04736328125
 20
-363.83642578125
 97
        0
 97
        1
330
8A
 92
        1
 93
        1
 72
     4
 94
        3
 73
     0
 74
     0
 95
       29
 96
       25
 40
0.0
 40
0.0
 40
0.0
 40
0.0
 40
1.0
 40
1.0
 40
1.0
 40
2.0
 40
2.0
 40
2.0
 40
3.0
 40
3.0
 40
3.0
 40
4.0
 40
4.0
 40
4.0
 40
5.0
 40
5.0
 40
5.0
 40
6.0
 40
6.0
 40
6.0
 40
7.0
 40
7.0
 40
7.0
 40
8.0
 40
8.0
 40
8.0
 40
8.0
 10
271.06494140625
 20
-366.56103515625
 10
269.37744140625
 20
-366.56103515625
 10
268.001953125
 20
-366.00146484375
 10
266.9384765625
 20
-364.88232421875
 10
265.875
 20
-363.76318359375
 10
265.34326171875
 20
-362.26611328125
 10
265.34326171875
 20
-360.39111328125
 10
265.34326171875
 20
-358.59814453125
 10
265.8515625
 20
-357.1171875
 10
266.8681640625
 20
-355.9482421875
 10
267.884765625
 20
-354.779296875
 10
269.29541015625
 20
-354.19482421875
 10
271.10009765625
 20
-354.19482421875
 10
272.77001953125
 20
-354.19482421875
 10
274.130859375
 20
-354.74560546875
 10
275.1826171875
 20
-355.84716796875
 10
276.234375
 20
-356.94873046875
 10
276.76025390625
 20
-358.41943359375
 10
276.76025390625
 20
-360.25927734375
 10
276.76025390625
 20
-362.16357421875
 10
276.22998046875
 20
-363.68994140625
 10
275.16943359375
 20
-364.83837890625
 10
274.10888671875
 20
-365.98681640625
 10
272.74072265625
 20
-366.56103515625
 10
271.06494140625
 20
-366.56103515625
 97
        0
 97
        1
330
8B
 75
     2
 76
     1
 98
        1
 10
0.0
 20
0.0
450
        0
451
        0
460
0.0
461
0.0
452
        0
462
0.0
453
        0
470

  0
SPLINE
  5
8D
330
79
100
AcDbEntity
  8
Layer 1
100
AcDbSpline
210
0.0
220
0.0
230
1.0
 70
    11
 71
     3
 72
    50
 73
    46
 74
     0
 42
0.0000000001
 43
0.0000000001
 40
0.0
 40
0.0
 40
0.0
 40
0.0
 40
1.0
 40
1.0
 40
1.0
 40
2.0
 40
2.0
 40
2.0
 40
3.0
 40
3.0
 40
3.0
 40
4.0
 40
4.0
 40
4.0
 40
5.0
 40
5.0
 40
5.0
 40
6.0
 40
6.0
 40
6.0
 40
7.0
 40
7.0
 40
7.0
 40
8.0
 40
8.0
 40
8.0
 40
9.0
 40
9.0
 40
9.0
 40
10.0
 40
10.0
 40
10.0
 40
11.0
 40
11.0
 40
11.0
 40
12.0
 40
12.0
 40
12.0
 40
13.0
 40
13.0
 40
13.0
 40
14.0
 40
14.0
 40
14.0
 40
15.0
 40
15.0
 40
15.0
 40
15.0
 10
288.04541015625
 20
-354.37939453125
 30
0.0
 10
288.04541015625
 20
-354.37939453125
 30
0.0
 10
288.04541015625
 20
-362.32470703125
 30
0.0
 10
288.04541015625
 20
-362.32470703125
 30
0.0
 10
288.04541015625
 20
-363.83056640625
 30
0.0
 10
287.59912109375
 20
-364.9130859375
 30
0.0
 10
286.705078125
 20
-365.572265625
 30
0.0
 10
285.8115234375
 20
-366.2314453125
 30
0.0
 10
284.64697265625
 20
-366.56103515625
 30
0.0
 10
283.21142578125
 20
-366.56103515625
 30
0.0
 10
281.69970703125
 20
-366.56103515625
 30
0.0
 10
280.4853515625
 20
-366.24462890625
 30
0.0
 10
279.568359375
 20
-365.61181640625
 30
0.0
 10
278.6513671875
 20
-364.97900390625
 30
0.0
 10
278.19287109375
 20
-363.94775390625
 30
0.0
 10
278.19287109375
 20
-362.51806640625
 30
0.0
 10
278.19287109375
 20
-362.51806640625
 30
0.0
 10
278.19287109375
 20
-354.37939453125
 30
0.0
 10
278.19287109375
 20
-354.37939453125
 30
0.0
 10
278.19287109375
 20
-354.37939453125
 30
0.0
 10
281.93701171875
 20
-354.37939453125
 30
0.0
 10
281.93701171875
 20
-354.37939453125
 30
0.0
 10
281.93701171875
 20
-354.37939453125
 30
0.0
 10
281.93701171875
 20
-362.08740234375
 30
0.0
 10
281.93701171875
 20
-362.08740234375
 30
0.0
 10
281.93701171875
 20
-362.66162109375
 30
0.0
 10
282.05810546875
 20
-363.08056640625
 30
0.0
 10
282.30078125
 20
-363.34423828125
 30
0.0
 10
282.54296875
 20
-363.60791015625
 30
0.0
 10
282.93017578125
 20
-363.73974609375
 30
0.0
 10
283.46240234375
 20
-363.73974609375
 30
0.0
 10
283.90625
 20
-363.73974609375
 30
0.0
 10
284.27001953125
 20
-363.64453125
 30
0.0
 10
284.55322265625
 20
-363.4541015625
 30
0.0
 10
284.8369140625
 20
-363.263671875
 30
0.0
 10
285.00634765625
 20
-363.04833984375
 30
0.0
 10
285.0615234375
 20
-362.80810546875
 30
0.0
 10
285.1171875
 20
-362.56787109375
 30
0.0
 10
285.14501953125
 20
-362.09912109375
 30
0.0
 10
285.14501953125
 20
-361.40185546875
 30
0.0
 10
285.14501953125
 20
-361.40185546875
 30
0.0
 10
285.14501953125
 20
-354.37939453125
 30
0.0
 10
285.14501953125
 20
-354.37939453125
 30
0.0
 10
285.14501953125
 20
-354.37939453125
 30
0.0
 10
288.04541015625
 20
-354.37939453125
 30
0.0
 10
288.04541015625
 20
-354.37939453125
 30
0.0
  0
HATCH
  5
8E
330
79
100
AcDbEntity
  8
Layer 1
 62
   250
420
  2301728
440
 33554687
100
AcDbHatch
 10
0.0
 20
0.0
 30
0.0
210
0.0
220
0.0
230
1.0
  2
SOLID
 70
     1
 71
     1
 91
        1
 92
        1
 93
        1
 72
     4
 94
        3
 73
     0
 74
     0
 95
       50
 96
       46
 40
0.0
 40
0.0
 40
0.0
 40
0.0
 40
1.0
 40
1.0
 40
1.0
 40
2.0
 40
2.0
 40
2.0
 40
3.0
 40
3.0
 40
3.0
 40
4.0
 40
4.0
 40
4.0
 40
5.0
 40
5.0
 40
5.0
 40
6.0
 40
6.0
 40
6.0
 40
7.0
 40
7.0
 40
7.0
 40
8.0
 40
8.0
 40
8.0
 40
9.0
 40
9.0
 40
9.0
 40
10.0
 40
10.0
 40
10.0
 40
11.0
 40
11.0
 40
11.0
 40
12.0
 40
12.0
 40
12.0
 40
13.0
 40
13.0
 40
13.0
 40
14.0
 40
14.0
 40
14.0
 40
15.0
 40
15.0
 40
15.0
 40
15.0
 10
288.04541015625
 20
-354.37939453125
 10
288.04541015625
 20
-354.37939453125
 10
288.04541015625
 20
-362.32470703125
 10
288.04541015625
 20
-362.32470703125
 10
288.04541015625
 20
-363.83056640625
 10
287.59912109375
 20
-364.9130859375
 10
286.705078125
 20
-365.572265625
 10
285.8115234375
 20
-366.2314453125
 10
284.64697265625
 20
-366.56103515625
 10
283.21142578125
 20
-366.56103515625
 10
281.69970703125
 20
-366.56103515625
 10
280.4853515625
 20
-366.24462890625
 10
279.568359375
 20
-365.61181640625
 10
278.6513671875
 20
-364.97900390625
 10
278.19287109375
 20
-363.94775390625
 10
278.19287109375
 20
-362.51806640625
 10
278.19287109375
 20
-362.51806640625
 10
278.19287109375
 20
-354.37939453125
 10
278.19287109375
 20
-354.37939453125
 10
278.19287109375
 20
-354.37939453125
 10
281.93701171875
 20
-354.37939453125
 10
281.93701171875
 20
-354.37939453125
 10
281.93701171875
 20
-354.37939453125
 10
281.93701171875
 20
-362.08740234375
 10
281.93701171875
 20
-362.08740234375
 10
281.93701171875
 20
-362.66162109375
 10
282.05810546875
 20
-363.08056640625
 10
282.30078125
 20
-363.34423828125
 10
282.54296875
 20
-363.60791015625
 10
282.93017578125
 20
-363.73974609375
 10
283.46240234375
 20
-363.73974609375
 10
283.90625
 20
-363.73974609375
 10
284.27001953125
 20
-363.64453125
 10
284.55322265625
 20
-363.4541015625
 10
284.8369140625
 20
-363.263671875
 10
285.00634765625
 20
-363.04833984375
 10
285.0615234375
 20
-362.80810546875
 10
285.1171875
 20
-362.56787109375
 10
285.14501953125
 20
-362.09912109375
 10
285.14501953125
 20
-361.40185546875
 10
285.14501953125
 20
-361.40185546875
 10
285.14501953125
 20
-354.37939453125
 10
285.14501953125
 20
-354.37939453125
 10
285.14501953125
 20
-354.37939453125
 10
288.04541015625
 20
-354.37939453125
 10
288.04541015625
 20
-354.37939453125
 97
        0
 97
        1
330
8D
 75
     2
 76
     1
 98
        1
 10
0.0
 20
0.0
450
        0
451
        0
460
0.0
461
0.0
452
        0
462
0.0
453
        0
470

  0
ENDBLK
  5
7C
330
79
100
AcDbEntity
  8
0
100
AcDbBlockEnd
  0
BLOCK
  5
91
330
8F
100
AcDbEntity
  8
0
100
AcDbBlockBegin
  2
Block_1
 70
     0
 10
0.0
 20
0.0
 30
0.0
  3
Block_1
  1

  0
SPLINE
  5
93
330
8F
100
AcDbEntity
  8
Layer 1
100
AcDbSpline
210
0.0
220
0.0
230
1.0
 70
    11
 71
     3
 72
    35
 73
    31
 74
     0
 42
0.0000000001
 43
0.0000000001
 40
0.0
 40
0.0
 40
0.0
 40
0.0
 40
1.0
 40
1.0
 40
1.0
 40
2.0
 40
2.0
 40
2.0
 40
3.0
 40
3.0
 40
3.0
 40
4.0
 40
4.0
 40
4.0
 40
5.0
 40
5.0
 40
5.0
 40
6.0
 40
6.0
 40
6.0
 40
7.0
 40
7.0
 40
7.0
 40
8.0
 40
8.0
 40
8.0
 40
9.0
 40
9.0
 40
9.0
 40
10.0
 40
10.0
 40
10.0
 40
10.0
 10
292.048828125
 20
-318.58203125
 30
0.0
 10
292.048828125
 20
-318.58203125
 30
0.0
 10
288.1376953125
 20
-318.58203125
 30
0.0
 10
288.1376953125
 20
-318.58203125
 30
0.0
 10
288.1376953125
 20
-318.58203125
 30
0.0
 10
288.1376953125
 20
-323.0732421875
 30
0.0
 10
288.1376953125
 20
-323.0732421875
 30
0.0
 10
288.1376953125
 20
-323.0732421875
 30
0.0
 10
284.5517578125
 20
-323.0732421875
 30
0.0
 10
284.5517578125
 20
-323.0732421875
 30
0.0
 10
284.5517578125
 20
-323.0732421875
 30
0.0
 10
284.5517578125
 20
-311.076171875
 30
0.0
 10
284.5517578125
 20
-311.076171875
 30
0.0
 10
284.5517578125
 20
-311.076171875
 30
0.0
 10
293.2265625
 20
-311.076171875
 30
0.0
 10
293.2265625
 20
-311.076171875
 30
0.0
 10
293.2265625
 20
-311.076171875
 30
0.0
 10
293.2265625
 20
-313.9326171875
 30
0.0
 10
293.2265625
 20
-313.9326171875
 30
0.0
 10
293.2265625
 20
-313.9326171875
 30
0.0
 10
288.1376953125
 20
-313.9326171875
 30
0.0
 10
288.1376953125
 20
-313.9326171875
 30
0.0
 10
288.1376953125
 20
-313.9326171875
 30
0.0
 10
288.1376953125
 20
-315.8837890625
 30
0.0
 10
288.1376953125
 20
-315.8837890625
 30
0.0
 10
288.1376953125
 20
-315.8837890625
 30
0.0
 10
292.048828125
 20
-315.8837890625
 30
0.0
 10
292.048828125
 20
-315.8837890625
 30
0.0
 10
292.048828125
 20
-315.8837890625
 30
0.0
 10
292.048828125
 20
-318.58203125
 30
0.0
 10
292.048828125
 20
-318.58203125
 30
0.0
  0
HATCH
  5
94
330
8F
100
AcDbEntity
  8
Layer 1
 62
   250
420
  2301728
440
 33554687
100
AcDbHatch
 10
0.0
 20
0.0
 30
0.0
210
0.0
220
0.0
230
1.0
  2
SOLID
 70
     1
 71
     1
 91
        1
 92
        1
 93
        1
 72
     4
 94
        3
 73
     0
 74
     0
 95
       35
 96
       31
 40
0.0
 40
0.0
 40
0.0
 40
0.0
 40
1.0
 40
1.0
 40
1.0
 40
2.0
 40
2.0
 40
2.0
 40
3.0
 40
3.0
 40
3.0
 40
4.0
 40
4.0
 40
4.0
 40
5.0
 40
5.0
 40
5.0
 40
6.0
 40
6.0
 40
6.0
 40
7.0
 40
7.0
 40
7.0
 40
8.0
 40
8.0
 40
8.0
 40
9.0
 40
9.0
 40
9.0
 40
10.0
 40
10.0
 40
10.0
 40
10.0
 10
292.048828125
 20
-318.58203125
 10
292.048828125
 20
-318.58203125
 10
288.1376953125
 20
-318.58203125
 10
288.1376953125
 20
-318.58203125
 10
288.1376953125
 20
-318.58203125
 10
288.1376953125
 20
-323.0732421875
 10
288.1376953125
 20
-323.0732421875
 10
288.1376953125
 20
-323.0732421875
 10
284.5517578125
 20
-323.0732421875
 10
284.5517578125
 20
-323.0732421875
 10
284.5517578125
 20
-323.0732421875
 10
284.5517578125
 20
-311.076171875
 10
284.5517578125
 20
-311.076171875
 10
284.5517578125
 20
-311.076171875
 10
293.2265625
 20
-311.076171875
 10
293.2265625
 20
-311.076171875
 10
293.2265625
 20
-311.076171875
 10
293.2265625
 20
-313.9326171875
 10
293.2265625
 20
-313.9326171875
 10
293.2265625
 20
-313.9326171875
 10
288.1376953125
 20
-313.9326171875
 10
288.1376953125
 20
-313.9326171875
 10
288.1376953125
 20
-313.9326171875
 10
288.1376953125
 20
-315.8837890625
 10
288.1376953125
 20
-315.8837890625
 10
288.1376953125
 20
-315.8837890625
 10
292.048828125
 20
-315.8837890625
 10
292.048828125
 20
-315.8837890625
 10
292.048828125
 20
-315.8837890625
 10
292.048828125
 20
-318.58203125
 10
292.048828125
 20
-318.58203125
 97
        0
 97
        1
330
93
 75
     2
 76
     1
 98
        1
 10
0.0
 20
0.0
450
        0
451
        0
460
0.0
461
0.0
452
        0
462
0.0
453
        0
470

  0
SPLINE
  5
95
330
8F
100
AcDbEntity
  8
Layer 1
100
AcDbSpline
210
0.0
220
0.0
230
1.0
 70
    11
 71
     3
 72
    50
 73
    46
 74
     0
 42
0.0000000001
 43
0.0000000001
 40
0.0
 40
0.0
 40
0.0
 40
0.0
 40
1.0
 40
1.0
 40
1.0
 40
2.0
 40
2.0
 40
2.0
 40
3.0
 40
3.0
 40
3.0
 40
4.0
 40
4.0
 40
4.0
 40
5.0
 40
5.0
 40
5.0
 40
6.0
 40
6.0
 40
6.0
 40
7.0
 40
7.0
 40
7.0
 40
8.0
 40
8.0
 40
8.0
 40
9.0
 40
9.0
 40
9.0
 40
10.0
 40
10.0
 40
10.0
 40
11.0
 40
11.0
 40
11.0
 40
12.0
 40
12.0
 40
12.0
 40
13.0
 40
13.0
 40
13.0
 40
14.0
 40
14.0
 40
14.0
 40
15.0
 40
15.0
 40
15.0
 40
15.0
 10
304.125
 20
-311.076171875
 30
0.0
 10
304.125
 20
-311.076171875
 30
0.0
 10
304.125
 20
-319.021484375
 30
0.0
 10
304.125
 20
-319.021484375
 30
0.0
 10
304.125
 20
-320.52734375
 30
0.0
 10
303.677734375
 20
-321.6103515625
 30
0.0
 10
302.78515625
 20
-322.2685546875
 30
0.0
 10
301.890625
 20
-322.9287109375
 30
0.0
 10
300.7265625
 20
-323.2578125
 30
0.0
 10
299.291015625
 20
-323.2578125
 30
0.0
 10
297.779296875
 20
-323.2578125
 30
0.0
 10
296.564453125
 20
-322.94140625
 30
0.0
 10
295.6484375
 20
-322.30859375
 30
0.0
 10
294.73046875
 20
-321.67578125
 30
0.0
 10
294.2724609375
 20
-320.64453125
 30
0.0
 10
294.2724609375
 20
-319.21484375
 30
0.0
 10
294.2724609375
 20
-319.21484375
 30
0.0
 10
294.2724609375
 20
-311.076171875
 30
0.0
 10
294.2724609375
 20
-311.076171875
 30
0.0
 10
294.2724609375
 20
-311.076171875
 30
0.0
 10
298.0166015625
 20
-311.076171875
 30
0.0
 10
298.0166015625
 20
-311.076171875
 30
0.0
 10
298.0166015625
 20
-311.076171875
 30
0.0
 10
298.0166015625
 20
-318.7841796875
 30
0.0
 10
298.0166015625
 20
-318.7841796875
 30
0.0
 10
298.0166015625
 20
-319.3583984375
 30
0.0
 10
298.1376953125
 20
-319.77734375
 30
0.0
 10
298.3798828125
 20
-320.041015625
 30
0.0
 10
298.623046875
 20
-320.3046875
 30
0.0
 10
299.009765625
 20
-320.4365234375
 30
0.0
 10
299.5419921875
 20
-320.4365234375
 30
0.0
 10
299.9853515625
 20
-320.4365234375
 30
0.0
 10
300.349609375
 20
-320.341796875
 30
0.0
 10
300.6328125
 20
-320.1513671875
 30
0.0
 10
300.916015625
 20
-319.9609375
 30
0.0
 10
301.0859375
 20
-319.7451171875
 30
0.0
 10
301.1416015625
 20
-319.5048828125
 30
0.0
 10
301.1962890625
 20
-319.2646484375
 30
0.0
 10
301.224609375
 20
-318.7958984375
 30
0.0
 10
301.224609375
 20
-318.0986328125
 30
0.0
 10
301.224609375
 20
-318.0986328125
 30
0.0
 10
301.224609375
 20
-311.076171875
 30
0.0
 10
301.224609375
 20
-311.076171875
 30
0.0
 10
301.224609375
 20
-311.076171875
 30
0.0
 10
304.125
 20
-311.076171875
 30
0.0
 10
304.125
 20
-311.076171875
 30
0.0
  0
HATCH
  5
96
330
8F
100
AcDbEntity
  8
Layer 1
 62
   250
420
  2301728
440
 33554687
100
AcDbHatch
 10
0.0
 20
0.0
 30
0.0
210
0.0
220
0.0
230
1.0
  2
SOLID
 70
     1
 71
     1
 91
        1
 92
        1
 93
        1
 72
     4
 94
        3
 73
     0
 74
     0
 95
       50
 96
       46
 40
0.0
 40
0.0
 40
0.0
 40
0.0
 40
1.0
 40
1.0
 40
1.0
 40
2.0
 40
2.0
 40
2.0
 40
3.0
 40
3.0
 40
3.0
 40
4.0
 40
4.0
 40
4.0
 40
5.0
 40
5.0
 40
5.0
 40
6.0
 40
6.0
 40
6.0
 40
7.0
 40
7.0
 40
7.0
 40
8.0
 40
8.0
 40
8.0
 40
9.0
 40
9.0
 40
9.0
 40
10.0
 40
10.0
 40
10.0
 40
11.0
 40
11.0
 40
11.0
 40
12.0
 40
12.0
 40
12.0
 40
13.0
 40
13.0
 40
13.0
 40
14.0
 40
14.0
 40
14.0
 40
15.0
 40
15.0
 40
15.0
 40
15.0
 10
304.125
 20
-311.076171875
 10
304.125
 20
-311.076171875
 10
304.125
 20
-319.021484375
 10
304.125
 20
-319.021484375
 10
304.125
 20
-320.52734375
 10
303.677734375
 20
-321.6103515625
 10
302.78515625
 20
-322.2685546875
 10
301.890625
 20
-322.9287109375
 10
300.7265625
 20
-323.2578125
 10
299.291015625
 20
-323.2578125
 10
297.779296875
 20
-323.2578125
 10
296.564453125
 20
-322.94140625
 10
295.6484375
 20
-322.30859375
 10
294.73046875
 20
-321.67578125
 10
294.2724609375
 20
-320.64453125
 10
294.2724609375
 20
-319.21484375
 10
294.2724609375
 20
-319.21484375
 10
294.2724609375
 20
-311.076171875
 10
294.2724609375
 20
-311.076171875
 10
294.2724609375
 20
-311.076171875
 10
298.0166015625
 20
-311.076171875
 10
298.0166015625
 20
-311.076171875
 10
298.0166015625
 20
-311.076171875
 10
298.0166015625
 20
-318.7841796875
 10
298.0166015625
 20
-318.7841796875
 10
298.0166015625
 20
-319.3583984375
 10
298.1376953125
 20
-319.77734375
 10
298.3798828125
 20
-320.041015625
 10
298.623046875
 20
-320.3046875
 10
299.009765625
 20
-320.4365234375
 10
299.5419921875
 20
-320.4365234375
 10
299.9853515625
 20
-320.4365234375
 10
300.349609375
 20
-320.341796875
 10
300.6328125
 20
-320.1513671875
 10
300.916015625
 20
-319.9609375
 10
301.0859375
 20
-319.7451171875
 10
301.1416015625
 20
-319.5048828125
 10
301.1962890625
 20
-319.2646484375
 10
301.224609375
 20
-318.7958984375
 10
301.224609375
 20
-318.0986328125
 10
301.224609375
 20
-318.0986328125
 10
301.224609375
 20
-311.076171875
 10
301.224609375
 20
-311.076171875
 10
301.224609375
 20
-311.076171875
 10
304.125
 20
-311.076171875
 10
304.125
 20
-311.076171875
 97
        0
 97
        1
330
95
 75
     2
 76
     1
 98
        1
 10
0.0
 20
0.0
450
        0
451
        0
460
0.0
461
0.0
452
        0
462
0.0
453
        0
470

  0
SPLINE
  5
97
330
8F
100
AcDbEntity
  8
Layer 1
100
AcDbSpline
210
0.0
220
0.0
230
1.0
 70
     9
 71
     3
 72
    53
 73
    49
 74
     0
 42
0.0000000001
 43
0.0000000001
 40
0.0
 40
0.0
 40
0.0
 40
0.0
 40
1.0
 40
1.0
 40
1.0
 40
2.0
 40
2.0
 40
2.0
 40
3.0
 40
3.0
 40
3.0
 40
4.0
 40
4.0
 40
4.0
 40
5.0
 40
5.0
 40
5.0
 40
6.0
 40
6.0
 40
6.0
 40
7.0
 40
7.0
 40
7.0
 40
8.0
 40
8.0
 40
8.0
 40
9.0
 40
9.0
 40
9.0
 40
10.0
 40
10.0
 40
10.0
 40
11.0
 40
11.0
 40
11.0
 40
12.0
 40
12.0
 40
12.0
 40
13.0
 40
13.0
 40
13.0
 40
14.0
 40
14.0
 40
14.0
 40
15.0
 40
15.0
 40
15.0
 40
16.0
 40
16.0
 40
16.0
 40
16.0
 10
312.6943359375
 20
-318.494140625
 30
0.0
 10
312.6943359375
 20
-318.494140625
 30
0.0
 10
316.060546875
 20
-318.6962890625
 30
0.0
 10
316.060546875
 20
-318.6962890625
 30
0.0
 10
315.90234375
 20
-320.1669921875
 30
0.0
 10
315.3583984375
 20
-321.294921875
 30
0.0
 10
314.4306640625
 20
-322.080078125
 30
0.0
 10
313.5009765625
 20
-322.865234375
 30
0.0
 10
312.3603515625
 20
-323.2578125
 30
0.0
 10
311.0068359375
 20
-323.2578125
 30
0.0
 10
309.3779296875
 20
-323.2578125
 30
0.0
 10
308.0625
 20
-322.71875
 30
0.0
 10
307.060546875
 20
-321.640625
 30
0.0
 10
306.05859375
 20
-320.5625
 30
0.0
 10
305.5576171875
 20
-319.07421875
 30
0.0
 10
305.5576171875
 20
-317.17578125
 30
0.0
 10
305.5576171875
 20
-315.294921875
 30
0.0
 10
306.0322265625
 20
-313.77734375
 30
0.0
 10
306.9814453125
 20
-312.623046875
 30
0.0
 10
307.9306640625
 20
-311.46875
 30
0.0
 10
309.2548828125
 20
-310.8916015625
 30
0.0
 10
310.9541015625
 20
-310.8916015625
 30
0.0
 10
312.5419921875
 20
-310.8916015625
 30
0.0
 10
313.7626953125
 20
-311.3310546875
 30
0.0
 10
314.6142578125
 20
-312.2099609375
 30
0.0
 10
315.4677734375
 20
-313.0888671875
 30
0.0
 10
315.94921875
 20
-314.2548828125
 30
0.0
 10
316.060546875
 20
-315.7080078125
 30
0.0
 10
316.060546875
 20
-315.7080078125
 30
0.0
 10
312.6240234375
 20
-315.892578125
 30
0.0
 10
312.6240234375
 20
-315.892578125
 30
0.0
 10
312.6240234375
 20
-315.08984375
 30
0.0
 10
312.4697265625
 20
-314.509765625
 30
0.0
 10
312.1630859375
 20
-314.15234375
 30
0.0
 10
311.8544921875
 20
-313.794921875
 30
0.0
 10
311.4931640625
 20
-313.6162109375
 30
0.0
 10
311.0771484375
 20
-313.6162109375
 30
0.0
 10
309.9169921875
 20
-313.6162109375
 30
0.0
 10
309.3369140625
 20
-314.7822265625
 30
0.0
 10
309.3369140625
 20
-317.1142578125
 30
0.0
 10
309.3369140625
 20
-318.4208984375
 30
0.0
 10
309.4873046875
 20
-319.30859375
 30
0.0
 10
309.7900390625
 20
-319.77734375
 30
0.0
 10
310.0908203125
 20
-320.24609375
 30
0.0
 10
310.5146484375
 20
-320.48046875
 30
0.0
 10
311.0595703125
 20
-320.48046875
 30
0.0
 10
312.0322265625
 20
-320.48046875
 30
0.0
 10
312.5771484375
 20
-319.818359375
 30
0.0
 10
312.6943359375
 20
-318.494140625
 30
0.0
  0
HATCH
  5
98
330
8F
100
AcDbEntity
  8
Layer 1
 62
   250
420
  2301728
440
 33554687
100
AcDbHatch
 10
0.0
 20
0.0
 30
0.0
210
0.0
220
0.0
230
1.0
  2
SOLID
 70
     1
 71
     1
 91
        1
 92
        1
 93
        1
 72
     4
 94
        3
 73
     0
 74
     0
 95
       53
 96
       49
 40
0.0
 40
0.0
 40
0.0
 40
0.0
 40
1.0
 40
1.0
 40
1.0
 40
2.0
 40
2.0
 40
2.0
 40
3.0
 40
3.0
 40
3.0
 40
4.0
 40
4.0
 40
4.0
 40
5.0
 40
5.0
 40
5.0
 40
6.0
 40
6.0
 40
6.0
 40
7.0
 40
7.0
 40
7.0
 40
8.0
 40
8.0
 40
8.0
 40
9.0
 40
9.0
 40
9.0
 40
10.0
 40
10.0
 40
10.0
 40
11.0
 40
11.0
 40
11.0
 40
12.0
 40
12.0
 40
12.0
 40
13.0
 40
13.0
 40
13.0
 40
14.0
 40
14.0
 40
14.0
 40
15.0
 40
15.0
 40
15.0
 40
16.0
 40
16.0
 40
16.0
 40
16.0
 10
312.6943359375
 20
-318.494140625
 10
312.6943359375
 20
-318.494140625
 10
316.060546875
 20
-318.6962890625
 10
316.060546875
 20
-318.6962890625
 10
315.90234375
 20
-320.1669921875
 10
315.3583984375
 20
-321.294921875
 10
314.4306640625
 20
-322.080078125
 10
313.5009765625
 20
-322.865234375
 10
312.3603515625
 20
-323.2578125
 10
311.0068359375
 20
-323.2578125
 10
309.3779296875
 20
-323.2578125
 10
308.0625
 20
-322.71875
 10
307.060546875
 20
-321.640625
 10
306.05859375
 20
-320.5625
 10
305.5576171875
 20
-319.07421875
 10
305.5576171875
 20
-317.17578125
 10
305.5576171875
 20
-315.294921875
 10
306.0322265625
 20
-313.77734375
 10
306.9814453125
 20
-312.623046875
 10
307.9306640625
 20
-311.46875
 10
309.2548828125
 20
-310.8916015625
 10
310.9541015625
 20
-310.8916015625
 10
312.5419921875
 20
-310.8916015625
 10
313.7626953125
 20
-311.3310546875
 10
314.6142578125
 20
-312.2099609375
 10
315.4677734375
 20
-313.0888671875
 10
315.94921875
 20
-314.2548828125
 10
316.060546875
 20
-315.7080078125
 10
316.060546875
 20
-315.7080078125
 10
312.6240234375
 20
-315.892578125
 10
312.6240234375
 20
-315.892578125
 10
312.6240234375
 20
-315.08984375
 10
312.4697265625
 20
-314.509765625
 10
312.1630859375
 20
-314.15234375
 10
311.8544921875
 20
-313.794921875
 10
311.4931640625
 20
-313.6162109375
 10
311.0771484375
 20
-313.6162109375
 10
309.9169921875
 20
-313.6162109375
 10
309.3369140625
 20
-314.7822265625
 10
309.3369140625
 20
-317.1142578125
 10
309.3369140625
 20
-318.4208984375
 10
309.4873046875
 20
-319.30859375
 10
309.7900390625
 20
-319.77734375
 10
310.0908203125
 20
-320.24609375
 10
310.5146484375
 20
-320.48046875
 10
311.0595703125
 20
-320.48046875
 10
312.0322265625
 20
-320.48046875
 10
312.5771484375
 20
-319.818359375
 10
312.6943359375
 20
-318.494140625
 97
        0
 97
        1
330
97
 75
     2
 76
     1
 98
        1
 10
0.0
 20
0.0
450
        0
451
        0
460
0.0
461
0.0
452
        0
462
0.0
453
        0
470

  0
SPLINE
  5
99
330
8F
100
AcDbEntity
  8
Layer 1
100
AcDbSpline
210
0.0
220
0.0
230
1.0
 70
    11
 71
     3
 72
    41
 73
    37
 74
     0
 42
0.0000000001
 43
0.0000000001
 40
0.0
 40
0.0
 40
0.0
 40
0.0
 40
1.0
 40
1.0
 40
1.0
 40
2.0
 40
2.0
 40
2.0
 40
3.0
 40
3.0
 40
3.0
 40
4.0
 40
4.0
 40
4.0
 40
5.0
 40
5.0
 40
5.0
 40
6.0
 40
6.0
 40
6.0
 40
7.0
 40
7.0
 40
7.0
 40
8.0
 40
8.0
 40
8.0
 40
9.0
 40
9.0
 40
9.0
 40
10.0
 40
10.0
 40
10.0
 40
11.0
 40
11.0
 40
11.0
 40
12.0
 40
12.0
 40
12.0
 40
12.0
 10
328.224609375
 20
-323.0732421875
 30
0.0
 10
328.224609375
 20
-323.0732421875
 30
0.0
 10
324.1953125
 20
-323.0732421875
 30
0.0
 10
324.1953125
 20
-323.0732421875
 30
0.0
 10
324.1953125
 20
-323.0732421875
 30
0.0
 10
322.12109375
 20
-318.5390625
 30
0.0
 10
322.12109375
 20
-318.5390625
 30
0.0
 10
322.12109375
 20
-318.5390625
 30
0.0
 10
320.876953125
 20
-320.3046875
 30
0.0
 10
320.876953125
 20
-320.3046875
 30
0.0
 10
320.876953125
 20
-320.3046875
 30
0.0
 10
320.876953125
 20
-323.0732421875
 30
0.0
 10
320.876953125
 20
-323.0732421875
 30
0.0
 10
320.876953125
 20
-323.0732421875
 30
0.0
 10
317.4052734375
 20
-323.0732421875
 30
0.0
 10
317.4052734375
 20
-323.0732421875
 30
0.0
 10
317.4052734375
 20
-323.0732421875
 30
0.0
 10
317.4052734375
 20
-311.076171875
 30
0.0
 10
317.4052734375
 20
-311.076171875
 30
0.0
 10
317.4052734375
 20
-311.076171875
 30
0.0
 10
320.876953125
 20
-311.076171875
 30
0.0
 10
320.876953125
 20
-311.076171875
 30
0.0
 10
320.876953125
 20
-311.076171875
 30
0.0
 10
320.876953125
 20
-316.037109375
 30
0.0
 10
320.876953125
 20
-316.037109375
 30
0.0
 10
320.876953125
 20
-316.037109375
 30
0.0
 10
324.185546875
 20
-311.076171875
 30
0.0
 10
324.185546875
 20
-311.076171875
 30
0.0
 10
324.185546875
 20
-311.076171875
 30
0.0
 10
327.4951171875
 20
-311.076171875
 30
0.0
 10
327.4951171875
 20
-311.076171875
 30
0.0
 10
327.4951171875
 20
-311.076171875
 30
0.0
 10
324.4658203125
 20
-315.466796875
 30
0.0
 10
324.4658203125
 20
-315.466796875
 30
0.0
 10
324.4658203125
 20
-315.466796875
 30
0.0
 10
328.224609375
 20
-323.0732421875
 30
0.0
 10
328.224609375
 20
-323.0732421875
 30
0.0
  0
HATCH
  5
9A
330
8F
100
AcDbEntity
  8
Layer 1
 62
   250
420
  2301728
440
 33554687
100
AcDbHatch
 10
0.0
 20
0.0
 30
0.0
210
0.0
220
0.0
230
1.0
  2
SOLID
 70
     1
 71
     1
 91
        1
 92
        1
 93
        1
 72
     4
 94
        3
 73
     0
 74
     0
 95
       41
 96
       37
 40
0.0
 40
0.0
 40
0.0
 40
0.0
 40
1.0
 40
1.0
 40
1.0
 40
2.0
 40
2.0
 40
2.0
 40
3.0
 40
3.0
 40
3.0
 40
4.0
 40
4.0
 40
4.0
 40
5.0
 40
5.0
 40
5.0
 40
6.0
 40
6.0
 40
6.0
 40
7.0
 40
7.0
 40
7.0
 40
8.0
 40
8.0
 40
8.0
 40
9.0
 40
9.0
 40
9.0
 40
10.0
 40
10.0
 40
10.0
 40
11.0
 40
11.0
 40
11.0
 40
12.0
 40
12.0
 40
12.0
 40
12.0
 10
328.224609375
 20
-323.0732421875
 10
328.224609375
 20
-323.0732421875
 10
324.1953125
 20
-323.0732421875
 10
324.1953125
 20
-323.0732421875
 10
324.1953125
 20
-323.0732421875
 10
322.12109375
 20
-318.5390625
 10
322.12109375
 20
-318.5390625
 10
322.12109375
 20
-318.5390625
 10
320.876953125
 20
-320.3046875
 10
320.876953125
 20
-320.3046875
 10
320.876953125
 20
-320.3046875
 10
320.876953125
 20
-323.0732421875
 10
320.876953125
 20
-323.0732421875
 10
320.876953125
 20
-323.0732421875
 10
317.4052734375
 20
-323.0732421875
 10
317.4052734375
 20
-323.0732421875
 10
317.4052734375
 20
-323.0732421875
 10
317.4052734375
 20
-311.076171875
 10
317.4052734375
 20
-311.076171875
 10
317.4052734375
 20
-311.076171875
 10
320.876953125
 20
-311.076171875
 10
320.876953125
 20
-311.076171875
 10
320.876953125
 20
-311.076171875
 10
320.876953125
 20
-316.037109375
 10
320.876953125
 20
-316.037109375
 10
320.876953125
 20
-316.037109375
 10
324.185546875
 20
-311.076171875
 10
324.185546875
 20
-311.076171875
 10
324.185546875
 20
-311.076171875
 10
327.4951171875
 20
-311.076171875
 10
327.4951171875
 20
-311.076171875
 10
327.4951171875
 20
-311.076171875
 10
324.4658203125
 20
-315.466796875
 10
324.4658203125
 20
-315.466796875
 10
324.4658203125
 20
-315.466796875
 10
328.224609375
 20
-323.0732421875
 10
328.224609375
 20
-323.0732421875
 97
        0
 97
        1
330
99
 75
     2
 76
     1
 98
        1
 10
0.0
 20
0.0
450
        0
451
        0
460
0.0
461
0.0
452
        0
462
0.0
453
        0
470

  0
SPLINE
  5
9B
330
8F
100
AcDbEntity
  8
Layer 1
100
AcDbSpline
210
0.0
220
0.0
230
1.0
 70
    11
 71
     3
 72
    17
 73
    13
 74
     0
 42
0.0000000001
 43
0.0000000001
 40
0.0
 40
0.0
 40
0.0
 40
0.0
 40
1.0
 40
1.0
 40
1.0
 40
2.0
 40
2.0
 40
2.0
 40
3.0
 40
3.0
 40
3.0
 40
4.0
 40
4.0
 40
4.0
 40
4.0
 10
332.8916015625
 20
-311.076171875
 30
0.0
 10
332.8916015625
 20
-311.076171875
 30
0.0
 10
332.8916015625
 20
-323.0732421875
 30
0.0
 10
332.8916015625
 20
-323.0732421875
 30
0.0
 10
332.8916015625
 20
-323.0732421875
 30
0.0
 10
329.208984375
 20
-323.0732421875
 30
0.0
 10
329.208984375
 20
-323.0732421875
 30
0.0
 10
329.208984375
 20
-323.0732421875
 30
0.0
 10
329.208984375
 20
-311.076171875
 30
0.0
 10
329.208984375
 20
-311.076171875
 30
0.0
 10
329.208984375
 20
-311.076171875
 30
0.0
 10
332.8916015625
 20
-311.076171875
 30
0.0
 10
332.8916015625
 20
-311.076171875
 30
0.0
  0
HATCH
  5
9C
330
8F
100
AcDbEntity
  8
Layer 1
 62
   250
420
  2301728
440
 33554687
100
AcDbHatch
 10
0.0
 20
0.0
 30
0.0
210
0.0
220
0.0
230
1.0
  2
SOLID
 70
     1
 71
     1
 91
        1
 92
        1
 93
        1
 72
     4
 94
        3
 73
     0
 74
     0
 95
       17
 96
       13
 40
0.0
 40
0.0
 40
0.0
 40
0.0
 40
1.0
 40
1.0
 40
1.0
 40
2.0
 40
2.0
 40
2.0
 40
3.0
 40
3.0
 40
3.0
 40
4.0
 40
4.0
 40
4.0
 40
4.0
 10
332.8916015625
 20
-311.076171875
 10
332.8916015625
 20
-311.076171875
 10
332.8916015625
 20
-323.0732421875
 10
332.8916015625
 20
-323.0732421875
 10
332.8916015625
 20
-323.0732421875
 10
329.208984375
 20
-323.0732421875
 10
329.208984375
 20
-323.0732421875
 10
329.208984375
 20
-323.0732421875
 10
329.208984375
 20
-311.076171875
 10
329.208984375
 20
-311.076171875
 10
329.208984375
 20
-311.076171875
 10
332.8916015625
 20
-311.076171875
 10
332.8916015625
 20
-311.076171875
 97
        0
 97
        1
330
9B
 75
     2
 76
     1
 98
        1
 10
0.0
 20
0.0
450
        0
451
        0
460
0.0
461
0.0
452
        0
462
0.0
453
        0
470

  0
SPLINE
  5
9D
330
8F
100
AcDbEntity
  8
Layer 1
100
AcDbSpline
210
0.0
220
0.0
230
1.0
 70
    11
 71
     3
 72
    47
 73
    43
 74
     0
 42
0.0000000001
 43
0.0000000001
 40
0.0
 40
0.0
 40
0.0
 40
0.0
 40
1.0
 40
1.0
 40
1.0
 40
2.0
 40
2.0
 40
2.0
 40
3.0
 40
3.0
 40
3.0
 40
4.0
 40
4.0
 40
4.0
 40
5.0
 40
5.0
 40
5.0
 40
6.0
 40
6.0
 40
6.0
 40
7.0
 40
7.0
 40
7.0
 40
8.0
 40
8.0
 40
8.0
 40
9.0
 40
9.0
 40
9.0
 40
10.0
 40
10.0
 40
10.0
 40
11.0
 40
11.0
 40
11.0
 40
12.0
 40
12.0
 40
12.0
 40
13.0
 40
13.0
 40
13.0
 40
14.0
 40
14.0
 40
14.0
 40
14.0
 10
345.240234375
 20
-323.0732421875
 30
0.0
 10
345.240234375
 20
-323.0732421875
 30
0.0
 10
342.2431640625
 20
-323.0732421875
 30
0.0
 10
342.2431640625
 20
-323.0732421875
 30
0.0
 10
342.2431640625
 20
-323.0732421875
 30
0.0
 10
338.95703125
 20
-317.7724609375
 30
0.0
 10
338.95703125
 20
-317.7724609375
 30
0.0
 10
338.5361328125
 20
-317.0927734375
 30
0.0
 10
338.1103515625
 20
-316.2666015625
 30
0.0
 10
337.681640625
 20
-315.294921875
 30
0.0
 10
337.875
 20
-316.068359375
 30
0.0
 10
337.9716796875
 20
-316.724609375
 30
0.0
 10
337.9716796875
 20
-317.263671875
 30
0.0
 10
337.9716796875
 20
-317.263671875
 30
0.0
 10
337.9716796875
 20
-323.0732421875
 30
0.0
 10
337.9716796875
 20
-323.0732421875
 30
0.0
 10
337.9716796875
 20
-323.0732421875
 30
0.0
 10
334.9833984375
 20
-323.0732421875
 30
0.0
 10
334.9833984375
 20
-323.0732421875
 30
0.0
 10
334.9833984375
 20
-323.0732421875
 30
0.0
 10
334.9833984375
 20
-311.076171875
 30
0.0
 10
334.9833984375
 20
-311.076171875
 30
0.0
 10
334.9833984375
 20
-311.076171875
 30
0.0
 10
338.4638671875
 20
-311.076171875
 30
0.0
 10
338.4638671875
 20
-311.076171875
 30
0.0
 10
338.4638671875
 20
-311.076171875
 30
0.0
 10
341.2587890625
 20
-315.470703125
 30
0.0
 10
341.2587890625
 20
-315.470703125
 30
0.0
 10
341.8154296875
 20
-316.34375
 30
0.0
 10
342.2373046875
 20
-317.111328125
 30
0.0
 10
342.5244140625
 20
-317.7734375
 30
0.0
 10
342.3369140625
 20
-316.748046875
 30
0.0
 10
342.2431640625
 20
-315.69921875
 30
0.0
 10
342.2431640625
 20
-314.626953125
 30
0.0
 10
342.2431640625
 20
-314.626953125
 30
0.0
 10
342.2431640625
 20
-311.076171875
 30
0.0
 10
342.2431640625
 20
-311.076171875
 30
0.0
 10
342.2431640625
 20
-311.076171875
 30
0.0
 10
345.240234375
 20
-311.076171875
 30
0.0
 10
345.240234375
 20
-311.076171875
 30
0.0
 10
345.240234375
 20
-311.076171875
 30
0.0
 10
345.240234375
 20
-323.0732421875
 30
0.0
 10
345.240234375
 20
-323.0732421875
 30
0.0
  0
HATCH
  5
9E
330
8F
100
AcDbEntity
  8
Layer 1
 62
   250
420
  2301728
440
 33554687
100
AcDbHatch
 10
0.0
 20
0.0
 30
0.0
210
0.0
220
0.0
230
1.0
  2
SOLID
 70
     1
 71
     1
 91
        1
 92
        1
 93
        1
 72
     4
 94
        3
 73
     0
 74
     0
 95
       47
 96
       43
 40
0.0
 40
0.0
 40
0.0
 40
0.0
 40
1.0
 40
1.0
 40
1.0
 40
2.0
 40
2.0
 40
2.0
 40
3.0
 40
3.0
 40
3.0
 40
4.0
 40
4.0
 40
4.0
 40
5.0
 40
5.0
 40
5.0
 40
6.0
 40
6.0
 40
6.0
 40
7.0
 40
7.0
 40
7.0
 40
8.0
 40
8.0
 40
8.0
 40
9.0
 40
9.0
 40
9.0
 40
10.0
 40
10.0
 40
10.0
 40
11.0
 40
11.0
 40
11.0
 40
12.0
 40
12.0
 40
12.0
 40
13.0
 40
13.0
 40
13.0
 40
14.0
 40
14.0
 40
14.0
 40
14.0
 10
345.240234375
 20
-323.0732421875
 10
345.240234375
 20
-323.0732421875
 10
342.2431640625
 20
-323.0732421875
 10
342.2431640625
 20
-323.0732421875
 10
342.2431640625
 20
-323.0732421875
 10
338.95703125
 20
-317.7724609375
 10
338.95703125
 20
-317.7724609375
 10
338.5361328125
 20
-317.0927734375
 10
338.1103515625
 20
-316.2666015625
 10
337.681640625
 20
-315.294921875
 10
337.875
 20
-316.068359375
 10
337.9716796875
 20
-316.724609375
 10
337.9716796875
 20
-317.263671875
 10
337.9716796875
 20
-317.263671875
 10
337.9716796875
 20
-323.0732421875
 10
337.9716796875
 20
-323.0732421875
 10
337.9716796875
 20
-323.0732421875
 10
334.9833984375
 20
-323.0732421875
 10
334.9833984375
 20
-323.0732421875
 10
334.9833984375
 20
-323.0732421875
 10
334.9833984375
 20
-311.076171875
 10
334.9833984375
 20
-311.076171875
 10
334.9833984375
 20
-311.076171875
 10
338.4638671875
 20
-311.076171875
 10
338.4638671875
 20
-311.076171875
 10
338.4638671875
 20
-311.076171875
 10
341.2587890625
 20
-315.470703125
 10
341.2587890625
 20
-315.470703125
 10
341.8154296875
 20
-316.34375
 10
342.2373046875
 20
-317.111328125
 10
342.5244140625
 20
-317.7734375
 10
342.3369140625
 20
-316.748046875
 10
342.2431640625
 20
-315.69921875
 10
342.2431640625
 20
-314.626953125
 10
342.2431640625
 20
-314.626953125
 10
342.2431640625
 20
-311.076171875
 10
342.2431640625
 20
-311.076171875
 10
342.2431640625
 20
-311.076171875
 10
345.240234375
 20
-311.076171875
 10
345.240234375
 20
-311.076171875
 10
345.240234375
 20
-311.076171875
 10
345.240234375
 20
-323.0732421875
 10
345.240234375
 20
-323.0732421875
 97
        0
 97
        1
330
9D
 75
     2
 76
     1
 98
        1
 10
0.0
 20
0.0
450
        0
451
        0
460
0.0
461
0.0
452
        0
462
0.0
453
        0
470

  0
SPLINE
  5
9F
330
8F
100
AcDbEntity
  8
Layer 1
100
AcDbSpline
210
0.0
220
0.0
230
1.0
 70
    11
 71
     3
 72
    65
 73
    61
 74
     0
 42
0.0000000001
 43
0.0000000001
 40
0.0
 40
0.0
 40
0.0
 40
0.0
 40
1.0
 40
1.0
 40
1.0
 40
2.0
 40
2.0
 40
2.0
 40
3.0
 40
3.0
 40
3.0
 40
4.0
 40
4.0
 40
4.0
 40
5.0
 40
5.0
 40
5.0
 40
6.0
 40
6.0
 40
6.0
 40
7.0
 40
7.0
 40
7.0
 40
8.0
 40
8.0
 40
8.0
 40
9.0
 40
9.0
 40
9.0
 40
10.0
 40
10.0
 40
10.0
 40
11.0
 40
11.0
 40
11.0
 40
12.0
 40
12.0
 40
12.0
 40
13.0
 40
13.0
 40
13.0
 40
14.0
 40
14.0
 40
14.0
 40
15.0
 40
15.0
 40
15.0
 40
16.0
 40
16.0
 40
16.0
 40
17.0
 40
17.0
 40
17.0
 40
18.0
 40
18.0
 40
18.0
 40
19.0
 40
19.0
 40
19.0
 40
20.0
 40
20.0
 40
20.0
 40
20.0
 10
357.6943359375
 20
-316.349609375
 30
0.0
 10
357.6943359375
 20
-316.349609375
 30
0.0
 10
357.6943359375
 20
-323.0732421875
 30
0.0
 10
357.6943359375
 20
-323.0732421875
 30
0.0
 10
357.6943359375
 20
-323.0732421875
 30
0.0
 10
355.892578125
 20
-323.0732421875
 30
0.0
 10
355.892578125
 20
-323.0732421875
 30
0.0
 10
355.74609375
 20
-322.5751953125
 30
0.0
 10
355.5849609375
 20
-322.15625
 30
0.0
 10
355.4091796875
 20
-321.81640625
 30
0.0
 10
354.6650390625
 20
-322.77734375
 30
0.0
 10
353.5634765625
 20
-323.2578125
 30
0.0
 10
352.1044921875
 20
-323.2578125
 30
0.0
 10
350.5576171875
 20
-323.2578125
 30
0.0
 10
349.2861328125
 20
-322.7177734375
 30
0.0
 10
348.2900390625
 20
-321.6357421875
 30
0.0
 10
347.2939453125
 20
-320.5556640625
 30
0.0
 10
346.7958984375
 20
-319.091796875
 30
0.0
 10
346.7958984375
 20
-317.24609375
 30
0.0
 10
346.7958984375
 20
-315.453125
 30
0.0
 10
347.27734375
 20
-313.9462890625
 30
0.0
 10
348.2412109375
 20
-312.7236328125
 30
0.0
 10
349.205078125
 20
-311.5029296875
 30
0.0
 10
350.6396484375
 20
-310.8916015625
 30
0.0
 10
352.5439453125
 20
-310.8916015625
 30
0.0
 10
353.9736328125
 20
-310.8916015625
 30
0.0
 10
355.125
 20
-311.2548828125
 30
0.0
 10
355.998046875
 20
-311.9814453125
 30
0.0
 10
356.87109375
 20
-312.7080078125
 30
0.0
 10
357.4365234375
 20
-313.7392578125
 30
0.0
 10
357.6943359375
 20
-315.0751953125
 30
0.0
 10
357.6943359375
 20
-315.0751953125
 30
0.0
 10
354.1259765625
 20
-315.4267578125
 30
0.0
 10
354.1259765625
 20
-315.4267578125
 30
0.0
 10
353.9501953125
 20
-314.1787109375
 30
0.0
 10
353.40234375
 20
-313.5546875
 30
0.0
 10
352.482421875
 20
-313.5546875
 30
0.0
 10
351.275390625
 20
-313.5546875
 30
0.0
 10
350.671875
 20
-314.703125
 30
0.0
 10
350.671875
 20
-317.0
 30
0.0
 10
350.671875
 20
-318.388671875
 30
0.0
 10
350.865234375
 20
-319.3046875
 30
0.0
 10
351.251953125
 20
-319.7470703125
 30
0.0
 10
351.638671875
 20
-320.189453125
 30
0.0
 10
352.107421875
 20
-320.41015625
 30
0.0
 10
352.658203125
 20
-320.41015625
 30
0.0
 10
353.103515625
 20
-320.41015625
 30
0.0
 10
353.482421875
 20
-320.275390625
 30
0.0
 10
353.7958984375
 20
-320.005859375
 30
0.0
 10
354.109375
 20
-319.736328125
 30
0.0
 10
354.26953125
 20
-319.3671875
 30
0.0
 10
354.275390625
 20
-318.8984375
 30
0.0
 10
354.275390625
 20
-318.8984375
 30
0.0
 10
352.2890625
 20
-318.8984375
 30
0.0
 10
352.2890625
 20
-318.8984375
 30
0.0
 10
352.2890625
 20
-318.8984375
 30
0.0
 10
352.2890625
 20
-316.349609375
 30
0.0
 10
352.2890625
 20
-316.349609375
 30
0.0
 10
352.2890625
 20
-316.349609375
 30
0.0
 10
357.6943359375
 20
-316.349609375
 30
0.0
 10
357.6943359375
 20
-316.349609375
 30
0.0
  0
HATCH
  5
A0
330
8F
100
AcDbEntity
  8
Layer 1
 62
   250
420
  2301728
440
 33554687
100
AcDbHatch
 10
0.0
 20
0.0
 30
0.0
210
0.0
220
0.0
230
1.0
  2
SOLID
 70
     1
 71
     1
 91
        1
 92
        1
 93
        1
 72
     4
 94
        3
 73
     0
 74
     0
 95
       65
 96
       61
 40
0.0
 40
0.0
 40
0.0
 40
0.0
 40
1.0
 40
1.0
 40
1.0
 40
2.0
 40
2.0
 40
2.0
 40
3.0
 40
3.0
 40
3.0
 40
4.0
 40
4.0
 40
4.0
 40
5.0
 40
5.0
 40
5.0
 40
6.0
 40
6.0
 40
6.0
 40
7.0
 40
7.0
 40
7.0
 40
8.0
 40
8.0
 40
8.0
 40
9.0
 40
9.0
 40
9.0
 40
10.0
 40
10.0
 40
10.0
 40
11.0
 40
11.0
 40
11.0
 40
12.0
 40
12.0
 40
12.0
 40
13.0
 40
13.0
 40
13.0
 40
14.0
 40
14.0
 40
14.0
 40
15.0
 40
15.0
 40
15.0
 40
16.0
 40
16.0
 40
16.0
 40
17.0
 40
17.0
 40
17.0
 40
18.0
 40
18.0
 40
18.0
 40
19.0
 40
19.0
 40
19.0
 40
20.0
 40
20.0
 40
20.0
 40
20.0
 10
357.6943359375
 20
-316.349609375
 10
357.6943359375
 20
-316.349609375
 10
357.6943359375
 20
-323.0732421875
 10
357.6943359375
 20
-323.0732421875
 10
357.6943359375
 20
-323.0732421875
 10
355.892578125
 20
-323.0732421875
 10
355.892578125
 20
-323.0732421875
 10
355.74609375
 20
-322.5751953125
 10
355.5849609375
 20
-322.15625
 10
355.4091796875
 20
-321.81640625
 10
354.6650390625
 20
-322.77734375
 10
353.5634765625
 20
-323.2578125
 10
352.1044921875
 20
-323.2578125
 10
350.5576171875
 20
-323.2578125
 10
349.2861328125
 20
-322.7177734375
 10
348.2900390625
 20
-321.6357421875
 10
347.2939453125
 20
-320.5556640625
 10
346.7958984375
 20
-319.091796875
 10
346.7958984375
 20
-317.24609375
 10
346.7958984375
 20
-315.453125
 10
347.27734375
 20
-313.9462890625
 10
348.2412109375
 20
-312.7236328125
 10
349.205078125
 20
-311.5029296875
 10
350.6396484375
 20
-310.8916015625
 10
352.5439453125
 20
-310.8916015625
 10
353.9736328125
 20
-310.8916015625
 10
355.125
 20
-311.2548828125
 10
355.998046875
 20
-311.9814453125
 10
356.87109375
 20
-312.7080078125
 10
357.4365234375
 20
-313.7392578125
 10
357.6943359375
 20
-315.0751953125
 10
357.6943359375
 20
-315.0751953125
 10
354.1259765625
 20
-315.4267578125
 10
354.1259765625
 20
-315.4267578125
 10
353.9501953125
 20
-314.1787109375
 10
353.40234375
 20
-313.5546875
 10
352.482421875
 20
-313.5546875
 10
351.275390625
 20
-313.5546875
 10
350.671875
 20
-314.703125
 10
350.671875
 20
-317.0
 10
350.671875
 20
-318.388671875
 10
350.865234375
 20
-319.3046875
 10
351.251953125
 20
-319.7470703125
 10
351.638671875
 20
-320.189453125
 10
352.107421875
 20
-320.41015625
 10
352.658203125
 20
-320.41015625
 10
353.103515625
 20
-320.41015625
 10
353.482421875
 20
-320.275390625
 10
353.7958984375
 20
-320.005859375
 10
354.109375
 20
-319.736328125
 10
354.26953125
 20
-319.3671875
 10
354.275390625
 20
-318.8984375
 10
354.275390625
 20
-318.8984375
 10
352.2890625
 20
-318.8984375
 10
352.2890625
 20
-318.8984375
 10
352.2890625
 20
-318.8984375
 10
352.2890625
 20
-316.349609375
 10
352.2890625
 20
-316.349609375
 10
352.2890625
 20
-316.349609375
 10
357.6943359375
 20
-316.349609375
 10
357.6943359375
 20
-316.349609375
 97
        0
 97
        1
330
9F
 75
     2
 76
     1
 98
        1
 10
0.0
 20
0.0
450
        0
451
        0
460
0.0
461
0.0
452
        0
462
0.0
453
        0
470

  0
SPLINE
  5
A1
330
8F
100
AcDbEntity
  8
Layer 1
100
AcDbSpline
210
0.0
220
0.0
230
1.0
 70
    11
 71
     3
 72
    35
 73
    31
 74
     0
 42
0.0000000001
 43
0.0000000001
 40
0.0
 40
0.0
 40
0.0
 40
0.0
 40
1.0
 40
1.0
 40
1.0
 40
2.0
 40
2.0
 40
2.0
 40
3.0
 40
3.0
 40
3.0
 40
4.0
 40
4.0
 40
4.0
 40
5.0
 40
5.0
 40
5.0
 40
6.0
 40
6.0
 40
6.0
 40
7.0
 40
7.0
 40
7.0
 40
8.0
 40
8.0
 40
8.0
 40
9.0
 40
9.0
 40
9.0
 40
10.0
 40
10.0
 40
10.0
 40
10.0
 10
312.298828125
 20
-340.181640625
 30
0.0
 10
312.298828125
 20
-340.181640625
 30
0.0
 10
308.3876953125
 20
-340.181640625
 30
0.0
 10
308.3876953125
 20
-340.181640625
 30
0.0
 10
308.3876953125
 20
-340.181640625
 30
0.0
 10
308.3876953125
 20
-344.6728515625
 30
0.0
 10
308.3876953125
 20
-344.6728515625
 30
0.0
 10
308.3876953125
 20
-344.6728515625
 30
0.0
 10
304.8017578125
 20
-344.6728515625
 30
0.0
 10
304.8017578125
 20
-344.6728515625
 30
0.0
 10
304.8017578125
 20
-344.6728515625
 30
0.0
 10
304.8017578125
 20
-332.67578125
 30
0.0
 10
304.8017578125
 20
-332.67578125
 30
0.0
 10
304.8017578125
 20
-332.67578125
 30
0.0
 10
313.4765625
 20
-332.67578125
 30
0.0
 10
313.4765625
 20
-332.67578125
 30
0.0
 10
313.4765625
 20
-332.67578125
 30
0.0
 10
313.4765625
 20
-335.5322265625
 30
0.0
 10
313.4765625
 20
-335.5322265625
 30
0.0
 10
313.4765625
 20
-335.5322265625
 30
0.0
 10
308.3876953125
 20
-335.5322265625
 30
0.0
 10
308.3876953125
 20
-335.5322265625
 30
0.0
 10
308.3876953125
 20
-335.5322265625
 30
0.0
 10
308.3876953125
 20
-337.4833984375
 30
0.0
 10
308.3876953125
 20
-337.4833984375
 30
0.0
 10
308.3876953125
 20
-337.4833984375
 30
0.0
 10
312.298828125
 20
-337.4833984375
 30
0.0
 10
312.298828125
 20
-337.4833984375
 30
0.0
 10
312.298828125
 20
-337.4833984375
 30
0.0
 10
312.298828125
 20
-340.181640625
 30
0.0
 10
312.298828125
 20
-340.181640625
 30
0.0
  0
HATCH
  5
A2
330
8F
100
AcDbEntity
  8
Layer 1
 62
   250
420
  2301728
440
 33554687
100
AcDbHatch
 10
0.0
 20
0.0
 30
0.0
210
0.0
220
0.0
230
1.0
  2
SOLID
 70
     1
 71
     1
 91
        1
 92
        1
 93
        1
 72
     4
 94
        3
 73
     0
 74
     0
 95
       35
 96
       31
 40
0.0
 40
0.0
 40
0.0
 40
0.0
 40
1.0
 40
1.0
 40
1.0
 40
2.0
 40
2.0
 40
2.0
 40
3.0
 40
3.0
 40
3.0
 40
4.0
 40
4.0
 40
4.0
 40
5.0
 40
5.0
 40
5.0
 40
6.0
 40
6.0
 40
6.0
 40
7.0
 40
7.0
 40
7.0
 40
8.0
 40
8.0
 40
8.0
 40
9.0
 40
9.0
 40
9.0
 40
10.0
 40
10.0
 40
10.0
 40
10.0
 10
312.298828125
 20
-340.181640625
 10
312.298828125
 20
-340.181640625
 10
308.3876953125
 20
-340.181640625
 10
308.3876953125
 20
-340.181640625
 10
308.3876953125
 20
-340.181640625
 10
308.3876953125
 20
-344.6728515625
 10
308.3876953125
 20
-344.6728515625
 10
308.3876953125
 20
-344.6728515625
 10
304.8017578125
 20
-344.6728515625
 10
304.8017578125
 20
-344.6728515625
 10
304.8017578125
 20
-344.6728515625
 10
304.8017578125
 20
-332.67578125
 10
304.8017578125
 20
-332.67578125
 10
304.8017578125
 20
-332.67578125
 10
313.4765625
 20
-332.67578125
 10
313.4765625
 20
-332.67578125
 10
313.4765625
 20
-332.67578125
 10
313.4765625
 20
-335.5322265625
 10
313.4765625
 20
-335.5322265625
 10
313.4765625
 20
-335.5322265625
 10
308.3876953125
 20
-335.5322265625
 10
308.3876953125
 20
-335.5322265625
 10
308.3876953125
 20
-335.5322265625
 10
308.3876953125
 20
-337.4833984375
 10
308.3876953125
 20
-337.4833984375
 10
308.3876953125
 20
-337.4833984375
 10
312.298828125
 20
-337.4833984375
 10
312.298828125
 20
-337.4833984375
 10
312.298828125
 20
-337.4833984375
 10
312.298828125
 20
-340.181640625
 10
312.298828125
 20
-340.181640625
 97
        0
 97
        1
330
A1
 75
     2
 76
     1
 98
        1
 10
0.0
 20
0.0
450
        0
451
        0
460
0.0
461
0.0
452
        0
462
0.0
453
        0
470

  0
SPLINE
  5
A3
330
8F
100
AcDbEntity
  8
Layer 1
100
AcDbSpline
210
0.0
220
0.0
230
1.0
 70
    11
 71
     3
 72
    50
 73
    46
 74
     0
 42
0.0000000001
 43
0.0000000001
 40
0.0
 40
0.0
 40
0.0
 40
0.0
 40
1.0
 40
1.0
 40
1.0
 40
2.0
 40
2.0
 40
2.0
 40
3.0
 40
3.0
 40
3.0
 40
4.0
 40
4.0
 40
4.0
 40
5.0
 40
5.0
 40
5.0
 40
6.0
 40
6.0
 40
6.0
 40
7.0
 40
7.0
 40
7.0
 40
8.0
 40
8.0
 40
8.0
 40
9.0
 40
9.0
 40
9.0
 40
10.0
 40
10.0
 40
10.0
 40
11.0
 40
11.0
 40
11.0
 40
12.0
 40
12.0
 40
12.0
 40
13.0
 40
13.0
 40
13.0
 40
14.0
 40
14.0
 40
14.0
 40
15.0
 40
15.0
 40
15.0
 40
15.0
 10
324.375
 20
-332.67578125
 30
0.0
 10
324.375
 20
-332.67578125
 30
0.0
 10
324.375
 20
-340.62109375
 30
0.0
 10
324.375
 20
-340.62109375
 30
0.0
 10
324.375
 20
-342.126953125
 30
0.0
 10
323.927734375
 20
-343.2099609375
 30
0.0
 10
323.03515625
 20
-343.8681640625
 30
0.0
 10
322.140625
 20
-344.5283203125
 30
0.0
 10
320.9765625
 20
-344.857421875
 30
0.0
 10
319.541015625
 20
-344.857421875
 30
0.0
 10
318.029296875
 20
-344.857421875
 30
0.0
 10
316.814453125
 20
-344.541015625
 30
0.0
 10
315.8984375
 20
-343.908203125
 30
0.0
 10
314.98046875
 20
-343.275390625
 30
0.0
 10
314.5224609375
 20
-342.244140625
 30
0.0
 10
314.5224609375
 20
-340.814453125
 30
0.0
 10
314.5224609375
 20
-340.814453125
 30
0.0
 10
314.5224609375
 20
-332.67578125
 30
0.0
 10
314.5224609375
 20
-332.67578125
 30
0.0
 10
314.5224609375
 20
-332.67578125
 30
0.0
 10
318.2666015625
 20
-332.67578125
 30
0.0
 10
318.2666015625
 20
-332.67578125
 30
0.0
 10
318.2666015625
 20
-332.67578125
 30
0.0
 10
318.2666015625
 20
-340.3837890625
 30
0.0
 10
318.2666015625
 20
-340.3837890625
 30
0.0
 10
318.2666015625
 20
-340.9580078125
 30
0.0
 10
318.3876953125
 20
-341.376953125
 30
0.0
 10
318.6298828125
 20
-341.640625
 30
0.0
 10
318.873046875
 20
-341.904296875
 30
0.0
 10
319.259765625
 20
-342.0361328125
 30
0.0
 10
319.7919921875
 20
-342.0361328125
 30
0.0
 10
320.2353515625
 20
-342.0361328125
 30
0.0
 10
320.599609375
 20
-341.94140625
 30
0.0
 10
320.8828125
 20
-341.7509765625
 30
0.0
 10
321.166015625
 20
-341.560546875
 30
0.0
 10
321.3359375
 20
-341.3447265625
 30
0.0
 10
321.3916015625
 20
-341.1044921875
 30
0.0
 10
321.4462890625
 20
-340.8642578125
 30
0.0
 10
321.474609375
 20
-340.3955078125
 30
0.0
 10
321.474609375
 20
-339.6982421875
 30
0.0
 10
321.474609375
 20
-339.6982421875
 30
0.0
 10
321.474609375
 20
-332.67578125
 30
0.0
 10
321.474609375
 20
-332.67578125
 30
0.0
 10
321.474609375
 20
-332.67578125
 30
0.0
 10
324.375
 20
-332.67578125
 30
0.0
 10
324.375
 20
-332.67578125
 30
0.0
  0
HATCH
  5
A4
330
8F
100
AcDbEntity
  8
Layer 1
 62
   250
420
  2301728
440
 33554687
100
AcDbHatch
 10
0.0
 20
0.0
 30
0.0
210
0.0
220
0.0
230
1.0
  2
SOLID
 70
     1
 71
     1
 91
        1
 92
        1
 93
        1
 72
     4
 94
        3
 73
     0
 74
     0
 95
       50
 96
       46
 40
0.0
 40
0.0
 40
0.0
 40
0.0
 40
1.0
 40
1.0
 40
1.0
 40
2.0
 40
2.0
 40
2.0
 40
3.0
 40
3.0
 40
3.0
 40
4.0
 40
4.0
 40
4.0
 40
5.0
 40
5.0
 40
5.0
 40
6.0
 40
6.0
 40
6.0
 40
7.0
 40
7.0
 40
7.0
 40
8.0
 40
8.0
 40
8.0
 40
9.0
 40
9.0
 40
9.0
 40
10.0
 40
10.0
 40
10.0
 40
11.0
 40
11.0
 40
11.0
 40
12.0
 40
12.0
 40
12.0
 40
13.0
 40
13.0
 40
13.0
 40
14.0
 40
14.0
 40
14.0
 40
15.0
 40
15.0
 40
15.0
 40
15.0
 10
324.375
 20
-332.67578125
 10
324.375
 20
-332.67578125
 10
324.375
 20
-340.62109375
 10
324.375
 20
-340.62109375
 10
324.375
 20
-342.126953125
 10
323.927734375
 20
-343.2099609375
 10
323.03515625
 20
-343.8681640625
 10
322.140625
 20
-344.5283203125
 10
320.9765625
 20
-344.857421875
 10
319.541015625
 20
-344.857421875
 10
318.029296875
 20
-344.857421875
 10
316.814453125
 20
-344.541015625
 10
315.8984375
 20
-343.908203125
 10
314.98046875
 20
-343.275390625
 10
314.5224609375
 20
-342.244140625
 10
314.5224609375
 20
-340.814453125
 10
314.5224609375
 20
-340.814453125
 10
314.5224609375
 20
-332.67578125
 10
314.5224609375
 20
-332.67578125
 10
314.5224609375
 20
-332.67578125
 10
318.2666015625
 20
-332.67578125
 10
318.2666015625
 20
-332.67578125
 10
318.2666015625
 20
-332.67578125
 10
318.2666015625
 20
-340.3837890625
 10
318.2666015625
 20
-340.3837890625
 10
318.2666015625
 20
-340.9580078125
 10
318.3876953125
 20
-341.376953125
 10
318.6298828125
 20
-341.640625
 10
318.873046875
 20
-341.904296875
 10
319.259765625
 20
-342.0361328125
 10
319.7919921875
 20
-342.0361328125
 10
320.2353515625
 20
-342.0361328125
 10
320.599609375
 20
-341.94140625
 10
320.8828125
 20
-341.7509765625
 10
321.166015625
 20
-341.560546875
 10
321.3359375
 20
-341.3447265625
 10
321.3916015625
 20
-341.1044921875
 10
321.4462890625
 20
-340.8642578125
 10
321.474609375
 20
-340.3955078125
 10
321.474609375
 20
-339.6982421875
 10
321.474609375
 20
-339.6982421875
 10
321.474609375
 20
-332.67578125
 10
321.474609375
 20
-332.67578125
 10
321.474609375
 20
-332.67578125
 10
324.375
 20
-332.67578125
 10
324.375
 20
-332.67578125
 97
        0
 97
        1
330
A3
 75
     2
 76
     1
 98
        1
 10
0.0
 20
0.0
450
        0
451
        0
460
0.0
461
0.0
452
        0
462
0.0
453
        0
470

  0
SPLINE
  5
A5
330
8F
100
AcDbEntity
  8
Layer 1
100
AcDbSpline
210
0.0
220
0.0
230
1.0
 70
     9
 71
     3
 72
    53
 73
    49
 74
     0
 42
0.0000000001
 43
0.0000000001
 40
0.0
 40
0.0
 40
0.0
 40
0.0
 40
1.0
 40
1.0
 40
1.0
 40
2.0
 40
2.0
 40
2.0
 40
3.0
 40
3.0
 40
3.0
 40
4.0
 40
4.0
 40
4.0
 40
5.0
 40
5.0
 40
5.0
 40
6.0
 40
6.0
 40
6.0
 40
7.0
 40
7.0
 40
7.0
 40
8.0
 40
8.0
 40
8.0
 40
9.0
 40
9.0
 40
9.0
 40
10.0
 40
10.0
 40
10.0
 40
11.0
 40
11.0
 40
11.0
 40
12.0
 40
12.0
 40
12.0
 40
13.0
 40
13.0
 40
13.0
 40
14.0
 40
14.0
 40
14.0
 40
15.0
 40
15.0
 40
15.0
 40
16.0
 40
16.0
 40
16.0
 40
16.0
 10
332.9443359375
 20
-340.09375
 30
0.0
 10
332.9443359375
 20
-340.09375
 30
0.0
 10
336.310546875
 20
-340.2958984375
 30
0.0
 10
336.310546875
 20
-340.2958984375
 30
0.0
 10
336.15234375
 20
-341.7666015625
 30
0.0
 10
335.6083984375
 20
-342.89453125
 30
0.0
 10
334.6806640625
 20
-343.6796875
 30
0.0
 10
333.7509765625
 20
-344.46484375
 30
0.0
 10
332.6103515625
 20
-344.857421875
 30
0.0
 10
331.2568359375
 20
-344.857421875
 30
0.0
 10
329.6279296875
 20
-344.857421875
 30
0.0
 10
328.3125
 20
-344.318359375
 30
0.0
 10
327.310546875
 20
-343.240234375
 30
0.0
 10
326.30859375
 20
-342.162109375
 30
0.0
 10
325.8076171875
 20
-340.673828125
 30
0.0
 10
325.8076171875
 20
-338.775390625
 30
0.0
 10
325.8076171875
 20
-336.89453125
 30
0.0
 10
326.2822265625
 20
-335.376953125
 30
0.0
 10
327.2314453125
 20
-334.22265625
 30
0.0
 10
328.1806640625
 20
-333.068359375
 30
0.0
 10
329.5048828125
 20
-332.4912109375
 30
0.0
 10
331.2041015625
 20
-332.4912109375
 30
0.0
 10
332.7919921875
 20
-332.4912109375
 30
0.0
 10
334.0126953125
 20
-332.9306640625
 30
0.0
 10
334.8642578125
 20
-333.8095703125
 30
0.0
 10
335.7177734375
 20
-334.6884765625
 30
0.0
 10
336.19921875
 20
-335.8544921875
 30
0.0
 10
336.310546875
 20
-337.3076171875
 30
0.0
 10
336.310546875
 20
-337.3076171875
 30
0.0
 10
332.8740234375
 20
-337.4921875
 30
0.0
 10
332.8740234375
 20
-337.4921875
 30
0.0
 10
332.8740234375
 20
-336.689453125
 30
0.0
 10
332.7197265625
 20
-336.109375
 30
0.0
 10
332.4130859375
 20
-335.751953125
 30
0.0
 10
332.1044921875
 20
-335.39453125
 30
0.0
 10
331.7431640625
 20
-335.2158203125
 30
0.0
 10
331.3271484375
 20
-335.2158203125
 30
0.0
 10
330.1669921875
 20
-335.2158203125
 30
0.0
 10
329.5869140625
 20
-336.3818359375
 30
0.0
 10
329.5869140625
 20
-338.7138671875
 30
0.0
 10
329.5869140625
 20
-340.0205078125
 30
0.0
 10
329.7373046875
 20
-340.908203125
 30
0.0
 10
330.0400390625
 20
-341.376953125
 30
0.0
 10
330.3408203125
 20
-341.845703125
 30
0.0
 10
330.7646484375
 20
-342.080078125
 30
0.0
 10
331.3095703125
 20
-342.080078125
 30
0.0
 10
332.2822265625
 20
-342.080078125
 30
0.0
 10
332.8271484375
 20
-341.41796875
 30
0.0
 10
332.9443359375
 20
-340.09375
 30
0.0
  0
HATCH
  5
A6
330
8F
100
AcDbEntity
  8
Layer 1
 62
   250
420
  2301728
440
 33554687
100
AcDbHatch
 10
0.0
 20
0.0
 30
0.0
210
0.0
220
0.0
230
1.0
  2
SOLID
 70
     1
 71
     1
 91
        1
 92
        1
 93
        1
 72
     4
 94
        3
 73
     0
 74
     0
 95
       53
 96
       49
 40
0.0
 40
0.0
 40
0.0
 40
0.0
 40
1.0
 40
1.0
 40
1.0
 40
2.0
 40
2.0
 40
2.0
 40
3.0
 40
3.0
 40
3.0
 40
4.0
 40
4.0
 40
4.0
 40
5.0
 40
5.0
 40
5.0
 40
6.0
 40
6.0
 40
6.0
 40
7.0
 40
7.0
 40
7.0
 40
8.0
 40
8.0
 40
8.0
 40
9.0
 40
9.0
 40
9.0
 40
10.0
 40
10.0
 40
10.0
 40
11.0
 40
11.0
 40
11.0
 40
12.0
 40
12.0
 40
12.0
 40
13.0
 40
13.0
 40
13.0
 40
14.0
 40
14.0
 40
14.0
 40
15.0
 40
15.0
 40
15.0
 40
16.0
 40
16.0
 40
16.0
 40
16.0
 10
332.9443359375
 20
-340.09375
 10
332.9443359375
 20
-340.09375
 10
336.310546875
 20
-340.2958984375
 10
336.310546875
 20
-340.2958984375
 10
336.15234375
 20
-341.7666015625
 10
335.6083984375
 20
-342.89453125
 10
334.6806640625
 20
-343.6796875
 10
333.7509765625
 20
-344.46484375
 10
332.6103515625
 20
-344.857421875
 10
331.2568359375
 20
-344.857421875
 10
329.6279296875
 20
-344.857421875
 10
328.3125
 20
-344.318359375
 10
327.310546875
 20
-343.240234375
 10
326.30859375
 20
-342.162109375
 10
325.8076171875
 20
-340.673828125
 10
325.8076171875
 20
-338.775390625
 10
325.8076171875
 20
-336.89453125
 10
326.2822265625
 20
-335.376953125
 10
327.2314453125
 20
-334.22265625
 10
328.1806640625
 20
-333.068359375
 10
329.5048828125
 20
-332.4912109375
 10
331.2041015625
 20
-332.4912109375
 10
332.7919921875
 20
-332.4912109375
 10
334.0126953125
 20
-332.9306640625
 10
334.8642578125
 20
-333.8095703125
 10
335.7177734375
 20
-334.6884765625
 10
336.19921875
 20
-335.8544921875
 10
336.310546875
 20
-337.3076171875
 10
336.310546875
 20
-337.3076171875
 10
332.8740234375
 20
-337.4921875
 10
332.8740234375
 20
-337.4921875
 10
332.8740234375
 20
-336.689453125
 10
332.7197265625
 20
-336.109375
 10
332.4130859375
 20
-335.751953125
 10
332.1044921875
 20
-335.39453125
 10
331.7431640625
 20
-335.2158203125
 10
331.3271484375
 20
-335.2158203125
 10
330.1669921875
 20
-335.2158203125
 10
329.5869140625
 20
-336.3818359375
 10
329.5869140625
 20
-338.7138671875
 10
329.5869140625
 20
-340.0205078125
 10
329.7373046875
 20
-340.908203125
 10
330.0400390625
 20
-341.376953125
 10
330.3408203125
 20
-341.845703125
 10
330.7646484375
 20
-342.080078125
 10
331.3095703125
 20
-342.080078125
 10
332.2822265625
 20
-342.080078125
 10
332.8271484375
 20
-341.41796875
 10
332.9443359375
 20
-340.09375
 97
        0
 97
        1
330
A5
 75
     2
 76
     1
 98
        1
 10
0.0
 20
0.0
450
        0
451
        0
460
0.0
461
0.0
452
        0
462
0.0
453
        0
470

  0
SPLINE
  5
A7
330
8F
100
AcDbEntity
  8
Layer 1
100
AcDbSpline
210
0.0
220
0.0
230
1.0
 70
    11
 71
     3
 72
    41
 73
    37
 74
     0
 42
0.0000000001
 43
0.0000000001
 40
0.0
 40
0.0
 40
0.0
 40
0.0
 40
1.0
 40
1.0
 40
1.0
 40
2.0
 40
2.0
 40
2.0
 40
3.0
 40
3.0
 40
3.0
 40
4.0
 40
4.0
 40
4.0
 40
5.0
 40
5.0
 40
5.0
 40
6.0
 40
6.0
 40
6.0
 40
7.0
 40
7.0
 40
7.0
 40
8.0
 40
8.0
 40
8.0
 40
9.0
 40
9.0
 40
9.0
 40
10.0
 40
10.0
 40
10.0
 40
11.0
 40
11.0
 40
11.0
 40
12.0
 40
12.0
 40
12.0
 40
12.0
 10
348.474609375
 20
-344.6728515625
 30
0.0
 10
348.474609375
 20
-344.6728515625
 30
0.0
 10
344.4453125
 20
-344.6728515625
 30
0.0
 10
344.4453125
 20
-344.6728515625
 30
0.0
 10
344.4453125
 20
-344.6728515625
 30
0.0
 10
342.37109375
 20
-340.138671875
 30
0.0
 10
342.37109375
 20
-340.138671875
 30
0.0
 10
342.37109375
 20
-340.138671875
 30
0.0
 10
341.126953125
 20
-341.904296875
 30
0.0
 10
341.126953125
 20
-341.904296875
 30
0.0
 10
341.126953125
 20
-341.904296875
 30
0.0
 10
341.126953125
 20
-344.6728515625
 30
0.0
 10
341.126953125
 20
-344.6728515625
 30
0.0
 10
341.126953125
 20
-344.6728515625
 30
0.0
 10
337.6552734375
 20
-344.6728515625
 30
0.0
 10
337.6552734375
 20
-344.6728515625
 30
0.0
 10
337.6552734375
 20
-344.6728515625
 30
0.0
 10
337.6552734375
 20
-332.67578125
 30
0.0
 10
337.6552734375
 20
-332.67578125
 30
0.0
 10
337.6552734375
 20
-332.67578125
 30
0.0
 10
341.126953125
 20
-332.67578125
 30
0.0
 10
341.126953125
 20
-332.67578125
 30
0.0
 10
341.126953125
 20
-332.67578125
 30
0.0
 10
341.126953125
 20
-337.63671875
 30
0.0
 10
341.126953125
 20
-337.63671875
 30
0.0
 10
341.126953125
 20
-337.63671875
 30
0.0
 10
344.435546875
 20
-332.67578125
 30
0.0
 10
344.435546875
 20
-332.67578125
 30
0.0
 10
344.435546875
 20
-332.67578125
 30
0.0
 10
347.7451171875
 20
-332.67578125
 30
0.0
 10
347.7451171875
 20
-332.67578125
 30
0.0
 10
347.7451171875
 20
-332.67578125
 30
0.0
 10
344.7158203125
 20
-337.06640625
 30
0.0
 10
344.7158203125
 20
-337.06640625
 30
0.0
 10
344.7158203125
 20
-337.06640625
 30
0.0
 10
348.474609375
 20
-344.6728515625
 30
0.0
 10
348.474609375
 20
-344.6728515625
 30
0.0
  0
HATCH
  5
A8
330
8F
100
AcDbEntity
  8
Layer 1
 62
   250
420
  2301728
440
 33554687
100
AcDbHatch
 10
0.0
 20
0.0
 30
0.0
210
0.0
220
0.0
230
1.0
  2
SOLID
 70
     1
 71
     1
 91
        1
 92
        1
 93
        1
 72
     4
 94
        3
 73
     0
 74
     0
 95
       41
 96
       37
 40
0.0
 40
0.0
 40
0.0
 40
0.0
 40
1.0
 40
1.0
 40
1.0
 40
2.0
 40
2.0
 40
2.0
 40
3.0
 40
3.0
 40
3.0
 40
4.0
 40
4.0
 40
4.0
 40
5.0
 40
5.0
 40
5.0
 40
6.0
 40
6.0
 40
6.0
 40
7.0
 40
7.0
 40
7.0
 40
8.0
 40
8.0
 40
8.0
 40
9.0
 40
9.0
 40
9.0
 40
10.0
 40
10.0
 40
10.0
 40
11.0
 40
11.0
 40
11.0
 40
12.0
 40
12.0
 40
12.0
 40
12.0
 10
348.474609375
 20
-344.6728515625
 10
348.474609375
 20
-344.6728515625
 10
344.4453125
 20
-344.6728515625
 10
344.4453125
 20
-344.6728515625
 10
344.4453125
 20
-344.6728515625
 10
342.37109375
 20
-340.138671875
 10
342.37109375
 20
-340.138671875
 10
342.37109375
 20
-340.138671875
 10
341.126953125
 20
-341.904296875
 10
341.126953125
 20
-341.904296875
 10
341.126953125
 20
-341.904296875
 10
341.126953125
 20
-344.6728515625
 10
341.126953125
 20
-344.6728515625
 10
341.126953125
 20
-344.6728515625
 10
337.6552734375
 20
-344.6728515625
 10
337.6552734375
 20
-344.6728515625
 10
337.6552734375
 20
-344.6728515625
 10
337.6552734375
 20
-332.67578125
 10
337.6552734375
 20
-332.67578125
 10
337.6552734375
 20
-332.67578125
 10
341.126953125
 20
-332.67578125
 10
341.126953125
 20
-332.67578125
 10
341.126953125
 20
-332.67578125
 10
341.126953125
 20
-337.63671875
 10
341.126953125
 20
-337.63671875
 10
341.126953125
 20
-337.63671875
 10
344.435546875
 20
-332.67578125
 10
344.435546875
 20
-332.67578125
 10
344.435546875
 20
-332.67578125
 10
347.7451171875
 20
-332.67578125
 10
347.7451171875
 20
-332.67578125
 10
347.7451171875
 20
-332.67578125
 10
344.7158203125
 20
-337.06640625
 10
344.7158203125
 20
-337.06640625
 10
344.7158203125
 20
-337.06640625
 10
348.474609375
 20
-344.6728515625
 10
348.474609375
 20
-344.6728515625
 97
        0
 97
        1
330
A7
 75
     2
 76
     1
 98
        1
 10
0.0
 20
0.0
450
        0
451
        0
460
0.0
461
0.0
452
        0
462
0.0
453
        0
470

  0
SPLINE
  5
A9
330
8F
100
AcDbEntity
  8
Layer 1
100
AcDbSpline
210
0.0
220
0.0
230
1.0
 70
    11
 71
     3
 72
    17
 73
    13
 74
     0
 42
0.0000000001
 43
0.0000000001
 40
0.0
 40
0.0
 40
0.0
 40
0.0
 40
1.0
 40
1.0
 40
1.0
 40
2.0
 40
2.0
 40
2.0
 40
3.0
 40
3.0
 40
3.0
 40
4.0
 40
4.0
 40
4.0
 40
4.0
 10
353.1416015625
 20
-332.67578125
 30
0.0
 10
353.1416015625
 20
-332.67578125
 30
0.0
 10
353.1416015625
 20
-344.6728515625
 30
0.0
 10
353.1416015625
 20
-344.6728515625
 30
0.0
 10
353.1416015625
 20
-344.6728515625
 30
0.0
 10
349.458984375
 20
-344.6728515625
 30
0.0
 10
349.458984375
 20
-344.6728515625
 30
0.0
 10
349.458984375
 20
-344.6728515625
 30
0.0
 10
349.458984375
 20
-332.67578125
 30
0.0
 10
349.458984375
 20
-332.67578125
 30
0.0
 10
349.458984375
 20
-332.67578125
 30
0.0
 10
353.1416015625
 20
-332.67578125
 30
0.0
 10
353.1416015625
 20
-332.67578125
 30
0.0
  0
HATCH
  5
AA
330
8F
100
AcDbEntity
  8
Layer 1
 62
   250
420
  2301728
440
 33554687
100
AcDbHatch
 10
0.0
 20
0.0
 30
0.0
210
0.0
220
0.0
230
1.0
  2
SOLID
 70
     1
 71
     1
 91
        1
 92
        1
 93
        1
 72
     4
 94
        3
 73
     0
 74
     0
 95
       17
 96
       13
 40
0.0
 40
0.0
 40
0.0
 40
0.0
 40
1.0
 40
1.0
 40
1.0
 40
2.0
 40
2.0
 40
2.0
 40
3.0
 40
3.0
 40
3.0
 40
4.0
 40
4.0
 40
4.0
 40
4.0
 10
353.1416015625
 20
-332.67578125
 10
353.1416015625
 20
-332.67578125
 10
353.1416015625
 20
-344.6728515625
 10
353.1416015625
 20
-344.6728515625
 10
353.1416015625
 20
-344.6728515625
 10
349.458984375
 20
-344.6728515625
 10
349.458984375
 20
-344.6728515625
 10
349.458984375
 20
-344.6728515625
 10
349.458984375
 20
-332.67578125
 10
349.458984375
 20
-332.67578125
 10
349.458984375
 20
-332.67578125
 10
353.1416015625
 20
-332.67578125
 10
353.1416015625
 20
-332.67578125
 97
        0
 97
        1
330
A9
 75
     2
 76
     1
 98
        1
 10
0.0
 20
0.0
450
        0
451
        0
460
0.0
461
0.0
452
        0
462
0.0
453
        0
470

  0
SPLINE
  5
AB
330
8F
100
AcDbEntity
  8
Layer 1
100
AcDbSpline
210
0.0
220
0.0
230
1.0
 70
    11
 71
     3
 72
    47
 73
    43
 74
     0
 42
0.0000000001
 43
0.0000000001
 40
0.0
 40
0.0
 40
0.0
 40
0.0
 40
1.0
 40
1.0
 40
1.0
 40
2.0
 40
2.0
 40
2.0
 40
3.0
 40
3.0
 40
3.0
 40
4.0
 40
4.0
 40
4.0
 40
5.0
 40
5.0
 40
5.0
 40
6.0
 40
6.0
 40
6.0
 40
7.0
 40
7.0
 40
7.0
 40
8.0
 40
8.0
 40
8.0
 40
9.0
 40
9.0
 40
9.0
 40
10.0
 40
10.0
 40
10.0
 40
11.0
 40
11.0
 40
11.0
 40
12.0
 40
12.0
 40
12.0
 40
13.0
 40
13.0
 40
13.0
 40
14.0
 40
14.0
 40
14.0
 40
14.0
 10
365.490234375
 20
-344.6728515625
 30
0.0
 10
365.490234375
 20
-344.6728515625
 30
0.0
 10
362.4931640625
 20
-344.6728515625
 30
0.0
 10
362.4931640625
 20
-344.6728515625
 30
0.0
 10
362.4931640625
 20
-344.6728515625
 30
0.0
 10
359.20703125
 20
-339.3720703125
 30
0.0
 10
359.20703125
 20
-339.3720703125
 30
0.0
 10
358.7861328125
 20
-338.6923828125
 30
0.0
 10
358.3603515625
 20
-337.8662109375
 30
0.0
 10
357.931640625
 20
-336.89453125
 30
0.0
 10
358.125
 20
-337.66796875
 30
0.0
 10
358.2216796875
 20
-338.32421875
 30
0.0
 10
358.2216796875
 20
-338.86328125
 30
0.0
 10
358.2216796875
 20
-338.86328125
 30
0.0
 10
358.2216796875
 20
-344.6728515625
 30
0.0
 10
358.2216796875
 20
-344.6728515625
 30
0.0
 10
358.2216796875
 20
-344.6728515625
 30
0.0
 10
355.2333984375
 20
-344.6728515625
 30
0.0
 10
355.2333984375
 20
-344.6728515625
 30
0.0
 10
355.2333984375
 20
-344.6728515625
 30
0.0
 10
355.2333984375
 20
-332.67578125
 30
0.0
 10
355.2333984375
 20
-332.67578125
 30
0.0
 10
355.2333984375
 20
-332.67578125
 30
0.0
 10
358.7138671875
 20
-332.67578125
 30
0.0
 10
358.7138671875
 20
-332.67578125
 30
0.0
 10
358.7138671875
 20
-332.67578125
 30
0.0
 10
361.5087890625
 20
-337.0703125
 30
0.0
 10
361.5087890625
 20
-337.0703125
 30
0.0
 10
362.0654296875
 20
-337.943359375
 30
0.0
 10
362.4873046875
 20
-338.7109375
 30
0.0
 10
362.7744140625
 20
-339.373046875
 30
0.0
 10
362.5869140625
 20
-338.34765625
 30
0.0
 10
362.4931640625
 20
-337.298828125
 30
0.0
 10
362.4931640625
 20
-336.2265625
 30
0.0
 10
362.4931640625
 20
-336.2265625
 30
0.0
 10
362.4931640625
 20
-332.67578125
 30
0.0
 10
362.4931640625
 20
-332.67578125
 30
0.0
 10
362.4931640625
 20
-332.67578125
 30
0.0
 10
365.490234375
 20
-332.67578125
 30
0.0
 10
365.490234375
 20
-332.67578125
 30
0.0
 10
365.490234375
 20
-332.67578125
 30
0.0
 10
365.490234375
 20
-344.6728515625
 30
0.0
 10
365.490234375
 20
-344.6728515625
 30
0.0
  0
HATCH
  5
AC
330
8F
100
AcDbEntity
  8
Layer 1
 62
   250
420
  2301728
440
 33554687
100
AcDbHatch
 10
0.0
 20
0.0
 30
0.0
210
0.0
220
0.0
230
1.0
  2
SOLID
 70
     1
 71
     1
 91
        1
 92
        1
 93
        1
 72
     4
 94
        3
 73
     0
 74
     0
 95
       47
 96
       43
 40
0.0
 40
0.0
 40
0.0
 40
0.0
 40
1.0
 40
1.0
 40
1.0
 40
2.0
 40
2.0
 40
2.0
 40
3.0
 40
3.0
 40
3.0
 40
4.0
 40
4.0
 40
4.0
 40
5.0
 40
5.0
 40
5.0
 40
6.0
 40
6.0
 40
6.0
 40
7.0
 40
7.0
 40
7.0
 40
8.0
 40
8.0
 40
8.0
 40
9.0
 40
9.0
 40
9.0
 40
10.0
 40
10.0
 40
10.0
 40
11.0
 40
11.0
 40
11.0
 40
12.0
 40
12.0
 40
12.0
 40
13.0
 40
13.0
 40
13.0
 40
14.0
 40
14.0
 40
14.0
 40
14.0
 10
365.490234375
 20
-344.6728515625
 10
365.490234375
 20
-344.6728515625
 10
362.4931640625
 20
-344.6728515625
 10
362.4931640625
 20
-344.6728515625
 10
362.4931640625
 20
-344.6728515625
 10
359.20703125
 20
-339.3720703125
 10
359.20703125
 20
-339.3720703125
 10
358.7861328125
 20
-338.6923828125
 10
358.3603515625
 20
-337.8662109375
 10
357.931640625
 20
-336.89453125
 10
358.125
 20
-337.66796875
 10
358.2216796875
 20
-338.32421875
 10
358.2216796875
 20
-338.86328125
 10
358.2216796875
 20
-338.86328125
 10
358.2216796875
 20
-344.6728515625
 10
358.2216796875
 20
-344.6728515625
 10
358.2216796875
 20
-344.6728515625
 10
355.2333984375
 20
-344.6728515625
 10
355.2333984375
 20
-344.6728515625
 10
355.2333984375
 20
-344.6728515625
 10
355.2333984375
 20
-332.67578125
 10
355.2333984375
 20
-332.67578125
 10
355.2333984375
 20
-332.67578125
 10
358.7138671875
 20
-332.67578125
 10
358.7138671875
 20
-332.67578125
 10
358.7138671875
 20
-332.67578125
 10
361.5087890625
 20
-337.0703125
 10
361.5087890625
 20
-337.0703125
 10
362.0654296875
 20
-337.943359375
 10
362.4873046875
 20
-338.7109375
 10
362.7744140625
 20
-339.373046875
 10
362.5869140625
 20
-338.34765625
 10
362.4931640625
 20
-337.298828125
 10
362.4931640625
 20
-336.2265625
 10
362.4931640625
 20
-336.2265625
 10
362.4931640625
 20
-332.67578125
 10
362.4931640625
 20
-332.67578125
 10
362.4931640625
 20
-332.67578125
 10
365.490234375
 20
-332.67578125
 10
365.490234375
 20
-332.67578125
 10
365.490234375
 20
-332.67578125
 10
365.490234375
 20
-344.6728515625
 10
365.490234375
 20
-344.6728515625
 97
        0
 97
        1
330
AB
 75
     2
 76
     1
 98
        1
 10
0.0
 20
0.0
450
        0
451
        0
460
0.0
461
0.0
452
        0
462
0.0
453
        0
470

  0
SPLINE
  5
AD
330
8F
100
AcDbEntity
  8
Layer 1
100
AcDbSpline
210
0.0
220
0.0
230
1.0
 70
    11
 71
     3
 72
    65
 73
    61
 74
     0
 42
0.0000000001
 43
0.0000000001
 40
0.0
 40
0.0
 40
0.0
 40
0.0
 40
1.0
 40
1.0
 40
1.0
 40
2.0
 40
2.0
 40
2.0
 40
3.0
 40
3.0
 40
3.0
 40
4.0
 40
4.0
 40
4.0
 40
5.0
 40
5.0
 40
5.0
 40
6.0
 40
6.0
 40
6.0
 40
7.0
 40
7.0
 40
7.0
 40
8.0
 40
8.0
 40
8.0
 40
9.0
 40
9.0
 40
9.0
 40
10.0
 40
10.0
 40
10.0
 40
11.0
 40
11.0
 40
11.0
 40
12.0
 40
12.0
 40
12.0
 40
13.0
 40
13.0
 40
13.0
 40
14.0
 40
14.0
 40
14.0
 40
15.0
 40
15.0
 40
15.0
 40
16.0
 40
16.0
 40
16.0
 40
17.0
 40
17.0
 40
17.0
 40
18.0
 40
18.0
 40
18.0
 40
19.0
 40
19.0
 40
19.0
 40
20.0
 40
20.0
 40
20.0
 40
20.0
 10
377.9443359375
 20
-337.94921875
 30
0.0
 10
377.9443359375
 20
-337.94921875
 30
0.0
 10
377.9443359375
 20
-344.6728515625
 30
0.0
 10
377.9443359375
 20
-344.6728515625
 30
0.0
 10
377.9443359375
 20
-344.6728515625
 30
0.0
 10
376.142578125
 20
-344.6728515625
 30
0.0
 10
376.142578125
 20
-344.6728515625
 30
0.0
 10
375.99609375
 20
-344.1748046875
 30
0.0
 10
375.8349609375
 20
-343.755859375
 30
0.0
 10
375.6591796875
 20
-343.416015625
 30
0.0
 10
374.9150390625
 20
-344.376953125
 30
0.0
 10
373.8134765625
 20
-344.857421875
 30
0.0
 10
372.3544921875
 20
-344.857421875
 30
0.0
 10
370.8076171875
 20
-344.857421875
 30
0.0
 10
369.5361328125
 20
-344.3173828125
 30
0.0
 10
368.5400390625
 20
-343.2353515625
 30
0.0
 10
367.5439453125
 20
-342.1552734375
 30
0.0
 10
367.0458984375
 20
-340.69140625
 30
0.0
 10
367.0458984375
 20
-338.845703125
 30
0.0
 10
367.0458984375
 20
-337.052734375
 30
0.0
 10
367.52734375
 20
-335.5458984375
 30
0.0
 10
368.4912109375
 20
-334.3232421875
 30
0.0
 10
369.455078125
 20
-333.1025390625
 30
0.0
 10
370.8896484375
 20
-332.4912109375
 30
0.0
 10
372.7939453125
 20
-332.4912109375
 30
0.0
 10
374.2236328125
 20
-332.4912109375
 30
0.0
 10
375.375
 20
-332.8544921875
 30
0.0
 10
376.248046875
 20
-333.5810546875
 30
0.0
 10
377.12109375
 20
-334.3076171875
 30
0.0
 10
377.6865234375
 20
-335.3388671875
 30
0.0
 10
377.9443359375
 20
-336.6748046875
 30
0.0
 10
377.9443359375
 20
-336.6748046875
 30
0.0
 10
374.3759765625
 20
-337.0263671875
 30
0.0
 10
374.3759765625
 20
-337.0263671875
 30
0.0
 10
374.2001953125
 20
-335.7783203125
 30
0.0
 10
373.65234375
 20
-335.154296875
 30
0.0
 10
372.732421875
 20
-335.154296875
 30
0.0
 10
371.525390625
 20
-335.154296875
 30
0.0
 10
370.921875
 20
-336.302734375
 30
0.0
 10
370.921875
 20
-338.599609375
 30
0.0
 10
370.921875
 20
-339.98828125
 30
0.0
 10
371.115234375
 20
-340.904296875
 30
0.0
 10
371.501953125
 20
-341.3466796875
 30
0.0
 10
371.888671875
 20
-341.7890625
 30
0.0
 10
372.357421875
 20
-342.009765625
 30
0.0
 10
372.908203125
 20
-342.009765625
 30
0.0
 10
373.353515625
 20
-342.009765625
 30
0.0
 10
373.732421875
 20
-341.875
 30
0.0
 10
374.0458984375
 20
-341.60546875
 30
0.0
 10
374.359375
 20
-341.3359375
 30
0.0
 10
374.51953125
 20
-340.966796875
 30
0.0
 10
374.525390625
 20
-340.498046875
 30
0.0
 10
374.525390625
 20
-340.498046875
 30
0.0
 10
372.5390625
 20
-340.498046875
 30
0.0
 10
372.5390625
 20
-340.498046875
 30
0.0
 10
372.5390625
 20
-340.498046875
 30
0.0
 10
372.5390625
 20
-337.94921875
 30
0.0
 10
372.5390625
 20
-337.94921875
 30
0.0
 10
372.5390625
 20
-337.94921875
 30
0.0
 10
377.9443359375
 20
-337.94921875
 30
0.0
 10
377.9443359375
 20
-337.94921875
 30
0.0
  0
HATCH
  5
AE
330
8F
100
AcDbEntity
  8
Layer 1
 62
   250
420
  2301728
440
 33554687
100
AcDbHatch
 10
0.0
 20
0.0
 30
0.0
210
0.0
220
0.0
230
1.0
  2
SOLID
 70
     1
 71
     1
 91
        1
 92
        1
 93
        1
 72
     4
 94
        3
 73
     0
 74
     0
 95
       65
 96
       61
 40
0.0
 40
0.0
 40
0.0
 40
0.0
 40
1.0
 40
1.0
 40
1.0
 40
2.0
 40
2.0
 40
2.0
 40
3.0
 40
3.0
 40
3.0
 40
4.0
 40
4.0
 40
4.0
 40
5.0
 40
5.0
 40
5.0
 40
6.0
 40
6.0
 40
6.0
 40
7.0
 40
7.0
 40
7.0
 40
8.0
 40
8.0
 40
8.0
 40
9.0
 40
9.0
 40
9.0
 40
10.0
 40
10.0
 40
10.0
 40
11.0
 40
11.0
 40
11.0
 40
12.0
 40
12.0
 40
12.0
 40
13.0
 40
13.0
 40
13.0
 40
14.0
 40
14.0
 40
14.0
 40
15.0
 40
15.0
 40
15.0
 40
16.0
 40
16.0
 40
16.0
 40
17.0
 40
17.0
 40
17.0
 40
18.0
 40
18.0
 40
18.0
 40
19.0
 40
19.0
 40
19.0
 40
20.0
 40
20.0
 40
20.0
 40
20.0
 10
377.9443359375
 20
-337.94921875
 10
377.9443359375
 20
-337.94921875
 10
377.9443359375
 20
-344.6728515625
 10
377.9443359375
 20
-344.6728515625
 10
377.9443359375
 20
-344.6728515625
 10
376.142578125
 20
-344.6728515625
 10
376.142578125
 20
-344.6728515625
 10
375.99609375
 20
-344.1748046875
 10
375.8349609375
 20
-343.755859375
 10
375.6591796875
 20
-343.416015625
 10
374.9150390625
 20
-344.376953125
 10
373.8134765625
 20
-344.857421875
 10
372.3544921875
 20
-344.857421875
 10
370.8076171875
 20
-344.857421875
 10
369.5361328125
 20
-344.3173828125
 10
368.5400390625
 20
-343.2353515625
 10
367.5439453125
 20
-342.1552734375
 10
367.0458984375
 20
-340.69140625
 10
367.0458984375
 20
-338.845703125
 10
367.0458984375
 20
-337.052734375
 10
367.52734375
 20
-335.5458984375
 10
368.4912109375
 20
-334.3232421875
 10
369.455078125
 20
-333.1025390625
 10
370.8896484375
 20
-332.4912109375
 10
372.7939453125
 20
-332.4912109375
 10
374.2236328125
 20
-332.4912109375
 10
375.375
 20
-332.8544921875
 10
376.248046875
 20
-333.5810546875
 10
377.12109375
 20
-334.3076171875
 10
377.6865234375
 20
-335.3388671875
 10
377.9443359375
 20
-336.6748046875
 10
377.9443359375
 20
-336.6748046875
 10
374.3759765625
 20
-337.0263671875
 10
374.3759765625
 20
-337.0263671875
 10
374.2001953125
 20
-335.7783203125
 10
373.65234375
 20
-335.154296875
 10
372.732421875
 20
-335.154296875
 10
371.525390625
 20
-335.154296875
 10
370.921875
 20
-336.302734375
 10
370.921875
 20
-338.599609375
 10
370.921875
 20
-339.98828125
 10
371.115234375
 20
-340.904296875
 10
371.501953125
 20
-341.3466796875
 10
371.888671875
 20
-341.7890625
 10
372.357421875
 20
-342.009765625
 10
372.908203125
 20
-342.009765625
 10
373.353515625
 20
-342.009765625
 10
373.732421875
 20
-341.875
 10
374.0458984375
 20
-341.60546875
 10
374.359375
 20
-341.3359375
 10
374.51953125
 20
-340.966796875
 10
374.525390625
 20
-340.498046875
 10
374.525390625
 20
-340.498046875
 10
372.5390625
 20
-340.498046875
 10
372.5390625
 20
-340.498046875
 10
372.5390625
 20
-340.498046875
 10
372.5390625
 20
-337.94921875
 10
372.5390625
 20
-337.94921875
 10
372.5390625
 20
-337.94921875
 10
377.9443359375
 20
-337.94921875
 10
377.9443359375
 20
-337.94921875
 97
        0
 97
        1
330
AD
 75
     2
 76
     1
 98
        1
 10
0.0
 20
0.0
450
        0
451
        0
460
0.0
461
0.0
452
        0
462
0.0
453
        0
470

  0
ENDBLK
  5
92
330
8F
100
AcDbEntity
  8
0
100
AcDbBlockEnd
  0
ENDSEC
  0
SECTION
  2
ENTITIES
  0
INSERT
  5
7A
330
70
100
AcDbEntity
  8
Layer 1
100
AcDbBlockReference
  2
Block_0
 10
0.0
 20
0.0
 30
0.0
  0
INSERT
  5
90
330
70
100
AcDbEntity
  8
Layer 1
100
AcDbBlockReference
  2
Block_1
 10
0.0
 20
0.0
 30
0.0
  0
IMAGE
  5
B1
330
70
100
AcDbEntity
  8
Layer 1
160
               140
310
8C00000001000000840000000600000005000000000000000040BCC00000000000E4B8400000000000000000000000000040BCC00000000000E4BD400000000000000000000000000080B8C00000000000E4BD400000000000000000000000000080B8C00000000000E4B8400000000000000000000000000040BCC0000000
310
0000E4B8400000000000000000
100
AcDbRasterImage
 90
        0
 10
-7232.0
 20
6372.0
 30
0.0
 11
1.0
 21
0.0
 31
0.0
 12
0.0
 22
1.0
 32
0.0
 13
960.0
 23
1280.0
340
B0
 70
     3
280
     0
281
    50
282
    50
283
     0
290
     0
360
0
 71
     1
 91
        2
 14
-0.5
 24
-0.5
 14
959.5
 24
1279.5
  0
ENDSEC
  0
SECTION
  2
OBJECTS
  0
DICTIONARY
  5
C
330
0
100
AcDbDictionary
281
     1
  3
ACAD_COLOR
350
63
  3
ACAD_DETAILVIEWSTYLE
350
6A
  3
ACAD_GROUP
350
D
  3
ACAD_IMAGE_DICT
350
AF
  3
ACAD_LAYOUT
350
62
  3
ACAD_MATERIAL
350
10
  3
ACAD_MLEADERSTYLE
350
66
  3
ACAD_MLINESTYLE
350
5F
  3
ACAD_PLOTSETTINGS
350
61
  3
ACAD_PLOTSTYLENAME
350
E
  3
ACAD_SCALELIST
350
42
  3
ACAD_SECTIONVIEWSTYLE
350
68
  3
ACAD_TABLESTYLE
350
64
  3
ACAD_VISUALSTYLE
350
29
  3
ACDB_RECOMPOSE_DATA
350
BA
  3
AcDbVariableDictionary
350
B2
  0
DICTIONARY
  5
63
102
{ACAD_REACTORS
330
C
102
}
330
C
100
AcDbDictionary
281
     1
  0
DICTIONARY
  5
6A
102
{ACAD_REACTORS
330
C
102
}
330
C
100
AcDbDictionary
281
     1
  3
Imperial24
350
6B
  0
DICTIONARY
  5
D
102
{ACAD_REACTORS
330
C
102
}
330
C
100
AcDbDictionary
281
     1
  0
DICTIONARY
  5
AF
102
{ACAD_REACTORS
330
C
102
}
330
C
100
AcDbDictionary
281
     1
  3
IFLFU_1.png
350
B0
  0
DICTIONARY
  5
62
102
{ACAD_REACTORS
330
C
102
}
330
C
100
AcDbDictionary
281
     1
  3
Layout1
350
6F
  3
Layout2
350
77
  3
Model
350
73
  0
DICTIONARY
  5
10
102
{ACAD_REACTORS
330
C
102
}
330
C
100
AcDbDictionary
281
     1
  3
ByBlock
350
19
  3
ByLayer
350
11
  3
Global
350
21
  0
DICTIONARY
  5
66
102
{ACAD_REACTORS
330
C
102
}
330
C
100
AcDbDictionary
281
     1
  3
Standard
350
67
  0
DICTIONARY
  5
5F
102
{ACAD_REACTORS
330
C
102
}
330
C
100
AcDbDictionary
281
     1
  3
Standard
350
60
  0
DICTIONARY
  5
61
102
{ACAD_REACTORS
330
C
102
}
330
C
100
AcDbDictionary
281
     1
  0
ACDBDICTIONARYWDFLT
  5
E
102
{ACAD_REACTORS
330
C
102
}
330
C
100
AcDbDictionary
281
     1
  3
Normal
350
F
100
AcDbDictionaryWithDefault
340
F
  0
DICTIONARY
  5
42
102
{ACAD_REACTORS
330
C
102
}
330
C
100
AcDbDictionary
281
     1
  3
A0
350
43
  3
A1
350
44
  3
A2
350
45
  3
A3
350
46
  3
A4
350
47
  3
A5
350
48
  3
A6
350
49
  3
A7
350
4A
  3
A8
350
4B
  3
A9
350
4C
  3
B0
350
4D
  3
B1
350
4E
  3
B2
350
4F
  3
B3
350
50
  3
B4
350
51
  3
B5
350
52
  3
B6
350
53
  0
DICTIONARY
  5
68
102
{ACAD_REACTORS
330
C
102
}
330
C
100
AcDbDictionary
281
     1
  3
Imperial24
350
69
  0
DICTIONARY
  5
64
102
{ACAD_REACTORS
330
C
102
}
330
C
100
AcDbDictionary
281
     1
  3
Standard
350
65
  0
DICTIONARY
  5
29
102
{ACAD_REACTORS
330
C
102
}
330
C
100
AcDbDictionary
281
     1
  3
2dWireframe
350
2F
  3
Basic
350
2E
  3
Brighten
350
35
  3
ColorChange
350
39
  3
Conceptual
350
32
  3
Dim
350
34
  3
EdgeColorOff
350
41
  3
Facepattern
350
38
  3
Flat
350
2A
  3
FlatWithEdges
350
2B
  3
Gouraud
350
2C
  3
GouraudWithEdges
350
2D
  3
Hidden
350
31
  3
JitterOff
350
3F
  3
Linepattern
350
37
  3
OverhangOff
350
40
  3
Realistic
350
33
  3
Shaded
350
3E
  3
Shaded with edges
350
3D
  3
Shades of Gray
350
3A
  3
Sketchy
350
3B
  3
Thicken
350
36
  3
Wireframe
350
30
  3
X-Ray
350
3C
  0
XRECORD
  5
BA
102
{ACAD_REACTORS
330
C
102
}
330
C
100
AcDbXrecord
280
     1
 90
        1
330
65
  0
DICTIONARY
  5
B2
102
{ACAD_REACTORS
330
C
102
}
330
C
100
AcDbDictionary
281
     1
  3
CANNOSCALE
350
B7
  3
CMLEADERSTYLE
350
B4
  3
CTABLESTYLE
350
B3
  3
CVIEWDETAILSTYLE
350
B5
  3
CVIEWSECTIONSTYLE
350
B6
  0
ACDBDETAILVIEWSTYLE
  5
6B
102
{ACAD_REACTORS
330
6A
102
}
330
6A
100
AcDbModelDocViewStyle
 70
     0
  3
Imperial24
290
     1
300
Imperial24
 90
        0
100
AcDbDetailViewStyle
 70
     0
 71
     0
 90
        3
 71
     1
340
55
 62
   256
 40
0.24
340
0
 62
   256
 40
0.24
300

 40
0.36
280
     3
 71
     2
340
5D
 90
       25
 62
   256
 71
     3
340
55
 62
   256
 40
0.24
 90
        1
 40
0.75
 90
        1
300
%<\AcVar ViewType \f "%tc1">% %<\AcVar ViewDetailId>%\PSCALE %<\AcVar ViewScale \f "%sn">%
 71
     4
340
5D
 90
       25
 62
   256
340
5D
 90
       25
 62
   256
280
     0
  0
IMAGEDEF
  5
B0
102
{ACAD_REACTORS
330
AF
102
}
330
AF
100
AcDbRasterImageDef
 90
        0
  1
M:\My Documents\Google Drive\Shitty Add-Ons\i-fucking-love-fucking-you\IFLFU_1.png
 10
960.0
 20
1280.0
 11
0.3527336860670194
 21
0.3527336860670194
280
     1
281
     2
  0
LAYOUT
  5
6F
102
{ACAD_REACTORS
330
62
102
}
330
62
100
AcDbPlotSettings
  1

  2

  4

  6

 40
0.0
 41
0.0
 42
0.0
 43
0.0
 44
0.0
 45
0.0
 46
0.0
 47
0.0
 48
0.0
 49
0.0
140
0.0
141
0.0
142
1.0
143
1.0
 70
   688
 72
     0
 73
     0
 74
     5
  7

 75
    16
147
1.0
 76
     0
 77
     2
 78
   300
148
0.0
149
0.0
100
AcDbLayout
  1
Layout1
 70
     1
 71
     1
 10
0.0
 20
0.0
 11
12.0
 21
9.0
 12
0.0
 22
0.0
 32
0.0
 14
0.0
 24
0.0
 34
0.0
 15
0.0
 25
0.0
 35
0.0
146
0.0
 13
0.0
 23
0.0
 33
0.0
 16
1.0
 26
0.0
 36
0.0
 17
0.0
 27
1.0
 37
0.0
 76
     0
330
6C
  0
LAYOUT
  5
77
102
{ACAD_REACTORS
330
62
102
}
330
62
100
AcDbPlotSettings
  1

  2

  4

  6

 40
0.0
 41
0.0
 42
0.0
 43
0.0
 44
0.0
 45
0.0
 46
0.0
 47
0.0
 48
0.0
 49
0.0
140
0.0
141
0.0
142
1.0
143
1.0
 70
   688
 72
     0
 73
     0
 74
     5
  7

 75
    16
147
1.0
 76
     0
 77
     2
 78
   300
148
0.0
149
0.0
100
AcDbLayout
  1
Layout2
 70
     1
 71
     2
 10
0.0
 20
0.0
 11
12.0
 21
9.0
 12
0.0
 22
0.0
 32
0.0
 14
0.0
 24
0.0
 34
0.0
 15
0.0
 25
0.0
 35
0.0
146
0.0
 13
0.0
 23
0.0
 33
0.0
 16
1.0
 26
0.0
 36
0.0
 17
0.0
 27
1.0
 37
0.0
 76
     0
330
74
  0
LAYOUT
  5
73
102
{ACAD_REACTORS
330
62
102
}
330
62
100
AcDbPlotSettings
  1

  2

  4

  6

 40
0.0
 41
0.0
 42
0.0
 43
0.0
 44
0.0
 45
0.0
 46
0.0
 47
0.0
 48
0.0
 49
0.0
140
0.0
141
0.0
142
1.0
143
1.0
 70
  1712
 72
     0
 73
     0
 74
     0
  7

 75
     0
147
1.0
 76
     0
 77
     2
 78
   300
148
0.0
149
0.0
100
AcDbLayout
  1
Model
 70
     1
 71
     0
 10
0.0
 20
0.0
 11
12.0
 21
9.0
 12
0.0
 22
0.0
 32
0.0
 14
0.0
 24
0.0
 34
0.0
 15
0.0
 25
0.0
 35
0.0
146
0.0
 13
0.0
 23
0.0
 33
0.0
 16
1.0
 26
0.0
 36
0.0
 17
0.0
 27
1.0
 37
0.0
 76
     0
330
70
  0
MATERIAL
  5
19
102
{ACAD_XDICTIONARY
360
1A
102
}
102
{ACAD_REACTORS
330
10
102
}
330
10
100
AcDbMaterial
  1
ByBlock
 72
     0
 43
0.0208333333333333
 43
0.0
 43
0.0
 43
0.0
 43
0.0
 43
0.0208333333333333
 43
0.0
 43
0.0
 43
0.0
 43
0.0
 43
1.0
 43
0.0
 43
0.0
 43
0.0
 43
0.0
 43
1.0
 77
     0
 47
0.0208333333333333
 47
0.0
 47
0.0
 47
0.0
 47
0.0
 47
0.0208333333333333
 47
0.0
 47
0.0
 47
0.0
 47
0.0
 47
1.0
 47
0.0
 47
0.0
 47
0.0
 47
0.0
 47
1.0
171
     0
 49
0.0208333333333333
 49
0.0
 49
0.0
 49
0.0
 49
0.0
 49
0.0208333333333333
 49
0.0
 49
0.0
 49
0.0
 49
0.0
 49
1.0
 49
0.0
 49
0.0
 49
0.0
 49
0.0
 49
1.0
175
     0
142
0.0208333333333333
142
0.0
142
0.0
142
0.0
142
0.0
142
0.0208333333333333
142
0.0
142
0.0
142
0.0
142
0.0
142
1.0
142
0.0
142
0.0
142
0.0
142
0.0
142
1.0
179
     0
144
0.0208333333333333
144
0.0
144
0.0
144
0.0
144
0.0
144
0.0208333333333333
144
0.0
144
0.0
144
0.0
144
0.0
144
1.0
144
0.0
144
0.0
144
0.0
144
0.0
144
1.0
147
0.0208333333333333
147
0.0
147
0.0
147
0.0
147
0.0
147
0.0208333333333333
147
0.0
147
0.0
147
0.0
147
0.0
147
1.0
147
0.0
147
0.0
147
0.0
147
0.0
147
1.0
  0
MATERIAL
  5
11
102
{ACAD_XDICTIONARY
360
12
102
}
102
{ACAD_REACTORS
330
10
102
}
330
10
100
AcDbMaterial
  1
ByLayer
 72
     0
 43
0.0208333333333333
 43
0.0
 43
0.0
 43
0.0
 43
0.0
 43
0.0208333333333333
 43
0.0
 43
0.0
 43
0.0
 43
0.0
 43
1.0
 43
0.0
 43
0.0
 43
0.0
 43
0.0
 43
1.0
 77
     0
 47
0.0208333333333333
 47
0.0
 47
0.0
 47
0.0
 47
0.0
 47
0.0208333333333333
 47
0.0
 47
0.0
 47
0.0
 47
0.0
 47
1.0
 47
0.0
 47
0.0
 47
0.0
 47
0.0
 47
1.0
171
     0
 49
0.0208333333333333
 49
0.0
 49
0.0
 49
0.0
 49
0.0
 49
0.0208333333333333
 49
0.0
 49
0.0
 49
0.0
 49
0.0
 49
1.0
 49
0.0
 49
0.0
 49
0.0
 49
0.0
 49
1.0
175
     0
142
0.0208333333333333
142
0.0
142
0.0
142
0.0
142
0.0
142
0.0208333333333333
142
0.0
142
0.0
142
0.0
142
0.0
142
1.0
142
0.0
142
0.0
142
0.0
142
0.0
142
1.0
179
     0
144
0.0208333333333333
144
0.0
144
0.0
144
0.0
144
0.0
144
0.0208333333333333
144
0.0
144
0.0
144
0.0
144
0.0
144
1.0
144
0.0
144
0.0
144
0.0
144
0.0
144
1.0
147
0.0208333333333333
147
0.0
147
0.0
147
0.0
147
0.0
147
0.0208333333333333
147
0.0
147
0.0
147
0.0
147
0.0
147
1.0
147
0.0
147
0.0
147
0.0
147
0.0
147
1.0
  0
MATERIAL
  5
21
102
{ACAD_XDICTIONARY
360
22
102
}
102
{ACAD_REACTORS
330
10
102
}
330
10
100
AcDbMaterial
  1
Global
 72
     0
 43
0.0208333333333333
 43
0.0
 43
0.0
 43
0.0
 43
0.0
 43
0.0208333333333333
 43
0.0
 43
0.0
 43
0.0
 43
0.0
 43
1.0
 43
0.0
 43
0.0
 43
0.0
 43
0.0
 43
1.0
 77
     0
 47
0.0208333333333333
 47
0.0
 47
0.0
 47
0.0
 47
0.0
 47
0.0208333333333333
 47
0.0
 47
0.0
 47
0.0
 47
0.0
 47
1.0
 47
0.0
 47
0.0
 47
0.0
 47
0.0
 47
1.0
171
     0
 49
0.0208333333333333
 49
0.0
 49
0.0
 49
0.0
 49
0.0
 49
0.0208333333333333
 49
0.0
 49
0.0
 49
0.0
 49
0.0
 49
1.0
 49
0.0
 49
0.0
 49
0.0
 49
0.0
 49
1.0
175
     0
142
0.0208333333333333
142
0.0
142
0.0
142
0.0
142
0.0
142
0.0208333333333333
142
0.0
142
0.0
142
0.0
142
0.0
142
1.0
142
0.0
142
0.0
142
0.0
142
0.0
142
1.0
179
     0
144
0.0208333333333333
144
0.0
144
0.0
144
0.0
144
0.0
144
0.0208333333333333
144
0.0
144
0.0
144
0.0
144
0.0
144
1.0
144
0.0
144
0.0
144
0.0
144
0.0
144
1.0
147
0.0208333333333333
147
0.0
147
0.0
147
0.0
147
0.0
147
0.0208333333333333
147
0.0
147
0.0
147
0.0
147
0.0
147
1.0
147
0.0
147
0.0
147
0.0
147
0.0
147
1.0
  0
MLEADERSTYLE
  5
67
102
{ACAD_REACTORS
330
66
102
}
330
66
100
AcDbMLeaderStyle
179
     2
170
     2
171
     1
172
     0
 90
        2
 40
0.0
 41
0.0
173
     1
 91
-1056964608
340
5B
 92
       -2
290
     1
 42
0.09
291
     1
 43
0.36
  3
Standard
 44
0.18
300

342
55
174
     1
178
     6
175
     1
176
     0
 93
-1056964608
 45
0.18
292
     0
297
     0
 46
0.18
 94
-1056964608
 47
1.0
 49
1.0
140
1.0
293
     1
141
0.0
294
     1
177
     0
142
1.0
295
     1
296
     0
143
0.125
271
     0
272
     9
273
     9
298
     1
  0
MLINESTYLE
  5
60
102
{ACAD_REACTORS
330
5F
102
}
330
5F
100
AcDbMlineStyle
  2
STANDARD
 70
     0
  3

 62
   256
 51
90.0
 52
90.0
 71
     2
 49
0.5
 62
   256
  6
BYLAYER
 49
-0.5
 62
   256
  6
BYLAYER
  0
ACDBPLACEHOLDER
  5
F
102
{ACAD_REACTORS
330
E
102
}
330
E
  0
SCALE
  5
43
102
{ACAD_REACTORS
330
42
102
}
330
42
100
AcDbScale
 70
     0
300
1:1
140
1.0
141
1.0
290
     1
  0
SCALE
  5
44
102
{ACAD_REACTORS
330
42
102
}
330
42
100
AcDbScale
 70
     0
300
1/128" = 1'-0"
140
0.0078125
141
12.0
290
     0
  0
SCALE
  5
45
102
{ACAD_REACTORS
330
42
102
}
330
42
100
AcDbScale
 70
     0
300
1/64" = 1'-0"
140
0.015625
141
12.0
290
     0
  0
SCALE
  5
46
102
{ACAD_REACTORS
330
42
102
}
330
42
100
AcDbScale
 70
     0
300
1/32" = 1'-0"
140
0.03125
141
12.0
290
     0
  0
SCALE
  5
47
102
{ACAD_REACTORS
330
42
102
}
330
42
100
AcDbScale
 70
     0
300
1/16" = 1'-0"
140
0.0625
141
12.0
290
     0
  0
SCALE
  5
48
102
{ACAD_REACTORS
330
42
102
}
330
42
100
AcDbScale
 70
     0
300
3/32" = 1'-0"
140
0.09375
141
12.0
290
     0
  0
SCALE
  5
49
102
{ACAD_REACTORS
330
42
102
}
330
42
100
AcDbScale
 70
     0
300
1/8" = 1'-0"
140
0.125
141
12.0
290
     0
  0
SCALE
  5
4A
102
{ACAD_REACTORS
330
42
102
}
330
42
100
AcDbScale
 70
     0
300
3/16" = 1'-0"
140
0.1875
141
12.0
290
     0
  0
SCALE
  5
4B
102
{ACAD_REACTORS
330
42
102
}
330
42
100
AcDbScale
 70
     0
300
1/4" = 1'-0"
140
0.25
141
12.0
290
     0
  0
SCALE
  5
4C
102
{ACAD_REACTORS
330
42
102
}
330
42
100
AcDbScale
 70
     0
300
3/8" = 1'-0"
140
0.375
141
12.0
290
     0
  0
SCALE
  5
4D
102
{ACAD_REACTORS
330
42
102
}
330
42
100
AcDbScale
 70
     0
300
1/2" = 1'-0"
140
0.5
141
12.0
290
     0
  0
SCALE
  5
4E
102
{ACAD_REACTORS
330
42
102
}
330
42
100
AcDbScale
 70
     0
300
3/4" = 1'-0"
140
0.75
141
12.0
290
     0
  0
SCALE
  5
4F
102
{ACAD_REACTORS
330
42
102
}
330
42
100
AcDbScale
 70
     0
300
1" = 1'-0"
140
1.0
141
12.0
290
     0
  0
SCALE
  5
50
102
{ACAD_REACTORS
330
42
102
}
330
42
100
AcDbScale
 70
     0
300
1-1/2" = 1'-0"
140
1.5
141
12.0
290
     0
  0
SCALE
  5
51
102
{ACAD_REACTORS
330
42
102
}
330
42
100
AcDbScale
 70
     0
300
3" = 1'-0"
140
3.0
141
12.0
290
     0
  0
SCALE
  5
52
102
{ACAD_REACTORS
330
42
102
}
330
42
100
AcDbScale
 70
     0
300
6" = 1'-0"
140
6.0
141
12.0
290
     0
  0
SCALE
  5
53
102
{ACAD_REACTORS
330
42
102
}
330
42
100
AcDbScale
 70
     0
300
1'-0" = 1'-0"
140
12.0
141
12.0
290
     0
  0
ACDBSECTIONVIEWSTYLE
  5
69
102
{ACAD_REACTORS
330
68
102
}
330
68
100
AcDbModelDocViewStyle
 70
     0
  3
Imperial24
290
     1
300
Imperial24
 90
        0
100
AcDbSectionViewStyle
 70
     0
 71
     0
 90
       78
 71
     1
340
55
 62
   256
 40
0.24
340
0
340
0
 62
   256
 40
0.24
300
I, O, Q, S, X, Z
 40
0.48
 90
        3
 40
0.18
 90
        1
 71
     2
340
5D
 90
       25
 62
   256
340
5D
 90
       50
 62
   256
 40
0.24
 40
0.0
 40
0.24
 71
     3
340
55
 62
   256
 40
0.24
 90
        1
 40
0.75
 90
        1
300
%<\AcVar ViewType \f "%tc1">% %<\AcVar ViewSectionStartId>%-%<\AcVar ViewSectionEndId>%\PSCALE %<\AcVar ViewScale \f "%sn">%
 71
     4
 62
   256
 62
   257
300
ANSI31
 40
1.0
 90
        0
290
     0
290
     0
 90
        6
 40
0.0
 40
1.570796326794896
 40
0.2617993877991494
 40
1.308996938995747
 40
-0.2617993877991494
 40
1.832595714594046
  0
TABLESTYLE
  5
65
102
{ACAD_XDICTIONARY
360
B8
102
}
102
{ACAD_REACTORS
330
64
102
}
330
64
100
AcDbTableStyle
280
     0
  3
Standard
 70
     0
 71
     0
 40
0.06
 41
0.06
280
     0
281
     0
  7
Standard
140
0.18
170
     2
 62
     0
 63
     7
283
     0
 90
      512
 91
        0
  1

274
    -2
284
     1
 64
     0
275
    -2
285
     1
 65
     0
276
    -2
286
     1
 66
     0
277
    -2
287
     1
 67
     0
278
    -2
288
     1
 68
     0
279
    -2
289
     1
 69
     0
  7
Standard
140
0.25
170
     5
 62
     0
 63
     7
283
     0
 90
      512
 91
        0
  1

274
    -2
284
     1
 64
     0
275
    -2
285
     1
 65
     0
276
    -2
286
     1
 66
     0
277
    -2
287
     1
 67
     0
278
    -2
288
     1
 68
     0
279
    -2
289
     1
 69
     0
  7
Standard
140
0.18
170
     5
 62
     0
 63
     7
283
     0
 90
      512
 91
        0
  1

274
    -2
284
     1
 64
     0
275
    -2
285
     1
 65
     0
276
    -2
286
     1
 66
     0
277
    -2
287
     1
 67
     0
278
    -2
288
     1
 68
     0
279
    -2
289
     1
 69
     0
  0
VISUALSTYLE
  5
2F
102
{ACAD_REACTORS
330
29
102
}
330
29
100
AcDbVisualStyle
  2
2dWireframe
 70
     4
177
     3
291
     0
 70
    58
 90
        0
176
     1
 90
        2
176
     1
 90
        0
176
     1
 90
        0
176
     1
 40
0.6
176
     1
 40
30.0
176
     1
 62
     7
420
 16777215
176
     1
 90
        1
176
     1
 90
        4
176
     1
 62
     7
176
     1
 62
   257
176
     1
 90
        1
176
     1
 90
        1
176
     1
 40
1.0
176
     1
 90
        0
176
     1
 62
   257
176
     1
 40
1.0
176
     1
 90
        1
176
     1
 90
        6
176
     1
 90
        2
176
     1
 62
     7
176
     1
 90
        5
176
     1
 90
        0
176
     1
 90
        0
176
     1
290
     0
176
     1
 90
        1
176
     1
 40
0.0
176
     1
 90
        0
176
     1
290
     1
176
     1
290
     1
176
     1
290
     0
176
     1
290
     0
176
     1
290
     0
176
     1
290
     0
176
     1
290
     0
176
     1
290
     0
176
     1
290
     0
176
     1
 90
       50
176
     1
 40
0.0
176
     1
 40
1.0
176
     1
 90
        0
176
     1
 62
    18
420
        0
176
     1
 90
       50
176
     1
 90
        3
176
     1
 62
     5
420
      255
176
     1
290
     0
176
     1
 90
       50
176
     1
 90
       50
176
     1
 90
       50
176
     1
290
     0
176
     1
 90
       50
176
     1
 62
   256
176
     0
 40
1.0
176
     0
 90
        2
176
     1
  1
strokes_ogs.tif
176
     1
290
     0
176
     1
 40
1.0
176
     1
 40
1.0
176
     1
  0
VISUALSTYLE
  5
2E
102
{ACAD_REACTORS
330
29
102
}
330
29
100
AcDbVisualStyle
  2
Basic
 70
     7
177
     3
291
     1
 70
    58
 90
        1
176
     1
 90
        0
176
     1
 90
        1
176
     1
 90
        0
176
     1
 40
0.6
176
     1
 40
30.0
176
     1
 62
     7
420
 16777215
176
     1
 90
        0
176
     1
 90
        4
176
     1
 62
     7
176
     1
 62
   257
176
     1
 90
        1
176
     1
 90
        1
176
     1
 40
1.0
176
     1
 90
        8
176
     1
 62
     7
176
     1
 40
1.0
176
     1
 90
        1
176
     1
 90
        6
176
     1
 90
        2
176
     1
 62
     7
176
     1
 90
        5
176
     1
 90
        0
176
     1
 90
        0
176
     1
290
     0
176
     1
 90
        1
176
     1
 40
0.0
176
     1
 90
        0
176
     1
290
     0
176
     1
290
     1
176
     1
290
     1
176
     1
290
     0
176
     1
290
     0
176
     1
290
     0
176
     1
290
     0
176
     1
290
     0
176
     1
290
     0
176
     1
 90
       50
176
     1
 40
0.0
176
     1
 40
1.0
176
     1
 90
        0
176
     1
 62
    18
420
        0
176
     1
 90
       50
176
     1
 90
        3
176
     1
 62
     5
420
      255
176
     1
290
     0
176
     1
 90
       50
176
     1
 90
       50
176
     1
 90
       50
176
     1
290
     0
176
     1
 90
       50
176
     1
 62
   256
176
     0
 40
1.0
176
     0
 90
        2
176
     1
  1
strokes_ogs.tif
176
     1
290
     0
176
     1
 40
1.0
176
     1
 40
1.0
176
     1
  0
VISUALSTYLE
  5
35
102
{ACAD_REACTORS
330
29
102
}
330
29
100
AcDbVisualStyle
  2
Brighten
 70
    12
177
     3
291
     1
 70
    58
 90
        2
176
     1
 90
        2
176
     1
 90
        0
176
     1
 90
        0
176
     1
 40
0.6
176
     1
 40
30.0
176
     1
 62
     7
420
 16777215
176
     1
 90
        1
176
     1
 90
        4
176
     1
 62
     7
176
     1
 62
   257
176
     1
 90
        1
176
     1
 90
        1
176
     1
 40
1.0
176
     1
 90
        8
176
     1
 62
     7
176
     1
 40
1.0
176
     1
 90
        1
176
     1
 90
        6
176
     1
 90
        2
176
     1
 62
     7
176
     1
 90
        5
176
     1
 90
        0
176
     1
 90
        0
176
     1
290
     0
176
     1
 90
        1
176
     1
 40
50.0
176
     1
 90
        0
176
     1
290
     0
176
     1
290
     1
176
     1
290
     1
176
     1
290
     0
176
     1
290
     0
176
     1
290
     0
176
     1
290
     0
176
     1
290
     0
176
     1
290
     0
176
     1
 90
       50
176
     1
 40
0.0
176
     1
 40
1.0
176
     1
 90
        0
176
     1
 62
    18
420
        0
176
     1
 90
       50
176
     1
 90
        3
176
     1
 62
     5
420
      255
176
     1
290
     0
176
     1
 90
       50
176
     1
 90
       50
176
     1
 90
       50
176
     1
290
     0
176
     1
 90
       50
176
     1
 62
   256
176
     0
 40
1.0
176
     0
 90
        2
176
     1
  1
strokes_ogs.tif
176
     1
290
     0
176
     1
 40
1.0
176
     1
 40
1.0
176
     1
  0
VISUALSTYLE
  5
39
102
{ACAD_REACTORS
330
29
102
}
330
29
100
AcDbVisualStyle
  2
ColorChange
 70
    16
177
     3
291
     1
 70
    58
 90
        2
176
     1
 90
        2
176
     1
 90
        3
176
     1
 90
        0
176
     1
 40
0.6
176
     1
 40
30.0
176
     1
 62
     8
420
  8421504
176
     1
 90
        1
176
     1
 90
        4
176
     1
 62
     7
176
     1
 62
   257
176
     1
 90
        1
176
     1
 90
        1
176
     1
 40
1.0
176
     1
 90
        8
176
     1
 62
     8
420
  8421504
176
     1
 40
1.0
176
     1
 90
        1
176
     1
 90
        6
176
     1
 90
        2
176
     1
 62
     7
176
     1
 90
        5
176
     1
 90
        0
176
     1
 90
        0
176
     1
290
     0
176
     1
 90
        1
176
     1
 40
0.0
176
     1
 90
        0
176
     1
290
     0
176
     1
290
     1
176
     1
290
     1
176
     1
290
     0
176
     1
290
     0
176
     1
290
     0
176
     1
290
     0
176
     1
290
     0
176
     1
290
     0
176
     1
 90
       50
176
     1
 40
0.0
176
     1
 40
1.0
176
     1
 90
        0
176
     1
 62
    18
420
        0
176
     1
 90
       50
176
     1
 90
        3
176
     1
 62
     5
420
      255
176
     1
290
     0
176
     1
 90
       50
176
     1
 90
       50
176
     1
 90
       50
176
     1
290
     0
176
     1
 90
       50
176
     1
 62
   256
176
     0
 40
1.0
176
     0
 90
        2
176
     1
  1
strokes_ogs.tif
176
     1
290
     0
176
     1
 40
1.0
176
     1
 40
1.0
176
     1
  0
VISUALSTYLE
  5
32
102
{ACAD_REACTORS
330
29
102
}
330
29
100
AcDbVisualStyle
  2
Conceptual
 70
     9
177
     3
291
     0
 70
    58
 90
        3
176
     1
 90
        2
176
     1
 90
        0
176
     1
 90
        0
176
     1
 40
0.6
176
     1
 40
30.0
176
     1
 62
     7
420
 16777215
176
     1
 90
        2
176
     1
 90
        2
176
     1
 62
     7
176
     1
 62
   257
176
     1
 90
        1
176
     1
 90
        1
176
     1
 40
179.0
176
     1
 90
        8
176
     1
 62
     7
176
     1
 40
1.0
176
     1
 90
        1
176
     1
 90
        6
176
     1
 90
        2
176
     1
 62
     7
176
     1
 90
        3
176
     1
 90
        0
176
     1
 90
        0
176
     1
290
     0
176
     1
 90
        1
176
     1
 40
0.0
176
     1
 90
        0
176
     1
290
     0
176
     1
290
     1
176
     1
290
     1
176
     1
290
     0
176
     1
290
     0
176
     1
290
     0
176
     1
290
     0
176
     1
290
     0
176
     1
290
     0
176
     1
 90
       50
176
     1
 40
0.0
176
     1
 40
1.0
176
     1
 90
        0
176
     1
 62
    18
420
        0
176
     1
 90
       50
176
     1
 90
        3
176
     1
 62
     5
420
      255
176
     1
290
     0
176
     1
 90
       50
176
     1
 90
       50
176
     1
 90
       50
176
     1
290
     0
176
     1
 90
       50
176
     1
 62
   256
176
     0
 40
1.0
176
     0
 90
        2
176
     1
  1
strokes_ogs.tif
176
     1
290
     0
176
     1
 40
1.0
176
     1
 40
1.0
176
     1
  0
VISUALSTYLE
  5
34
102
{ACAD_REACTORS
330
29
102
}
330
29
100
AcDbVisualStyle
  2
Dim
 70
    11
177
     3
291
     1
 70
    58
 90
        2
176
     1
 90
        2
176
     1
 90
        0
176
     1
 90
        0
176
     1
 40
0.6
176
     1
 40
30.0
176
     1
 62
     7
420
 16777215
176
     1
 90
        1
176
     1
 90
        4
176
     1
 62
     7
176
     1
 62
   257
176
     1
 90
        1
176
     1
 90
        1
176
     1
 40
1.0
176
     1
 90
        8
176
     1
 62
     7
176
     1
 40
1.0
176
     1
 90
        1
176
     1
 90
        6
176
     1
 90
        2
176
     1
 62
     7
176
     1
 90
        5
176
     1
 90
        0
176
     1
 90
        0
176
     1
290
     0
176
     1
 90
        1
176
     1
 40
-50.0
176
     1
 90
        0
176
     1
290
     0
176
     1
290
     1
176
     1
290
     1
176
     1
290
     0
176
     1
290
     0
176
     1
290
     0
176
     1
290
     0
176
     1
290
     0
176
     1
290
     0
176
     1
 90
       50
176
     1
 40
0.0
176
     1
 40
1.0
176
     1
 90
        0
176
     1
 62
    18
420
        0
176
     1
 90
       50
176
     1
 90
        3
176
     1
 62
     5
420
      255
176
     1
290
     0
176
     1
 90
       50
176
     1
 90
       50
176
     1
 90
       50
176
     1
290
     0
176
     1
 90
       50
176
     1
 62
   256
176
     0
 40
1.0
176
     0
 90
        2
176
     1
  1
strokes_ogs.tif
176
     1
290
     0
176
     1
 40
1.0
176
     1
 40
1.0
176
     1
  0
VISUALSTYLE
  5
41
102
{ACAD_REACTORS
330
29
102
}
330
29
100
AcDbVisualStyle
  2
EdgeColorOff
 70
    22
177
     3
291
     1
 70
    58
 90
        2
176
     0
 90
        2
176
     0
 90
        0
176
     0
 90
        0
176
     0
 40
0.6
176
     0
 40
30.0
176
     0
 62
     7
420
 16777215
176
     0
 90
        1
176
     0
 90
        4
176
     0
 62
     7
176
     0
 62
   257
176
     0
 90
        1
176
     0
 90
        1
176
     0
 40
1.0
176
     0
 90
        8
176
     2
 62
     7
176
     0
 40
1.0
176
     0
 90
        1
176
     0
 90
        6
176
     0
 90
        2
176
     0
 62
     7
176
     0
 90
        5
176
     0
 90
        0
176
     0
 90
        0
176
     0
290
     0
176
     0
 90
        1
176
     0
 40
0.0
176
     0
 90
        0
176
     0
290
     0
176
     0
290
     1
176
     0
290
     1
176
     0
290
     0
176
     0
290
     0
176
     0
290
     0
176
     0
290
     0
176
     0
290
     0
176
     0
290
     0
176
     0
 90
       50
176
     0
 40
0.0
176
     0
 40
1.0
176
     0
 90
        0
176
     0
 62
    18
420
        0
176
     0
 90
       50
176
     0
 90
        3
176
     0
 62
     5
420
      255
176
     0
290
     0
176
     0
 90
       50
176
     0
 90
       50
176
     0
 90
       50
176
     0
290
     0
176
     0
 90
       50
176
     0
 62
   256
176
     0
 40
1.0
176
     0
 90
        2
176
     0
  1
strokes_ogs.tif
176
     0
290
     0
176
     0
 40
1.0
176
     0
 40
1.0
176
     0
  0
VISUALSTYLE
  5
38
102
{ACAD_REACTORS
330
29
102
}
330
29
100
AcDbVisualStyle
  2
Facepattern
 70
    15
177
     3
291
     1
 70
    58
 90
        2
176
     1
 90
        2
176
     1
 90
        0
176
     1
 90
        0
176
     1
 40
0.6
176
     1
 40
30.0
176
     1
 62
     7
420
 16777215
176
     1
 90
        1
176
     1
 90
        4
176
     1
 62
     7
176
     1
 62
   257
176
     1
 90
        1
176
     1
 90
        1
176
     1
 40
1.0
176
     1
 90
        8
176
     1
 62
     7
176
     1
 40
1.0
176
     1
 90
        1
176
     1
 90
        6
176
     1
 90
        2
176
     1
 62
     7
176
     1
 90
        5
176
     1
 90
        0
176
     1
 90
        0
176
     1
290
     0
176
     1
 90
        1
176
     1
 40
0.0
176
     1
 90
        0
176
     1
290
     0
176
     1
290
     1
176
     1
290
     1
176
     1
290
     0
176
     1
290
     0
176
     1
290
     0
176
     1
290
     0
176
     1
290
     0
176
     1
290
     0
176
     1
 90
       50
176
     1
 40
0.0
176
     1
 40
1.0
176
     1
 90
        0
176
     1
 62
    18
420
        0
176
     1
 90
       50
176
     1
 90
        3
176
     1
 62
     5
420
      255
176
     1
290
     0
176
     1
 90
       50
176
     1
 90
       50
176
     1
 90
       50
176
     1
290
     0
176
     1
 90
       50
176
     1
 62
   256
176
     0
 40
1.0
176
     0
 90
        2
176
     1
  1
strokes_ogs.tif
176
     1
290
     0
176
     1
 40
1.0
176
     1
 40
1.0
176
     1
  0
VISUALSTYLE
  5
2A
102
{ACAD_REACTORS
330
29
102
}
330
29
100
AcDbVisualStyle
  2
Flat
 70
     0
177
     3
291
     1
 70
    58
 90
        2
176
     1
 90
        1
176
     1
 90
        1
176
     1
 90
        2
176
     1
 40
0.6
176
     1
 40
30.0
176
     1
 62
     7
420
 16777215
176
     1
 90
        0
176
     1
 90
        0
176
     1
 62
     7
176
     1
 62
   257
176
     1
 90
        1
176
     1
 90
        1
176
     1
 40
1.0
176
     1
 90
        8
176
     1
 62
     7
176
     1
 40
1.0
176
     1
 90
        1
176
     1
 90
        6
176
     1
 90
        2
176
     1
 62
     7
176
     1
 90
        5
176
     1
 90
        0
176
     1
 90
        0
176
     1
290
     0
176
     1
 90
       13
176
     1
 40
0.0
176
     1
 90
        0
176
     1
290
     0
176
     1
290
     1
176
     1
290
     1
176
     1
290
     0
176
     1
290
     0
176
     1
290
     0
176
     1
290
     0
176
     1
290
     0
176
     1
290
     0
176
     1
 90
       50
176
     1
 40
0.0
176
     1
 40
1.0
176
     1
 90
        0
176
     1
 62
    18
420
        0
176
     1
 90
       50
176
     1
 90
        3
176
     1
 62
     5
420
      255
176
     1
290
     0
176
     1
 90
       50
176
     1
 90
       50
176
     1
 90
       50
176
     1
290
     0
176
     1
 90
       50
176
     1
 62
   256
176
     0
 40
1.0
176
     0
 90
        2
176
     1
  1
strokes_ogs.tif
176
     1
290
     0
176
     1
 40
1.0
176
     1
 40
1.0
176
     1
  0
VISUALSTYLE
  5
2B
102
{ACAD_REACTORS
330
29
102
}
330
29
100
AcDbVisualStyle
  2
FlatWithEdges
 70
     1
177
     3
291
     1
 70
    58
 90
        2
176
     1
 90
        1
176
     1
 90
        1
176
     1
 90
        2
176
     1
 40
0.6
176
     1
 40
30.0
176
     1
 62
     7
420
 16777215
176
     1
 90
        1
176
     1
 90
        0
176
     1
 62
     7
176
     1
 62
   257
176
     1
 90
        1
176
     1
 90
        1
176
     1
 40
1.0
176
     1
 90
        0
176
     1
 62
   257
176
     1
 40
1.0
176
     1
 90
        1
176
     1
 90
        6
176
     1
 90
        2
176
     1
 62
     7
176
     1
 90
        5
176
     1
 90
        0
176
     1
 90
        0
176
     1
290
     0
176
     1
 90
       13
176
     1
 40
0.0
176
     1
 90
        0
176
     1
290
     0
176
     1
290
     1
176
     1
290
     1
176
     1
290
     0
176
     1
290
     0
176
     1
290
     0
176
     1
290
     0
176
     1
290
     0
176
     1
290
     0
176
     1
 90
       50
176
     1
 40
0.0
176
     1
 40
1.0
176
     1
 90
        0
176
     1
 62
    18
420
        0
176
     1
 90
       50
176
     1
 90
        3
176
     1
 62
     5
420
      255
176
     1
290
     0
176
     1
 90
       50
176
     1
 90
       50
176
     1
 90
       50
176
     1
290
     0
176
     1
 90
       50
176
     1
 62
   256
176
     0
 40
1.0
176
     0
 90
        2
176
     1
  1
strokes_ogs.tif
176
     1
290
     0
176
     1
 40
1.0
176
     1
 40
1.0
176
     1
  0
VISUALSTYLE
  5
2C
102
{ACAD_REACTORS
330
29
102
}
330
29
100
AcDbVisualStyle
  2
Gouraud
 70
     2
177
     3
291
     1
 70
    58
 90
        2
176
     1
 90
        2
176
     1
 90
        1
176
     1
 90
        2
176
     1
 40
0.6
176
     1
 40
30.0
176
     1
 62
     7
420
 16777215
176
     1
 90
        0
176
     1
 90
        0
176
     1
 62
     7
176
     1
 62
   257
176
     1
 90
        1
176
     1
 90
        1
176
     1
 40
1.0
176
     1
 90
        0
176
     1
 62
     7
176
     1
 40
1.0
176
     1
 90
        1
176
     1
 90
        6
176
     1
 90
        2
176
     1
 62
     7
176
     1
 90
        5
176
     1
 90
        0
176
     1
 90
        0
176
     1
290
     0
176
     1
 90
       13
176
     1
 40
0.0
176
     1
 90
        0
176
     1
290
     0
176
     1
290
     1
176
     1
290
     1
176
     1
290
     0
176
     1
290
     0
176
     1
290
     0
176
     1
290
     0
176
     1
290
     0
176
     1
290
     0
176
     1
 90
       50
176
     1
 40
0.0
176
     1
 40
1.0
176
     1
 90
        0
176
     1
 62
    18
420
        0
176
     1
 90
       50
176
     1
 90
        3
176
     1
 62
     5
420
      255
176
     1
290
     0
176
     1
 90
       50
176
     1
 90
       50
176
     1
 90
       50
176
     1
290
     0
176
     1
 90
       50
176
     1
 62
   256
176
     0
 40
1.0
176
     0
 90
        2
176
     1
  1
strokes_ogs.tif
176
     1
290
     0
176
     1
 40
1.0
176
     1
 40
1.0
176
     1
  0
VISUALSTYLE
  5
2D
102
{ACAD_REACTORS
330
29
102
}
330
29
100
AcDbVisualStyle
  2
GouraudWithEdges
 70
     3
177
     3
291
     1
 70
    58
 90
        2
176
     1
 90
        2
176
     1
 90
        1
176
     1
 90
        2
176
     1
 40
0.6
176
     1
 40
30.0
176
     1
 62
     7
420
 16777215
176
     1
 90
        1
176
     1
 90
        0
176
     1
 62
     7
176
     1
 62
   257
176
     1
 90
        1
176
     1
 90
        1
176
     1
 40
1.0
176
     1
 90
        0
176
     1
 62
   257
176
     1
 40
1.0
176
     1
 90
        1
176
     1
 90
        6
176
     1
 90
        2
176
     1
 62
     7
176
     1
 90
        5
176
     1
 90
        0
176
     1
 90
        0
176
     1
290
     0
176
     1
 90
       13
176
     1
 40
0.0
176
     1
 90
        0
176
     1
290
     0
176
     1
290
     1
176
     1
290
     1
176
     1
290
     0
176
     1
290
     0
176
     1
290
     0
176
     1
290
     0
176
     1
290
     0
176
     1
290
     0
176
     1
 90
       50
176
     1
 40
0.0
176
     1
 40
1.0
176
     1
 90
        0
176
     1
 62
    18
420
        0
176
     1
 90
       50
176
     1
 90
        3
176
     1
 62
     5
420
      255
176
     1
290
     0
176
     1
 90
       50
176
     1
 90
       50
176
     1
 90
       50
176
     1
290
     0
176
     1
 90
       50
176
     1
 62
   256
176
     0
 40
1.0
176
     0
 90
        2
176
     1
  1
strokes_ogs.tif
176
     1
290
     0
176
     1
 40
1.0
176
     1
 40
1.0
176
     1
  0
VISUALSTYLE
  5
31
102
{ACAD_REACTORS
330
29
102
}
330
29
100
AcDbVisualStyle
  2
Hidden
 70
     6
177
     3
291
     0
 70
    58
 90
        1
176
     1
 90
        2
176
     1
 90
        2
176
     1
 90
        0
176
     1
 40
0.6
176
     1
 40
30.0
176
     1
 62
     7
420
 16777215
176
     1
 90
        2
176
     1
 90
        2
176
     1
 62
     7
176
     1
 62
   257
176
     1
 90
        2
176
     1
 90
        1
176
     1
 40
40.0
176
     1
 90
        0
176
     1
 62
   257
176
     1
 40
1.0
176
     1
 90
        1
176
     1
 90
        6
176
     1
 90
        2
176
     1
 62
     7
176
     1
 90
        3
176
     1
 90
        0
176
     1
 90
        0
176
     1
290
     0
176
     1
 90
        1
176
     1
 40
0.0
176
     1
 90
        0
176
     1
290
     0
176
     1
290
     1
176
     1
290
     1
176
     1
290
     0
176
     1
290
     0
176
     1
290
     0
176
     1
290
     0
176
     1
290
     0
176
     1
290
     0
176
     1
 90
       50
176
     1
 40
0.0
176
     1
 40
1.0
176
     1
 90
        0
176
     1
 62
    18
420
        0
176
     1
 90
       50
176
     1
 90
        3
176
     1
 62
     5
420
      255
176
     1
290
     0
176
     1
 90
       50
176
     1
 90
       50
176
     1
 90
       50
176
     1
290
     0
176
     1
 90
       50
176
     1
 62
   256
176
     0
 40
1.0
176
     0
 90
        2
176
     1
  1
strokes_ogs.tif
176
     1
290
     0
176
     1
 40
1.0
176
     1
 40
1.0
176
     1
  0
VISUALSTYLE
  5
3F
102
{ACAD_REACTORS
330
29
102
}
330
29
100
AcDbVisualStyle
  2
JitterOff
 70
    20
177
     3
291
     1
 70
    58
 90
        2
176
     0
 90
        2
176
     0
 90
        0
176
     0
 90
        0
176
     0
 40
0.6
176
     0
 40
30.0
176
     0
 62
     7
420
 16777215
176
     0
 90
        1
176
     0
 90
        4
176
     0
 62
     7
176
     0
 62
   257
176
     0
 90
        1
176
     0
 90
        1
176
     0
 40
1.0
176
     0
 90
       10
176
     2
 62
     7
176
     0
 40
1.0
176
     0
 90
        1
176
     0
 90
        6
176
     0
 90
        2
176
     0
 62
     7
176
     0
 90
        5
176
     0
 90
        0
176
     0
 90
        0
176
     0
290
     0
176
     0
 90
        1
176
     0
 40
0.0
176
     0
 90
        0
176
     0
290
     0
176
     0
290
     1
176
     0
290
     1
176
     0
290
     0
176
     0
290
     0
176
     0
290
     0
176
     0
290
     0
176
     0
290
     0
176
     0
290
     0
176
     0
 90
       50
176
     0
 40
0.0
176
     0
 40
1.0
176
     0
 90
        0
176
     0
 62
    18
420
        0
176
     0
 90
       50
176
     0
 90
        3
176
     0
 62
     5
420
      255
176
     0
290
     0
176
     0
 90
       50
176
     0
 90
       50
176
     0
 90
       50
176
     0
290
     0
176
     0
 90
       50
176
     0
 62
   256
176
     0
 40
1.0
176
     0
 90
        2
176
     0
  1
strokes_ogs.tif
176
     0
290
     0
176
     0
 40
1.0
176
     0
 40
1.0
176
     0
  0
VISUALSTYLE
  5
37
102
{ACAD_REACTORS
330
29
102
}
330
29
100
AcDbVisualStyle
  2
Linepattern
 70
    14
177
     3
291
     1
 70
    58
 90
        2
176
     1
 90
        2
176
     1
 90
        0
176
     1
 90
        0
176
     1
 40
0.6
176
     1
 40
30.0
176
     1
 62
     7
420
 16777215
176
     1
 90
        1
176
     1
 90
        4
176
     1
 62
     7
176
     1
 62
   257
176
     1
 90
        7
176
     1
 90
        7
176
     1
 40
1.0
176
     1
 90
        8
176
     1
 62
     7
176
     1
 40
1.0
176
     1
 90
        1
176
     1
 90
        6
176
     1
 90
        2
176
     1
 62
     7
176
     1
 90
        5
176
     1
 90
        0
176
     1
 90
        0
176
     1
290
     0
176
     1
 90
        1
176
     1
 40
0.0
176
     1
 90
        0
176
     1
290
     0
176
     1
290
     1
176
     1
290
     1
176
     1
290
     0
176
     1
290
     0
176
     1
290
     0
176
     1
290
     0
176
     1
290
     0
176
     1
290
     0
176
     1
 90
       50
176
     1
 40
0.0
176
     1
 40
1.0
176
     1
 90
        0
176
     1
 62
    18
420
        0
176
     1
 90
       50
176
     1
 90
        3
176
     1
 62
     5
420
      255
176
     1
290
     0
176
     1
 90
       50
176
     1
 90
       50
176
     1
 90
       50
176
     1
290
     0
176
     1
 90
       50
176
     1
 62
   256
176
     0
 40
1.0
176
     0
 90
        2
176
     1
  1
strokes_ogs.tif
176
     1
290
     0
176
     1
 40
1.0
176
     1
 40
1.0
176
     1
  0
VISUALSTYLE
  5
40
102
{ACAD_REACTORS
330
29
102
}
330
29
100
AcDbVisualStyle
  2
OverhangOff
 70
    21
177
     3
291
     1
 70
    58
 90
        2
176
     0
 90
        2
176
     0
 90
        0
176
     0
 90
        0
176
     0
 40
0.6
176
     0
 40
30.0
176
     0
 62
     7
420
 16777215
176
     0
 90
        1
176
     0
 90
        4
176
     0
 62
     7
176
     0
 62
   257
176
     0
 90
        1
176
     0
 90
        1
176
     0
 40
1.0
176
     0
 90
        9
176
     2
 62
     7
176
     0
 40
1.0
176
     0
 90
        1
176
     0
 90
        6
176
     0
 90
        2
176
     0
 62
     7
176
     0
 90
        5
176
     0
 90
        0
176
     0
 90
        0
176
     0
290
     0
176
     0
 90
        1
176
     0
 40
0.0
176
     0
 90
        0
176
     0
290
     0
176
     0
290
     1
176
     0
290
     1
176
     0
290
     0
176
     0
290
     0
176
     0
290
     0
176
     0
290
     0
176
     0
290
     0
176
     0
290
     0
176
     0
 90
       50
176
     0
 40
0.0
176
     0
 40
1.0
176
     0
 90
        0
176
     0
 62
    18
420
        0
176
     0
 90
       50
176
     0
 90
        3
176
     0
 62
     5
420
      255
176
     0
290
     0
176
     0
 90
       50
176
     0
 90
       50
176
     0
 90
       50
176
     0
290
     0
176
     0
 90
       50
176
     0
 62
   256
176
     0
 40
1.0
176
     0
 90
        2
176
     0
  1
strokes_ogs.tif
176
     0
290
     0
176
     0
 40
1.0
176
     0
 40
1.0
176
     0
  0
VISUALSTYLE
  5
33
102
{ACAD_REACTORS
330
29
102
}
330
29
100
AcDbVisualStyle
  2
Realistic
 70
     8
177
     3
291
     0
 70
    58
 90
        2
176
     1
 90
        3
176
     1
 90
        0
176
     1
 90
        2
176
     1
 40
0.6
176
     1
 40
30.0
176
     1
 62
     7
420
 16777215
176
     1
 90
        0
176
     1
 90
        0
176
     1
 62
     7
176
     1
 62
   257
176
     1
 90
        1
176
     1
 90
        1
176
     1
 40
1.0
176
     1
 90
        8
176
     1
 62
   257
176
     1
 40
1.0
176
     1
 90
        1
176
     1
 90
        6
176
     1
 90
        2
176
     1
 62
     7
176
     1
 90
        3
176
     1
 90
        0
176
     1
 90
        0
176
     1
290
     0
176
     1
 90
       13
176
     1
 40
0.0
176
     1
 90
        0
176
     1
290
     0
176
     1
290
     1
176
     1
290
     1
176
     1
290
     0
176
     1
290
     0
176
     1
290
     0
176
     1
290
     0
176
     1
290
     0
176
     1
290
     0
176
     1
 90
       50
176
     1
 40
0.0
176
     1
 40
1.0
176
     1
 90
        0
176
     1
 62
    18
420
        0
176
     1
 90
       50
176
     1
 90
        3
176
     1
 62
     5
420
      255
176
     1
290
     0
176
     1
 90
       50
176
     1
 90
       50
176
     1
 90
       50
176
     1
290
     0
176
     1
 90
       50
176
     1
 62
   256
176
     0
 40
1.0
176
     0
 90
        2
176
     1
  1
strokes_ogs.tif
176
     1
290
     0
176
     1
 40
1.0
176
     1
 40
1.0
176
     1
  0
VISUALSTYLE
  5
3E
102
{ACAD_REACTORS
330
29
102
}
330
29
100
AcDbVisualStyle
  2
Shaded
 70
    27
177
     3
291
     0
 70
    58
 90
        2
176
     1
 90
        2
176
     1
 90
        1
176
     1
 90
        2
176
     1
 40
0.6
176
     1
 40
30.0
176
     1
 62
     7
420
 16777215
176
     1
 90
        0
176
     1
 90
        4
176
     1
 62
     7
176
     1
 62
   257
176
     1
 90
        1
176
     1
 90
        1
176
     1
 40
1.0
176
     1
 90
        8
176
     1
 62
   257
176
     1
 40
1.0
176
     1
 90
        1
176
     1
 90
        6
176
     1
 90
        2
176
     1
 62
     8
420
  7895160
176
     1
 90
        3
176
     1
 90
        0
176
     1
 90
        0
176
     1
290
     0
176
     1
 90
        5
176
     1
 40
0.0
176
     1
 90
        0
176
     1
290
     0
176
     1
290
     1
176
     1
290
     1
176
     1
290
     0
176
     1
290
     0
176
     1
290
     0
176
     1
290
     0
176
     1
290
     0
176
     1
290
     0
176
     1
 90
       50
176
     1
 40
0.0
176
     1
 40
1.0
176
     1
 90
        0
176
     1
 62
    18
420
        0
176
     1
 90
       50
176
     1
 90
        3
176
     1
 62
     5
420
      255
176
     1
290
     0
176
     1
 90
       50
176
     1
 90
       50
176
     1
 90
       50
176
     1
290
     0
176
     1
 90
       50
176
     1
 62
   256
176
     0
 40
1.0
176
     0
 90
        2
176
     1
  1
strokes_ogs.tif
176
     1
290
     0
176
     1
 40
1.0
176
     1
 40
1.0
176
     1
  0
VISUALSTYLE
  5
3D
102
{ACAD_REACTORS
330
29
102
}
330
29
100
AcDbVisualStyle
  2
Shaded with edges
 70
    26
177
     3
291
     0
 70
    58
 90
        2
176
     1
 90
        2
176
     1
 90
        1
176
     1
 90
        2
176
     1
 40
0.6
176
     1
 40
30.0
176
     1
 62
     7
420
 16777215
176
     1
 90
        1
176
     1
 90
        2
176
     1
 62
     7
176
     1
 62
   257
176
     1
 90
        2
176
     1
 90
        1
176
     1
 40
1.0
176
     1
 90
        8
176
     1
 62
   257
176
     1
 40
1.0
176
     1
 90
        1
176
     1
 90
        6
176
     1
 90
        2
176
     1
 62
     7
176
     1
 90
        3
176
     1
 90
        0
176
     1
 90
        0
176
     1
290
     0
176
     1
 90
        5
176
     1
 40
0.0
176
     1
 90
        0
176
     1
290
     0
176
     1
290
     1
176
     1
290
     1
176
     1
290
     0
176
     1
290
     0
176
     1
290
     0
176
     1
290
     0
176
     1
290
     0
176
     1
290
     0
176
     1
 90
       50
176
     1
 40
0.0
176
     1
 40
1.0
176
     1
 90
        0
176
     1
 62
    18
420
        0
176
     1
 90
       50
176
     1
 90
        3
176
     1
 62
     5
420
      255
176
     1
290
     0
176
     1
 90
       50
176
     1
 90
       50
176
     1
 90
       50
176
     1
290
     0
176
     1
 90
       50
176
     1
 62
   256
176
     0
 40
1.0
176
     0
 90
        2
176
     1
  1
strokes_ogs.tif
176
     1
290
     0
176
     1
 40
1.0
176
     1
 40
1.0
176
     1
  0
VISUALSTYLE
  5
3A
102
{ACAD_REACTORS
330
29
102
}
330
29
100
AcDbVisualStyle
  2
Shades of Gray
 70
    23
177
     3
291
     0
 70
    58
 90
        2
176
     1
 90
        2
176
     1
 90
        3
176
     1
 90
        0
176
     1
 40
0.6
176
     1
 40
30.0
176
     1
 62
     7
420
 16777215
176
     1
 90
        2
176
     1
 90
        2
176
     1
 62
     7
176
     1
 62
     7
176
     1
 90
        1
176
     1
 90
        1
176
     1
 40
40.0
176
     1
 90
        8
176
     1
 62
     7
176
     1
 40
1.0
176
     1
 90
        1
176
     1
 90
        6
176
     1
 90
        2
176
     1
 62
     7
176
     1
 90
        3
176
     1
 90
        0
176
     1
 90
        0
176
     1
290
     0
176
     1
 90
        1
176
     1
 40
0.0
176
     1
 90
        0
176
     1
290
     0
176
     1
290
     1
176
     1
290
     1
176
     1
290
     0
176
     1
290
     0
176
     1
290
     0
176
     1
290
     0
176
     1
290
     0
176
     1
290
     0
176
     1
 90
       50
176
     1
 40
0.0
176
     1
 40
1.0
176
     1
 90
        0
176
     1
 62
    18
420
        0
176
     1
 90
       50
176
     1
 90
        3
176
     1
 62
     5
420
      255
176
     1
290
     0
176
     1
 90
       50
176
     1
 90
       50
176
     1
 90
       50
176
     1
290
     0
176
     1
 90
       50
176
     1
 62
   256
176
     0
 40
1.0
176
     0
 90
        2
176
     1
  1
strokes_ogs.tif
176
     1
290
     0
176
     1
 40
1.0
176
     1
 40
1.0
176
     1
  0
VISUALSTYLE
  5
3B
102
{ACAD_REACTORS
330
29
102
}
330
29
100
AcDbVisualStyle
  2
Sketchy
 70
    24
177
     3
291
     0
 70
    58
 90
        1
176
     1
 90
        2
176
     1
 90
        2
176
     1
 90
        0
176
     1
 40
0.6
176
     1
 40
30.0
176
     1
 62
     7
420
 16777215
176
     1
 90
        2
176
     1
 90
        2
176
     1
 62
     7
176
     1
 62
     7
176
     1
 90
        1
176
     1
 90
        1
176
     1
 40
40.0
176
     1
 90
       11
176
     1
 62
     7
176
     1
 40
1.0
176
     1
 90
        1
176
     1
 90
        6
176
     1
 90
        2
176
     1
 62
     7
176
     1
 90
        6
176
     1
 90
        0
176
     1
 90
        0
176
     1
290
     0
176
     1
 90
        1
176
     1
 40
0.0
176
     1
 90
        0
176
     1
290
     0
176
     1
290
     1
176
     1
290
     1
176
     1
290
     0
176
     1
290
     0
176
     1
290
     0
176
     1
290
     0
176
     1
290
     0
176
     1
290
     0
176
     1
 90
       50
176
     1
 40
0.0
176
     1
 40
1.0
176
     1
 90
        0
176
     1
 62
    18
420
        0
176
     1
 90
       50
176
     1
 90
        3
176
     1
 62
     5
420
      255
176
     1
290
     0
176
     1
 90
       50
176
     1
 90
       50
176
     1
 90
       50
176
     1
290
     0
176
     1
 90
       50
176
     1
 62
   256
176
     0
 40
1.0
176
     0
 90
        2
176
     1
  1
strokes_ogs.tif
176
     1
290
     0
176
     1
 40
1.0
176
     1
 40
1.0
176
     1
  0
VISUALSTYLE
  5
36
102
{ACAD_REACTORS
330
29
102
}
330
29
100
AcDbVisualStyle
  2
Thicken
 70
    13
177
     3
291
     1
 70
    58
 90
        2
176
     1
 90
        2
176
     1
 90
        0
176
     1
 90
        0
176
     1
 40
0.6
176
     1
 40
30.0
176
     1
 62
     7
420
 16777215
176
     1
 90
        1
176
     1
 90
        4
176
     1
 62
     7
176
     1
 62
   257
176
     1
 90
        1
176
     1
 90
        1
176
     1
 40
1.0
176
     1
 90
       12
176
     1
 62
     7
176
     1
 40
1.0
176
     1
 90
        1
176
     1
 90
        6
176
     1
 90
        2
176
     1
 62
     7
176
     1
 90
        5
176
     1
 90
        0
176
     1
 90
        0
176
     1
290
     0
176
     1
 90
        1
176
     1
 40
0.0
176
     1
 90
        0
176
     1
290
     0
176
     1
290
     1
176
     1
290
     1
176
     1
290
     0
176
     1
290
     0
176
     1
290
     0
176
     1
290
     0
176
     1
290
     0
176
     1
290
     0
176
     1
 90
       50
176
     1
 40
0.0
176
     1
 40
1.0
176
     1
 90
        0
176
     1
 62
    18
420
        0
176
     1
 90
       50
176
     1
 90
        3
176
     1
 62
     5
420
      255
176
     1
290
     0
176
     1
 90
       50
176
     1
 90
       50
176
     1
 90
       50
176
     1
290
     0
176
     1
 90
       50
176
     1
 62
   256
176
     0
 40
1.0
176
     0
 90
        2
176
     1
  1
strokes_ogs.tif
176
     1
290
     0
176
     1
 40
1.0
176
     1
 40
1.0
176
     1
  0
VISUALSTYLE
  5
30
102
{ACAD_REACTORS
330
29
102
}
330
29
100
AcDbVisualStyle
  2
Wireframe
 70
     5
177
     3
291
     0
 70
    58
 90
        0
176
     1
 90
        2
176
     1
 90
        0
176
     1
 90
        0
176
     1
 40
0.6
176
     1
 40
30.0
176
     1
 62
     7
420
 16777215
176
     1
 90
        1
176
     1
 90
        4
176
     1
 62
     7
176
     1
 62
   257
176
     1
 90
        1
176
     1
 90
        1
176
     1
 40
1.0
176
     1
 90
        0
176
     1
 62
   257
176
     1
 40
1.0
176
     1
 90
        1
176
     1
 90
        6
176
     1
 90
        2
176
     1
 62
     7
176
     1
 90
        3
176
     1
 90
        0
176
     1
 90
        0
176
     1
290
     0
176
     1
 90
        1
176
     1
 40
0.0
176
     1
 90
        0
176
     1
290
     0
176
     1
290
     1
176
     1
290
     1
176
     1
290
     0
176
     1
290
     0
176
     1
290
     0
176
     1
290
     0
176
     1
290
     0
176
     1
290
     0
176
     1
 90
       50
176
     1
 40
0.0
176
     1
 40
1.0
176
     1
 90
        0
176
     1
 62
    18
420
        0
176
     1
 90
       50
176
     1
 90
        3
176
     1
 62
     5
420
      255
176
     1
290
     0
176
     1
 90
       50
176
     1
 90
       50
176
     1
 90
       50
176
     1
290
     0
176
     1
 90
       50
176
     1
 62
   256
176
     0
 40
1.0
176
     0
 90
        2
176
     1
  1
strokes_ogs.tif
176
     1
290
     0
176
     1
 40
1.0
176
     1
 40
1.0
176
     1
  0
VISUALSTYLE
  5
3C
102
{ACAD_REACTORS
330
29
102
}
330
29
100
AcDbVisualStyle
  2
X-Ray
 70
    25
177
     3
291
     0
 70
    58
 90
        2
176
     1
 90
        2
176
     1
 90
        1
176
     1
 90
        1
176
     1
 40
0.5
176
     1
 40
30.0
176
     1
 62
     7
420
 16777215
176
     1
 90
        1
176
     1
 90
        0
176
     1
 62
     7
176
     1
 62
   257
176
     1
 90
        1
176
     1
 90
        1
176
     1
 40
1.0
176
     1
 90
        8
176
     1
 62
     7
176
     1
 40
1.0
176
     1
 90
        1
176
     1
 90
        6
176
     1
 90
        2
176
     1
 62
     7
176
     1
 90
        3
176
     1
 90
        0
176
     1
 90
        0
176
     1
290
     0
176
     1
 90
       13
176
     1
 40
0.0
176
     1
 90
        0
176
     1
290
     0
176
     1
290
     1
176
     1
290
     1
176
     1
290
     0
176
     1
290
     0
176
     1
290
     0
176
     1
290
     0
176
     1
290
     0
176
     1
290
     0
176
     1
 90
       50
176
     1
 40
0.0
176
     1
 40
1.0
176
     1
 90
        0
176
     1
 62
    18
420
        0
176
     1
 90
       50
176
     1
 90
        3
176
     1
 62
     5
420
      255
176
     1
290
     0
176
     1
 90
       50
176
     1
 90
       50
176
     1
 90
       50
176
     1
290
     0
176
     1
 90
       50
176
     1
 62
   256
176
     0
 40
1.0
176
     0
 90
        2
176
     1
  1
strokes_ogs.tif
176
     1
290
     0
176
     1
 40
1.0
176
     1
 40
1.0
176
     1
  0
DICTIONARYVAR
  5
B7
102
{ACAD_REACTORS
330
B2
102
}
330
B2
100
DictionaryVariables
280
     0
  1
1:1
  0
DICTIONARYVAR
  5
B4
102
{ACAD_REACTORS
330
B2
102
}
330
B2
100
DictionaryVariables
280
     0
  1
STANDARD
  0
DICTIONARYVAR
  5
B3
102
{ACAD_REACTORS
330
B2
102
}
330
B2
100
DictionaryVariables
280
     0
  1
STANDARD
  0
DICTIONARYVAR
  5
B5
102
{ACAD_REACTORS
330
B2
102
}
330
B2
100
DictionaryVariables
280
     0
  1
Imperial24
  0
DICTIONARYVAR
  5
B6
102
{ACAD_REACTORS
330
B2
102
}
330
B2
100
DictionaryVariables
280
     0
  1
Imperial24
  0
DICTIONARY
  5
1A
330
19
100
AcDbDictionary
280
     1
281
     1
  3
BUMPTILE
360
1C
  3
DIFFUSETILE
360
1B
  3
OPACITYTILE
360
1F
  3
REFLECTIONTILE
360
1E
  3
REFRACTIONTILE
360
20
  3
SPECULARTILE
360
1D
  0
DICTIONARY
  5
12
330
11
100
AcDbDictionary
280
     1
281
     1
  3
BUMPTILE
360
14
  3
DIFFUSETILE
360
13
  3
OPACITYTILE
360
17
  3
REFLECTIONTILE
360
16
  3
REFRACTIONTILE
360
18
  3
SPECULARTILE
360
15
  0
DICTIONARY
  5
22
330
21
100
AcDbDictionary
280
     1
281
     1
  3
BUMPTILE
360
24
  3
DIFFUSETILE
360
23
  3
OPACITYTILE
360
27
  3
REFLECTIONTILE
360
26
  3
REFRACTIONTILE
360
28
  3
SPECULARTILE
360
25
  0
DICTIONARY
  5
B8
330
65
100
AcDbDictionary
280
     1
281
     1
  3
ACAD_ROUNDTRIP_2008_TABLESTYLE_CELLSTYLEMAP
360
B9
  0
XRECORD
  5
1C
102
{ACAD_REACTORS
330
1A
102
}
330
1A
100
AcDbXrecord
280
     1
270
     1
271
     1
  0
XRECORD
  5
1B
102
{ACAD_REACTORS
330
1A
102
}
330
1A
100
AcDbXrecord
280
     1
270
     1
271
     1
  0
XRECORD
  5
1F
102
{ACAD_REACTORS
330
1A
102
}
330
1A
100
AcDbXrecord
280
     1
270
     1
271
     1
  0
XRECORD
  5
1E
102
{ACAD_REACTORS
330
1A
102
}
330
1A
100
AcDbXrecord
280
     1
270
     1
271
     1
  0
XRECORD
  5
20
102
{ACAD_REACTORS
330
1A
102
}
330
1A
100
AcDbXrecord
280
     1
270
     1
271
     1
  0
XRECORD
  5
1D
102
{ACAD_REACTORS
330
1A
102
}
330
1A
100
AcDbXrecord
280
     1
270
     1
271
     1
  0
XRECORD
  5
14
102
{ACAD_REACTORS
330
12
102
}
330
12
100
AcDbXrecord
280
     1
270
     1
271
     1
  0
XRECORD
  5
13
102
{ACAD_REACTORS
330
12
102
}
330
12
100
AcDbXrecord
280
     1
270
     1
271
     1
  0
XRECORD
  5
17
102
{ACAD_REACTORS
330
12
102
}
330
12
100
AcDbXrecord
280
     1
270
     1
271
     1
  0
XRECORD
  5
16
102
{ACAD_REACTORS
330
12
102
}
330
12
100
AcDbXrecord
280
     1
270
     1
271
     1
  0
XRECORD
  5
18
102
{ACAD_REACTORS
330
12
102
}
330
12
100
AcDbXrecord
280
     1
270
     1
271
     1
  0
XRECORD
  5
15
102
{ACAD_REACTORS
330
12
102
}
330
12
100
AcDbXrecord
280
     1
270
     1
271
     1
  0
XRECORD
  5
24
102
{ACAD_REACTORS
330
22
102
}
330
22
100
AcDbXrecord
280
     1
270
     1
271
     1
  0
XRECORD
  5
23
102
{ACAD_REACTORS
330
22
102
}
330
22
100
AcDbXrecord
280
     1
270
     1
271
     1
  0
XRECORD
  5
27
102
{ACAD_REACTORS
330
22
102
}
330
22
100
AcDbXrecord
280
     1
270
     1
271
     1
  0
XRECORD
  5
26
102
{ACAD_REACTORS
330
22
102
}
330
22
100
AcDbXrecord
280
     1
270
     1
271
     1
  0
XRECORD
  5
28
102
{ACAD_REACTORS
330
22
102
}
330
22
100
AcDbXrecord
280
     1
270
     1
271
     1
  0
XRECORD
  5
25
102
{ACAD_REACTORS
330
22
102
}
330
22
100
AcDbXrecord
280
     1
270
     1
271
     1
  0
CELLSTYLEMAP
  5
B9
102
{ACAD_REACTORS
330
B8
102
}
330
B8
100
AcDbCellStyleMap
 90
        3
300
CELLSTYLE
  1
TABLEFORMAT_BEGIN
 90
        5
170
     1
 91
        0
 92
    32768
 62
   257
 93
        1
300
CONTENTFORMAT
  1
CONTENTFORMAT_BEGIN
 90
        0
 91
        0
 92
      512
 93
        0
300

 40
0.0
140
1.0
 94
        5
 62
     0
340
55
144
0.25
309
CONTENTFORMAT_END
171
     0
 94
        0
309
TABLEFORMAT_END
  1
CELLSTYLE_BEGIN
 90
        1
 91
        1
300
_TITLE
309
CELLSTYLE_END
300
CELLSTYLE
  1
TABLEFORMAT_BEGIN
 90
        5
170
     1
 91
        0
 92
        0
 62
   257
 93
        1
300
CONTENTFORMAT
  1
CONTENTFORMAT_BEGIN
 90
        0
 91
        0
 92
      512
 93
        0
300

 40
0.0
140
1.0
 94
        5
 62
     0
340
55
144
0.18
309
CONTENTFORMAT_END
171
     0
 94
        0
309
TABLEFORMAT_END
  1
CELLSTYLE_BEGIN
 90
        2
 91
        1
300
_HEADER
309
CELLSTYLE_END
300
CELLSTYLE
  1
TABLEFORMAT_BEGIN
 90
        5
170
     1
 91
        0
 92
        0
 62
   257
 93
        1
300
CONTENTFORMAT
  1
CONTENTFORMAT_BEGIN
 90
        0
 91
        0
 92
      512
 93
        0
300

 40
0.0
140
1.0
 94
        2
 62
     0
340
55
144
0.18
309
CONTENTFORMAT_END
171
     0
 94
        0
309
TABLEFORMAT_END
  1
CELLSTYLE_BEGIN
 90
        3
 91
        2
300
_DATA
309
CELLSTYLE_END
  0
ENDSEC
  0
EOF
