  0
SECTION
  2
HEADER
  9
$ACADVER
  1
AC1032
  9
$ACADMAINTVER
 90
      197
  9
$DWGCODEPAGE
  3
ANSI_1252
  9
$REQUIREDVERSIONS
160
                 0
  9
$INSBASE
 10
0.0
 20
0.0
 30
0.0
  9
$EXTMIN
 10
1.000000000000000E+20
 20
1.000000000000000E+20
 30
1.000000000000000E+20
  9
$EXTMAX
 10
-1.000000000000000E+20
 20
-1.000000000000000E+20
 30
-1.000000000000000E+20
  9
$LIMMIN
 10
0.0
 20
0.0
  9
$LIMMAX
 10
12.0
 20
9.0
  9
$ORTHOMODE
 70
     0
  9
$REGENMODE
 70
     1
  9
$FILLMODE
 70
     1
  9
$QTEXTMODE
 70
     0
  9
$MIRRTEXT
 70
     0
  9
$LTSCALE
 40
1.0
  9
$ATTMODE
 70
     1
  9
$TEXTSIZE
 40
0.2
  9
$TRACEWID
 40
0.05
  9
$TEXTSTYLE
  7
Standard
  9
$CLAYER
  8
0
  9
$CELTYPE
  6
ByLayer
  9
$CECOLOR
 62
   256
  9
$CELTSCALE
 40
1.0
  9
$DISPSILH
 70
     0
  9
$DIMSCALE
 40
1.0
  9
$DIMASZ
 40
0.18
  9
$DIMEXO
 40
0.0625
  9
$DIMDLI
 40
0.38
  9
$DIMRND
 40
0.0
  9
$DIMDLE
 40
0.0
  9
$DIMEXE
 40
0.18
  9
$DIMTP
 40
0.0
  9
$DIMTM
 40
0.0
  9
$DIMTXT
 40
0.18
  9
$DIMCEN
 40
0.09
  9
$DIMTSZ
 40
0.0
  9
$DIMTOL
 70
     0
  9
$DIMLIM
 70
     0
  9
$DIMTIH
 70
     1
  9
$DIMTOH
 70
     1
  9
$DIMSE1
 70
     0
  9
$DIMSE2
 70
     0
  9
$DIMTAD
 70
     0
  9
$DIMZIN
 70
     0
  9
$DIMBLK
  1

  9
$DIMASO
 70
     1
  9
$DIMSHO
 70
     1
  9
$DIMPOST
  1

  9
$DIMAPOST
  1

  9
$DIMALT
 70
     0
  9
$DIMALTD
 70
     2
  9
$DIMALTF
 40
25.4
  9
$DIMLFAC
 40
1.0
  9
$DIMTOFL
 70
     0
  9
$DIMTVP
 40
0.0
  9
$DIMTIX
 70
     0
  9
$DIMSOXD
 70
     0
  9
$DIMSAH
 70
     0
  9
$DIMBLK1
  1

  9
$DIMBLK2
  1

  9
$DIMSTYLE
  2
Standard
  9
$DIMCLRD
 70
     0
  9
$DIMCLRE
 70
     0
  9
$DIMCLRT
 70
     0
  9
$DIMTFAC
 40
1.0
  9
$DIMGAP
 40
0.09
  9
$DIMJUST
 70
     0
  9
$DIMSD1
 70
     0
  9
$DIMSD2
 70
     0
  9
$DIMTOLJ
 70
     1
  9
$DIMTZIN
 70
     0
  9
$DIMALTZ
 70
     0
  9
$DIMALTTZ
 70
     0
  9
$DIMUPT
 70
     0
  9
$DIMDEC
 70
     4
  9
$DIMTDEC
 70
     4
  9
$DIMALTU
 70
     2
  9
$DIMALTTD
 70
     2
  9
$DIMTXSTY
  7
Standard
  9
$DIMAUNIT
 70
     0
  9
$DIMADEC
 70
     0
  9
$DIMALTRND
 40
0.0
  9
$DIMAZIN
 70
     0
  9
$DIMDSEP
 70
    46
  9
$DIMATFIT
 70
     3
  9
$DIMFRAC
 70
     0
  9
$DIMLDRBLK
  1

  9
$DIMLUNIT
 70
     2
  9
$DIMLWD
 70
    -2
  9
$DIMLWE
 70
    -2
  9
$DIMTMOVE
 70
     0
  9
$DIMFXL
 40
1.0
  9
$DIMFXLON
 70
     0
  9
$DIMJOGANG
 40
0.7853981633974483
  9
$DIMTFILL
 70
     0
  9
$DIMTFILLCLR
 70
     0
  9
$DIMARCSYM
 70
     0
  9
$DIMLTYPE
  6

  9
$DIMLTEX1
  6

  9
$DIMLTEX2
  6

  9
$DIMTXTDIRECTION
 70
     0
  9
$LUNITS
 70
     2
  9
$LUPREC
 70
     4
  9
$SKETCHINC
 40
0.1
  9
$FILLETRAD
 40
0.0
  9
$AUNITS
 70
     0
  9
$AUPREC
 70
     0
  9
$MENU
  1
.
  9
$ELEVATION
 40
0.0
  9
$PELEVATION
 40
0.0
  9
$THICKNESS
 40
0.0
  9
$LIMCHECK
 70
     0
  9
$CHAMFERA
 40
0.0
  9
$CHAMFERB
 40
0.0
  9
$CHAMFERC
 40
0.0
  9
$CHAMFERD
 40
0.0
  9
$SKPOLY
 70
     0
  9
$TDCREATE
 40
2459666.876655092
  9
$TDUCREATE
 40
2459667.168321760
  9
$TDUPDATE
 40
2459666.876655092
  9
$TDUUPDATE
 40
2459667.168321760
  9
$TDINDWG
 40
0.0000462963
  9
$TDUSRTIMER
 40
0.0000462963
  9
$USRTIMER
 70
     1
  9
$ANGBASE
 50
0.0
  9
$ANGDIR
 70
     0
  9
$PDMODE
 70
     0
  9
$PDSIZE
 40
0.0
  9
$PLINEWID
 40
0.0
  9
$SPLFRAME
 70
     0
  9
$SPLINETYPE
 70
     6
  9
$SPLINESEGS
 70
     8
  9
$HANDSEED
  5
BC
  9
$SURFTAB1
 70
     6
  9
$SURFTAB2
 70
     6
  9
$SURFTYPE
 70
     6
  9
$SURFU
 70
     6
  9
$SURFV
 70
     6
  9
$UCSBASE
  2

  9
$UCSNAME
  2

  9
$UCSORG
 10
0.0
 20
0.0
 30
0.0
  9
$UCSXDIR
 10
1.0
 20
0.0
 30
0.0
  9
$UCSYDIR
 10
0.0
 20
1.0
 30
0.0
  9
$UCSORTHOREF
  2

  9
$UCSORTHOVIEW
 70
     0
  9
$UCSORGTOP
 10
0.0
 20
0.0
 30
0.0
  9
$UCSORGBOTTOM
 10
0.0
 20
0.0
 30
0.0
  9
$UCSORGLEFT
 10
0.0
 20
0.0
 30
0.0
  9
$UCSORGRIGHT
 10
0.0
 20
0.0
 30
0.0
  9
$UCSORGFRONT
 10
0.0
 20
0.0
 30
0.0
  9
$UCSORGBACK
 10
0.0
 20
0.0
 30
0.0
  9
$PUCSBASE
  2

  9
$PUCSNAME
  2

  9
$PUCSORG
 10
0.0
 20
0.0
 30
0.0
  9
$PUCSXDIR
 10
1.0
 20
0.0
 30
0.0
  9
$PUCSYDIR
 10
0.0
 20
1.0
 30
0.0
  9
$PUCSORTHOREF
  2

  9
$PUCSORTHOVIEW
 70
     0
  9
$PUCSORGTOP
 10
0.0
 20
0.0
 30
0.0
  9
$PUCSORGBOTTOM
 10
0.0
 20
0.0
 30
0.0
  9
$PUCSORGLEFT
 10
0.0
 20
0.0
 30
0.0
  9
$PUCSORGRIGHT
 10
0.0
 20
0.0
 30
0.0
  9
$PUCSORGFRONT
 10
0.0
 20
0.0
 30
0.0
  9
$PUCSORGBACK
 10
0.0
 20
0.0
 30
0.0
  9
$USERI1
 70
     0
  9
$USERI2
 70
     0
  9
$USERI3
 70
     0
  9
$USERI4
 70
     0
  9
$USERI5
 70
     0
  9
$USERR1
 40
0.0
  9
$USERR2
 40
0.0
  9
$USERR3
 40
0.0
  9
$USERR4
 40
0.0
  9
$USERR5
 40
0.0
  9
$WORLDVIEW
 70
     1
  9
$SHADEDGE
 70
     3
  9
$SHADEDIF
 70
    70
  9
$TILEMODE
 70
     1
  9
$MAXACTVP
 70
    64
  9
$PINSBASE
 10
0.0
 20
0.0
 30
0.0
  9
$PLIMCHECK
 70
     0
  9
$PEXTMIN
 10
1.000000000000000E+20
 20
1.000000000000000E+20
 30
1.000000000000000E+20
  9
$PEXTMAX
 10
-1.000000000000000E+20
 20
-1.000000000000000E+20
 30
-1.000000000000000E+20
  9
$PLIMMIN
 10
0.0
 20
0.0
  9
$PLIMMAX
 10
12.0
 20
9.0
  9
$UNITMODE
 70
     0
  9
$VISRETAIN
 70
     1
  9
$PLINEGEN
 70
     0
  9
$PSLTSCALE
 70
     1
  9
$TREEDEPTH
 70
  3020
  9
$CMLSTYLE
  2
Standard
  9
$CMLJUST
 70
     0
  9
$CMLSCALE
 40
1.0
  9
$PROXYGRAPHICS
 70
     1
  9
$MEASUREMENT
 70
     0
  9
$CELWEIGHT
370
    -1
  9
$ENDCAPS
280
     0
  9
$JOINSTYLE
280
     0
  9
$LWDISPLAY
290
     1
  9
$INSUNITS
 70
     0
  9
$HYPERLINKBASE
  1

  9
$STYLESHEET
  1

  9
$XEDIT
290
     1
  9
$CEPSNTYPE
380
     0
  9
$PSTYLEMODE
290
     1
  9
$FINGERPRINTGUID
  2
{81889605-81E0-A644-8E6D-02E48ECE7B6D}
  9
$VERSIONGUID
  2
{42496E08-8C45-B24A-AF2B-3305151E813C}
  9
$EXTNAMES
290
     1
  9
$PSVPSCALE
 40
0.0
  9
$OLESTARTUP
290
     0
  9
$SORTENTS
280
   127
  9
$INDEXCTL
280
     0
  9
$HIDETEXT
280
     1
  9
$XCLIPFRAME
280
     2
  9
$HALOGAP
280
     0
  9
$OBSCOLOR
 70
   257
  9
$OBSLTYPE
280
     0
  9
$INTERSECTIONDISPLAY
280
     0
  9
$INTERSECTIONCOLOR
 70
   257
  9
$DIMASSOC
280
     2
  9
$PROJECTNAME
  1

  9
$CAMERADISPLAY
290
     0
  9
$LENSLENGTH
 40
50.0
  9
$CAMERAHEIGHT
 40
0.0
  9
$STEPSPERSEC
 40
2.0
  9
$STEPSIZE
 40
6.0
  9
$3DDWFPREC
 40
2.0
  9
$PSOLWIDTH
 40
0.25
  9
$PSOLHEIGHT
 40
4.0
  9
$LOFTANG1
 40
1.570796326794896
  9
$LOFTANG2
 40
1.570796326794896
  9
$LOFTMAG1
 40
0.0
  9
$LOFTMAG2
 40
0.0
  9
$LOFTPARAM
 70
     7
  9
$LOFTNORMALS
280
     1
  9
$LATITUDE
 40
37.795
  9
$LONGITUDE
 40
-122.394
  9
$NORTHDIRECTION
 40
0.0
  9
$TIMEZONE
 70
 -8000
  9
$LIGHTGLYPHDISPLAY
280
     1
  9
$TILEMODELIGHTSYNCH
280
     1
  9
$CMATERIAL
347
11
  9
$SOLIDHIST
280
     0
  9
$SHOWHIST
280
     1
  9
$DWFFRAME
280
     2
  9
$DGNFRAME
280
     0
  9
$REALWORLDSCALE
290
     1
  9
$INTERFERECOLOR
 62
     1
  9
$INTERFEREOBJVS
345
33
  9
$INTERFEREVPVS
346
30
  9
$CSHADOW
280
     0
  9
$SHADOWPLANELOCATION
 40
0.0
  0
ENDSEC
  0
SECTION
  2
CLASSES
  0
CLASS
  1
ACDBDICTIONARYWDFLT
  2
AcDbDictionaryWithDefault
  3
ObjectDBX Classes
 90
        0
 91
        1
280
     0
281
     0
  0
CLASS
  1
MATERIAL
  2
AcDbMaterial
  3
ObjectDBX Classes
 90
     1153
 91
        3
280
     0
281
     0
  0
CLASS
  1
VISUALSTYLE
  2
AcDbVisualStyle
  3
ObjectDBX Classes
 90
     4095
 91
       24
280
     0
281
     0
  0
CLASS
  1
SCALE
  2
AcDbScale
  3
ObjectDBX Classes
 90
     1153
 91
       17
280
     0
281
     0
  0
CLASS
  1
TABLESTYLE
  2
AcDbTableStyle
  3
ObjectDBX Classes
 90
     4095
 91
        1
280
     0
281
     0
  0
CLASS
  1
MLEADERSTYLE
  2
AcDbMLeaderStyle
  3
ACDB_MLEADERSTYLE_CLASS
 90
     4095
 91
        1
280
     0
281
     0
  0
CLASS
  1
ACDBSECTIONVIEWSTYLE
  2
AcDbSectionViewStyle
  3
ObjectDBX Classes
 90
     1025
 91
        1
280
     0
281
     0
  0
CLASS
  1
ACDBDETAILVIEWSTYLE
  2
AcDbDetailViewStyle
  3
ObjectDBX Classes
 90
     1025
 91
        1
280
     0
281
     0
  0
CLASS
  1
IMAGEDEF
  2
AcDbRasterImageDef
  3
ISM
 90
        0
 91
        1
280
     0
281
     0
  0
CLASS
  1
IMAGE
  2
AcDbRasterImage
  3
ISM
 90
     2175
 91
        1
280
     0
281
     1
  0
CLASS
  1
DICTIONARYVAR
  2
AcDbDictionaryVar
  3
ObjectDBX Classes
 90
        0
 91
        5
280
     0
281
     0
  0
CLASS
  1
CELLSTYLEMAP
  2
AcDbCellStyleMap
  3
ObjectDBX Classes
 90
     1152
 91
        1
280
     0
281
     0
  0
ENDSEC
  0
SECTION
  2
TABLES
  0
TABLE
  2
VPORT
  5
8
330
0
100
AcDbSymbolTable
 70
     1
  0
VPORT
  5
57
330
8
100
AcDbSymbolTableRecord
100
AcDbViewportTableRecord
  2
*Active
 70
     0
 10
0.0
 20
0.0
 11
1.0
 21
1.0
 12
0.0
 22
0.0
 13
0.0
 23
0.0
 14
1.0
 24
1.0
 15
0.0
 25
0.0
 16
0.0
 26
0.0
 36
1.0
 17
-3318.362213134765
 27
3405.055084228516
 37
0.0
 40
8663.767628173827
 41
0.9215183772060527
 42
50.0
 43
0.0
 44
0.0
 50
0.0
 51
0.0
 71
     0
 72
   100
 73
     1
 74
     1
 75
     0
 76
     0
 77
     0
 78
     0
281
     0
 65
     1
110
0.0
120
0.0
130
0.0
111
1.0
121
0.0
131
0.0
112
0.0
122
1.0
132
0.0
 79
     0
146
0.0
 60
     3
 61
     5
292
     1
282
     1
141
0.0
142
0.0
 63
   250
421
  3355443
  0
ENDTAB
  0
TABLE
  2
LTYPE
  5
5
330
0
100
AcDbSymbolTable
 70
     1
  0
LTYPE
  5
5B
330
5
100
AcDbSymbolTableRecord
100
AcDbLinetypeTableRecord
  2
ByBlock
 70
     0
  3

 72
    65
 73
     0
 40
0.0
  0
LTYPE
  5
5C
330
5
100
AcDbSymbolTableRecord
100
AcDbLinetypeTableRecord
  2
ByLayer
 70
     0
  3

 72
    65
 73
     0
 40
0.0
  0
LTYPE
  5
5D
330
5
100
AcDbSymbolTableRecord
100
AcDbLinetypeTableRecord
  2
Continuous
 70
     0
  3
Solid line
 72
    65
 73
     0
 40
0.0
  0
ENDTAB
  0
TABLE
  2
LAYER
  5
2
330
0
100
AcDbSymbolTable
 70
     2
  0
LAYER
  5
54
330
2
100
AcDbSymbolTableRecord
100
AcDbLayerTableRecord
  2
0
 70
     0
 62
     7
  6
Continuous
370
    -3
390
F
347
21
348
0
  0
LAYER
  5
78
330
2
100
AcDbSymbolTableRecord
100
AcDbLayerTableRecord
  2
Layer 1
 70
     0
 62
     7
  6
Continuous
370
     0
390
F
347
21
348
0
  0
ENDTAB
  0
TABLE
  2
STYLE
  5
3
330
0
100
AcDbSymbolTable
 70
     2
  0
STYLE
  5
55
330
3
100
AcDbSymbolTableRecord
100
AcDbTextStyleTableRecord
  2
Standard
 70
     0
 40
0.0
 41
1.0
 50
0.0
 71
     0
 42
0.2
  3
txt
  4

  0
STYLE
  5
5A
330
3
100
AcDbSymbolTableRecord
100
AcDbTextStyleTableRecord
  2
Annotative
 70
     0
 40
0.0
 41
1.0
 50
0.0
 71
     0
 42
0.2
  3
txt
  4

1001
AcadAnnotative
1000
AnnotativeData
1002
{
1070
     1
1070
     1
1002
}
  0
ENDTAB
  0
TABLE
  2
VIEW
  5
6
330
0
100
AcDbSymbolTable
 70
     0
  0
ENDTAB
  0
TABLE
  2
UCS
  5
7
330
0
100
AcDbSymbolTable
 70
     0
  0
ENDTAB
  0
TABLE
  2
APPID
  5
9
330
0
100
AcDbSymbolTable
 70
     2
  0
APPID
  5
56
330
9
100
AcDbSymbolTableRecord
100
AcDbRegAppTableRecord
  2
ACAD
 70
     0
  0
APPID
  5
5E
330
9
100
AcDbSymbolTableRecord
100
AcDbRegAppTableRecord
  2
AcadAnnotative
 70
     0
  0
ENDTAB
  0
TABLE
  2
DIMSTYLE
  5
A
330
0
100
AcDbSymbolTable
 70
     2
100
AcDbDimStyleTable
 71
     0
  0
DIMSTYLE
105
58
330
A
100
AcDbSymbolTableRecord
100
AcDbDimStyleTableRecord
  2
Standard
 70
     0
340
55
  0
DIMSTYLE
105
59
330
A
100
AcDbSymbolTableRecord
100
AcDbDimStyleTableRecord
  2
Annotative
 70
     0
340
55
1001
AcadAnnotative
1000
AnnotativeData
1002
{
1070
     1
1070
     1
1002
}
  0
ENDTAB
  0
TABLE
  2
BLOCK_RECORD
  5
1
330
0
100
AcDbSymbolTable
 70
     2
  0
BLOCK_RECORD
  5
70
330
1
100
AcDbSymbolTableRecord
100
AcDbBlockTableRecord
  2
*Model_Space
340
73
 70
     0
280
     1
281
     0
  0
BLOCK_RECORD
  5
6C
330
1
100
AcDbSymbolTableRecord
100
AcDbBlockTableRecord
  2
*Paper_Space
340
6F
 70
     0
280
     1
281
     0
  0
BLOCK_RECORD
  5
74
330
1
100
AcDbSymbolTableRecord
100
AcDbBlockTableRecord
  2
*Paper_Space0
340
77
 70
     0
280
     1
281
     0
  0
BLOCK_RECORD
  5
81
330
1
100
AcDbSymbolTableRecord
100
AcDbBlockTableRecord
  2
Block_0
340
0
102
{BLKREFS
331
82
102
}
 70
     0
280
     1
281
     0
  0
ENDTAB
  0
ENDSEC
  0
SECTION
  2
BLOCKS
  0
BLOCK
  5
71
330
70
100
AcDbEntity
  8
0
100
AcDbBlockBegin
  2
*Model_Space
 70
     0
 10
0.0
 20
0.0
 30
0.0
  3
*Model_Space
  1

  0
ENDBLK
  5
72
330
70
100
AcDbEntity
  8
0
100
AcDbBlockEnd
  0
BLOCK
  5
6D
330
6C
100
AcDbEntity
 67
     1
  8
0
100
AcDbBlockBegin
  2
*Paper_Space
 70
     0
 10
0.0
 20
0.0
 30
0.0
  3
*Paper_Space
  1

  0
ENDBLK
  5
6E
330
6C
100
AcDbEntity
 67
     1
  8
0
100
AcDbBlockEnd
  0
BLOCK
  5
75
330
74
100
AcDbEntity
 67
     1
  8
0
100
AcDbBlockBegin
  2
*Paper_Space0
 70
     0
 10
0.0
 20
0.0
 30
0.0
  3
*Paper_Space0
  1

  0
ENDBLK
  5
76
330
74
100
AcDbEntity
 67
     1
  8
0
100
AcDbBlockEnd
  0
BLOCK
  5
83
330
81
100
AcDbEntity
  8
0
100
AcDbBlockBegin
  2
Block_0
 70
     0
 10
0.0
 20
0.0
 30
0.0
  3
Block_0
  1

  0
SPLINE
  5
85
330
81
100
AcDbEntity
  8
Layer 1
100
AcDbSpline
210
0.0
220
0.0
230
1.0
 70
    11
 71
     3
 72
    17
 73
    13
 74
     0
 42
0.0000000001
 43
0.0000000001
 40
0.0
 40
0.0
 40
0.0
 40
0.0
 40
1.0
 40
1.0
 40
1.0
 40
2.0
 40
2.0
 40
2.0
 40
3.0
 40
3.0
 40
3.0
 40
4.0
 40
4.0
 40
4.0
 40
4.0
 10
359.4755859375
 20
-404.9340820312499
 30
0.0
 10
359.4755859375
 20
-404.9340820312499
 30
0.0
 10
359.4755859375
 20
-416.93115234375
 30
0.0
 10
359.4755859375
 20
-416.93115234375
 30
0.0
 10
359.4755859375
 20
-416.93115234375
 30
0.0
 10
355.79296875
 20
-416.93115234375
 30
0.0
 10
355.79296875
 20
-416.93115234375
 30
0.0
 10
355.79296875
 20
-416.93115234375
 30
0.0
 10
355.79296875
 20
-404.9340820312499
 30
0.0
 10
355.79296875
 20
-404.9340820312499
 30
0.0
 10
355.79296875
 20
-404.9340820312499
 30
0.0
 10
359.4755859375
 20
-404.9340820312499
 30
0.0
 10
359.4755859375
 20
-404.9340820312499
 30
0.0
  0
HATCH
  5
86
330
81
100
AcDbEntity
  8
Layer 1
 62
   250
420
  2301728
440
 33554687
100
AcDbHatch
 10
0.0
 20
0.0
 30
0.0
210
0.0
220
0.0
230
1.0
  2
SOLID
 70
     1
 71
     1
 91
        1
 92
        1
 93
        1
 72
     4
 94
        3
 73
     0
 74
     0
 95
       17
 96
       13
 40
0.0
 40
0.0
 40
0.0
 40
0.0
 40
1.0
 40
1.0
 40
1.0
 40
2.0
 40
2.0
 40
2.0
 40
3.0
 40
3.0
 40
3.0
 40
4.0
 40
4.0
 40
4.0
 40
4.0
 10
359.4755859375
 20
-404.9340820312499
 10
359.4755859375
 20
-404.9340820312499
 10
359.4755859375
 20
-416.93115234375
 10
359.4755859375
 20
-416.93115234375
 10
359.4755859375
 20
-416.93115234375
 10
355.79296875
 20
-416.93115234375
 10
355.79296875
 20
-416.93115234375
 10
355.79296875
 20
-416.93115234375
 10
355.79296875
 20
-404.9340820312499
 10
355.79296875
 20
-404.9340820312499
 10
355.79296875
 20
-404.9340820312499
 10
359.4755859375
 20
-404.9340820312499
 10
359.4755859375
 20
-404.9340820312499
 97
        0
 97
        1
330
85
 75
     2
 76
     1
 98
        1
 10
0.0
 20
0.0
450
        0
451
        0
460
0.0
461
0.0
452
        0
462
0.0
453
        0
470

  0
SPLINE
  5
87
330
81
100
AcDbEntity
  8
Layer 1
100
AcDbSpline
210
0.0
220
0.0
230
1.0
 70
    11
 71
     3
 72
    35
 73
    31
 74
     0
 42
0.0000000001
 43
0.0000000001
 40
0.0
 40
0.0
 40
0.0
 40
0.0
 40
1.0
 40
1.0
 40
1.0
 40
2.0
 40
2.0
 40
2.0
 40
3.0
 40
3.0
 40
3.0
 40
4.0
 40
4.0
 40
4.0
 40
5.0
 40
5.0
 40
5.0
 40
6.0
 40
6.0
 40
6.0
 40
7.0
 40
7.0
 40
7.0
 40
8.0
 40
8.0
 40
8.0
 40
9.0
 40
9.0
 40
9.0
 40
10.0
 40
10.0
 40
10.0
 40
10.0
 10
328.634765625
 20
-434.0400390624999
 30
0.0
 10
328.634765625
 20
-434.0400390624999
 30
0.0
 10
324.7236328125
 20
-434.0400390624999
 30
0.0
 10
324.7236328125
 20
-434.0400390624999
 30
0.0
 10
324.7236328125
 20
-434.0400390624999
 30
0.0
 10
324.7236328125
 20
-438.53125
 30
0.0
 10
324.7236328125
 20
-438.53125
 30
0.0
 10
324.7236328125
 20
-438.53125
 30
0.0
 10
321.1376953125
 20
-438.53125
 30
0.0
 10
321.1376953125
 20
-438.53125
 30
0.0
 10
321.1376953125
 20
-438.53125
 30
0.0
 10
321.1376953125
 20
-426.5341796875
 30
0.0
 10
321.1376953125
 20
-426.5341796875
 30
0.0
 10
321.1376953125
 20
-426.5341796875
 30
0.0
 10
329.8125
 20
-426.5341796875
 30
0.0
 10
329.8125
 20
-426.5341796875
 30
0.0
 10
329.8125
 20
-426.5341796875
 30
0.0
 10
329.8125
 20
-429.390625
 30
0.0
 10
329.8125
 20
-429.390625
 30
0.0
 10
329.8125
 20
-429.390625
 30
0.0
 10
324.7236328125
 20
-429.390625
 30
0.0
 10
324.7236328125
 20
-429.390625
 30
0.0
 10
324.7236328125
 20
-429.390625
 30
0.0
 10
324.7236328125
 20
-431.341796875
 30
0.0
 10
324.7236328125
 20
-431.341796875
 30
0.0
 10
324.7236328125
 20
-431.341796875
 30
0.0
 10
328.634765625
 20
-431.341796875
 30
0.0
 10
328.634765625
 20
-431.341796875
 30
0.0
 10
328.634765625
 20
-431.341796875
 30
0.0
 10
328.634765625
 20
-434.0400390624999
 30
0.0
 10
328.634765625
 20
-434.0400390624999
 30
0.0
  0
HATCH
  5
88
330
81
100
AcDbEntity
  8
Layer 1
 62
   250
420
  2301728
440
 33554687
100
AcDbHatch
 10
0.0
 20
0.0
 30
0.0
210
0.0
220
0.0
230
1.0
  2
SOLID
 70
     1
 71
     1
 91
        1
 92
        1
 93
        1
 72
     4
 94
        3
 73
     0
 74
     0
 95
       35
 96
       31
 40
0.0
 40
0.0
 40
0.0
 40
0.0
 40
1.0
 40
1.0
 40
1.0
 40
2.0
 40
2.0
 40
2.0
 40
3.0
 40
3.0
 40
3.0
 40
4.0
 40
4.0
 40
4.0
 40
5.0
 40
5.0
 40
5.0
 40
6.0
 40
6.0
 40
6.0
 40
7.0
 40
7.0
 40
7.0
 40
8.0
 40
8.0
 40
8.0
 40
9.0
 40
9.0
 40
9.0
 40
10.0
 40
10.0
 40
10.0
 40
10.0
 10
328.634765625
 20
-434.0400390624999
 10
328.634765625
 20
-434.0400390624999
 10
324.7236328125
 20
-434.0400390624999
 10
324.7236328125
 20
-434.0400390624999
 10
324.7236328125
 20
-434.0400390624999
 10
324.7236328125
 20
-438.53125
 10
324.7236328125
 20
-438.53125
 10
324.7236328125
 20
-438.53125
 10
321.1376953125
 20
-438.53125
 10
321.1376953125
 20
-438.53125
 10
321.1376953125
 20
-438.53125
 10
321.1376953125
 20
-426.5341796875
 10
321.1376953125
 20
-426.5341796875
 10
321.1376953125
 20
-426.5341796875
 10
329.8125
 20
-426.5341796875
 10
329.8125
 20
-426.5341796875
 10
329.8125
 20
-426.5341796875
 10
329.8125
 20
-429.390625
 10
329.8125
 20
-429.390625
 10
329.8125
 20
-429.390625
 10
324.7236328125
 20
-429.390625
 10
324.7236328125
 20
-429.390625
 10
324.7236328125
 20
-429.390625
 10
324.7236328125
 20
-431.341796875
 10
324.7236328125
 20
-431.341796875
 10
324.7236328125
 20
-431.341796875
 10
328.634765625
 20
-431.341796875
 10
328.634765625
 20
-431.341796875
 10
328.634765625
 20
-431.341796875
 10
328.634765625
 20
-434.0400390624999
 10
328.634765625
 20
-434.0400390624999
 97
        0
 97
        1
330
87
 75
     2
 76
     1
 98
        1
 10
0.0
 20
0.0
450
        0
451
        0
460
0.0
461
0.0
452
        0
462
0.0
453
        0
470

  0
SPLINE
  5
89
330
81
100
AcDbEntity
  8
Layer 1
100
AcDbSpline
210
0.0
220
0.0
230
1.0
 70
    11
 71
     3
 72
    50
 73
    46
 74
     0
 42
0.0000000001
 43
0.0000000001
 40
0.0
 40
0.0
 40
0.0
 40
0.0
 40
1.0
 40
1.0
 40
1.0
 40
2.0
 40
2.0
 40
2.0
 40
3.0
 40
3.0
 40
3.0
 40
4.0
 40
4.0
 40
4.0
 40
5.0
 40
5.0
 40
5.0
 40
6.0
 40
6.0
 40
6.0
 40
7.0
 40
7.0
 40
7.0
 40
8.0
 40
8.0
 40
8.0
 40
9.0
 40
9.0
 40
9.0
 40
10.0
 40
10.0
 40
10.0
 40
11.0
 40
11.0
 40
11.0
 40
12.0
 40
12.0
 40
12.0
 40
13.0
 40
13.0
 40
13.0
 40
14.0
 40
14.0
 40
14.0
 40
15.0
 40
15.0
 40
15.0
 40
15.0
 10
340.7109375
 20
-426.5341796875
 30
0.0
 10
340.7109375
 20
-426.5341796875
 30
0.0
 10
340.7109375
 20
-434.4794921874999
 30
0.0
 10
340.7109375
 20
-434.4794921874999
 30
0.0
 10
340.7109375
 20
-435.9853515624999
 30
0.0
 10
340.263671875
 20
-437.0683593749999
 30
0.0
 10
339.3701171875
 20
-437.7275390624999
 30
0.0
 10
338.4765625
 20
-438.3867187499999
 30
0.0
 10
337.3125
 20
-438.7158203124999
 30
0.0
 10
335.876953125
 20
-438.7158203124999
 30
0.0
 10
334.365234375
 20
-438.7158203124999
 30
0.0
 10
333.150390625
 20
-438.3994140625
 30
0.0
 10
332.2333984375
 20
-437.7666015625
 30
0.0
 10
331.31640625
 20
-437.1337890625
 30
0.0
 10
330.8583984375
 20
-436.1025390625
 30
0.0
 10
330.8583984375
 20
-434.6728515625
 30
0.0
 10
330.8583984375
 20
-434.6728515625
 30
0.0
 10
330.8583984375
 20
-426.5341796875
 30
0.0
 10
330.8583984375
 20
-426.5341796875
 30
0.0
 10
330.8583984375
 20
-426.5341796875
 30
0.0
 10
334.6025390625
 20
-426.5341796875
 30
0.0
 10
334.6025390625
 20
-426.5341796875
 30
0.0
 10
334.6025390625
 20
-426.5341796875
 30
0.0
 10
334.6025390625
 20
-434.2421875
 30
0.0
 10
334.6025390625
 20
-434.2421875
 30
0.0
 10
334.6025390625
 20
-434.81640625
 30
0.0
 10
334.7236328125
 20
-435.2353515625
 30
0.0
 10
334.9658203125
 20
-435.4990234375
 30
0.0
 10
335.2080078125
 20
-435.7626953125
 30
0.0
 10
335.595703125
 20
-435.89453125
 30
0.0
 10
336.1279296875
 20
-435.89453125
 30
0.0
 10
336.5712890625
 20
-435.89453125
 30
0.0
 10
336.935546875
 20
-435.7998046875
 30
0.0
 10
337.21875
 20
-435.609375
 30
0.0
 10
337.501953125
 20
-435.4189453125
 30
0.0
 10
337.671875
 20
-435.203125
 30
0.0
 10
337.7265625
 20
-434.962890625
 30
0.0
 10
337.7822265625
 20
-434.72265625
 30
0.0
 10
337.810546875
 20
-434.25390625
 30
0.0
 10
337.810546875
 20
-433.5566406249999
 30
0.0
 10
337.810546875
 20
-433.5566406249999
 30
0.0
 10
337.810546875
 20
-426.5341796875
 30
0.0
 10
337.810546875
 20
-426.5341796875
 30
0.0
 10
337.810546875
 20
-426.5341796875
 30
0.0
 10
340.7109375
 20
-426.5341796875
 30
0.0
 10
340.7109375
 20
-426.5341796875
 30
0.0
  0
HATCH
  5
8A
330
81
100
AcDbEntity
  8
Layer 1
 62
   250
420
  2301728
440
 33554687
100
AcDbHatch
 10
0.0
 20
0.0
 30
0.0
210
0.0
220
0.0
230
1.0
  2
SOLID
 70
     1
 71
     1
 91
        1
 92
        1
 93
        1
 72
     4
 94
        3
 73
     0
 74
     0
 95
       50
 96
       46
 40
0.0
 40
0.0
 40
0.0
 40
0.0
 40
1.0
 40
1.0
 40
1.0
 40
2.0
 40
2.0
 40
2.0
 40
3.0
 40
3.0
 40
3.0
 40
4.0
 40
4.0
 40
4.0
 40
5.0
 40
5.0
 40
5.0
 40
6.0
 40
6.0
 40
6.0
 40
7.0
 40
7.0
 40
7.0
 40
8.0
 40
8.0
 40
8.0
 40
9.0
 40
9.0
 40
9.0
 40
10.0
 40
10.0
 40
10.0
 40
11.0
 40
11.0
 40
11.0
 40
12.0
 40
12.0
 40
12.0
 40
13.0
 40
13.0
 40
13.0
 40
14.0
 40
14.0
 40
14.0
 40
15.0
 40
15.0
 40
15.0
 40
15.0
 10
340.7109375
 20
-426.5341796875
 10
340.7109375
 20
-426.5341796875
 10
340.7109375
 20
-434.4794921874999
 10
340.7109375
 20
-434.4794921874999
 10
340.7109375
 20
-435.9853515624999
 10
340.263671875
 20
-437.0683593749999
 10
339.3701171875
 20
-437.7275390624999
 10
338.4765625
 20
-438.3867187499999
 10
337.3125
 20
-438.7158203124999
 10
335.876953125
 20
-438.7158203124999
 10
334.365234375
 20
-438.7158203124999
 10
333.150390625
 20
-438.3994140625
 10
332.2333984375
 20
-437.7666015625
 10
331.31640625
 20
-437.1337890625
 10
330.8583984375
 20
-436.1025390625
 10
330.8583984375
 20
-434.6728515625
 10
330.8583984375
 20
-434.6728515625
 10
330.8583984375
 20
-426.5341796875
 10
330.8583984375
 20
-426.5341796875
 10
330.8583984375
 20
-426.5341796875
 10
334.6025390625
 20
-426.5341796875
 10
334.6025390625
 20
-426.5341796875
 10
334.6025390625
 20
-426.5341796875
 10
334.6025390625
 20
-434.2421875
 10
334.6025390625
 20
-434.2421875
 10
334.6025390625
 20
-434.81640625
 10
334.7236328125
 20
-435.2353515625
 10
334.9658203125
 20
-435.4990234375
 10
335.2080078125
 20
-435.7626953125
 10
335.595703125
 20
-435.89453125
 10
336.1279296875
 20
-435.89453125
 10
336.5712890625
 20
-435.89453125
 10
336.935546875
 20
-435.7998046875
 10
337.21875
 20
-435.609375
 10
337.501953125
 20
-435.4189453125
 10
337.671875
 20
-435.203125
 10
337.7265625
 20
-434.962890625
 10
337.7822265625
 20
-434.72265625
 10
337.810546875
 20
-434.25390625
 10
337.810546875
 20
-433.5566406249999
 10
337.810546875
 20
-433.5566406249999
 10
337.810546875
 20
-426.5341796875
 10
337.810546875
 20
-426.5341796875
 10
337.810546875
 20
-426.5341796875
 10
340.7109375
 20
-426.5341796875
 10
340.7109375
 20
-426.5341796875
 97
        0
 97
        1
330
89
 75
     2
 76
     1
 98
        1
 10
0.0
 20
0.0
450
        0
451
        0
460
0.0
461
0.0
452
        0
462
0.0
453
        0
470

  0
SPLINE
  5
8B
330
81
100
AcDbEntity
  8
Layer 1
100
AcDbSpline
210
0.0
220
0.0
230
1.0
 70
     9
 71
     3
 72
    53
 73
    49
 74
     0
 42
0.0000000001
 43
0.0000000001
 40
0.0
 40
0.0
 40
0.0
 40
0.0
 40
1.0
 40
1.0
 40
1.0
 40
2.0
 40
2.0
 40
2.0
 40
3.0
 40
3.0
 40
3.0
 40
4.0
 40
4.0
 40
4.0
 40
5.0
 40
5.0
 40
5.0
 40
6.0
 40
6.0
 40
6.0
 40
7.0
 40
7.0
 40
7.0
 40
8.0
 40
8.0
 40
8.0
 40
9.0
 40
9.0
 40
9.0
 40
10.0
 40
10.0
 40
10.0
 40
11.0
 40
11.0
 40
11.0
 40
12.0
 40
12.0
 40
12.0
 40
13.0
 40
13.0
 40
13.0
 40
14.0
 40
14.0
 40
14.0
 40
15.0
 40
15.0
 40
15.0
 40
16.0
 40
16.0
 40
16.0
 40
16.0
 10
349.2802734375
 20
-433.9521484375
 30
0.0
 10
349.2802734375
 20
-433.9521484375
 30
0.0
 10
352.646484375
 20
-434.1542968749999
 30
0.0
 10
352.646484375
 20
-434.1542968749999
 30
0.0
 10
352.48828125
 20
-435.625
 30
0.0
 10
351.9443359375
 20
-436.7529296875
 30
0.0
 10
351.015625
 20
-437.5380859375
 30
0.0
 10
350.0869140625
 20
-438.3232421875
 30
0.0
 10
348.9462890625
 20
-438.7158203124999
 30
0.0
 10
347.5927734375
 20
-438.7158203124999
 30
0.0
 10
345.9638671875
 20
-438.7158203124999
 30
0.0
 10
344.6484375
 20
-438.1767578125
 30
0.0
 10
343.646484375
 20
-437.0986328125
 30
0.0
 10
342.64453125
 20
-436.0205078125
 30
0.0
 10
342.1435546875
 20
-434.5322265624999
 30
0.0
 10
342.1435546875
 20
-432.6337890625
 30
0.0
 10
342.1435546875
 20
-430.7529296874999
 30
0.0
 10
342.6181640625
 20
-429.2353515624999
 30
0.0
 10
343.5673828125
 20
-428.0810546875
 30
0.0
 10
344.5166015625
 20
-426.9267578125
 30
0.0
 10
345.8408203125
 20
-426.3496093749999
 30
0.0
 10
347.5400390625
 20
-426.3496093749999
 30
0.0
 10
349.1279296875
 20
-426.3496093749999
 30
0.0
 10
350.34765625
 20
-426.7890624999999
 30
0.0
 10
351.2001953125
 20
-427.6679687499999
 30
0.0
 10
352.052734375
 20
-428.5468749999999
 30
0.0
 10
352.53515625
 20
-429.712890625
 30
0.0
 10
352.646484375
 20
-431.166015625
 30
0.0
 10
352.646484375
 20
-431.166015625
 30
0.0
 10
349.2099609375
 20
-431.3505859374999
 30
0.0
 10
349.2099609375
 20
-431.3505859374999
 30
0.0
 10
349.2099609375
 20
-430.5478515625
 30
0.0
 10
349.0556640625
 20
-429.9677734374999
 30
0.0
 10
348.748046875
 20
-429.6103515625
 30
0.0
 10
348.4404296875
 20
-429.2529296875
 30
0.0
 10
348.0791015625
 20
-429.07421875
 30
0.0
 10
347.6630859375
 20
-429.07421875
 30
0.0
 10
346.5029296875
 20
-429.07421875
 30
0.0
 10
345.9228515625
 20
-430.2402343749999
 30
0.0
 10
345.9228515625
 20
-432.5722656249999
 30
0.0
 10
345.9228515625
 20
-433.87890625
 30
0.0
 10
346.0732421875
 20
-434.7666015625
 30
0.0
 10
346.375
 20
-435.2353515625
 30
0.0
 10
346.6767578125
 20
-435.7041015624999
 30
0.0
 10
347.1005859375
 20
-435.9384765625
 30
0.0
 10
347.6455078125
 20
-435.9384765625
 30
0.0
 10
348.6181640625
 20
-435.9384765625
 30
0.0
 10
349.1630859375
 20
-435.2763671875
 30
0.0
 10
349.2802734375
 20
-433.9521484375
 30
0.0
  0
HATCH
  5
8C
330
81
100
AcDbEntity
  8
Layer 1
 62
   250
420
  2301728
440
 33554687
100
AcDbHatch
 10
0.0
 20
0.0
 30
0.0
210
0.0
220
0.0
230
1.0
  2
SOLID
 70
     1
 71
     1
 91
        1
 92
        1
 93
        1
 72
     4
 94
        3
 73
     0
 74
     0
 95
       53
 96
       49
 40
0.0
 40
0.0
 40
0.0
 40
0.0
 40
1.0
 40
1.0
 40
1.0
 40
2.0
 40
2.0
 40
2.0
 40
3.0
 40
3.0
 40
3.0
 40
4.0
 40
4.0
 40
4.0
 40
5.0
 40
5.0
 40
5.0
 40
6.0
 40
6.0
 40
6.0
 40
7.0
 40
7.0
 40
7.0
 40
8.0
 40
8.0
 40
8.0
 40
9.0
 40
9.0
 40
9.0
 40
10.0
 40
10.0
 40
10.0
 40
11.0
 40
11.0
 40
11.0
 40
12.0
 40
12.0
 40
12.0
 40
13.0
 40
13.0
 40
13.0
 40
14.0
 40
14.0
 40
14.0
 40
15.0
 40
15.0
 40
15.0
 40
16.0
 40
16.0
 40
16.0
 40
16.0
 10
349.2802734375
 20
-433.9521484375
 10
349.2802734375
 20
-433.9521484375
 10
352.646484375
 20
-434.1542968749999
 10
352.646484375
 20
-434.1542968749999
 10
352.48828125
 20
-435.625
 10
351.9443359375
 20
-436.7529296875
 10
351.015625
 20
-437.5380859375
 10
350.0869140625
 20
-438.3232421875
 10
348.9462890625
 20
-438.7158203124999
 10
347.5927734375
 20
-438.7158203124999
 10
345.9638671875
 20
-438.7158203124999
 10
344.6484375
 20
-438.1767578125
 10
343.646484375
 20
-437.0986328125
 10
342.64453125
 20
-436.0205078125
 10
342.1435546875
 20
-434.5322265624999
 10
342.1435546875
 20
-432.6337890625
 10
342.1435546875
 20
-430.7529296874999
 10
342.6181640625
 20
-429.2353515624999
 10
343.5673828125
 20
-428.0810546875
 10
344.5166015625
 20
-426.9267578125
 10
345.8408203125
 20
-426.3496093749999
 10
347.5400390625
 20
-426.3496093749999
 10
349.1279296875
 20
-426.3496093749999
 10
350.34765625
 20
-426.7890624999999
 10
351.2001953125
 20
-427.6679687499999
 10
352.052734375
 20
-428.5468749999999
 10
352.53515625
 20
-429.712890625
 10
352.646484375
 20
-431.166015625
 10
352.646484375
 20
-431.166015625
 10
349.2099609375
 20
-431.3505859374999
 10
349.2099609375
 20
-431.3505859374999
 10
349.2099609375
 20
-430.5478515625
 10
349.0556640625
 20
-429.9677734374999
 10
348.748046875
 20
-429.6103515625
 10
348.4404296875
 20
-429.2529296875
 10
348.0791015625
 20
-429.07421875
 10
347.6630859375
 20
-429.07421875
 10
346.5029296875
 20
-429.07421875
 10
345.9228515625
 20
-430.2402343749999
 10
345.9228515625
 20
-432.5722656249999
 10
345.9228515625
 20
-433.87890625
 10
346.0732421875
 20
-434.7666015625
 10
346.375
 20
-435.2353515625
 10
346.6767578125
 20
-435.7041015624999
 10
347.1005859375
 20
-435.9384765625
 10
347.6455078125
 20
-435.9384765625
 10
348.6181640625
 20
-435.9384765625
 10
349.1630859375
 20
-435.2763671875
 10
349.2802734375
 20
-433.9521484375
 97
        0
 97
        1
330
8B
 75
     2
 76
     1
 98
        1
 10
0.0
 20
0.0
450
        0
451
        0
460
0.0
461
0.0
452
        0
462
0.0
453
        0
470

  0
SPLINE
  5
8D
330
81
100
AcDbEntity
  8
Layer 1
100
AcDbSpline
210
0.0
220
0.0
230
1.0
 70
    11
 71
     3
 72
    41
 73
    37
 74
     0
 42
0.0000000001
 43
0.0000000001
 40
0.0
 40
0.0
 40
0.0
 40
0.0
 40
1.0
 40
1.0
 40
1.0
 40
2.0
 40
2.0
 40
2.0
 40
3.0
 40
3.0
 40
3.0
 40
4.0
 40
4.0
 40
4.0
 40
5.0
 40
5.0
 40
5.0
 40
6.0
 40
6.0
 40
6.0
 40
7.0
 40
7.0
 40
7.0
 40
8.0
 40
8.0
 40
8.0
 40
9.0
 40
9.0
 40
9.0
 40
10.0
 40
10.0
 40
10.0
 40
11.0
 40
11.0
 40
11.0
 40
12.0
 40
12.0
 40
12.0
 40
12.0
 10
364.810546875
 20
-438.53125
 30
0.0
 10
364.810546875
 20
-438.53125
 30
0.0
 10
360.78125
 20
-438.53125
 30
0.0
 10
360.78125
 20
-438.53125
 30
0.0
 10
360.78125
 20
-438.53125
 30
0.0
 10
358.70703125
 20
-433.998046875
 30
0.0
 10
358.70703125
 20
-433.998046875
 30
0.0
 10
358.70703125
 20
-433.998046875
 30
0.0
 10
357.462890625
 20
-435.7626953125
 30
0.0
 10
357.462890625
 20
-435.7626953125
 30
0.0
 10
357.462890625
 20
-435.7626953125
 30
0.0
 10
357.462890625
 20
-438.53125
 30
0.0
 10
357.462890625
 20
-438.53125
 30
0.0
 10
357.462890625
 20
-438.53125
 30
0.0
 10
353.9912109375
 20
-438.53125
 30
0.0
 10
353.9912109375
 20
-438.53125
 30
0.0
 10
353.9912109375
 20
-438.53125
 30
0.0
 10
353.9912109375
 20
-426.5341796875
 30
0.0
 10
353.9912109375
 20
-426.5341796875
 30
0.0
 10
353.9912109375
 20
-426.5341796875
 30
0.0
 10
357.462890625
 20
-426.5341796875
 30
0.0
 10
357.462890625
 20
-426.5341796875
 30
0.0
 10
357.462890625
 20
-426.5341796875
 30
0.0
 10
357.462890625
 20
-431.4951171875
 30
0.0
 10
357.462890625
 20
-431.4951171875
 30
0.0
 10
357.462890625
 20
-431.4951171875
 30
0.0
 10
360.771484375
 20
-426.5341796875
 30
0.0
 10
360.771484375
 20
-426.5341796875
 30
0.0
 10
360.771484375
 20
-426.5341796875
 30
0.0
 10
364.0810546875
 20
-426.5341796875
 30
0.0
 10
364.0810546875
 20
-426.5341796875
 30
0.0
 10
364.0810546875
 20
-426.5341796875
 30
0.0
 10
361.05078125
 20
-430.9248046875
 30
0.0
 10
361.05078125
 20
-430.9248046875
 30
0.0
 10
361.05078125
 20
-430.9248046875
 30
0.0
 10
364.810546875
 20
-438.53125
 30
0.0
 10
364.810546875
 20
-438.53125
 30
0.0
  0
HATCH
  5
8E
330
81
100
AcDbEntity
  8
Layer 1
 62
   250
420
  2301728
440
 33554687
100
AcDbHatch
 10
0.0
 20
0.0
 30
0.0
210
0.0
220
0.0
230
1.0
  2
SOLID
 70
     1
 71
     1
 91
        1
 92
        1
 93
        1
 72
     4
 94
        3
 73
     0
 74
     0
 95
       41
 96
       37
 40
0.0
 40
0.0
 40
0.0
 40
0.0
 40
1.0
 40
1.0
 40
1.0
 40
2.0
 40
2.0
 40
2.0
 40
3.0
 40
3.0
 40
3.0
 40
4.0
 40
4.0
 40
4.0
 40
5.0
 40
5.0
 40
5.0
 40
6.0
 40
6.0
 40
6.0
 40
7.0
 40
7.0
 40
7.0
 40
8.0
 40
8.0
 40
8.0
 40
9.0
 40
9.0
 40
9.0
 40
10.0
 40
10.0
 40
10.0
 40
11.0
 40
11.0
 40
11.0
 40
12.0
 40
12.0
 40
12.0
 40
12.0
 10
364.810546875
 20
-438.53125
 10
364.810546875
 20
-438.53125
 10
360.78125
 20
-438.53125
 10
360.78125
 20
-438.53125
 10
360.78125
 20
-438.53125
 10
358.70703125
 20
-433.998046875
 10
358.70703125
 20
-433.998046875
 10
358.70703125
 20
-433.998046875
 10
357.462890625
 20
-435.7626953125
 10
357.462890625
 20
-435.7626953125
 10
357.462890625
 20
-435.7626953125
 10
357.462890625
 20
-438.53125
 10
357.462890625
 20
-438.53125
 10
357.462890625
 20
-438.53125
 10
353.9912109375
 20
-438.53125
 10
353.9912109375
 20
-438.53125
 10
353.9912109375
 20
-438.53125
 10
353.9912109375
 20
-426.5341796875
 10
353.9912109375
 20
-426.5341796875
 10
353.9912109375
 20
-426.5341796875
 10
357.462890625
 20
-426.5341796875
 10
357.462890625
 20
-426.5341796875
 10
357.462890625
 20
-426.5341796875
 10
357.462890625
 20
-431.4951171875
 10
357.462890625
 20
-431.4951171875
 10
357.462890625
 20
-431.4951171875
 10
360.771484375
 20
-426.5341796875
 10
360.771484375
 20
-426.5341796875
 10
360.771484375
 20
-426.5341796875
 10
364.0810546875
 20
-426.5341796875
 10
364.0810546875
 20
-426.5341796875
 10
364.0810546875
 20
-426.5341796875
 10
361.05078125
 20
-430.9248046875
 10
361.05078125
 20
-430.9248046875
 10
361.05078125
 20
-430.9248046875
 10
364.810546875
 20
-438.53125
 10
364.810546875
 20
-438.53125
 97
        0
 97
        1
330
8D
 75
     2
 76
     1
 98
        1
 10
0.0
 20
0.0
450
        0
451
        0
460
0.0
461
0.0
452
        0
462
0.0
453
        0
470

  0
SPLINE
  5
8F
330
81
100
AcDbEntity
  8
Layer 1
100
AcDbSpline
210
0.0
220
0.0
230
1.0
 70
    11
 71
     3
 72
    17
 73
    13
 74
     0
 42
0.0000000001
 43
0.0000000001
 40
0.0
 40
0.0
 40
0.0
 40
0.0
 40
1.0
 40
1.0
 40
1.0
 40
2.0
 40
2.0
 40
2.0
 40
3.0
 40
3.0
 40
3.0
 40
4.0
 40
4.0
 40
4.0
 40
4.0
 10
369.4775390625
 20
-426.5341796875
 30
0.0
 10
369.4775390625
 20
-426.5341796875
 30
0.0
 10
369.4775390625
 20
-438.53125
 30
0.0
 10
369.4775390625
 20
-438.53125
 30
0.0
 10
369.4775390625
 20
-438.53125
 30
0.0
 10
365.794921875
 20
-438.53125
 30
0.0
 10
365.794921875
 20
-438.53125
 30
0.0
 10
365.794921875
 20
-438.53125
 30
0.0
 10
365.794921875
 20
-426.5341796875
 30
0.0
 10
365.794921875
 20
-426.5341796875
 30
0.0
 10
365.794921875
 20
-426.5341796875
 30
0.0
 10
369.4775390625
 20
-426.5341796875
 30
0.0
 10
369.4775390625
 20
-426.5341796875
 30
0.0
  0
HATCH
  5
90
330
81
100
AcDbEntity
  8
Layer 1
 62
   250
420
  2301728
440
 33554687
100
AcDbHatch
 10
0.0
 20
0.0
 30
0.0
210
0.0
220
0.0
230
1.0
  2
SOLID
 70
     1
 71
     1
 91
        1
 92
        1
 93
        1
 72
     4
 94
        3
 73
     0
 74
     0
 95
       17
 96
       13
 40
0.0
 40
0.0
 40
0.0
 40
0.0
 40
1.0
 40
1.0
 40
1.0
 40
2.0
 40
2.0
 40
2.0
 40
3.0
 40
3.0
 40
3.0
 40
4.0
 40
4.0
 40
4.0
 40
4.0
 10
369.4775390625
 20
-426.5341796875
 10
369.4775390625
 20
-426.5341796875
 10
369.4775390625
 20
-438.53125
 10
369.4775390625
 20
-438.53125
 10
369.4775390625
 20
-438.53125
 10
365.794921875
 20
-438.53125
 10
365.794921875
 20
-438.53125
 10
365.794921875
 20
-438.53125
 10
365.794921875
 20
-426.5341796875
 10
365.794921875
 20
-426.5341796875
 10
365.794921875
 20
-426.5341796875
 10
369.4775390625
 20
-426.5341796875
 10
369.4775390625
 20
-426.5341796875
 97
        0
 97
        1
330
8F
 75
     2
 76
     1
 98
        1
 10
0.0
 20
0.0
450
        0
451
        0
460
0.0
461
0.0
452
        0
462
0.0
453
        0
470

  0
SPLINE
  5
91
330
81
100
AcDbEntity
  8
Layer 1
100
AcDbSpline
210
0.0
220
0.0
230
1.0
 70
    11
 71
     3
 72
    47
 73
    43
 74
     0
 42
0.0000000001
 43
0.0000000001
 40
0.0
 40
0.0
 40
0.0
 40
0.0
 40
1.0
 40
1.0
 40
1.0
 40
2.0
 40
2.0
 40
2.0
 40
3.0
 40
3.0
 40
3.0
 40
4.0
 40
4.0
 40
4.0
 40
5.0
 40
5.0
 40
5.0
 40
6.0
 40
6.0
 40
6.0
 40
7.0
 40
7.0
 40
7.0
 40
8.0
 40
8.0
 40
8.0
 40
9.0
 40
9.0
 40
9.0
 40
10.0
 40
10.0
 40
10.0
 40
11.0
 40
11.0
 40
11.0
 40
12.0
 40
12.0
 40
12.0
 40
13.0
 40
13.0
 40
13.0
 40
14.0
 40
14.0
 40
14.0
 40
14.0
 10
381.826171875
 20
-438.53125
 30
0.0
 10
381.826171875
 20
-438.53125
 30
0.0
 10
378.8291015625
 20
-438.53125
 30
0.0
 10
378.8291015625
 20
-438.53125
 30
0.0
 10
378.8291015625
 20
-438.53125
 30
0.0
 10
375.54296875
 20
-433.2304687499999
 30
0.0
 10
375.54296875
 20
-433.2304687499999
 30
0.0
 10
375.1220703125
 20
-432.5507812499999
 30
0.0
 10
374.6962890625
 20
-431.7255859374999
 30
0.0
 10
374.267578125
 20
-430.7529296874999
 30
0.0
 10
374.4609375
 20
-431.5263671874999
 30
0.0
 10
374.5576171875
 20
-432.1826171875
 30
0.0
 10
374.5576171875
 20
-432.7216796874999
 30
0.0
 10
374.5576171875
 20
-432.7216796874999
 30
0.0
 10
374.5576171875
 20
-438.53125
 30
0.0
 10
374.5576171875
 20
-438.53125
 30
0.0
 10
374.5576171875
 20
-438.53125
 30
0.0
 10
371.5693359375
 20
-438.53125
 30
0.0
 10
371.5693359375
 20
-438.53125
 30
0.0
 10
371.5693359375
 20
-438.53125
 30
0.0
 10
371.5693359375
 20
-426.5341796875
 30
0.0
 10
371.5693359375
 20
-426.5341796875
 30
0.0
 10
371.5693359375
 20
-426.5341796875
 30
0.0
 10
375.0498046875
 20
-426.5341796875
 30
0.0
 10
375.0498046875
 20
-426.5341796875
 30
0.0
 10
375.0498046875
 20
-426.5341796875
 30
0.0
 10
377.8447265625
 20
-430.9287109375
 30
0.0
 10
377.8447265625
 20
-430.9287109375
 30
0.0
 10
378.4013671875
 20
-431.8017578125
 30
0.0
 10
378.8232421875
 20
-432.5693359375
 30
0.0
 10
379.1103515625
 20
-433.2314453124999
 30
0.0
 10
378.9228515625
 20
-432.2060546874999
 30
0.0
 10
378.8291015625
 20
-431.1572265625
 30
0.0
 10
378.8291015625
 20
-430.0849609374999
 30
0.0
 10
378.8291015625
 20
-430.0849609374999
 30
0.0
 10
378.8291015625
 20
-426.5341796875
 30
0.0
 10
378.8291015625
 20
-426.5341796875
 30
0.0
 10
378.8291015625
 20
-426.5341796875
 30
0.0
 10
381.826171875
 20
-426.5341796875
 30
0.0
 10
381.826171875
 20
-426.5341796875
 30
0.0
 10
381.826171875
 20
-426.5341796875
 30
0.0
 10
381.826171875
 20
-438.53125
 30
0.0
 10
381.826171875
 20
-438.53125
 30
0.0
  0
HATCH
  5
92
330
81
100
AcDbEntity
  8
Layer 1
 62
   250
420
  2301728
440
 33554687
100
AcDbHatch
 10
0.0
 20
0.0
 30
0.0
210
0.0
220
0.0
230
1.0
  2
SOLID
 70
     1
 71
     1
 91
        1
 92
        1
 93
        1
 72
     4
 94
        3
 73
     0
 74
     0
 95
       47
 96
       43
 40
0.0
 40
0.0
 40
0.0
 40
0.0
 40
1.0
 40
1.0
 40
1.0
 40
2.0
 40
2.0
 40
2.0
 40
3.0
 40
3.0
 40
3.0
 40
4.0
 40
4.0
 40
4.0
 40
5.0
 40
5.0
 40
5.0
 40
6.0
 40
6.0
 40
6.0
 40
7.0
 40
7.0
 40
7.0
 40
8.0
 40
8.0
 40
8.0
 40
9.0
 40
9.0
 40
9.0
 40
10.0
 40
10.0
 40
10.0
 40
11.0
 40
11.0
 40
11.0
 40
12.0
 40
12.0
 40
12.0
 40
13.0
 40
13.0
 40
13.0
 40
14.0
 40
14.0
 40
14.0
 40
14.0
 10
381.826171875
 20
-438.53125
 10
381.826171875
 20
-438.53125
 10
378.8291015625
 20
-438.53125
 10
378.8291015625
 20
-438.53125
 10
378.8291015625
 20
-438.53125
 10
375.54296875
 20
-433.2304687499999
 10
375.54296875
 20
-433.2304687499999
 10
375.1220703125
 20
-432.5507812499999
 10
374.6962890625
 20
-431.7255859374999
 10
374.267578125
 20
-430.7529296874999
 10
374.4609375
 20
-431.5263671874999
 10
374.5576171875
 20
-432.1826171875
 10
374.5576171875
 20
-432.7216796874999
 10
374.5576171875
 20
-432.7216796874999
 10
374.5576171875
 20
-438.53125
 10
374.5576171875
 20
-438.53125
 10
374.5576171875
 20
-438.53125
 10
371.5693359375
 20
-438.53125
 10
371.5693359375
 20
-438.53125
 10
371.5693359375
 20
-438.53125
 10
371.5693359375
 20
-426.5341796875
 10
371.5693359375
 20
-426.5341796875
 10
371.5693359375
 20
-426.5341796875
 10
375.0498046875
 20
-426.5341796875
 10
375.0498046875
 20
-426.5341796875
 10
375.0498046875
 20
-426.5341796875
 10
377.8447265625
 20
-430.9287109375
 10
377.8447265625
 20
-430.9287109375
 10
378.4013671875
 20
-431.8017578125
 10
378.8232421875
 20
-432.5693359375
 10
379.1103515625
 20
-433.2314453124999
 10
378.9228515625
 20
-432.2060546874999
 10
378.8291015625
 20
-431.1572265625
 10
378.8291015625
 20
-430.0849609374999
 10
378.8291015625
 20
-430.0849609374999
 10
378.8291015625
 20
-426.5341796875
 10
378.8291015625
 20
-426.5341796875
 10
378.8291015625
 20
-426.5341796875
 10
381.826171875
 20
-426.5341796875
 10
381.826171875
 20
-426.5341796875
 10
381.826171875
 20
-426.5341796875
 10
381.826171875
 20
-438.53125
 10
381.826171875
 20
-438.53125
 97
        0
 97
        1
330
91
 75
     2
 76
     1
 98
        1
 10
0.0
 20
0.0
450
        0
451
        0
460
0.0
461
0.0
452
        0
462
0.0
453
        0
470

  0
SPLINE
  5
93
330
81
100
AcDbEntity
  8
Layer 1
100
AcDbSpline
210
0.0
220
0.0
230
1.0
 70
    11
 71
     3
 72
    65
 73
    61
 74
     0
 42
0.0000000001
 43
0.0000000001
 40
0.0
 40
0.0
 40
0.0
 40
0.0
 40
1.0
 40
1.0
 40
1.0
 40
2.0
 40
2.0
 40
2.0
 40
3.0
 40
3.0
 40
3.0
 40
4.0
 40
4.0
 40
4.0
 40
5.0
 40
5.0
 40
5.0
 40
6.0
 40
6.0
 40
6.0
 40
7.0
 40
7.0
 40
7.0
 40
8.0
 40
8.0
 40
8.0
 40
9.0
 40
9.0
 40
9.0
 40
10.0
 40
10.0
 40
10.0
 40
11.0
 40
11.0
 40
11.0
 40
12.0
 40
12.0
 40
12.0
 40
13.0
 40
13.0
 40
13.0
 40
14.0
 40
14.0
 40
14.0
 40
15.0
 40
15.0
 40
15.0
 40
16.0
 40
16.0
 40
16.0
 40
17.0
 40
17.0
 40
17.0
 40
18.0
 40
18.0
 40
18.0
 40
19.0
 40
19.0
 40
19.0
 40
20.0
 40
20.0
 40
20.0
 40
20.0
 10
394.2802734375
 20
-431.8076171875
 30
0.0
 10
394.2802734375
 20
-431.8076171875
 30
0.0
 10
394.2802734375
 20
-438.53125
 30
0.0
 10
394.2802734375
 20
-438.53125
 30
0.0
 10
394.2802734375
 20
-438.53125
 30
0.0
 10
392.478515625
 20
-438.53125
 30
0.0
 10
392.478515625
 20
-438.53125
 30
0.0
 10
392.33203125
 20
-438.033203125
 30
0.0
 10
392.1708984375
 20
-437.6142578125
 30
0.0
 10
391.9951171875
 20
-437.2744140625
 30
0.0
 10
391.2509765625
 20
-438.2353515624999
 30
0.0
 10
390.1494140625
 20
-438.7158203124999
 30
0.0
 10
388.6904296875
 20
-438.7158203124999
 30
0.0
 10
387.1435546875
 20
-438.7158203124999
 30
0.0
 10
385.8720703125
 20
-438.17578125
 30
0.0
 10
384.8759765625
 20
-437.0947265625
 30
0.0
 10
383.8798828125
 20
-436.0136718749999
 30
0.0
 10
383.3818359375
 20
-434.5498046874999
 30
0.0
 10
383.3818359375
 20
-432.7041015625
 30
0.0
 10
383.3818359375
 20
-430.9111328124999
 30
0.0
 10
383.86328125
 20
-429.404296875
 30
0.0
 10
384.8271484375
 20
-428.1826171875
 30
0.0
 10
385.791015625
 20
-426.9609374999999
 30
0.0
 10
387.2255859375
 20
-426.3496093749999
 30
0.0
 10
389.1298828125
 20
-426.3496093749999
 30
0.0
 10
390.5595703125
 20
-426.3496093749999
 30
0.0
 10
391.7109375
 20
-426.7128906249999
 30
0.0
 10
392.583984375
 20
-427.439453125
 30
0.0
 10
393.45703125
 20
-428.166015625
 30
0.0
 10
394.0224609375
 20
-429.197265625
 30
0.0
 10
394.2802734375
 20
-430.5332031249999
 30
0.0
 10
394.2802734375
 20
-430.5332031249999
 30
0.0
 10
390.7119140625
 20
-430.884765625
 30
0.0
 10
390.7119140625
 20
-430.884765625
 30
0.0
 10
390.5361328125
 20
-429.63671875
 30
0.0
 10
389.98828125
 20
-429.0126953125
 30
0.0
 10
389.068359375
 20
-429.0126953125
 30
0.0
 10
387.861328125
 20
-429.0126953125
 30
0.0
 10
387.2578125
 20
-430.1611328125
 30
0.0
 10
387.2578125
 20
-432.4580078124999
 30
0.0
 10
387.2578125
 20
-433.8466796875
 30
0.0
 10
387.451171875
 20
-434.7626953125
 30
0.0
 10
387.837890625
 20
-435.205078125
 30
0.0
 10
388.224609375
 20
-435.6474609374999
 30
0.0
 10
388.693359375
 20
-435.8681640624999
 30
0.0
 10
389.244140625
 20
-435.8681640624999
 30
0.0
 10
389.689453125
 20
-435.8681640624999
 30
0.0
 10
390.068359375
 20
-435.7333984374999
 30
0.0
 10
390.3818359375
 20
-435.4638671875
 30
0.0
 10
390.6953125
 20
-435.1943359375
 30
0.0
 10
390.85546875
 20
-434.8251953124999
 30
0.0
 10
390.861328125
 20
-434.3564453125
 30
0.0
 10
390.861328125
 20
-434.3564453125
 30
0.0
 10
388.875
 20
-434.3564453125
 30
0.0
 10
388.875
 20
-434.3564453125
 30
0.0
 10
388.875
 20
-434.3564453125
 30
0.0
 10
388.875
 20
-431.8076171875
 30
0.0
 10
388.875
 20
-431.8076171875
 30
0.0
 10
388.875
 20
-431.8076171875
 30
0.0
 10
394.2802734375
 20
-431.8076171875
 30
0.0
 10
394.2802734375
 20
-431.8076171875
 30
0.0
  0
HATCH
  5
94
330
81
100
AcDbEntity
  8
Layer 1
 62
   250
420
  2301728
440
 33554687
100
AcDbHatch
 10
0.0
 20
0.0
 30
0.0
210
0.0
220
0.0
230
1.0
  2
SOLID
 70
     1
 71
     1
 91
        1
 92
        1
 93
        1
 72
     4
 94
        3
 73
     0
 74
     0
 95
       65
 96
       61
 40
0.0
 40
0.0
 40
0.0
 40
0.0
 40
1.0
 40
1.0
 40
1.0
 40
2.0
 40
2.0
 40
2.0
 40
3.0
 40
3.0
 40
3.0
 40
4.0
 40
4.0
 40
4.0
 40
5.0
 40
5.0
 40
5.0
 40
6.0
 40
6.0
 40
6.0
 40
7.0
 40
7.0
 40
7.0
 40
8.0
 40
8.0
 40
8.0
 40
9.0
 40
9.0
 40
9.0
 40
10.0
 40
10.0
 40
10.0
 40
11.0
 40
11.0
 40
11.0
 40
12.0
 40
12.0
 40
12.0
 40
13.0
 40
13.0
 40
13.0
 40
14.0
 40
14.0
 40
14.0
 40
15.0
 40
15.0
 40
15.0
 40
16.0
 40
16.0
 40
16.0
 40
17.0
 40
17.0
 40
17.0
 40
18.0
 40
18.0
 40
18.0
 40
19.0
 40
19.0
 40
19.0
 40
20.0
 40
20.0
 40
20.0
 40
20.0
 10
394.2802734375
 20
-431.8076171875
 10
394.2802734375
 20
-431.8076171875
 10
394.2802734375
 20
-438.53125
 10
394.2802734375
 20
-438.53125
 10
394.2802734375
 20
-438.53125
 10
392.478515625
 20
-438.53125
 10
392.478515625
 20
-438.53125
 10
392.33203125
 20
-438.033203125
 10
392.1708984375
 20
-437.6142578125
 10
391.9951171875
 20
-437.2744140625
 10
391.2509765625
 20
-438.2353515624999
 10
390.1494140625
 20
-438.7158203124999
 10
388.6904296875
 20
-438.7158203124999
 10
387.1435546875
 20
-438.7158203124999
 10
385.8720703125
 20
-438.17578125
 10
384.8759765625
 20
-437.0947265625
 10
383.8798828125
 20
-436.0136718749999
 10
383.3818359375
 20
-434.5498046874999
 10
383.3818359375
 20
-432.7041015625
 10
383.3818359375
 20
-430.9111328124999
 10
383.86328125
 20
-429.404296875
 10
384.8271484375
 20
-428.1826171875
 10
385.791015625
 20
-426.9609374999999
 10
387.2255859375
 20
-426.3496093749999
 10
389.1298828125
 20
-426.3496093749999
 10
390.5595703125
 20
-426.3496093749999
 10
391.7109375
 20
-426.7128906249999
 10
392.583984375
 20
-427.439453125
 10
393.45703125
 20
-428.166015625
 10
394.0224609375
 20
-429.197265625
 10
394.2802734375
 20
-430.5332031249999
 10
394.2802734375
 20
-430.5332031249999
 10
390.7119140625
 20
-430.884765625
 10
390.7119140625
 20
-430.884765625
 10
390.5361328125
 20
-429.63671875
 10
389.98828125
 20
-429.0126953125
 10
389.068359375
 20
-429.0126953125
 10
387.861328125
 20
-429.0126953125
 10
387.2578125
 20
-430.1611328125
 10
387.2578125
 20
-432.4580078124999
 10
387.2578125
 20
-433.8466796875
 10
387.451171875
 20
-434.7626953125
 10
387.837890625
 20
-435.205078125
 10
388.224609375
 20
-435.6474609374999
 10
388.693359375
 20
-435.8681640624999
 10
389.244140625
 20
-435.8681640624999
 10
389.689453125
 20
-435.8681640624999
 10
390.068359375
 20
-435.7333984374999
 10
390.3818359375
 20
-435.4638671875
 10
390.6953125
 20
-435.1943359375
 10
390.85546875
 20
-434.8251953124999
 10
390.861328125
 20
-434.3564453125
 10
390.861328125
 20
-434.3564453125
 10
388.875
 20
-434.3564453125
 10
388.875
 20
-434.3564453125
 10
388.875
 20
-434.3564453125
 10
388.875
 20
-431.8076171875
 10
388.875
 20
-431.8076171875
 10
388.875
 20
-431.8076171875
 10
394.2802734375
 20
-431.8076171875
 10
394.2802734375
 20
-431.8076171875
 97
        0
 97
        1
330
93
 75
     2
 76
     1
 98
        1
 10
0.0
 20
0.0
450
        0
451
        0
460
0.0
461
0.0
452
        0
462
0.0
453
        0
470

  0
SPLINE
  5
95
330
81
100
AcDbEntity
  8
Layer 1
100
AcDbSpline
210
0.0
220
0.0
230
1.0
 70
    11
 71
     3
 72
    23
 73
    19
 74
     0
 42
0.0000000001
 43
0.0000000001
 40
0.0
 40
0.0
 40
0.0
 40
0.0
 40
1.0
 40
1.0
 40
1.0
 40
2.0
 40
2.0
 40
2.0
 40
3.0
 40
3.0
 40
3.0
 40
4.0
 40
4.0
 40
4.0
 40
5.0
 40
5.0
 40
5.0
 40
6.0
 40
6.0
 40
6.0
 40
6.0
 10
345.3076171875
 20
-457.1875
 30
0.0
 10
345.3076171875
 20
-457.1875
 30
0.0
 10
345.3076171875
 20
-460.1318359375
 30
0.0
 10
345.3076171875
 20
-460.1318359375
 30
0.0
 10
345.3076171875
 20
-460.1318359375
 30
0.0
 10
336.896484375
 20
-460.1318359375
 30
0.0
 10
336.896484375
 20
-460.1318359375
 30
0.0
 10
336.896484375
 20
-460.1318359375
 30
0.0
 10
336.896484375
 20
-448.134765625
 30
0.0
 10
336.896484375
 20
-448.134765625
 30
0.0
 10
336.896484375
 20
-448.134765625
 30
0.0
 10
340.5791015625
 20
-448.134765625
 30
0.0
 10
340.5791015625
 20
-448.134765625
 30
0.0
 10
340.5791015625
 20
-448.134765625
 30
0.0
 10
340.5791015625
 20
-457.1875
 30
0.0
 10
340.5791015625
 20
-457.1875
 30
0.0
 10
340.5791015625
 20
-457.1875
 30
0.0
 10
345.3076171875
 20
-457.1875
 30
0.0
 10
345.3076171875
 20
-457.1875
 30
0.0
  0
HATCH
  5
96
330
81
100
AcDbEntity
  8
Layer 1
 62
   250
420
  2301728
440
 33554687
100
AcDbHatch
 10
0.0
 20
0.0
 30
0.0
210
0.0
220
0.0
230
1.0
  2
SOLID
 70
     1
 71
     1
 91
        1
 92
        1
 93
        1
 72
     4
 94
        3
 73
     0
 74
     0
 95
       23
 96
       19
 40
0.0
 40
0.0
 40
0.0
 40
0.0
 40
1.0
 40
1.0
 40
1.0
 40
2.0
 40
2.0
 40
2.0
 40
3.0
 40
3.0
 40
3.0
 40
4.0
 40
4.0
 40
4.0
 40
5.0
 40
5.0
 40
5.0
 40
6.0
 40
6.0
 40
6.0
 40
6.0
 10
345.3076171875
 20
-457.1875
 10
345.3076171875
 20
-457.1875
 10
345.3076171875
 20
-460.1318359375
 10
345.3076171875
 20
-460.1318359375
 10
345.3076171875
 20
-460.1318359375
 10
336.896484375
 20
-460.1318359375
 10
336.896484375
 20
-460.1318359375
 10
336.896484375
 20
-460.1318359375
 10
336.896484375
 20
-448.134765625
 10
336.896484375
 20
-448.134765625
 10
336.896484375
 20
-448.134765625
 10
340.5791015625
 20
-448.134765625
 10
340.5791015625
 20
-448.134765625
 10
340.5791015625
 20
-448.134765625
 10
340.5791015625
 20
-457.1875
 10
340.5791015625
 20
-457.1875
 10
340.5791015625
 20
-457.1875
 10
345.3076171875
 20
-457.1875
 10
345.3076171875
 20
-457.1875
 97
        0
 97
        1
330
95
 75
     2
 76
     1
 98
        1
 10
0.0
 20
0.0
450
        0
451
        0
460
0.0
461
0.0
452
        0
462
0.0
453
        0
470

  0
SPLINE
  5
97
330
81
100
AcDbEntity
  8
Layer 1
100
AcDbSpline
210
0.0
220
0.0
230
1.0
 70
     9
 71
     3
 72
    20
 73
    16
 74
     0
 42
0.0000000001
 43
0.0000000001
 40
0.0
 40
0.0
 40
0.0
 40
0.0
 40
1.0
 40
1.0
 40
1.0
 40
2.0
 40
2.0
 40
2.0
 40
3.0
 40
3.0
 40
3.0
 40
4.0
 40
4.0
 40
4.0
 40
5.0
 40
5.0
 40
5.0
 40
5.0
 10
351.6005859375
 20
-457.5917968749999
 30
0.0
 10
352.2216796875
 20
-457.5917968749999
 30
0.0
 10
352.66796875
 20
-457.3203125
 30
0.0
 10
352.9404296875
 20
-456.7783203124999
 30
0.0
 10
353.212890625
 20
-456.2363281249999
 30
0.0
 10
353.349609375
 20
-455.2451171875
 30
0.0
 10
353.349609375
 20
-453.8037109374999
 30
0.0
 10
353.349609375
 20
-451.7177734375
 30
0.0
 10
352.7900390625
 20
-450.6748046874999
 30
0.0
 10
351.6708984375
 20
-450.6748046874999
 30
0.0
 10
350.4638671875
 20
-450.6748046874999
 30
0.0
 10
349.8603515625
 20
-451.8642578125
 30
0.0
 10
349.8603515625
 20
-454.2431640624999
 30
0.0
 10
349.8603515625
 20
-456.4755859375
 30
0.0
 10
350.4404296875
 20
-457.5917968749999
 30
0.0
 10
351.6005859375
 20
-457.5917968749999
 30
0.0
  0
SPLINE
  5
98
330
81
100
AcDbEntity
  8
Layer 1
100
AcDbSpline
210
0.0
220
0.0
230
1.0
 70
     9
 71
     3
 72
    29
 73
    25
 74
     0
 42
0.0000000001
 43
0.0000000001
 40
0.0
 40
0.0
 40
0.0
 40
0.0
 40
1.0
 40
1.0
 40
1.0
 40
2.0
 40
2.0
 40
2.0
 40
3.0
 40
3.0
 40
3.0
 40
4.0
 40
4.0
 40
4.0
 40
5.0
 40
5.0
 40
5.0
 40
6.0
 40
6.0
 40
6.0
 40
7.0
 40
7.0
 40
7.0
 40
8.0
 40
8.0
 40
8.0
 40
8.0
 10
351.6181640625
 20
-460.31640625
 30
0.0
 10
349.9306640625
 20
-460.31640625
 30
0.0
 10
348.5546875
 20
-459.7568359374999
 30
0.0
 10
347.4912109375
 20
-458.6376953124999
 30
0.0
 10
346.427734375
 20
-457.5185546874999
 30
0.0
 10
345.896484375
 20
-456.0214843749999
 30
0.0
 10
345.896484375
 20
-454.146484375
 30
0.0
 10
345.896484375
 20
-452.353515625
 30
0.0
 10
346.404296875
 20
-450.8720703125
 30
0.0
 10
347.4208984375
 20
-449.703125
 30
0.0
 10
348.4375
 20
-448.5341796874999
 30
0.0
 10
349.8486328125
 20
-447.9501953125
 30
0.0
 10
351.6533203125
 20
-447.9501953125
 30
0.0
 10
353.3232421875
 20
-447.9501953125
 30
0.0
 10
354.68359375
 20
-448.5009765625
 30
0.0
 10
355.7353515625
 20
-449.6025390625
 30
0.0
 10
356.787109375
 20
-450.7041015625
 30
0.0
 10
357.3134765625
 20
-452.1748046875
 30
0.0
 10
357.3134765625
 20
-454.0146484374999
 30
0.0
 10
357.3134765625
 20
-455.9189453124999
 30
0.0
 10
356.783203125
 20
-457.4453124999999
 30
0.0
 10
355.72265625
 20
-458.59375
 30
0.0
 10
354.662109375
 20
-459.7421875
 30
0.0
 10
353.2939453125
 20
-460.31640625
 30
0.0
 10
351.6181640625
 20
-460.31640625
 30
0.0
  0
HATCH
  5
99
330
81
100
AcDbEntity
  8
Layer 1
 62
   250
420
  2301728
440
 33554687
100
AcDbHatch
 10
0.0
 20
0.0
 30
0.0
210
0.0
220
0.0
230
1.0
  2
SOLID
 70
     1
 71
     1
 91
        2
 92
        1
 93
        1
 72
     4
 94
        3
 73
     0
 74
     0
 95
       20
 96
       16
 40
0.0
 40
0.0
 40
0.0
 40
0.0
 40
1.0
 40
1.0
 40
1.0
 40
2.0
 40
2.0
 40
2.0
 40
3.0
 40
3.0
 40
3.0
 40
4.0
 40
4.0
 40
4.0
 40
5.0
 40
5.0
 40
5.0
 40
5.0
 10
351.6005859375
 20
-457.5917968749999
 10
352.2216796875
 20
-457.5917968749999
 10
352.66796875
 20
-457.3203125
 10
352.9404296875
 20
-456.7783203124999
 10
353.212890625
 20
-456.2363281249999
 10
353.349609375
 20
-455.2451171875
 10
353.349609375
 20
-453.8037109374999
 10
353.349609375
 20
-451.7177734375
 10
352.7900390625
 20
-450.6748046874999
 10
351.6708984375
 20
-450.6748046874999
 10
350.4638671875
 20
-450.6748046874999
 10
349.8603515625
 20
-451.8642578125
 10
349.8603515625
 20
-454.2431640624999
 10
349.8603515625
 20
-456.4755859375
 10
350.4404296875
 20
-457.5917968749999
 10
351.6005859375
 20
-457.5917968749999
 97
        0
 97
        1
330
97
 92
        1
 93
        1
 72
     4
 94
        3
 73
     0
 74
     0
 95
       29
 96
       25
 40
0.0
 40
0.0
 40
0.0
 40
0.0
 40
1.0
 40
1.0
 40
1.0
 40
2.0
 40
2.0
 40
2.0
 40
3.0
 40
3.0
 40
3.0
 40
4.0
 40
4.0
 40
4.0
 40
5.0
 40
5.0
 40
5.0
 40
6.0
 40
6.0
 40
6.0
 40
7.0
 40
7.0
 40
7.0
 40
8.0
 40
8.0
 40
8.0
 40
8.0
 10
351.6181640625
 20
-460.31640625
 10
349.9306640625
 20
-460.31640625
 10
348.5546875
 20
-459.7568359374999
 10
347.4912109375
 20
-458.6376953124999
 10
346.427734375
 20
-457.5185546874999
 10
345.896484375
 20
-456.0214843749999
 10
345.896484375
 20
-454.146484375
 10
345.896484375
 20
-452.353515625
 10
346.404296875
 20
-450.8720703125
 10
347.4208984375
 20
-449.703125
 10
348.4375
 20
-448.5341796874999
 10
349.8486328125
 20
-447.9501953125
 10
351.6533203125
 20
-447.9501953125
 10
353.3232421875
 20
-447.9501953125
 10
354.68359375
 20
-448.5009765625
 10
355.7353515625
 20
-449.6025390625
 10
356.787109375
 20
-450.7041015625
 10
357.3134765625
 20
-452.1748046875
 10
357.3134765625
 20
-454.0146484374999
 10
357.3134765625
 20
-455.9189453124999
 10
356.783203125
 20
-457.4453124999999
 10
355.72265625
 20
-458.59375
 10
354.662109375
 20
-459.7421875
 10
353.2939453125
 20
-460.31640625
 10
351.6181640625
 20
-460.31640625
 97
        0
 97
        1
330
98
 75
     2
 76
     1
 98
        1
 10
0.0
 20
0.0
450
        0
451
        0
460
0.0
461
0.0
452
        0
462
0.0
453
        0
470

  0
SPLINE
  5
9A
330
81
100
AcDbEntity
  8
Layer 1
100
AcDbSpline
210
0.0
220
0.0
230
1.0
 70
    11
 71
     3
 72
    29
 73
    25
 74
     0
 42
0.0000000001
 43
0.0000000001
 40
0.0
 40
0.0
 40
0.0
 40
0.0
 40
1.0
 40
1.0
 40
1.0
 40
2.0
 40
2.0
 40
2.0
 40
3.0
 40
3.0
 40
3.0
 40
4.0
 40
4.0
 40
4.0
 40
5.0
 40
5.0
 40
5.0
 40
6.0
 40
6.0
 40
6.0
 40
7.0
 40
7.0
 40
7.0
 40
8.0
 40
8.0
 40
8.0
 40
8.0
 10
368.873046875
 20
-448.134765625
 30
0.0
 10
368.873046875
 20
-448.134765625
 30
0.0
 10
365.150390625
 20
-460.1318359375
 30
0.0
 10
365.150390625
 20
-460.1318359375
 30
0.0
 10
365.150390625
 20
-460.1318359375
 30
0.0
 10
361.3974609375
 20
-460.1318359375
 30
0.0
 10
361.3974609375
 20
-460.1318359375
 30
0.0
 10
361.3974609375
 20
-460.1318359375
 30
0.0
 10
357.5048828125
 20
-448.134765625
 30
0.0
 10
357.5048828125
 20
-448.134765625
 30
0.0
 10
357.5048828125
 20
-448.134765625
 30
0.0
 10
361.384765625
 20
-448.134765625
 30
0.0
 10
361.384765625
 20
-448.134765625
 30
0.0
 10
361.384765625
 20
-448.134765625
 30
0.0
 10
363.2841796875
 20
-454.6738281249999
 30
0.0
 10
363.2841796875
 20
-454.6738281249999
 30
0.0
 10
363.4130859375
 20
-455.0605468749999
 30
0.0
 10
363.5283203125
 20
-455.44140625
 30
0.0
 10
363.6279296875
 20
-455.81640625
 30
0.0
 10
363.6279296875
 20
-455.81640625
 30
0.0
 10
365.845703125
 20
-448.134765625
 30
0.0
 10
365.845703125
 20
-448.134765625
 30
0.0
 10
365.845703125
 20
-448.134765625
 30
0.0
 10
368.873046875
 20
-448.134765625
 30
0.0
 10
368.873046875
 20
-448.134765625
 30
0.0
  0
HATCH
  5
9B
330
81
100
AcDbEntity
  8
Layer 1
 62
   250
420
  2301728
440
 33554687
100
AcDbHatch
 10
0.0
 20
0.0
 30
0.0
210
0.0
220
0.0
230
1.0
  2
SOLID
 70
     1
 71
     1
 91
        1
 92
        1
 93
        1
 72
     4
 94
        3
 73
     0
 74
     0
 95
       29
 96
       25
 40
0.0
 40
0.0
 40
0.0
 40
0.0
 40
1.0
 40
1.0
 40
1.0
 40
2.0
 40
2.0
 40
2.0
 40
3.0
 40
3.0
 40
3.0
 40
4.0
 40
4.0
 40
4.0
 40
5.0
 40
5.0
 40
5.0
 40
6.0
 40
6.0
 40
6.0
 40
7.0
 40
7.0
 40
7.0
 40
8.0
 40
8.0
 40
8.0
 40
8.0
 10
368.873046875
 20
-448.134765625
 10
368.873046875
 20
-448.134765625
 10
365.150390625
 20
-460.1318359375
 10
365.150390625
 20
-460.1318359375
 10
365.150390625
 20
-460.1318359375
 10
361.3974609375
 20
-460.1318359375
 10
361.3974609375
 20
-460.1318359375
 10
361.3974609375
 20
-460.1318359375
 10
357.5048828125
 20
-448.134765625
 10
357.5048828125
 20
-448.134765625
 10
357.5048828125
 20
-448.134765625
 10
361.384765625
 20
-448.134765625
 10
361.384765625
 20
-448.134765625
 10
361.384765625
 20
-448.134765625
 10
363.2841796875
 20
-454.6738281249999
 10
363.2841796875
 20
-454.6738281249999
 10
363.4130859375
 20
-455.0605468749999
 10
363.5283203125
 20
-455.44140625
 10
363.6279296875
 20
-455.81640625
 10
363.6279296875
 20
-455.81640625
 10
365.845703125
 20
-448.134765625
 10
365.845703125
 20
-448.134765625
 10
365.845703125
 20
-448.134765625
 10
368.873046875
 20
-448.134765625
 10
368.873046875
 20
-448.134765625
 97
        0
 97
        1
330
9A
 75
     2
 76
     1
 98
        1
 10
0.0
 20
0.0
450
        0
451
        0
460
0.0
461
0.0
452
        0
462
0.0
453
        0
470

  0
SPLINE
  5
9C
330
81
100
AcDbEntity
  8
Layer 1
100
AcDbSpline
210
0.0
220
0.0
230
1.0
 70
    11
 71
     3
 72
    41
 73
    37
 74
     0
 42
0.0000000001
 43
0.0000000001
 40
0.0
 40
0.0
 40
0.0
 40
0.0
 40
1.0
 40
1.0
 40
1.0
 40
2.0
 40
2.0
 40
2.0
 40
3.0
 40
3.0
 40
3.0
 40
4.0
 40
4.0
 40
4.0
 40
5.0
 40
5.0
 40
5.0
 40
6.0
 40
6.0
 40
6.0
 40
7.0
 40
7.0
 40
7.0
 40
8.0
 40
8.0
 40
8.0
 40
9.0
 40
9.0
 40
9.0
 40
10.0
 40
10.0
 40
10.0
 40
11.0
 40
11.0
 40
11.0
 40
12.0
 40
12.0
 40
12.0
 40
12.0
 10
379.0048828125
 20
-457.2666015624999
 30
0.0
 10
379.0048828125
 20
-457.2666015624999
 30
0.0
 10
379.0048828125
 20
-460.1318359375
 30
0.0
 10
379.0048828125
 20
-460.1318359375
 30
0.0
 10
379.0048828125
 20
-460.1318359375
 30
0.0
 10
369.978515625
 20
-460.1318359375
 30
0.0
 10
369.978515625
 20
-460.1318359375
 30
0.0
 10
369.978515625
 20
-460.1318359375
 30
0.0
 10
369.978515625
 20
-448.134765625
 30
0.0
 10
369.978515625
 20
-448.134765625
 30
0.0
 10
369.978515625
 20
-448.134765625
 30
0.0
 10
379.0048828125
 20
-448.134765625
 30
0.0
 10
379.0048828125
 20
-448.134765625
 30
0.0
 10
379.0048828125
 20
-448.134765625
 30
0.0
 10
379.0048828125
 20
-450.9033203125
 30
0.0
 10
379.0048828125
 20
-450.9033203125
 30
0.0
 10
379.0048828125
 20
-450.9033203125
 30
0.0
 10
373.5908203125
 20
-450.9033203125
 30
0.0
 10
373.5908203125
 20
-450.9033203125
 30
0.0
 10
373.5908203125
 20
-450.9033203125
 30
0.0
 10
373.5908203125
 20
-452.6435546874999
 30
0.0
 10
373.5908203125
 20
-452.6435546874999
 30
0.0
 10
373.5908203125
 20
-452.6435546874999
 30
0.0
 10
377.9677734375
 20
-452.6435546874999
 30
0.0
 10
377.9677734375
 20
-452.6435546874999
 30
0.0
 10
377.9677734375
 20
-452.6435546874999
 30
0.0
 10
377.9677734375
 20
-455.306640625
 30
0.0
 10
377.9677734375
 20
-455.306640625
 30
0.0
 10
377.9677734375
 20
-455.306640625
 30
0.0
 10
373.5908203125
 20
-455.306640625
 30
0.0
 10
373.5908203125
 20
-455.306640625
 30
0.0
 10
373.5908203125
 20
-455.306640625
 30
0.0
 10
373.5908203125
 20
-457.2666015624999
 30
0.0
 10
373.5908203125
 20
-457.2666015624999
 30
0.0
 10
373.5908203125
 20
-457.2666015624999
 30
0.0
 10
379.0048828125
 20
-457.2666015624999
 30
0.0
 10
379.0048828125
 20
-457.2666015624999
 30
0.0
  0
HATCH
  5
9D
330
81
100
AcDbEntity
  8
Layer 1
 62
   250
420
  2301728
440
 33554687
100
AcDbHatch
 10
0.0
 20
0.0
 30
0.0
210
0.0
220
0.0
230
1.0
  2
SOLID
 70
     1
 71
     1
 91
        1
 92
        1
 93
        1
 72
     4
 94
        3
 73
     0
 74
     0
 95
       41
 96
       37
 40
0.0
 40
0.0
 40
0.0
 40
0.0
 40
1.0
 40
1.0
 40
1.0
 40
2.0
 40
2.0
 40
2.0
 40
3.0
 40
3.0
 40
3.0
 40
4.0
 40
4.0
 40
4.0
 40
5.0
 40
5.0
 40
5.0
 40
6.0
 40
6.0
 40
6.0
 40
7.0
 40
7.0
 40
7.0
 40
8.0
 40
8.0
 40
8.0
 40
9.0
 40
9.0
 40
9.0
 40
10.0
 40
10.0
 40
10.0
 40
11.0
 40
11.0
 40
11.0
 40
12.0
 40
12.0
 40
12.0
 40
12.0
 10
379.0048828125
 20
-457.2666015624999
 10
379.0048828125
 20
-457.2666015624999
 10
379.0048828125
 20
-460.1318359375
 10
379.0048828125
 20
-460.1318359375
 10
379.0048828125
 20
-460.1318359375
 10
369.978515625
 20
-460.1318359375
 10
369.978515625
 20
-460.1318359375
 10
369.978515625
 20
-460.1318359375
 10
369.978515625
 20
-448.134765625
 10
369.978515625
 20
-448.134765625
 10
369.978515625
 20
-448.134765625
 10
379.0048828125
 20
-448.134765625
 10
379.0048828125
 20
-448.134765625
 10
379.0048828125
 20
-448.134765625
 10
379.0048828125
 20
-450.9033203125
 10
379.0048828125
 20
-450.9033203125
 10
379.0048828125
 20
-450.9033203125
 10
373.5908203125
 20
-450.9033203125
 10
373.5908203125
 20
-450.9033203125
 10
373.5908203125
 20
-450.9033203125
 10
373.5908203125
 20
-452.6435546874999
 10
373.5908203125
 20
-452.6435546874999
 10
373.5908203125
 20
-452.6435546874999
 10
377.9677734375
 20
-452.6435546874999
 10
377.9677734375
 20
-452.6435546874999
 10
377.9677734375
 20
-452.6435546874999
 10
377.9677734375
 20
-455.306640625
 10
377.9677734375
 20
-455.306640625
 10
377.9677734375
 20
-455.306640625
 10
373.5908203125
 20
-455.306640625
 10
373.5908203125
 20
-455.306640625
 10
373.5908203125
 20
-455.306640625
 10
373.5908203125
 20
-457.2666015624999
 10
373.5908203125
 20
-457.2666015624999
 10
373.5908203125
 20
-457.2666015624999
 10
379.0048828125
 20
-457.2666015624999
 10
379.0048828125
 20
-457.2666015624999
 97
        0
 97
        1
330
9C
 75
     2
 76
     1
 98
        1
 10
0.0
 20
0.0
450
        0
451
        0
460
0.0
461
0.0
452
        0
462
0.0
453
        0
470

  0
SPLINE
  5
9E
330
81
100
AcDbEntity
  8
Layer 1
100
AcDbSpline
210
0.0
220
0.0
230
1.0
 70
    11
 71
     3
 72
    35
 73
    31
 74
     0
 42
0.0000000001
 43
0.0000000001
 40
0.0
 40
0.0
 40
0.0
 40
0.0
 40
1.0
 40
1.0
 40
1.0
 40
2.0
 40
2.0
 40
2.0
 40
3.0
 40
3.0
 40
3.0
 40
4.0
 40
4.0
 40
4.0
 40
5.0
 40
5.0
 40
5.0
 40
6.0
 40
6.0
 40
6.0
 40
7.0
 40
7.0
 40
7.0
 40
8.0
 40
8.0
 40
8.0
 40
9.0
 40
9.0
 40
9.0
 40
10.0
 40
10.0
 40
10.0
 40
10.0
 10
328.634765625
 20
-477.240234375
 30
0.0
 10
328.634765625
 20
-477.240234375
 30
0.0
 10
324.7236328125
 20
-477.240234375
 30
0.0
 10
324.7236328125
 20
-477.240234375
 30
0.0
 10
324.7236328125
 20
-477.240234375
 30
0.0
 10
324.7236328125
 20
-481.7314453125
 30
0.0
 10
324.7236328125
 20
-481.7314453125
 30
0.0
 10
324.7236328125
 20
-481.7314453125
 30
0.0
 10
321.1376953125
 20
-481.7314453125
 30
0.0
 10
321.1376953125
 20
-481.7314453125
 30
0.0
 10
321.1376953125
 20
-481.7314453125
 30
0.0
 10
321.1376953125
 20
-469.7343749999999
 30
0.0
 10
321.1376953125
 20
-469.7343749999999
 30
0.0
 10
321.1376953125
 20
-469.7343749999999
 30
0.0
 10
329.8125
 20
-469.7343749999999
 30
0.0
 10
329.8125
 20
-469.7343749999999
 30
0.0
 10
329.8125
 20
-469.7343749999999
 30
0.0
 10
329.8125
 20
-472.5908203124999
 30
0.0
 10
329.8125
 20
-472.5908203124999
 30
0.0
 10
329.8125
 20
-472.5908203124999
 30
0.0
 10
324.7236328125
 20
-472.5908203124999
 30
0.0
 10
324.7236328125
 20
-472.5908203124999
 30
0.0
 10
324.7236328125
 20
-472.5908203124999
 30
0.0
 10
324.7236328125
 20
-474.5419921875
 30
0.0
 10
324.7236328125
 20
-474.5419921875
 30
0.0
 10
324.7236328125
 20
-474.5419921875
 30
0.0
 10
328.634765625
 20
-474.5419921875
 30
0.0
 10
328.634765625
 20
-474.5419921875
 30
0.0
 10
328.634765625
 20
-474.5419921875
 30
0.0
 10
328.634765625
 20
-477.240234375
 30
0.0
 10
328.634765625
 20
-477.240234375
 30
0.0
  0
HATCH
  5
9F
330
81
100
AcDbEntity
  8
Layer 1
 62
   250
420
  2301728
440
 33554687
100
AcDbHatch
 10
0.0
 20
0.0
 30
0.0
210
0.0
220
0.0
230
1.0
  2
SOLID
 70
     1
 71
     1
 91
        1
 92
        1
 93
        1
 72
     4
 94
        3
 73
     0
 74
     0
 95
       35
 96
       31
 40
0.0
 40
0.0
 40
0.0
 40
0.0
 40
1.0
 40
1.0
 40
1.0
 40
2.0
 40
2.0
 40
2.0
 40
3.0
 40
3.0
 40
3.0
 40
4.0
 40
4.0
 40
4.0
 40
5.0
 40
5.0
 40
5.0
 40
6.0
 40
6.0
 40
6.0
 40
7.0
 40
7.0
 40
7.0
 40
8.0
 40
8.0
 40
8.0
 40
9.0
 40
9.0
 40
9.0
 40
10.0
 40
10.0
 40
10.0
 40
10.0
 10
328.634765625
 20
-477.240234375
 10
328.634765625
 20
-477.240234375
 10
324.7236328125
 20
-477.240234375
 10
324.7236328125
 20
-477.240234375
 10
324.7236328125
 20
-477.240234375
 10
324.7236328125
 20
-481.7314453125
 10
324.7236328125
 20
-481.7314453125
 10
324.7236328125
 20
-481.7314453125
 10
321.1376953125
 20
-481.7314453125
 10
321.1376953125
 20
-481.7314453125
 10
321.1376953125
 20
-481.7314453125
 10
321.1376953125
 20
-469.7343749999999
 10
321.1376953125
 20
-469.7343749999999
 10
321.1376953125
 20
-469.7343749999999
 10
329.8125
 20
-469.7343749999999
 10
329.8125
 20
-469.7343749999999
 10
329.8125
 20
-469.7343749999999
 10
329.8125
 20
-472.5908203124999
 10
329.8125
 20
-472.5908203124999
 10
329.8125
 20
-472.5908203124999
 10
324.7236328125
 20
-472.5908203124999
 10
324.7236328125
 20
-472.5908203124999
 10
324.7236328125
 20
-472.5908203124999
 10
324.7236328125
 20
-474.5419921875
 10
324.7236328125
 20
-474.5419921875
 10
324.7236328125
 20
-474.5419921875
 10
328.634765625
 20
-474.5419921875
 10
328.634765625
 20
-474.5419921875
 10
328.634765625
 20
-474.5419921875
 10
328.634765625
 20
-477.240234375
 10
328.634765625
 20
-477.240234375
 97
        0
 97
        1
330
9E
 75
     2
 76
     1
 98
        1
 10
0.0
 20
0.0
450
        0
451
        0
460
0.0
461
0.0
452
        0
462
0.0
453
        0
470

  0
SPLINE
  5
A0
330
81
100
AcDbEntity
  8
Layer 1
100
AcDbSpline
210
0.0
220
0.0
230
1.0
 70
    11
 71
     3
 72
    50
 73
    46
 74
     0
 42
0.0000000001
 43
0.0000000001
 40
0.0
 40
0.0
 40
0.0
 40
0.0
 40
1.0
 40
1.0
 40
1.0
 40
2.0
 40
2.0
 40
2.0
 40
3.0
 40
3.0
 40
3.0
 40
4.0
 40
4.0
 40
4.0
 40
5.0
 40
5.0
 40
5.0
 40
6.0
 40
6.0
 40
6.0
 40
7.0
 40
7.0
 40
7.0
 40
8.0
 40
8.0
 40
8.0
 40
9.0
 40
9.0
 40
9.0
 40
10.0
 40
10.0
 40
10.0
 40
11.0
 40
11.0
 40
11.0
 40
12.0
 40
12.0
 40
12.0
 40
13.0
 40
13.0
 40
13.0
 40
14.0
 40
14.0
 40
14.0
 40
15.0
 40
15.0
 40
15.0
 40
15.0
 10
340.7109375
 20
-469.7343749999999
 30
0.0
 10
340.7109375
 20
-469.7343749999999
 30
0.0
 10
340.7109375
 20
-477.6796875
 30
0.0
 10
340.7109375
 20
-477.6796875
 30
0.0
 10
340.7109375
 20
-479.1855468749999
 30
0.0
 10
340.263671875
 20
-480.267578125
 30
0.0
 10
339.3701171875
 20
-480.9267578125
 30
0.0
 10
338.4765625
 20
-481.5859375
 30
0.0
 10
337.3125
 20
-481.9160156249999
 30
0.0
 10
335.876953125
 20
-481.9160156249999
 30
0.0
 10
334.365234375
 20
-481.9160156249999
 30
0.0
 10
333.150390625
 20
-481.5996093749999
 30
0.0
 10
332.2333984375
 20
-480.966796875
 30
0.0
 10
331.31640625
 20
-480.3339843749999
 30
0.0
 10
330.8583984375
 20
-479.302734375
 30
0.0
 10
330.8583984375
 20
-477.873046875
 30
0.0
 10
330.8583984375
 20
-477.873046875
 30
0.0
 10
330.8583984375
 20
-469.7343749999999
 30
0.0
 10
330.8583984375
 20
-469.7343749999999
 30
0.0
 10
330.8583984375
 20
-469.7343749999999
 30
0.0
 10
334.6025390625
 20
-469.7343749999999
 30
0.0
 10
334.6025390625
 20
-469.7343749999999
 30
0.0
 10
334.6025390625
 20
-469.7343749999999
 30
0.0
 10
334.6025390625
 20
-477.4423828125
 30
0.0
 10
334.6025390625
 20
-477.4423828125
 30
0.0
 10
334.6025390625
 20
-478.0166015625
 30
0.0
 10
334.7236328125
 20
-478.435546875
 30
0.0
 10
334.9658203125
 20
-478.69921875
 30
0.0
 10
335.2080078125
 20
-478.9628906249999
 30
0.0
 10
335.595703125
 20
-479.0947265625
 30
0.0
 10
336.1279296875
 20
-479.0947265625
 30
0.0
 10
336.5712890625
 20
-479.0947265625
 30
0.0
 10
336.935546875
 20
-478.9990234374999
 30
0.0
 10
337.21875
 20
-478.80859375
 30
0.0
 10
337.501953125
 20
-478.6181640625
 30
0.0
 10
337.671875
 20
-478.4033203125
 30
0.0
 10
337.7265625
 20
-478.1630859375
 30
0.0
 10
337.7822265625
 20
-477.9228515625
 30
0.0
 10
337.810546875
 20
-477.4541015625
 30
0.0
 10
337.810546875
 20
-476.7568359374999
 30
0.0
 10
337.810546875
 20
-476.7568359374999
 30
0.0
 10
337.810546875
 20
-469.7343749999999
 30
0.0
 10
337.810546875
 20
-469.7343749999999
 30
0.0
 10
337.810546875
 20
-469.7343749999999
 30
0.0
 10
340.7109375
 20
-469.7343749999999
 30
0.0
 10
340.7109375
 20
-469.7343749999999
 30
0.0
  0
HATCH
  5
A1
330
81
100
AcDbEntity
  8
Layer 1
 62
   250
420
  2301728
440
 33554687
100
AcDbHatch
 10
0.0
 20
0.0
 30
0.0
210
0.0
220
0.0
230
1.0
  2
SOLID
 70
     1
 71
     1
 91
        1
 92
        1
 93
        1
 72
     4
 94
        3
 73
     0
 74
     0
 95
       50
 96
       46
 40
0.0
 40
0.0
 40
0.0
 40
0.0
 40
1.0
 40
1.0
 40
1.0
 40
2.0
 40
2.0
 40
2.0
 40
3.0
 40
3.0
 40
3.0
 40
4.0
 40
4.0
 40
4.0
 40
5.0
 40
5.0
 40
5.0
 40
6.0
 40
6.0
 40
6.0
 40
7.0
 40
7.0
 40
7.0
 40
8.0
 40
8.0
 40
8.0
 40
9.0
 40
9.0
 40
9.0
 40
10.0
 40
10.0
 40
10.0
 40
11.0
 40
11.0
 40
11.0
 40
12.0
 40
12.0
 40
12.0
 40
13.0
 40
13.0
 40
13.0
 40
14.0
 40
14.0
 40
14.0
 40
15.0
 40
15.0
 40
15.0
 40
15.0
 10
340.7109375
 20
-469.7343749999999
 10
340.7109375
 20
-469.7343749999999
 10
340.7109375
 20
-477.6796875
 10
340.7109375
 20
-477.6796875
 10
340.7109375
 20
-479.1855468749999
 10
340.263671875
 20
-480.267578125
 10
339.3701171875
 20
-480.9267578125
 10
338.4765625
 20
-481.5859375
 10
337.3125
 20
-481.9160156249999
 10
335.876953125
 20
-481.9160156249999
 10
334.365234375
 20
-481.9160156249999
 10
333.150390625
 20
-481.5996093749999
 10
332.2333984375
 20
-480.966796875
 10
331.31640625
 20
-480.3339843749999
 10
330.8583984375
 20
-479.302734375
 10
330.8583984375
 20
-477.873046875
 10
330.8583984375
 20
-477.873046875
 10
330.8583984375
 20
-469.7343749999999
 10
330.8583984375
 20
-469.7343749999999
 10
330.8583984375
 20
-469.7343749999999
 10
334.6025390625
 20
-469.7343749999999
 10
334.6025390625
 20
-469.7343749999999
 10
334.6025390625
 20
-469.7343749999999
 10
334.6025390625
 20
-477.4423828125
 10
334.6025390625
 20
-477.4423828125
 10
334.6025390625
 20
-478.0166015625
 10
334.7236328125
 20
-478.435546875
 10
334.9658203125
 20
-478.69921875
 10
335.2080078125
 20
-478.9628906249999
 10
335.595703125
 20
-479.0947265625
 10
336.1279296875
 20
-479.0947265625
 10
336.5712890625
 20
-479.0947265625
 10
336.935546875
 20
-478.9990234374999
 10
337.21875
 20
-478.80859375
 10
337.501953125
 20
-478.6181640625
 10
337.671875
 20
-478.4033203125
 10
337.7265625
 20
-478.1630859375
 10
337.7822265625
 20
-477.9228515625
 10
337.810546875
 20
-477.4541015625
 10
337.810546875
 20
-476.7568359374999
 10
337.810546875
 20
-476.7568359374999
 10
337.810546875
 20
-469.7343749999999
 10
337.810546875
 20
-469.7343749999999
 10
337.810546875
 20
-469.7343749999999
 10
340.7109375
 20
-469.7343749999999
 10
340.7109375
 20
-469.7343749999999
 97
        0
 97
        1
330
A0
 75
     2
 76
     1
 98
        1
 10
0.0
 20
0.0
450
        0
451
        0
460
0.0
461
0.0
452
        0
462
0.0
453
        0
470

  0
SPLINE
  5
A2
330
81
100
AcDbEntity
  8
Layer 1
100
AcDbSpline
210
0.0
220
0.0
230
1.0
 70
     9
 71
     3
 72
    53
 73
    49
 74
     0
 42
0.0000000001
 43
0.0000000001
 40
0.0
 40
0.0
 40
0.0
 40
0.0
 40
1.0
 40
1.0
 40
1.0
 40
2.0
 40
2.0
 40
2.0
 40
3.0
 40
3.0
 40
3.0
 40
4.0
 40
4.0
 40
4.0
 40
5.0
 40
5.0
 40
5.0
 40
6.0
 40
6.0
 40
6.0
 40
7.0
 40
7.0
 40
7.0
 40
8.0
 40
8.0
 40
8.0
 40
9.0
 40
9.0
 40
9.0
 40
10.0
 40
10.0
 40
10.0
 40
11.0
 40
11.0
 40
11.0
 40
12.0
 40
12.0
 40
12.0
 40
13.0
 40
13.0
 40
13.0
 40
14.0
 40
14.0
 40
14.0
 40
15.0
 40
15.0
 40
15.0
 40
16.0
 40
16.0
 40
16.0
 40
16.0
 10
349.2802734375
 20
-477.1523437499999
 30
0.0
 10
349.2802734375
 20
-477.1523437499999
 30
0.0
 10
352.646484375
 20
-477.3544921874999
 30
0.0
 10
352.646484375
 20
-477.3544921874999
 30
0.0
 10
352.48828125
 20
-478.8251953125
 30
0.0
 10
351.9443359375
 20
-479.953125
 30
0.0
 10
351.015625
 20
-480.73828125
 30
0.0
 10
350.0869140625
 20
-481.5234375
 30
0.0
 10
348.9462890625
 20
-481.9160156249999
 30
0.0
 10
347.5927734375
 20
-481.9160156249999
 30
0.0
 10
345.9638671875
 20
-481.9160156249999
 30
0.0
 10
344.6484375
 20
-481.376953125
 30
0.0
 10
343.646484375
 20
-480.298828125
 30
0.0
 10
342.64453125
 20
-479.220703125
 30
0.0
 10
342.1435546875
 20
-477.732421875
 30
0.0
 10
342.1435546875
 20
-475.8339843749999
 30
0.0
 10
342.1435546875
 20
-473.9531249999999
 30
0.0
 10
342.6181640625
 20
-472.4355468749999
 30
0.0
 10
343.5673828125
 20
-471.28125
 30
0.0
 10
344.5166015625
 20
-470.126953125
 30
0.0
 10
345.8408203125
 20
-469.5498046875
 30
0.0
 10
347.5400390625
 20
-469.5498046875
 30
0.0
 10
349.1279296875
 20
-469.5498046875
 30
0.0
 10
350.34765625
 20
-469.9892578125
 30
0.0
 10
351.2001953125
 20
-470.8681640625
 30
0.0
 10
352.052734375
 20
-471.7470703125
 30
0.0
 10
352.53515625
 20
-472.9130859375
 30
0.0
 10
352.646484375
 20
-474.3662109375
 30
0.0
 10
352.646484375
 20
-474.3662109375
 30
0.0
 10
349.2099609375
 20
-474.55078125
 30
0.0
 10
349.2099609375
 20
-474.55078125
 30
0.0
 10
349.2099609375
 20
-473.748046875
 30
0.0
 10
349.0556640625
 20
-473.1679687499999
 30
0.0
 10
348.748046875
 20
-472.8105468749999
 30
0.0
 10
348.4404296875
 20
-472.453125
 30
0.0
 10
348.0791015625
 20
-472.2744140625
 30
0.0
 10
347.6630859375
 20
-472.2744140625
 30
0.0
 10
346.5029296875
 20
-472.2744140625
 30
0.0
 10
345.9228515625
 20
-473.4404296874999
 30
0.0
 10
345.9228515625
 20
-475.7724609374999
 30
0.0
 10
345.9228515625
 20
-477.0791015624999
 30
0.0
 10
346.0732421875
 20
-477.966796875
 30
0.0
 10
346.375
 20
-478.435546875
 30
0.0
 10
346.6767578125
 20
-478.904296875
 30
0.0
 10
347.1005859375
 20
-479.138671875
 30
0.0
 10
347.6455078125
 20
-479.138671875
 30
0.0
 10
348.6181640625
 20
-479.138671875
 30
0.0
 10
349.1630859375
 20
-478.4765625
 30
0.0
 10
349.2802734375
 20
-477.1523437499999
 30
0.0
  0
HATCH
  5
A3
330
81
100
AcDbEntity
  8
Layer 1
 62
   250
420
  2301728
440
 33554687
100
AcDbHatch
 10
0.0
 20
0.0
 30
0.0
210
0.0
220
0.0
230
1.0
  2
SOLID
 70
     1
 71
     1
 91
        1
 92
        1
 93
        1
 72
     4
 94
        3
 73
     0
 74
     0
 95
       53
 96
       49
 40
0.0
 40
0.0
 40
0.0
 40
0.0
 40
1.0
 40
1.0
 40
1.0
 40
2.0
 40
2.0
 40
2.0
 40
3.0
 40
3.0
 40
3.0
 40
4.0
 40
4.0
 40
4.0
 40
5.0
 40
5.0
 40
5.0
 40
6.0
 40
6.0
 40
6.0
 40
7.0
 40
7.0
 40
7.0
 40
8.0
 40
8.0
 40
8.0
 40
9.0
 40
9.0
 40
9.0
 40
10.0
 40
10.0
 40
10.0
 40
11.0
 40
11.0
 40
11.0
 40
12.0
 40
12.0
 40
12.0
 40
13.0
 40
13.0
 40
13.0
 40
14.0
 40
14.0
 40
14.0
 40
15.0
 40
15.0
 40
15.0
 40
16.0
 40
16.0
 40
16.0
 40
16.0
 10
349.2802734375
 20
-477.1523437499999
 10
349.2802734375
 20
-477.1523437499999
 10
352.646484375
 20
-477.3544921874999
 10
352.646484375
 20
-477.3544921874999
 10
352.48828125
 20
-478.8251953125
 10
351.9443359375
 20
-479.953125
 10
351.015625
 20
-480.73828125
 10
350.0869140625
 20
-481.5234375
 10
348.9462890625
 20
-481.9160156249999
 10
347.5927734375
 20
-481.9160156249999
 10
345.9638671875
 20
-481.9160156249999
 10
344.6484375
 20
-481.376953125
 10
343.646484375
 20
-480.298828125
 10
342.64453125
 20
-479.220703125
 10
342.1435546875
 20
-477.732421875
 10
342.1435546875
 20
-475.8339843749999
 10
342.1435546875
 20
-473.9531249999999
 10
342.6181640625
 20
-472.4355468749999
 10
343.5673828125
 20
-471.28125
 10
344.5166015625
 20
-470.126953125
 10
345.8408203125
 20
-469.5498046875
 10
347.5400390625
 20
-469.5498046875
 10
349.1279296875
 20
-469.5498046875
 10
350.34765625
 20
-469.9892578125
 10
351.2001953125
 20
-470.8681640625
 10
352.052734375
 20
-471.7470703125
 10
352.53515625
 20
-472.9130859375
 10
352.646484375
 20
-474.3662109375
 10
352.646484375
 20
-474.3662109375
 10
349.2099609375
 20
-474.55078125
 10
349.2099609375
 20
-474.55078125
 10
349.2099609375
 20
-473.748046875
 10
349.0556640625
 20
-473.1679687499999
 10
348.748046875
 20
-472.8105468749999
 10
348.4404296875
 20
-472.453125
 10
348.0791015625
 20
-472.2744140625
 10
347.6630859375
 20
-472.2744140625
 10
346.5029296875
 20
-472.2744140625
 10
345.9228515625
 20
-473.4404296874999
 10
345.9228515625
 20
-475.7724609374999
 10
345.9228515625
 20
-477.0791015624999
 10
346.0732421875
 20
-477.966796875
 10
346.375
 20
-478.435546875
 10
346.6767578125
 20
-478.904296875
 10
347.1005859375
 20
-479.138671875
 10
347.6455078125
 20
-479.138671875
 10
348.6181640625
 20
-479.138671875
 10
349.1630859375
 20
-478.4765625
 10
349.2802734375
 20
-477.1523437499999
 97
        0
 97
        1
330
A2
 75
     2
 76
     1
 98
        1
 10
0.0
 20
0.0
450
        0
451
        0
460
0.0
461
0.0
452
        0
462
0.0
453
        0
470

  0
SPLINE
  5
A4
330
81
100
AcDbEntity
  8
Layer 1
100
AcDbSpline
210
0.0
220
0.0
230
1.0
 70
    11
 71
     3
 72
    41
 73
    37
 74
     0
 42
0.0000000001
 43
0.0000000001
 40
0.0
 40
0.0
 40
0.0
 40
0.0
 40
1.0
 40
1.0
 40
1.0
 40
2.0
 40
2.0
 40
2.0
 40
3.0
 40
3.0
 40
3.0
 40
4.0
 40
4.0
 40
4.0
 40
5.0
 40
5.0
 40
5.0
 40
6.0
 40
6.0
 40
6.0
 40
7.0
 40
7.0
 40
7.0
 40
8.0
 40
8.0
 40
8.0
 40
9.0
 40
9.0
 40
9.0
 40
10.0
 40
10.0
 40
10.0
 40
11.0
 40
11.0
 40
11.0
 40
12.0
 40
12.0
 40
12.0
 40
12.0
 10
364.810546875
 20
-481.7314453125
 30
0.0
 10
364.810546875
 20
-481.7314453125
 30
0.0
 10
360.78125
 20
-481.7314453125
 30
0.0
 10
360.78125
 20
-481.7314453125
 30
0.0
 10
360.78125
 20
-481.7314453125
 30
0.0
 10
358.70703125
 20
-477.197265625
 30
0.0
 10
358.70703125
 20
-477.197265625
 30
0.0
 10
358.70703125
 20
-477.197265625
 30
0.0
 10
357.462890625
 20
-478.9628906249999
 30
0.0
 10
357.462890625
 20
-478.9628906249999
 30
0.0
 10
357.462890625
 20
-478.9628906249999
 30
0.0
 10
357.462890625
 20
-481.7314453125
 30
0.0
 10
357.462890625
 20
-481.7314453125
 30
0.0
 10
357.462890625
 20
-481.7314453125
 30
0.0
 10
353.9912109375
 20
-481.7314453125
 30
0.0
 10
353.9912109375
 20
-481.7314453125
 30
0.0
 10
353.9912109375
 20
-481.7314453125
 30
0.0
 10
353.9912109375
 20
-469.7343749999999
 30
0.0
 10
353.9912109375
 20
-469.7343749999999
 30
0.0
 10
353.9912109375
 20
-469.7343749999999
 30
0.0
 10
357.462890625
 20
-469.7343749999999
 30
0.0
 10
357.462890625
 20
-469.7343749999999
 30
0.0
 10
357.462890625
 20
-469.7343749999999
 30
0.0
 10
357.462890625
 20
-474.6943359374999
 30
0.0
 10
357.462890625
 20
-474.6943359374999
 30
0.0
 10
357.462890625
 20
-474.6943359374999
 30
0.0
 10
360.771484375
 20
-469.7343749999999
 30
0.0
 10
360.771484375
 20
-469.7343749999999
 30
0.0
 10
360.771484375
 20
-469.7343749999999
 30
0.0
 10
364.0810546875
 20
-469.7343749999999
 30
0.0
 10
364.0810546875
 20
-469.7343749999999
 30
0.0
 10
364.0810546875
 20
-469.7343749999999
 30
0.0
 10
361.05078125
 20
-474.1249999999999
 30
0.0
 10
361.05078125
 20
-474.1249999999999
 30
0.0
 10
361.05078125
 20
-474.1249999999999
 30
0.0
 10
364.810546875
 20
-481.7314453125
 30
0.0
 10
364.810546875
 20
-481.7314453125
 30
0.0
  0
HATCH
  5
A5
330
81
100
AcDbEntity
  8
Layer 1
 62
   250
420
  2301728
440
 33554687
100
AcDbHatch
 10
0.0
 20
0.0
 30
0.0
210
0.0
220
0.0
230
1.0
  2
SOLID
 70
     1
 71
     1
 91
        1
 92
        1
 93
        1
 72
     4
 94
        3
 73
     0
 74
     0
 95
       41
 96
       37
 40
0.0
 40
0.0
 40
0.0
 40
0.0
 40
1.0
 40
1.0
 40
1.0
 40
2.0
 40
2.0
 40
2.0
 40
3.0
 40
3.0
 40
3.0
 40
4.0
 40
4.0
 40
4.0
 40
5.0
 40
5.0
 40
5.0
 40
6.0
 40
6.0
 40
6.0
 40
7.0
 40
7.0
 40
7.0
 40
8.0
 40
8.0
 40
8.0
 40
9.0
 40
9.0
 40
9.0
 40
10.0
 40
10.0
 40
10.0
 40
11.0
 40
11.0
 40
11.0
 40
12.0
 40
12.0
 40
12.0
 40
12.0
 10
364.810546875
 20
-481.7314453125
 10
364.810546875
 20
-481.7314453125
 10
360.78125
 20
-481.7314453125
 10
360.78125
 20
-481.7314453125
 10
360.78125
 20
-481.7314453125
 10
358.70703125
 20
-477.197265625
 10
358.70703125
 20
-477.197265625
 10
358.70703125
 20
-477.197265625
 10
357.462890625
 20
-478.9628906249999
 10
357.462890625
 20
-478.9628906249999
 10
357.462890625
 20
-478.9628906249999
 10
357.462890625
 20
-481.7314453125
 10
357.462890625
 20
-481.7314453125
 10
357.462890625
 20
-481.7314453125
 10
353.9912109375
 20
-481.7314453125
 10
353.9912109375
 20
-481.7314453125
 10
353.9912109375
 20
-481.7314453125
 10
353.9912109375
 20
-469.7343749999999
 10
353.9912109375
 20
-469.7343749999999
 10
353.9912109375
 20
-469.7343749999999
 10
357.462890625
 20
-469.7343749999999
 10
357.462890625
 20
-469.7343749999999
 10
357.462890625
 20
-469.7343749999999
 10
357.462890625
 20
-474.6943359374999
 10
357.462890625
 20
-474.6943359374999
 10
357.462890625
 20
-474.6943359374999
 10
360.771484375
 20
-469.7343749999999
 10
360.771484375
 20
-469.7343749999999
 10
360.771484375
 20
-469.7343749999999
 10
364.0810546875
 20
-469.7343749999999
 10
364.0810546875
 20
-469.7343749999999
 10
364.0810546875
 20
-469.7343749999999
 10
361.05078125
 20
-474.1249999999999
 10
361.05078125
 20
-474.1249999999999
 10
361.05078125
 20
-474.1249999999999
 10
364.810546875
 20
-481.7314453125
 10
364.810546875
 20
-481.7314453125
 97
        0
 97
        1
330
A4
 75
     2
 76
     1
 98
        1
 10
0.0
 20
0.0
450
        0
451
        0
460
0.0
461
0.0
452
        0
462
0.0
453
        0
470

  0
SPLINE
  5
A6
330
81
100
AcDbEntity
  8
Layer 1
100
AcDbSpline
210
0.0
220
0.0
230
1.0
 70
    11
 71
     3
 72
    17
 73
    13
 74
     0
 42
0.0000000001
 43
0.0000000001
 40
0.0
 40
0.0
 40
0.0
 40
0.0
 40
1.0
 40
1.0
 40
1.0
 40
2.0
 40
2.0
 40
2.0
 40
3.0
 40
3.0
 40
3.0
 40
4.0
 40
4.0
 40
4.0
 40
4.0
 10
369.4775390625
 20
-469.7343749999999
 30
0.0
 10
369.4775390625
 20
-469.7343749999999
 30
0.0
 10
369.4775390625
 20
-481.7314453125
 30
0.0
 10
369.4775390625
 20
-481.7314453125
 30
0.0
 10
369.4775390625
 20
-481.7314453125
 30
0.0
 10
365.794921875
 20
-481.7314453125
 30
0.0
 10
365.794921875
 20
-481.7314453125
 30
0.0
 10
365.794921875
 20
-481.7314453125
 30
0.0
 10
365.794921875
 20
-469.7343749999999
 30
0.0
 10
365.794921875
 20
-469.7343749999999
 30
0.0
 10
365.794921875
 20
-469.7343749999999
 30
0.0
 10
369.4775390625
 20
-469.7343749999999
 30
0.0
 10
369.4775390625
 20
-469.7343749999999
 30
0.0
  0
HATCH
  5
A7
330
81
100
AcDbEntity
  8
Layer 1
 62
   250
420
  2301728
440
 33554687
100
AcDbHatch
 10
0.0
 20
0.0
 30
0.0
210
0.0
220
0.0
230
1.0
  2
SOLID
 70
     1
 71
     1
 91
        1
 92
        1
 93
        1
 72
     4
 94
        3
 73
     0
 74
     0
 95
       17
 96
       13
 40
0.0
 40
0.0
 40
0.0
 40
0.0
 40
1.0
 40
1.0
 40
1.0
 40
2.0
 40
2.0
 40
2.0
 40
3.0
 40
3.0
 40
3.0
 40
4.0
 40
4.0
 40
4.0
 40
4.0
 10
369.4775390625
 20
-469.7343749999999
 10
369.4775390625
 20
-469.7343749999999
 10
369.4775390625
 20
-481.7314453125
 10
369.4775390625
 20
-481.7314453125
 10
369.4775390625
 20
-481.7314453125
 10
365.794921875
 20
-481.7314453125
 10
365.794921875
 20
-481.7314453125
 10
365.794921875
 20
-481.7314453125
 10
365.794921875
 20
-469.7343749999999
 10
365.794921875
 20
-469.7343749999999
 10
365.794921875
 20
-469.7343749999999
 10
369.4775390625
 20
-469.7343749999999
 10
369.4775390625
 20
-469.7343749999999
 97
        0
 97
        1
330
A6
 75
     2
 76
     1
 98
        1
 10
0.0
 20
0.0
450
        0
451
        0
460
0.0
461
0.0
452
        0
462
0.0
453
        0
470

  0
SPLINE
  5
A8
330
81
100
AcDbEntity
  8
Layer 1
100
AcDbSpline
210
0.0
220
0.0
230
1.0
 70
    11
 71
     3
 72
    47
 73
    43
 74
     0
 42
0.0000000001
 43
0.0000000001
 40
0.0
 40
0.0
 40
0.0
 40
0.0
 40
1.0
 40
1.0
 40
1.0
 40
2.0
 40
2.0
 40
2.0
 40
3.0
 40
3.0
 40
3.0
 40
4.0
 40
4.0
 40
4.0
 40
5.0
 40
5.0
 40
5.0
 40
6.0
 40
6.0
 40
6.0
 40
7.0
 40
7.0
 40
7.0
 40
8.0
 40
8.0
 40
8.0
 40
9.0
 40
9.0
 40
9.0
 40
10.0
 40
10.0
 40
10.0
 40
11.0
 40
11.0
 40
11.0
 40
12.0
 40
12.0
 40
12.0
 40
13.0
 40
13.0
 40
13.0
 40
14.0
 40
14.0
 40
14.0
 40
14.0
 10
381.826171875
 20
-481.7314453125
 30
0.0
 10
381.826171875
 20
-481.7314453125
 30
0.0
 10
378.8291015625
 20
-481.7314453125
 30
0.0
 10
378.8291015625
 20
-481.7314453125
 30
0.0
 10
378.8291015625
 20
-481.7314453125
 30
0.0
 10
375.54296875
 20
-476.4306640625
 30
0.0
 10
375.54296875
 20
-476.4306640625
 30
0.0
 10
375.1220703125
 20
-475.7509765625
 30
0.0
 10
374.6962890625
 20
-474.9248046875
 30
0.0
 10
374.267578125
 20
-473.9531249999999
 30
0.0
 10
374.4609375
 20
-474.7265624999999
 30
0.0
 10
374.5576171875
 20
-475.3828125
 30
0.0
 10
374.5576171875
 20
-475.921875
 30
0.0
 10
374.5576171875
 20
-475.921875
 30
0.0
 10
374.5576171875
 20
-481.7314453125
 30
0.0
 10
374.5576171875
 20
-481.7314453125
 30
0.0
 10
374.5576171875
 20
-481.7314453125
 30
0.0
 10
371.5693359375
 20
-481.7314453125
 30
0.0
 10
371.5693359375
 20
-481.7314453125
 30
0.0
 10
371.5693359375
 20
-481.7314453125
 30
0.0
 10
371.5693359375
 20
-469.7343749999999
 30
0.0
 10
371.5693359375
 20
-469.7343749999999
 30
0.0
 10
371.5693359375
 20
-469.7343749999999
 30
0.0
 10
375.0498046875
 20
-469.7343749999999
 30
0.0
 10
375.0498046875
 20
-469.7343749999999
 30
0.0
 10
375.0498046875
 20
-469.7343749999999
 30
0.0
 10
377.8447265625
 20
-474.1279296874999
 30
0.0
 10
377.8447265625
 20
-474.1279296874999
 30
0.0
 10
378.4013671875
 20
-475.001953125
 30
0.0
 10
378.8232421875
 20
-475.76953125
 30
0.0
 10
379.1103515625
 20
-476.4316406249999
 30
0.0
 10
378.9228515625
 20
-475.4062499999999
 30
0.0
 10
378.8291015625
 20
-474.357421875
 30
0.0
 10
378.8291015625
 20
-473.28515625
 30
0.0
 10
378.8291015625
 20
-473.28515625
 30
0.0
 10
378.8291015625
 20
-469.7343749999999
 30
0.0
 10
378.8291015625
 20
-469.7343749999999
 30
0.0
 10
378.8291015625
 20
-469.7343749999999
 30
0.0
 10
381.826171875
 20
-469.7343749999999
 30
0.0
 10
381.826171875
 20
-469.7343749999999
 30
0.0
 10
381.826171875
 20
-469.7343749999999
 30
0.0
 10
381.826171875
 20
-481.7314453125
 30
0.0
 10
381.826171875
 20
-481.7314453125
 30
0.0
  0
HATCH
  5
A9
330
81
100
AcDbEntity
  8
Layer 1
 62
   250
420
  2301728
440
 33554687
100
AcDbHatch
 10
0.0
 20
0.0
 30
0.0
210
0.0
220
0.0
230
1.0
  2
SOLID
 70
     1
 71
     1
 91
        1
 92
        1
 93
        1
 72
     4
 94
        3
 73
     0
 74
     0
 95
       47
 96
       43
 40
0.0
 40
0.0
 40
0.0
 40
0.0
 40
1.0
 40
1.0
 40
1.0
 40
2.0
 40
2.0
 40
2.0
 40
3.0
 40
3.0
 40
3.0
 40
4.0
 40
4.0
 40
4.0
 40
5.0
 40
5.0
 40
5.0
 40
6.0
 40
6.0
 40
6.0
 40
7.0
 40
7.0
 40
7.0
 40
8.0
 40
8.0
 40
8.0
 40
9.0
 40
9.0
 40
9.0
 40
10.0
 40
10.0
 40
10.0
 40
11.0
 40
11.0
 40
11.0
 40
12.0
 40
12.0
 40
12.0
 40
13.0
 40
13.0
 40
13.0
 40
14.0
 40
14.0
 40
14.0
 40
14.0
 10
381.826171875
 20
-481.7314453125
 10
381.826171875
 20
-481.7314453125
 10
378.8291015625
 20
-481.7314453125
 10
378.8291015625
 20
-481.7314453125
 10
378.8291015625
 20
-481.7314453125
 10
375.54296875
 20
-476.4306640625
 10
375.54296875
 20
-476.4306640625
 10
375.1220703125
 20
-475.7509765625
 10
374.6962890625
 20
-474.9248046875
 10
374.267578125
 20
-473.9531249999999
 10
374.4609375
 20
-474.7265624999999
 10
374.5576171875
 20
-475.3828125
 10
374.5576171875
 20
-475.921875
 10
374.5576171875
 20
-475.921875
 10
374.5576171875
 20
-481.7314453125
 10
374.5576171875
 20
-481.7314453125
 10
374.5576171875
 20
-481.7314453125
 10
371.5693359375
 20
-481.7314453125
 10
371.5693359375
 20
-481.7314453125
 10
371.5693359375
 20
-481.7314453125
 10
371.5693359375
 20
-469.7343749999999
 10
371.5693359375
 20
-469.7343749999999
 10
371.5693359375
 20
-469.7343749999999
 10
375.0498046875
 20
-469.7343749999999
 10
375.0498046875
 20
-469.7343749999999
 10
375.0498046875
 20
-469.7343749999999
 10
377.8447265625
 20
-474.1279296874999
 10
377.8447265625
 20
-474.1279296874999
 10
378.4013671875
 20
-475.001953125
 10
378.8232421875
 20
-475.76953125
 10
379.1103515625
 20
-476.4316406249999
 10
378.9228515625
 20
-475.4062499999999
 10
378.8291015625
 20
-474.357421875
 10
378.8291015625
 20
-473.28515625
 10
378.8291015625
 20
-473.28515625
 10
378.8291015625
 20
-469.7343749999999
 10
378.8291015625
 20
-469.7343749999999
 10
378.8291015625
 20
-469.7343749999999
 10
381.826171875
 20
-469.7343749999999
 10
381.826171875
 20
-469.7343749999999
 10
381.826171875
 20
-469.7343749999999
 10
381.826171875
 20
-481.7314453125
 10
381.826171875
 20
-481.7314453125
 97
        0
 97
        1
330
A8
 75
     2
 76
     1
 98
        1
 10
0.0
 20
0.0
450
        0
451
        0
460
0.0
461
0.0
452
        0
462
0.0
453
        0
470

  0
SPLINE
  5
AA
330
81
100
AcDbEntity
  8
Layer 1
100
AcDbSpline
210
0.0
220
0.0
230
1.0
 70
    11
 71
     3
 72
    65
 73
    61
 74
     0
 42
0.0000000001
 43
0.0000000001
 40
0.0
 40
0.0
 40
0.0
 40
0.0
 40
1.0
 40
1.0
 40
1.0
 40
2.0
 40
2.0
 40
2.0
 40
3.0
 40
3.0
 40
3.0
 40
4.0
 40
4.0
 40
4.0
 40
5.0
 40
5.0
 40
5.0
 40
6.0
 40
6.0
 40
6.0
 40
7.0
 40
7.0
 40
7.0
 40
8.0
 40
8.0
 40
8.0
 40
9.0
 40
9.0
 40
9.0
 40
10.0
 40
10.0
 40
10.0
 40
11.0
 40
11.0
 40
11.0
 40
12.0
 40
12.0
 40
12.0
 40
13.0
 40
13.0
 40
13.0
 40
14.0
 40
14.0
 40
14.0
 40
15.0
 40
15.0
 40
15.0
 40
16.0
 40
16.0
 40
16.0
 40
17.0
 40
17.0
 40
17.0
 40
18.0
 40
18.0
 40
18.0
 40
19.0
 40
19.0
 40
19.0
 40
20.0
 40
20.0
 40
20.0
 40
20.0
 10
394.2802734375
 20
-475.0078124999999
 30
0.0
 10
394.2802734375
 20
-475.0078124999999
 30
0.0
 10
394.2802734375
 20
-481.7314453125
 30
0.0
 10
394.2802734375
 20
-481.7314453125
 30
0.0
 10
394.2802734375
 20
-481.7314453125
 30
0.0
 10
392.478515625
 20
-481.7314453125
 30
0.0
 10
392.478515625
 20
-481.7314453125
 30
0.0
 10
392.33203125
 20
-481.2333984374999
 30
0.0
 10
392.1708984375
 20
-480.8144531249999
 30
0.0
 10
391.9951171875
 20
-480.474609375
 30
0.0
 10
391.2509765625
 20
-481.435546875
 30
0.0
 10
390.1494140625
 20
-481.9160156249999
 30
0.0
 10
388.6904296875
 20
-481.9160156249999
 30
0.0
 10
387.1435546875
 20
-481.9160156249999
 30
0.0
 10
385.8720703125
 20
-481.3749999999999
 30
0.0
 10
384.8759765625
 20
-480.2939453125
 30
0.0
 10
383.8798828125
 20
-479.212890625
 30
0.0
 10
383.3818359375
 20
-477.7499999999999
 30
0.0
 10
383.3818359375
 20
-475.904296875
 30
0.0
 10
383.3818359375
 20
-474.111328125
 30
0.0
 10
383.86328125
 20
-472.603515625
 30
0.0
 10
384.8271484375
 20
-471.3818359374999
 30
0.0
 10
385.791015625
 20
-470.16015625
 30
0.0
 10
387.2255859375
 20
-469.5498046875
 30
0.0
 10
389.1298828125
 20
-469.5498046875
 30
0.0
 10
390.5595703125
 20
-469.5498046875
 30
0.0
 10
391.7109375
 20
-469.9130859374999
 30
0.0
 10
392.583984375
 20
-470.6396484375
 30
0.0
 10
393.45703125
 20
-471.3662109374999
 30
0.0
 10
394.0224609375
 20
-472.3974609375
 30
0.0
 10
394.2802734375
 20
-473.7333984374999
 30
0.0
 10
394.2802734375
 20
-473.7333984374999
 30
0.0
 10
390.7119140625
 20
-474.0849609375
 30
0.0
 10
390.7119140625
 20
-474.0849609375
 30
0.0
 10
390.5361328125
 20
-472.8369140625
 30
0.0
 10
389.98828125
 20
-472.212890625
 30
0.0
 10
389.068359375
 20
-472.212890625
 30
0.0
 10
387.861328125
 20
-472.212890625
 30
0.0
 10
387.2578125
 20
-473.361328125
 30
0.0
 10
387.2578125
 20
-475.6582031249999
 30
0.0
 10
387.2578125
 20
-477.046875
 30
0.0
 10
387.451171875
 20
-477.9619140624999
 30
0.0
 10
387.837890625
 20
-478.4042968749999
 30
0.0
 10
388.224609375
 20
-478.8466796875
 30
0.0
 10
388.693359375
 20
-479.0683593749999
 30
0.0
 10
389.244140625
 20
-479.0683593749999
 30
0.0
 10
389.689453125
 20
-479.0683593749999
 30
0.0
 10
390.068359375
 20
-478.9335937499999
 30
0.0
 10
390.3818359375
 20
-478.6640625
 30
0.0
 10
390.6953125
 20
-478.39453125
 30
0.0
 10
390.85546875
 20
-478.025390625
 30
0.0
 10
390.861328125
 20
-477.556640625
 30
0.0
 10
390.861328125
 20
-477.556640625
 30
0.0
 10
388.875
 20
-477.556640625
 30
0.0
 10
388.875
 20
-477.556640625
 30
0.0
 10
388.875
 20
-477.556640625
 30
0.0
 10
388.875
 20
-475.0078124999999
 30
0.0
 10
388.875
 20
-475.0078124999999
 30
0.0
 10
388.875
 20
-475.0078124999999
 30
0.0
 10
394.2802734375
 20
-475.0078124999999
 30
0.0
 10
394.2802734375
 20
-475.0078124999999
 30
0.0
  0
HATCH
  5
AB
330
81
100
AcDbEntity
  8
Layer 1
 62
   250
420
  2301728
440
 33554687
100
AcDbHatch
 10
0.0
 20
0.0
 30
0.0
210
0.0
220
0.0
230
1.0
  2
SOLID
 70
     1
 71
     1
 91
        1
 92
        1
 93
        1
 72
     4
 94
        3
 73
     0
 74
     0
 95
       65
 96
       61
 40
0.0
 40
0.0
 40
0.0
 40
0.0
 40
1.0
 40
1.0
 40
1.0
 40
2.0
 40
2.0
 40
2.0
 40
3.0
 40
3.0
 40
3.0
 40
4.0
 40
4.0
 40
4.0
 40
5.0
 40
5.0
 40
5.0
 40
6.0
 40
6.0
 40
6.0
 40
7.0
 40
7.0
 40
7.0
 40
8.0
 40
8.0
 40
8.0
 40
9.0
 40
9.0
 40
9.0
 40
10.0
 40
10.0
 40
10.0
 40
11.0
 40
11.0
 40
11.0
 40
12.0
 40
12.0
 40
12.0
 40
13.0
 40
13.0
 40
13.0
 40
14.0
 40
14.0
 40
14.0
 40
15.0
 40
15.0
 40
15.0
 40
16.0
 40
16.0
 40
16.0
 40
17.0
 40
17.0
 40
17.0
 40
18.0
 40
18.0
 40
18.0
 40
19.0
 40
19.0
 40
19.0
 40
20.0
 40
20.0
 40
20.0
 40
20.0
 10
394.2802734375
 20
-475.0078124999999
 10
394.2802734375
 20
-475.0078124999999
 10
394.2802734375
 20
-481.7314453125
 10
394.2802734375
 20
-481.7314453125
 10
394.2802734375
 20
-481.7314453125
 10
392.478515625
 20
-481.7314453125
 10
392.478515625
 20
-481.7314453125
 10
392.33203125
 20
-481.2333984374999
 10
392.1708984375
 20
-480.8144531249999
 10
391.9951171875
 20
-480.474609375
 10
391.2509765625
 20
-481.435546875
 10
390.1494140625
 20
-481.9160156249999
 10
388.6904296875
 20
-481.9160156249999
 10
387.1435546875
 20
-481.9160156249999
 10
385.8720703125
 20
-481.3749999999999
 10
384.8759765625
 20
-480.2939453125
 10
383.8798828125
 20
-479.212890625
 10
383.3818359375
 20
-477.7499999999999
 10
383.3818359375
 20
-475.904296875
 10
383.3818359375
 20
-474.111328125
 10
383.86328125
 20
-472.603515625
 10
384.8271484375
 20
-471.3818359374999
 10
385.791015625
 20
-470.16015625
 10
387.2255859375
 20
-469.5498046875
 10
389.1298828125
 20
-469.5498046875
 10
390.5595703125
 20
-469.5498046875
 10
391.7109375
 20
-469.9130859374999
 10
392.583984375
 20
-470.6396484375
 10
393.45703125
 20
-471.3662109374999
 10
394.0224609375
 20
-472.3974609375
 10
394.2802734375
 20
-473.7333984374999
 10
394.2802734375
 20
-473.7333984374999
 10
390.7119140625
 20
-474.0849609375
 10
390.7119140625
 20
-474.0849609375
 10
390.5361328125
 20
-472.8369140625
 10
389.98828125
 20
-472.212890625
 10
389.068359375
 20
-472.212890625
 10
387.861328125
 20
-472.212890625
 10
387.2578125
 20
-473.361328125
 10
387.2578125
 20
-475.6582031249999
 10
387.2578125
 20
-477.046875
 10
387.451171875
 20
-477.9619140624999
 10
387.837890625
 20
-478.4042968749999
 10
388.224609375
 20
-478.8466796875
 10
388.693359375
 20
-479.0683593749999
 10
389.244140625
 20
-479.0683593749999
 10
389.689453125
 20
-479.0683593749999
 10
390.068359375
 20
-478.9335937499999
 10
390.3818359375
 20
-478.6640625
 10
390.6953125
 20
-478.39453125
 10
390.85546875
 20
-478.025390625
 10
390.861328125
 20
-477.556640625
 10
390.861328125
 20
-477.556640625
 10
388.875
 20
-477.556640625
 10
388.875
 20
-477.556640625
 10
388.875
 20
-477.556640625
 10
388.875
 20
-475.0078124999999
 10
388.875
 20
-475.0078124999999
 10
388.875
 20
-475.0078124999999
 10
394.2802734375
 20
-475.0078124999999
 10
394.2802734375
 20
-475.0078124999999
 97
        0
 97
        1
330
AA
 75
     2
 76
     1
 98
        1
 10
0.0
 20
0.0
450
        0
451
        0
460
0.0
461
0.0
452
        0
462
0.0
453
        0
470

  0
SPLINE
  5
AC
330
81
100
AcDbEntity
  8
Layer 1
100
AcDbSpline
210
0.0
220
0.0
230
1.0
 70
    11
 71
     3
 72
    32
 73
    28
 74
     0
 42
0.0000000001
 43
0.0000000001
 40
0.0
 40
0.0
 40
0.0
 40
0.0
 40
1.0
 40
1.0
 40
1.0
 40
2.0
 40
2.0
 40
2.0
 40
3.0
 40
3.0
 40
3.0
 40
4.0
 40
4.0
 40
4.0
 40
5.0
 40
5.0
 40
5.0
 40
6.0
 40
6.0
 40
6.0
 40
7.0
 40
7.0
 40
7.0
 40
8.0
 40
8.0
 40
8.0
 40
9.0
 40
9.0
 40
9.0
 40
9.0
 10
351.5498046875
 20
-491.333984375
 30
0.0
 10
351.5498046875
 20
-491.333984375
 30
0.0
 10
347.794921875
 20
-498.2509765625
 30
0.0
 10
347.794921875
 20
-498.2509765625
 30
0.0
 10
347.794921875
 20
-498.2509765625
 30
0.0
 10
347.794921875
 20
-503.3310546874999
 30
0.0
 10
347.794921875
 20
-503.3310546874999
 30
0.0
 10
347.794921875
 20
-503.3310546874999
 30
0.0
 10
344.2177734375
 20
-503.3310546874999
 30
0.0
 10
344.2177734375
 20
-503.3310546874999
 30
0.0
 10
344.2177734375
 20
-503.3310546874999
 30
0.0
 10
344.2177734375
 20
-498.2509765625
 30
0.0
 10
344.2177734375
 20
-498.2509765625
 30
0.0
 10
344.2177734375
 20
-498.2509765625
 30
0.0
 10
340.181640625
 20
-491.333984375
 30
0.0
 10
340.181640625
 20
-491.333984375
 30
0.0
 10
340.181640625
 20
-491.333984375
 30
0.0
 10
344.2109375
 20
-491.333984375
 30
0.0
 10
344.2109375
 20
-491.333984375
 30
0.0
 10
344.2109375
 20
-491.333984375
 30
0.0
 10
346.3134765625
 20
-495.2890625
 30
0.0
 10
346.3134765625
 20
-495.2890625
 30
0.0
 10
346.3134765625
 20
-495.2890625
 30
0.0
 10
348.3291015625
 20
-491.333984375
 30
0.0
 10
348.3291015625
 20
-491.333984375
 30
0.0
 10
348.3291015625
 20
-491.333984375
 30
0.0
 10
351.5498046875
 20
-491.333984375
 30
0.0
 10
351.5498046875
 20
-491.333984375
 30
0.0
  0
HATCH
  5
AD
330
81
100
AcDbEntity
  8
Layer 1
 62
   250
420
  2301728
440
 33554687
100
AcDbHatch
 10
0.0
 20
0.0
 30
0.0
210
0.0
220
0.0
230
1.0
  2
SOLID
 70
     1
 71
     1
 91
        1
 92
        1
 93
        1
 72
     4
 94
        3
 73
     0
 74
     0
 95
       32
 96
       28
 40
0.0
 40
0.0
 40
0.0
 40
0.0
 40
1.0
 40
1.0
 40
1.0
 40
2.0
 40
2.0
 40
2.0
 40
3.0
 40
3.0
 40
3.0
 40
4.0
 40
4.0
 40
4.0
 40
5.0
 40
5.0
 40
5.0
 40
6.0
 40
6.0
 40
6.0
 40
7.0
 40
7.0
 40
7.0
 40
8.0
 40
8.0
 40
8.0
 40
9.0
 40
9.0
 40
9.0
 40
9.0
 10
351.5498046875
 20
-491.333984375
 10
351.5498046875
 20
-491.333984375
 10
347.794921875
 20
-498.2509765625
 10
347.794921875
 20
-498.2509765625
 10
347.794921875
 20
-498.2509765625
 10
347.794921875
 20
-503.3310546874999
 10
347.794921875
 20
-503.3310546874999
 10
347.794921875
 20
-503.3310546874999
 10
344.2177734375
 20
-503.3310546874999
 10
344.2177734375
 20
-503.3310546874999
 10
344.2177734375
 20
-503.3310546874999
 10
344.2177734375
 20
-498.2509765625
 10
344.2177734375
 20
-498.2509765625
 10
344.2177734375
 20
-498.2509765625
 10
340.181640625
 20
-491.333984375
 10
340.181640625
 20
-491.333984375
 10
340.181640625
 20
-491.333984375
 10
344.2109375
 20
-491.333984375
 10
344.2109375
 20
-491.333984375
 10
344.2109375
 20
-491.333984375
 10
346.3134765625
 20
-495.2890625
 10
346.3134765625
 20
-495.2890625
 10
346.3134765625
 20
-495.2890625
 10
348.3291015625
 20
-491.333984375
 10
348.3291015625
 20
-491.333984375
 10
348.3291015625
 20
-491.333984375
 10
351.5498046875
 20
-491.333984375
 10
351.5498046875
 20
-491.333984375
 97
        0
 97
        1
330
AC
 75
     2
 76
     1
 98
        1
 10
0.0
 20
0.0
450
        0
451
        0
460
0.0
461
0.0
452
        0
462
0.0
453
        0
470

  0
SPLINE
  5
AE
330
81
100
AcDbEntity
  8
Layer 1
100
AcDbSpline
210
0.0
220
0.0
230
1.0
 70
     9
 71
     3
 72
    20
 73
    16
 74
     0
 42
0.0000000001
 43
0.0000000001
 40
0.0
 40
0.0
 40
0.0
 40
0.0
 40
1.0
 40
1.0
 40
1.0
 40
2.0
 40
2.0
 40
2.0
 40
3.0
 40
3.0
 40
3.0
 40
4.0
 40
4.0
 40
4.0
 40
5.0
 40
5.0
 40
5.0
 40
5.0
 10
356.8037109375
 20
-500.791015625
 30
0.0
 10
357.4248046875
 20
-500.791015625
 30
0.0
 10
357.87109375
 20
-500.5205078124999
 30
0.0
 10
358.1435546875
 20
-499.9785156249999
 30
0.0
 10
358.416015625
 20
-499.4365234375
 30
0.0
 10
358.552734375
 20
-498.4443359374999
 30
0.0
 10
358.552734375
 20
-497.0029296875
 30
0.0
 10
358.552734375
 20
-494.9169921874999
 30
0.0
 10
357.9931640625
 20
-493.8740234375
 30
0.0
 10
356.8740234375
 20
-493.8740234375
 30
0.0
 10
355.6669921875
 20
-493.8740234375
 30
0.0
 10
355.0634765625
 20
-495.0634765624999
 30
0.0
 10
355.0634765625
 20
-497.4423828125
 30
0.0
 10
355.0634765625
 20
-499.6748046875
 30
0.0
 10
355.6435546875
 20
-500.791015625
 30
0.0
 10
356.8037109375
 20
-500.791015625
 30
0.0
  0
SPLINE
  5
AF
330
81
100
AcDbEntity
  8
Layer 1
100
AcDbSpline
210
0.0
220
0.0
230
1.0
 70
     9
 71
     3
 72
    29
 73
    25
 74
     0
 42
0.0000000001
 43
0.0000000001
 40
0.0
 40
0.0
 40
0.0
 40
0.0
 40
1.0
 40
1.0
 40
1.0
 40
2.0
 40
2.0
 40
2.0
 40
3.0
 40
3.0
 40
3.0
 40
4.0
 40
4.0
 40
4.0
 40
5.0
 40
5.0
 40
5.0
 40
6.0
 40
6.0
 40
6.0
 40
7.0
 40
7.0
 40
7.0
 40
8.0
 40
8.0
 40
8.0
 40
8.0
 10
356.8212890625
 20
-503.515625
 30
0.0
 10
355.1337890625
 20
-503.515625
 30
0.0
 10
353.7578125
 20
-502.9560546875
 30
0.0
 10
352.6943359375
 20
-501.8369140625
 30
0.0
 10
351.630859375
 20
-500.7177734375
 30
0.0
 10
351.099609375
 20
-499.220703125
 30
0.0
 10
351.099609375
 20
-497.3457031249999
 30
0.0
 10
351.099609375
 20
-495.552734375
 30
0.0
 10
351.607421875
 20
-494.072265625
 30
0.0
 10
352.6240234375
 20
-492.9033203124999
 30
0.0
 10
353.640625
 20
-491.7343749999999
 30
0.0
 10
355.0517578125
 20
-491.1494140624999
 30
0.0
 10
356.8564453125
 20
-491.1494140624999
 30
0.0
 10
358.5263671875
 20
-491.1494140624999
 30
0.0
 10
359.88671875
 20
-491.7001953125
 30
0.0
 10
360.9384765625
 20
-492.8017578124999
 30
0.0
 10
361.990234375
 20
-493.9033203124999
 30
0.0
 10
362.5166015625
 20
-495.3740234375
 30
0.0
 10
362.5166015625
 20
-497.2138671875
 30
0.0
 10
362.5166015625
 20
-499.1181640625
 30
0.0
 10
361.986328125
 20
-500.64453125
 30
0.0
 10
360.92578125
 20
-501.7929687499999
 30
0.0
 10
359.865234375
 20
-502.9414062499999
 30
0.0
 10
358.4970703125
 20
-503.515625
 30
0.0
 10
356.8212890625
 20
-503.515625
 30
0.0
  0
HATCH
  5
B0
330
81
100
AcDbEntity
  8
Layer 1
 62
   250
420
  2301728
440
 33554687
100
AcDbHatch
 10
0.0
 20
0.0
 30
0.0
210
0.0
220
0.0
230
1.0
  2
SOLID
 70
     1
 71
     1
 91
        2
 92
        1
 93
        1
 72
     4
 94
        3
 73
     0
 74
     0
 95
       20
 96
       16
 40
0.0
 40
0.0
 40
0.0
 40
0.0
 40
1.0
 40
1.0
 40
1.0
 40
2.0
 40
2.0
 40
2.0
 40
3.0
 40
3.0
 40
3.0
 40
4.0
 40
4.0
 40
4.0
 40
5.0
 40
5.0
 40
5.0
 40
5.0
 10
356.8037109375
 20
-500.791015625
 10
357.4248046875
 20
-500.791015625
 10
357.87109375
 20
-500.5205078124999
 10
358.1435546875
 20
-499.9785156249999
 10
358.416015625
 20
-499.4365234375
 10
358.552734375
 20
-498.4443359374999
 10
358.552734375
 20
-497.0029296875
 10
358.552734375
 20
-494.9169921874999
 10
357.9931640625
 20
-493.8740234375
 10
356.8740234375
 20
-493.8740234375
 10
355.6669921875
 20
-493.8740234375
 10
355.0634765625
 20
-495.0634765624999
 10
355.0634765625
 20
-497.4423828125
 10
355.0634765625
 20
-499.6748046875
 10
355.6435546875
 20
-500.791015625
 10
356.8037109375
 20
-500.791015625
 97
        0
 97
        1
330
AE
 92
        1
 93
        1
 72
     4
 94
        3
 73
     0
 74
     0
 95
       29
 96
       25
 40
0.0
 40
0.0
 40
0.0
 40
0.0
 40
1.0
 40
1.0
 40
1.0
 40
2.0
 40
2.0
 40
2.0
 40
3.0
 40
3.0
 40
3.0
 40
4.0
 40
4.0
 40
4.0
 40
5.0
 40
5.0
 40
5.0
 40
6.0
 40
6.0
 40
6.0
 40
7.0
 40
7.0
 40
7.0
 40
8.0
 40
8.0
 40
8.0
 40
8.0
 10
356.8212890625
 20
-503.515625
 10
355.1337890625
 20
-503.515625
 10
353.7578125
 20
-502.9560546875
 10
352.6943359375
 20
-501.8369140625
 10
351.630859375
 20
-500.7177734375
 10
351.099609375
 20
-499.220703125
 10
351.099609375
 20
-497.3457031249999
 10
351.099609375
 20
-495.552734375
 10
351.607421875
 20
-494.072265625
 10
352.6240234375
 20
-492.9033203124999
 10
353.640625
 20
-491.7343749999999
 10
355.0517578125
 20
-491.1494140624999
 10
356.8564453125
 20
-491.1494140624999
 10
358.5263671875
 20
-491.1494140624999
 10
359.88671875
 20
-491.7001953125
 10
360.9384765625
 20
-492.8017578124999
 10
361.990234375
 20
-493.9033203124999
 10
362.5166015625
 20
-495.3740234375
 10
362.5166015625
 20
-497.2138671875
 10
362.5166015625
 20
-499.1181640625
 10
361.986328125
 20
-500.64453125
 10
360.92578125
 20
-501.7929687499999
 10
359.865234375
 20
-502.9414062499999
 10
358.4970703125
 20
-503.515625
 10
356.8212890625
 20
-503.515625
 97
        0
 97
        1
330
AF
 75
     2
 76
     1
 98
        1
 10
0.0
 20
0.0
450
        0
451
        0
460
0.0
461
0.0
452
        0
462
0.0
453
        0
470

  0
SPLINE
  5
B1
330
81
100
AcDbEntity
  8
Layer 1
100
AcDbSpline
210
0.0
220
0.0
230
1.0
 70
    11
 71
     3
 72
    50
 73
    46
 74
     0
 42
0.0000000001
 43
0.0000000001
 40
0.0
 40
0.0
 40
0.0
 40
0.0
 40
1.0
 40
1.0
 40
1.0
 40
2.0
 40
2.0
 40
2.0
 40
3.0
 40
3.0
 40
3.0
 40
4.0
 40
4.0
 40
4.0
 40
5.0
 40
5.0
 40
5.0
 40
6.0
 40
6.0
 40
6.0
 40
7.0
 40
7.0
 40
7.0
 40
8.0
 40
8.0
 40
8.0
 40
9.0
 40
9.0
 40
9.0
 40
10.0
 40
10.0
 40
10.0
 40
11.0
 40
11.0
 40
11.0
 40
12.0
 40
12.0
 40
12.0
 40
13.0
 40
13.0
 40
13.0
 40
14.0
 40
14.0
 40
14.0
 40
15.0
 40
15.0
 40
15.0
 40
15.0
 10
373.8017578125
 20
-491.333984375
 30
0.0
 10
373.8017578125
 20
-491.333984375
 30
0.0
 10
373.8017578125
 20
-499.2792968749999
 30
0.0
 10
373.8017578125
 20
-499.2792968749999
 30
0.0
 10
373.8017578125
 20
-500.7851562499999
 30
0.0
 10
373.35546875
 20
-501.8681640625
 30
0.0
 10
372.4609375
 20
-502.52734375
 30
0.0
 10
371.5673828125
 20
-503.1865234375
 30
0.0
 10
370.4033203125
 20
-503.515625
 30
0.0
 10
368.9677734375
 20
-503.515625
 30
0.0
 10
367.4560546875
 20
-503.515625
 30
0.0
 10
366.2412109375
 20
-503.19921875
 30
0.0
 10
365.32421875
 20
-502.5664062499999
 30
0.0
 10
364.4072265625
 20
-501.93359375
 30
0.0
 10
363.94921875
 20
-500.9023437499999
 30
0.0
 10
363.94921875
 20
-499.47265625
 30
0.0
 10
363.94921875
 20
-499.47265625
 30
0.0
 10
363.94921875
 20
-491.333984375
 30
0.0
 10
363.94921875
 20
-491.333984375
 30
0.0
 10
363.94921875
 20
-491.333984375
 30
0.0
 10
367.693359375
 20
-491.333984375
 30
0.0
 10
367.693359375
 20
-491.333984375
 30
0.0
 10
367.693359375
 20
-491.333984375
 30
0.0
 10
367.693359375
 20
-499.0419921875
 30
0.0
 10
367.693359375
 20
-499.0419921875
 30
0.0
 10
367.693359375
 20
-499.6162109374999
 30
0.0
 10
367.814453125
 20
-500.0351562499999
 30
0.0
 10
368.056640625
 20
-500.298828125
 30
0.0
 10
368.298828125
 20
-500.5625
 30
0.0
 10
368.6865234375
 20
-500.6943359374999
 30
0.0
 10
369.21875
 20
-500.6943359374999
 30
0.0
 10
369.662109375
 20
-500.6943359374999
 30
0.0
 10
370.0263671875
 20
-500.599609375
 30
0.0
 10
370.3095703125
 20
-500.4091796875
 30
0.0
 10
370.5927734375
 20
-500.2187499999999
 30
0.0
 10
370.7626953125
 20
-500.0029296874999
 30
0.0
 10
370.8173828125
 20
-499.7626953124999
 30
0.0
 10
370.873046875
 20
-499.5224609374999
 30
0.0
 10
370.9013671875
 20
-499.0537109375
 30
0.0
 10
370.9013671875
 20
-498.3564453125
 30
0.0
 10
370.9013671875
 20
-498.3564453125
 30
0.0
 10
370.9013671875
 20
-491.333984375
 30
0.0
 10
370.9013671875
 20
-491.333984375
 30
0.0
 10
370.9013671875
 20
-491.333984375
 30
0.0
 10
373.8017578125
 20
-491.333984375
 30
0.0
 10
373.8017578125
 20
-491.333984375
 30
0.0
  0
HATCH
  5
B2
330
81
100
AcDbEntity
  8
Layer 1
 62
   250
420
  2301728
440
 33554687
100
AcDbHatch
 10
0.0
 20
0.0
 30
0.0
210
0.0
220
0.0
230
1.0
  2
SOLID
 70
     1
 71
     1
 91
        1
 92
        1
 93
        1
 72
     4
 94
        3
 73
     0
 74
     0
 95
       50
 96
       46
 40
0.0
 40
0.0
 40
0.0
 40
0.0
 40
1.0
 40
1.0
 40
1.0
 40
2.0
 40
2.0
 40
2.0
 40
3.0
 40
3.0
 40
3.0
 40
4.0
 40
4.0
 40
4.0
 40
5.0
 40
5.0
 40
5.0
 40
6.0
 40
6.0
 40
6.0
 40
7.0
 40
7.0
 40
7.0
 40
8.0
 40
8.0
 40
8.0
 40
9.0
 40
9.0
 40
9.0
 40
10.0
 40
10.0
 40
10.0
 40
11.0
 40
11.0
 40
11.0
 40
12.0
 40
12.0
 40
12.0
 40
13.0
 40
13.0
 40
13.0
 40
14.0
 40
14.0
 40
14.0
 40
15.0
 40
15.0
 40
15.0
 40
15.0
 10
373.8017578125
 20
-491.333984375
 10
373.8017578125
 20
-491.333984375
 10
373.8017578125
 20
-499.2792968749999
 10
373.8017578125
 20
-499.2792968749999
 10
373.8017578125
 20
-500.7851562499999
 10
373.35546875
 20
-501.8681640625
 10
372.4609375
 20
-502.52734375
 10
371.5673828125
 20
-503.1865234375
 10
370.4033203125
 20
-503.515625
 10
368.9677734375
 20
-503.515625
 10
367.4560546875
 20
-503.515625
 10
366.2412109375
 20
-503.19921875
 10
365.32421875
 20
-502.5664062499999
 10
364.4072265625
 20
-501.93359375
 10
363.94921875
 20
-500.9023437499999
 10
363.94921875
 20
-499.47265625
 10
363.94921875
 20
-499.47265625
 10
363.94921875
 20
-491.333984375
 10
363.94921875
 20
-491.333984375
 10
363.94921875
 20
-491.333984375
 10
367.693359375
 20
-491.333984375
 10
367.693359375
 20
-491.333984375
 10
367.693359375
 20
-491.333984375
 10
367.693359375
 20
-499.0419921875
 10
367.693359375
 20
-499.0419921875
 10
367.693359375
 20
-499.6162109374999
 10
367.814453125
 20
-500.0351562499999
 10
368.056640625
 20
-500.298828125
 10
368.298828125
 20
-500.5625
 10
368.6865234375
 20
-500.6943359374999
 10
369.21875
 20
-500.6943359374999
 10
369.662109375
 20
-500.6943359374999
 10
370.0263671875
 20
-500.599609375
 10
370.3095703125
 20
-500.4091796875
 10
370.5927734375
 20
-500.2187499999999
 10
370.7626953125
 20
-500.0029296874999
 10
370.8173828125
 20
-499.7626953124999
 10
370.873046875
 20
-499.5224609374999
 10
370.9013671875
 20
-499.0537109375
 10
370.9013671875
 20
-498.3564453125
 10
370.9013671875
 20
-498.3564453125
 10
370.9013671875
 20
-491.333984375
 10
370.9013671875
 20
-491.333984375
 10
370.9013671875
 20
-491.333984375
 10
373.8017578125
 20
-491.333984375
 10
373.8017578125
 20
-491.333984375
 97
        0
 97
        1
330
B1
 75
     2
 76
     1
 98
        1
 10
0.0
 20
0.0
450
        0
451
        0
460
0.0
461
0.0
452
        0
462
0.0
453
        0
470

  0
ENDBLK
  5
84
330
81
100
AcDbEntity
  8
0
100
AcDbBlockEnd
  0
ENDSEC
  0
SECTION
  2
ENTITIES
  0
MTEXT
  5
79
330
70
100
AcDbEntity
  8
Layer 1
100
AcDbMText
 10
268.9909248352051
 20
-323.1764600872994
 30
0.0
 40
0.2
 41
0.0
 46
0.0
 71
     7
 72
     1
  1
\C250;\c2105123;\FFranklin Gothic Heavy|b0|i0|c1;\H12.744000;\W1.000000;I 
 73
     1
 44
1.0
  0
MTEXT
  5
7A
330
70
100
AcDbEntity
  8
Layer 1
100
AcDbMText
 10
250.0944404602051
 20
-344.7765577435494
 30
0.0
 40
0.2
 41
0.0
 46
0.0
 71
     7
 72
     1
  1
\C250;\c2105123;\FFranklin Gothic Heavy|b0|i0|c1;\H12.744000;\W1.000000;LOVE 
 73
     1
 44
1.0
  0
MTEXT
  5
7B
330
70
100
AcDbEntity
  8
Layer 1
100
AcDbMText
 10
254.7877998352051
 20
-366.3766553997994
 30
0.0
 40
0.2
 41
0.0
 46
0.0
 71
     7
 72
     1
  1
\C250;\c2105123;\FFranklin Gothic Heavy|b0|i0|c1;\H12.744000;\W1.000000;YOU
 73
     1
 44
1.0
  0
MTEXT
  5
7C
330
70
100
AcDbEntity
  8
Layer 1
100
AcDbMText
 10
283.5058116912842
 20
-323.0734710693359
 30
0.0
 40
0.2
 41
0.0
 46
0.0
 71
     7
 72
     1
  1
\C250;\c2105123;\FFranklin Gothic Heavy|b0|i0|c1;\H12.744000;\W1.000000;FUCKING
 73
     1
 44
1.0
  0
MTEXT
  5
7D
330
70
100
AcDbEntity
  8
Layer 1
100
AcDbMText
 10
263.2562999725342
 20
-344.6730804443359
 30
0.0
 40
0.2
 41
0.0
 46
0.0
 71
     7
 72
     1
  1
\C250;\c2105123;\FFranklin Gothic Heavy|b0|i0|c1;\H12.744000;\W1.000000;^I FUCKING
 73
     1
 44
1.0
  0
IMAGE
  5
80
330
70
100
AcDbEntity
  8
Layer 1
160
               140
310
8C00000001000000840000000600000005000000000000000040BCC00000000000E4B8400000000000000000000000000040BCC00000000000E4BD400000000000000000000000000080B8C00000000000E4BD400000000000000000000000000080B8C00000000000E4B8400000000000000000000000000040BCC0000000
310
0000E4B8400000000000000000
100
AcDbRasterImage
 90
        0
 10
-7232.0
 20
6372.0
 30
0.0
 11
1.0
 21
0.0
 31
0.0
 12
0.0
 22
1.0
 32
0.0
 13
960.0
 23
1280.0
340
7F
 70
     3
280
     0
281
    50
282
    50
283
     0
290
     0
360
0
 71
     1
 91
        2
 14
-0.5
 24
-0.5
 14
959.5
 24
1279.5
  0
INSERT
  5
82
330
70
100
AcDbEntity
  8
Layer 1
100
AcDbBlockReference
  2
Block_0
 10
0.0
 20
0.0
 30
0.0
  0
ENDSEC
  0
SECTION
  2
OBJECTS
  0
DICTIONARY
  5
C
330
0
100
AcDbDictionary
281
     1
  3
ACAD_COLOR
350
63
  3
ACAD_DETAILVIEWSTYLE
350
6A
  3
ACAD_GROUP
350
D
  3
ACAD_IMAGE_DICT
350
7E
  3
ACAD_LAYOUT
350
62
  3
ACAD_MATERIAL
350
10
  3
ACAD_MLEADERSTYLE
350
66
  3
ACAD_MLINESTYLE
350
5F
  3
ACAD_PLOTSETTINGS
350
61
  3
ACAD_PLOTSTYLENAME
350
E
  3
ACAD_SCALELIST
350
42
  3
ACAD_SECTIONVIEWSTYLE
350
68
  3
ACAD_TABLESTYLE
350
64
  3
ACAD_VISUALSTYLE
350
29
  3
ACDB_RECOMPOSE_DATA
350
BB
  3
AcDbVariableDictionary
350
B3
  0
DICTIONARY
  5
63
102
{ACAD_REACTORS
330
C
102
}
330
C
100
AcDbDictionary
281
     1
  0
DICTIONARY
  5
6A
102
{ACAD_REACTORS
330
C
102
}
330
C
100
AcDbDictionary
281
     1
  3
Imperial24
350
6B
  0
DICTIONARY
  5
D
102
{ACAD_REACTORS
330
C
102
}
330
C
100
AcDbDictionary
281
     1
  0
DICTIONARY
  5
7E
102
{ACAD_REACTORS
330
C
102
}
330
C
100
AcDbDictionary
281
     1
  3
IFLFU 2_1.png
350
7F
  0
DICTIONARY
  5
62
102
{ACAD_REACTORS
330
C
102
}
330
C
100
AcDbDictionary
281
     1
  3
Layout1
350
6F
  3
Layout2
350
77
  3
Model
350
73
  0
DICTIONARY
  5
10
102
{ACAD_REACTORS
330
C
102
}
330
C
100
AcDbDictionary
281
     1
  3
ByBlock
350
19
  3
ByLayer
350
11
  3
Global
350
21
  0
DICTIONARY
  5
66
102
{ACAD_REACTORS
330
C
102
}
330
C
100
AcDbDictionary
281
     1
  3
Standard
350
67
  0
DICTIONARY
  5
5F
102
{ACAD_REACTORS
330
C
102
}
330
C
100
AcDbDictionary
281
     1
  3
Standard
350
60
  0
DICTIONARY
  5
61
102
{ACAD_REACTORS
330
C
102
}
330
C
100
AcDbDictionary
281
     1
  0
ACDBDICTIONARYWDFLT
  5
E
102
{ACAD_REACTORS
330
C
102
}
330
C
100
AcDbDictionary
281
     1
  3
Normal
350
F
100
AcDbDictionaryWithDefault
340
F
  0
DICTIONARY
  5
42
102
{ACAD_REACTORS
330
C
102
}
330
C
100
AcDbDictionary
281
     1
  3
A0
350
43
  3
A1
350
44
  3
A2
350
45
  3
A3
350
46
  3
A4
350
47
  3
A5
350
48
  3
A6
350
49
  3
A7
350
4A
  3
A8
350
4B
  3
A9
350
4C
  3
B0
350
4D
  3
B1
350
4E
  3
B2
350
4F
  3
B3
350
50
  3
B4
350
51
  3
B5
350
52
  3
B6
350
53
  0
DICTIONARY
  5
68
102
{ACAD_REACTORS
330
C
102
}
330
C
100
AcDbDictionary
281
     1
  3
Imperial24
350
69
  0
DICTIONARY
  5
64
102
{ACAD_REACTORS
330
C
102
}
330
C
100
AcDbDictionary
281
     1
  3
Standard
350
65
  0
DICTIONARY
  5
29
102
{ACAD_REACTORS
330
C
102
}
330
C
100
AcDbDictionary
281
     1
  3
2dWireframe
350
2F
  3
Basic
350
2E
  3
Brighten
350
35
  3
ColorChange
350
39
  3
Conceptual
350
32
  3
Dim
350
34
  3
EdgeColorOff
350
41
  3
Facepattern
350
38
  3
Flat
350
2A
  3
FlatWithEdges
350
2B
  3
Gouraud
350
2C
  3
GouraudWithEdges
350
2D
  3
Hidden
350
31
  3
JitterOff
350
3F
  3
Linepattern
350
37
  3
OverhangOff
350
40
  3
Realistic
350
33
  3
Shaded
350
3E
  3
Shaded with edges
350
3D
  3
Shades of Gray
350
3A
  3
Sketchy
350
3B
  3
Thicken
350
36
  3
Wireframe
350
30
  3
X-Ray
350
3C
  0
XRECORD
  5
BB
102
{ACAD_REACTORS
330
C
102
}
330
C
100
AcDbXrecord
280
     1
 90
        1
330
65
  0
DICTIONARY
  5
B3
102
{ACAD_REACTORS
330
C
102
}
330
C
100
AcDbDictionary
281
     1
  3
CANNOSCALE
350
B8
  3
CMLEADERSTYLE
350
B5
  3
CTABLESTYLE
350
B4
  3
CVIEWDETAILSTYLE
350
B6
  3
CVIEWSECTIONSTYLE
350
B7
  0
ACDBDETAILVIEWSTYLE
  5
6B
102
{ACAD_REACTORS
330
6A
102
}
330
6A
100
AcDbModelDocViewStyle
 70
     0
  3
Imperial24
290
     1
300
Imperial24
 90
        0
100
AcDbDetailViewStyle
 70
     0
 71
     0
 90
        3
 71
     1
340
55
 62
   256
 40
0.24
340
0
 62
   256
 40
0.24
300

 40
0.36
280
     3
 71
     2
340
5D
 90
       25
 62
   256
 71
     3
340
55
 62
   256
 40
0.24
 90
        1
 40
0.75
 90
        1
300
%<\AcVar ViewType \f "%tc1">% %<\AcVar ViewDetailId>%\PSCALE %<\AcVar ViewScale \f "%sn">%
 71
     4
340
5D
 90
       25
 62
   256
340
5D
 90
       25
 62
   256
280
     0
  0
IMAGEDEF
  5
7F
102
{ACAD_REACTORS
330
7E
102
}
330
7E
100
AcDbRasterImageDef
 90
        0
  1
M:\My Documents\Google Drive\Shitty Add-Ons\i-fucking-love-fucking-you\IFLFU 2_1.png
 10
960.0
 20
1280.0
 11
0.3527336860670194
 21
0.3527336860670194
280
     1
281
     2
  0
LAYOUT
  5
6F
102
{ACAD_REACTORS
330
62
102
}
330
62
100
AcDbPlotSettings
  1

  2

  4

  6

 40
0.0
 41
0.0
 42
0.0
 43
0.0
 44
0.0
 45
0.0
 46
0.0
 47
0.0
 48
0.0
 49
0.0
140
0.0
141
0.0
142
1.0
143
1.0
 70
   688
 72
     0
 73
     0
 74
     5
  7

 75
    16
147
1.0
 76
     0
 77
     2
 78
   300
148
0.0
149
0.0
100
AcDbLayout
  1
Layout1
 70
     1
 71
     1
 10
0.0
 20
0.0
 11
12.0
 21
9.0
 12
0.0
 22
0.0
 32
0.0
 14
0.0
 24
0.0
 34
0.0
 15
0.0
 25
0.0
 35
0.0
146
0.0
 13
0.0
 23
0.0
 33
0.0
 16
1.0
 26
0.0
 36
0.0
 17
0.0
 27
1.0
 37
0.0
 76
     0
330
6C
  0
LAYOUT
  5
77
102
{ACAD_REACTORS
330
62
102
}
330
62
100
AcDbPlotSettings
  1

  2

  4

  6

 40
0.0
 41
0.0
 42
0.0
 43
0.0
 44
0.0
 45
0.0
 46
0.0
 47
0.0
 48
0.0
 49
0.0
140
0.0
141
0.0
142
1.0
143
1.0
 70
   688
 72
     0
 73
     0
 74
     5
  7

 75
    16
147
1.0
 76
     0
 77
     2
 78
   300
148
0.0
149
0.0
100
AcDbLayout
  1
Layout2
 70
     1
 71
     2
 10
0.0
 20
0.0
 11
12.0
 21
9.0
 12
0.0
 22
0.0
 32
0.0
 14
0.0
 24
0.0
 34
0.0
 15
0.0
 25
0.0
 35
0.0
146
0.0
 13
0.0
 23
0.0
 33
0.0
 16
1.0
 26
0.0
 36
0.0
 17
0.0
 27
1.0
 37
0.0
 76
     0
330
74
  0
LAYOUT
  5
73
102
{ACAD_REACTORS
330
62
102
}
330
62
100
AcDbPlotSettings
  1

  2

  4

  6

 40
0.0
 41
0.0
 42
0.0
 43
0.0
 44
0.0
 45
0.0
 46
0.0
 47
0.0
 48
0.0
 49
0.0
140
0.0
141
0.0
142
1.0
143
1.0
 70
  1712
 72
     0
 73
     0
 74
     0
  7

 75
     0
147
1.0
 76
     0
 77
     2
 78
   300
148
0.0
149
0.0
100
AcDbLayout
  1
Model
 70
     1
 71
     0
 10
0.0
 20
0.0
 11
12.0
 21
9.0
 12
0.0
 22
0.0
 32
0.0
 14
0.0
 24
0.0
 34
0.0
 15
0.0
 25
0.0
 35
0.0
146
0.0
 13
0.0
 23
0.0
 33
0.0
 16
1.0
 26
0.0
 36
0.0
 17
0.0
 27
1.0
 37
0.0
 76
     0
330
70
  0
MATERIAL
  5
19
102
{ACAD_XDICTIONARY
360
1A
102
}
102
{ACAD_REACTORS
330
10
102
}
330
10
100
AcDbMaterial
  1
ByBlock
 72
     0
 43
0.0208333333333333
 43
0.0
 43
0.0
 43
0.0
 43
0.0
 43
0.0208333333333333
 43
0.0
 43
0.0
 43
0.0
 43
0.0
 43
1.0
 43
0.0
 43
0.0
 43
0.0
 43
0.0
 43
1.0
 77
     0
 47
0.0208333333333333
 47
0.0
 47
0.0
 47
0.0
 47
0.0
 47
0.0208333333333333
 47
0.0
 47
0.0
 47
0.0
 47
0.0
 47
1.0
 47
0.0
 47
0.0
 47
0.0
 47
0.0
 47
1.0
171
     0
 49
0.0208333333333333
 49
0.0
 49
0.0
 49
0.0
 49
0.0
 49
0.0208333333333333
 49
0.0
 49
0.0
 49
0.0
 49
0.0
 49
1.0
 49
0.0
 49
0.0
 49
0.0
 49
0.0
 49
1.0
175
     0
142
0.0208333333333333
142
0.0
142
0.0
142
0.0
142
0.0
142
0.0208333333333333
142
0.0
142
0.0
142
0.0
142
0.0
142
1.0
142
0.0
142
0.0
142
0.0
142
0.0
142
1.0
179
     0
144
0.0208333333333333
144
0.0
144
0.0
144
0.0
144
0.0
144
0.0208333333333333
144
0.0
144
0.0
144
0.0
144
0.0
144
1.0
144
0.0
144
0.0
144
0.0
144
0.0
144
1.0
147
0.0208333333333333
147
0.0
147
0.0
147
0.0
147
0.0
147
0.0208333333333333
147
0.0
147
0.0
147
0.0
147
0.0
147
1.0
147
0.0
147
0.0
147
0.0
147
0.0
147
1.0
  0
MATERIAL
  5
11
102
{ACAD_XDICTIONARY
360
12
102
}
102
{ACAD_REACTORS
330
10
102
}
330
10
100
AcDbMaterial
  1
ByLayer
 72
     0
 43
0.0208333333333333
 43
0.0
 43
0.0
 43
0.0
 43
0.0
 43
0.0208333333333333
 43
0.0
 43
0.0
 43
0.0
 43
0.0
 43
1.0
 43
0.0
 43
0.0
 43
0.0
 43
0.0
 43
1.0
 77
     0
 47
0.0208333333333333
 47
0.0
 47
0.0
 47
0.0
 47
0.0
 47
0.0208333333333333
 47
0.0
 47
0.0
 47
0.0
 47
0.0
 47
1.0
 47
0.0
 47
0.0
 47
0.0
 47
0.0
 47
1.0
171
     0
 49
0.0208333333333333
 49
0.0
 49
0.0
 49
0.0
 49
0.0
 49
0.0208333333333333
 49
0.0
 49
0.0
 49
0.0
 49
0.0
 49
1.0
 49
0.0
 49
0.0
 49
0.0
 49
0.0
 49
1.0
175
     0
142
0.0208333333333333
142
0.0
142
0.0
142
0.0
142
0.0
142
0.0208333333333333
142
0.0
142
0.0
142
0.0
142
0.0
142
1.0
142
0.0
142
0.0
142
0.0
142
0.0
142
1.0
179
     0
144
0.0208333333333333
144
0.0
144
0.0
144
0.0
144
0.0
144
0.0208333333333333
144
0.0
144
0.0
144
0.0
144
0.0
144
1.0
144
0.0
144
0.0
144
0.0
144
0.0
144
1.0
147
0.0208333333333333
147
0.0
147
0.0
147
0.0
147
0.0
147
0.0208333333333333
147
0.0
147
0.0
147
0.0
147
0.0
147
1.0
147
0.0
147
0.0
147
0.0
147
0.0
147
1.0
  0
MATERIAL
  5
21
102
{ACAD_XDICTIONARY
360
22
102
}
102
{ACAD_REACTORS
330
10
102
}
330
10
100
AcDbMaterial
  1
Global
 72
     0
 43
0.0208333333333333
 43
0.0
 43
0.0
 43
0.0
 43
0.0
 43
0.0208333333333333
 43
0.0
 43
0.0
 43
0.0
 43
0.0
 43
1.0
 43
0.0
 43
0.0
 43
0.0
 43
0.0
 43
1.0
 77
     0
 47
0.0208333333333333
 47
0.0
 47
0.0
 47
0.0
 47
0.0
 47
0.0208333333333333
 47
0.0
 47
0.0
 47
0.0
 47
0.0
 47
1.0
 47
0.0
 47
0.0
 47
0.0
 47
0.0
 47
1.0
171
     0
 49
0.0208333333333333
 49
0.0
 49
0.0
 49
0.0
 49
0.0
 49
0.0208333333333333
 49
0.0
 49
0.0
 49
0.0
 49
0.0
 49
1.0
 49
0.0
 49
0.0
 49
0.0
 49
0.0
 49
1.0
175
     0
142
0.0208333333333333
142
0.0
142
0.0
142
0.0
142
0.0
142
0.0208333333333333
142
0.0
142
0.0
142
0.0
142
0.0
142
1.0
142
0.0
142
0.0
142
0.0
142
0.0
142
1.0
179
     0
144
0.0208333333333333
144
0.0
144
0.0
144
0.0
144
0.0
144
0.0208333333333333
144
0.0
144
0.0
144
0.0
144
0.0
144
1.0
144
0.0
144
0.0
144
0.0
144
0.0
144
1.0
147
0.0208333333333333
147
0.0
147
0.0
147
0.0
147
0.0
147
0.0208333333333333
147
0.0
147
0.0
147
0.0
147
0.0
147
1.0
147
0.0
147
0.0
147
0.0
147
0.0
147
1.0
  0
MLEADERSTYLE
  5
67
102
{ACAD_REACTORS
330
66
102
}
330
66
100
AcDbMLeaderStyle
179
     2
170
     2
171
     1
172
     0
 90
        2
 40
0.0
 41
0.0
173
     1
 91
-1056964608
340
5B
 92
       -2
290
     1
 42
0.09
291
     1
 43
0.36
  3
Standard
 44
0.18
300

342
55
174
     1
178
     6
175
     1
176
     0
 93
-1056964608
 45
0.18
292
     0
297
     0
 46
0.18
 94
-1056964608
 47
1.0
 49
1.0
140
1.0
293
     1
141
0.0
294
     1
177
     0
142
1.0
295
     1
296
     0
143
0.125
271
     0
272
     9
273
     9
298
     1
  0
MLINESTYLE
  5
60
102
{ACAD_REACTORS
330
5F
102
}
330
5F
100
AcDbMlineStyle
  2
STANDARD
 70
     0
  3

 62
   256
 51
90.0
 52
90.0
 71
     2
 49
0.5
 62
   256
  6
BYLAYER
 49
-0.5
 62
   256
  6
BYLAYER
  0
ACDBPLACEHOLDER
  5
F
102
{ACAD_REACTORS
330
E
102
}
330
E
  0
SCALE
  5
43
102
{ACAD_REACTORS
330
42
102
}
330
42
100
AcDbScale
 70
     0
300
1:1
140
1.0
141
1.0
290
     1
  0
SCALE
  5
44
102
{ACAD_REACTORS
330
42
102
}
330
42
100
AcDbScale
 70
     0
300
1/128" = 1'-0"
140
0.0078125
141
12.0
290
     0
  0
SCALE
  5
45
102
{ACAD_REACTORS
330
42
102
}
330
42
100
AcDbScale
 70
     0
300
1/64" = 1'-0"
140
0.015625
141
12.0
290
     0
  0
SCALE
  5
46
102
{ACAD_REACTORS
330
42
102
}
330
42
100
AcDbScale
 70
     0
300
1/32" = 1'-0"
140
0.03125
141
12.0
290
     0
  0
SCALE
  5
47
102
{ACAD_REACTORS
330
42
102
}
330
42
100
AcDbScale
 70
     0
300
1/16" = 1'-0"
140
0.0625
141
12.0
290
     0
  0
SCALE
  5
48
102
{ACAD_REACTORS
330
42
102
}
330
42
100
AcDbScale
 70
     0
300
3/32" = 1'-0"
140
0.09375
141
12.0
290
     0
  0
SCALE
  5
49
102
{ACAD_REACTORS
330
42
102
}
330
42
100
AcDbScale
 70
     0
300
1/8" = 1'-0"
140
0.125
141
12.0
290
     0
  0
SCALE
  5
4A
102
{ACAD_REACTORS
330
42
102
}
330
42
100
AcDbScale
 70
     0
300
3/16" = 1'-0"
140
0.1875
141
12.0
290
     0
  0
SCALE
  5
4B
102
{ACAD_REACTORS
330
42
102
}
330
42
100
AcDbScale
 70
     0
300
1/4" = 1'-0"
140
0.25
141
12.0
290
     0
  0
SCALE
  5
4C
102
{ACAD_REACTORS
330
42
102
}
330
42
100
AcDbScale
 70
     0
300
3/8" = 1'-0"
140
0.375
141
12.0
290
     0
  0
SCALE
  5
4D
102
{ACAD_REACTORS
330
42
102
}
330
42
100
AcDbScale
 70
     0
300
1/2" = 1'-0"
140
0.5
141
12.0
290
     0
  0
SCALE
  5
4E
102
{ACAD_REACTORS
330
42
102
}
330
42
100
AcDbScale
 70
     0
300
3/4" = 1'-0"
140
0.75
141
12.0
290
     0
  0
SCALE
  5
4F
102
{ACAD_REACTORS
330
42
102
}
330
42
100
AcDbScale
 70
     0
300
1" = 1'-0"
140
1.0
141
12.0
290
     0
  0
SCALE
  5
50
102
{ACAD_REACTORS
330
42
102
}
330
42
100
AcDbScale
 70
     0
300
1-1/2" = 1'-0"
140
1.5
141
12.0
290
     0
  0
SCALE
  5
51
102
{ACAD_REACTORS
330
42
102
}
330
42
100
AcDbScale
 70
     0
300
3" = 1'-0"
140
3.0
141
12.0
290
     0
  0
SCALE
  5
52
102
{ACAD_REACTORS
330
42
102
}
330
42
100
AcDbScale
 70
     0
300
6" = 1'-0"
140
6.0
141
12.0
290
     0
  0
SCALE
  5
53
102
{ACAD_REACTORS
330
42
102
}
330
42
100
AcDbScale
 70
     0
300
1'-0" = 1'-0"
140
12.0
141
12.0
290
     0
  0
ACDBSECTIONVIEWSTYLE
  5
69
102
{ACAD_REACTORS
330
68
102
}
330
68
100
AcDbModelDocViewStyle
 70
     0
  3
Imperial24
290
     1
300
Imperial24
 90
        0
100
AcDbSectionViewStyle
 70
     0
 71
     0
 90
       78
 71
     1
340
55
 62
   256
 40
0.24
340
0
340
0
 62
   256
 40
0.24
300
I, O, Q, S, X, Z
 40
0.48
 90
        3
 40
0.18
 90
        1
 71
     2
340
5D
 90
       25
 62
   256
340
5D
 90
       50
 62
   256
 40
0.24
 40
0.0
 40
0.24
 71
     3
340
55
 62
   256
 40
0.24
 90
        1
 40
0.75
 90
        1
300
%<\AcVar ViewType \f "%tc1">% %<\AcVar ViewSectionStartId>%-%<\AcVar ViewSectionEndId>%\PSCALE %<\AcVar ViewScale \f "%sn">%
 71
     4
 62
   256
 62
   257
300
ANSI31
 40
1.0
 90
        0
290
     0
290
     0
 90
        6
 40
0.0
 40
1.570796326794896
 40
0.2617993877991494
 40
1.308996938995747
 40
-0.2617993877991494
 40
1.832595714594046
  0
TABLESTYLE
  5
65
102
{ACAD_XDICTIONARY
360
B9
102
}
102
{ACAD_REACTORS
330
64
102
}
330
64
100
AcDbTableStyle
280
     0
  3
Standard
 70
     0
 71
     0
 40
0.06
 41
0.06
280
     0
281
     0
  7
Standard
140
0.18
170
     2
 62
     0
 63
     7
283
     0
 90
      512
 91
        0
  1

274
    -2
284
     1
 64
     0
275
    -2
285
     1
 65
     0
276
    -2
286
     1
 66
     0
277
    -2
287
     1
 67
     0
278
    -2
288
     1
 68
     0
279
    -2
289
     1
 69
     0
  7
Standard
140
0.25
170
     5
 62
     0
 63
     7
283
     0
 90
      512
 91
        0
  1

274
    -2
284
     1
 64
     0
275
    -2
285
     1
 65
     0
276
    -2
286
     1
 66
     0
277
    -2
287
     1
 67
     0
278
    -2
288
     1
 68
     0
279
    -2
289
     1
 69
     0
  7
Standard
140
0.18
170
     5
 62
     0
 63
     7
283
     0
 90
      512
 91
        0
  1

274
    -2
284
     1
 64
     0
275
    -2
285
     1
 65
     0
276
    -2
286
     1
 66
     0
277
    -2
287
     1
 67
     0
278
    -2
288
     1
 68
     0
279
    -2
289
     1
 69
     0
  0
VISUALSTYLE
  5
2F
102
{ACAD_REACTORS
330
29
102
}
330
29
100
AcDbVisualStyle
  2
2dWireframe
 70
     4
177
     3
291
     0
 70
    58
 90
        0
176
     1
 90
        2
176
     1
 90
        0
176
     1
 90
        0
176
     1
 40
0.6
176
     1
 40
30.0
176
     1
 62
     7
420
 16777215
176
     1
 90
        1
176
     1
 90
        4
176
     1
 62
     7
176
     1
 62
   257
176
     1
 90
        1
176
     1
 90
        1
176
     1
 40
1.0
176
     1
 90
        0
176
     1
 62
   257
176
     1
 40
1.0
176
     1
 90
        1
176
     1
 90
        6
176
     1
 90
        2
176
     1
 62
     7
176
     1
 90
        5
176
     1
 90
        0
176
     1
 90
        0
176
     1
290
     0
176
     1
 90
        1
176
     1
 40
0.0
176
     1
 90
        0
176
     1
290
     1
176
     1
290
     1
176
     1
290
     0
176
     1
290
     0
176
     1
290
     0
176
     1
290
     0
176
     1
290
     0
176
     1
290
     0
176
     1
290
     0
176
     1
 90
       50
176
     1
 40
0.0
176
     1
 40
1.0
176
     1
 90
        0
176
     1
 62
    18
420
        0
176
     1
 90
       50
176
     1
 90
        3
176
     1
 62
     5
420
      255
176
     1
290
     0
176
     1
 90
       50
176
     1
 90
       50
176
     1
 90
       50
176
     1
290
     0
176
     1
 90
       50
176
     1
 62
   256
176
     0
 40
1.0
176
     0
 90
        2
176
     1
  1
strokes_ogs.tif
176
     1
290
     0
176
     1
 40
1.0
176
     1
 40
1.0
176
     1
  0
VISUALSTYLE
  5
2E
102
{ACAD_REACTORS
330
29
102
}
330
29
100
AcDbVisualStyle
  2
Basic
 70
     7
177
     3
291
     1
 70
    58
 90
        1
176
     1
 90
        0
176
     1
 90
        1
176
     1
 90
        0
176
     1
 40
0.6
176
     1
 40
30.0
176
     1
 62
     7
420
 16777215
176
     1
 90
        0
176
     1
 90
        4
176
     1
 62
     7
176
     1
 62
   257
176
     1
 90
        1
176
     1
 90
        1
176
     1
 40
1.0
176
     1
 90
        8
176
     1
 62
     7
176
     1
 40
1.0
176
     1
 90
        1
176
     1
 90
        6
176
     1
 90
        2
176
     1
 62
     7
176
     1
 90
        5
176
     1
 90
        0
176
     1
 90
        0
176
     1
290
     0
176
     1
 90
        1
176
     1
 40
0.0
176
     1
 90
        0
176
     1
290
     0
176
     1
290
     1
176
     1
290
     1
176
     1
290
     0
176
     1
290
     0
176
     1
290
     0
176
     1
290
     0
176
     1
290
     0
176
     1
290
     0
176
     1
 90
       50
176
     1
 40
0.0
176
     1
 40
1.0
176
     1
 90
        0
176
     1
 62
    18
420
        0
176
     1
 90
       50
176
     1
 90
        3
176
     1
 62
     5
420
      255
176
     1
290
     0
176
     1
 90
       50
176
     1
 90
       50
176
     1
 90
       50
176
     1
290
     0
176
     1
 90
       50
176
     1
 62
   256
176
     0
 40
1.0
176
     0
 90
        2
176
     1
  1
strokes_ogs.tif
176
     1
290
     0
176
     1
 40
1.0
176
     1
 40
1.0
176
     1
  0
VISUALSTYLE
  5
35
102
{ACAD_REACTORS
330
29
102
}
330
29
100
AcDbVisualStyle
  2
Brighten
 70
    12
177
     3
291
     1
 70
    58
 90
        2
176
     1
 90
        2
176
     1
 90
        0
176
     1
 90
        0
176
     1
 40
0.6
176
     1
 40
30.0
176
     1
 62
     7
420
 16777215
176
     1
 90
        1
176
     1
 90
        4
176
     1
 62
     7
176
     1
 62
   257
176
     1
 90
        1
176
     1
 90
        1
176
     1
 40
1.0
176
     1
 90
        8
176
     1
 62
     7
176
     1
 40
1.0
176
     1
 90
        1
176
     1
 90
        6
176
     1
 90
        2
176
     1
 62
     7
176
     1
 90
        5
176
     1
 90
        0
176
     1
 90
        0
176
     1
290
     0
176
     1
 90
        1
176
     1
 40
50.0
176
     1
 90
        0
176
     1
290
     0
176
     1
290
     1
176
     1
290
     1
176
     1
290
     0
176
     1
290
     0
176
     1
290
     0
176
     1
290
     0
176
     1
290
     0
176
     1
290
     0
176
     1
 90
       50
176
     1
 40
0.0
176
     1
 40
1.0
176
     1
 90
        0
176
     1
 62
    18
420
        0
176
     1
 90
       50
176
     1
 90
        3
176
     1
 62
     5
420
      255
176
     1
290
     0
176
     1
 90
       50
176
     1
 90
       50
176
     1
 90
       50
176
     1
290
     0
176
     1
 90
       50
176
     1
 62
   256
176
     0
 40
1.0
176
     0
 90
        2
176
     1
  1
strokes_ogs.tif
176
     1
290
     0
176
     1
 40
1.0
176
     1
 40
1.0
176
     1
  0
VISUALSTYLE
  5
39
102
{ACAD_REACTORS
330
29
102
}
330
29
100
AcDbVisualStyle
  2
ColorChange
 70
    16
177
     3
291
     1
 70
    58
 90
        2
176
     1
 90
        2
176
     1
 90
        3
176
     1
 90
        0
176
     1
 40
0.6
176
     1
 40
30.0
176
     1
 62
     8
420
  8421504
176
     1
 90
        1
176
     1
 90
        4
176
     1
 62
     7
176
     1
 62
   257
176
     1
 90
        1
176
     1
 90
        1
176
     1
 40
1.0
176
     1
 90
        8
176
     1
 62
     8
420
  8421504
176
     1
 40
1.0
176
     1
 90
        1
176
     1
 90
        6
176
     1
 90
        2
176
     1
 62
     7
176
     1
 90
        5
176
     1
 90
        0
176
     1
 90
        0
176
     1
290
     0
176
     1
 90
        1
176
     1
 40
0.0
176
     1
 90
        0
176
     1
290
     0
176
     1
290
     1
176
     1
290
     1
176
     1
290
     0
176
     1
290
     0
176
     1
290
     0
176
     1
290
     0
176
     1
290
     0
176
     1
290
     0
176
     1
 90
       50
176
     1
 40
0.0
176
     1
 40
1.0
176
     1
 90
        0
176
     1
 62
    18
420
        0
176
     1
 90
       50
176
     1
 90
        3
176
     1
 62
     5
420
      255
176
     1
290
     0
176
     1
 90
       50
176
     1
 90
       50
176
     1
 90
       50
176
     1
290
     0
176
     1
 90
       50
176
     1
 62
   256
176
     0
 40
1.0
176
     0
 90
        2
176
     1
  1
strokes_ogs.tif
176
     1
290
     0
176
     1
 40
1.0
176
     1
 40
1.0
176
     1
  0
VISUALSTYLE
  5
32
102
{ACAD_REACTORS
330
29
102
}
330
29
100
AcDbVisualStyle
  2
Conceptual
 70
     9
177
     3
291
     0
 70
    58
 90
        3
176
     1
 90
        2
176
     1
 90
        0
176
     1
 90
        0
176
     1
 40
0.6
176
     1
 40
30.0
176
     1
 62
     7
420
 16777215
176
     1
 90
        2
176
     1
 90
        2
176
     1
 62
     7
176
     1
 62
   257
176
     1
 90
        1
176
     1
 90
        1
176
     1
 40
179.0
176
     1
 90
        8
176
     1
 62
     7
176
     1
 40
1.0
176
     1
 90
        1
176
     1
 90
        6
176
     1
 90
        2
176
     1
 62
     7
176
     1
 90
        3
176
     1
 90
        0
176
     1
 90
        0
176
     1
290
     0
176
     1
 90
        1
176
     1
 40
0.0
176
     1
 90
        0
176
     1
290
     0
176
     1
290
     1
176
     1
290
     1
176
     1
290
     0
176
     1
290
     0
176
     1
290
     0
176
     1
290
     0
176
     1
290
     0
176
     1
290
     0
176
     1
 90
       50
176
     1
 40
0.0
176
     1
 40
1.0
176
     1
 90
        0
176
     1
 62
    18
420
        0
176
     1
 90
       50
176
     1
 90
        3
176
     1
 62
     5
420
      255
176
     1
290
     0
176
     1
 90
       50
176
     1
 90
       50
176
     1
 90
       50
176
     1
290
     0
176
     1
 90
       50
176
     1
 62
   256
176
     0
 40
1.0
176
     0
 90
        2
176
     1
  1
strokes_ogs.tif
176
     1
290
     0
176
     1
 40
1.0
176
     1
 40
1.0
176
     1
  0
VISUALSTYLE
  5
34
102
{ACAD_REACTORS
330
29
102
}
330
29
100
AcDbVisualStyle
  2
Dim
 70
    11
177
     3
291
     1
 70
    58
 90
        2
176
     1
 90
        2
176
     1
 90
        0
176
     1
 90
        0
176
     1
 40
0.6
176
     1
 40
30.0
176
     1
 62
     7
420
 16777215
176
     1
 90
        1
176
     1
 90
        4
176
     1
 62
     7
176
     1
 62
   257
176
     1
 90
        1
176
     1
 90
        1
176
     1
 40
1.0
176
     1
 90
        8
176
     1
 62
     7
176
     1
 40
1.0
176
     1
 90
        1
176
     1
 90
        6
176
     1
 90
        2
176
     1
 62
     7
176
     1
 90
        5
176
     1
 90
        0
176
     1
 90
        0
176
     1
290
     0
176
     1
 90
        1
176
     1
 40
-50.0
176
     1
 90
        0
176
     1
290
     0
176
     1
290
     1
176
     1
290
     1
176
     1
290
     0
176
     1
290
     0
176
     1
290
     0
176
     1
290
     0
176
     1
290
     0
176
     1
290
     0
176
     1
 90
       50
176
     1
 40
0.0
176
     1
 40
1.0
176
     1
 90
        0
176
     1
 62
    18
420
        0
176
     1
 90
       50
176
     1
 90
        3
176
     1
 62
     5
420
      255
176
     1
290
     0
176
     1
 90
       50
176
     1
 90
       50
176
     1
 90
       50
176
     1
290
     0
176
     1
 90
       50
176
     1
 62
   256
176
     0
 40
1.0
176
     0
 90
        2
176
     1
  1
strokes_ogs.tif
176
     1
290
     0
176
     1
 40
1.0
176
     1
 40
1.0
176
     1
  0
VISUALSTYLE
  5
41
102
{ACAD_REACTORS
330
29
102
}
330
29
100
AcDbVisualStyle
  2
EdgeColorOff
 70
    22
177
     3
291
     1
 70
    58
 90
        2
176
     0
 90
        2
176
     0
 90
        0
176
     0
 90
        0
176
     0
 40
0.6
176
     0
 40
30.0
176
     0
 62
     7
420
 16777215
176
     0
 90
        1
176
     0
 90
        4
176
     0
 62
     7
176
     0
 62
   257
176
     0
 90
        1
176
     0
 90
        1
176
     0
 40
1.0
176
     0
 90
        8
176
     2
 62
     7
176
     0
 40
1.0
176
     0
 90
        1
176
     0
 90
        6
176
     0
 90
        2
176
     0
 62
     7
176
     0
 90
        5
176
     0
 90
        0
176
     0
 90
        0
176
     0
290
     0
176
     0
 90
        1
176
     0
 40
0.0
176
     0
 90
        0
176
     0
290
     0
176
     0
290
     1
176
     0
290
     1
176
     0
290
     0
176
     0
290
     0
176
     0
290
     0
176
     0
290
     0
176
     0
290
     0
176
     0
290
     0
176
     0
 90
       50
176
     0
 40
0.0
176
     0
 40
1.0
176
     0
 90
        0
176
     0
 62
    18
420
        0
176
     0
 90
       50
176
     0
 90
        3
176
     0
 62
     5
420
      255
176
     0
290
     0
176
     0
 90
       50
176
     0
 90
       50
176
     0
 90
       50
176
     0
290
     0
176
     0
 90
       50
176
     0
 62
   256
176
     0
 40
1.0
176
     0
 90
        2
176
     0
  1
strokes_ogs.tif
176
     0
290
     0
176
     0
 40
1.0
176
     0
 40
1.0
176
     0
  0
VISUALSTYLE
  5
38
102
{ACAD_REACTORS
330
29
102
}
330
29
100
AcDbVisualStyle
  2
Facepattern
 70
    15
177
     3
291
     1
 70
    58
 90
        2
176
     1
 90
        2
176
     1
 90
        0
176
     1
 90
        0
176
     1
 40
0.6
176
     1
 40
30.0
176
     1
 62
     7
420
 16777215
176
     1
 90
        1
176
     1
 90
        4
176
     1
 62
     7
176
     1
 62
   257
176
     1
 90
        1
176
     1
 90
        1
176
     1
 40
1.0
176
     1
 90
        8
176
     1
 62
     7
176
     1
 40
1.0
176
     1
 90
        1
176
     1
 90
        6
176
     1
 90
        2
176
     1
 62
     7
176
     1
 90
        5
176
     1
 90
        0
176
     1
 90
        0
176
     1
290
     0
176
     1
 90
        1
176
     1
 40
0.0
176
     1
 90
        0
176
     1
290
     0
176
     1
290
     1
176
     1
290
     1
176
     1
290
     0
176
     1
290
     0
176
     1
290
     0
176
     1
290
     0
176
     1
290
     0
176
     1
290
     0
176
     1
 90
       50
176
     1
 40
0.0
176
     1
 40
1.0
176
     1
 90
        0
176
     1
 62
    18
420
        0
176
     1
 90
       50
176
     1
 90
        3
176
     1
 62
     5
420
      255
176
     1
290
     0
176
     1
 90
       50
176
     1
 90
       50
176
     1
 90
       50
176
     1
290
     0
176
     1
 90
       50
176
     1
 62
   256
176
     0
 40
1.0
176
     0
 90
        2
176
     1
  1
strokes_ogs.tif
176
     1
290
     0
176
     1
 40
1.0
176
     1
 40
1.0
176
     1
  0
VISUALSTYLE
  5
2A
102
{ACAD_REACTORS
330
29
102
}
330
29
100
AcDbVisualStyle
  2
Flat
 70
     0
177
     3
291
     1
 70
    58
 90
        2
176
     1
 90
        1
176
     1
 90
        1
176
     1
 90
        2
176
     1
 40
0.6
176
     1
 40
30.0
176
     1
 62
     7
420
 16777215
176
     1
 90
        0
176
     1
 90
        0
176
     1
 62
     7
176
     1
 62
   257
176
     1
 90
        1
176
     1
 90
        1
176
     1
 40
1.0
176
     1
 90
        8
176
     1
 62
     7
176
     1
 40
1.0
176
     1
 90
        1
176
     1
 90
        6
176
     1
 90
        2
176
     1
 62
     7
176
     1
 90
        5
176
     1
 90
        0
176
     1
 90
        0
176
     1
290
     0
176
     1
 90
       13
176
     1
 40
0.0
176
     1
 90
        0
176
     1
290
     0
176
     1
290
     1
176
     1
290
     1
176
     1
290
     0
176
     1
290
     0
176
     1
290
     0
176
     1
290
     0
176
     1
290
     0
176
     1
290
     0
176
     1
 90
       50
176
     1
 40
0.0
176
     1
 40
1.0
176
     1
 90
        0
176
     1
 62
    18
420
        0
176
     1
 90
       50
176
     1
 90
        3
176
     1
 62
     5
420
      255
176
     1
290
     0
176
     1
 90
       50
176
     1
 90
       50
176
     1
 90
       50
176
     1
290
     0
176
     1
 90
       50
176
     1
 62
   256
176
     0
 40
1.0
176
     0
 90
        2
176
     1
  1
strokes_ogs.tif
176
     1
290
     0
176
     1
 40
1.0
176
     1
 40
1.0
176
     1
  0
VISUALSTYLE
  5
2B
102
{ACAD_REACTORS
330
29
102
}
330
29
100
AcDbVisualStyle
  2
FlatWithEdges
 70
     1
177
     3
291
     1
 70
    58
 90
        2
176
     1
 90
        1
176
     1
 90
        1
176
     1
 90
        2
176
     1
 40
0.6
176
     1
 40
30.0
176
     1
 62
     7
420
 16777215
176
     1
 90
        1
176
     1
 90
        0
176
     1
 62
     7
176
     1
 62
   257
176
     1
 90
        1
176
     1
 90
        1
176
     1
 40
1.0
176
     1
 90
        0
176
     1
 62
   257
176
     1
 40
1.0
176
     1
 90
        1
176
     1
 90
        6
176
     1
 90
        2
176
     1
 62
     7
176
     1
 90
        5
176
     1
 90
        0
176
     1
 90
        0
176
     1
290
     0
176
     1
 90
       13
176
     1
 40
0.0
176
     1
 90
        0
176
     1
290
     0
176
     1
290
     1
176
     1
290
     1
176
     1
290
     0
176
     1
290
     0
176
     1
290
     0
176
     1
290
     0
176
     1
290
     0
176
     1
290
     0
176
     1
 90
       50
176
     1
 40
0.0
176
     1
 40
1.0
176
     1
 90
        0
176
     1
 62
    18
420
        0
176
     1
 90
       50
176
     1
 90
        3
176
     1
 62
     5
420
      255
176
     1
290
     0
176
     1
 90
       50
176
     1
 90
       50
176
     1
 90
       50
176
     1
290
     0
176
     1
 90
       50
176
     1
 62
   256
176
     0
 40
1.0
176
     0
 90
        2
176
     1
  1
strokes_ogs.tif
176
     1
290
     0
176
     1
 40
1.0
176
     1
 40
1.0
176
     1
  0
VISUALSTYLE
  5
2C
102
{ACAD_REACTORS
330
29
102
}
330
29
100
AcDbVisualStyle
  2
Gouraud
 70
     2
177
     3
291
     1
 70
    58
 90
        2
176
     1
 90
        2
176
     1
 90
        1
176
     1
 90
        2
176
     1
 40
0.6
176
     1
 40
30.0
176
     1
 62
     7
420
 16777215
176
     1
 90
        0
176
     1
 90
        0
176
     1
 62
     7
176
     1
 62
   257
176
     1
 90
        1
176
     1
 90
        1
176
     1
 40
1.0
176
     1
 90
        0
176
     1
 62
     7
176
     1
 40
1.0
176
     1
 90
        1
176
     1
 90
        6
176
     1
 90
        2
176
     1
 62
     7
176
     1
 90
        5
176
     1
 90
        0
176
     1
 90
        0
176
     1
290
     0
176
     1
 90
       13
176
     1
 40
0.0
176
     1
 90
        0
176
     1
290
     0
176
     1
290
     1
176
     1
290
     1
176
     1
290
     0
176
     1
290
     0
176
     1
290
     0
176
     1
290
     0
176
     1
290
     0
176
     1
290
     0
176
     1
 90
       50
176
     1
 40
0.0
176
     1
 40
1.0
176
     1
 90
        0
176
     1
 62
    18
420
        0
176
     1
 90
       50
176
     1
 90
        3
176
     1
 62
     5
420
      255
176
     1
290
     0
176
     1
 90
       50
176
     1
 90
       50
176
     1
 90
       50
176
     1
290
     0
176
     1
 90
       50
176
     1
 62
   256
176
     0
 40
1.0
176
     0
 90
        2
176
     1
  1
strokes_ogs.tif
176
     1
290
     0
176
     1
 40
1.0
176
     1
 40
1.0
176
     1
  0
VISUALSTYLE
  5
2D
102
{ACAD_REACTORS
330
29
102
}
330
29
100
AcDbVisualStyle
  2
GouraudWithEdges
 70
     3
177
     3
291
     1
 70
    58
 90
        2
176
     1
 90
        2
176
     1
 90
        1
176
     1
 90
        2
176
     1
 40
0.6
176
     1
 40
30.0
176
     1
 62
     7
420
 16777215
176
     1
 90
        1
176
     1
 90
        0
176
     1
 62
     7
176
     1
 62
   257
176
     1
 90
        1
176
     1
 90
        1
176
     1
 40
1.0
176
     1
 90
        0
176
     1
 62
   257
176
     1
 40
1.0
176
     1
 90
        1
176
     1
 90
        6
176
     1
 90
        2
176
     1
 62
     7
176
     1
 90
        5
176
     1
 90
        0
176
     1
 90
        0
176
     1
290
     0
176
     1
 90
       13
176
     1
 40
0.0
176
     1
 90
        0
176
     1
290
     0
176
     1
290
     1
176
     1
290
     1
176
     1
290
     0
176
     1
290
     0
176
     1
290
     0
176
     1
290
     0
176
     1
290
     0
176
     1
290
     0
176
     1
 90
       50
176
     1
 40
0.0
176
     1
 40
1.0
176
     1
 90
        0
176
     1
 62
    18
420
        0
176
     1
 90
       50
176
     1
 90
        3
176
     1
 62
     5
420
      255
176
     1
290
     0
176
     1
 90
       50
176
     1
 90
       50
176
     1
 90
       50
176
     1
290
     0
176
     1
 90
       50
176
     1
 62
   256
176
     0
 40
1.0
176
     0
 90
        2
176
     1
  1
strokes_ogs.tif
176
     1
290
     0
176
     1
 40
1.0
176
     1
 40
1.0
176
     1
  0
VISUALSTYLE
  5
31
102
{ACAD_REACTORS
330
29
102
}
330
29
100
AcDbVisualStyle
  2
Hidden
 70
     6
177
     3
291
     0
 70
    58
 90
        1
176
     1
 90
        2
176
     1
 90
        2
176
     1
 90
        0
176
     1
 40
0.6
176
     1
 40
30.0
176
     1
 62
     7
420
 16777215
176
     1
 90
        2
176
     1
 90
        2
176
     1
 62
     7
176
     1
 62
   257
176
     1
 90
        2
176
     1
 90
        1
176
     1
 40
40.0
176
     1
 90
        0
176
     1
 62
   257
176
     1
 40
1.0
176
     1
 90
        1
176
     1
 90
        6
176
     1
 90
        2
176
     1
 62
     7
176
     1
 90
        3
176
     1
 90
        0
176
     1
 90
        0
176
     1
290
     0
176
     1
 90
        1
176
     1
 40
0.0
176
     1
 90
        0
176
     1
290
     0
176
     1
290
     1
176
     1
290
     1
176
     1
290
     0
176
     1
290
     0
176
     1
290
     0
176
     1
290
     0
176
     1
290
     0
176
     1
290
     0
176
     1
 90
       50
176
     1
 40
0.0
176
     1
 40
1.0
176
     1
 90
        0
176
     1
 62
    18
420
        0
176
     1
 90
       50
176
     1
 90
        3
176
     1
 62
     5
420
      255
176
     1
290
     0
176
     1
 90
       50
176
     1
 90
       50
176
     1
 90
       50
176
     1
290
     0
176
     1
 90
       50
176
     1
 62
   256
176
     0
 40
1.0
176
     0
 90
        2
176
     1
  1
strokes_ogs.tif
176
     1
290
     0
176
     1
 40
1.0
176
     1
 40
1.0
176
     1
  0
VISUALSTYLE
  5
3F
102
{ACAD_REACTORS
330
29
102
}
330
29
100
AcDbVisualStyle
  2
JitterOff
 70
    20
177
     3
291
     1
 70
    58
 90
        2
176
     0
 90
        2
176
     0
 90
        0
176
     0
 90
        0
176
     0
 40
0.6
176
     0
 40
30.0
176
     0
 62
     7
420
 16777215
176
     0
 90
        1
176
     0
 90
        4
176
     0
 62
     7
176
     0
 62
   257
176
     0
 90
        1
176
     0
 90
        1
176
     0
 40
1.0
176
     0
 90
       10
176
     2
 62
     7
176
     0
 40
1.0
176
     0
 90
        1
176
     0
 90
        6
176
     0
 90
        2
176
     0
 62
     7
176
     0
 90
        5
176
     0
 90
        0
176
     0
 90
        0
176
     0
290
     0
176
     0
 90
        1
176
     0
 40
0.0
176
     0
 90
        0
176
     0
290
     0
176
     0
290
     1
176
     0
290
     1
176
     0
290
     0
176
     0
290
     0
176
     0
290
     0
176
     0
290
     0
176
     0
290
     0
176
     0
290
     0
176
     0
 90
       50
176
     0
 40
0.0
176
     0
 40
1.0
176
     0
 90
        0
176
     0
 62
    18
420
        0
176
     0
 90
       50
176
     0
 90
        3
176
     0
 62
     5
420
      255
176
     0
290
     0
176
     0
 90
       50
176
     0
 90
       50
176
     0
 90
       50
176
     0
290
     0
176
     0
 90
       50
176
     0
 62
   256
176
     0
 40
1.0
176
     0
 90
        2
176
     0
  1
strokes_ogs.tif
176
     0
290
     0
176
     0
 40
1.0
176
     0
 40
1.0
176
     0
  0
VISUALSTYLE
  5
37
102
{ACAD_REACTORS
330
29
102
}
330
29
100
AcDbVisualStyle
  2
Linepattern
 70
    14
177
     3
291
     1
 70
    58
 90
        2
176
     1
 90
        2
176
     1
 90
        0
176
     1
 90
        0
176
     1
 40
0.6
176
     1
 40
30.0
176
     1
 62
     7
420
 16777215
176
     1
 90
        1
176
     1
 90
        4
176
     1
 62
     7
176
     1
 62
   257
176
     1
 90
        7
176
     1
 90
        7
176
     1
 40
1.0
176
     1
 90
        8
176
     1
 62
     7
176
     1
 40
1.0
176
     1
 90
        1
176
     1
 90
        6
176
     1
 90
        2
176
     1
 62
     7
176
     1
 90
        5
176
     1
 90
        0
176
     1
 90
        0
176
     1
290
     0
176
     1
 90
        1
176
     1
 40
0.0
176
     1
 90
        0
176
     1
290
     0
176
     1
290
     1
176
     1
290
     1
176
     1
290
     0
176
     1
290
     0
176
     1
290
     0
176
     1
290
     0
176
     1
290
     0
176
     1
290
     0
176
     1
 90
       50
176
     1
 40
0.0
176
     1
 40
1.0
176
     1
 90
        0
176
     1
 62
    18
420
        0
176
     1
 90
       50
176
     1
 90
        3
176
     1
 62
     5
420
      255
176
     1
290
     0
176
     1
 90
       50
176
     1
 90
       50
176
     1
 90
       50
176
     1
290
     0
176
     1
 90
       50
176
     1
 62
   256
176
     0
 40
1.0
176
     0
 90
        2
176
     1
  1
strokes_ogs.tif
176
     1
290
     0
176
     1
 40
1.0
176
     1
 40
1.0
176
     1
  0
VISUALSTYLE
  5
40
102
{ACAD_REACTORS
330
29
102
}
330
29
100
AcDbVisualStyle
  2
OverhangOff
 70
    21
177
     3
291
     1
 70
    58
 90
        2
176
     0
 90
        2
176
     0
 90
        0
176
     0
 90
        0
176
     0
 40
0.6
176
     0
 40
30.0
176
     0
 62
     7
420
 16777215
176
     0
 90
        1
176
     0
 90
        4
176
     0
 62
     7
176
     0
 62
   257
176
     0
 90
        1
176
     0
 90
        1
176
     0
 40
1.0
176
     0
 90
        9
176
     2
 62
     7
176
     0
 40
1.0
176
     0
 90
        1
176
     0
 90
        6
176
     0
 90
        2
176
     0
 62
     7
176
     0
 90
        5
176
     0
 90
        0
176
     0
 90
        0
176
     0
290
     0
176
     0
 90
        1
176
     0
 40
0.0
176
     0
 90
        0
176
     0
290
     0
176
     0
290
     1
176
     0
290
     1
176
     0
290
     0
176
     0
290
     0
176
     0
290
     0
176
     0
290
     0
176
     0
290
     0
176
     0
290
     0
176
     0
 90
       50
176
     0
 40
0.0
176
     0
 40
1.0
176
     0
 90
        0
176
     0
 62
    18
420
        0
176
     0
 90
       50
176
     0
 90
        3
176
     0
 62
     5
420
      255
176
     0
290
     0
176
     0
 90
       50
176
     0
 90
       50
176
     0
 90
       50
176
     0
290
     0
176
     0
 90
       50
176
     0
 62
   256
176
     0
 40
1.0
176
     0
 90
        2
176
     0
  1
strokes_ogs.tif
176
     0
290
     0
176
     0
 40
1.0
176
     0
 40
1.0
176
     0
  0
VISUALSTYLE
  5
33
102
{ACAD_REACTORS
330
29
102
}
330
29
100
AcDbVisualStyle
  2
Realistic
 70
     8
177
     3
291
     0
 70
    58
 90
        2
176
     1
 90
        3
176
     1
 90
        0
176
     1
 90
        2
176
     1
 40
0.6
176
     1
 40
30.0
176
     1
 62
     7
420
 16777215
176
     1
 90
        0
176
     1
 90
        0
176
     1
 62
     7
176
     1
 62
   257
176
     1
 90
        1
176
     1
 90
        1
176
     1
 40
1.0
176
     1
 90
        8
176
     1
 62
   257
176
     1
 40
1.0
176
     1
 90
        1
176
     1
 90
        6
176
     1
 90
        2
176
     1
 62
     7
176
     1
 90
        3
176
     1
 90
        0
176
     1
 90
        0
176
     1
290
     0
176
     1
 90
       13
176
     1
 40
0.0
176
     1
 90
        0
176
     1
290
     0
176
     1
290
     1
176
     1
290
     1
176
     1
290
     0
176
     1
290
     0
176
     1
290
     0
176
     1
290
     0
176
     1
290
     0
176
     1
290
     0
176
     1
 90
       50
176
     1
 40
0.0
176
     1
 40
1.0
176
     1
 90
        0
176
     1
 62
    18
420
        0
176
     1
 90
       50
176
     1
 90
        3
176
     1
 62
     5
420
      255
176
     1
290
     0
176
     1
 90
       50
176
     1
 90
       50
176
     1
 90
       50
176
     1
290
     0
176
     1
 90
       50
176
     1
 62
   256
176
     0
 40
1.0
176
     0
 90
        2
176
     1
  1
strokes_ogs.tif
176
     1
290
     0
176
     1
 40
1.0
176
     1
 40
1.0
176
     1
  0
VISUALSTYLE
  5
3E
102
{ACAD_REACTORS
330
29
102
}
330
29
100
AcDbVisualStyle
  2
Shaded
 70
    27
177
     3
291
     0
 70
    58
 90
        2
176
     1
 90
        2
176
     1
 90
        1
176
     1
 90
        2
176
     1
 40
0.6
176
     1
 40
30.0
176
     1
 62
     7
420
 16777215
176
     1
 90
        0
176
     1
 90
        4
176
     1
 62
     7
176
     1
 62
   257
176
     1
 90
        1
176
     1
 90
        1
176
     1
 40
1.0
176
     1
 90
        8
176
     1
 62
   257
176
     1
 40
1.0
176
     1
 90
        1
176
     1
 90
        6
176
     1
 90
        2
176
     1
 62
     8
420
  7895160
176
     1
 90
        3
176
     1
 90
        0
176
     1
 90
        0
176
     1
290
     0
176
     1
 90
        5
176
     1
 40
0.0
176
     1
 90
        0
176
     1
290
     0
176
     1
290
     1
176
     1
290
     1
176
     1
290
     0
176
     1
290
     0
176
     1
290
     0
176
     1
290
     0
176
     1
290
     0
176
     1
290
     0
176
     1
 90
       50
176
     1
 40
0.0
176
     1
 40
1.0
176
     1
 90
        0
176
     1
 62
    18
420
        0
176
     1
 90
       50
176
     1
 90
        3
176
     1
 62
     5
420
      255
176
     1
290
     0
176
     1
 90
       50
176
     1
 90
       50
176
     1
 90
       50
176
     1
290
     0
176
     1
 90
       50
176
     1
 62
   256
176
     0
 40
1.0
176
     0
 90
        2
176
     1
  1
strokes_ogs.tif
176
     1
290
     0
176
     1
 40
1.0
176
     1
 40
1.0
176
     1
  0
VISUALSTYLE
  5
3D
102
{ACAD_REACTORS
330
29
102
}
330
29
100
AcDbVisualStyle
  2
Shaded with edges
 70
    26
177
     3
291
     0
 70
    58
 90
        2
176
     1
 90
        2
176
     1
 90
        1
176
     1
 90
        2
176
     1
 40
0.6
176
     1
 40
30.0
176
     1
 62
     7
420
 16777215
176
     1
 90
        1
176
     1
 90
        2
176
     1
 62
     7
176
     1
 62
   257
176
     1
 90
        2
176
     1
 90
        1
176
     1
 40
1.0
176
     1
 90
        8
176
     1
 62
   257
176
     1
 40
1.0
176
     1
 90
        1
176
     1
 90
        6
176
     1
 90
        2
176
     1
 62
     7
176
     1
 90
        3
176
     1
 90
        0
176
     1
 90
        0
176
     1
290
     0
176
     1
 90
        5
176
     1
 40
0.0
176
     1
 90
        0
176
     1
290
     0
176
     1
290
     1
176
     1
290
     1
176
     1
290
     0
176
     1
290
     0
176
     1
290
     0
176
     1
290
     0
176
     1
290
     0
176
     1
290
     0
176
     1
 90
       50
176
     1
 40
0.0
176
     1
 40
1.0
176
     1
 90
        0
176
     1
 62
    18
420
        0
176
     1
 90
       50
176
     1
 90
        3
176
     1
 62
     5
420
      255
176
     1
290
     0
176
     1
 90
       50
176
     1
 90
       50
176
     1
 90
       50
176
     1
290
     0
176
     1
 90
       50
176
     1
 62
   256
176
     0
 40
1.0
176
     0
 90
        2
176
     1
  1
strokes_ogs.tif
176
     1
290
     0
176
     1
 40
1.0
176
     1
 40
1.0
176
     1
  0
VISUALSTYLE
  5
3A
102
{ACAD_REACTORS
330
29
102
}
330
29
100
AcDbVisualStyle
  2
Shades of Gray
 70
    23
177
     3
291
     0
 70
    58
 90
        2
176
     1
 90
        2
176
     1
 90
        3
176
     1
 90
        0
176
     1
 40
0.6
176
     1
 40
30.0
176
     1
 62
     7
420
 16777215
176
     1
 90
        2
176
     1
 90
        2
176
     1
 62
     7
176
     1
 62
     7
176
     1
 90
        1
176
     1
 90
        1
176
     1
 40
40.0
176
     1
 90
        8
176
     1
 62
     7
176
     1
 40
1.0
176
     1
 90
        1
176
     1
 90
        6
176
     1
 90
        2
176
     1
 62
     7
176
     1
 90
        3
176
     1
 90
        0
176
     1
 90
        0
176
     1
290
     0
176
     1
 90
        1
176
     1
 40
0.0
176
     1
 90
        0
176
     1
290
     0
176
     1
290
     1
176
     1
290
     1
176
     1
290
     0
176
     1
290
     0
176
     1
290
     0
176
     1
290
     0
176
     1
290
     0
176
     1
290
     0
176
     1
 90
       50
176
     1
 40
0.0
176
     1
 40
1.0
176
     1
 90
        0
176
     1
 62
    18
420
        0
176
     1
 90
       50
176
     1
 90
        3
176
     1
 62
     5
420
      255
176
     1
290
     0
176
     1
 90
       50
176
     1
 90
       50
176
     1
 90
       50
176
     1
290
     0
176
     1
 90
       50
176
     1
 62
   256
176
     0
 40
1.0
176
     0
 90
        2
176
     1
  1
strokes_ogs.tif
176
     1
290
     0
176
     1
 40
1.0
176
     1
 40
1.0
176
     1
  0
VISUALSTYLE
  5
3B
102
{ACAD_REACTORS
330
29
102
}
330
29
100
AcDbVisualStyle
  2
Sketchy
 70
    24
177
     3
291
     0
 70
    58
 90
        1
176
     1
 90
        2
176
     1
 90
        2
176
     1
 90
        0
176
     1
 40
0.6
176
     1
 40
30.0
176
     1
 62
     7
420
 16777215
176
     1
 90
        2
176
     1
 90
        2
176
     1
 62
     7
176
     1
 62
     7
176
     1
 90
        1
176
     1
 90
        1
176
     1
 40
40.0
176
     1
 90
       11
176
     1
 62
     7
176
     1
 40
1.0
176
     1
 90
        1
176
     1
 90
        6
176
     1
 90
        2
176
     1
 62
     7
176
     1
 90
        6
176
     1
 90
        0
176
     1
 90
        0
176
     1
290
     0
176
     1
 90
        1
176
     1
 40
0.0
176
     1
 90
        0
176
     1
290
     0
176
     1
290
     1
176
     1
290
     1
176
     1
290
     0
176
     1
290
     0
176
     1
290
     0
176
     1
290
     0
176
     1
290
     0
176
     1
290
     0
176
     1
 90
       50
176
     1
 40
0.0
176
     1
 40
1.0
176
     1
 90
        0
176
     1
 62
    18
420
        0
176
     1
 90
       50
176
     1
 90
        3
176
     1
 62
     5
420
      255
176
     1
290
     0
176
     1
 90
       50
176
     1
 90
       50
176
     1
 90
       50
176
     1
290
     0
176
     1
 90
       50
176
     1
 62
   256
176
     0
 40
1.0
176
     0
 90
        2
176
     1
  1
strokes_ogs.tif
176
     1
290
     0
176
     1
 40
1.0
176
     1
 40
1.0
176
     1
  0
VISUALSTYLE
  5
36
102
{ACAD_REACTORS
330
29
102
}
330
29
100
AcDbVisualStyle
  2
Thicken
 70
    13
177
     3
291
     1
 70
    58
 90
        2
176
     1
 90
        2
176
     1
 90
        0
176
     1
 90
        0
176
     1
 40
0.6
176
     1
 40
30.0
176
     1
 62
     7
420
 16777215
176
     1
 90
        1
176
     1
 90
        4
176
     1
 62
     7
176
     1
 62
   257
176
     1
 90
        1
176
     1
 90
        1
176
     1
 40
1.0
176
     1
 90
       12
176
     1
 62
     7
176
     1
 40
1.0
176
     1
 90
        1
176
     1
 90
        6
176
     1
 90
        2
176
     1
 62
     7
176
     1
 90
        5
176
     1
 90
        0
176
     1
 90
        0
176
     1
290
     0
176
     1
 90
        1
176
     1
 40
0.0
176
     1
 90
        0
176
     1
290
     0
176
     1
290
     1
176
     1
290
     1
176
     1
290
     0
176
     1
290
     0
176
     1
290
     0
176
     1
290
     0
176
     1
290
     0
176
     1
290
     0
176
     1
 90
       50
176
     1
 40
0.0
176
     1
 40
1.0
176
     1
 90
        0
176
     1
 62
    18
420
        0
176
     1
 90
       50
176
     1
 90
        3
176
     1
 62
     5
420
      255
176
     1
290
     0
176
     1
 90
       50
176
     1
 90
       50
176
     1
 90
       50
176
     1
290
     0
176
     1
 90
       50
176
     1
 62
   256
176
     0
 40
1.0
176
     0
 90
        2
176
     1
  1
strokes_ogs.tif
176
     1
290
     0
176
     1
 40
1.0
176
     1
 40
1.0
176
     1
  0
VISUALSTYLE
  5
30
102
{ACAD_REACTORS
330
29
102
}
330
29
100
AcDbVisualStyle
  2
Wireframe
 70
     5
177
     3
291
     0
 70
    58
 90
        0
176
     1
 90
        2
176
     1
 90
        0
176
     1
 90
        0
176
     1
 40
0.6
176
     1
 40
30.0
176
     1
 62
     7
420
 16777215
176
     1
 90
        1
176
     1
 90
        4
176
     1
 62
     7
176
     1
 62
   257
176
     1
 90
        1
176
     1
 90
        1
176
     1
 40
1.0
176
     1
 90
        0
176
     1
 62
   257
176
     1
 40
1.0
176
     1
 90
        1
176
     1
 90
        6
176
     1
 90
        2
176
     1
 62
     7
176
     1
 90
        3
176
     1
 90
        0
176
     1
 90
        0
176
     1
290
     0
176
     1
 90
        1
176
     1
 40
0.0
176
     1
 90
        0
176
     1
290
     0
176
     1
290
     1
176
     1
290
     1
176
     1
290
     0
176
     1
290
     0
176
     1
290
     0
176
     1
290
     0
176
     1
290
     0
176
     1
290
     0
176
     1
 90
       50
176
     1
 40
0.0
176
     1
 40
1.0
176
     1
 90
        0
176
     1
 62
    18
420
        0
176
     1
 90
       50
176
     1
 90
        3
176
     1
 62
     5
420
      255
176
     1
290
     0
176
     1
 90
       50
176
     1
 90
       50
176
     1
 90
       50
176
     1
290
     0
176
     1
 90
       50
176
     1
 62
   256
176
     0
 40
1.0
176
     0
 90
        2
176
     1
  1
strokes_ogs.tif
176
     1
290
     0
176
     1
 40
1.0
176
     1
 40
1.0
176
     1
  0
VISUALSTYLE
  5
3C
102
{ACAD_REACTORS
330
29
102
}
330
29
100
AcDbVisualStyle
  2
X-Ray
 70
    25
177
     3
291
     0
 70
    58
 90
        2
176
     1
 90
        2
176
     1
 90
        1
176
     1
 90
        1
176
     1
 40
0.5
176
     1
 40
30.0
176
     1
 62
     7
420
 16777215
176
     1
 90
        1
176
     1
 90
        0
176
     1
 62
     7
176
     1
 62
   257
176
     1
 90
        1
176
     1
 90
        1
176
     1
 40
1.0
176
     1
 90
        8
176
     1
 62
     7
176
     1
 40
1.0
176
     1
 90
        1
176
     1
 90
        6
176
     1
 90
        2
176
     1
 62
     7
176
     1
 90
        3
176
     1
 90
        0
176
     1
 90
        0
176
     1
290
     0
176
     1
 90
       13
176
     1
 40
0.0
176
     1
 90
        0
176
     1
290
     0
176
     1
290
     1
176
     1
290
     1
176
     1
290
     0
176
     1
290
     0
176
     1
290
     0
176
     1
290
     0
176
     1
290
     0
176
     1
290
     0
176
     1
 90
       50
176
     1
 40
0.0
176
     1
 40
1.0
176
     1
 90
        0
176
     1
 62
    18
420
        0
176
     1
 90
       50
176
     1
 90
        3
176
     1
 62
     5
420
      255
176
     1
290
     0
176
     1
 90
       50
176
     1
 90
       50
176
     1
 90
       50
176
     1
290
     0
176
     1
 90
       50
176
     1
 62
   256
176
     0
 40
1.0
176
     0
 90
        2
176
     1
  1
strokes_ogs.tif
176
     1
290
     0
176
     1
 40
1.0
176
     1
 40
1.0
176
     1
  0
DICTIONARYVAR
  5
B8
102
{ACAD_REACTORS
330
B3
102
}
330
B3
100
DictionaryVariables
280
     0
  1
1:1
  0
DICTIONARYVAR
  5
B5
102
{ACAD_REACTORS
330
B3
102
}
330
B3
100
DictionaryVariables
280
     0
  1
STANDARD
  0
DICTIONARYVAR
  5
B4
102
{ACAD_REACTORS
330
B3
102
}
330
B3
100
DictionaryVariables
280
     0
  1
STANDARD
  0
DICTIONARYVAR
  5
B6
102
{ACAD_REACTORS
330
B3
102
}
330
B3
100
DictionaryVariables
280
     0
  1
Imperial24
  0
DICTIONARYVAR
  5
B7
102
{ACAD_REACTORS
330
B3
102
}
330
B3
100
DictionaryVariables
280
     0
  1
Imperial24
  0
DICTIONARY
  5
1A
330
19
100
AcDbDictionary
280
     1
281
     1
  3
BUMPTILE
360
1C
  3
DIFFUSETILE
360
1B
  3
OPACITYTILE
360
1F
  3
REFLECTIONTILE
360
1E
  3
REFRACTIONTILE
360
20
  3
SPECULARTILE
360
1D
  0
DICTIONARY
  5
12
330
11
100
AcDbDictionary
280
     1
281
     1
  3
BUMPTILE
360
14
  3
DIFFUSETILE
360
13
  3
OPACITYTILE
360
17
  3
REFLECTIONTILE
360
16
  3
REFRACTIONTILE
360
18
  3
SPECULARTILE
360
15
  0
DICTIONARY
  5
22
330
21
100
AcDbDictionary
280
     1
281
     1
  3
BUMPTILE
360
24
  3
DIFFUSETILE
360
23
  3
OPACITYTILE
360
27
  3
REFLECTIONTILE
360
26
  3
REFRACTIONTILE
360
28
  3
SPECULARTILE
360
25
  0
DICTIONARY
  5
B9
330
65
100
AcDbDictionary
280
     1
281
     1
  3
ACAD_ROUNDTRIP_2008_TABLESTYLE_CELLSTYLEMAP
360
BA
  0
XRECORD
  5
1C
102
{ACAD_REACTORS
330
1A
102
}
330
1A
100
AcDbXrecord
280
     1
270
     1
271
     1
  0
XRECORD
  5
1B
102
{ACAD_REACTORS
330
1A
102
}
330
1A
100
AcDbXrecord
280
     1
270
     1
271
     1
  0
XRECORD
  5
1F
102
{ACAD_REACTORS
330
1A
102
}
330
1A
100
AcDbXrecord
280
     1
270
     1
271
     1
  0
XRECORD
  5
1E
102
{ACAD_REACTORS
330
1A
102
}
330
1A
100
AcDbXrecord
280
     1
270
     1
271
     1
  0
XRECORD
  5
20
102
{ACAD_REACTORS
330
1A
102
}
330
1A
100
AcDbXrecord
280
     1
270
     1
271
     1
  0
XRECORD
  5
1D
102
{ACAD_REACTORS
330
1A
102
}
330
1A
100
AcDbXrecord
280
     1
270
     1
271
     1
  0
XRECORD
  5
14
102
{ACAD_REACTORS
330
12
102
}
330
12
100
AcDbXrecord
280
     1
270
     1
271
     1
  0
XRECORD
  5
13
102
{ACAD_REACTORS
330
12
102
}
330
12
100
AcDbXrecord
280
     1
270
     1
271
     1
  0
XRECORD
  5
17
102
{ACAD_REACTORS
330
12
102
}
330
12
100
AcDbXrecord
280
     1
270
     1
271
     1
  0
XRECORD
  5
16
102
{ACAD_REACTORS
330
12
102
}
330
12
100
AcDbXrecord
280
     1
270
     1
271
     1
  0
XRECORD
  5
18
102
{ACAD_REACTORS
330
12
102
}
330
12
100
AcDbXrecord
280
     1
270
     1
271
     1
  0
XRECORD
  5
15
102
{ACAD_REACTORS
330
12
102
}
330
12
100
AcDbXrecord
280
     1
270
     1
271
     1
  0
XRECORD
  5
24
102
{ACAD_REACTORS
330
22
102
}
330
22
100
AcDbXrecord
280
     1
270
     1
271
     1
  0
XRECORD
  5
23
102
{ACAD_REACTORS
330
22
102
}
330
22
100
AcDbXrecord
280
     1
270
     1
271
     1
  0
XRECORD
  5
27
102
{ACAD_REACTORS
330
22
102
}
330
22
100
AcDbXrecord
280
     1
270
     1
271
     1
  0
XRECORD
  5
26
102
{ACAD_REACTORS
330
22
102
}
330
22
100
AcDbXrecord
280
     1
270
     1
271
     1
  0
XRECORD
  5
28
102
{ACAD_REACTORS
330
22
102
}
330
22
100
AcDbXrecord
280
     1
270
     1
271
     1
  0
XRECORD
  5
25
102
{ACAD_REACTORS
330
22
102
}
330
22
100
AcDbXrecord
280
     1
270
     1
271
     1
  0
CELLSTYLEMAP
  5
BA
102
{ACAD_REACTORS
330
B9
102
}
330
B9
100
AcDbCellStyleMap
 90
        3
300
CELLSTYLE
  1
TABLEFORMAT_BEGIN
 90
        5
170
     1
 91
        0
 92
    32768
 62
   257
 93
        1
300
CONTENTFORMAT
  1
CONTENTFORMAT_BEGIN
 90
        0
 91
        0
 92
      512
 93
        0
300

 40
0.0
140
1.0
 94
        5
 62
     0
340
55
144
0.25
309
CONTENTFORMAT_END
171
     0
 94
        0
309
TABLEFORMAT_END
  1
CELLSTYLE_BEGIN
 90
        1
 91
        1
300
_TITLE
309
CELLSTYLE_END
300
CELLSTYLE
  1
TABLEFORMAT_BEGIN
 90
        5
170
     1
 91
        0
 92
        0
 62
   257
 93
        1
300
CONTENTFORMAT
  1
CONTENTFORMAT_BEGIN
 90
        0
 91
        0
 92
      512
 93
        0
300

 40
0.0
140
1.0
 94
        5
 62
     0
340
55
144
0.18
309
CONTENTFORMAT_END
171
     0
 94
        0
309
TABLEFORMAT_END
  1
CELLSTYLE_BEGIN
 90
        2
 91
        1
300
_HEADER
309
CELLSTYLE_END
300
CELLSTYLE
  1
TABLEFORMAT_BEGIN
 90
        5
170
     1
 91
        0
 92
        0
 62
   257
 93
        1
300
CONTENTFORMAT
  1
CONTENTFORMAT_BEGIN
 90
        0
 91
        0
 92
      512
 93
        0
300

 40
0.0
140
1.0
 94
        2
 62
     0
340
55
144
0.18
309
CONTENTFORMAT_END
171
     0
 94
        0
309
TABLEFORMAT_END
  1
CELLSTYLE_BEGIN
 90
        3
 91
        2
300
_DATA
309
CELLSTYLE_END
  0
ENDSEC
  0
EOF
