  0
SECTION
  2
HEADER
  9
$ACADVER
  1
AC1032
  9
$ACADMAINTVER
 90
      197
  9
$DWGCODEPAGE
  3
ANSI_1252
  9
$REQUIREDVERSIONS
160
                 0
  9
$INSBASE
 10
0.0
 20
0.0
 30
0.0
  9
$EXTMIN
 10
1.000000000000000E+20
 20
1.000000000000000E+20
 30
1.000000000000000E+20
  9
$EXTMAX
 10
-1.000000000000000E+20
 20
-1.000000000000000E+20
 30
-1.000000000000000E+20
  9
$LIMMIN
 10
0.0
 20
0.0
  9
$LIMMAX
 10
12.0
 20
9.0
  9
$ORTHOMODE
 70
     0
  9
$REGENMODE
 70
     1
  9
$FILLMODE
 70
     1
  9
$QTEXTMODE
 70
     0
  9
$MIRRTEXT
 70
     0
  9
$LTSCALE
 40
1.0
  9
$ATTMODE
 70
     1
  9
$TEXTSIZE
 40
0.2
  9
$TRACEWID
 40
0.05
  9
$TEXTSTYLE
  7
Standard
  9
$CLAYER
  8
0
  9
$CELTYPE
  6
ByLayer
  9
$CECOLOR
 62
   256
  9
$CELTSCALE
 40
1.0
  9
$DISPSILH
 70
     0
  9
$DIMSCALE
 40
1.0
  9
$DIMASZ
 40
0.18
  9
$DIMEXO
 40
0.0625
  9
$DIMDLI
 40
0.38
  9
$DIMRND
 40
0.0
  9
$DIMDLE
 40
0.0
  9
$DIMEXE
 40
0.18
  9
$DIMTP
 40
0.0
  9
$DIMTM
 40
0.0
  9
$DIMTXT
 40
0.18
  9
$DIMCEN
 40
0.09
  9
$DIMTSZ
 40
0.0
  9
$DIMTOL
 70
     0
  9
$DIMLIM
 70
     0
  9
$DIMTIH
 70
     1
  9
$DIMTOH
 70
     1
  9
$DIMSE1
 70
     0
  9
$DIMSE2
 70
     0
  9
$DIMTAD
 70
     0
  9
$DIMZIN
 70
     0
  9
$DIMBLK
  1

  9
$DIMASO
 70
     1
  9
$DIMSHO
 70
     1
  9
$DIMPOST
  1

  9
$DIMAPOST
  1

  9
$DIMALT
 70
     0
  9
$DIMALTD
 70
     2
  9
$DIMALTF
 40
25.4
  9
$DIMLFAC
 40
1.0
  9
$DIMTOFL
 70
     0
  9
$DIMTVP
 40
0.0
  9
$DIMTIX
 70
     0
  9
$DIMSOXD
 70
     0
  9
$DIMSAH
 70
     0
  9
$DIMBLK1
  1

  9
$DIMBLK2
  1

  9
$DIMSTYLE
  2
Standard
  9
$DIMCLRD
 70
     0
  9
$DIMCLRE
 70
     0
  9
$DIMCLRT
 70
     0
  9
$DIMTFAC
 40
1.0
  9
$DIMGAP
 40
0.09
  9
$DIMJUST
 70
     0
  9
$DIMSD1
 70
     0
  9
$DIMSD2
 70
     0
  9
$DIMTOLJ
 70
     1
  9
$DIMTZIN
 70
     0
  9
$DIMALTZ
 70
     0
  9
$DIMALTTZ
 70
     0
  9
$DIMUPT
 70
     0
  9
$DIMDEC
 70
     4
  9
$DIMTDEC
 70
     4
  9
$DIMALTU
 70
     2
  9
$DIMALTTD
 70
     2
  9
$DIMTXSTY
  7
Standard
  9
$DIMAUNIT
 70
     0
  9
$DIMADEC
 70
     0
  9
$DIMALTRND
 40
0.0
  9
$DIMAZIN
 70
     0
  9
$DIMDSEP
 70
    46
  9
$DIMATFIT
 70
     3
  9
$DIMFRAC
 70
     0
  9
$DIMLDRBLK
  1

  9
$DIMLUNIT
 70
     2
  9
$DIMLWD
 70
    -2
  9
$DIMLWE
 70
    -2
  9
$DIMTMOVE
 70
     0
  9
$DIMFXL
 40
1.0
  9
$DIMFXLON
 70
     0
  9
$DIMJOGANG
 40
0.7853981633974483
  9
$DIMTFILL
 70
     0
  9
$DIMTFILLCLR
 70
     0
  9
$DIMARCSYM
 70
     0
  9
$DIMLTYPE
  6

  9
$DIMLTEX1
  6

  9
$DIMLTEX2
  6

  9
$DIMTXTDIRECTION
 70
     0
  9
$LUNITS
 70
     2
  9
$LUPREC
 70
     4
  9
$SKETCHINC
 40
0.1
  9
$FILLETRAD
 40
0.0
  9
$AUNITS
 70
     0
  9
$AUPREC
 70
     0
  9
$MENU
  1
.
  9
$ELEVATION
 40
0.0
  9
$PELEVATION
 40
0.0
  9
$THICKNESS
 40
0.0
  9
$LIMCHECK
 70
     0
  9
$CHAMFERA
 40
0.0
  9
$CHAMFERB
 40
0.0
  9
$CHAMFERC
 40
0.0
  9
$CHAMFERD
 40
0.0
  9
$SKPOLY
 70
     0
  9
$TDCREATE
 40
2459648.777164352
  9
$TDUCREATE
 40
2459649.110497685
  9
$TDUPDATE
 40
2459648.777164352
  9
$TDUUPDATE
 40
2459649.110497685
  9
$TDINDWG
 40
0.0000000000
  9
$TDUSRTIMER
 40
0.0000000000
  9
$USRTIMER
 70
     1
  9
$ANGBASE
 50
0.0
  9
$ANGDIR
 70
     0
  9
$PDMODE
 70
     0
  9
$PDSIZE
 40
0.0
  9
$PLINEWID
 40
0.0
  9
$SPLFRAME
 70
     0
  9
$SPLINETYPE
 70
     6
  9
$SPLINESEGS
 70
     8
  9
$HANDSEED
  5
9E
  9
$SURFTAB1
 70
     6
  9
$SURFTAB2
 70
     6
  9
$SURFTYPE
 70
     6
  9
$SURFU
 70
     6
  9
$SURFV
 70
     6
  9
$UCSBASE
  2

  9
$UCSNAME
  2

  9
$UCSORG
 10
0.0
 20
0.0
 30
0.0
  9
$UCSXDIR
 10
1.0
 20
0.0
 30
0.0
  9
$UCSYDIR
 10
0.0
 20
1.0
 30
0.0
  9
$UCSORTHOREF
  2

  9
$UCSORTHOVIEW
 70
     0
  9
$UCSORGTOP
 10
0.0
 20
0.0
 30
0.0
  9
$UCSORGBOTTOM
 10
0.0
 20
0.0
 30
0.0
  9
$UCSORGLEFT
 10
0.0
 20
0.0
 30
0.0
  9
$UCSORGRIGHT
 10
0.0
 20
0.0
 30
0.0
  9
$UCSORGFRONT
 10
0.0
 20
0.0
 30
0.0
  9
$UCSORGBACK
 10
0.0
 20
0.0
 30
0.0
  9
$PUCSBASE
  2

  9
$PUCSNAME
  2

  9
$PUCSORG
 10
0.0
 20
0.0
 30
0.0
  9
$PUCSXDIR
 10
1.0
 20
0.0
 30
0.0
  9
$PUCSYDIR
 10
0.0
 20
1.0
 30
0.0
  9
$PUCSORTHOREF
  2

  9
$PUCSORTHOVIEW
 70
     0
  9
$PUCSORGTOP
 10
0.0
 20
0.0
 30
0.0
  9
$PUCSORGBOTTOM
 10
0.0
 20
0.0
 30
0.0
  9
$PUCSORGLEFT
 10
0.0
 20
0.0
 30
0.0
  9
$PUCSORGRIGHT
 10
0.0
 20
0.0
 30
0.0
  9
$PUCSORGFRONT
 10
0.0
 20
0.0
 30
0.0
  9
$PUCSORGBACK
 10
0.0
 20
0.0
 30
0.0
  9
$USERI1
 70
     0
  9
$USERI2
 70
     0
  9
$USERI3
 70
     0
  9
$USERI4
 70
     0
  9
$USERI5
 70
     0
  9
$USERR1
 40
0.0
  9
$USERR2
 40
0.0
  9
$USERR3
 40
0.0
  9
$USERR4
 40
0.0
  9
$USERR5
 40
0.0
  9
$WORLDVIEW
 70
     1
  9
$SHADEDGE
 70
     3
  9
$SHADEDIF
 70
    70
  9
$TILEMODE
 70
     1
  9
$MAXACTVP
 70
    64
  9
$PINSBASE
 10
0.0
 20
0.0
 30
0.0
  9
$PLIMCHECK
 70
     0
  9
$PEXTMIN
 10
1.000000000000000E+20
 20
1.000000000000000E+20
 30
1.000000000000000E+20
  9
$PEXTMAX
 10
-1.000000000000000E+20
 20
-1.000000000000000E+20
 30
-1.000000000000000E+20
  9
$PLIMMIN
 10
0.0
 20
0.0
  9
$PLIMMAX
 10
12.0
 20
9.0
  9
$UNITMODE
 70
     0
  9
$VISRETAIN
 70
     1
  9
$PLINEGEN
 70
     0
  9
$PSLTSCALE
 70
     1
  9
$TREEDEPTH
 70
  3020
  9
$CMLSTYLE
  2
Standard
  9
$CMLJUST
 70
     0
  9
$CMLSCALE
 40
1.0
  9
$PROXYGRAPHICS
 70
     1
  9
$MEASUREMENT
 70
     0
  9
$CELWEIGHT
370
    -1
  9
$ENDCAPS
280
     0
  9
$JOINSTYLE
280
     0
  9
$LWDISPLAY
290
     1
  9
$INSUNITS
 70
     1
  9
$HYPERLINKBASE
  1

  9
$STYLESHEET
  1

  9
$XEDIT
290
     1
  9
$CEPSNTYPE
380
     0
  9
$PSTYLEMODE
290
     1
  9
$FINGERPRINTGUID
  2
{02D3E0BC-695F-0445-8644-0E66DC844EFE}
  9
$VERSIONGUID
  2
{4305DD63-9F1B-764A-83AA-DC2F61C61D98}
  9
$EXTNAMES
290
     1
  9
$PSVPSCALE
 40
0.0
  9
$OLESTARTUP
290
     0
  9
$SORTENTS
280
   127
  9
$INDEXCTL
280
     0
  9
$HIDETEXT
280
     1
  9
$XCLIPFRAME
280
     2
  9
$HALOGAP
280
     0
  9
$OBSCOLOR
 70
   257
  9
$OBSLTYPE
280
     0
  9
$INTERSECTIONDISPLAY
280
     0
  9
$INTERSECTIONCOLOR
 70
   257
  9
$DIMASSOC
280
     2
  9
$PROJECTNAME
  1

  9
$CAMERADISPLAY
290
     0
  9
$LENSLENGTH
 40
50.0
  9
$CAMERAHEIGHT
 40
0.0
  9
$STEPSPERSEC
 40
2.0
  9
$STEPSIZE
 40
6.0
  9
$3DDWFPREC
 40
2.0
  9
$PSOLWIDTH
 40
0.25
  9
$PSOLHEIGHT
 40
4.0
  9
$LOFTANG1
 40
1.570796326794896
  9
$LOFTANG2
 40
1.570796326794896
  9
$LOFTMAG1
 40
0.0
  9
$LOFTMAG2
 40
0.0
  9
$LOFTPARAM
 70
     7
  9
$LOFTNORMALS
280
     1
  9
$LATITUDE
 40
37.795
  9
$LONGITUDE
 40
-122.394
  9
$NORTHDIRECTION
 40
0.0
  9
$TIMEZONE
 70
 -8000
  9
$LIGHTGLYPHDISPLAY
280
     1
  9
$TILEMODELIGHTSYNCH
280
     1
  9
$CMATERIAL
347
11
  9
$SOLIDHIST
280
     0
  9
$SHOWHIST
280
     1
  9
$DWFFRAME
280
     2
  9
$DGNFRAME
280
     0
  9
$REALWORLDSCALE
290
     1
  9
$INTERFERECOLOR
 62
     1
  9
$INTERFEREOBJVS
345
33
  9
$INTERFEREVPVS
346
30
  9
$CSHADOW
280
     0
  9
$SHADOWPLANELOCATION
 40
0.0
  0
ENDSEC
  0
SECTION
  2
CLASSES
  0
CLASS
  1
ACDBDICTIONARYWDFLT
  2
AcDbDictionaryWithDefault
  3
ObjectDBX Classes
 90
        0
 91
        1
280
     0
281
     0
  0
CLASS
  1
MATERIAL
  2
AcDbMaterial
  3
ObjectDBX Classes
 90
     1153
 91
        3
280
     0
281
     0
  0
CLASS
  1
VISUALSTYLE
  2
AcDbVisualStyle
  3
ObjectDBX Classes
 90
     4095
 91
       24
280
     0
281
     0
  0
CLASS
  1
SCALE
  2
AcDbScale
  3
ObjectDBX Classes
 90
     1153
 91
       17
280
     0
281
     0
  0
CLASS
  1
TABLESTYLE
  2
AcDbTableStyle
  3
ObjectDBX Classes
 90
     4095
 91
        1
280
     0
281
     0
  0
CLASS
  1
MLEADERSTYLE
  2
AcDbMLeaderStyle
  3
ACDB_MLEADERSTYLE_CLASS
 90
     4095
 91
        1
280
     0
281
     0
  0
CLASS
  1
ACDBSECTIONVIEWSTYLE
  2
AcDbSectionViewStyle
  3
ObjectDBX Classes
 90
     1025
 91
        1
280
     0
281
     0
  0
CLASS
  1
ACDBDETAILVIEWSTYLE
  2
AcDbDetailViewStyle
  3
ObjectDBX Classes
 90
     1025
 91
        1
280
     0
281
     0
  0
CLASS
  1
DICTIONARYVAR
  2
AcDbDictionaryVar
  3
ObjectDBX Classes
 90
        0
 91
        5
280
     0
281
     0
  0
CLASS
  1
CELLSTYLEMAP
  2
AcDbCellStyleMap
  3
ObjectDBX Classes
 90
     1152
 91
        1
280
     0
281
     0
  0
ENDSEC
  0
SECTION
  2
TABLES
  0
TABLE
  2
VPORT
  5
8
330
0
100
AcDbSymbolTable
 70
     1
  0
VPORT
  5
57
330
8
100
AcDbSymbolTableRecord
100
AcDbViewportTableRecord
  2
*Active
 70
     0
 10
0.0
 20
0.0
 11
1.0
 21
1.0
 12
0.0
 22
0.0
 13
0.0
 23
0.0
 14
1.0
 24
1.0
 15
0.0
 25
0.0
 16
0.0
 26
0.0
 36
1.0
 17
1.5
 27
-1.0
 37
0.0
 40
2.04
 41
1.5
 42
50.0
 43
0.0
 44
0.0
 50
0.0
 51
0.0
 71
     0
 72
   100
 73
     1
 74
     1
 75
     0
 76
     0
 77
     0
 78
     0
281
     0
 65
     1
110
0.0
120
0.0
130
0.0
111
1.0
121
0.0
131
0.0
112
0.0
122
1.0
132
0.0
 79
     0
146
0.0
 60
     3
 61
     5
292
     1
282
     1
141
0.0
142
0.0
 63
   250
421
  3355443
  0
ENDTAB
  0
TABLE
  2
LTYPE
  5
5
330
0
100
AcDbSymbolTable
 70
     1
  0
LTYPE
  5
5B
330
5
100
AcDbSymbolTableRecord
100
AcDbLinetypeTableRecord
  2
ByBlock
 70
     0
  3

 72
    65
 73
     0
 40
0.0
  0
LTYPE
  5
5C
330
5
100
AcDbSymbolTableRecord
100
AcDbLinetypeTableRecord
  2
ByLayer
 70
     0
  3

 72
    65
 73
     0
 40
0.0
  0
LTYPE
  5
5D
330
5
100
AcDbSymbolTableRecord
100
AcDbLinetypeTableRecord
  2
Continuous
 70
     0
  3
Solid line
 72
    65
 73
     0
 40
0.0
  0
ENDTAB
  0
TABLE
  2
LAYER
  5
2
330
0
100
AcDbSymbolTable
 70
     2
  0
LAYER
  5
54
330
2
100
AcDbSymbolTableRecord
100
AcDbLayerTableRecord
  2
0
 70
     0
 62
     7
  6
Continuous
370
    -3
390
F
347
21
348
0
  0
LAYER
  5
78
330
2
100
AcDbSymbolTableRecord
100
AcDbLayerTableRecord
  2
Layer 1
 70
     0
 62
     7
  6
Continuous
370
     0
390
F
347
21
348
0
  0
ENDTAB
  0
TABLE
  2
STYLE
  5
3
330
0
100
AcDbSymbolTable
 70
     2
  0
STYLE
  5
55
330
3
100
AcDbSymbolTableRecord
100
AcDbTextStyleTableRecord
  2
Standard
 70
     0
 40
0.0
 41
1.0
 50
0.0
 71
     0
 42
0.2
  3
txt
  4

  0
STYLE
  5
5A
330
3
100
AcDbSymbolTableRecord
100
AcDbTextStyleTableRecord
  2
Annotative
 70
     0
 40
0.0
 41
1.0
 50
0.0
 71
     0
 42
0.2
  3
txt
  4

1001
AcadAnnotative
1000
AnnotativeData
1002
{
1070
     1
1070
     1
1002
}
  0
ENDTAB
  0
TABLE
  2
VIEW
  5
6
330
0
100
AcDbSymbolTable
 70
     0
  0
ENDTAB
  0
TABLE
  2
UCS
  5
7
330
0
100
AcDbSymbolTable
 70
     0
  0
ENDTAB
  0
TABLE
  2
APPID
  5
9
330
0
100
AcDbSymbolTable
 70
     2
  0
APPID
  5
56
330
9
100
AcDbSymbolTableRecord
100
AcDbRegAppTableRecord
  2
ACAD
 70
     0
  0
APPID
  5
5E
330
9
100
AcDbSymbolTableRecord
100
AcDbRegAppTableRecord
  2
AcadAnnotative
 70
     0
  0
ENDTAB
  0
TABLE
  2
DIMSTYLE
  5
A
330
0
100
AcDbSymbolTable
 70
     2
100
AcDbDimStyleTable
 71
     0
  0
DIMSTYLE
105
58
330
A
100
AcDbSymbolTableRecord
100
AcDbDimStyleTableRecord
  2
Standard
 70
     0
340
55
  0
DIMSTYLE
105
59
330
A
100
AcDbSymbolTableRecord
100
AcDbDimStyleTableRecord
  2
Annotative
 70
     0
340
55
1001
AcadAnnotative
1000
AnnotativeData
1002
{
1070
     1
1070
     1
1002
}
  0
ENDTAB
  0
TABLE
  2
BLOCK_RECORD
  5
1
330
0
100
AcDbSymbolTable
 70
     2
  0
BLOCK_RECORD
  5
70
330
1
100
AcDbSymbolTableRecord
100
AcDbBlockTableRecord
  2
*Model_Space
340
73
 70
     0
280
     1
281
     0
  0
BLOCK_RECORD
  5
6C
330
1
100
AcDbSymbolTableRecord
100
AcDbBlockTableRecord
  2
*Paper_Space
340
6F
 70
     0
280
     1
281
     0
  0
BLOCK_RECORD
  5
74
330
1
100
AcDbSymbolTableRecord
100
AcDbBlockTableRecord
  2
*Paper_Space0
340
77
 70
     0
280
     1
281
     0
  0
BLOCK_RECORD
  5
79
330
1
100
AcDbSymbolTableRecord
100
AcDbBlockTableRecord
  2
Block_0
340
0
102
{BLKREFS
331
7A
102
}
 70
     0
280
     1
281
     0
  0
ENDTAB
  0
ENDSEC
  0
SECTION
  2
BLOCKS
  0
BLOCK
  5
71
330
70
100
AcDbEntity
  8
0
100
AcDbBlockBegin
  2
*Model_Space
 70
     0
 10
0.0
 20
0.0
 30
0.0
  3
*Model_Space
  1

  0
ENDBLK
  5
72
330
70
100
AcDbEntity
  8
0
100
AcDbBlockEnd
  0
BLOCK
  5
6D
330
6C
100
AcDbEntity
 67
     1
  8
0
100
AcDbBlockBegin
  2
*Paper_Space
 70
     0
 10
0.0
 20
0.0
 30
0.0
  3
*Paper_Space
  1

  0
ENDBLK
  5
6E
330
6C
100
AcDbEntity
 67
     1
  8
0
100
AcDbBlockEnd
  0
BLOCK
  5
75
330
74
100
AcDbEntity
 67
     1
  8
0
100
AcDbBlockBegin
  2
*Paper_Space0
 70
     0
 10
0.0
 20
0.0
 30
0.0
  3
*Paper_Space0
  1

  0
ENDBLK
  5
76
330
74
100
AcDbEntity
 67
     1
  8
0
100
AcDbBlockEnd
  0
BLOCK
  5
7B
330
79
100
AcDbEntity
  8
0
100
AcDbBlockBegin
  2
Block_0
 70
     0
 10
0.0
 20
0.0
 30
0.0
  3
Block_0
  1

  0
SPLINE
  5
7D
330
79
100
AcDbEntity
  8
Layer 1
100
AcDbSpline
210
0.0
220
0.0
230
1.0
 70
     9
 71
     3
 72
   125
 73
   121
 74
     0
 42
0.0000000001
 43
0.0000000001
 40
0.0
 40
0.0
 40
0.0
 40
0.0
 40
1.0
 40
1.0
 40
1.0
 40
2.0
 40
2.0
 40
2.0
 40
3.0
 40
3.0
 40
3.0
 40
4.0
 40
4.0
 40
4.0
 40
5.0
 40
5.0
 40
5.0
 40
6.0
 40
6.0
 40
6.0
 40
7.0
 40
7.0
 40
7.0
 40
8.0
 40
8.0
 40
8.0
 40
9.0
 40
9.0
 40
9.0
 40
10.0
 40
10.0
 40
10.0
 40
11.0
 40
11.0
 40
11.0
 40
12.0
 40
12.0
 40
12.0
 40
13.0
 40
13.0
 40
13.0
 40
14.0
 40
14.0
 40
14.0
 40
15.0
 40
15.0
 40
15.0
 40
16.0
 40
16.0
 40
16.0
 40
17.0
 40
17.0
 40
17.0
 40
18.0
 40
18.0
 40
18.0
 40
19.0
 40
19.0
 40
19.0
 40
20.0
 40
20.0
 40
20.0
 40
21.0
 40
21.0
 40
21.0
 40
22.0
 40
22.0
 40
22.0
 40
23.0
 40
23.0
 40
23.0
 40
24.0
 40
24.0
 40
24.0
 40
25.0
 40
25.0
 40
25.0
 40
26.0
 40
26.0
 40
26.0
 40
27.0
 40
27.0
 40
27.0
 40
28.0
 40
28.0
 40
28.0
 40
29.0
 40
29.0
 40
29.0
 40
30.0
 40
30.0
 40
30.0
 40
31.0
 40
31.0
 40
31.0
 40
32.0
 40
32.0
 40
32.0
 40
33.0
 40
33.0
 40
33.0
 40
34.0
 40
34.0
 40
34.0
 40
35.0
 40
35.0
 40
35.0
 40
36.0
 40
36.0
 40
36.0
 40
37.0
 40
37.0
 40
37.0
 40
38.0
 40
38.0
 40
38.0
 40
39.0
 40
39.0
 40
39.0
 40
40.0
 40
40.0
 40
40.0
 40
40.0
 10
1.274481879340277
 20
-0.5493299696180556
 30
0.0
 10
1.274481879340277
 20
-0.5504150390625
 30
0.0
 10
1.274129231770833
 20
-0.5513916015625
 30
0.0
 10
1.273423936631944
 20
-0.5522596571180556
 30
0.0
 10
1.272718641493055
 20
-0.5531277126736111
 30
0.0
 10
1.271552191840277
 20
-0.5538330078125
 30
0.0
 10
1.26992458767361
 20
-0.5543755425347223
 30
0.0
 10
1.268296983506944
 20
-0.5549180772569445
 30
0.0
 10
1.266126844618055
 20
-0.5553521050347223
 30
0.0
 10
1.263414171006944
 20
-0.5556776258680555
 30
0.0
 10
1.260701497395833
 20
-0.5560031467013889
 30
0.0
 10
1.257283528645833
 20
-0.5561659071180555
 30
0.0
 10
1.253160264756944
 20
-0.5561659071180555
 30
0.0
 10
1.24892849392361
 20
-0.5561659071180555
 30
0.0
 10
1.245429144965277
 20
-0.5560031467013889
 30
0.0
 10
1.242662217881944
 20
-0.5556776258680555
 30
0.0
 10
1.23989529079861
 20
-0.5553521050347223
 30
0.0
 10
1.237725151909722
 20
-0.5549180772569445
 30
0.0
 10
1.236151801215277
 20
-0.5543755425347223
 30
0.0
 10
1.234578450520833
 20
-0.5538330078125
 30
0.0
 10
1.233439127604166
 20
-0.5531277126736111
 30
0.0
 10
1.232733832465277
 20
-0.5522596571180556
 30
0.0
 10
1.232028537326388
 20
-0.5513916015625
 30
0.0
 10
1.231675889756944
 20
-0.5504150390625
 30
0.0
 10
1.231675889756944
 20
-0.5493299696180556
 30
0.0
 10
1.231675889756944
 20
-0.5493299696180556
 30
0.0
 10
1.231675889756944
 20
-0.4642062717013889
 30
0.0
 10
1.231675889756944
 20
-0.4642062717013889
 30
0.0
 10
1.231675889756944
 20
-0.4642062717013889
 30
0.0
 10
1.152899848090277
 20
-0.4642062717013889
 30
0.0
 10
1.152899848090277
 20
-0.4642062717013889
 30
0.0
 10
1.152899848090277
 20
-0.4642062717013889
 30
0.0
 10
1.152899848090277
 20
-0.5493299696180556
 30
0.0
 10
1.152899848090277
 20
-0.5493299696180556
 30
0.0
 10
1.152899848090277
 20
-0.5504150390625
 30
0.0
 10
1.152574327256944
 20
-0.5513916015625
 30
0.0
 10
1.151923285590277
 20
-0.5522596571180556
 30
0.0
 10
1.15127224392361
 20
-0.5531277126736111
 30
0.0
 10
1.150132921006944
 20
-0.5538330078125
 30
0.0
 10
1.148505316840277
 20
-0.5543755425347223
 30
0.0
 10
1.14687771267361
 20
-0.5549180772569445
 30
0.0
 10
1.144707573784722
 20
-0.5553521050347223
 30
0.0
 10
1.14199490017361
 20
-0.5556776258680555
 30
0.0
 10
1.1392822265625
 20
-0.5560031467013889
 30
0.0
 10
1.135810004340277
 20
-0.5561659071180555
 30
0.0
 10
1.131578233506944
 20
-0.5561659071180555
 30
0.0
 10
1.127454969618055
 20
-0.5561659071180555
 30
0.0
 10
1.124009874131944
 20
-0.5560031467013889
 30
0.0
 10
1.12124294704861
 20
-0.5556776258680555
 30
0.0
 10
1.118476019965277
 20
-0.5553521050347223
 30
0.0
 10
1.116278754340277
 20
-0.5549180772569445
 30
0.0
 10
1.11465115017361
 20
-0.5543755425347223
 30
0.0
 10
1.113023546006944
 20
-0.5538330078125
 30
0.0
 10
1.111857096354166
 20
-0.5531277126736111
 30
0.0
 10
1.111151801215277
 20
-0.5522596571180556
 30
0.0
 10
1.110446506076388
 20
-0.5513916015625
 30
0.0
 10
1.110093858506944
 20
-0.5504150390625
 30
0.0
 10
1.110093858506944
 20
-0.5493299696180556
 30
0.0
 10
1.110093858506944
 20
-0.5493299696180556
 30
0.0
 10
1.110093858506944
 20
-0.3504367404513889
 30
0.0
 10
1.110093858506944
 20
-0.3504367404513889
 30
0.0
 10
1.110093858506944
 20
-0.3493516710069444
 30
0.0
 10
1.110446506076388
 20
-0.3483751085069444
 30
0.0
 10
1.111151801215277
 20
-0.3475070529513889
 30
0.0
 10
1.111857096354166
 20
-0.3466389973958333
 30
0.0
 10
1.113023546006944
 20
-0.3459337022569444
 30
0.0
 10
1.11465115017361
 20
-0.3453911675347222
 30
0.0
 10
1.116278754340277
 20
-0.3448486328125
 30
0.0
 10
1.118476019965277
 20
-0.3444146050347222
 30
0.0
 10
1.12124294704861
 20
-0.3440890842013889
 30
0.0
 10
1.124009874131944
 20
-0.3437635633680555
 30
0.0
 10
1.127454969618055
 20
-0.3436008029513889
 30
0.0
 10
1.131578233506944
 20
-0.3436008029513889
 30
0.0
 10
1.135810004340277
 20
-0.3436008029513889
 30
0.0
 10
1.1392822265625
 20
-0.3437635633680555
 30
0.0
 10
1.14199490017361
 20
-0.3440890842013889
 30
0.0
 10
1.144707573784722
 20
-0.3444146050347222
 30
0.0
 10
1.14687771267361
 20
-0.3448486328125
 30
0.0
 10
1.148505316840277
 20
-0.3453911675347222
 30
0.0
 10
1.150132921006944
 20
-0.3459337022569444
 30
0.0
 10
1.15127224392361
 20
-0.3466389973958333
 30
0.0
 10
1.151923285590277
 20
-0.3475070529513889
 30
0.0
 10
1.152574327256944
 20
-0.3483751085069444
 30
0.0
 10
1.152899848090277
 20
-0.3493516710069444
 30
0.0
 10
1.152899848090277
 20
-0.3504367404513889
 30
0.0
 10
1.152899848090277
 20
-0.3504367404513889
 30
0.0
 10
1.152899848090277
 20
-0.4277479383680556
 30
0.0
 10
1.152899848090277
 20
-0.4277479383680556
 30
0.0
 10
1.152899848090277
 20
-0.4277479383680556
 30
0.0
 10
1.231675889756944
 20
-0.4277479383680556
 30
0.0
 10
1.231675889756944
 20
-0.4277479383680556
 30
0.0
 10
1.231675889756944
 20
-0.4277479383680556
 30
0.0
 10
1.231675889756944
 20
-0.3504367404513889
 30
0.0
 10
1.231675889756944
 20
-0.3504367404513889
 30
0.0
 10
1.231675889756944
 20
-0.3493516710069444
 30
0.0
 10
1.232028537326388
 20
-0.3483751085069444
 30
0.0
 10
1.232733832465277
 20
-0.3475070529513889
 30
0.0
 10
1.233439127604166
 20
-0.3466389973958333
 30
0.0
 10
1.234578450520833
 20
-0.3459337022569444
 30
0.0
 10
1.236151801215277
 20
-0.3453911675347222
 30
0.0
 10
1.237725151909722
 20
-0.3448486328125
 30
0.0
 10
1.23989529079861
 20
-0.3444146050347222
 30
0.0
 10
1.242662217881944
 20
-0.3440890842013889
 30
0.0
 10
1.245429144965277
 20
-0.3437635633680555
 30
0.0
 10
1.24892849392361
 20
-0.3436008029513889
 30
0.0
 10
1.253160264756944
 20
-0.3436008029513889
 30
0.0
 10
1.257283528645833
 20
-0.3436008029513889
 30
0.0
 10
1.260701497395833
 20
-0.3437635633680555
 30
0.0
 10
1.263414171006944
 20
-0.3440890842013889
 30
0.0
 10
1.266126844618055
 20
-0.3444146050347222
 30
0.0
 10
1.268296983506944
 20
-0.3448486328125
 30
0.0
 10
1.26992458767361
 20
-0.3453911675347222
 30
0.0
 10
1.271552191840277
 20
-0.3459337022569444
 30
0.0
 10
1.272718641493055
 20
-0.3466389973958333
 30
0.0
 10
1.273423936631944
 20
-0.3475070529513889
 30
0.0
 10
1.274129231770833
 20
-0.3483751085069444
 30
0.0
 10
1.274481879340277
 20
-0.3493516710069444
 30
0.0
 10
1.274481879340277
 20
-0.3504367404513889
 30
0.0
 10
1.274481879340277
 20
-0.3504367404513889
 30
0.0
 10
1.274481879340277
 20
-0.5493299696180556
 30
0.0
 10
1.274481879340277
 20
-0.5493299696180556
 30
0.0
  0
HATCH
  5
7E
330
79
100
AcDbEntity
  8
Layer 1
 62
   250
420
  2301728
440
 33554687
100
AcDbHatch
 10
0.0
 20
0.0
 30
0.0
210
0.0
220
0.0
230
1.0
  2
SOLID
 70
     1
 71
     1
 91
        1
 92
        1
 93
        1
 72
     4
 94
        3
 73
     0
 74
     0
 95
      125
 96
      121
 40
0.0
 40
0.0
 40
0.0
 40
0.0
 40
1.0
 40
1.0
 40
1.0
 40
2.0
 40
2.0
 40
2.0
 40
3.0
 40
3.0
 40
3.0
 40
4.0
 40
4.0
 40
4.0
 40
5.0
 40
5.0
 40
5.0
 40
6.0
 40
6.0
 40
6.0
 40
7.0
 40
7.0
 40
7.0
 40
8.0
 40
8.0
 40
8.0
 40
9.0
 40
9.0
 40
9.0
 40
10.0
 40
10.0
 40
10.0
 40
11.0
 40
11.0
 40
11.0
 40
12.0
 40
12.0
 40
12.0
 40
13.0
 40
13.0
 40
13.0
 40
14.0
 40
14.0
 40
14.0
 40
15.0
 40
15.0
 40
15.0
 40
16.0
 40
16.0
 40
16.0
 40
17.0
 40
17.0
 40
17.0
 40
18.0
 40
18.0
 40
18.0
 40
19.0
 40
19.0
 40
19.0
 40
20.0
 40
20.0
 40
20.0
 40
21.0
 40
21.0
 40
21.0
 40
22.0
 40
22.0
 40
22.0
 40
23.0
 40
23.0
 40
23.0
 40
24.0
 40
24.0
 40
24.0
 40
25.0
 40
25.0
 40
25.0
 40
26.0
 40
26.0
 40
26.0
 40
27.0
 40
27.0
 40
27.0
 40
28.0
 40
28.0
 40
28.0
 40
29.0
 40
29.0
 40
29.0
 40
30.0
 40
30.0
 40
30.0
 40
31.0
 40
31.0
 40
31.0
 40
32.0
 40
32.0
 40
32.0
 40
33.0
 40
33.0
 40
33.0
 40
34.0
 40
34.0
 40
34.0
 40
35.0
 40
35.0
 40
35.0
 40
36.0
 40
36.0
 40
36.0
 40
37.0
 40
37.0
 40
37.0
 40
38.0
 40
38.0
 40
38.0
 40
39.0
 40
39.0
 40
39.0
 40
40.0
 40
40.0
 40
40.0
 40
40.0
 10
1.274481879340277
 20
-0.5493299696180556
 10
1.274481879340277
 20
-0.5504150390625
 10
1.274129231770833
 20
-0.5513916015625
 10
1.273423936631944
 20
-0.5522596571180556
 10
1.272718641493055
 20
-0.5531277126736111
 10
1.271552191840277
 20
-0.5538330078125
 10
1.26992458767361
 20
-0.5543755425347223
 10
1.268296983506944
 20
-0.5549180772569445
 10
1.266126844618055
 20
-0.5553521050347223
 10
1.263414171006944
 20
-0.5556776258680555
 10
1.260701497395833
 20
-0.5560031467013889
 10
1.257283528645833
 20
-0.5561659071180555
 10
1.253160264756944
 20
-0.5561659071180555
 10
1.24892849392361
 20
-0.5561659071180555
 10
1.245429144965277
 20
-0.5560031467013889
 10
1.242662217881944
 20
-0.5556776258680555
 10
1.23989529079861
 20
-0.5553521050347223
 10
1.237725151909722
 20
-0.5549180772569445
 10
1.236151801215277
 20
-0.5543755425347223
 10
1.234578450520833
 20
-0.5538330078125
 10
1.233439127604166
 20
-0.5531277126736111
 10
1.232733832465277
 20
-0.5522596571180556
 10
1.232028537326388
 20
-0.5513916015625
 10
1.231675889756944
 20
-0.5504150390625
 10
1.231675889756944
 20
-0.5493299696180556
 10
1.231675889756944
 20
-0.5493299696180556
 10
1.231675889756944
 20
-0.4642062717013889
 10
1.231675889756944
 20
-0.4642062717013889
 10
1.231675889756944
 20
-0.4642062717013889
 10
1.152899848090277
 20
-0.4642062717013889
 10
1.152899848090277
 20
-0.4642062717013889
 10
1.152899848090277
 20
-0.4642062717013889
 10
1.152899848090277
 20
-0.5493299696180556
 10
1.152899848090277
 20
-0.5493299696180556
 10
1.152899848090277
 20
-0.5504150390625
 10
1.152574327256944
 20
-0.5513916015625
 10
1.151923285590277
 20
-0.5522596571180556
 10
1.15127224392361
 20
-0.5531277126736111
 10
1.150132921006944
 20
-0.5538330078125
 10
1.148505316840277
 20
-0.5543755425347223
 10
1.14687771267361
 20
-0.5549180772569445
 10
1.144707573784722
 20
-0.5553521050347223
 10
1.14199490017361
 20
-0.5556776258680555
 10
1.1392822265625
 20
-0.5560031467013889
 10
1.135810004340277
 20
-0.5561659071180555
 10
1.131578233506944
 20
-0.5561659071180555
 10
1.127454969618055
 20
-0.5561659071180555
 10
1.124009874131944
 20
-0.5560031467013889
 10
1.12124294704861
 20
-0.5556776258680555
 10
1.118476019965277
 20
-0.5553521050347223
 10
1.116278754340277
 20
-0.5549180772569445
 10
1.11465115017361
 20
-0.5543755425347223
 10
1.113023546006944
 20
-0.5538330078125
 10
1.111857096354166
 20
-0.5531277126736111
 10
1.111151801215277
 20
-0.5522596571180556
 10
1.110446506076388
 20
-0.5513916015625
 10
1.110093858506944
 20
-0.5504150390625
 10
1.110093858506944
 20
-0.5493299696180556
 10
1.110093858506944
 20
-0.5493299696180556
 10
1.110093858506944
 20
-0.3504367404513889
 10
1.110093858506944
 20
-0.3504367404513889
 10
1.110093858506944
 20
-0.3493516710069444
 10
1.110446506076388
 20
-0.3483751085069444
 10
1.111151801215277
 20
-0.3475070529513889
 10
1.111857096354166
 20
-0.3466389973958333
 10
1.113023546006944
 20
-0.3459337022569444
 10
1.11465115017361
 20
-0.3453911675347222
 10
1.116278754340277
 20
-0.3448486328125
 10
1.118476019965277
 20
-0.3444146050347222
 10
1.12124294704861
 20
-0.3440890842013889
 10
1.124009874131944
 20
-0.3437635633680555
 10
1.127454969618055
 20
-0.3436008029513889
 10
1.131578233506944
 20
-0.3436008029513889
 10
1.135810004340277
 20
-0.3436008029513889
 10
1.1392822265625
 20
-0.3437635633680555
 10
1.14199490017361
 20
-0.3440890842013889
 10
1.144707573784722
 20
-0.3444146050347222
 10
1.14687771267361
 20
-0.3448486328125
 10
1.148505316840277
 20
-0.3453911675347222
 10
1.150132921006944
 20
-0.3459337022569444
 10
1.15127224392361
 20
-0.3466389973958333
 10
1.151923285590277
 20
-0.3475070529513889
 10
1.152574327256944
 20
-0.3483751085069444
 10
1.152899848090277
 20
-0.3493516710069444
 10
1.152899848090277
 20
-0.3504367404513889
 10
1.152899848090277
 20
-0.3504367404513889
 10
1.152899848090277
 20
-0.4277479383680556
 10
1.152899848090277
 20
-0.4277479383680556
 10
1.152899848090277
 20
-0.4277479383680556
 10
1.231675889756944
 20
-0.4277479383680556
 10
1.231675889756944
 20
-0.4277479383680556
 10
1.231675889756944
 20
-0.4277479383680556
 10
1.231675889756944
 20
-0.3504367404513889
 10
1.231675889756944
 20
-0.3504367404513889
 10
1.231675889756944
 20
-0.3493516710069444
 10
1.232028537326388
 20
-0.3483751085069444
 10
1.232733832465277
 20
-0.3475070529513889
 10
1.233439127604166
 20
-0.3466389973958333
 10
1.234578450520833
 20
-0.3459337022569444
 10
1.236151801215277
 20
-0.3453911675347222
 10
1.237725151909722
 20
-0.3448486328125
 10
1.23989529079861
 20
-0.3444146050347222
 10
1.242662217881944
 20
-0.3440890842013889
 10
1.245429144965277
 20
-0.3437635633680555
 10
1.24892849392361
 20
-0.3436008029513889
 10
1.253160264756944
 20
-0.3436008029513889
 10
1.257283528645833
 20
-0.3436008029513889
 10
1.260701497395833
 20
-0.3437635633680555
 10
1.263414171006944
 20
-0.3440890842013889
 10
1.266126844618055
 20
-0.3444146050347222
 10
1.268296983506944
 20
-0.3448486328125
 10
1.26992458767361
 20
-0.3453911675347222
 10
1.271552191840277
 20
-0.3459337022569444
 10
1.272718641493055
 20
-0.3466389973958333
 10
1.273423936631944
 20
-0.3475070529513889
 10
1.274129231770833
 20
-0.3483751085069444
 10
1.274481879340277
 20
-0.3493516710069444
 10
1.274481879340277
 20
-0.3504367404513889
 10
1.274481879340277
 20
-0.3504367404513889
 10
1.274481879340277
 20
-0.5493299696180556
 10
1.274481879340277
 20
-0.5493299696180556
 97
        0
 97
        1
330
7D
 75
     2
 76
     1
 98
        1
 10
0.0
 20
0.0
450
        0
451
        0
460
0.0
461
0.0
452
        0
462
0.0
453
        0
470

  0
SPLINE
  5
7F
330
79
100
AcDbEntity
  8
Layer 1
100
AcDbSpline
210
0.0
220
0.0
230
1.0
 70
    11
 71
     3
 72
   116
 73
   112
 74
     0
 42
0.0000000001
 43
0.0000000001
 40
0.0
 40
0.0
 40
0.0
 40
0.0
 40
1.0
 40
1.0
 40
1.0
 40
2.0
 40
2.0
 40
2.0
 40
3.0
 40
3.0
 40
3.0
 40
4.0
 40
4.0
 40
4.0
 40
5.0
 40
5.0
 40
5.0
 40
6.0
 40
6.0
 40
6.0
 40
7.0
 40
7.0
 40
7.0
 40
8.0
 40
8.0
 40
8.0
 40
9.0
 40
9.0
 40
9.0
 40
10.0
 40
10.0
 40
10.0
 40
11.0
 40
11.0
 40
11.0
 40
12.0
 40
12.0
 40
12.0
 40
13.0
 40
13.0
 40
13.0
 40
14.0
 40
14.0
 40
14.0
 40
15.0
 40
15.0
 40
15.0
 40
16.0
 40
16.0
 40
16.0
 40
17.0
 40
17.0
 40
17.0
 40
18.0
 40
18.0
 40
18.0
 40
19.0
 40
19.0
 40
19.0
 40
20.0
 40
20.0
 40
20.0
 40
21.0
 40
21.0
 40
21.0
 40
22.0
 40
22.0
 40
22.0
 40
23.0
 40
23.0
 40
23.0
 40
24.0
 40
24.0
 40
24.0
 40
25.0
 40
25.0
 40
25.0
 40
26.0
 40
26.0
 40
26.0
 40
27.0
 40
27.0
 40
27.0
 40
28.0
 40
28.0
 40
28.0
 40
29.0
 40
29.0
 40
29.0
 40
30.0
 40
30.0
 40
30.0
 40
31.0
 40
31.0
 40
31.0
 40
32.0
 40
32.0
 40
32.0
 40
33.0
 40
33.0
 40
33.0
 40
34.0
 40
34.0
 40
34.0
 40
35.0
 40
35.0
 40
35.0
 40
36.0
 40
36.0
 40
36.0
 40
37.0
 40
37.0
 40
37.0
 40
37.0
 10
1.44521755642361
 20
-0.5384250217013889
 30
0.0
 10
1.44521755642361
 20
-0.5415717230902778
 30
0.0
 10
1.445081922743055
 20
-0.5442030164930556
 30
0.0
 10
1.444810655381944
 20
-0.5463189019097223
 30
0.0
 10
1.444539388020833
 20
-0.5484347873263889
 30
0.0
 10
1.444132486979166
 20
-0.5501437717013889
 30
0.0
 10
1.443589952256944
 20
-0.5514458550347223
 30
0.0
 10
1.443047417534722
 20
-0.5527479383680556
 30
0.0
 10
1.442369249131944
 20
-0.5536973741319445
 30
0.0
 10
1.44155544704861
 20
-0.5542941623263889
 30
0.0
 10
1.440741644965277
 20
-0.5548909505208333
 30
0.0
 10
1.43984646267361
 20
-0.5551893446180556
 30
0.0
 10
1.43886990017361
 20
-0.5551893446180556
 30
0.0
 10
1.43886990017361
 20
-0.5551893446180556
 30
0.0
 10
1.333075629340277
 20
-0.5551893446180556
 30
0.0
 10
1.333075629340277
 20
-0.5551893446180556
 30
0.0
 10
1.32949490017361
 20
-0.5551893446180556
 30
0.0
 10
1.326483832465277
 20
-0.5541314019097223
 30
0.0
 10
1.324042426215277
 20
-0.5520155164930556
 30
0.0
 10
1.321601019965277
 20
-0.5498996310763889
 30
0.0
 10
1.320380316840277
 20
-0.5464545355902778
 30
0.0
 10
1.320380316840277
 20
-0.5416802300347223
 30
0.0
 10
1.320380316840277
 20
-0.5416802300347223
 30
0.0
 10
1.320380316840277
 20
-0.3580864800347222
 30
0.0
 10
1.320380316840277
 20
-0.3580864800347222
 30
0.0
 10
1.320380316840277
 20
-0.3533121744791666
 30
0.0
 10
1.321601019965277
 20
-0.3498670789930555
 30
0.0
 10
1.324042426215277
 20
-0.3477511935763889
 30
0.0
 10
1.326483832465277
 20
-0.3456353081597222
 30
0.0
 10
1.32949490017361
 20
-0.3445773654513889
 30
0.0
 10
1.333075629340277
 20
-0.3445773654513889
 30
0.0
 10
1.333075629340277
 20
-0.3445773654513889
 30
0.0
 10
1.438218858506944
 20
-0.3445773654513889
 30
0.0
 10
1.438218858506944
 20
-0.3445773654513889
 30
0.0
 10
1.439195421006944
 20
-0.3445773654513889
 30
0.0
 10
1.4400634765625
 20
-0.3448486328125
 30
0.0
 10
1.44082302517361
 20
-0.3453911675347222
 30
0.0
 10
1.441582573784722
 20
-0.3459337022569444
 30
0.0
 10
1.442233615451388
 20
-0.3468831380208333
 30
0.0
 10
1.44277615017361
 20
-0.3482394748263889
 30
0.0
 10
1.443318684895833
 20
-0.3495958116319444
 30
0.0
 10
1.4437255859375
 20
-0.3513319227430555
 30
0.0
 10
1.44399685329861
 20
-0.3534478081597222
 30
0.0
 10
1.444268120659722
 20
-0.3555636935763889
 30
0.0
 10
1.444403754340277
 20
-0.3582492404513889
 30
0.0
 10
1.444403754340277
 20
-0.3615044487847222
 30
0.0
 10
1.444403754340277
 20
-0.3645426432291666
 30
0.0
 10
1.444268120659722
 20
-0.3671196831597222
 30
0.0
 10
1.44399685329861
 20
-0.3692355685763889
 30
0.0
 10
1.4437255859375
 20
-0.3713514539930555
 30
0.0
 10
1.443318684895833
 20
-0.3730604383680555
 30
0.0
 10
1.44277615017361
 20
-0.3743625217013889
 30
0.0
 10
1.442233615451388
 20
-0.3756646050347222
 30
0.0
 10
1.441582573784722
 20
-0.3766140407986111
 30
0.0
 10
1.44082302517361
 20
-0.3772108289930555
 30
0.0
 10
1.4400634765625
 20
-0.3778076171875
 30
0.0
 10
1.439195421006944
 20
-0.3781060112847222
 30
0.0
 10
1.438218858506944
 20
-0.3781060112847222
 30
0.0
 10
1.438218858506944
 20
-0.3781060112847222
 30
0.0
 10
1.363023546006944
 20
-0.3781060112847222
 30
0.0
 10
1.363023546006944
 20
-0.3781060112847222
 30
0.0
 10
1.363023546006944
 20
-0.3781060112847222
 30
0.0
 10
1.363023546006944
 20
-0.4295383029513889
 30
0.0
 10
1.363023546006944
 20
-0.4295383029513889
 30
0.0
 10
1.363023546006944
 20
-0.4295383029513889
 30
0.0
 10
1.42666286892361
 20
-0.4295383029513889
 30
0.0
 10
1.42666286892361
 20
-0.4295383029513889
 30
0.0
 10
1.42763943142361
 20
-0.4295383029513889
 30
0.0
 10
1.428534613715277
 20
-0.4298366970486111
 30
0.0
 10
1.42934841579861
 20
-0.4304334852430556
 30
0.0
 10
1.430162217881944
 20
-0.4310302734375
 30
0.0
 10
1.430840386284722
 20
-0.4319525824652778
 30
0.0
 10
1.431382921006944
 20
-0.4332004123263889
 30
0.0
 10
1.431925455729166
 20
-0.4344482421875
 30
0.0
 10
1.432332356770833
 20
-0.4361300998263889
 30
0.0
 10
1.432603624131944
 20
-0.4382459852430556
 30
0.0
 10
1.432874891493055
 20
-0.4403618706597223
 30
0.0
 10
1.43301052517361
 20
-0.4429389105902778
 30
0.0
 10
1.43301052517361
 20
-0.4459771050347223
 30
0.0
 10
1.43301052517361
 20
-0.4491238064236111
 30
0.0
 10
1.432874891493055
 20
-0.4517279730902778
 30
0.0
 10
1.432603624131944
 20
-0.4537896050347223
 30
0.0
 10
1.432332356770833
 20
-0.4558512369791666
 30
0.0
 10
1.431925455729166
 20
-0.4575059678819445
 30
0.0
 10
1.431382921006944
 20
-0.4587537977430556
 30
0.0
 10
1.430840386284722
 20
-0.4600016276041666
 30
0.0
 10
1.430162217881944
 20
-0.4608968098958333
 30
0.0
 10
1.42934841579861
 20
-0.4614393446180556
 30
0.0
 10
1.428534613715277
 20
-0.4619818793402778
 30
0.0
 10
1.42763943142361
 20
-0.4622531467013889
 30
0.0
 10
1.42666286892361
 20
-0.4622531467013889
 30
0.0
 10
1.42666286892361
 20
-0.4622531467013889
 30
0.0
 10
1.363023546006944
 20
-0.4622531467013889
 30
0.0
 10
1.363023546006944
 20
-0.4622531467013889
 30
0.0
 10
1.363023546006944
 20
-0.4622531467013889
 30
0.0
 10
1.363023546006944
 20
-0.5216606987847223
 30
0.0
 10
1.363023546006944
 20
-0.5216606987847223
 30
0.0
 10
1.363023546006944
 20
-0.5216606987847223
 30
0.0
 10
1.43886990017361
 20
-0.5216606987847223
 30
0.0
 10
1.43886990017361
 20
-0.5216606987847223
 30
0.0
 10
1.43984646267361
 20
-0.5216606987847223
 30
0.0
 10
1.440741644965277
 20
-0.5219590928819445
 30
0.0
 10
1.44155544704861
 20
-0.5225558810763889
 30
0.0
 10
1.442369249131944
 20
-0.5231526692708333
 30
0.0
 10
1.443047417534722
 20
-0.5241021050347223
 30
0.0
 10
1.443589952256944
 20
-0.5254041883680556
 30
0.0
 10
1.444132486979166
 20
-0.5267062717013889
 30
0.0
 10
1.444539388020833
 20
-0.5284152560763889
 30
0.0
 10
1.444810655381944
 20
-0.5305311414930556
 30
0.0
 10
1.445081922743055
 20
-0.5326470269097223
 30
0.0
 10
1.44521755642361
 20
-0.5352783203125
 30
0.0
 10
1.44521755642361
 20
-0.5384250217013889
 30
0.0
  0
HATCH
  5
80
330
79
100
AcDbEntity
  8
Layer 1
 62
   250
420
  2301728
440
 33554687
100
AcDbHatch
 10
0.0
 20
0.0
 30
0.0
210
0.0
220
0.0
230
1.0
  2
SOLID
 70
     1
 71
     1
 91
        1
 92
        1
 93
        1
 72
     4
 94
        3
 73
     0
 74
     0
 95
      116
 96
      112
 40
0.0
 40
0.0
 40
0.0
 40
0.0
 40
1.0
 40
1.0
 40
1.0
 40
2.0
 40
2.0
 40
2.0
 40
3.0
 40
3.0
 40
3.0
 40
4.0
 40
4.0
 40
4.0
 40
5.0
 40
5.0
 40
5.0
 40
6.0
 40
6.0
 40
6.0
 40
7.0
 40
7.0
 40
7.0
 40
8.0
 40
8.0
 40
8.0
 40
9.0
 40
9.0
 40
9.0
 40
10.0
 40
10.0
 40
10.0
 40
11.0
 40
11.0
 40
11.0
 40
12.0
 40
12.0
 40
12.0
 40
13.0
 40
13.0
 40
13.0
 40
14.0
 40
14.0
 40
14.0
 40
15.0
 40
15.0
 40
15.0
 40
16.0
 40
16.0
 40
16.0
 40
17.0
 40
17.0
 40
17.0
 40
18.0
 40
18.0
 40
18.0
 40
19.0
 40
19.0
 40
19.0
 40
20.0
 40
20.0
 40
20.0
 40
21.0
 40
21.0
 40
21.0
 40
22.0
 40
22.0
 40
22.0
 40
23.0
 40
23.0
 40
23.0
 40
24.0
 40
24.0
 40
24.0
 40
25.0
 40
25.0
 40
25.0
 40
26.0
 40
26.0
 40
26.0
 40
27.0
 40
27.0
 40
27.0
 40
28.0
 40
28.0
 40
28.0
 40
29.0
 40
29.0
 40
29.0
 40
30.0
 40
30.0
 40
30.0
 40
31.0
 40
31.0
 40
31.0
 40
32.0
 40
32.0
 40
32.0
 40
33.0
 40
33.0
 40
33.0
 40
34.0
 40
34.0
 40
34.0
 40
35.0
 40
35.0
 40
35.0
 40
36.0
 40
36.0
 40
36.0
 40
37.0
 40
37.0
 40
37.0
 40
37.0
 10
1.44521755642361
 20
-0.5384250217013889
 10
1.44521755642361
 20
-0.5415717230902778
 10
1.445081922743055
 20
-0.5442030164930556
 10
1.444810655381944
 20
-0.5463189019097223
 10
1.444539388020833
 20
-0.5484347873263889
 10
1.444132486979166
 20
-0.5501437717013889
 10
1.443589952256944
 20
-0.5514458550347223
 10
1.443047417534722
 20
-0.5527479383680556
 10
1.442369249131944
 20
-0.5536973741319445
 10
1.44155544704861
 20
-0.5542941623263889
 10
1.440741644965277
 20
-0.5548909505208333
 10
1.43984646267361
 20
-0.5551893446180556
 10
1.43886990017361
 20
-0.5551893446180556
 10
1.43886990017361
 20
-0.5551893446180556
 10
1.333075629340277
 20
-0.5551893446180556
 10
1.333075629340277
 20
-0.5551893446180556
 10
1.32949490017361
 20
-0.5551893446180556
 10
1.326483832465277
 20
-0.5541314019097223
 10
1.324042426215277
 20
-0.5520155164930556
 10
1.321601019965277
 20
-0.5498996310763889
 10
1.320380316840277
 20
-0.5464545355902778
 10
1.320380316840277
 20
-0.5416802300347223
 10
1.320380316840277
 20
-0.5416802300347223
 10
1.320380316840277
 20
-0.3580864800347222
 10
1.320380316840277
 20
-0.3580864800347222
 10
1.320380316840277
 20
-0.3533121744791666
 10
1.321601019965277
 20
-0.3498670789930555
 10
1.324042426215277
 20
-0.3477511935763889
 10
1.326483832465277
 20
-0.3456353081597222
 10
1.32949490017361
 20
-0.3445773654513889
 10
1.333075629340277
 20
-0.3445773654513889
 10
1.333075629340277
 20
-0.3445773654513889
 10
1.438218858506944
 20
-0.3445773654513889
 10
1.438218858506944
 20
-0.3445773654513889
 10
1.439195421006944
 20
-0.3445773654513889
 10
1.4400634765625
 20
-0.3448486328125
 10
1.44082302517361
 20
-0.3453911675347222
 10
1.441582573784722
 20
-0.3459337022569444
 10
1.442233615451388
 20
-0.3468831380208333
 10
1.44277615017361
 20
-0.3482394748263889
 10
1.443318684895833
 20
-0.3495958116319444
 10
1.4437255859375
 20
-0.3513319227430555
 10
1.44399685329861
 20
-0.3534478081597222
 10
1.444268120659722
 20
-0.3555636935763889
 10
1.444403754340277
 20
-0.3582492404513889
 10
1.444403754340277
 20
-0.3615044487847222
 10
1.444403754340277
 20
-0.3645426432291666
 10
1.444268120659722
 20
-0.3671196831597222
 10
1.44399685329861
 20
-0.3692355685763889
 10
1.4437255859375
 20
-0.3713514539930555
 10
1.443318684895833
 20
-0.3730604383680555
 10
1.44277615017361
 20
-0.3743625217013889
 10
1.442233615451388
 20
-0.3756646050347222
 10
1.441582573784722
 20
-0.3766140407986111
 10
1.44082302517361
 20
-0.3772108289930555
 10
1.4400634765625
 20
-0.3778076171875
 10
1.439195421006944
 20
-0.3781060112847222
 10
1.438218858506944
 20
-0.3781060112847222
 10
1.438218858506944
 20
-0.3781060112847222
 10
1.363023546006944
 20
-0.3781060112847222
 10
1.363023546006944
 20
-0.3781060112847222
 10
1.363023546006944
 20
-0.3781060112847222
 10
1.363023546006944
 20
-0.4295383029513889
 10
1.363023546006944
 20
-0.4295383029513889
 10
1.363023546006944
 20
-0.4295383029513889
 10
1.42666286892361
 20
-0.4295383029513889
 10
1.42666286892361
 20
-0.4295383029513889
 10
1.42763943142361
 20
-0.4295383029513889
 10
1.428534613715277
 20
-0.4298366970486111
 10
1.42934841579861
 20
-0.4304334852430556
 10
1.430162217881944
 20
-0.4310302734375
 10
1.430840386284722
 20
-0.4319525824652778
 10
1.431382921006944
 20
-0.4332004123263889
 10
1.431925455729166
 20
-0.4344482421875
 10
1.432332356770833
 20
-0.4361300998263889
 10
1.432603624131944
 20
-0.4382459852430556
 10
1.432874891493055
 20
-0.4403618706597223
 10
1.43301052517361
 20
-0.4429389105902778
 10
1.43301052517361
 20
-0.4459771050347223
 10
1.43301052517361
 20
-0.4491238064236111
 10
1.432874891493055
 20
-0.4517279730902778
 10
1.432603624131944
 20
-0.4537896050347223
 10
1.432332356770833
 20
-0.4558512369791666
 10
1.431925455729166
 20
-0.4575059678819445
 10
1.431382921006944
 20
-0.4587537977430556
 10
1.430840386284722
 20
-0.4600016276041666
 10
1.430162217881944
 20
-0.4608968098958333
 10
1.42934841579861
 20
-0.4614393446180556
 10
1.428534613715277
 20
-0.4619818793402778
 10
1.42763943142361
 20
-0.4622531467013889
 10
1.42666286892361
 20
-0.4622531467013889
 10
1.42666286892361
 20
-0.4622531467013889
 10
1.363023546006944
 20
-0.4622531467013889
 10
1.363023546006944
 20
-0.4622531467013889
 10
1.363023546006944
 20
-0.4622531467013889
 10
1.363023546006944
 20
-0.5216606987847223
 10
1.363023546006944
 20
-0.5216606987847223
 10
1.363023546006944
 20
-0.5216606987847223
 10
1.43886990017361
 20
-0.5216606987847223
 10
1.43886990017361
 20
-0.5216606987847223
 10
1.43984646267361
 20
-0.5216606987847223
 10
1.440741644965277
 20
-0.5219590928819445
 10
1.44155544704861
 20
-0.5225558810763889
 10
1.442369249131944
 20
-0.5231526692708333
 10
1.443047417534722
 20
-0.5241021050347223
 10
1.443589952256944
 20
-0.5254041883680556
 10
1.444132486979166
 20
-0.5267062717013889
 10
1.444539388020833
 20
-0.5284152560763889
 10
1.444810655381944
 20
-0.5305311414930556
 10
1.445081922743055
 20
-0.5326470269097223
 10
1.44521755642361
 20
-0.5352783203125
 10
1.44521755642361
 20
-0.5384250217013889
 97
        0
 97
        1
330
7F
 75
     2
 76
     1
 98
        1
 10
0.0
 20
0.0
450
        0
451
        0
460
0.0
461
0.0
452
        0
462
0.0
453
        0
470

  0
SPLINE
  5
81
330
79
100
AcDbEntity
  8
Layer 1
100
AcDbSpline
210
0.0
220
0.0
230
1.0
 70
    11
 71
     3
 72
    71
 73
    67
 74
     0
 42
0.0000000001
 43
0.0000000001
 40
0.0
 40
0.0
 40
0.0
 40
0.0
 40
1.0
 40
1.0
 40
1.0
 40
2.0
 40
2.0
 40
2.0
 40
3.0
 40
3.0
 40
3.0
 40
4.0
 40
4.0
 40
4.0
 40
5.0
 40
5.0
 40
5.0
 40
6.0
 40
6.0
 40
6.0
 40
7.0
 40
7.0
 40
7.0
 40
8.0
 40
8.0
 40
8.0
 40
9.0
 40
9.0
 40
9.0
 40
10.0
 40
10.0
 40
10.0
 40
11.0
 40
11.0
 40
11.0
 40
12.0
 40
12.0
 40
12.0
 40
13.0
 40
13.0
 40
13.0
 40
14.0
 40
14.0
 40
14.0
 40
15.0
 40
15.0
 40
15.0
 40
16.0
 40
16.0
 40
16.0
 40
17.0
 40
17.0
 40
17.0
 40
18.0
 40
18.0
 40
18.0
 40
19.0
 40
19.0
 40
19.0
 40
20.0
 40
20.0
 40
20.0
 40
21.0
 40
21.0
 40
21.0
 40
22.0
 40
22.0
 40
22.0
 40
22.0
 10
1.598700629340277
 20
-0.5372856987847223
 30
0.0
 10
1.598700629340277
 20
-0.5405409071180556
 30
0.0
 10
1.598564995659722
 20
-0.5432807074652778
 30
0.0
 10
1.59829372829861
 20
-0.5455050998263889
 30
0.0
 10
1.5980224609375
 20
-0.5477294921875
 30
0.0
 10
1.597615559895833
 20
-0.5495741102430556
 30
0.0
 10
1.59707302517361
 20
-0.5510389539930556
 30
0.0
 10
1.596530490451388
 20
-0.5525037977430556
 30
0.0
 10
1.59585232204861
 20
-0.5535617404513889
 30
0.0
 10
1.595038519965277
 20
-0.5542127821180556
 30
0.0
 10
1.594224717881944
 20
-0.5548638237847223
 30
0.0
 10
1.593275282118055
 20
-0.5551893446180556
 30
0.0
 10
1.59219021267361
 20
-0.5551893446180556
 30
0.0
 10
1.59219021267361
 20
-0.5551893446180556
 30
0.0
 10
1.495673285590277
 20
-0.5551893446180556
 30
0.0
 10
1.495673285590277
 20
-0.5551893446180556
 30
0.0
 10
1.49209255642361
 20
-0.5551893446180556
 30
0.0
 10
1.489081488715277
 20
-0.5541314019097223
 30
0.0
 10
1.486640082465277
 20
-0.5520155164930556
 30
0.0
 10
1.484198676215277
 20
-0.5498996310763889
 30
0.0
 10
1.482977973090277
 20
-0.5464545355902778
 30
0.0
 10
1.482977973090277
 20
-0.5416802300347223
 30
0.0
 10
1.482977973090277
 20
-0.5416802300347223
 30
0.0
 10
1.482977973090277
 20
-0.3504367404513889
 30
0.0
 10
1.482977973090277
 20
-0.3504367404513889
 30
0.0
 10
1.482977973090277
 20
-0.3493516710069444
 30
0.0
 10
1.483330620659722
 20
-0.3483751085069444
 30
0.0
 10
1.48403591579861
 20
-0.3475070529513889
 30
0.0
 10
1.4847412109375
 20
-0.3466389973958333
 30
0.0
 10
1.485907660590277
 20
-0.3459337022569444
 30
0.0
 10
1.487535264756944
 20
-0.3453911675347222
 30
0.0
 10
1.48916286892361
 20
-0.3448486328125
 30
0.0
 10
1.49136013454861
 20
-0.3444146050347222
 30
0.0
 10
1.494127061631944
 20
-0.3440890842013889
 30
0.0
 10
1.496893988715277
 20
-0.3437635633680555
 30
0.0
 10
1.500339084201388
 20
-0.3436008029513889
 30
0.0
 10
1.504462348090277
 20
-0.3436008029513889
 30
0.0
 10
1.50869411892361
 20
-0.3436008029513889
 30
0.0
 10
1.512166341145833
 20
-0.3437635633680555
 30
0.0
 10
1.514879014756944
 20
-0.3440890842013889
 30
0.0
 10
1.517591688368055
 20
-0.3444146050347222
 30
0.0
 10
1.519761827256944
 20
-0.3448486328125
 30
0.0
 10
1.52138943142361
 20
-0.3453911675347222
 30
0.0
 10
1.523017035590277
 20
-0.3459337022569444
 30
0.0
 10
1.524183485243055
 20
-0.3466389973958333
 30
0.0
 10
1.524888780381944
 20
-0.3475070529513889
 30
0.0
 10
1.525594075520833
 20
-0.3483751085069444
 30
0.0
 10
1.525946723090277
 20
-0.3493516710069444
 30
0.0
 10
1.525946723090277
 20
-0.3504367404513889
 30
0.0
 10
1.525946723090277
 20
-0.3504367404513889
 30
0.0
 10
1.525946723090277
 20
-0.5198703342013889
 30
0.0
 10
1.525946723090277
 20
-0.5198703342013889
 30
0.0
 10
1.525946723090277
 20
-0.5198703342013889
 30
0.0
 10
1.59219021267361
 20
-0.5198703342013889
 30
0.0
 10
1.59219021267361
 20
-0.5198703342013889
 30
0.0
 10
1.593275282118055
 20
-0.5198703342013889
 30
0.0
 10
1.594224717881944
 20
-0.5201687282986111
 30
0.0
 10
1.595038519965277
 20
-0.5207655164930556
 30
0.0
 10
1.59585232204861
 20
-0.5213623046875
 30
0.0
 10
1.596530490451388
 20
-0.5223388671875
 30
0.0
 10
1.59707302517361
 20
-0.5236952039930556
 30
0.0
 10
1.597615559895833
 20
-0.5250515407986111
 30
0.0
 10
1.5980224609375
 20
-0.5268419053819445
 30
0.0
 10
1.59829372829861
 20
-0.5290662977430556
 30
0.0
 10
1.598564995659722
 20
-0.5312906901041666
 30
0.0
 10
1.598700629340277
 20
-0.5340304904513889
 30
0.0
 10
1.598700629340277
 20
-0.5372856987847223
 30
0.0
  0
HATCH
  5
82
330
79
100
AcDbEntity
  8
Layer 1
 62
   250
420
  2301728
440
 33554687
100
AcDbHatch
 10
0.0
 20
0.0
 30
0.0
210
0.0
220
0.0
230
1.0
  2
SOLID
 70
     1
 71
     1
 91
        1
 92
        1
 93
        1
 72
     4
 94
        3
 73
     0
 74
     0
 95
       71
 96
       67
 40
0.0
 40
0.0
 40
0.0
 40
0.0
 40
1.0
 40
1.0
 40
1.0
 40
2.0
 40
2.0
 40
2.0
 40
3.0
 40
3.0
 40
3.0
 40
4.0
 40
4.0
 40
4.0
 40
5.0
 40
5.0
 40
5.0
 40
6.0
 40
6.0
 40
6.0
 40
7.0
 40
7.0
 40
7.0
 40
8.0
 40
8.0
 40
8.0
 40
9.0
 40
9.0
 40
9.0
 40
10.0
 40
10.0
 40
10.0
 40
11.0
 40
11.0
 40
11.0
 40
12.0
 40
12.0
 40
12.0
 40
13.0
 40
13.0
 40
13.0
 40
14.0
 40
14.0
 40
14.0
 40
15.0
 40
15.0
 40
15.0
 40
16.0
 40
16.0
 40
16.0
 40
17.0
 40
17.0
 40
17.0
 40
18.0
 40
18.0
 40
18.0
 40
19.0
 40
19.0
 40
19.0
 40
20.0
 40
20.0
 40
20.0
 40
21.0
 40
21.0
 40
21.0
 40
22.0
 40
22.0
 40
22.0
 40
22.0
 10
1.598700629340277
 20
-0.5372856987847223
 10
1.598700629340277
 20
-0.5405409071180556
 10
1.598564995659722
 20
-0.5432807074652778
 10
1.59829372829861
 20
-0.5455050998263889
 10
1.5980224609375
 20
-0.5477294921875
 10
1.597615559895833
 20
-0.5495741102430556
 10
1.59707302517361
 20
-0.5510389539930556
 10
1.596530490451388
 20
-0.5525037977430556
 10
1.59585232204861
 20
-0.5535617404513889
 10
1.595038519965277
 20
-0.5542127821180556
 10
1.594224717881944
 20
-0.5548638237847223
 10
1.593275282118055
 20
-0.5551893446180556
 10
1.59219021267361
 20
-0.5551893446180556
 10
1.59219021267361
 20
-0.5551893446180556
 10
1.495673285590277
 20
-0.5551893446180556
 10
1.495673285590277
 20
-0.5551893446180556
 10
1.49209255642361
 20
-0.5551893446180556
 10
1.489081488715277
 20
-0.5541314019097223
 10
1.486640082465277
 20
-0.5520155164930556
 10
1.484198676215277
 20
-0.5498996310763889
 10
1.482977973090277
 20
-0.5464545355902778
 10
1.482977973090277
 20
-0.5416802300347223
 10
1.482977973090277
 20
-0.5416802300347223
 10
1.482977973090277
 20
-0.3504367404513889
 10
1.482977973090277
 20
-0.3504367404513889
 10
1.482977973090277
 20
-0.3493516710069444
 10
1.483330620659722
 20
-0.3483751085069444
 10
1.48403591579861
 20
-0.3475070529513889
 10
1.4847412109375
 20
-0.3466389973958333
 10
1.485907660590277
 20
-0.3459337022569444
 10
1.487535264756944
 20
-0.3453911675347222
 10
1.48916286892361
 20
-0.3448486328125
 10
1.49136013454861
 20
-0.3444146050347222
 10
1.494127061631944
 20
-0.3440890842013889
 10
1.496893988715277
 20
-0.3437635633680555
 10
1.500339084201388
 20
-0.3436008029513889
 10
1.504462348090277
 20
-0.3436008029513889
 10
1.50869411892361
 20
-0.3436008029513889
 10
1.512166341145833
 20
-0.3437635633680555
 10
1.514879014756944
 20
-0.3440890842013889
 10
1.517591688368055
 20
-0.3444146050347222
 10
1.519761827256944
 20
-0.3448486328125
 10
1.52138943142361
 20
-0.3453911675347222
 10
1.523017035590277
 20
-0.3459337022569444
 10
1.524183485243055
 20
-0.3466389973958333
 10
1.524888780381944
 20
-0.3475070529513889
 10
1.525594075520833
 20
-0.3483751085069444
 10
1.525946723090277
 20
-0.3493516710069444
 10
1.525946723090277
 20
-0.3504367404513889
 10
1.525946723090277
 20
-0.3504367404513889
 10
1.525946723090277
 20
-0.5198703342013889
 10
1.525946723090277
 20
-0.5198703342013889
 10
1.525946723090277
 20
-0.5198703342013889
 10
1.59219021267361
 20
-0.5198703342013889
 10
1.59219021267361
 20
-0.5198703342013889
 10
1.593275282118055
 20
-0.5198703342013889
 10
1.594224717881944
 20
-0.5201687282986111
 10
1.595038519965277
 20
-0.5207655164930556
 10
1.59585232204861
 20
-0.5213623046875
 10
1.596530490451388
 20
-0.5223388671875
 10
1.59707302517361
 20
-0.5236952039930556
 10
1.597615559895833
 20
-0.5250515407986111
 10
1.5980224609375
 20
-0.5268419053819445
 10
1.59829372829861
 20
-0.5290662977430556
 10
1.598564995659722
 20
-0.5312906901041666
 10
1.598700629340277
 20
-0.5340304904513889
 10
1.598700629340277
 20
-0.5372856987847223
 97
        0
 97
        1
330
81
 75
     2
 76
     1
 98
        1
 10
0.0
 20
0.0
450
        0
451
        0
460
0.0
461
0.0
452
        0
462
0.0
453
        0
470

  0
SPLINE
  5
83
330
79
100
AcDbEntity
  8
Layer 1
100
AcDbSpline
210
0.0
220
0.0
230
1.0
 70
    11
 71
     3
 72
    71
 73
    67
 74
     0
 42
0.0000000001
 43
0.0000000001
 40
0.0
 40
0.0
 40
0.0
 40
0.0
 40
1.0
 40
1.0
 40
1.0
 40
2.0
 40
2.0
 40
2.0
 40
3.0
 40
3.0
 40
3.0
 40
4.0
 40
4.0
 40
4.0
 40
5.0
 40
5.0
 40
5.0
 40
6.0
 40
6.0
 40
6.0
 40
7.0
 40
7.0
 40
7.0
 40
8.0
 40
8.0
 40
8.0
 40
9.0
 40
9.0
 40
9.0
 40
10.0
 40
10.0
 40
10.0
 40
11.0
 40
11.0
 40
11.0
 40
12.0
 40
12.0
 40
12.0
 40
13.0
 40
13.0
 40
13.0
 40
14.0
 40
14.0
 40
14.0
 40
15.0
 40
15.0
 40
15.0
 40
16.0
 40
16.0
 40
16.0
 40
17.0
 40
17.0
 40
17.0
 40
18.0
 40
18.0
 40
18.0
 40
19.0
 40
19.0
 40
19.0
 40
20.0
 40
20.0
 40
20.0
 40
21.0
 40
21.0
 40
21.0
 40
22.0
 40
22.0
 40
22.0
 40
22.0
 10
1.73965115017361
 20
-0.5372856987847223
 30
0.0
 10
1.73965115017361
 20
-0.5405409071180556
 30
0.0
 10
1.739515516493055
 20
-0.5432807074652778
 30
0.0
 10
1.739244249131944
 20
-0.5455050998263889
 30
0.0
 10
1.738972981770833
 20
-0.5477294921875
 30
0.0
 10
1.738566080729166
 20
-0.5495741102430556
 30
0.0
 10
1.738023546006944
 20
-0.5510389539930556
 30
0.0
 10
1.737481011284722
 20
-0.5525037977430556
 30
0.0
 10
1.736802842881944
 20
-0.5535617404513889
 30
0.0
 10
1.73598904079861
 20
-0.5542127821180556
 30
0.0
 10
1.735175238715277
 20
-0.5548638237847223
 30
0.0
 10
1.734225802951388
 20
-0.5551893446180556
 30
0.0
 10
1.733140733506944
 20
-0.5551893446180556
 30
0.0
 10
1.733140733506944
 20
-0.5551893446180556
 30
0.0
 10
1.63662380642361
 20
-0.5551893446180556
 30
0.0
 10
1.63662380642361
 20
-0.5551893446180556
 30
0.0
 10
1.633043077256944
 20
-0.5551893446180556
 30
0.0
 10
1.63003200954861
 20
-0.5541314019097223
 30
0.0
 10
1.62759060329861
 20
-0.5520155164930556
 30
0.0
 10
1.62514919704861
 20
-0.5498996310763889
 30
0.0
 10
1.62392849392361
 20
-0.5464545355902778
 30
0.0
 10
1.62392849392361
 20
-0.5416802300347223
 30
0.0
 10
1.62392849392361
 20
-0.5416802300347223
 30
0.0
 10
1.62392849392361
 20
-0.3504367404513889
 30
0.0
 10
1.62392849392361
 20
-0.3504367404513889
 30
0.0
 10
1.62392849392361
 20
-0.3493516710069444
 30
0.0
 10
1.624281141493055
 20
-0.3483751085069444
 30
0.0
 10
1.624986436631944
 20
-0.3475070529513889
 30
0.0
 10
1.625691731770833
 20
-0.3466389973958333
 30
0.0
 10
1.62685818142361
 20
-0.3459337022569444
 30
0.0
 10
1.628485785590277
 20
-0.3453911675347222
 30
0.0
 10
1.630113389756944
 20
-0.3448486328125
 30
0.0
 10
1.632310655381944
 20
-0.3444146050347222
 30
0.0
 10
1.635077582465277
 20
-0.3440890842013889
 30
0.0
 10
1.63784450954861
 20
-0.3437635633680555
 30
0.0
 10
1.641289605034722
 20
-0.3436008029513889
 30
0.0
 10
1.64541286892361
 20
-0.3436008029513889
 30
0.0
 10
1.649644639756944
 20
-0.3436008029513889
 30
0.0
 10
1.653116861979166
 20
-0.3437635633680555
 30
0.0
 10
1.655829535590277
 20
-0.3440890842013889
 30
0.0
 10
1.658542209201388
 20
-0.3444146050347222
 30
0.0
 10
1.660712348090277
 20
-0.3448486328125
 30
0.0
 10
1.662339952256944
 20
-0.3453911675347222
 30
0.0
 10
1.66396755642361
 20
-0.3459337022569444
 30
0.0
 10
1.665134006076388
 20
-0.3466389973958333
 30
0.0
 10
1.665839301215277
 20
-0.3475070529513889
 30
0.0
 10
1.666544596354166
 20
-0.3483751085069444
 30
0.0
 10
1.66689724392361
 20
-0.3493516710069444
 30
0.0
 10
1.66689724392361
 20
-0.3504367404513889
 30
0.0
 10
1.66689724392361
 20
-0.3504367404513889
 30
0.0
 10
1.66689724392361
 20
-0.5198703342013889
 30
0.0
 10
1.66689724392361
 20
-0.5198703342013889
 30
0.0
 10
1.66689724392361
 20
-0.5198703342013889
 30
0.0
 10
1.733140733506944
 20
-0.5198703342013889
 30
0.0
 10
1.733140733506944
 20
-0.5198703342013889
 30
0.0
 10
1.734225802951388
 20
-0.5198703342013889
 30
0.0
 10
1.735175238715277
 20
-0.5201687282986111
 30
0.0
 10
1.73598904079861
 20
-0.5207655164930556
 30
0.0
 10
1.736802842881944
 20
-0.5213623046875
 30
0.0
 10
1.737481011284722
 20
-0.5223388671875
 30
0.0
 10
1.738023546006944
 20
-0.5236952039930556
 30
0.0
 10
1.738566080729166
 20
-0.5250515407986111
 30
0.0
 10
1.738972981770833
 20
-0.5268419053819445
 30
0.0
 10
1.739244249131944
 20
-0.5290662977430556
 30
0.0
 10
1.739515516493055
 20
-0.5312906901041666
 30
0.0
 10
1.73965115017361
 20
-0.5340304904513889
 30
0.0
 10
1.73965115017361
 20
-0.5372856987847223
 30
0.0
  0
HATCH
  5
84
330
79
100
AcDbEntity
  8
Layer 1
 62
   250
420
  2301728
440
 33554687
100
AcDbHatch
 10
0.0
 20
0.0
 30
0.0
210
0.0
220
0.0
230
1.0
  2
SOLID
 70
     1
 71
     1
 91
        1
 92
        1
 93
        1
 72
     4
 94
        3
 73
     0
 74
     0
 95
       71
 96
       67
 40
0.0
 40
0.0
 40
0.0
 40
0.0
 40
1.0
 40
1.0
 40
1.0
 40
2.0
 40
2.0
 40
2.0
 40
3.0
 40
3.0
 40
3.0
 40
4.0
 40
4.0
 40
4.0
 40
5.0
 40
5.0
 40
5.0
 40
6.0
 40
6.0
 40
6.0
 40
7.0
 40
7.0
 40
7.0
 40
8.0
 40
8.0
 40
8.0
 40
9.0
 40
9.0
 40
9.0
 40
10.0
 40
10.0
 40
10.0
 40
11.0
 40
11.0
 40
11.0
 40
12.0
 40
12.0
 40
12.0
 40
13.0
 40
13.0
 40
13.0
 40
14.0
 40
14.0
 40
14.0
 40
15.0
 40
15.0
 40
15.0
 40
16.0
 40
16.0
 40
16.0
 40
17.0
 40
17.0
 40
17.0
 40
18.0
 40
18.0
 40
18.0
 40
19.0
 40
19.0
 40
19.0
 40
20.0
 40
20.0
 40
20.0
 40
21.0
 40
21.0
 40
21.0
 40
22.0
 40
22.0
 40
22.0
 40
22.0
 10
1.73965115017361
 20
-0.5372856987847223
 10
1.73965115017361
 20
-0.5405409071180556
 10
1.739515516493055
 20
-0.5432807074652778
 10
1.739244249131944
 20
-0.5455050998263889
 10
1.738972981770833
 20
-0.5477294921875
 10
1.738566080729166
 20
-0.5495741102430556
 10
1.738023546006944
 20
-0.5510389539930556
 10
1.737481011284722
 20
-0.5525037977430556
 10
1.736802842881944
 20
-0.5535617404513889
 10
1.73598904079861
 20
-0.5542127821180556
 10
1.735175238715277
 20
-0.5548638237847223
 10
1.734225802951388
 20
-0.5551893446180556
 10
1.733140733506944
 20
-0.5551893446180556
 10
1.733140733506944
 20
-0.5551893446180556
 10
1.63662380642361
 20
-0.5551893446180556
 10
1.63662380642361
 20
-0.5551893446180556
 10
1.633043077256944
 20
-0.5551893446180556
 10
1.63003200954861
 20
-0.5541314019097223
 10
1.62759060329861
 20
-0.5520155164930556
 10
1.62514919704861
 20
-0.5498996310763889
 10
1.62392849392361
 20
-0.5464545355902778
 10
1.62392849392361
 20
-0.5416802300347223
 10
1.62392849392361
 20
-0.5416802300347223
 10
1.62392849392361
 20
-0.3504367404513889
 10
1.62392849392361
 20
-0.3504367404513889
 10
1.62392849392361
 20
-0.3493516710069444
 10
1.624281141493055
 20
-0.3483751085069444
 10
1.624986436631944
 20
-0.3475070529513889
 10
1.625691731770833
 20
-0.3466389973958333
 10
1.62685818142361
 20
-0.3459337022569444
 10
1.628485785590277
 20
-0.3453911675347222
 10
1.630113389756944
 20
-0.3448486328125
 10
1.632310655381944
 20
-0.3444146050347222
 10
1.635077582465277
 20
-0.3440890842013889
 10
1.63784450954861
 20
-0.3437635633680555
 10
1.641289605034722
 20
-0.3436008029513889
 10
1.64541286892361
 20
-0.3436008029513889
 10
1.649644639756944
 20
-0.3436008029513889
 10
1.653116861979166
 20
-0.3437635633680555
 10
1.655829535590277
 20
-0.3440890842013889
 10
1.658542209201388
 20
-0.3444146050347222
 10
1.660712348090277
 20
-0.3448486328125
 10
1.662339952256944
 20
-0.3453911675347222
 10
1.66396755642361
 20
-0.3459337022569444
 10
1.665134006076388
 20
-0.3466389973958333
 10
1.665839301215277
 20
-0.3475070529513889
 10
1.666544596354166
 20
-0.3483751085069444
 10
1.66689724392361
 20
-0.3493516710069444
 10
1.66689724392361
 20
-0.3504367404513889
 10
1.66689724392361
 20
-0.3504367404513889
 10
1.66689724392361
 20
-0.5198703342013889
 10
1.66689724392361
 20
-0.5198703342013889
 10
1.66689724392361
 20
-0.5198703342013889
 10
1.733140733506944
 20
-0.5198703342013889
 10
1.733140733506944
 20
-0.5198703342013889
 10
1.734225802951388
 20
-0.5198703342013889
 10
1.735175238715277
 20
-0.5201687282986111
 10
1.73598904079861
 20
-0.5207655164930556
 10
1.736802842881944
 20
-0.5213623046875
 10
1.737481011284722
 20
-0.5223388671875
 10
1.738023546006944
 20
-0.5236952039930556
 10
1.738566080729166
 20
-0.5250515407986111
 10
1.738972981770833
 20
-0.5268419053819445
 10
1.739244249131944
 20
-0.5290662977430556
 10
1.739515516493055
 20
-0.5312906901041666
 10
1.73965115017361
 20
-0.5340304904513889
 10
1.73965115017361
 20
-0.5372856987847223
 97
        0
 97
        1
330
83
 75
     2
 76
     1
 98
        1
 10
0.0
 20
0.0
450
        0
451
        0
460
0.0
461
0.0
452
        0
462
0.0
453
        0
470

  0
SPLINE
  5
85
330
79
100
AcDbEntity
  8
Layer 1
100
AcDbSpline
210
0.0
220
0.0
230
1.0
 70
     9
 71
     3
 72
    53
 73
    49
 74
     0
 42
0.0000000001
 43
0.0000000001
 40
0.0
 40
0.0
 40
0.0
 40
0.0
 40
1.0
 40
1.0
 40
1.0
 40
2.0
 40
2.0
 40
2.0
 40
3.0
 40
3.0
 40
3.0
 40
4.0
 40
4.0
 40
4.0
 40
5.0
 40
5.0
 40
5.0
 40
6.0
 40
6.0
 40
6.0
 40
7.0
 40
7.0
 40
7.0
 40
8.0
 40
8.0
 40
8.0
 40
9.0
 40
9.0
 40
9.0
 40
10.0
 40
10.0
 40
10.0
 40
11.0
 40
11.0
 40
11.0
 40
12.0
 40
12.0
 40
12.0
 40
13.0
 40
13.0
 40
13.0
 40
14.0
 40
14.0
 40
14.0
 40
15.0
 40
15.0
 40
15.0
 40
16.0
 40
16.0
 40
16.0
 40
16.0
 10
1.903550889756944
 20
-0.4497205946180556
 30
0.0
 10
1.903550889756944
 20
-0.4386528862847223
 30
0.0
 10
1.902682834201388
 20
-0.4285888671875
 30
0.0
 10
1.900946723090277
 20
-0.4195285373263889
 30
0.0
 10
1.899210611979166
 20
-0.4104682074652778
 30
0.0
 10
1.896253797743055
 20
-0.4027099609375
 30
0.0
 10
1.892076280381944
 20
-0.3962537977430555
 30
0.0
 10
1.887898763020833
 20
-0.3897976345486111
 30
0.0
 10
1.882337782118055
 20
-0.3848063151041666
 30
0.0
 10
1.87539333767361
 20
-0.3812798394097222
 30
0.0
 10
1.868448893229166
 20
-0.3777533637152777
 30
0.0
 10
1.85976833767361
 20
-0.3759901258680555
 30
0.0
 10
1.849351671006944
 20
-0.3759901258680555
 30
0.0
 10
1.838826497395833
 20
-0.3759901258680555
 30
0.0
 10
1.830037434895833
 20
-0.3779703776041666
 30
0.0
 10
1.822984483506944
 20
-0.3819308810763889
 30
0.0
 10
1.815931532118055
 20
-0.3858913845486111
 30
0.0
 10
1.810234917534722
 20
-0.3911810980902777
 30
0.0
 10
1.805894639756944
 20
-0.3978000217013888
 30
0.0
 10
1.801554361979166
 20
-0.4044189453125
 30
0.0
 10
1.79848904079861
 20
-0.4121500651041666
 30
0.0
 10
1.796698676215277
 20
-0.4209933810763889
 30
0.0
 10
1.794908311631944
 20
-0.4298366970486111
 30
0.0
 10
1.794013129340277
 20
-0.4391954210069445
 30
0.0
 10
1.794013129340277
 20
-0.4490695529513889
 30
0.0
 10
1.794013129340277
 20
-0.4605712890625
 30
0.0
 10
1.794881184895833
 20
-0.4709065755208333
 30
0.0
 10
1.796617296006944
 20
-0.4800754123263889
 30
0.0
 10
1.798353407118055
 20
-0.4892442491319445
 30
0.0
 10
1.801283094618055
 20
-0.4970838758680556
 30
0.0
 10
1.805406358506944
 20
-0.5035942925347223
 30
0.0
 10
1.809529622395833
 20
-0.5101047092013889
 30
0.0
 10
1.8150634765625
 20
-0.5150689019097223
 30
0.0
 10
1.822007921006944
 20
-0.5184868706597223
 30
0.0
 10
1.828952365451388
 20
-0.5219048394097223
 30
0.0
 10
1.837687174479166
 20
-0.5236138237847223
 30
0.0
 10
1.848212348090277
 20
-0.5236138237847223
 30
0.0
 10
1.858737521701388
 20
-0.5236138237847223
 30
0.0
 10
1.867526584201388
 20
-0.5216606987847223
 30
0.0
 10
1.874579535590277
 20
-0.5177544487847223
 30
0.0
 10
1.881632486979166
 20
-0.5138481987847223
 30
0.0
 10
1.8873291015625
 20
-0.5085313585069445
 30
0.0
 10
1.891669379340277
 20
-0.5018039279513889
 30
0.0
 10
1.896009657118055
 20
-0.4950764973958333
 30
0.0
 10
1.89907497829861
 20
-0.4872368706597223
 30
0.0
 10
1.900865342881944
 20
-0.4782850477430556
 30
0.0
 10
1.902655707465277
 20
-0.4693332248263889
 30
0.0
 10
1.903550889756944
 20
-0.4598117404513889
 30
0.0
 10
1.903550889756944
 20
-0.4497205946180556
 30
0.0
  0
SPLINE
  5
86
330
79
100
AcDbEntity
  8
Layer 1
100
AcDbSpline
210
0.0
220
0.0
230
1.0
 70
     9
 71
     3
 72
    53
 73
    49
 74
     0
 42
0.0000000001
 43
0.0000000001
 40
0.0
 40
0.0
 40
0.0
 40
0.0
 40
1.0
 40
1.0
 40
1.0
 40
2.0
 40
2.0
 40
2.0
 40
3.0
 40
3.0
 40
3.0
 40
4.0
 40
4.0
 40
4.0
 40
5.0
 40
5.0
 40
5.0
 40
6.0
 40
6.0
 40
6.0
 40
7.0
 40
7.0
 40
7.0
 40
8.0
 40
8.0
 40
8.0
 40
9.0
 40
9.0
 40
9.0
 40
10.0
 40
10.0
 40
10.0
 40
11.0
 40
11.0
 40
11.0
 40
12.0
 40
12.0
 40
12.0
 40
13.0
 40
13.0
 40
13.0
 40
14.0
 40
14.0
 40
14.0
 40
15.0
 40
15.0
 40
15.0
 40
16.0
 40
16.0
 40
16.0
 40
16.0
 10
1.948472764756944
 20
-0.4474419487847223
 30
0.0
 10
1.948472764756944
 20
-0.4649115668402778
 30
0.0
 10
1.946302625868055
 20
-0.4805365668402778
 30
0.0
 10
1.941962348090277
 20
-0.4943169487847223
 30
0.0
 10
1.9376220703125
 20
-0.5080973307291666
 30
0.0
 10
1.931165907118055
 20
-0.5197889539930556
 30
0.0
 10
1.922593858506944
 20
-0.5293918185763889
 30
0.0
 10
1.914021809895833
 20
-0.5389946831597223
 30
0.0
 10
1.903415256076388
 20
-0.5463189019097223
 30
0.0
 10
1.89077419704861
 20
-0.5513644748263889
 30
0.0
 10
1.878133138020833
 20
-0.5564100477430555
 30
0.0
 10
1.863511827256944
 20
-0.5589328342013889
 30
0.0
 10
1.846910264756944
 20
-0.5589328342013889
 30
0.0
 10
1.830525716145833
 20
-0.5589328342013889
 30
0.0
 10
1.816229926215277
 20
-0.5567898220486111
 30
0.0
 10
1.804022894965277
 20
-0.5525037977430556
 30
0.0
 10
1.791815863715277
 20
-0.5482177734375
 30
0.0
 10
1.78164333767361
 20
-0.5416802300347223
 30
0.0
 10
1.773505316840277
 20
-0.5328911675347223
 30
0.0
 10
1.765367296006944
 20
-0.5241021050347223
 30
0.0
 10
1.759263780381944
 20
-0.5129258897569445
 30
0.0
 10
1.755194769965277
 20
-0.4993625217013889
 30
0.0
 10
1.75112575954861
 20
-0.4857991536458333
 30
0.0
 10
1.749091254340277
 20
-0.4697401258680556
 30
0.0
 10
1.749091254340277
 20
-0.4511854383680556
 30
0.0
 10
1.749091254340277
 20
-0.4341498480902778
 30
0.0
 10
1.751261393229166
 20
-0.4188232421875
 30
0.0
 10
1.755601671006944
 20
-0.4052056206597223
 30
0.0
 10
1.759941948784722
 20
-0.3915879991319444
 30
0.0
 10
1.766398111979166
 20
-0.3800048828125
 30
0.0
 10
1.774970160590277
 20
-0.3704562717013889
 30
0.0
 10
1.783542209201388
 20
-0.3609076605902777
 30
0.0
 10
1.794148763020833
 20
-0.3535834418402777
 30
0.0
 10
1.80678982204861
 20
-0.3484836154513889
 30
0.0
 10
1.819430881076388
 20
-0.3433837890625
 30
0.0
 10
1.8341064453125
 20
-0.3408338758680555
 30
0.0
 10
1.850816514756944
 20
-0.3408338758680555
 30
0.0
 10
1.866767035590277
 20
-0.3408338758680555
 30
0.0
 10
1.880845811631944
 20
-0.3429497612847222
 30
0.0
 10
1.893052842881944
 20
-0.3471815321180555
 30
0.0
 10
1.905259874131944
 20
-0.3514133029513889
 30
0.0
 10
1.915459526909722
 20
-0.3579237196180555
 30
0.0
 10
1.923651801215277
 20
-0.3667127821180555
 30
0.0
 10
1.931844075520833
 20
-0.3755018446180555
 30
0.0
 10
1.938028971354166
 20
-0.3865966796875
 30
0.0
 10
1.942206488715277
 20
-0.3999972873263888
 30
0.0
 10
1.946384006076388
 20
-0.4133978949652778
 30
0.0
 10
1.948472764756944
 20
-0.4292127821180556
 30
0.0
 10
1.948472764756944
 20
-0.4474419487847223
 30
0.0
  0
HATCH
  5
87
330
79
100
AcDbEntity
  8
Layer 1
 62
   250
420
  2301728
440
 33554687
100
AcDbHatch
 10
0.0
 20
0.0
 30
0.0
210
0.0
220
0.0
230
1.0
  2
SOLID
 70
     1
 71
     1
 91
        2
 92
        1
 93
        1
 72
     4
 94
        3
 73
     0
 74
     0
 95
       53
 96
       49
 40
0.0
 40
0.0
 40
0.0
 40
0.0
 40
1.0
 40
1.0
 40
1.0
 40
2.0
 40
2.0
 40
2.0
 40
3.0
 40
3.0
 40
3.0
 40
4.0
 40
4.0
 40
4.0
 40
5.0
 40
5.0
 40
5.0
 40
6.0
 40
6.0
 40
6.0
 40
7.0
 40
7.0
 40
7.0
 40
8.0
 40
8.0
 40
8.0
 40
9.0
 40
9.0
 40
9.0
 40
10.0
 40
10.0
 40
10.0
 40
11.0
 40
11.0
 40
11.0
 40
12.0
 40
12.0
 40
12.0
 40
13.0
 40
13.0
 40
13.0
 40
14.0
 40
14.0
 40
14.0
 40
15.0
 40
15.0
 40
15.0
 40
16.0
 40
16.0
 40
16.0
 40
16.0
 10
1.903550889756944
 20
-0.4497205946180556
 10
1.903550889756944
 20
-0.4386528862847223
 10
1.902682834201388
 20
-0.4285888671875
 10
1.900946723090277
 20
-0.4195285373263889
 10
1.899210611979166
 20
-0.4104682074652778
 10
1.896253797743055
 20
-0.4027099609375
 10
1.892076280381944
 20
-0.3962537977430555
 10
1.887898763020833
 20
-0.3897976345486111
 10
1.882337782118055
 20
-0.3848063151041666
 10
1.87539333767361
 20
-0.3812798394097222
 10
1.868448893229166
 20
-0.3777533637152777
 10
1.85976833767361
 20
-0.3759901258680555
 10
1.849351671006944
 20
-0.3759901258680555
 10
1.838826497395833
 20
-0.3759901258680555
 10
1.830037434895833
 20
-0.3779703776041666
 10
1.822984483506944
 20
-0.3819308810763889
 10
1.815931532118055
 20
-0.3858913845486111
 10
1.810234917534722
 20
-0.3911810980902777
 10
1.805894639756944
 20
-0.3978000217013888
 10
1.801554361979166
 20
-0.4044189453125
 10
1.79848904079861
 20
-0.4121500651041666
 10
1.796698676215277
 20
-0.4209933810763889
 10
1.794908311631944
 20
-0.4298366970486111
 10
1.794013129340277
 20
-0.4391954210069445
 10
1.794013129340277
 20
-0.4490695529513889
 10
1.794013129340277
 20
-0.4605712890625
 10
1.794881184895833
 20
-0.4709065755208333
 10
1.796617296006944
 20
-0.4800754123263889
 10
1.798353407118055
 20
-0.4892442491319445
 10
1.801283094618055
 20
-0.4970838758680556
 10
1.805406358506944
 20
-0.5035942925347223
 10
1.809529622395833
 20
-0.5101047092013889
 10
1.8150634765625
 20
-0.5150689019097223
 10
1.822007921006944
 20
-0.5184868706597223
 10
1.828952365451388
 20
-0.5219048394097223
 10
1.837687174479166
 20
-0.5236138237847223
 10
1.848212348090277
 20
-0.5236138237847223
 10
1.858737521701388
 20
-0.5236138237847223
 10
1.867526584201388
 20
-0.5216606987847223
 10
1.874579535590277
 20
-0.5177544487847223
 10
1.881632486979166
 20
-0.5138481987847223
 10
1.8873291015625
 20
-0.5085313585069445
 10
1.891669379340277
 20
-0.5018039279513889
 10
1.896009657118055
 20
-0.4950764973958333
 10
1.89907497829861
 20
-0.4872368706597223
 10
1.900865342881944
 20
-0.4782850477430556
 10
1.902655707465277
 20
-0.4693332248263889
 10
1.903550889756944
 20
-0.4598117404513889
 10
1.903550889756944
 20
-0.4497205946180556
 97
        0
 97
        1
330
85
 92
        1
 93
        1
 72
     4
 94
        3
 73
     0
 74
     0
 95
       53
 96
       49
 40
0.0
 40
0.0
 40
0.0
 40
0.0
 40
1.0
 40
1.0
 40
1.0
 40
2.0
 40
2.0
 40
2.0
 40
3.0
 40
3.0
 40
3.0
 40
4.0
 40
4.0
 40
4.0
 40
5.0
 40
5.0
 40
5.0
 40
6.0
 40
6.0
 40
6.0
 40
7.0
 40
7.0
 40
7.0
 40
8.0
 40
8.0
 40
8.0
 40
9.0
 40
9.0
 40
9.0
 40
10.0
 40
10.0
 40
10.0
 40
11.0
 40
11.0
 40
11.0
 40
12.0
 40
12.0
 40
12.0
 40
13.0
 40
13.0
 40
13.0
 40
14.0
 40
14.0
 40
14.0
 40
15.0
 40
15.0
 40
15.0
 40
16.0
 40
16.0
 40
16.0
 40
16.0
 10
1.948472764756944
 20
-0.4474419487847223
 10
1.948472764756944
 20
-0.4649115668402778
 10
1.946302625868055
 20
-0.4805365668402778
 10
1.941962348090277
 20
-0.4943169487847223
 10
1.9376220703125
 20
-0.5080973307291666
 10
1.931165907118055
 20
-0.5197889539930556
 10
1.922593858506944
 20
-0.5293918185763889
 10
1.914021809895833
 20
-0.5389946831597223
 10
1.903415256076388
 20
-0.5463189019097223
 10
1.89077419704861
 20
-0.5513644748263889
 10
1.878133138020833
 20
-0.5564100477430555
 10
1.863511827256944
 20
-0.5589328342013889
 10
1.846910264756944
 20
-0.5589328342013889
 10
1.830525716145833
 20
-0.5589328342013889
 10
1.816229926215277
 20
-0.5567898220486111
 10
1.804022894965277
 20
-0.5525037977430556
 10
1.791815863715277
 20
-0.5482177734375
 10
1.78164333767361
 20
-0.5416802300347223
 10
1.773505316840277
 20
-0.5328911675347223
 10
1.765367296006944
 20
-0.5241021050347223
 10
1.759263780381944
 20
-0.5129258897569445
 10
1.755194769965277
 20
-0.4993625217013889
 10
1.75112575954861
 20
-0.4857991536458333
 10
1.749091254340277
 20
-0.4697401258680556
 10
1.749091254340277
 20
-0.4511854383680556
 10
1.749091254340277
 20
-0.4341498480902778
 10
1.751261393229166
 20
-0.4188232421875
 10
1.755601671006944
 20
-0.4052056206597223
 10
1.759941948784722
 20
-0.3915879991319444
 10
1.766398111979166
 20
-0.3800048828125
 10
1.774970160590277
 20
-0.3704562717013889
 10
1.783542209201388
 20
-0.3609076605902777
 10
1.794148763020833
 20
-0.3535834418402777
 10
1.80678982204861
 20
-0.3484836154513889
 10
1.819430881076388
 20
-0.3433837890625
 10
1.8341064453125
 20
-0.3408338758680555
 10
1.850816514756944
 20
-0.3408338758680555
 10
1.866767035590277
 20
-0.3408338758680555
 10
1.880845811631944
 20
-0.3429497612847222
 10
1.893052842881944
 20
-0.3471815321180555
 10
1.905259874131944
 20
-0.3514133029513889
 10
1.915459526909722
 20
-0.3579237196180555
 10
1.923651801215277
 20
-0.3667127821180555
 10
1.931844075520833
 20
-0.3755018446180555
 10
1.938028971354166
 20
-0.3865966796875
 10
1.942206488715277
 20
-0.3999972873263888
 10
1.946384006076388
 20
-0.4133978949652778
 10
1.948472764756944
 20
-0.4292127821180556
 10
1.948472764756944
 20
-0.4474419487847223
 97
        0
 97
        1
330
86
 75
     2
 76
     1
 98
        1
 10
0.0
 20
0.0
450
        0
451
        0
460
0.0
461
0.0
452
        0
462
0.0
453
        0
470

  0
SPLINE
  5
88
330
79
100
AcDbEntity
  8
Layer 1
100
AcDbSpline
210
0.0
220
0.0
230
1.0
 70
     9
 71
     3
 72
   158
 73
   154
 74
     0
 42
0.0000000001
 43
0.0000000001
 40
0.0
 40
0.0
 40
0.0
 40
0.0
 40
1.0
 40
1.0
 40
1.0
 40
2.0
 40
2.0
 40
2.0
 40
3.0
 40
3.0
 40
3.0
 40
4.0
 40
4.0
 40
4.0
 40
5.0
 40
5.0
 40
5.0
 40
6.0
 40
6.0
 40
6.0
 40
7.0
 40
7.0
 40
7.0
 40
8.0
 40
8.0
 40
8.0
 40
9.0
 40
9.0
 40
9.0
 40
10.0
 40
10.0
 40
10.0
 40
11.0
 40
11.0
 40
11.0
 40
12.0
 40
12.0
 40
12.0
 40
13.0
 40
13.0
 40
13.0
 40
14.0
 40
14.0
 40
14.0
 40
15.0
 40
15.0
 40
15.0
 40
16.0
 40
16.0
 40
16.0
 40
17.0
 40
17.0
 40
17.0
 40
18.0
 40
18.0
 40
18.0
 40
19.0
 40
19.0
 40
19.0
 40
20.0
 40
20.0
 40
20.0
 40
21.0
 40
21.0
 40
21.0
 40
22.0
 40
22.0
 40
22.0
 40
23.0
 40
23.0
 40
23.0
 40
24.0
 40
24.0
 40
24.0
 40
25.0
 40
25.0
 40
25.0
 40
26.0
 40
26.0
 40
26.0
 40
27.0
 40
27.0
 40
27.0
 40
28.0
 40
28.0
 40
28.0
 40
29.0
 40
29.0
 40
29.0
 40
30.0
 40
30.0
 40
30.0
 40
31.0
 40
31.0
 40
31.0
 40
32.0
 40
32.0
 40
32.0
 40
33.0
 40
33.0
 40
33.0
 40
34.0
 40
34.0
 40
34.0
 40
35.0
 40
35.0
 40
35.0
 40
36.0
 40
36.0
 40
36.0
 40
37.0
 40
37.0
 40
37.0
 40
38.0
 40
38.0
 40
38.0
 40
39.0
 40
39.0
 40
39.0
 40
40.0
 40
40.0
 40
40.0
 40
41.0
 40
41.0
 40
41.0
 40
42.0
 40
42.0
 40
42.0
 40
43.0
 40
43.0
 40
43.0
 40
44.0
 40
44.0
 40
44.0
 40
45.0
 40
45.0
 40
45.0
 40
46.0
 40
46.0
 40
46.0
 40
47.0
 40
47.0
 40
47.0
 40
48.0
 40
48.0
 40
48.0
 40
49.0
 40
49.0
 40
49.0
 40
50.0
 40
50.0
 40
50.0
 40
51.0
 40
51.0
 40
51.0
 40
51.0
 10
1.237860785590277
 20
-0.9442816840277776
 30
0.0
 10
1.23720974392361
 20
-0.9468858506944444
 30
0.0
 10
1.236314561631944
 20
-0.948974609375
 30
0.0
 10
1.235175238715277
 20
-0.9505479600694444
 30
0.0
 10
1.23403591579861
 20
-0.9521213107638889
 30
0.0
 10
1.23232693142361
 20
-0.9533148871527776
 30
0.0
 10
1.230048285590277
 20
-0.954128689236111
 30
0.0
 10
1.227769639756944
 20
-0.9549424913194444
 30
0.0
 10
1.224839952256944
 20
-0.9554850260416666
 30
0.0
 10
1.221259223090277
 20
-0.9557562934027776
 30
0.0
 10
1.21767849392361
 20
-0.9560275607638889
 30
0.0
 10
1.213121202256944
 20
-0.9561631944444444
 30
0.0
 10
1.207587348090277
 20
-0.9561631944444444
 30
0.0
 10
1.201402452256944
 20
-0.9561631944444444
 30
0.0
 10
1.19643825954861
 20
-0.9560275607638889
 30
0.0
 10
1.192694769965277
 20
-0.9557562934027776
 30
0.0
 10
1.188951280381944
 20
-0.9554850260416666
 30
0.0
 10
1.185994466145833
 20
-0.9549424913194444
 30
0.0
 10
1.183824327256944
 20
-0.954128689236111
 30
0.0
 10
1.181654188368055
 20
-0.9533148871527776
 30
0.0
 10
1.18008083767361
 20
-0.9521213107638889
 30
0.0
 10
1.17910427517361
 20
-0.9505479600694444
 30
0.0
 10
1.17812771267361
 20
-0.948974609375
 30
0.0
 10
1.1773681640625
 20
-0.9468858506944444
 30
0.0
 10
1.176825629340277
 20
-0.9442816840277776
 30
0.0
 10
1.176825629340277
 20
-0.9442816840277776
 30
0.0
 10
1.143134223090277
 20
-0.810818142361111
 30
0.0
 10
1.143134223090277
 20
-0.810818142361111
 30
0.0
 10
1.143134223090277
 20
-0.810818142361111
 30
0.0
 10
1.142808702256944
 20
-0.810818142361111
 30
0.0
 10
1.142808702256944
 20
-0.810818142361111
 30
0.0
 10
1.142808702256944
 20
-0.810818142361111
 30
0.0
 10
1.110907660590277
 20
-0.9442816840277776
 30
0.0
 10
1.110907660590277
 20
-0.9442816840277776
 30
0.0
 10
1.110365125868055
 20
-0.94677734375
 30
0.0
 10
1.109605577256944
 20
-0.9488118489583332
 30
0.0
 10
1.108629014756944
 20
-0.9503851996527776
 30
0.0
 10
1.107652452256944
 20
-0.9519585503472221
 30
0.0
 10
1.106106228298611
 20
-0.9531792534722221
 30
0.0
 10
1.103990342881944
 20
-0.9540473090277776
 30
0.0
 10
1.101874457465277
 20
-0.9549153645833332
 30
0.0
 10
1.0989990234375
 20
-0.9554850260416666
 30
0.0
 10
1.095364040798611
 20
-0.9557562934027776
 30
0.0
 10
1.091729058159722
 20
-0.9560275607638889
 30
0.0
 10
1.086927625868055
 20
-0.9561631944444444
 30
0.0
 10
1.080959743923611
 20
-0.9561631944444444
 30
0.0
 10
1.074666341145833
 20
-0.9561631944444444
 30
0.0
 10
1.069647894965277
 20
-0.9560275607638889
 30
0.0
 10
1.065904405381944
 20
-0.9557562934027776
 30
0.0
 10
1.062160915798611
 20
-0.9554850260416666
 30
0.0
 10
1.0592041015625
 20
-0.9549424913194444
 30
0.0
 10
1.057033962673611
 20
-0.954128689236111
 30
0.0
 10
1.054863823784722
 20
-0.9533148871527776
 30
0.0
 10
1.053290473090277
 20
-0.9521213107638889
 30
0.0
 10
1.052313910590277
 20
-0.9505479600694444
 30
0.0
 10
1.051337348090277
 20
-0.948974609375
 30
0.0
 10
1.050523546006944
 20
-0.9468858506944444
 30
0.0
 10
1.049872504340277
 20
-0.9442816840277776
 30
0.0
 10
1.049872504340277
 20
-0.9442816840277776
 30
0.0
 10
1.002020941840277
 20
-0.7605251736111111
 30
0.0
 10
1.002020941840277
 20
-0.7605251736111111
 30
0.0
 10
1.001044379340277
 20
-0.7566189236111111
 30
0.0
 10
1.000501844618055
 20
-0.7535536024305555
 30
0.0
 10
1.000393337673611
 20
-0.7513292100694445
 30
0.0
 10
1.000284830729166
 20
-0.7491048177083333
 30
0.0
 10
1.000908745659722
 20
-0.7473958333333333
 30
0.0
 10
1.002265082465277
 20
-0.7462022569444445
 30
0.0
 10
1.003621419270833
 20
-0.7450086805555555
 30
0.0
 10
1.005845811631944
 20
-0.7442762586805555
 30
0.0
 10
1.008938259548611
 20
-0.7440049913194445
 30
0.0
 10
1.012030707465277
 20
-0.7437337239583333
 30
0.0
 10
1.016343858506944
 20
-0.7435980902777778
 30
0.0
 10
1.021877712673611
 20
-0.7435980902777778
 30
0.0
 10
1.0269775390625
 20
-0.7435980902777778
 30
0.0
 10
1.031019422743055
 20
-0.7436794704861111
 30
0.0
 10
1.034003363715277
 20
-0.7438422309027778
 30
0.0
 10
1.0369873046875
 20
-0.7440049913194445
 30
0.0
 10
1.039238823784722
 20
-0.744384765625
 30
0.0
 10
1.040757921006944
 20
-0.7449815538194445
 30
0.0
 10
1.042277018229166
 20
-0.7455783420138889
 30
0.0
 10
1.043307834201388
 20
-0.7464463975694445
 30
0.0
 10
1.043850368923611
 20
-0.7475857204861111
 30
0.0
 10
1.044392903645833
 20
-0.7487250434027778
 30
0.0
 10
1.044826931423611
 20
-0.7503255208333333
 30
0.0
 10
1.045152452256944
 20
-0.7523871527777778
 30
0.0
 10
1.045152452256944
 20
-0.7523871527777778
 30
0.0
 10
1.082099066840277
 20
-0.9136827256944444
 30
0.0
 10
1.082099066840277
 20
-0.9136827256944444
 30
0.0
 10
1.082099066840277
 20
-0.9136827256944444
 30
0.0
 10
1.082261827256944
 20
-0.9136827256944444
 30
0.0
 10
1.082261827256944
 20
-0.9136827256944444
 30
0.0
 10
1.082261827256944
 20
-0.9136827256944444
 30
0.0
 10
1.120673285590277
 20
-0.7535264756944445
 30
0.0
 10
1.120673285590277
 20
-0.7535264756944445
 30
0.0
 10
1.121107313368055
 20
-0.75146484375
 30
0.0
 10
1.121676974826388
 20
-0.7497829861111111
 30
0.0
 10
1.122382269965277
 20
-0.7484809027777778
 30
0.0
 10
1.123087565104166
 20
-0.7471788194444445
 30
0.0
 10
1.124281141493055
 20
-0.7461751302083333
 30
0.0
 10
1.125962999131944
 20
-0.7454698350694445
 30
0.0
 10
1.127644856770833
 20
-0.7447645399305555
 30
0.0
 10
1.129950629340277
 20
-0.7442762586805555
 30
0.0
 10
1.132880316840277
 20
-0.7440049913194445
 30
0.0
 10
1.135810004340277
 20
-0.7437337239583333
 30
0.0
 10
1.139716254340277
 20
-0.7435980902777778
 30
0.0
 10
1.144599066840277
 20
-0.7435980902777778
 30
0.0
 10
1.14980740017361
 20
-0.7435980902777778
 30
0.0
 10
1.15395779079861
 20
-0.7437065972222223
 30
0.0
 10
1.157050238715277
 20
-0.7439236111111111
 30
0.0
 10
1.160142686631944
 20
-0.744140625
 30
0.0
 10
1.162529839409722
 20
-0.7446017795138889
 30
0.0
 10
1.16421169704861
 20
-0.7453070746527778
 30
0.0
 10
1.1658935546875
 20
-0.7460123697916666
 30
0.0
 10
1.1671142578125
 20
-0.7470160590277778
 30
0.0
 10
1.16787380642361
 20
-0.7483181423611111
 30
0.0
 10
1.168633355034722
 20
-0.7496202256944445
 30
0.0
 10
1.169230143229166
 20
-0.7513563368055555
 30
0.0
 10
1.169664171006944
 20
-0.7535264756944445
 30
0.0
 10
1.169664171006944
 20
-0.7535264756944445
 30
0.0
 10
1.20937771267361
 20
-0.9136827256944444
 30
0.0
 10
1.20937771267361
 20
-0.9136827256944444
 30
0.0
 10
1.20937771267361
 20
-0.9136827256944444
 30
0.0
 10
1.209703233506944
 20
-0.9136827256944444
 30
0.0
 10
1.209703233506944
 20
-0.9136827256944444
 30
0.0
 10
1.209703233506944
 20
-0.9136827256944444
 30
0.0
 10
1.246649848090277
 20
-0.7528754340277778
 30
0.0
 10
1.246649848090277
 20
-0.7528754340277778
 30
0.0
 10
1.24697536892361
 20
-0.7511393229166666
 30
0.0
 10
1.247409396701388
 20
-0.7496473524305555
 30
0.0
 10
1.24795193142361
 20
-0.7483995225694445
 30
0.0
 10
1.248494466145833
 20
-0.7471516927083333
 30
0.0
 10
1.249525282118055
 20
-0.7461751302083333
 30
0.0
 10
1.251044379340277
 20
-0.7454698350694445
 30
0.0
 10
1.2525634765625
 20
-0.7447645399305555
 30
0.0
 10
1.254733615451388
 20
-0.7442762586805555
 30
0.0
 10
1.257554796006944
 20
-0.7440049913194445
 30
0.0
 10
1.2603759765625
 20
-0.7437337239583333
 30
0.0
 10
1.264336480034722
 20
-0.7435980902777778
 30
0.0
 10
1.26943630642361
 20
-0.7435980902777778
 30
0.0
 10
1.274210611979166
 20
-0.7435980902777778
 30
0.0
 10
1.277926974826388
 20
-0.7437337239583333
 30
0.0
 10
1.280585394965277
 20
-0.7440049913194445
 30
0.0
 10
1.283243815104166
 20
-0.7442762586805555
 30
0.0
 10
1.285169813368055
 20
-0.7450086805555555
 30
0.0
 10
1.286363389756944
 20
-0.7462022569444445
 30
0.0
 10
1.287556966145833
 20
-0.7473958333333333
 30
0.0
 10
1.288072374131944
 20
-0.7491590711805555
 30
0.0
 10
1.287909613715277
 20
-0.7514919704861111
 30
0.0
 10
1.28774685329861
 20
-0.7538248697916666
 30
0.0
 10
1.287177191840277
 20
-0.7569986979166666
 30
0.0
 10
1.286200629340277
 20
-0.7610134548611111
 30
0.0
 10
1.286200629340277
 20
-0.7610134548611111
 30
0.0
 10
1.237860785590277
 20
-0.9442816840277776
 30
0.0
 10
1.237860785590277
 20
-0.9442816840277776
 30
0.0
  0
HATCH
  5
89
330
79
100
AcDbEntity
  8
Layer 1
 62
   250
420
  2301728
440
 33554687
100
AcDbHatch
 10
0.0
 20
0.0
 30
0.0
210
0.0
220
0.0
230
1.0
  2
SOLID
 70
     1
 71
     1
 91
        1
 92
        1
 93
        1
 72
     4
 94
        3
 73
     0
 74
     0
 95
      158
 96
      154
 40
0.0
 40
0.0
 40
0.0
 40
0.0
 40
1.0
 40
1.0
 40
1.0
 40
2.0
 40
2.0
 40
2.0
 40
3.0
 40
3.0
 40
3.0
 40
4.0
 40
4.0
 40
4.0
 40
5.0
 40
5.0
 40
5.0
 40
6.0
 40
6.0
 40
6.0
 40
7.0
 40
7.0
 40
7.0
 40
8.0
 40
8.0
 40
8.0
 40
9.0
 40
9.0
 40
9.0
 40
10.0
 40
10.0
 40
10.0
 40
11.0
 40
11.0
 40
11.0
 40
12.0
 40
12.0
 40
12.0
 40
13.0
 40
13.0
 40
13.0
 40
14.0
 40
14.0
 40
14.0
 40
15.0
 40
15.0
 40
15.0
 40
16.0
 40
16.0
 40
16.0
 40
17.0
 40
17.0
 40
17.0
 40
18.0
 40
18.0
 40
18.0
 40
19.0
 40
19.0
 40
19.0
 40
20.0
 40
20.0
 40
20.0
 40
21.0
 40
21.0
 40
21.0
 40
22.0
 40
22.0
 40
22.0
 40
23.0
 40
23.0
 40
23.0
 40
24.0
 40
24.0
 40
24.0
 40
25.0
 40
25.0
 40
25.0
 40
26.0
 40
26.0
 40
26.0
 40
27.0
 40
27.0
 40
27.0
 40
28.0
 40
28.0
 40
28.0
 40
29.0
 40
29.0
 40
29.0
 40
30.0
 40
30.0
 40
30.0
 40
31.0
 40
31.0
 40
31.0
 40
32.0
 40
32.0
 40
32.0
 40
33.0
 40
33.0
 40
33.0
 40
34.0
 40
34.0
 40
34.0
 40
35.0
 40
35.0
 40
35.0
 40
36.0
 40
36.0
 40
36.0
 40
37.0
 40
37.0
 40
37.0
 40
38.0
 40
38.0
 40
38.0
 40
39.0
 40
39.0
 40
39.0
 40
40.0
 40
40.0
 40
40.0
 40
41.0
 40
41.0
 40
41.0
 40
42.0
 40
42.0
 40
42.0
 40
43.0
 40
43.0
 40
43.0
 40
44.0
 40
44.0
 40
44.0
 40
45.0
 40
45.0
 40
45.0
 40
46.0
 40
46.0
 40
46.0
 40
47.0
 40
47.0
 40
47.0
 40
48.0
 40
48.0
 40
48.0
 40
49.0
 40
49.0
 40
49.0
 40
50.0
 40
50.0
 40
50.0
 40
51.0
 40
51.0
 40
51.0
 40
51.0
 10
1.237860785590277
 20
-0.9442816840277776
 10
1.23720974392361
 20
-0.9468858506944444
 10
1.236314561631944
 20
-0.948974609375
 10
1.235175238715277
 20
-0.9505479600694444
 10
1.23403591579861
 20
-0.9521213107638889
 10
1.23232693142361
 20
-0.9533148871527776
 10
1.230048285590277
 20
-0.954128689236111
 10
1.227769639756944
 20
-0.9549424913194444
 10
1.224839952256944
 20
-0.9554850260416666
 10
1.221259223090277
 20
-0.9557562934027776
 10
1.21767849392361
 20
-0.9560275607638889
 10
1.213121202256944
 20
-0.9561631944444444
 10
1.207587348090277
 20
-0.9561631944444444
 10
1.201402452256944
 20
-0.9561631944444444
 10
1.19643825954861
 20
-0.9560275607638889
 10
1.192694769965277
 20
-0.9557562934027776
 10
1.188951280381944
 20
-0.9554850260416666
 10
1.185994466145833
 20
-0.9549424913194444
 10
1.183824327256944
 20
-0.954128689236111
 10
1.181654188368055
 20
-0.9533148871527776
 10
1.18008083767361
 20
-0.9521213107638889
 10
1.17910427517361
 20
-0.9505479600694444
 10
1.17812771267361
 20
-0.948974609375
 10
1.1773681640625
 20
-0.9468858506944444
 10
1.176825629340277
 20
-0.9442816840277776
 10
1.176825629340277
 20
-0.9442816840277776
 10
1.143134223090277
 20
-0.810818142361111
 10
1.143134223090277
 20
-0.810818142361111
 10
1.143134223090277
 20
-0.810818142361111
 10
1.142808702256944
 20
-0.810818142361111
 10
1.142808702256944
 20
-0.810818142361111
 10
1.142808702256944
 20
-0.810818142361111
 10
1.110907660590277
 20
-0.9442816840277776
 10
1.110907660590277
 20
-0.9442816840277776
 10
1.110365125868055
 20
-0.94677734375
 10
1.109605577256944
 20
-0.9488118489583332
 10
1.108629014756944
 20
-0.9503851996527776
 10
1.107652452256944
 20
-0.9519585503472221
 10
1.106106228298611
 20
-0.9531792534722221
 10
1.103990342881944
 20
-0.9540473090277776
 10
1.101874457465277
 20
-0.9549153645833332
 10
1.0989990234375
 20
-0.9554850260416666
 10
1.095364040798611
 20
-0.9557562934027776
 10
1.091729058159722
 20
-0.9560275607638889
 10
1.086927625868055
 20
-0.9561631944444444
 10
1.080959743923611
 20
-0.9561631944444444
 10
1.074666341145833
 20
-0.9561631944444444
 10
1.069647894965277
 20
-0.9560275607638889
 10
1.065904405381944
 20
-0.9557562934027776
 10
1.062160915798611
 20
-0.9554850260416666
 10
1.0592041015625
 20
-0.9549424913194444
 10
1.057033962673611
 20
-0.954128689236111
 10
1.054863823784722
 20
-0.9533148871527776
 10
1.053290473090277
 20
-0.9521213107638889
 10
1.052313910590277
 20
-0.9505479600694444
 10
1.051337348090277
 20
-0.948974609375
 10
1.050523546006944
 20
-0.9468858506944444
 10
1.049872504340277
 20
-0.9442816840277776
 10
1.049872504340277
 20
-0.9442816840277776
 10
1.002020941840277
 20
-0.7605251736111111
 10
1.002020941840277
 20
-0.7605251736111111
 10
1.001044379340277
 20
-0.7566189236111111
 10
1.000501844618055
 20
-0.7535536024305555
 10
1.000393337673611
 20
-0.7513292100694445
 10
1.000284830729166
 20
-0.7491048177083333
 10
1.000908745659722
 20
-0.7473958333333333
 10
1.002265082465277
 20
-0.7462022569444445
 10
1.003621419270833
 20
-0.7450086805555555
 10
1.005845811631944
 20
-0.7442762586805555
 10
1.008938259548611
 20
-0.7440049913194445
 10
1.012030707465277
 20
-0.7437337239583333
 10
1.016343858506944
 20
-0.7435980902777778
 10
1.021877712673611
 20
-0.7435980902777778
 10
1.0269775390625
 20
-0.7435980902777778
 10
1.031019422743055
 20
-0.7436794704861111
 10
1.034003363715277
 20
-0.7438422309027778
 10
1.0369873046875
 20
-0.7440049913194445
 10
1.039238823784722
 20
-0.744384765625
 10
1.040757921006944
 20
-0.7449815538194445
 10
1.042277018229166
 20
-0.7455783420138889
 10
1.043307834201388
 20
-0.7464463975694445
 10
1.043850368923611
 20
-0.7475857204861111
 10
1.044392903645833
 20
-0.7487250434027778
 10
1.044826931423611
 20
-0.7503255208333333
 10
1.045152452256944
 20
-0.7523871527777778
 10
1.045152452256944
 20
-0.7523871527777778
 10
1.082099066840277
 20
-0.9136827256944444
 10
1.082099066840277
 20
-0.9136827256944444
 10
1.082099066840277
 20
-0.9136827256944444
 10
1.082261827256944
 20
-0.9136827256944444
 10
1.082261827256944
 20
-0.9136827256944444
 10
1.082261827256944
 20
-0.9136827256944444
 10
1.120673285590277
 20
-0.7535264756944445
 10
1.120673285590277
 20
-0.7535264756944445
 10
1.121107313368055
 20
-0.75146484375
 10
1.121676974826388
 20
-0.7497829861111111
 10
1.122382269965277
 20
-0.7484809027777778
 10
1.123087565104166
 20
-0.7471788194444445
 10
1.124281141493055
 20
-0.7461751302083333
 10
1.125962999131944
 20
-0.7454698350694445
 10
1.127644856770833
 20
-0.7447645399305555
 10
1.129950629340277
 20
-0.7442762586805555
 10
1.132880316840277
 20
-0.7440049913194445
 10
1.135810004340277
 20
-0.7437337239583333
 10
1.139716254340277
 20
-0.7435980902777778
 10
1.144599066840277
 20
-0.7435980902777778
 10
1.14980740017361
 20
-0.7435980902777778
 10
1.15395779079861
 20
-0.7437065972222223
 10
1.157050238715277
 20
-0.7439236111111111
 10
1.160142686631944
 20
-0.744140625
 10
1.162529839409722
 20
-0.7446017795138889
 10
1.16421169704861
 20
-0.7453070746527778
 10
1.1658935546875
 20
-0.7460123697916666
 10
1.1671142578125
 20
-0.7470160590277778
 10
1.16787380642361
 20
-0.7483181423611111
 10
1.168633355034722
 20
-0.7496202256944445
 10
1.169230143229166
 20
-0.7513563368055555
 10
1.169664171006944
 20
-0.7535264756944445
 10
1.169664171006944
 20
-0.7535264756944445
 10
1.20937771267361
 20
-0.9136827256944444
 10
1.20937771267361
 20
-0.9136827256944444
 10
1.20937771267361
 20
-0.9136827256944444
 10
1.209703233506944
 20
-0.9136827256944444
 10
1.209703233506944
 20
-0.9136827256944444
 10
1.209703233506944
 20
-0.9136827256944444
 10
1.246649848090277
 20
-0.7528754340277778
 10
1.246649848090277
 20
-0.7528754340277778
 10
1.24697536892361
 20
-0.7511393229166666
 10
1.247409396701388
 20
-0.7496473524305555
 10
1.24795193142361
 20
-0.7483995225694445
 10
1.248494466145833
 20
-0.7471516927083333
 10
1.249525282118055
 20
-0.7461751302083333
 10
1.251044379340277
 20
-0.7454698350694445
 10
1.2525634765625
 20
-0.7447645399305555
 10
1.254733615451388
 20
-0.7442762586805555
 10
1.257554796006944
 20
-0.7440049913194445
 10
1.2603759765625
 20
-0.7437337239583333
 10
1.264336480034722
 20
-0.7435980902777778
 10
1.26943630642361
 20
-0.7435980902777778
 10
1.274210611979166
 20
-0.7435980902777778
 10
1.277926974826388
 20
-0.7437337239583333
 10
1.280585394965277
 20
-0.7440049913194445
 10
1.283243815104166
 20
-0.7442762586805555
 10
1.285169813368055
 20
-0.7450086805555555
 10
1.286363389756944
 20
-0.7462022569444445
 10
1.287556966145833
 20
-0.7473958333333333
 10
1.288072374131944
 20
-0.7491590711805555
 10
1.287909613715277
 20
-0.7514919704861111
 10
1.28774685329861
 20
-0.7538248697916666
 10
1.287177191840277
 20
-0.7569986979166666
 10
1.286200629340277
 20
-0.7610134548611111
 10
1.286200629340277
 20
-0.7610134548611111
 10
1.237860785590277
 20
-0.9442816840277776
 10
1.237860785590277
 20
-0.9442816840277776
 97
        0
 97
        1
330
88
 75
     2
 76
     1
 98
        1
 10
0.0
 20
0.0
450
        0
451
        0
460
0.0
461
0.0
452
        0
462
0.0
453
        0
470

  0
SPLINE
  5
8A
330
79
100
AcDbEntity
  8
Layer 1
100
AcDbSpline
210
0.0
220
0.0
230
1.0
 70
     9
 71
     3
 72
    53
 73
    49
 74
     0
 42
0.0000000001
 43
0.0000000001
 40
0.0
 40
0.0
 40
0.0
 40
0.0
 40
1.0
 40
1.0
 40
1.0
 40
2.0
 40
2.0
 40
2.0
 40
3.0
 40
3.0
 40
3.0
 40
4.0
 40
4.0
 40
4.0
 40
5.0
 40
5.0
 40
5.0
 40
6.0
 40
6.0
 40
6.0
 40
7.0
 40
7.0
 40
7.0
 40
8.0
 40
8.0
 40
8.0
 40
9.0
 40
9.0
 40
9.0
 40
10.0
 40
10.0
 40
10.0
 40
11.0
 40
11.0
 40
11.0
 40
12.0
 40
12.0
 40
12.0
 40
13.0
 40
13.0
 40
13.0
 40
14.0
 40
14.0
 40
14.0
 40
15.0
 40
15.0
 40
15.0
 40
16.0
 40
16.0
 40
16.0
 40
16.0
 10
1.458726671006944
 20
-0.8497178819444444
 30
0.0
 10
1.458726671006944
 20
-0.838650173611111
 30
0.0
 10
1.457858615451388
 20
-0.8285861545138889
 30
0.0
 10
1.456122504340277
 20
-0.8195258246527776
 30
0.0
 10
1.454386393229166
 20
-0.8104654947916666
 30
0.0
 10
1.451429578993055
 20
-0.8027072482638889
 30
0.0
 10
1.447252061631944
 20
-0.7962510850694445
 30
0.0
 10
1.443074544270833
 20
-0.789794921875
 30
0.0
 10
1.437513563368055
 20
-0.7848036024305555
 30
0.0
 10
1.43056911892361
 20
-0.7812771267361111
 30
0.0
 10
1.423624674479166
 20
-0.7777506510416666
 30
0.0
 10
1.41494411892361
 20
-0.7759874131944445
 30
0.0
 10
1.404527452256944
 20
-0.7759874131944445
 30
0.0
 10
1.394002278645833
 20
-0.7759874131944445
 30
0.0
 10
1.385213216145833
 20
-0.7779676649305555
 30
0.0
 10
1.378160264756944
 20
-0.7819281684027777
 30
0.0
 10
1.371107313368055
 20
-0.785888671875
 30
0.0
 10
1.365410698784722
 20
-0.7911783854166666
 30
0.0
 10
1.361070421006944
 20
-0.7977973090277777
 30
0.0
 10
1.356730143229166
 20
-0.8044162326388889
 30
0.0
 10
1.35366482204861
 20
-0.8121473524305555
 30
0.0
 10
1.351874457465277
 20
-0.8209906684027776
 30
0.0
 10
1.350084092881944
 20
-0.829833984375
 30
0.0
 10
1.349188910590277
 20
-0.8391927083333332
 30
0.0
 10
1.349188910590277
 20
-0.8490668402777776
 30
0.0
 10
1.349188910590277
 20
-0.8605685763888889
 30
0.0
 10
1.350056966145833
 20
-0.8709038628472221
 30
0.0
 10
1.351793077256944
 20
-0.8800726996527776
 30
0.0
 10
1.353529188368055
 20
-0.8892415364583332
 30
0.0
 10
1.356458875868055
 20
-0.8970811631944444
 30
0.0
 10
1.360582139756944
 20
-0.903591579861111
 30
0.0
 10
1.364705403645833
 20
-0.9101019965277776
 30
0.0
 10
1.3702392578125
 20
-0.915066189236111
 30
0.0
 10
1.377183702256944
 20
-0.918484157986111
 30
0.0
 10
1.384128146701388
 20
-0.921902126736111
 30
0.0
 10
1.392862955729166
 20
-0.923611111111111
 30
0.0
 10
1.403388129340277
 20
-0.923611111111111
 30
0.0
 10
1.413913302951388
 20
-0.923611111111111
 30
0.0
 10
1.422702365451388
 20
-0.921657986111111
 30
0.0
 10
1.429755316840277
 20
-0.917751736111111
 30
0.0
 10
1.436808268229166
 20
-0.913845486111111
 30
0.0
 10
1.4425048828125
 20
-0.9085286458333332
 30
0.0
 10
1.446845160590277
 20
-0.9018012152777776
 30
0.0
 10
1.451185438368055
 20
-0.8950737847222221
 30
0.0
 10
1.45425075954861
 20
-0.887234157986111
 30
0.0
 10
1.456041124131944
 20
-0.8782823350694444
 30
0.0
 10
1.457831488715277
 20
-0.8693305121527776
 30
0.0
 10
1.458726671006944
 20
-0.8598090277777776
 30
0.0
 10
1.458726671006944
 20
-0.8497178819444444
 30
0.0
  0
SPLINE
  5
8B
330
79
100
AcDbEntity
  8
Layer 1
100
AcDbSpline
210
0.0
220
0.0
230
1.0
 70
     9
 71
     3
 72
    53
 73
    49
 74
     0
 42
0.0000000001
 43
0.0000000001
 40
0.0
 40
0.0
 40
0.0
 40
0.0
 40
1.0
 40
1.0
 40
1.0
 40
2.0
 40
2.0
 40
2.0
 40
3.0
 40
3.0
 40
3.0
 40
4.0
 40
4.0
 40
4.0
 40
5.0
 40
5.0
 40
5.0
 40
6.0
 40
6.0
 40
6.0
 40
7.0
 40
7.0
 40
7.0
 40
8.0
 40
8.0
 40
8.0
 40
9.0
 40
9.0
 40
9.0
 40
10.0
 40
10.0
 40
10.0
 40
11.0
 40
11.0
 40
11.0
 40
12.0
 40
12.0
 40
12.0
 40
13.0
 40
13.0
 40
13.0
 40
14.0
 40
14.0
 40
14.0
 40
15.0
 40
15.0
 40
15.0
 40
16.0
 40
16.0
 40
16.0
 40
16.0
 10
1.503648546006944
 20
-0.847439236111111
 30
0.0
 10
1.503648546006944
 20
-0.8649088541666666
 30
0.0
 10
1.501478407118055
 20
-0.8805338541666666
 30
0.0
 10
1.497138129340277
 20
-0.894314236111111
 30
0.0
 10
1.4927978515625
 20
-0.9080946180555555
 30
0.0
 10
1.486341688368055
 20
-0.9197862413194444
 30
0.0
 10
1.477769639756944
 20
-0.9293891059027776
 30
0.0
 10
1.469197591145833
 20
-0.938991970486111
 30
0.0
 10
1.458591037326388
 20
-0.946316189236111
 30
0.0
 10
1.44594997829861
 20
-0.9513617621527776
 30
0.0
 10
1.433308919270833
 20
-0.9564073350694444
 30
0.0
 10
1.418687608506944
 20
-0.9589301215277776
 30
0.0
 10
1.402086046006944
 20
-0.9589301215277776
 30
0.0
 10
1.385701497395833
 20
-0.9589301215277776
 30
0.0
 10
1.371405707465277
 20
-0.956787109375
 30
0.0
 10
1.359198676215277
 20
-0.9525010850694444
 30
0.0
 10
1.346991644965277
 20
-0.9482150607638889
 30
0.0
 10
1.33681911892361
 20
-0.941677517361111
 30
0.0
 10
1.328681098090277
 20
-0.932888454861111
 30
0.0
 10
1.320543077256944
 20
-0.924099392361111
 30
0.0
 10
1.314439561631944
 20
-0.9129231770833332
 30
0.0
 10
1.310370551215277
 20
-0.8993598090277776
 30
0.0
 10
1.30630154079861
 20
-0.8857964409722221
 30
0.0
 10
1.304267035590277
 20
-0.8697374131944444
 30
0.0
 10
1.304267035590277
 20
-0.8511827256944444
 30
0.0
 10
1.304267035590277
 20
-0.8341471354166666
 30
0.0
 10
1.306437174479166
 20
-0.8188205295138889
 30
0.0
 10
1.310777452256944
 20
-0.805202907986111
 30
0.0
 10
1.315117730034722
 20
-0.7915852864583333
 30
0.0
 10
1.321573893229166
 20
-0.7800021701388889
 30
0.0
 10
1.330145941840277
 20
-0.7704535590277778
 30
0.0
 10
1.338717990451388
 20
-0.7609049479166666
 30
0.0
 10
1.349324544270833
 20
-0.7535807291666666
 30
0.0
 10
1.36196560329861
 20
-0.7484809027777778
 30
0.0
 10
1.374606662326388
 20
-0.7433810763888889
 30
0.0
 10
1.3892822265625
 20
-0.7408311631944445
 30
0.0
 10
1.405992296006944
 20
-0.7408311631944445
 30
0.0
 10
1.421942816840277
 20
-0.7408311631944445
 30
0.0
 10
1.436021592881944
 20
-0.7429470486111111
 30
0.0
 10
1.448228624131944
 20
-0.7471788194444445
 30
0.0
 10
1.460435655381944
 20
-0.7514105902777778
 30
0.0
 10
1.470635308159722
 20
-0.7579210069444445
 30
0.0
 10
1.478827582465277
 20
-0.7667100694444445
 30
0.0
 10
1.487019856770833
 20
-0.7754991319444445
 30
0.0
 10
1.493204752604166
 20
-0.7865939670138889
 30
0.0
 10
1.497382269965277
 20
-0.7999945746527777
 30
0.0
 10
1.501559787326388
 20
-0.8133951822916666
 30
0.0
 10
1.503648546006944
 20
-0.8292100694444444
 30
0.0
 10
1.503648546006944
 20
-0.847439236111111
 30
0.0
  0
HATCH
  5
8C
330
79
100
AcDbEntity
  8
Layer 1
 62
   250
420
  2301728
440
 33554687
100
AcDbHatch
 10
0.0
 20
0.0
 30
0.0
210
0.0
220
0.0
230
1.0
  2
SOLID
 70
     1
 71
     1
 91
        2
 92
        1
 93
        1
 72
     4
 94
        3
 73
     0
 74
     0
 95
       53
 96
       49
 40
0.0
 40
0.0
 40
0.0
 40
0.0
 40
1.0
 40
1.0
 40
1.0
 40
2.0
 40
2.0
 40
2.0
 40
3.0
 40
3.0
 40
3.0
 40
4.0
 40
4.0
 40
4.0
 40
5.0
 40
5.0
 40
5.0
 40
6.0
 40
6.0
 40
6.0
 40
7.0
 40
7.0
 40
7.0
 40
8.0
 40
8.0
 40
8.0
 40
9.0
 40
9.0
 40
9.0
 40
10.0
 40
10.0
 40
10.0
 40
11.0
 40
11.0
 40
11.0
 40
12.0
 40
12.0
 40
12.0
 40
13.0
 40
13.0
 40
13.0
 40
14.0
 40
14.0
 40
14.0
 40
15.0
 40
15.0
 40
15.0
 40
16.0
 40
16.0
 40
16.0
 40
16.0
 10
1.458726671006944
 20
-0.8497178819444444
 10
1.458726671006944
 20
-0.838650173611111
 10
1.457858615451388
 20
-0.8285861545138889
 10
1.456122504340277
 20
-0.8195258246527776
 10
1.454386393229166
 20
-0.8104654947916666
 10
1.451429578993055
 20
-0.8027072482638889
 10
1.447252061631944
 20
-0.7962510850694445
 10
1.443074544270833
 20
-0.789794921875
 10
1.437513563368055
 20
-0.7848036024305555
 10
1.43056911892361
 20
-0.7812771267361111
 10
1.423624674479166
 20
-0.7777506510416666
 10
1.41494411892361
 20
-0.7759874131944445
 10
1.404527452256944
 20
-0.7759874131944445
 10
1.394002278645833
 20
-0.7759874131944445
 10
1.385213216145833
 20
-0.7779676649305555
 10
1.378160264756944
 20
-0.7819281684027777
 10
1.371107313368055
 20
-0.785888671875
 10
1.365410698784722
 20
-0.7911783854166666
 10
1.361070421006944
 20
-0.7977973090277777
 10
1.356730143229166
 20
-0.8044162326388889
 10
1.35366482204861
 20
-0.8121473524305555
 10
1.351874457465277
 20
-0.8209906684027776
 10
1.350084092881944
 20
-0.829833984375
 10
1.349188910590277
 20
-0.8391927083333332
 10
1.349188910590277
 20
-0.8490668402777776
 10
1.349188910590277
 20
-0.8605685763888889
 10
1.350056966145833
 20
-0.8709038628472221
 10
1.351793077256944
 20
-0.8800726996527776
 10
1.353529188368055
 20
-0.8892415364583332
 10
1.356458875868055
 20
-0.8970811631944444
 10
1.360582139756944
 20
-0.903591579861111
 10
1.364705403645833
 20
-0.9101019965277776
 10
1.3702392578125
 20
-0.915066189236111
 10
1.377183702256944
 20
-0.918484157986111
 10
1.384128146701388
 20
-0.921902126736111
 10
1.392862955729166
 20
-0.923611111111111
 10
1.403388129340277
 20
-0.923611111111111
 10
1.413913302951388
 20
-0.923611111111111
 10
1.422702365451388
 20
-0.921657986111111
 10
1.429755316840277
 20
-0.917751736111111
 10
1.436808268229166
 20
-0.913845486111111
 10
1.4425048828125
 20
-0.9085286458333332
 10
1.446845160590277
 20
-0.9018012152777776
 10
1.451185438368055
 20
-0.8950737847222221
 10
1.45425075954861
 20
-0.887234157986111
 10
1.456041124131944
 20
-0.8782823350694444
 10
1.457831488715277
 20
-0.8693305121527776
 10
1.458726671006944
 20
-0.8598090277777776
 10
1.458726671006944
 20
-0.8497178819444444
 97
        0
 97
        1
330
8A
 92
        1
 93
        1
 72
     4
 94
        3
 73
     0
 74
     0
 95
       53
 96
       49
 40
0.0
 40
0.0
 40
0.0
 40
0.0
 40
1.0
 40
1.0
 40
1.0
 40
2.0
 40
2.0
 40
2.0
 40
3.0
 40
3.0
 40
3.0
 40
4.0
 40
4.0
 40
4.0
 40
5.0
 40
5.0
 40
5.0
 40
6.0
 40
6.0
 40
6.0
 40
7.0
 40
7.0
 40
7.0
 40
8.0
 40
8.0
 40
8.0
 40
9.0
 40
9.0
 40
9.0
 40
10.0
 40
10.0
 40
10.0
 40
11.0
 40
11.0
 40
11.0
 40
12.0
 40
12.0
 40
12.0
 40
13.0
 40
13.0
 40
13.0
 40
14.0
 40
14.0
 40
14.0
 40
15.0
 40
15.0
 40
15.0
 40
16.0
 40
16.0
 40
16.0
 40
16.0
 10
1.503648546006944
 20
-0.847439236111111
 10
1.503648546006944
 20
-0.8649088541666666
 10
1.501478407118055
 20
-0.8805338541666666
 10
1.497138129340277
 20
-0.894314236111111
 10
1.4927978515625
 20
-0.9080946180555555
 10
1.486341688368055
 20
-0.9197862413194444
 10
1.477769639756944
 20
-0.9293891059027776
 10
1.469197591145833
 20
-0.938991970486111
 10
1.458591037326388
 20
-0.946316189236111
 10
1.44594997829861
 20
-0.9513617621527776
 10
1.433308919270833
 20
-0.9564073350694444
 10
1.418687608506944
 20
-0.9589301215277776
 10
1.402086046006944
 20
-0.9589301215277776
 10
1.385701497395833
 20
-0.9589301215277776
 10
1.371405707465277
 20
-0.956787109375
 10
1.359198676215277
 20
-0.9525010850694444
 10
1.346991644965277
 20
-0.9482150607638889
 10
1.33681911892361
 20
-0.941677517361111
 10
1.328681098090277
 20
-0.932888454861111
 10
1.320543077256944
 20
-0.924099392361111
 10
1.314439561631944
 20
-0.9129231770833332
 10
1.310370551215277
 20
-0.8993598090277776
 10
1.30630154079861
 20
-0.8857964409722221
 10
1.304267035590277
 20
-0.8697374131944444
 10
1.304267035590277
 20
-0.8511827256944444
 10
1.304267035590277
 20
-0.8341471354166666
 10
1.306437174479166
 20
-0.8188205295138889
 10
1.310777452256944
 20
-0.805202907986111
 10
1.315117730034722
 20
-0.7915852864583333
 10
1.321573893229166
 20
-0.7800021701388889
 10
1.330145941840277
 20
-0.7704535590277778
 10
1.338717990451388
 20
-0.7609049479166666
 10
1.349324544270833
 20
-0.7535807291666666
 10
1.36196560329861
 20
-0.7484809027777778
 10
1.374606662326388
 20
-0.7433810763888889
 10
1.3892822265625
 20
-0.7408311631944445
 10
1.405992296006944
 20
-0.7408311631944445
 10
1.421942816840277
 20
-0.7408311631944445
 10
1.436021592881944
 20
-0.7429470486111111
 10
1.448228624131944
 20
-0.7471788194444445
 10
1.460435655381944
 20
-0.7514105902777778
 10
1.470635308159722
 20
-0.7579210069444445
 10
1.478827582465277
 20
-0.7667100694444445
 10
1.487019856770833
 20
-0.7754991319444445
 10
1.493204752604166
 20
-0.7865939670138889
 10
1.497382269965277
 20
-0.7999945746527777
 10
1.501559787326388
 20
-0.8133951822916666
 10
1.503648546006944
 20
-0.8292100694444444
 10
1.503648546006944
 20
-0.847439236111111
 97
        0
 97
        1
330
8B
 75
     2
 76
     1
 98
        1
 10
0.0
 20
0.0
450
        0
451
        0
460
0.0
461
0.0
452
        0
462
0.0
453
        0
470

  0
SPLINE
  5
8D
330
79
100
AcDbEntity
  8
Layer 1
100
AcDbSpline
210
0.0
220
0.0
230
1.0
 70
     9
 71
     3
 72
    38
 73
    34
 74
     0
 42
0.0000000001
 43
0.0000000001
 40
0.0
 40
0.0
 40
0.0
 40
0.0
 40
1.0
 40
1.0
 40
1.0
 40
2.0
 40
2.0
 40
2.0
 40
3.0
 40
3.0
 40
3.0
 40
4.0
 40
4.0
 40
4.0
 40
5.0
 40
5.0
 40
5.0
 40
6.0
 40
6.0
 40
6.0
 40
7.0
 40
7.0
 40
7.0
 40
8.0
 40
8.0
 40
8.0
 40
9.0
 40
9.0
 40
9.0
 40
10.0
 40
10.0
 40
10.0
 40
11.0
 40
11.0
 40
11.0
 40
11.0
 10
1.640692816840277
 20
-0.8067491319444444
 30
0.0
 10
1.640692816840277
 20
-0.7998046875
 30
0.0
 10
1.639119466145833
 20
-0.7939453125
 30
0.0
 10
1.635972764756944
 20
-0.7891710069444445
 30
0.0
 10
1.632826063368055
 20
-0.7843967013888889
 30
0.0
 10
1.627671983506944
 20
-0.7810329861111111
 30
0.0
 10
1.62051052517361
 20
-0.7790798611111111
 30
0.0
 10
1.618340386284722
 20
-0.7785373263888889
 30
0.0
 10
1.61587185329861
 20
-0.7781032986111111
 30
0.0
 10
1.613104926215277
 20
-0.7777777777777777
 30
0.0
 10
1.610337999131944
 20
-0.7774522569444445
 30
0.0
 10
1.606513129340277
 20
-0.7772894965277778
 30
0.0
 10
1.601630316840277
 20
-0.7772894965277778
 30
0.0
 10
1.601630316840277
 20
-0.7772894965277778
 30
0.0
 10
1.58242458767361
 20
-0.7772894965277778
 30
0.0
 10
1.58242458767361
 20
-0.7772894965277778
 30
0.0
 10
1.58242458767361
 20
-0.7772894965277778
 30
0.0
 10
1.58242458767361
 20
-0.8370225694444444
 30
0.0
 10
1.58242458767361
 20
-0.8370225694444444
 30
0.0
 10
1.58242458767361
 20
-0.8370225694444444
 30
0.0
 10
1.604234483506944
 20
-0.8370225694444444
 30
0.0
 10
1.604234483506944
 20
-0.8370225694444444
 30
0.0
 10
1.610310872395833
 20
-0.8370225694444444
 30
0.0
 10
1.61562771267361
 20
-0.8362901475694444
 30
0.0
 10
1.620185004340277
 20
-0.8348253038194444
 30
0.0
 10
1.624742296006944
 20
-0.8333604600694444
 30
0.0
 10
1.6285400390625
 20
-0.831298828125
 30
0.0
 10
1.631578233506944
 20
-0.828640407986111
 30
0.0
 10
1.634616427951388
 20
-0.8259819878472221
 30
0.0
 10
1.636895073784722
 20
-0.8228081597222221
 30
0.0
 10
1.638414171006944
 20
-0.819118923611111
 30
0.0
 10
1.639933268229166
 20
-0.8154296875
 30
0.0
 10
1.640692816840277
 20
-0.811306423611111
 30
0.0
 10
1.640692816840277
 20
-0.8067491319444444
 30
0.0
  0
SPLINE
  5
8E
330
79
100
AcDbEntity
  8
Layer 1
100
AcDbSpline
210
0.0
220
0.0
230
1.0
 70
     9
 71
     3
 72
   137
 73
   133
 74
     0
 42
0.0000000001
 43
0.0000000001
 40
0.0
 40
0.0
 40
0.0
 40
0.0
 40
1.0
 40
1.0
 40
1.0
 40
2.0
 40
2.0
 40
2.0
 40
3.0
 40
3.0
 40
3.0
 40
4.0
 40
4.0
 40
4.0
 40
5.0
 40
5.0
 40
5.0
 40
6.0
 40
6.0
 40
6.0
 40
7.0
 40
7.0
 40
7.0
 40
8.0
 40
8.0
 40
8.0
 40
9.0
 40
9.0
 40
9.0
 40
10.0
 40
10.0
 40
10.0
 40
11.0
 40
11.0
 40
11.0
 40
12.0
 40
12.0
 40
12.0
 40
13.0
 40
13.0
 40
13.0
 40
14.0
 40
14.0
 40
14.0
 40
15.0
 40
15.0
 40
15.0
 40
16.0
 40
16.0
 40
16.0
 40
17.0
 40
17.0
 40
17.0
 40
18.0
 40
18.0
 40
18.0
 40
19.0
 40
19.0
 40
19.0
 40
20.0
 40
20.0
 40
20.0
 40
21.0
 40
21.0
 40
21.0
 40
22.0
 40
22.0
 40
22.0
 40
23.0
 40
23.0
 40
23.0
 40
24.0
 40
24.0
 40
24.0
 40
25.0
 40
25.0
 40
25.0
 40
26.0
 40
26.0
 40
26.0
 40
27.0
 40
27.0
 40
27.0
 40
28.0
 40
28.0
 40
28.0
 40
29.0
 40
29.0
 40
29.0
 40
30.0
 40
30.0
 40
30.0
 40
31.0
 40
31.0
 40
31.0
 40
32.0
 40
32.0
 40
32.0
 40
33.0
 40
33.0
 40
33.0
 40
34.0
 40
34.0
 40
34.0
 40
35.0
 40
35.0
 40
35.0
 40
36.0
 40
36.0
 40
36.0
 40
37.0
 40
37.0
 40
37.0
 40
38.0
 40
38.0
 40
38.0
 40
39.0
 40
39.0
 40
39.0
 40
40.0
 40
40.0
 40
40.0
 40
41.0
 40
41.0
 40
41.0
 40
42.0
 40
42.0
 40
42.0
 40
43.0
 40
43.0
 40
43.0
 40
44.0
 40
44.0
 40
44.0
 40
44.0
 10
1.695868598090277
 20
-0.9496527777777776
 30
0.0
 10
1.695868598090277
 20
-0.9508463541666666
 30
0.0
 10
1.695651584201388
 20
-0.9518500434027776
 30
0.0
 10
1.69521755642361
 20
-0.952663845486111
 30
0.0
 10
1.694783528645833
 20
-0.9534776475694444
 30
0.0
 10
1.69375271267361
 20
-0.9541558159722221
 30
0.0
 10
1.692125108506944
 20
-0.9546983506944444
 30
0.0
 10
1.690497504340277
 20
-0.9552408854166666
 30
0.0
 10
1.6881103515625
 20
-0.9556206597222221
 30
0.0
 10
1.68496365017361
 20
-0.955837673611111
 30
0.0
 10
1.681816948784722
 20
-0.9560546875
 30
0.0
 10
1.677530924479166
 20
-0.9561631944444444
 30
0.0
 10
1.672105577256944
 20
-0.9561631944444444
 30
0.0
 10
1.667548285590277
 20
-0.9561631944444444
 30
0.0
 10
1.663913302951388
 20
-0.9560546875
 30
0.0
 10
1.661200629340277
 20
-0.955837673611111
 30
0.0
 10
1.658487955729166
 20
-0.9556206597222221
 30
0.0
 10
1.656344943576388
 20
-0.9552137586805555
 30
0.0
 10
1.654771592881944
 20
-0.954616970486111
 30
0.0
 10
1.6531982421875
 20
-0.9540201822916666
 30
0.0
 10
1.652086046006944
 20
-0.9532606336805555
 30
0.0
 10
1.651435004340277
 20
-0.9523383246527776
 30
0.0
 10
1.65078396267361
 20
-0.951416015625
 30
0.0
 10
1.650241427951388
 20
-0.9503038194444444
 30
0.0
 10
1.64980740017361
 20
-0.949001736111111
 30
0.0
 10
1.64980740017361
 20
-0.949001736111111
 30
0.0
 10
1.630927191840277
 20
-0.9019639756944444
 30
0.0
 10
1.630927191840277
 20
-0.9019639756944444
 30
0.0
 10
1.628648546006944
 20
-0.8966471354166666
 30
0.0
 10
1.626424153645833
 20
-0.8919270833333332
 30
0.0
 10
1.624254014756944
 20
-0.8878038194444444
 30
0.0
 10
1.622083875868055
 20
-0.8836805555555555
 30
0.0
 10
1.619669596354166
 20
-0.8802354600694444
 30
0.0
 10
1.617011176215277
 20
-0.877468532986111
 30
0.0
 10
1.614352756076388
 20
-0.8747016059027776
 30
0.0
 10
1.611287434895833
 20
-0.8726128472222221
 30
0.0
 10
1.60781521267361
 20
-0.8712022569444444
 30
0.0
 10
1.604342990451388
 20
-0.8697916666666666
 30
0.0
 10
1.600328233506944
 20
-0.8690863715277776
 30
0.0
 10
1.595770941840277
 20
-0.8690863715277776
 30
0.0
 10
1.595770941840277
 20
-0.8690863715277776
 30
0.0
 10
1.58242458767361
 20
-0.8690863715277776
 30
0.0
 10
1.58242458767361
 20
-0.8690863715277776
 30
0.0
 10
1.58242458767361
 20
-0.8690863715277776
 30
0.0
 10
1.58242458767361
 20
-0.9493272569444444
 30
0.0
 10
1.58242458767361
 20
-0.9493272569444444
 30
0.0
 10
1.58242458767361
 20
-0.9504123263888889
 30
0.0
 10
1.582071940104166
 20
-0.9513888888888889
 30
0.0
 10
1.581366644965277
 20
-0.9522569444444444
 30
0.0
 10
1.580661349826388
 20
-0.953125
 30
0.0
 10
1.57949490017361
 20
-0.9538302951388889
 30
0.0
 10
1.577867296006944
 20
-0.954372829861111
 30
0.0
 10
1.576239691840277
 20
-0.9549153645833332
 30
0.0
 10
1.574069552951388
 20
-0.955349392361111
 30
0.0
 10
1.571356879340277
 20
-0.9556749131944444
 30
0.0
 10
1.568644205729166
 20
-0.9560004340277776
 30
0.0
 10
1.565171983506944
 20
-0.9561631944444444
 30
0.0
 10
1.56094021267361
 20
-0.9561631944444444
 30
0.0
 10
1.556816948784722
 20
-0.9561631944444444
 30
0.0
 10
1.55337185329861
 20
-0.9560004340277776
 30
0.0
 10
1.550604926215277
 20
-0.9556749131944444
 30
0.0
 10
1.547837999131944
 20
-0.955349392361111
 30
0.0
 10
1.545640733506944
 20
-0.9549153645833332
 30
0.0
 10
1.544013129340277
 20
-0.954372829861111
 30
0.0
 10
1.54238552517361
 20
-0.9538302951388889
 30
0.0
 10
1.541246202256944
 20
-0.953125
 30
0.0
 10
1.540595160590277
 20
-0.9522569444444444
 30
0.0
 10
1.53994411892361
 20
-0.9513888888888889
 30
0.0
 10
1.539618598090277
 20
-0.9504123263888889
 30
0.0
 10
1.539618598090277
 20
-0.9493272569444444
 30
0.0
 10
1.539618598090277
 20
-0.9493272569444444
 30
0.0
 10
1.539618598090277
 20
-0.7580837673611111
 30
0.0
 10
1.539618598090277
 20
-0.7580837673611111
 30
0.0
 10
1.539618598090277
 20
-0.7533094618055555
 30
0.0
 10
1.540839301215277
 20
-0.7498643663194445
 30
0.0
 10
1.543280707465277
 20
-0.7477484809027778
 30
0.0
 10
1.545722113715277
 20
-0.7456325954861111
 30
0.0
 10
1.54873318142361
 20
-0.7445746527777778
 30
0.0
 10
1.552313910590277
 20
-0.7445746527777778
 30
0.0
 10
1.552313910590277
 20
-0.7445746527777778
 30
0.0
 10
1.60683865017361
 20
-0.7445746527777778
 30
0.0
 10
1.60683865017361
 20
-0.7445746527777778
 30
0.0
 10
1.612372504340277
 20
-0.7445746527777778
 30
0.0
 10
1.616929796006944
 20
-0.7446831597222223
 30
0.0
 10
1.62051052517361
 20
-0.7449001736111111
 30
0.0
 10
1.624091254340277
 20
-0.7451171875
 30
0.0
 10
1.62734646267361
 20
-0.7453884548611111
 30
0.0
 10
1.63027615017361
 20
-0.7457139756944445
 30
0.0
 10
1.638739691840277
 20
-0.7469075520833333
 30
0.0
 10
1.6463623046875
 20
-0.7489691840277778
 30
0.0
 10
1.653143988715277
 20
-0.7518988715277778
 30
0.0
 10
1.659925672743055
 20
-0.7548285590277778
 30
0.0
 10
1.66567654079861
 20
-0.7586534288194445
 30
0.0
 10
1.670396592881944
 20
-0.7633734809027778
 30
0.0
 10
1.675116644965277
 20
-0.7680935329861111
 30
0.0
 10
1.678724500868055
 20
-0.773681640625
 30
0.0
 10
1.681220160590277
 20
-0.7801378038194445
 30
0.0
 10
1.6837158203125
 20
-0.7865939670138889
 30
0.0
 10
1.68496365017361
 20
-0.7939995659722223
 30
0.0
 10
1.68496365017361
 20
-0.8023546006944444
 30
0.0
 10
1.68496365017361
 20
-0.8094075520833332
 30
0.0
 10
1.684068467881944
 20
-0.8158365885416666
 30
0.0
 10
1.68227810329861
 20
-0.8216417100694444
 30
0.0
 10
1.680487738715277
 20
-0.8274468315972221
 30
0.0
 10
1.6778564453125
 20
-0.8326280381944444
 30
0.0
 10
1.674384223090277
 20
-0.837185329861111
 30
0.0
 10
1.670912000868055
 20
-0.8417426215277776
 30
0.0
 10
1.6666259765625
 20
-0.845703125
 30
0.0
 10
1.66152615017361
 20
-0.8490668402777776
 30
0.0
 10
1.656426323784722
 20
-0.8524305555555555
 30
0.0
 10
1.650621202256944
 20
-0.8551432291666666
 30
0.0
 10
1.644110785590277
 20
-0.857204861111111
 30
0.0
 10
1.647257486979166
 20
-0.8587239583333332
 30
0.0
 10
1.650214301215277
 20
-0.8605685763888889
 30
0.0
 10
1.65298122829861
 20
-0.8627387152777776
 30
0.0
 10
1.655748155381944
 20
-0.8649088541666666
 30
0.0
 10
1.65835232204861
 20
-0.8675401475694444
 30
0.0
 10
1.66079372829861
 20
-0.870632595486111
 30
0.0
 10
1.66323513454861
 20
-0.8737250434027776
 30
0.0
 10
1.665540907118055
 20
-0.8772515190972221
 30
0.0
 10
1.667711046006944
 20
-0.8812120225694444
 30
0.0
 10
1.669881184895833
 20
-0.8851725260416666
 30
0.0
 10
1.6719970703125
 20
-0.8896484375
 30
0.0
 10
1.674058702256944
 20
-0.8946397569444444
 30
0.0
 10
1.674058702256944
 20
-0.8946397569444444
 30
0.0
 10
1.69179958767361
 20
-0.9361436631944444
 30
0.0
 10
1.69179958767361
 20
-0.9361436631944444
 30
0.0
 10
1.693427191840277
 20
-0.9402669270833332
 30
0.0
 10
1.694512261284722
 20
-0.9432779947916666
 30
0.0
 10
1.695054796006944
 20
-0.9451768663194444
 30
0.0
 10
1.695597330729166
 20
-0.9470757378472221
 30
0.0
 10
1.695868598090277
 20
-0.9485677083333332
 30
0.0
 10
1.695868598090277
 20
-0.9496527777777776
 30
0.0
  0
HATCH
  5
8F
330
79
100
AcDbEntity
  8
Layer 1
 62
   250
420
  2301728
440
 33554687
100
AcDbHatch
 10
0.0
 20
0.0
 30
0.0
210
0.0
220
0.0
230
1.0
  2
SOLID
 70
     1
 71
     1
 91
        2
 92
        1
 93
        1
 72
     4
 94
        3
 73
     0
 74
     0
 95
       38
 96
       34
 40
0.0
 40
0.0
 40
0.0
 40
0.0
 40
1.0
 40
1.0
 40
1.0
 40
2.0
 40
2.0
 40
2.0
 40
3.0
 40
3.0
 40
3.0
 40
4.0
 40
4.0
 40
4.0
 40
5.0
 40
5.0
 40
5.0
 40
6.0
 40
6.0
 40
6.0
 40
7.0
 40
7.0
 40
7.0
 40
8.0
 40
8.0
 40
8.0
 40
9.0
 40
9.0
 40
9.0
 40
10.0
 40
10.0
 40
10.0
 40
11.0
 40
11.0
 40
11.0
 40
11.0
 10
1.640692816840277
 20
-0.8067491319444444
 10
1.640692816840277
 20
-0.7998046875
 10
1.639119466145833
 20
-0.7939453125
 10
1.635972764756944
 20
-0.7891710069444445
 10
1.632826063368055
 20
-0.7843967013888889
 10
1.627671983506944
 20
-0.7810329861111111
 10
1.62051052517361
 20
-0.7790798611111111
 10
1.618340386284722
 20
-0.7785373263888889
 10
1.61587185329861
 20
-0.7781032986111111
 10
1.613104926215277
 20
-0.7777777777777777
 10
1.610337999131944
 20
-0.7774522569444445
 10
1.606513129340277
 20
-0.7772894965277778
 10
1.601630316840277
 20
-0.7772894965277778
 10
1.601630316840277
 20
-0.7772894965277778
 10
1.58242458767361
 20
-0.7772894965277778
 10
1.58242458767361
 20
-0.7772894965277778
 10
1.58242458767361
 20
-0.7772894965277778
 10
1.58242458767361
 20
-0.8370225694444444
 10
1.58242458767361
 20
-0.8370225694444444
 10
1.58242458767361
 20
-0.8370225694444444
 10
1.604234483506944
 20
-0.8370225694444444
 10
1.604234483506944
 20
-0.8370225694444444
 10
1.610310872395833
 20
-0.8370225694444444
 10
1.61562771267361
 20
-0.8362901475694444
 10
1.620185004340277
 20
-0.8348253038194444
 10
1.624742296006944
 20
-0.8333604600694444
 10
1.6285400390625
 20
-0.831298828125
 10
1.631578233506944
 20
-0.828640407986111
 10
1.634616427951388
 20
-0.8259819878472221
 10
1.636895073784722
 20
-0.8228081597222221
 10
1.638414171006944
 20
-0.819118923611111
 10
1.639933268229166
 20
-0.8154296875
 10
1.640692816840277
 20
-0.811306423611111
 10
1.640692816840277
 20
-0.8067491319444444
 97
        0
 97
        1
330
8D
 92
        1
 93
        1
 72
     4
 94
        3
 73
     0
 74
     0
 95
      137
 96
      133
 40
0.0
 40
0.0
 40
0.0
 40
0.0
 40
1.0
 40
1.0
 40
1.0
 40
2.0
 40
2.0
 40
2.0
 40
3.0
 40
3.0
 40
3.0
 40
4.0
 40
4.0
 40
4.0
 40
5.0
 40
5.0
 40
5.0
 40
6.0
 40
6.0
 40
6.0
 40
7.0
 40
7.0
 40
7.0
 40
8.0
 40
8.0
 40
8.0
 40
9.0
 40
9.0
 40
9.0
 40
10.0
 40
10.0
 40
10.0
 40
11.0
 40
11.0
 40
11.0
 40
12.0
 40
12.0
 40
12.0
 40
13.0
 40
13.0
 40
13.0
 40
14.0
 40
14.0
 40
14.0
 40
15.0
 40
15.0
 40
15.0
 40
16.0
 40
16.0
 40
16.0
 40
17.0
 40
17.0
 40
17.0
 40
18.0
 40
18.0
 40
18.0
 40
19.0
 40
19.0
 40
19.0
 40
20.0
 40
20.0
 40
20.0
 40
21.0
 40
21.0
 40
21.0
 40
22.0
 40
22.0
 40
22.0
 40
23.0
 40
23.0
 40
23.0
 40
24.0
 40
24.0
 40
24.0
 40
25.0
 40
25.0
 40
25.0
 40
26.0
 40
26.0
 40
26.0
 40
27.0
 40
27.0
 40
27.0
 40
28.0
 40
28.0
 40
28.0
 40
29.0
 40
29.0
 40
29.0
 40
30.0
 40
30.0
 40
30.0
 40
31.0
 40
31.0
 40
31.0
 40
32.0
 40
32.0
 40
32.0
 40
33.0
 40
33.0
 40
33.0
 40
34.0
 40
34.0
 40
34.0
 40
35.0
 40
35.0
 40
35.0
 40
36.0
 40
36.0
 40
36.0
 40
37.0
 40
37.0
 40
37.0
 40
38.0
 40
38.0
 40
38.0
 40
39.0
 40
39.0
 40
39.0
 40
40.0
 40
40.0
 40
40.0
 40
41.0
 40
41.0
 40
41.0
 40
42.0
 40
42.0
 40
42.0
 40
43.0
 40
43.0
 40
43.0
 40
44.0
 40
44.0
 40
44.0
 40
44.0
 10
1.695868598090277
 20
-0.9496527777777776
 10
1.695868598090277
 20
-0.9508463541666666
 10
1.695651584201388
 20
-0.9518500434027776
 10
1.69521755642361
 20
-0.952663845486111
 10
1.694783528645833
 20
-0.9534776475694444
 10
1.69375271267361
 20
-0.9541558159722221
 10
1.692125108506944
 20
-0.9546983506944444
 10
1.690497504340277
 20
-0.9552408854166666
 10
1.6881103515625
 20
-0.9556206597222221
 10
1.68496365017361
 20
-0.955837673611111
 10
1.681816948784722
 20
-0.9560546875
 10
1.677530924479166
 20
-0.9561631944444444
 10
1.672105577256944
 20
-0.9561631944444444
 10
1.667548285590277
 20
-0.9561631944444444
 10
1.663913302951388
 20
-0.9560546875
 10
1.661200629340277
 20
-0.955837673611111
 10
1.658487955729166
 20
-0.9556206597222221
 10
1.656344943576388
 20
-0.9552137586805555
 10
1.654771592881944
 20
-0.954616970486111
 10
1.6531982421875
 20
-0.9540201822916666
 10
1.652086046006944
 20
-0.9532606336805555
 10
1.651435004340277
 20
-0.9523383246527776
 10
1.65078396267361
 20
-0.951416015625
 10
1.650241427951388
 20
-0.9503038194444444
 10
1.64980740017361
 20
-0.949001736111111
 10
1.64980740017361
 20
-0.949001736111111
 10
1.630927191840277
 20
-0.9019639756944444
 10
1.630927191840277
 20
-0.9019639756944444
 10
1.628648546006944
 20
-0.8966471354166666
 10
1.626424153645833
 20
-0.8919270833333332
 10
1.624254014756944
 20
-0.8878038194444444
 10
1.622083875868055
 20
-0.8836805555555555
 10
1.619669596354166
 20
-0.8802354600694444
 10
1.617011176215277
 20
-0.877468532986111
 10
1.614352756076388
 20
-0.8747016059027776
 10
1.611287434895833
 20
-0.8726128472222221
 10
1.60781521267361
 20
-0.8712022569444444
 10
1.604342990451388
 20
-0.8697916666666666
 10
1.600328233506944
 20
-0.8690863715277776
 10
1.595770941840277
 20
-0.8690863715277776
 10
1.595770941840277
 20
-0.8690863715277776
 10
1.58242458767361
 20
-0.8690863715277776
 10
1.58242458767361
 20
-0.8690863715277776
 10
1.58242458767361
 20
-0.8690863715277776
 10
1.58242458767361
 20
-0.9493272569444444
 10
1.58242458767361
 20
-0.9493272569444444
 10
1.58242458767361
 20
-0.9504123263888889
 10
1.582071940104166
 20
-0.9513888888888889
 10
1.581366644965277
 20
-0.9522569444444444
 10
1.580661349826388
 20
-0.953125
 10
1.57949490017361
 20
-0.9538302951388889
 10
1.577867296006944
 20
-0.954372829861111
 10
1.576239691840277
 20
-0.9549153645833332
 10
1.574069552951388
 20
-0.955349392361111
 10
1.571356879340277
 20
-0.9556749131944444
 10
1.568644205729166
 20
-0.9560004340277776
 10
1.565171983506944
 20
-0.9561631944444444
 10
1.56094021267361
 20
-0.9561631944444444
 10
1.556816948784722
 20
-0.9561631944444444
 10
1.55337185329861
 20
-0.9560004340277776
 10
1.550604926215277
 20
-0.9556749131944444
 10
1.547837999131944
 20
-0.955349392361111
 10
1.545640733506944
 20
-0.9549153645833332
 10
1.544013129340277
 20
-0.954372829861111
 10
1.54238552517361
 20
-0.9538302951388889
 10
1.541246202256944
 20
-0.953125
 10
1.540595160590277
 20
-0.9522569444444444
 10
1.53994411892361
 20
-0.9513888888888889
 10
1.539618598090277
 20
-0.9504123263888889
 10
1.539618598090277
 20
-0.9493272569444444
 10
1.539618598090277
 20
-0.9493272569444444
 10
1.539618598090277
 20
-0.7580837673611111
 10
1.539618598090277
 20
-0.7580837673611111
 10
1.539618598090277
 20
-0.7533094618055555
 10
1.540839301215277
 20
-0.7498643663194445
 10
1.543280707465277
 20
-0.7477484809027778
 10
1.545722113715277
 20
-0.7456325954861111
 10
1.54873318142361
 20
-0.7445746527777778
 10
1.552313910590277
 20
-0.7445746527777778
 10
1.552313910590277
 20
-0.7445746527777778
 10
1.60683865017361
 20
-0.7445746527777778
 10
1.60683865017361
 20
-0.7445746527777778
 10
1.612372504340277
 20
-0.7445746527777778
 10
1.616929796006944
 20
-0.7446831597222223
 10
1.62051052517361
 20
-0.7449001736111111
 10
1.624091254340277
 20
-0.7451171875
 10
1.62734646267361
 20
-0.7453884548611111
 10
1.63027615017361
 20
-0.7457139756944445
 10
1.638739691840277
 20
-0.7469075520833333
 10
1.6463623046875
 20
-0.7489691840277778
 10
1.653143988715277
 20
-0.7518988715277778
 10
1.659925672743055
 20
-0.7548285590277778
 10
1.66567654079861
 20
-0.7586534288194445
 10
1.670396592881944
 20
-0.7633734809027778
 10
1.675116644965277
 20
-0.7680935329861111
 10
1.678724500868055
 20
-0.773681640625
 10
1.681220160590277
 20
-0.7801378038194445
 10
1.6837158203125
 20
-0.7865939670138889
 10
1.68496365017361
 20
-0.7939995659722223
 10
1.68496365017361
 20
-0.8023546006944444
 10
1.68496365017361
 20
-0.8094075520833332
 10
1.684068467881944
 20
-0.8158365885416666
 10
1.68227810329861
 20
-0.8216417100694444
 10
1.680487738715277
 20
-0.8274468315972221
 10
1.6778564453125
 20
-0.8326280381944444
 10
1.674384223090277
 20
-0.837185329861111
 10
1.670912000868055
 20
-0.8417426215277776
 10
1.6666259765625
 20
-0.845703125
 10
1.66152615017361
 20
-0.8490668402777776
 10
1.656426323784722
 20
-0.8524305555555555
 10
1.650621202256944
 20
-0.8551432291666666
 10
1.644110785590277
 20
-0.857204861111111
 10
1.647257486979166
 20
-0.8587239583333332
 10
1.650214301215277
 20
-0.8605685763888889
 10
1.65298122829861
 20
-0.8627387152777776
 10
1.655748155381944
 20
-0.8649088541666666
 10
1.65835232204861
 20
-0.8675401475694444
 10
1.66079372829861
 20
-0.870632595486111
 10
1.66323513454861
 20
-0.8737250434027776
 10
1.665540907118055
 20
-0.8772515190972221
 10
1.667711046006944
 20
-0.8812120225694444
 10
1.669881184895833
 20
-0.8851725260416666
 10
1.6719970703125
 20
-0.8896484375
 10
1.674058702256944
 20
-0.8946397569444444
 10
1.674058702256944
 20
-0.8946397569444444
 10
1.69179958767361
 20
-0.9361436631944444
 10
1.69179958767361
 20
-0.9361436631944444
 10
1.693427191840277
 20
-0.9402669270833332
 10
1.694512261284722
 20
-0.9432779947916666
 10
1.695054796006944
 20
-0.9451768663194444
 10
1.695597330729166
 20
-0.9470757378472221
 10
1.695868598090277
 20
-0.9485677083333332
 10
1.695868598090277
 20
-0.9496527777777776
 97
        0
 97
        1
330
8E
 75
     2
 76
     1
 98
        1
 10
0.0
 20
0.0
450
        0
451
        0
460
0.0
461
0.0
452
        0
462
0.0
453
        0
470

  0
SPLINE
  5
90
330
79
100
AcDbEntity
  8
Layer 1
100
AcDbSpline
210
0.0
220
0.0
230
1.0
 70
    11
 71
     3
 72
    71
 73
    67
 74
     0
 42
0.0000000001
 43
0.0000000001
 40
0.0
 40
0.0
 40
0.0
 40
0.0
 40
1.0
 40
1.0
 40
1.0
 40
2.0
 40
2.0
 40
2.0
 40
3.0
 40
3.0
 40
3.0
 40
4.0
 40
4.0
 40
4.0
 40
5.0
 40
5.0
 40
5.0
 40
6.0
 40
6.0
 40
6.0
 40
7.0
 40
7.0
 40
7.0
 40
8.0
 40
8.0
 40
8.0
 40
9.0
 40
9.0
 40
9.0
 40
10.0
 40
10.0
 40
10.0
 40
11.0
 40
11.0
 40
11.0
 40
12.0
 40
12.0
 40
12.0
 40
13.0
 40
13.0
 40
13.0
 40
14.0
 40
14.0
 40
14.0
 40
15.0
 40
15.0
 40
15.0
 40
16.0
 40
16.0
 40
16.0
 40
17.0
 40
17.0
 40
17.0
 40
18.0
 40
18.0
 40
18.0
 40
19.0
 40
19.0
 40
19.0
 40
20.0
 40
20.0
 40
20.0
 40
21.0
 40
21.0
 40
21.0
 40
22.0
 40
22.0
 40
22.0
 40
22.0
 10
1.843004014756944
 20
-0.937282986111111
 30
0.0
 10
1.843004014756944
 20
-0.9405381944444444
 30
0.0
 10
1.842868381076388
 20
-0.9432779947916666
 30
0.0
 10
1.842597113715277
 20
-0.9455023871527776
 30
0.0
 10
1.842325846354166
 20
-0.9477267795138889
 30
0.0
 10
1.8419189453125
 20
-0.9495713975694444
 30
0.0
 10
1.841376410590277
 20
-0.9510362413194444
 30
0.0
 10
1.840833875868055
 20
-0.9525010850694444
 30
0.0
 10
1.840155707465277
 20
-0.9535590277777776
 30
0.0
 10
1.839341905381944
 20
-0.9542100694444444
 30
0.0
 10
1.83852810329861
 20
-0.954861111111111
 30
0.0
 10
1.837578667534722
 20
-0.9551866319444444
 30
0.0
 10
1.836493598090277
 20
-0.9551866319444444
 30
0.0
 10
1.836493598090277
 20
-0.9551866319444444
 30
0.0
 10
1.739976671006944
 20
-0.9551866319444444
 30
0.0
 10
1.739976671006944
 20
-0.9551866319444444
 30
0.0
 10
1.736395941840277
 20
-0.9551866319444444
 30
0.0
 10
1.733384874131944
 20
-0.954128689236111
 30
0.0
 10
1.730943467881944
 20
-0.9520128038194444
 30
0.0
 10
1.728502061631944
 20
-0.9498969184027776
 30
0.0
 10
1.727281358506944
 20
-0.9464518229166666
 30
0.0
 10
1.727281358506944
 20
-0.941677517361111
 30
0.0
 10
1.727281358506944
 20
-0.941677517361111
 30
0.0
 10
1.727281358506944
 20
-0.7504340277777778
 30
0.0
 10
1.727281358506944
 20
-0.7504340277777778
 30
0.0
 10
1.727281358506944
 20
-0.7493489583333333
 30
0.0
 10
1.727634006076388
 20
-0.7483723958333333
 30
0.0
 10
1.728339301215277
 20
-0.7475043402777778
 30
0.0
 10
1.729044596354166
 20
-0.7466362847222223
 30
0.0
 10
1.730211046006944
 20
-0.7459309895833333
 30
0.0
 10
1.73183865017361
 20
-0.7453884548611111
 30
0.0
 10
1.733466254340277
 20
-0.7448459201388889
 30
0.0
 10
1.735663519965277
 20
-0.7444118923611111
 30
0.0
 10
1.73843044704861
 20
-0.7440863715277778
 30
0.0
 10
1.741197374131944
 20
-0.7437608506944445
 30
0.0
 10
1.744642469618055
 20
-0.7435980902777778
 30
0.0
 10
1.748765733506944
 20
-0.7435980902777778
 30
0.0
 10
1.752997504340277
 20
-0.7435980902777778
 30
0.0
 10
1.7564697265625
 20
-0.7437608506944445
 30
0.0
 10
1.75918240017361
 20
-0.7440863715277778
 30
0.0
 10
1.761895073784722
 20
-0.7444118923611111
 30
0.0
 10
1.76406521267361
 20
-0.7448459201388889
 30
0.0
 10
1.765692816840277
 20
-0.7453884548611111
 30
0.0
 10
1.767320421006944
 20
-0.7459309895833333
 30
0.0
 10
1.768486870659722
 20
-0.7466362847222223
 30
0.0
 10
1.76919216579861
 20
-0.7475043402777778
 30
0.0
 10
1.7698974609375
 20
-0.7483723958333333
 30
0.0
 10
1.770250108506944
 20
-0.7493489583333333
 30
0.0
 10
1.770250108506944
 20
-0.7504340277777778
 30
0.0
 10
1.770250108506944
 20
-0.7504340277777778
 30
0.0
 10
1.770250108506944
 20
-0.9198676215277776
 30
0.0
 10
1.770250108506944
 20
-0.9198676215277776
 30
0.0
 10
1.770250108506944
 20
-0.9198676215277776
 30
0.0
 10
1.836493598090277
 20
-0.9198676215277776
 30
0.0
 10
1.836493598090277
 20
-0.9198676215277776
 30
0.0
 10
1.837578667534722
 20
-0.9198676215277776
 30
0.0
 10
1.83852810329861
 20
-0.920166015625
 30
0.0
 10
1.839341905381944
 20
-0.9207628038194444
 30
0.0
 10
1.840155707465277
 20
-0.9213595920138889
 30
0.0
 10
1.840833875868055
 20
-0.9223361545138889
 30
0.0
 10
1.841376410590277
 20
-0.9236924913194444
 30
0.0
 10
1.8419189453125
 20
-0.925048828125
 30
0.0
 10
1.842325846354166
 20
-0.9268391927083332
 30
0.0
 10
1.842597113715277
 20
-0.9290635850694444
 30
0.0
 10
1.842868381076388
 20
-0.9312879774305555
 30
0.0
 10
1.843004014756944
 20
-0.9340277777777776
 30
0.0
 10
1.843004014756944
 20
-0.937282986111111
 30
0.0
  0
HATCH
  5
91
330
79
100
AcDbEntity
  8
Layer 1
 62
   250
420
  2301728
440
 33554687
100
AcDbHatch
 10
0.0
 20
0.0
 30
0.0
210
0.0
220
0.0
230
1.0
  2
SOLID
 70
     1
 71
     1
 91
        1
 92
        1
 93
        1
 72
     4
 94
        3
 73
     0
 74
     0
 95
       71
 96
       67
 40
0.0
 40
0.0
 40
0.0
 40
0.0
 40
1.0
 40
1.0
 40
1.0
 40
2.0
 40
2.0
 40
2.0
 40
3.0
 40
3.0
 40
3.0
 40
4.0
 40
4.0
 40
4.0
 40
5.0
 40
5.0
 40
5.0
 40
6.0
 40
6.0
 40
6.0
 40
7.0
 40
7.0
 40
7.0
 40
8.0
 40
8.0
 40
8.0
 40
9.0
 40
9.0
 40
9.0
 40
10.0
 40
10.0
 40
10.0
 40
11.0
 40
11.0
 40
11.0
 40
12.0
 40
12.0
 40
12.0
 40
13.0
 40
13.0
 40
13.0
 40
14.0
 40
14.0
 40
14.0
 40
15.0
 40
15.0
 40
15.0
 40
16.0
 40
16.0
 40
16.0
 40
17.0
 40
17.0
 40
17.0
 40
18.0
 40
18.0
 40
18.0
 40
19.0
 40
19.0
 40
19.0
 40
20.0
 40
20.0
 40
20.0
 40
21.0
 40
21.0
 40
21.0
 40
22.0
 40
22.0
 40
22.0
 40
22.0
 10
1.843004014756944
 20
-0.937282986111111
 10
1.843004014756944
 20
-0.9405381944444444
 10
1.842868381076388
 20
-0.9432779947916666
 10
1.842597113715277
 20
-0.9455023871527776
 10
1.842325846354166
 20
-0.9477267795138889
 10
1.8419189453125
 20
-0.9495713975694444
 10
1.841376410590277
 20
-0.9510362413194444
 10
1.840833875868055
 20
-0.9525010850694444
 10
1.840155707465277
 20
-0.9535590277777776
 10
1.839341905381944
 20
-0.9542100694444444
 10
1.83852810329861
 20
-0.954861111111111
 10
1.837578667534722
 20
-0.9551866319444444
 10
1.836493598090277
 20
-0.9551866319444444
 10
1.836493598090277
 20
-0.9551866319444444
 10
1.739976671006944
 20
-0.9551866319444444
 10
1.739976671006944
 20
-0.9551866319444444
 10
1.736395941840277
 20
-0.9551866319444444
 10
1.733384874131944
 20
-0.954128689236111
 10
1.730943467881944
 20
-0.9520128038194444
 10
1.728502061631944
 20
-0.9498969184027776
 10
1.727281358506944
 20
-0.9464518229166666
 10
1.727281358506944
 20
-0.941677517361111
 10
1.727281358506944
 20
-0.941677517361111
 10
1.727281358506944
 20
-0.7504340277777778
 10
1.727281358506944
 20
-0.7504340277777778
 10
1.727281358506944
 20
-0.7493489583333333
 10
1.727634006076388
 20
-0.7483723958333333
 10
1.728339301215277
 20
-0.7475043402777778
 10
1.729044596354166
 20
-0.7466362847222223
 10
1.730211046006944
 20
-0.7459309895833333
 10
1.73183865017361
 20
-0.7453884548611111
 10
1.733466254340277
 20
-0.7448459201388889
 10
1.735663519965277
 20
-0.7444118923611111
 10
1.73843044704861
 20
-0.7440863715277778
 10
1.741197374131944
 20
-0.7437608506944445
 10
1.744642469618055
 20
-0.7435980902777778
 10
1.748765733506944
 20
-0.7435980902777778
 10
1.752997504340277
 20
-0.7435980902777778
 10
1.7564697265625
 20
-0.7437608506944445
 10
1.75918240017361
 20
-0.7440863715277778
 10
1.761895073784722
 20
-0.7444118923611111
 10
1.76406521267361
 20
-0.7448459201388889
 10
1.765692816840277
 20
-0.7453884548611111
 10
1.767320421006944
 20
-0.7459309895833333
 10
1.768486870659722
 20
-0.7466362847222223
 10
1.76919216579861
 20
-0.7475043402777778
 10
1.7698974609375
 20
-0.7483723958333333
 10
1.770250108506944
 20
-0.7493489583333333
 10
1.770250108506944
 20
-0.7504340277777778
 10
1.770250108506944
 20
-0.7504340277777778
 10
1.770250108506944
 20
-0.9198676215277776
 10
1.770250108506944
 20
-0.9198676215277776
 10
1.770250108506944
 20
-0.9198676215277776
 10
1.836493598090277
 20
-0.9198676215277776
 10
1.836493598090277
 20
-0.9198676215277776
 10
1.837578667534722
 20
-0.9198676215277776
 10
1.83852810329861
 20
-0.920166015625
 10
1.839341905381944
 20
-0.9207628038194444
 10
1.840155707465277
 20
-0.9213595920138889
 10
1.840833875868055
 20
-0.9223361545138889
 10
1.841376410590277
 20
-0.9236924913194444
 10
1.8419189453125
 20
-0.925048828125
 10
1.842325846354166
 20
-0.9268391927083332
 10
1.842597113715277
 20
-0.9290635850694444
 10
1.842868381076388
 20
-0.9312879774305555
 10
1.843004014756944
 20
-0.9340277777777776
 10
1.843004014756944
 20
-0.937282986111111
 97
        0
 97
        1
330
90
 75
     2
 76
     1
 98
        1
 10
0.0
 20
0.0
450
        0
451
        0
460
0.0
461
0.0
452
        0
462
0.0
453
        0
470

  0
SPLINE
  5
92
330
79
100
AcDbEntity
  8
Layer 1
100
AcDbSpline
210
0.0
220
0.0
230
1.0
 70
     9
 71
     3
 72
    38
 73
    34
 74
     0
 42
0.0000000001
 43
0.0000000001
 40
0.0
 40
0.0
 40
0.0
 40
0.0
 40
1.0
 40
1.0
 40
1.0
 40
2.0
 40
2.0
 40
2.0
 40
3.0
 40
3.0
 40
3.0
 40
4.0
 40
4.0
 40
4.0
 40
5.0
 40
5.0
 40
5.0
 40
6.0
 40
6.0
 40
6.0
 40
7.0
 40
7.0
 40
7.0
 40
8.0
 40
8.0
 40
8.0
 40
9.0
 40
9.0
 40
9.0
 40
10.0
 40
10.0
 40
10.0
 40
11.0
 40
11.0
 40
11.0
 40
11.0
 10
1.99892849392361
 20
-0.8482530381944444
 30
0.0
 10
1.99892849392361
 20
-0.8382703993055555
 30
0.0
 10
1.997762044270833
 20
-0.8289930555555555
 30
0.0
 10
1.995429144965277
 20
-0.8204210069444444
 30
0.0
 10
1.993096245659722
 20
-0.8118489583333332
 30
0.0
 10
1.989352756076388
 20
-0.8044162326388889
 30
0.0
 10
1.984198676215277
 20
-0.7981228298611111
 30
0.0
 10
1.979044596354166
 20
-0.7918294270833333
 30
0.0
 10
1.972425672743055
 20
-0.7869194878472223
 30
0.0
 10
1.964341905381944
 20
-0.7833930121527777
 30
0.0
 10
1.956258138020833
 20
-0.7798665364583333
 30
0.0
 10
1.945651584201388
 20
-0.7781032986111111
 30
0.0
 10
1.93252224392361
 20
-0.7781032986111111
 30
0.0
 10
1.93252224392361
 20
-0.7781032986111111
 30
0.0
 10
1.910875108506944
 20
-0.7781032986111111
 30
0.0
 10
1.910875108506944
 20
-0.7781032986111111
 30
0.0
 10
1.910875108506944
 20
-0.7781032986111111
 30
0.0
 10
1.910875108506944
 20
-0.9213324652777776
 30
0.0
 10
1.910875108506944
 20
-0.9213324652777776
 30
0.0
 10
1.910875108506944
 20
-0.9213324652777776
 30
0.0
 10
1.933173285590277
 20
-0.9213324652777776
 30
0.0
 10
1.933173285590277
 20
-0.9213324652777776
 30
0.0
 10
1.944892035590277
 20
-0.9213324652777776
 30
0.0
 10
1.954766167534722
 20
-0.9198133680555555
 30
0.0
 10
1.96279568142361
 20
-0.916775173611111
 30
0.0
 10
1.9708251953125
 20
-0.9137369791666666
 30
0.0
 10
1.977525499131944
 20
-0.9091525607638889
 30
0.0
 10
1.982896592881944
 20
-0.9030219184027776
 30
0.0
 10
1.988267686631944
 20
-0.8968912760416666
 30
0.0
 10
1.992282443576388
 20
-0.8892686631944444
 30
0.0
 10
1.994940863715277
 20
-0.880154079861111
 30
0.0
 10
1.997599283854166
 20
-0.8710394965277776
 30
0.0
 10
1.99892849392361
 20
-0.8604058159722221
 30
0.0
 10
1.99892849392361
 20
-0.8482530381944444
 30
0.0
  0
SPLINE
  5
93
330
79
100
AcDbEntity
  8
Layer 1
100
AcDbSpline
210
0.0
220
0.0
230
1.0
 70
     9
 71
     3
 72
    50
 73
    46
 74
     0
 42
0.0000000001
 43
0.0000000001
 40
0.0
 40
0.0
 40
0.0
 40
0.0
 40
1.0
 40
1.0
 40
1.0
 40
2.0
 40
2.0
 40
2.0
 40
3.0
 40
3.0
 40
3.0
 40
4.0
 40
4.0
 40
4.0
 40
5.0
 40
5.0
 40
5.0
 40
6.0
 40
6.0
 40
6.0
 40
7.0
 40
7.0
 40
7.0
 40
8.0
 40
8.0
 40
8.0
 40
9.0
 40
9.0
 40
9.0
 40
10.0
 40
10.0
 40
10.0
 40
11.0
 40
11.0
 40
11.0
 40
12.0
 40
12.0
 40
12.0
 40
13.0
 40
13.0
 40
13.0
 40
14.0
 40
14.0
 40
14.0
 40
15.0
 40
15.0
 40
15.0
 40
15.0
 10
2.043199327256944
 20
-0.8467881944444444
 30
0.0
 10
2.043199327256944
 20
-0.8661024305555555
 30
0.0
 10
2.040676540798611
 20
-0.8826226128472221
 30
0.0
 10
2.035630967881944
 20
-0.8963487413194444
 30
0.0
 10
2.030585394965277
 20
-0.9100748697916666
 30
0.0
 10
2.023342556423611
 20
-0.9212782118055555
 30
0.0
 10
2.013902452256944
 20
-0.929958767361111
 30
0.0
 10
2.004462348090277
 20
-0.9386393229166666
 30
0.0
 10
1.992987738715277
 20
-0.9450141059027776
 30
0.0
 10
1.979478624131944
 20
-0.9490831163194444
 30
0.0
 10
1.96596950954861
 20
-0.953152126736111
 30
0.0
 10
1.949883355034722
 20
-0.9551866319444444
 30
0.0
 10
1.931220160590277
 20
-0.9551866319444444
 30
0.0
 10
1.931220160590277
 20
-0.9551866319444444
 30
0.0
 10
1.880927191840277
 20
-0.9551866319444444
 30
0.0
 10
1.880927191840277
 20
-0.9551866319444444
 30
0.0
 10
1.87734646267361
 20
-0.9551866319444444
 30
0.0
 10
1.874335394965277
 20
-0.954128689236111
 30
0.0
 10
1.871893988715277
 20
-0.9520128038194444
 30
0.0
 10
1.869452582465277
 20
-0.9498969184027776
 30
0.0
 10
1.868231879340277
 20
-0.9464518229166666
 30
0.0
 10
1.868231879340277
 20
-0.941677517361111
 30
0.0
 10
1.868231879340277
 20
-0.941677517361111
 30
0.0
 10
1.868231879340277
 20
-0.7580837673611111
 30
0.0
 10
1.868231879340277
 20
-0.7580837673611111
 30
0.0
 10
1.868231879340277
 20
-0.7533094618055555
 30
0.0
 10
1.869452582465277
 20
-0.7498643663194445
 30
0.0
 10
1.871893988715277
 20
-0.7477484809027778
 30
0.0
 10
1.874335394965277
 20
-0.7456325954861111
 30
0.0
 10
1.87734646267361
 20
-0.7445746527777778
 30
0.0
 10
1.880927191840277
 20
-0.7445746527777778
 30
0.0
 10
1.880927191840277
 20
-0.7445746527777778
 30
0.0
 10
1.93496365017361
 20
-0.7445746527777778
 30
0.0
 10
1.93496365017361
 20
-0.7445746527777778
 30
0.0
 10
1.9537353515625
 20
-0.7445746527777778
 30
0.0
 10
1.969658745659722
 20
-0.7467719184027778
 30
0.0
 10
1.982733832465277
 20
-0.7511664496527778
 30
0.0
 10
1.995808919270833
 20
-0.7555609809027778
 30
0.0
 10
2.006822374131944
 20
-0.7620713975694445
 30
0.0
 10
2.015774197048611
 20
-0.7706976996527778
 30
0.0
 10
2.024726019965277
 20
-0.7793240017361111
 30
0.0
 10
2.031534830729166
 20
-0.7899848090277777
 30
0.0
 10
2.036200629340277
 20
-0.8026801215277776
 30
0.0
 10
2.040866427951388
 20
-0.8153754340277776
 30
0.0
 10
2.043199327256944
 20
-0.830078125
 30
0.0
 10
2.043199327256944
 20
-0.8467881944444444
 30
0.0
  0
HATCH
  5
94
330
79
100
AcDbEntity
  8
Layer 1
 62
   250
420
  2301728
440
 33554687
100
AcDbHatch
 10
0.0
 20
0.0
 30
0.0
210
0.0
220
0.0
230
1.0
  2
SOLID
 70
     1
 71
     1
 91
        2
 92
        1
 93
        1
 72
     4
 94
        3
 73
     0
 74
     0
 95
       38
 96
       34
 40
0.0
 40
0.0
 40
0.0
 40
0.0
 40
1.0
 40
1.0
 40
1.0
 40
2.0
 40
2.0
 40
2.0
 40
3.0
 40
3.0
 40
3.0
 40
4.0
 40
4.0
 40
4.0
 40
5.0
 40
5.0
 40
5.0
 40
6.0
 40
6.0
 40
6.0
 40
7.0
 40
7.0
 40
7.0
 40
8.0
 40
8.0
 40
8.0
 40
9.0
 40
9.0
 40
9.0
 40
10.0
 40
10.0
 40
10.0
 40
11.0
 40
11.0
 40
11.0
 40
11.0
 10
1.99892849392361
 20
-0.8482530381944444
 10
1.99892849392361
 20
-0.8382703993055555
 10
1.997762044270833
 20
-0.8289930555555555
 10
1.995429144965277
 20
-0.8204210069444444
 10
1.993096245659722
 20
-0.8118489583333332
 10
1.989352756076388
 20
-0.8044162326388889
 10
1.984198676215277
 20
-0.7981228298611111
 10
1.979044596354166
 20
-0.7918294270833333
 10
1.972425672743055
 20
-0.7869194878472223
 10
1.964341905381944
 20
-0.7833930121527777
 10
1.956258138020833
 20
-0.7798665364583333
 10
1.945651584201388
 20
-0.7781032986111111
 10
1.93252224392361
 20
-0.7781032986111111
 10
1.93252224392361
 20
-0.7781032986111111
 10
1.910875108506944
 20
-0.7781032986111111
 10
1.910875108506944
 20
-0.7781032986111111
 10
1.910875108506944
 20
-0.7781032986111111
 10
1.910875108506944
 20
-0.9213324652777776
 10
1.910875108506944
 20
-0.9213324652777776
 10
1.910875108506944
 20
-0.9213324652777776
 10
1.933173285590277
 20
-0.9213324652777776
 10
1.933173285590277
 20
-0.9213324652777776
 10
1.944892035590277
 20
-0.9213324652777776
 10
1.954766167534722
 20
-0.9198133680555555
 10
1.96279568142361
 20
-0.916775173611111
 10
1.9708251953125
 20
-0.9137369791666666
 10
1.977525499131944
 20
-0.9091525607638889
 10
1.982896592881944
 20
-0.9030219184027776
 10
1.988267686631944
 20
-0.8968912760416666
 10
1.992282443576388
 20
-0.8892686631944444
 10
1.994940863715277
 20
-0.880154079861111
 10
1.997599283854166
 20
-0.8710394965277776
 10
1.99892849392361
 20
-0.8604058159722221
 10
1.99892849392361
 20
-0.8482530381944444
 97
        0
 97
        1
330
92
 92
        1
 93
        1
 72
     4
 94
        3
 73
     0
 74
     0
 95
       50
 96
       46
 40
0.0
 40
0.0
 40
0.0
 40
0.0
 40
1.0
 40
1.0
 40
1.0
 40
2.0
 40
2.0
 40
2.0
 40
3.0
 40
3.0
 40
3.0
 40
4.0
 40
4.0
 40
4.0
 40
5.0
 40
5.0
 40
5.0
 40
6.0
 40
6.0
 40
6.0
 40
7.0
 40
7.0
 40
7.0
 40
8.0
 40
8.0
 40
8.0
 40
9.0
 40
9.0
 40
9.0
 40
10.0
 40
10.0
 40
10.0
 40
11.0
 40
11.0
 40
11.0
 40
12.0
 40
12.0
 40
12.0
 40
13.0
 40
13.0
 40
13.0
 40
14.0
 40
14.0
 40
14.0
 40
15.0
 40
15.0
 40
15.0
 40
15.0
 10
2.043199327256944
 20
-0.8467881944444444
 10
2.043199327256944
 20
-0.8661024305555555
 10
2.040676540798611
 20
-0.8826226128472221
 10
2.035630967881944
 20
-0.8963487413194444
 10
2.030585394965277
 20
-0.9100748697916666
 10
2.023342556423611
 20
-0.9212782118055555
 10
2.013902452256944
 20
-0.929958767361111
 10
2.004462348090277
 20
-0.9386393229166666
 10
1.992987738715277
 20
-0.9450141059027776
 10
1.979478624131944
 20
-0.9490831163194444
 10
1.96596950954861
 20
-0.953152126736111
 10
1.949883355034722
 20
-0.9551866319444444
 10
1.931220160590277
 20
-0.9551866319444444
 10
1.931220160590277
 20
-0.9551866319444444
 10
1.880927191840277
 20
-0.9551866319444444
 10
1.880927191840277
 20
-0.9551866319444444
 10
1.87734646267361
 20
-0.9551866319444444
 10
1.874335394965277
 20
-0.954128689236111
 10
1.871893988715277
 20
-0.9520128038194444
 10
1.869452582465277
 20
-0.9498969184027776
 10
1.868231879340277
 20
-0.9464518229166666
 10
1.868231879340277
 20
-0.941677517361111
 10
1.868231879340277
 20
-0.941677517361111
 10
1.868231879340277
 20
-0.7580837673611111
 10
1.868231879340277
 20
-0.7580837673611111
 10
1.868231879340277
 20
-0.7533094618055555
 10
1.869452582465277
 20
-0.7498643663194445
 10
1.871893988715277
 20
-0.7477484809027778
 10
1.874335394965277
 20
-0.7456325954861111
 10
1.87734646267361
 20
-0.7445746527777778
 10
1.880927191840277
 20
-0.7445746527777778
 10
1.880927191840277
 20
-0.7445746527777778
 10
1.93496365017361
 20
-0.7445746527777778
 10
1.93496365017361
 20
-0.7445746527777778
 10
1.9537353515625
 20
-0.7445746527777778
 10
1.969658745659722
 20
-0.7467719184027778
 10
1.982733832465277
 20
-0.7511664496527778
 10
1.995808919270833
 20
-0.7555609809027778
 10
2.006822374131944
 20
-0.7620713975694445
 10
2.015774197048611
 20
-0.7706976996527778
 10
2.024726019965277
 20
-0.7793240017361111
 10
2.031534830729166
 20
-0.7899848090277777
 10
2.036200629340277
 20
-0.8026801215277776
 10
2.040866427951388
 20
-0.8153754340277776
 10
2.043199327256944
 20
-0.830078125
 10
2.043199327256944
 20
-0.8467881944444444
 97
        0
 97
        1
330
93
 75
     2
 76
     1
 98
        1
 10
0.0
 20
0.0
450
        0
451
        0
460
0.0
461
0.0
452
        0
462
0.0
453
        0
470

  0
ENDBLK
  5
7C
330
79
100
AcDbEntity
  8
0
100
AcDbBlockEnd
  0
ENDSEC
  0
SECTION
  2
ENTITIES
  0
INSERT
  5
7A
330
70
100
AcDbEntity
  8
Layer 1
100
AcDbBlockReference
  2
Block_0
 10
0.0
 20
0.0
 30
0.0
  0
ENDSEC
  0
SECTION
  2
OBJECTS
  0
DICTIONARY
  5
C
330
0
100
AcDbDictionary
281
     1
  3
ACAD_COLOR
350
63
  3
ACAD_DETAILVIEWSTYLE
350
6A
  3
ACAD_GROUP
350
D
  3
ACAD_LAYOUT
350
62
  3
ACAD_MATERIAL
350
10
  3
ACAD_MLEADERSTYLE
350
66
  3
ACAD_MLINESTYLE
350
5F
  3
ACAD_PLOTSETTINGS
350
61
  3
ACAD_PLOTSTYLENAME
350
E
  3
ACAD_SCALELIST
350
42
  3
ACAD_SECTIONVIEWSTYLE
350
68
  3
ACAD_TABLESTYLE
350
64
  3
ACAD_VISUALSTYLE
350
29
  3
ACDB_RECOMPOSE_DATA
350
9D
  3
AcDbVariableDictionary
350
95
  0
DICTIONARY
  5
63
102
{ACAD_REACTORS
330
C
102
}
330
C
100
AcDbDictionary
281
     1
  0
DICTIONARY
  5
6A
102
{ACAD_REACTORS
330
C
102
}
330
C
100
AcDbDictionary
281
     1
  3
Imperial24
350
6B
  0
DICTIONARY
  5
D
102
{ACAD_REACTORS
330
C
102
}
330
C
100
AcDbDictionary
281
     1
  0
DICTIONARY
  5
62
102
{ACAD_REACTORS
330
C
102
}
330
C
100
AcDbDictionary
281
     1
  3
Layout1
350
6F
  3
Layout2
350
77
  3
Model
350
73
  0
DICTIONARY
  5
10
102
{ACAD_REACTORS
330
C
102
}
330
C
100
AcDbDictionary
281
     1
  3
ByBlock
350
19
  3
ByLayer
350
11
  3
Global
350
21
  0
DICTIONARY
  5
66
102
{ACAD_REACTORS
330
C
102
}
330
C
100
AcDbDictionary
281
     1
  3
Standard
350
67
  0
DICTIONARY
  5
5F
102
{ACAD_REACTORS
330
C
102
}
330
C
100
AcDbDictionary
281
     1
  3
Standard
350
60
  0
DICTIONARY
  5
61
102
{ACAD_REACTORS
330
C
102
}
330
C
100
AcDbDictionary
281
     1
  0
ACDBDICTIONARYWDFLT
  5
E
102
{ACAD_REACTORS
330
C
102
}
330
C
100
AcDbDictionary
281
     1
  3
Normal
350
F
100
AcDbDictionaryWithDefault
340
F
  0
DICTIONARY
  5
42
102
{ACAD_REACTORS
330
C
102
}
330
C
100
AcDbDictionary
281
     1
  3
A0
350
43
  3
A1
350
44
  3
A2
350
45
  3
A3
350
46
  3
A4
350
47
  3
A5
350
48
  3
A6
350
49
  3
A7
350
4A
  3
A8
350
4B
  3
A9
350
4C
  3
B0
350
4D
  3
B1
350
4E
  3
B2
350
4F
  3
B3
350
50
  3
B4
350
51
  3
B5
350
52
  3
B6
350
53
  0
DICTIONARY
  5
68
102
{ACAD_REACTORS
330
C
102
}
330
C
100
AcDbDictionary
281
     1
  3
Imperial24
350
69
  0
DICTIONARY
  5
64
102
{ACAD_REACTORS
330
C
102
}
330
C
100
AcDbDictionary
281
     1
  3
Standard
350
65
  0
DICTIONARY
  5
29
102
{ACAD_REACTORS
330
C
102
}
330
C
100
AcDbDictionary
281
     1
  3
2dWireframe
350
2F
  3
Basic
350
2E
  3
Brighten
350
35
  3
ColorChange
350
39
  3
Conceptual
350
32
  3
Dim
350
34
  3
EdgeColorOff
350
41
  3
Facepattern
350
38
  3
Flat
350
2A
  3
FlatWithEdges
350
2B
  3
Gouraud
350
2C
  3
GouraudWithEdges
350
2D
  3
Hidden
350
31
  3
JitterOff
350
3F
  3
Linepattern
350
37
  3
OverhangOff
350
40
  3
Realistic
350
33
  3
Shaded
350
3E
  3
Shaded with edges
350
3D
  3
Shades of Gray
350
3A
  3
Sketchy
350
3B
  3
Thicken
350
36
  3
Wireframe
350
30
  3
X-Ray
350
3C
  0
XRECORD
  5
9D
102
{ACAD_REACTORS
330
C
102
}
330
C
100
AcDbXrecord
280
     1
 90
        1
330
65
  0
DICTIONARY
  5
95
102
{ACAD_REACTORS
330
C
102
}
330
C
100
AcDbDictionary
281
     1
  3
CANNOSCALE
350
9A
  3
CMLEADERSTYLE
350
97
  3
CTABLESTYLE
350
96
  3
CVIEWDETAILSTYLE
350
98
  3
CVIEWSECTIONSTYLE
350
99
  0
ACDBDETAILVIEWSTYLE
  5
6B
102
{ACAD_REACTORS
330
6A
102
}
330
6A
100
AcDbModelDocViewStyle
 70
     0
  3
Imperial24
290
     1
300
Imperial24
 90
        0
100
AcDbDetailViewStyle
 70
     0
 71
     0
 90
        3
 71
     1
340
55
 62
   256
 40
0.24
340
0
 62
   256
 40
0.24
300

 40
0.36
280
     3
 71
     2
340
5D
 90
       25
 62
   256
 71
     3
340
55
 62
   256
 40
0.24
 90
        1
 40
0.75
 90
        1
300
%<\AcVar ViewType \f "%tc1">% %<\AcVar ViewDetailId>%\PSCALE %<\AcVar ViewScale \f "%sn">%
 71
     4
340
5D
 90
       25
 62
   256
340
5D
 90
       25
 62
   256
280
     0
  0
LAYOUT
  5
6F
102
{ACAD_REACTORS
330
62
102
}
330
62
100
AcDbPlotSettings
  1

  2

  4

  6

 40
0.0
 41
0.0
 42
0.0
 43
0.0
 44
0.0
 45
0.0
 46
0.0
 47
0.0
 48
0.0
 49
0.0
140
0.0
141
0.0
142
1.0
143
1.0
 70
   688
 72
     0
 73
     0
 74
     5
  7

 75
    16
147
1.0
 76
     0
 77
     2
 78
   300
148
0.0
149
0.0
100
AcDbLayout
  1
Layout1
 70
     1
 71
     1
 10
0.0
 20
0.0
 11
12.0
 21
9.0
 12
0.0
 22
0.0
 32
0.0
 14
0.0
 24
0.0
 34
0.0
 15
0.0
 25
0.0
 35
0.0
146
0.0
 13
0.0
 23
0.0
 33
0.0
 16
1.0
 26
0.0
 36
0.0
 17
0.0
 27
1.0
 37
0.0
 76
     0
330
6C
  0
LAYOUT
  5
77
102
{ACAD_REACTORS
330
62
102
}
330
62
100
AcDbPlotSettings
  1

  2

  4

  6

 40
0.0
 41
0.0
 42
0.0
 43
0.0
 44
0.0
 45
0.0
 46
0.0
 47
0.0
 48
0.0
 49
0.0
140
0.0
141
0.0
142
1.0
143
1.0
 70
   688
 72
     0
 73
     0
 74
     5
  7

 75
    16
147
1.0
 76
     0
 77
     2
 78
   300
148
0.0
149
0.0
100
AcDbLayout
  1
Layout2
 70
     1
 71
     2
 10
0.0
 20
0.0
 11
12.0
 21
9.0
 12
0.0
 22
0.0
 32
0.0
 14
0.0
 24
0.0
 34
0.0
 15
0.0
 25
0.0
 35
0.0
146
0.0
 13
0.0
 23
0.0
 33
0.0
 16
1.0
 26
0.0
 36
0.0
 17
0.0
 27
1.0
 37
0.0
 76
     0
330
74
  0
LAYOUT
  5
73
102
{ACAD_REACTORS
330
62
102
}
330
62
100
AcDbPlotSettings
  1

  2

  4

  6

 40
0.0
 41
0.0
 42
0.0
 43
0.0
 44
0.0
 45
0.0
 46
0.0
 47
0.0
 48
0.0
 49
0.0
140
0.0
141
0.0
142
1.0
143
1.0
 70
  1712
 72
     0
 73
     0
 74
     0
  7

 75
     0
147
1.0
 76
     0
 77
     2
 78
   300
148
0.0
149
0.0
100
AcDbLayout
  1
Model
 70
     1
 71
     0
 10
0.0
 20
0.0
 11
12.0
 21
9.0
 12
0.0
 22
0.0
 32
0.0
 14
0.0
 24
0.0
 34
0.0
 15
0.0
 25
0.0
 35
0.0
146
0.0
 13
0.0
 23
0.0
 33
0.0
 16
1.0
 26
0.0
 36
0.0
 17
0.0
 27
1.0
 37
0.0
 76
     0
330
70
  0
MATERIAL
  5
19
102
{ACAD_XDICTIONARY
360
1A
102
}
102
{ACAD_REACTORS
330
10
102
}
330
10
100
AcDbMaterial
  1
ByBlock
 72
     0
 43
0.0208333333333333
 43
0.0
 43
0.0
 43
0.0
 43
0.0
 43
0.0208333333333333
 43
0.0
 43
0.0
 43
0.0
 43
0.0
 43
1.0
 43
0.0
 43
0.0
 43
0.0
 43
0.0
 43
1.0
 77
     0
 47
0.0208333333333333
 47
0.0
 47
0.0
 47
0.0
 47
0.0
 47
0.0208333333333333
 47
0.0
 47
0.0
 47
0.0
 47
0.0
 47
1.0
 47
0.0
 47
0.0
 47
0.0
 47
0.0
 47
1.0
171
     0
 49
0.0208333333333333
 49
0.0
 49
0.0
 49
0.0
 49
0.0
 49
0.0208333333333333
 49
0.0
 49
0.0
 49
0.0
 49
0.0
 49
1.0
 49
0.0
 49
0.0
 49
0.0
 49
0.0
 49
1.0
175
     0
142
0.0208333333333333
142
0.0
142
0.0
142
0.0
142
0.0
142
0.0208333333333333
142
0.0
142
0.0
142
0.0
142
0.0
142
1.0
142
0.0
142
0.0
142
0.0
142
0.0
142
1.0
179
     0
144
0.0208333333333333
144
0.0
144
0.0
144
0.0
144
0.0
144
0.0208333333333333
144
0.0
144
0.0
144
0.0
144
0.0
144
1.0
144
0.0
144
0.0
144
0.0
144
0.0
144
1.0
147
0.0208333333333333
147
0.0
147
0.0
147
0.0
147
0.0
147
0.0208333333333333
147
0.0
147
0.0
147
0.0
147
0.0
147
1.0
147
0.0
147
0.0
147
0.0
147
0.0
147
1.0
  0
MATERIAL
  5
11
102
{ACAD_XDICTIONARY
360
12
102
}
102
{ACAD_REACTORS
330
10
102
}
330
10
100
AcDbMaterial
  1
ByLayer
 72
     0
 43
0.0208333333333333
 43
0.0
 43
0.0
 43
0.0
 43
0.0
 43
0.0208333333333333
 43
0.0
 43
0.0
 43
0.0
 43
0.0
 43
1.0
 43
0.0
 43
0.0
 43
0.0
 43
0.0
 43
1.0
 77
     0
 47
0.0208333333333333
 47
0.0
 47
0.0
 47
0.0
 47
0.0
 47
0.0208333333333333
 47
0.0
 47
0.0
 47
0.0
 47
0.0
 47
1.0
 47
0.0
 47
0.0
 47
0.0
 47
0.0
 47
1.0
171
     0
 49
0.0208333333333333
 49
0.0
 49
0.0
 49
0.0
 49
0.0
 49
0.0208333333333333
 49
0.0
 49
0.0
 49
0.0
 49
0.0
 49
1.0
 49
0.0
 49
0.0
 49
0.0
 49
0.0
 49
1.0
175
     0
142
0.0208333333333333
142
0.0
142
0.0
142
0.0
142
0.0
142
0.0208333333333333
142
0.0
142
0.0
142
0.0
142
0.0
142
1.0
142
0.0
142
0.0
142
0.0
142
0.0
142
1.0
179
     0
144
0.0208333333333333
144
0.0
144
0.0
144
0.0
144
0.0
144
0.0208333333333333
144
0.0
144
0.0
144
0.0
144
0.0
144
1.0
144
0.0
144
0.0
144
0.0
144
0.0
144
1.0
147
0.0208333333333333
147
0.0
147
0.0
147
0.0
147
0.0
147
0.0208333333333333
147
0.0
147
0.0
147
0.0
147
0.0
147
1.0
147
0.0
147
0.0
147
0.0
147
0.0
147
1.0
  0
MATERIAL
  5
21
102
{ACAD_XDICTIONARY
360
22
102
}
102
{ACAD_REACTORS
330
10
102
}
330
10
100
AcDbMaterial
  1
Global
 72
     0
 43
0.0208333333333333
 43
0.0
 43
0.0
 43
0.0
 43
0.0
 43
0.0208333333333333
 43
0.0
 43
0.0
 43
0.0
 43
0.0
 43
1.0
 43
0.0
 43
0.0
 43
0.0
 43
0.0
 43
1.0
 77
     0
 47
0.0208333333333333
 47
0.0
 47
0.0
 47
0.0
 47
0.0
 47
0.0208333333333333
 47
0.0
 47
0.0
 47
0.0
 47
0.0
 47
1.0
 47
0.0
 47
0.0
 47
0.0
 47
0.0
 47
1.0
171
     0
 49
0.0208333333333333
 49
0.0
 49
0.0
 49
0.0
 49
0.0
 49
0.0208333333333333
 49
0.0
 49
0.0
 49
0.0
 49
0.0
 49
1.0
 49
0.0
 49
0.0
 49
0.0
 49
0.0
 49
1.0
175
     0
142
0.0208333333333333
142
0.0
142
0.0
142
0.0
142
0.0
142
0.0208333333333333
142
0.0
142
0.0
142
0.0
142
0.0
142
1.0
142
0.0
142
0.0
142
0.0
142
0.0
142
1.0
179
     0
144
0.0208333333333333
144
0.0
144
0.0
144
0.0
144
0.0
144
0.0208333333333333
144
0.0
144
0.0
144
0.0
144
0.0
144
1.0
144
0.0
144
0.0
144
0.0
144
0.0
144
1.0
147
0.0208333333333333
147
0.0
147
0.0
147
0.0
147
0.0
147
0.0208333333333333
147
0.0
147
0.0
147
0.0
147
0.0
147
1.0
147
0.0
147
0.0
147
0.0
147
0.0
147
1.0
  0
MLEADERSTYLE
  5
67
102
{ACAD_REACTORS
330
66
102
}
330
66
100
AcDbMLeaderStyle
179
     2
170
     2
171
     1
172
     0
 90
        2
 40
0.0
 41
0.0
173
     1
 91
-1056964608
340
5B
 92
       -2
290
     1
 42
0.09
291
     1
 43
0.36
  3
Standard
 44
0.18
300

342
55
174
     1
178
     6
175
     1
176
     0
 93
-1056964608
 45
0.18
292
     0
297
     0
 46
0.18
 94
-1056964608
 47
1.0
 49
1.0
140
1.0
293
     1
141
0.0
294
     1
177
     0
142
1.0
295
     1
296
     0
143
0.125
271
     0
272
     9
273
     9
298
     1
  0
MLINESTYLE
  5
60
102
{ACAD_REACTORS
330
5F
102
}
330
5F
100
AcDbMlineStyle
  2
STANDARD
 70
     0
  3

 62
   256
 51
90.0
 52
90.0
 71
     2
 49
0.5
 62
   256
  6
BYLAYER
 49
-0.5
 62
   256
  6
BYLAYER
  0
ACDBPLACEHOLDER
  5
F
102
{ACAD_REACTORS
330
E
102
}
330
E
  0
SCALE
  5
43
102
{ACAD_REACTORS
330
42
102
}
330
42
100
AcDbScale
 70
     0
300
1:1
140
1.0
141
1.0
290
     1
  0
SCALE
  5
44
102
{ACAD_REACTORS
330
42
102
}
330
42
100
AcDbScale
 70
     0
300
1/128" = 1'-0"
140
0.0078125
141
12.0
290
     0
  0
SCALE
  5
45
102
{ACAD_REACTORS
330
42
102
}
330
42
100
AcDbScale
 70
     0
300
1/64" = 1'-0"
140
0.015625
141
12.0
290
     0
  0
SCALE
  5
46
102
{ACAD_REACTORS
330
42
102
}
330
42
100
AcDbScale
 70
     0
300
1/32" = 1'-0"
140
0.03125
141
12.0
290
     0
  0
SCALE
  5
47
102
{ACAD_REACTORS
330
42
102
}
330
42
100
AcDbScale
 70
     0
300
1/16" = 1'-0"
140
0.0625
141
12.0
290
     0
  0
SCALE
  5
48
102
{ACAD_REACTORS
330
42
102
}
330
42
100
AcDbScale
 70
     0
300
3/32" = 1'-0"
140
0.09375
141
12.0
290
     0
  0
SCALE
  5
49
102
{ACAD_REACTORS
330
42
102
}
330
42
100
AcDbScale
 70
     0
300
1/8" = 1'-0"
140
0.125
141
12.0
290
     0
  0
SCALE
  5
4A
102
{ACAD_REACTORS
330
42
102
}
330
42
100
AcDbScale
 70
     0
300
3/16" = 1'-0"
140
0.1875
141
12.0
290
     0
  0
SCALE
  5
4B
102
{ACAD_REACTORS
330
42
102
}
330
42
100
AcDbScale
 70
     0
300
1/4" = 1'-0"
140
0.25
141
12.0
290
     0
  0
SCALE
  5
4C
102
{ACAD_REACTORS
330
42
102
}
330
42
100
AcDbScale
 70
     0
300
3/8" = 1'-0"
140
0.375
141
12.0
290
     0
  0
SCALE
  5
4D
102
{ACAD_REACTORS
330
42
102
}
330
42
100
AcDbScale
 70
     0
300
1/2" = 1'-0"
140
0.5
141
12.0
290
     0
  0
SCALE
  5
4E
102
{ACAD_REACTORS
330
42
102
}
330
42
100
AcDbScale
 70
     0
300
3/4" = 1'-0"
140
0.75
141
12.0
290
     0
  0
SCALE
  5
4F
102
{ACAD_REACTORS
330
42
102
}
330
42
100
AcDbScale
 70
     0
300
1" = 1'-0"
140
1.0
141
12.0
290
     0
  0
SCALE
  5
50
102
{ACAD_REACTORS
330
42
102
}
330
42
100
AcDbScale
 70
     0
300
1-1/2" = 1'-0"
140
1.5
141
12.0
290
     0
  0
SCALE
  5
51
102
{ACAD_REACTORS
330
42
102
}
330
42
100
AcDbScale
 70
     0
300
3" = 1'-0"
140
3.0
141
12.0
290
     0
  0
SCALE
  5
52
102
{ACAD_REACTORS
330
42
102
}
330
42
100
AcDbScale
 70
     0
300
6" = 1'-0"
140
6.0
141
12.0
290
     0
  0
SCALE
  5
53
102
{ACAD_REACTORS
330
42
102
}
330
42
100
AcDbScale
 70
     0
300
1'-0" = 1'-0"
140
12.0
141
12.0
290
     0
  0
ACDBSECTIONVIEWSTYLE
  5
69
102
{ACAD_REACTORS
330
68
102
}
330
68
100
AcDbModelDocViewStyle
 70
     0
  3
Imperial24
290
     1
300
Imperial24
 90
        0
100
AcDbSectionViewStyle
 70
     0
 71
     0
 90
       78
 71
     1
340
55
 62
   256
 40
0.24
340
0
340
0
 62
   256
 40
0.24
300
I, O, Q, S, X, Z
 40
0.48
 90
        3
 40
0.18
 90
        1
 71
     2
340
5D
 90
       25
 62
   256
340
5D
 90
       50
 62
   256
 40
0.24
 40
0.0
 40
0.24
 71
     3
340
55
 62
   256
 40
0.24
 90
        1
 40
0.75
 90
        1
300
%<\AcVar ViewType \f "%tc1">% %<\AcVar ViewSectionStartId>%-%<\AcVar ViewSectionEndId>%\PSCALE %<\AcVar ViewScale \f "%sn">%
 71
     4
 62
   256
 62
   257
300
ANSI31
 40
1.0
 90
        0
290
     0
290
     0
 90
        6
 40
0.0
 40
1.570796326794896
 40
0.2617993877991494
 40
1.308996938995747
 40
-0.2617993877991494
 40
1.832595714594046
  0
TABLESTYLE
  5
65
102
{ACAD_XDICTIONARY
360
9B
102
}
102
{ACAD_REACTORS
330
64
102
}
330
64
100
AcDbTableStyle
280
     0
  3
Standard
 70
     0
 71
     0
 40
0.06
 41
0.06
280
     0
281
     0
  7
Standard
140
0.18
170
     2
 62
     0
 63
     7
283
     0
 90
      512
 91
        0
  1

274
    -2
284
     1
 64
     0
275
    -2
285
     1
 65
     0
276
    -2
286
     1
 66
     0
277
    -2
287
     1
 67
     0
278
    -2
288
     1
 68
     0
279
    -2
289
     1
 69
     0
  7
Standard
140
0.25
170
     5
 62
     0
 63
     7
283
     0
 90
      512
 91
        0
  1

274
    -2
284
     1
 64
     0
275
    -2
285
     1
 65
     0
276
    -2
286
     1
 66
     0
277
    -2
287
     1
 67
     0
278
    -2
288
     1
 68
     0
279
    -2
289
     1
 69
     0
  7
Standard
140
0.18
170
     5
 62
     0
 63
     7
283
     0
 90
      512
 91
        0
  1

274
    -2
284
     1
 64
     0
275
    -2
285
     1
 65
     0
276
    -2
286
     1
 66
     0
277
    -2
287
     1
 67
     0
278
    -2
288
     1
 68
     0
279
    -2
289
     1
 69
     0
  0
VISUALSTYLE
  5
2F
102
{ACAD_REACTORS
330
29
102
}
330
29
100
AcDbVisualStyle
  2
2dWireframe
 70
     4
177
     3
291
     0
 70
    58
 90
        0
176
     1
 90
        2
176
     1
 90
        0
176
     1
 90
        0
176
     1
 40
0.6
176
     1
 40
30.0
176
     1
 62
     7
420
 16777215
176
     1
 90
        1
176
     1
 90
        4
176
     1
 62
     7
176
     1
 62
   257
176
     1
 90
        1
176
     1
 90
        1
176
     1
 40
1.0
176
     1
 90
        0
176
     1
 62
   257
176
     1
 40
1.0
176
     1
 90
        1
176
     1
 90
        6
176
     1
 90
        2
176
     1
 62
     7
176
     1
 90
        5
176
     1
 90
        0
176
     1
 90
        0
176
     1
290
     0
176
     1
 90
        1
176
     1
 40
0.0
176
     1
 90
        0
176
     1
290
     1
176
     1
290
     1
176
     1
290
     0
176
     1
290
     0
176
     1
290
     0
176
     1
290
     0
176
     1
290
     0
176
     1
290
     0
176
     1
290
     0
176
     1
 90
       50
176
     1
 40
0.0
176
     1
 40
1.0
176
     1
 90
        0
176
     1
 62
    18
420
        0
176
     1
 90
       50
176
     1
 90
        3
176
     1
 62
     5
420
      255
176
     1
290
     0
176
     1
 90
       50
176
     1
 90
       50
176
     1
 90
       50
176
     1
290
     0
176
     1
 90
       50
176
     1
 62
   256
176
     0
 40
1.0
176
     0
 90
        2
176
     1
  1
strokes_ogs.tif
176
     1
290
     0
176
     1
 40
1.0
176
     1
 40
1.0
176
     1
  0
VISUALSTYLE
  5
2E
102
{ACAD_REACTORS
330
29
102
}
330
29
100
AcDbVisualStyle
  2
Basic
 70
     7
177
     3
291
     1
 70
    58
 90
        1
176
     1
 90
        0
176
     1
 90
        1
176
     1
 90
        0
176
     1
 40
0.6
176
     1
 40
30.0
176
     1
 62
     7
420
 16777215
176
     1
 90
        0
176
     1
 90
        4
176
     1
 62
     7
176
     1
 62
   257
176
     1
 90
        1
176
     1
 90
        1
176
     1
 40
1.0
176
     1
 90
        8
176
     1
 62
     7
176
     1
 40
1.0
176
     1
 90
        1
176
     1
 90
        6
176
     1
 90
        2
176
     1
 62
     7
176
     1
 90
        5
176
     1
 90
        0
176
     1
 90
        0
176
     1
290
     0
176
     1
 90
        1
176
     1
 40
0.0
176
     1
 90
        0
176
     1
290
     0
176
     1
290
     1
176
     1
290
     1
176
     1
290
     0
176
     1
290
     0
176
     1
290
     0
176
     1
290
     0
176
     1
290
     0
176
     1
290
     0
176
     1
 90
       50
176
     1
 40
0.0
176
     1
 40
1.0
176
     1
 90
        0
176
     1
 62
    18
420
        0
176
     1
 90
       50
176
     1
 90
        3
176
     1
 62
     5
420
      255
176
     1
290
     0
176
     1
 90
       50
176
     1
 90
       50
176
     1
 90
       50
176
     1
290
     0
176
     1
 90
       50
176
     1
 62
   256
176
     0
 40
1.0
176
     0
 90
        2
176
     1
  1
strokes_ogs.tif
176
     1
290
     0
176
     1
 40
1.0
176
     1
 40
1.0
176
     1
  0
VISUALSTYLE
  5
35
102
{ACAD_REACTORS
330
29
102
}
330
29
100
AcDbVisualStyle
  2
Brighten
 70
    12
177
     3
291
     1
 70
    58
 90
        2
176
     1
 90
        2
176
     1
 90
        0
176
     1
 90
        0
176
     1
 40
0.6
176
     1
 40
30.0
176
     1
 62
     7
420
 16777215
176
     1
 90
        1
176
     1
 90
        4
176
     1
 62
     7
176
     1
 62
   257
176
     1
 90
        1
176
     1
 90
        1
176
     1
 40
1.0
176
     1
 90
        8
176
     1
 62
     7
176
     1
 40
1.0
176
     1
 90
        1
176
     1
 90
        6
176
     1
 90
        2
176
     1
 62
     7
176
     1
 90
        5
176
     1
 90
        0
176
     1
 90
        0
176
     1
290
     0
176
     1
 90
        1
176
     1
 40
50.0
176
     1
 90
        0
176
     1
290
     0
176
     1
290
     1
176
     1
290
     1
176
     1
290
     0
176
     1
290
     0
176
     1
290
     0
176
     1
290
     0
176
     1
290
     0
176
     1
290
     0
176
     1
 90
       50
176
     1
 40
0.0
176
     1
 40
1.0
176
     1
 90
        0
176
     1
 62
    18
420
        0
176
     1
 90
       50
176
     1
 90
        3
176
     1
 62
     5
420
      255
176
     1
290
     0
176
     1
 90
       50
176
     1
 90
       50
176
     1
 90
       50
176
     1
290
     0
176
     1
 90
       50
176
     1
 62
   256
176
     0
 40
1.0
176
     0
 90
        2
176
     1
  1
strokes_ogs.tif
176
     1
290
     0
176
     1
 40
1.0
176
     1
 40
1.0
176
     1
  0
VISUALSTYLE
  5
39
102
{ACAD_REACTORS
330
29
102
}
330
29
100
AcDbVisualStyle
  2
ColorChange
 70
    16
177
     3
291
     1
 70
    58
 90
        2
176
     1
 90
        2
176
     1
 90
        3
176
     1
 90
        0
176
     1
 40
0.6
176
     1
 40
30.0
176
     1
 62
     8
420
  8421504
176
     1
 90
        1
176
     1
 90
        4
176
     1
 62
     7
176
     1
 62
   257
176
     1
 90
        1
176
     1
 90
        1
176
     1
 40
1.0
176
     1
 90
        8
176
     1
 62
     8
420
  8421504
176
     1
 40
1.0
176
     1
 90
        1
176
     1
 90
        6
176
     1
 90
        2
176
     1
 62
     7
176
     1
 90
        5
176
     1
 90
        0
176
     1
 90
        0
176
     1
290
     0
176
     1
 90
        1
176
     1
 40
0.0
176
     1
 90
        0
176
     1
290
     0
176
     1
290
     1
176
     1
290
     1
176
     1
290
     0
176
     1
290
     0
176
     1
290
     0
176
     1
290
     0
176
     1
290
     0
176
     1
290
     0
176
     1
 90
       50
176
     1
 40
0.0
176
     1
 40
1.0
176
     1
 90
        0
176
     1
 62
    18
420
        0
176
     1
 90
       50
176
     1
 90
        3
176
     1
 62
     5
420
      255
176
     1
290
     0
176
     1
 90
       50
176
     1
 90
       50
176
     1
 90
       50
176
     1
290
     0
176
     1
 90
       50
176
     1
 62
   256
176
     0
 40
1.0
176
     0
 90
        2
176
     1
  1
strokes_ogs.tif
176
     1
290
     0
176
     1
 40
1.0
176
     1
 40
1.0
176
     1
  0
VISUALSTYLE
  5
32
102
{ACAD_REACTORS
330
29
102
}
330
29
100
AcDbVisualStyle
  2
Conceptual
 70
     9
177
     3
291
     0
 70
    58
 90
        3
176
     1
 90
        2
176
     1
 90
        0
176
     1
 90
        0
176
     1
 40
0.6
176
     1
 40
30.0
176
     1
 62
     7
420
 16777215
176
     1
 90
        2
176
     1
 90
        2
176
     1
 62
     7
176
     1
 62
   257
176
     1
 90
        1
176
     1
 90
        1
176
     1
 40
179.0
176
     1
 90
        8
176
     1
 62
     7
176
     1
 40
1.0
176
     1
 90
        1
176
     1
 90
        6
176
     1
 90
        2
176
     1
 62
     7
176
     1
 90
        3
176
     1
 90
        0
176
     1
 90
        0
176
     1
290
     0
176
     1
 90
        1
176
     1
 40
0.0
176
     1
 90
        0
176
     1
290
     0
176
     1
290
     1
176
     1
290
     1
176
     1
290
     0
176
     1
290
     0
176
     1
290
     0
176
     1
290
     0
176
     1
290
     0
176
     1
290
     0
176
     1
 90
       50
176
     1
 40
0.0
176
     1
 40
1.0
176
     1
 90
        0
176
     1
 62
    18
420
        0
176
     1
 90
       50
176
     1
 90
        3
176
     1
 62
     5
420
      255
176
     1
290
     0
176
     1
 90
       50
176
     1
 90
       50
176
     1
 90
       50
176
     1
290
     0
176
     1
 90
       50
176
     1
 62
   256
176
     0
 40
1.0
176
     0
 90
        2
176
     1
  1
strokes_ogs.tif
176
     1
290
     0
176
     1
 40
1.0
176
     1
 40
1.0
176
     1
  0
VISUALSTYLE
  5
34
102
{ACAD_REACTORS
330
29
102
}
330
29
100
AcDbVisualStyle
  2
Dim
 70
    11
177
     3
291
     1
 70
    58
 90
        2
176
     1
 90
        2
176
     1
 90
        0
176
     1
 90
        0
176
     1
 40
0.6
176
     1
 40
30.0
176
     1
 62
     7
420
 16777215
176
     1
 90
        1
176
     1
 90
        4
176
     1
 62
     7
176
     1
 62
   257
176
     1
 90
        1
176
     1
 90
        1
176
     1
 40
1.0
176
     1
 90
        8
176
     1
 62
     7
176
     1
 40
1.0
176
     1
 90
        1
176
     1
 90
        6
176
     1
 90
        2
176
     1
 62
     7
176
     1
 90
        5
176
     1
 90
        0
176
     1
 90
        0
176
     1
290
     0
176
     1
 90
        1
176
     1
 40
-50.0
176
     1
 90
        0
176
     1
290
     0
176
     1
290
     1
176
     1
290
     1
176
     1
290
     0
176
     1
290
     0
176
     1
290
     0
176
     1
290
     0
176
     1
290
     0
176
     1
290
     0
176
     1
 90
       50
176
     1
 40
0.0
176
     1
 40
1.0
176
     1
 90
        0
176
     1
 62
    18
420
        0
176
     1
 90
       50
176
     1
 90
        3
176
     1
 62
     5
420
      255
176
     1
290
     0
176
     1
 90
       50
176
     1
 90
       50
176
     1
 90
       50
176
     1
290
     0
176
     1
 90
       50
176
     1
 62
   256
176
     0
 40
1.0
176
     0
 90
        2
176
     1
  1
strokes_ogs.tif
176
     1
290
     0
176
     1
 40
1.0
176
     1
 40
1.0
176
     1
  0
VISUALSTYLE
  5
41
102
{ACAD_REACTORS
330
29
102
}
330
29
100
AcDbVisualStyle
  2
EdgeColorOff
 70
    22
177
     3
291
     1
 70
    58
 90
        2
176
     0
 90
        2
176
     0
 90
        0
176
     0
 90
        0
176
     0
 40
0.6
176
     0
 40
30.0
176
     0
 62
     7
420
 16777215
176
     0
 90
        1
176
     0
 90
        4
176
     0
 62
     7
176
     0
 62
   257
176
     0
 90
        1
176
     0
 90
        1
176
     0
 40
1.0
176
     0
 90
        8
176
     2
 62
     7
176
     0
 40
1.0
176
     0
 90
        1
176
     0
 90
        6
176
     0
 90
        2
176
     0
 62
     7
176
     0
 90
        5
176
     0
 90
        0
176
     0
 90
        0
176
     0
290
     0
176
     0
 90
        1
176
     0
 40
0.0
176
     0
 90
        0
176
     0
290
     0
176
     0
290
     1
176
     0
290
     1
176
     0
290
     0
176
     0
290
     0
176
     0
290
     0
176
     0
290
     0
176
     0
290
     0
176
     0
290
     0
176
     0
 90
       50
176
     0
 40
0.0
176
     0
 40
1.0
176
     0
 90
        0
176
     0
 62
    18
420
        0
176
     0
 90
       50
176
     0
 90
        3
176
     0
 62
     5
420
      255
176
     0
290
     0
176
     0
 90
       50
176
     0
 90
       50
176
     0
 90
       50
176
     0
290
     0
176
     0
 90
       50
176
     0
 62
   256
176
     0
 40
1.0
176
     0
 90
        2
176
     0
  1
strokes_ogs.tif
176
     0
290
     0
176
     0
 40
1.0
176
     0
 40
1.0
176
     0
  0
VISUALSTYLE
  5
38
102
{ACAD_REACTORS
330
29
102
}
330
29
100
AcDbVisualStyle
  2
Facepattern
 70
    15
177
     3
291
     1
 70
    58
 90
        2
176
     1
 90
        2
176
     1
 90
        0
176
     1
 90
        0
176
     1
 40
0.6
176
     1
 40
30.0
176
     1
 62
     7
420
 16777215
176
     1
 90
        1
176
     1
 90
        4
176
     1
 62
     7
176
     1
 62
   257
176
     1
 90
        1
176
     1
 90
        1
176
     1
 40
1.0
176
     1
 90
        8
176
     1
 62
     7
176
     1
 40
1.0
176
     1
 90
        1
176
     1
 90
        6
176
     1
 90
        2
176
     1
 62
     7
176
     1
 90
        5
176
     1
 90
        0
176
     1
 90
        0
176
     1
290
     0
176
     1
 90
        1
176
     1
 40
0.0
176
     1
 90
        0
176
     1
290
     0
176
     1
290
     1
176
     1
290
     1
176
     1
290
     0
176
     1
290
     0
176
     1
290
     0
176
     1
290
     0
176
     1
290
     0
176
     1
290
     0
176
     1
 90
       50
176
     1
 40
0.0
176
     1
 40
1.0
176
     1
 90
        0
176
     1
 62
    18
420
        0
176
     1
 90
       50
176
     1
 90
        3
176
     1
 62
     5
420
      255
176
     1
290
     0
176
     1
 90
       50
176
     1
 90
       50
176
     1
 90
       50
176
     1
290
     0
176
     1
 90
       50
176
     1
 62
   256
176
     0
 40
1.0
176
     0
 90
        2
176
     1
  1
strokes_ogs.tif
176
     1
290
     0
176
     1
 40
1.0
176
     1
 40
1.0
176
     1
  0
VISUALSTYLE
  5
2A
102
{ACAD_REACTORS
330
29
102
}
330
29
100
AcDbVisualStyle
  2
Flat
 70
     0
177
     3
291
     1
 70
    58
 90
        2
176
     1
 90
        1
176
     1
 90
        1
176
     1
 90
        2
176
     1
 40
0.6
176
     1
 40
30.0
176
     1
 62
     7
420
 16777215
176
     1
 90
        0
176
     1
 90
        0
176
     1
 62
     7
176
     1
 62
   257
176
     1
 90
        1
176
     1
 90
        1
176
     1
 40
1.0
176
     1
 90
        8
176
     1
 62
     7
176
     1
 40
1.0
176
     1
 90
        1
176
     1
 90
        6
176
     1
 90
        2
176
     1
 62
     7
176
     1
 90
        5
176
     1
 90
        0
176
     1
 90
        0
176
     1
290
     0
176
     1
 90
       13
176
     1
 40
0.0
176
     1
 90
        0
176
     1
290
     0
176
     1
290
     1
176
     1
290
     1
176
     1
290
     0
176
     1
290
     0
176
     1
290
     0
176
     1
290
     0
176
     1
290
     0
176
     1
290
     0
176
     1
 90
       50
176
     1
 40
0.0
176
     1
 40
1.0
176
     1
 90
        0
176
     1
 62
    18
420
        0
176
     1
 90
       50
176
     1
 90
        3
176
     1
 62
     5
420
      255
176
     1
290
     0
176
     1
 90
       50
176
     1
 90
       50
176
     1
 90
       50
176
     1
290
     0
176
     1
 90
       50
176
     1
 62
   256
176
     0
 40
1.0
176
     0
 90
        2
176
     1
  1
strokes_ogs.tif
176
     1
290
     0
176
     1
 40
1.0
176
     1
 40
1.0
176
     1
  0
VISUALSTYLE
  5
2B
102
{ACAD_REACTORS
330
29
102
}
330
29
100
AcDbVisualStyle
  2
FlatWithEdges
 70
     1
177
     3
291
     1
 70
    58
 90
        2
176
     1
 90
        1
176
     1
 90
        1
176
     1
 90
        2
176
     1
 40
0.6
176
     1
 40
30.0
176
     1
 62
     7
420
 16777215
176
     1
 90
        1
176
     1
 90
        0
176
     1
 62
     7
176
     1
 62
   257
176
     1
 90
        1
176
     1
 90
        1
176
     1
 40
1.0
176
     1
 90
        0
176
     1
 62
   257
176
     1
 40
1.0
176
     1
 90
        1
176
     1
 90
        6
176
     1
 90
        2
176
     1
 62
     7
176
     1
 90
        5
176
     1
 90
        0
176
     1
 90
        0
176
     1
290
     0
176
     1
 90
       13
176
     1
 40
0.0
176
     1
 90
        0
176
     1
290
     0
176
     1
290
     1
176
     1
290
     1
176
     1
290
     0
176
     1
290
     0
176
     1
290
     0
176
     1
290
     0
176
     1
290
     0
176
     1
290
     0
176
     1
 90
       50
176
     1
 40
0.0
176
     1
 40
1.0
176
     1
 90
        0
176
     1
 62
    18
420
        0
176
     1
 90
       50
176
     1
 90
        3
176
     1
 62
     5
420
      255
176
     1
290
     0
176
     1
 90
       50
176
     1
 90
       50
176
     1
 90
       50
176
     1
290
     0
176
     1
 90
       50
176
     1
 62
   256
176
     0
 40
1.0
176
     0
 90
        2
176
     1
  1
strokes_ogs.tif
176
     1
290
     0
176
     1
 40
1.0
176
     1
 40
1.0
176
     1
  0
VISUALSTYLE
  5
2C
102
{ACAD_REACTORS
330
29
102
}
330
29
100
AcDbVisualStyle
  2
Gouraud
 70
     2
177
     3
291
     1
 70
    58
 90
        2
176
     1
 90
        2
176
     1
 90
        1
176
     1
 90
        2
176
     1
 40
0.6
176
     1
 40
30.0
176
     1
 62
     7
420
 16777215
176
     1
 90
        0
176
     1
 90
        0
176
     1
 62
     7
176
     1
 62
   257
176
     1
 90
        1
176
     1
 90
        1
176
     1
 40
1.0
176
     1
 90
        0
176
     1
 62
     7
176
     1
 40
1.0
176
     1
 90
        1
176
     1
 90
        6
176
     1
 90
        2
176
     1
 62
     7
176
     1
 90
        5
176
     1
 90
        0
176
     1
 90
        0
176
     1
290
     0
176
     1
 90
       13
176
     1
 40
0.0
176
     1
 90
        0
176
     1
290
     0
176
     1
290
     1
176
     1
290
     1
176
     1
290
     0
176
     1
290
     0
176
     1
290
     0
176
     1
290
     0
176
     1
290
     0
176
     1
290
     0
176
     1
 90
       50
176
     1
 40
0.0
176
     1
 40
1.0
176
     1
 90
        0
176
     1
 62
    18
420
        0
176
     1
 90
       50
176
     1
 90
        3
176
     1
 62
     5
420
      255
176
     1
290
     0
176
     1
 90
       50
176
     1
 90
       50
176
     1
 90
       50
176
     1
290
     0
176
     1
 90
       50
176
     1
 62
   256
176
     0
 40
1.0
176
     0
 90
        2
176
     1
  1
strokes_ogs.tif
176
     1
290
     0
176
     1
 40
1.0
176
     1
 40
1.0
176
     1
  0
VISUALSTYLE
  5
2D
102
{ACAD_REACTORS
330
29
102
}
330
29
100
AcDbVisualStyle
  2
GouraudWithEdges
 70
     3
177
     3
291
     1
 70
    58
 90
        2
176
     1
 90
        2
176
     1
 90
        1
176
     1
 90
        2
176
     1
 40
0.6
176
     1
 40
30.0
176
     1
 62
     7
420
 16777215
176
     1
 90
        1
176
     1
 90
        0
176
     1
 62
     7
176
     1
 62
   257
176
     1
 90
        1
176
     1
 90
        1
176
     1
 40
1.0
176
     1
 90
        0
176
     1
 62
   257
176
     1
 40
1.0
176
     1
 90
        1
176
     1
 90
        6
176
     1
 90
        2
176
     1
 62
     7
176
     1
 90
        5
176
     1
 90
        0
176
     1
 90
        0
176
     1
290
     0
176
     1
 90
       13
176
     1
 40
0.0
176
     1
 90
        0
176
     1
290
     0
176
     1
290
     1
176
     1
290
     1
176
     1
290
     0
176
     1
290
     0
176
     1
290
     0
176
     1
290
     0
176
     1
290
     0
176
     1
290
     0
176
     1
 90
       50
176
     1
 40
0.0
176
     1
 40
1.0
176
     1
 90
        0
176
     1
 62
    18
420
        0
176
     1
 90
       50
176
     1
 90
        3
176
     1
 62
     5
420
      255
176
     1
290
     0
176
     1
 90
       50
176
     1
 90
       50
176
     1
 90
       50
176
     1
290
     0
176
     1
 90
       50
176
     1
 62
   256
176
     0
 40
1.0
176
     0
 90
        2
176
     1
  1
strokes_ogs.tif
176
     1
290
     0
176
     1
 40
1.0
176
     1
 40
1.0
176
     1
  0
VISUALSTYLE
  5
31
102
{ACAD_REACTORS
330
29
102
}
330
29
100
AcDbVisualStyle
  2
Hidden
 70
     6
177
     3
291
     0
 70
    58
 90
        1
176
     1
 90
        2
176
     1
 90
        2
176
     1
 90
        0
176
     1
 40
0.6
176
     1
 40
30.0
176
     1
 62
     7
420
 16777215
176
     1
 90
        2
176
     1
 90
        2
176
     1
 62
     7
176
     1
 62
   257
176
     1
 90
        2
176
     1
 90
        1
176
     1
 40
40.0
176
     1
 90
        0
176
     1
 62
   257
176
     1
 40
1.0
176
     1
 90
        1
176
     1
 90
        6
176
     1
 90
        2
176
     1
 62
     7
176
     1
 90
        3
176
     1
 90
        0
176
     1
 90
        0
176
     1
290
     0
176
     1
 90
        1
176
     1
 40
0.0
176
     1
 90
        0
176
     1
290
     0
176
     1
290
     1
176
     1
290
     1
176
     1
290
     0
176
     1
290
     0
176
     1
290
     0
176
     1
290
     0
176
     1
290
     0
176
     1
290
     0
176
     1
 90
       50
176
     1
 40
0.0
176
     1
 40
1.0
176
     1
 90
        0
176
     1
 62
    18
420
        0
176
     1
 90
       50
176
     1
 90
        3
176
     1
 62
     5
420
      255
176
     1
290
     0
176
     1
 90
       50
176
     1
 90
       50
176
     1
 90
       50
176
     1
290
     0
176
     1
 90
       50
176
     1
 62
   256
176
     0
 40
1.0
176
     0
 90
        2
176
     1
  1
strokes_ogs.tif
176
     1
290
     0
176
     1
 40
1.0
176
     1
 40
1.0
176
     1
  0
VISUALSTYLE
  5
3F
102
{ACAD_REACTORS
330
29
102
}
330
29
100
AcDbVisualStyle
  2
JitterOff
 70
    20
177
     3
291
     1
 70
    58
 90
        2
176
     0
 90
        2
176
     0
 90
        0
176
     0
 90
        0
176
     0
 40
0.6
176
     0
 40
30.0
176
     0
 62
     7
420
 16777215
176
     0
 90
        1
176
     0
 90
        4
176
     0
 62
     7
176
     0
 62
   257
176
     0
 90
        1
176
     0
 90
        1
176
     0
 40
1.0
176
     0
 90
       10
176
     2
 62
     7
176
     0
 40
1.0
176
     0
 90
        1
176
     0
 90
        6
176
     0
 90
        2
176
     0
 62
     7
176
     0
 90
        5
176
     0
 90
        0
176
     0
 90
        0
176
     0
290
     0
176
     0
 90
        1
176
     0
 40
0.0
176
     0
 90
        0
176
     0
290
     0
176
     0
290
     1
176
     0
290
     1
176
     0
290
     0
176
     0
290
     0
176
     0
290
     0
176
     0
290
     0
176
     0
290
     0
176
     0
290
     0
176
     0
 90
       50
176
     0
 40
0.0
176
     0
 40
1.0
176
     0
 90
        0
176
     0
 62
    18
420
        0
176
     0
 90
       50
176
     0
 90
        3
176
     0
 62
     5
420
      255
176
     0
290
     0
176
     0
 90
       50
176
     0
 90
       50
176
     0
 90
       50
176
     0
290
     0
176
     0
 90
       50
176
     0
 62
   256
176
     0
 40
1.0
176
     0
 90
        2
176
     0
  1
strokes_ogs.tif
176
     0
290
     0
176
     0
 40
1.0
176
     0
 40
1.0
176
     0
  0
VISUALSTYLE
  5
37
102
{ACAD_REACTORS
330
29
102
}
330
29
100
AcDbVisualStyle
  2
Linepattern
 70
    14
177
     3
291
     1
 70
    58
 90
        2
176
     1
 90
        2
176
     1
 90
        0
176
     1
 90
        0
176
     1
 40
0.6
176
     1
 40
30.0
176
     1
 62
     7
420
 16777215
176
     1
 90
        1
176
     1
 90
        4
176
     1
 62
     7
176
     1
 62
   257
176
     1
 90
        7
176
     1
 90
        7
176
     1
 40
1.0
176
     1
 90
        8
176
     1
 62
     7
176
     1
 40
1.0
176
     1
 90
        1
176
     1
 90
        6
176
     1
 90
        2
176
     1
 62
     7
176
     1
 90
        5
176
     1
 90
        0
176
     1
 90
        0
176
     1
290
     0
176
     1
 90
        1
176
     1
 40
0.0
176
     1
 90
        0
176
     1
290
     0
176
     1
290
     1
176
     1
290
     1
176
     1
290
     0
176
     1
290
     0
176
     1
290
     0
176
     1
290
     0
176
     1
290
     0
176
     1
290
     0
176
     1
 90
       50
176
     1
 40
0.0
176
     1
 40
1.0
176
     1
 90
        0
176
     1
 62
    18
420
        0
176
     1
 90
       50
176
     1
 90
        3
176
     1
 62
     5
420
      255
176
     1
290
     0
176
     1
 90
       50
176
     1
 90
       50
176
     1
 90
       50
176
     1
290
     0
176
     1
 90
       50
176
     1
 62
   256
176
     0
 40
1.0
176
     0
 90
        2
176
     1
  1
strokes_ogs.tif
176
     1
290
     0
176
     1
 40
1.0
176
     1
 40
1.0
176
     1
  0
VISUALSTYLE
  5
40
102
{ACAD_REACTORS
330
29
102
}
330
29
100
AcDbVisualStyle
  2
OverhangOff
 70
    21
177
     3
291
     1
 70
    58
 90
        2
176
     0
 90
        2
176
     0
 90
        0
176
     0
 90
        0
176
     0
 40
0.6
176
     0
 40
30.0
176
     0
 62
     7
420
 16777215
176
     0
 90
        1
176
     0
 90
        4
176
     0
 62
     7
176
     0
 62
   257
176
     0
 90
        1
176
     0
 90
        1
176
     0
 40
1.0
176
     0
 90
        9
176
     2
 62
     7
176
     0
 40
1.0
176
     0
 90
        1
176
     0
 90
        6
176
     0
 90
        2
176
     0
 62
     7
176
     0
 90
        5
176
     0
 90
        0
176
     0
 90
        0
176
     0
290
     0
176
     0
 90
        1
176
     0
 40
0.0
176
     0
 90
        0
176
     0
290
     0
176
     0
290
     1
176
     0
290
     1
176
     0
290
     0
176
     0
290
     0
176
     0
290
     0
176
     0
290
     0
176
     0
290
     0
176
     0
290
     0
176
     0
 90
       50
176
     0
 40
0.0
176
     0
 40
1.0
176
     0
 90
        0
176
     0
 62
    18
420
        0
176
     0
 90
       50
176
     0
 90
        3
176
     0
 62
     5
420
      255
176
     0
290
     0
176
     0
 90
       50
176
     0
 90
       50
176
     0
 90
       50
176
     0
290
     0
176
     0
 90
       50
176
     0
 62
   256
176
     0
 40
1.0
176
     0
 90
        2
176
     0
  1
strokes_ogs.tif
176
     0
290
     0
176
     0
 40
1.0
176
     0
 40
1.0
176
     0
  0
VISUALSTYLE
  5
33
102
{ACAD_REACTORS
330
29
102
}
330
29
100
AcDbVisualStyle
  2
Realistic
 70
     8
177
     3
291
     0
 70
    58
 90
        2
176
     1
 90
        3
176
     1
 90
        0
176
     1
 90
        2
176
     1
 40
0.6
176
     1
 40
30.0
176
     1
 62
     7
420
 16777215
176
     1
 90
        0
176
     1
 90
        0
176
     1
 62
     7
176
     1
 62
   257
176
     1
 90
        1
176
     1
 90
        1
176
     1
 40
1.0
176
     1
 90
        8
176
     1
 62
   257
176
     1
 40
1.0
176
     1
 90
        1
176
     1
 90
        6
176
     1
 90
        2
176
     1
 62
     7
176
     1
 90
        3
176
     1
 90
        0
176
     1
 90
        0
176
     1
290
     0
176
     1
 90
       13
176
     1
 40
0.0
176
     1
 90
        0
176
     1
290
     0
176
     1
290
     1
176
     1
290
     1
176
     1
290
     0
176
     1
290
     0
176
     1
290
     0
176
     1
290
     0
176
     1
290
     0
176
     1
290
     0
176
     1
 90
       50
176
     1
 40
0.0
176
     1
 40
1.0
176
     1
 90
        0
176
     1
 62
    18
420
        0
176
     1
 90
       50
176
     1
 90
        3
176
     1
 62
     5
420
      255
176
     1
290
     0
176
     1
 90
       50
176
     1
 90
       50
176
     1
 90
       50
176
     1
290
     0
176
     1
 90
       50
176
     1
 62
   256
176
     0
 40
1.0
176
     0
 90
        2
176
     1
  1
strokes_ogs.tif
176
     1
290
     0
176
     1
 40
1.0
176
     1
 40
1.0
176
     1
  0
VISUALSTYLE
  5
3E
102
{ACAD_REACTORS
330
29
102
}
330
29
100
AcDbVisualStyle
  2
Shaded
 70
    27
177
     3
291
     0
 70
    58
 90
        2
176
     1
 90
        2
176
     1
 90
        1
176
     1
 90
        2
176
     1
 40
0.6
176
     1
 40
30.0
176
     1
 62
     7
420
 16777215
176
     1
 90
        0
176
     1
 90
        4
176
     1
 62
     7
176
     1
 62
   257
176
     1
 90
        1
176
     1
 90
        1
176
     1
 40
1.0
176
     1
 90
        8
176
     1
 62
   257
176
     1
 40
1.0
176
     1
 90
        1
176
     1
 90
        6
176
     1
 90
        2
176
     1
 62
     8
420
  7895160
176
     1
 90
        3
176
     1
 90
        0
176
     1
 90
        0
176
     1
290
     0
176
     1
 90
        5
176
     1
 40
0.0
176
     1
 90
        0
176
     1
290
     0
176
     1
290
     1
176
     1
290
     1
176
     1
290
     0
176
     1
290
     0
176
     1
290
     0
176
     1
290
     0
176
     1
290
     0
176
     1
290
     0
176
     1
 90
       50
176
     1
 40
0.0
176
     1
 40
1.0
176
     1
 90
        0
176
     1
 62
    18
420
        0
176
     1
 90
       50
176
     1
 90
        3
176
     1
 62
     5
420
      255
176
     1
290
     0
176
     1
 90
       50
176
     1
 90
       50
176
     1
 90
       50
176
     1
290
     0
176
     1
 90
       50
176
     1
 62
   256
176
     0
 40
1.0
176
     0
 90
        2
176
     1
  1
strokes_ogs.tif
176
     1
290
     0
176
     1
 40
1.0
176
     1
 40
1.0
176
     1
  0
VISUALSTYLE
  5
3D
102
{ACAD_REACTORS
330
29
102
}
330
29
100
AcDbVisualStyle
  2
Shaded with edges
 70
    26
177
     3
291
     0
 70
    58
 90
        2
176
     1
 90
        2
176
     1
 90
        1
176
     1
 90
        2
176
     1
 40
0.6
176
     1
 40
30.0
176
     1
 62
     7
420
 16777215
176
     1
 90
        1
176
     1
 90
        2
176
     1
 62
     7
176
     1
 62
   257
176
     1
 90
        2
176
     1
 90
        1
176
     1
 40
1.0
176
     1
 90
        8
176
     1
 62
   257
176
     1
 40
1.0
176
     1
 90
        1
176
     1
 90
        6
176
     1
 90
        2
176
     1
 62
     7
176
     1
 90
        3
176
     1
 90
        0
176
     1
 90
        0
176
     1
290
     0
176
     1
 90
        5
176
     1
 40
0.0
176
     1
 90
        0
176
     1
290
     0
176
     1
290
     1
176
     1
290
     1
176
     1
290
     0
176
     1
290
     0
176
     1
290
     0
176
     1
290
     0
176
     1
290
     0
176
     1
290
     0
176
     1
 90
       50
176
     1
 40
0.0
176
     1
 40
1.0
176
     1
 90
        0
176
     1
 62
    18
420
        0
176
     1
 90
       50
176
     1
 90
        3
176
     1
 62
     5
420
      255
176
     1
290
     0
176
     1
 90
       50
176
     1
 90
       50
176
     1
 90
       50
176
     1
290
     0
176
     1
 90
       50
176
     1
 62
   256
176
     0
 40
1.0
176
     0
 90
        2
176
     1
  1
strokes_ogs.tif
176
     1
290
     0
176
     1
 40
1.0
176
     1
 40
1.0
176
     1
  0
VISUALSTYLE
  5
3A
102
{ACAD_REACTORS
330
29
102
}
330
29
100
AcDbVisualStyle
  2
Shades of Gray
 70
    23
177
     3
291
     0
 70
    58
 90
        2
176
     1
 90
        2
176
     1
 90
        3
176
     1
 90
        0
176
     1
 40
0.6
176
     1
 40
30.0
176
     1
 62
     7
420
 16777215
176
     1
 90
        2
176
     1
 90
        2
176
     1
 62
     7
176
     1
 62
     7
176
     1
 90
        1
176
     1
 90
        1
176
     1
 40
40.0
176
     1
 90
        8
176
     1
 62
     7
176
     1
 40
1.0
176
     1
 90
        1
176
     1
 90
        6
176
     1
 90
        2
176
     1
 62
     7
176
     1
 90
        3
176
     1
 90
        0
176
     1
 90
        0
176
     1
290
     0
176
     1
 90
        1
176
     1
 40
0.0
176
     1
 90
        0
176
     1
290
     0
176
     1
290
     1
176
     1
290
     1
176
     1
290
     0
176
     1
290
     0
176
     1
290
     0
176
     1
290
     0
176
     1
290
     0
176
     1
290
     0
176
     1
 90
       50
176
     1
 40
0.0
176
     1
 40
1.0
176
     1
 90
        0
176
     1
 62
    18
420
        0
176
     1
 90
       50
176
     1
 90
        3
176
     1
 62
     5
420
      255
176
     1
290
     0
176
     1
 90
       50
176
     1
 90
       50
176
     1
 90
       50
176
     1
290
     0
176
     1
 90
       50
176
     1
 62
   256
176
     0
 40
1.0
176
     0
 90
        2
176
     1
  1
strokes_ogs.tif
176
     1
290
     0
176
     1
 40
1.0
176
     1
 40
1.0
176
     1
  0
VISUALSTYLE
  5
3B
102
{ACAD_REACTORS
330
29
102
}
330
29
100
AcDbVisualStyle
  2
Sketchy
 70
    24
177
     3
291
     0
 70
    58
 90
        1
176
     1
 90
        2
176
     1
 90
        2
176
     1
 90
        0
176
     1
 40
0.6
176
     1
 40
30.0
176
     1
 62
     7
420
 16777215
176
     1
 90
        2
176
     1
 90
        2
176
     1
 62
     7
176
     1
 62
     7
176
     1
 90
        1
176
     1
 90
        1
176
     1
 40
40.0
176
     1
 90
       11
176
     1
 62
     7
176
     1
 40
1.0
176
     1
 90
        1
176
     1
 90
        6
176
     1
 90
        2
176
     1
 62
     7
176
     1
 90
        6
176
     1
 90
        0
176
     1
 90
        0
176
     1
290
     0
176
     1
 90
        1
176
     1
 40
0.0
176
     1
 90
        0
176
     1
290
     0
176
     1
290
     1
176
     1
290
     1
176
     1
290
     0
176
     1
290
     0
176
     1
290
     0
176
     1
290
     0
176
     1
290
     0
176
     1
290
     0
176
     1
 90
       50
176
     1
 40
0.0
176
     1
 40
1.0
176
     1
 90
        0
176
     1
 62
    18
420
        0
176
     1
 90
       50
176
     1
 90
        3
176
     1
 62
     5
420
      255
176
     1
290
     0
176
     1
 90
       50
176
     1
 90
       50
176
     1
 90
       50
176
     1
290
     0
176
     1
 90
       50
176
     1
 62
   256
176
     0
 40
1.0
176
     0
 90
        2
176
     1
  1
strokes_ogs.tif
176
     1
290
     0
176
     1
 40
1.0
176
     1
 40
1.0
176
     1
  0
VISUALSTYLE
  5
36
102
{ACAD_REACTORS
330
29
102
}
330
29
100
AcDbVisualStyle
  2
Thicken
 70
    13
177
     3
291
     1
 70
    58
 90
        2
176
     1
 90
        2
176
     1
 90
        0
176
     1
 90
        0
176
     1
 40
0.6
176
     1
 40
30.0
176
     1
 62
     7
420
 16777215
176
     1
 90
        1
176
     1
 90
        4
176
     1
 62
     7
176
     1
 62
   257
176
     1
 90
        1
176
     1
 90
        1
176
     1
 40
1.0
176
     1
 90
       12
176
     1
 62
     7
176
     1
 40
1.0
176
     1
 90
        1
176
     1
 90
        6
176
     1
 90
        2
176
     1
 62
     7
176
     1
 90
        5
176
     1
 90
        0
176
     1
 90
        0
176
     1
290
     0
176
     1
 90
        1
176
     1
 40
0.0
176
     1
 90
        0
176
     1
290
     0
176
     1
290
     1
176
     1
290
     1
176
     1
290
     0
176
     1
290
     0
176
     1
290
     0
176
     1
290
     0
176
     1
290
     0
176
     1
290
     0
176
     1
 90
       50
176
     1
 40
0.0
176
     1
 40
1.0
176
     1
 90
        0
176
     1
 62
    18
420
        0
176
     1
 90
       50
176
     1
 90
        3
176
     1
 62
     5
420
      255
176
     1
290
     0
176
     1
 90
       50
176
     1
 90
       50
176
     1
 90
       50
176
     1
290
     0
176
     1
 90
       50
176
     1
 62
   256
176
     0
 40
1.0
176
     0
 90
        2
176
     1
  1
strokes_ogs.tif
176
     1
290
     0
176
     1
 40
1.0
176
     1
 40
1.0
176
     1
  0
VISUALSTYLE
  5
30
102
{ACAD_REACTORS
330
29
102
}
330
29
100
AcDbVisualStyle
  2
Wireframe
 70
     5
177
     3
291
     0
 70
    58
 90
        0
176
     1
 90
        2
176
     1
 90
        0
176
     1
 90
        0
176
     1
 40
0.6
176
     1
 40
30.0
176
     1
 62
     7
420
 16777215
176
     1
 90
        1
176
     1
 90
        4
176
     1
 62
     7
176
     1
 62
   257
176
     1
 90
        1
176
     1
 90
        1
176
     1
 40
1.0
176
     1
 90
        0
176
     1
 62
   257
176
     1
 40
1.0
176
     1
 90
        1
176
     1
 90
        6
176
     1
 90
        2
176
     1
 62
     7
176
     1
 90
        3
176
     1
 90
        0
176
     1
 90
        0
176
     1
290
     0
176
     1
 90
        1
176
     1
 40
0.0
176
     1
 90
        0
176
     1
290
     0
176
     1
290
     1
176
     1
290
     1
176
     1
290
     0
176
     1
290
     0
176
     1
290
     0
176
     1
290
     0
176
     1
290
     0
176
     1
290
     0
176
     1
 90
       50
176
     1
 40
0.0
176
     1
 40
1.0
176
     1
 90
        0
176
     1
 62
    18
420
        0
176
     1
 90
       50
176
     1
 90
        3
176
     1
 62
     5
420
      255
176
     1
290
     0
176
     1
 90
       50
176
     1
 90
       50
176
     1
 90
       50
176
     1
290
     0
176
     1
 90
       50
176
     1
 62
   256
176
     0
 40
1.0
176
     0
 90
        2
176
     1
  1
strokes_ogs.tif
176
     1
290
     0
176
     1
 40
1.0
176
     1
 40
1.0
176
     1
  0
VISUALSTYLE
  5
3C
102
{ACAD_REACTORS
330
29
102
}
330
29
100
AcDbVisualStyle
  2
X-Ray
 70
    25
177
     3
291
     0
 70
    58
 90
        2
176
     1
 90
        2
176
     1
 90
        1
176
     1
 90
        1
176
     1
 40
0.5
176
     1
 40
30.0
176
     1
 62
     7
420
 16777215
176
     1
 90
        1
176
     1
 90
        0
176
     1
 62
     7
176
     1
 62
   257
176
     1
 90
        1
176
     1
 90
        1
176
     1
 40
1.0
176
     1
 90
        8
176
     1
 62
     7
176
     1
 40
1.0
176
     1
 90
        1
176
     1
 90
        6
176
     1
 90
        2
176
     1
 62
     7
176
     1
 90
        3
176
     1
 90
        0
176
     1
 90
        0
176
     1
290
     0
176
     1
 90
       13
176
     1
 40
0.0
176
     1
 90
        0
176
     1
290
     0
176
     1
290
     1
176
     1
290
     1
176
     1
290
     0
176
     1
290
     0
176
     1
290
     0
176
     1
290
     0
176
     1
290
     0
176
     1
290
     0
176
     1
 90
       50
176
     1
 40
0.0
176
     1
 40
1.0
176
     1
 90
        0
176
     1
 62
    18
420
        0
176
     1
 90
       50
176
     1
 90
        3
176
     1
 62
     5
420
      255
176
     1
290
     0
176
     1
 90
       50
176
     1
 90
       50
176
     1
 90
       50
176
     1
290
     0
176
     1
 90
       50
176
     1
 62
   256
176
     0
 40
1.0
176
     0
 90
        2
176
     1
  1
strokes_ogs.tif
176
     1
290
     0
176
     1
 40
1.0
176
     1
 40
1.0
176
     1
  0
DICTIONARYVAR
  5
9A
102
{ACAD_REACTORS
330
95
102
}
330
95
100
DictionaryVariables
280
     0
  1
1:1
  0
DICTIONARYVAR
  5
97
102
{ACAD_REACTORS
330
95
102
}
330
95
100
DictionaryVariables
280
     0
  1
STANDARD
  0
DICTIONARYVAR
  5
96
102
{ACAD_REACTORS
330
95
102
}
330
95
100
DictionaryVariables
280
     0
  1
STANDARD
  0
DICTIONARYVAR
  5
98
102
{ACAD_REACTORS
330
95
102
}
330
95
100
DictionaryVariables
280
     0
  1
Imperial24
  0
DICTIONARYVAR
  5
99
102
{ACAD_REACTORS
330
95
102
}
330
95
100
DictionaryVariables
280
     0
  1
Imperial24
  0
DICTIONARY
  5
1A
330
19
100
AcDbDictionary
280
     1
281
     1
  3
BUMPTILE
360
1C
  3
DIFFUSETILE
360
1B
  3
OPACITYTILE
360
1F
  3
REFLECTIONTILE
360
1E
  3
REFRACTIONTILE
360
20
  3
SPECULARTILE
360
1D
  0
DICTIONARY
  5
12
330
11
100
AcDbDictionary
280
     1
281
     1
  3
BUMPTILE
360
14
  3
DIFFUSETILE
360
13
  3
OPACITYTILE
360
17
  3
REFLECTIONTILE
360
16
  3
REFRACTIONTILE
360
18
  3
SPECULARTILE
360
15
  0
DICTIONARY
  5
22
330
21
100
AcDbDictionary
280
     1
281
     1
  3
BUMPTILE
360
24
  3
DIFFUSETILE
360
23
  3
OPACITYTILE
360
27
  3
REFLECTIONTILE
360
26
  3
REFRACTIONTILE
360
28
  3
SPECULARTILE
360
25
  0
DICTIONARY
  5
9B
330
65
100
AcDbDictionary
280
     1
281
     1
  3
ACAD_ROUNDTRIP_2008_TABLESTYLE_CELLSTYLEMAP
360
9C
  0
XRECORD
  5
1C
102
{ACAD_REACTORS
330
1A
102
}
330
1A
100
AcDbXrecord
280
     1
270
     1
271
     1
  0
XRECORD
  5
1B
102
{ACAD_REACTORS
330
1A
102
}
330
1A
100
AcDbXrecord
280
     1
270
     1
271
     1
  0
XRECORD
  5
1F
102
{ACAD_REACTORS
330
1A
102
}
330
1A
100
AcDbXrecord
280
     1
270
     1
271
     1
  0
XRECORD
  5
1E
102
{ACAD_REACTORS
330
1A
102
}
330
1A
100
AcDbXrecord
280
     1
270
     1
271
     1
  0
XRECORD
  5
20
102
{ACAD_REACTORS
330
1A
102
}
330
1A
100
AcDbXrecord
280
     1
270
     1
271
     1
  0
XRECORD
  5
1D
102
{ACAD_REACTORS
330
1A
102
}
330
1A
100
AcDbXrecord
280
     1
270
     1
271
     1
  0
XRECORD
  5
14
102
{ACAD_REACTORS
330
12
102
}
330
12
100
AcDbXrecord
280
     1
270
     1
271
     1
  0
XRECORD
  5
13
102
{ACAD_REACTORS
330
12
102
}
330
12
100
AcDbXrecord
280
     1
270
     1
271
     1
  0
XRECORD
  5
17
102
{ACAD_REACTORS
330
12
102
}
330
12
100
AcDbXrecord
280
     1
270
     1
271
     1
  0
XRECORD
  5
16
102
{ACAD_REACTORS
330
12
102
}
330
12
100
AcDbXrecord
280
     1
270
     1
271
     1
  0
XRECORD
  5
18
102
{ACAD_REACTORS
330
12
102
}
330
12
100
AcDbXrecord
280
     1
270
     1
271
     1
  0
XRECORD
  5
15
102
{ACAD_REACTORS
330
12
102
}
330
12
100
AcDbXrecord
280
     1
270
     1
271
     1
  0
XRECORD
  5
24
102
{ACAD_REACTORS
330
22
102
}
330
22
100
AcDbXrecord
280
     1
270
     1
271
     1
  0
XRECORD
  5
23
102
{ACAD_REACTORS
330
22
102
}
330
22
100
AcDbXrecord
280
     1
270
     1
271
     1
  0
XRECORD
  5
27
102
{ACAD_REACTORS
330
22
102
}
330
22
100
AcDbXrecord
280
     1
270
     1
271
     1
  0
XRECORD
  5
26
102
{ACAD_REACTORS
330
22
102
}
330
22
100
AcDbXrecord
280
     1
270
     1
271
     1
  0
XRECORD
  5
28
102
{ACAD_REACTORS
330
22
102
}
330
22
100
AcDbXrecord
280
     1
270
     1
271
     1
  0
XRECORD
  5
25
102
{ACAD_REACTORS
330
22
102
}
330
22
100
AcDbXrecord
280
     1
270
     1
271
     1
  0
CELLSTYLEMAP
  5
9C
102
{ACAD_REACTORS
330
9B
102
}
330
9B
100
AcDbCellStyleMap
 90
        3
300
CELLSTYLE
  1
TABLEFORMAT_BEGIN
 90
        5
170
     1
 91
        0
 92
    32768
 62
   257
 93
        1
300
CONTENTFORMAT
  1
CONTENTFORMAT_BEGIN
 90
        0
 91
        0
 92
      512
 93
        0
300

 40
0.0
140
1.0
 94
        5
 62
     0
340
55
144
0.25
309
CONTENTFORMAT_END
171
     0
 94
        0
309
TABLEFORMAT_END
  1
CELLSTYLE_BEGIN
 90
        1
 91
        1
300
_TITLE
309
CELLSTYLE_END
300
CELLSTYLE
  1
TABLEFORMAT_BEGIN
 90
        5
170
     1
 91
        0
 92
        0
 62
   257
 93
        1
300
CONTENTFORMAT
  1
CONTENTFORMAT_BEGIN
 90
        0
 91
        0
 92
      512
 93
        0
300

 40
0.0
140
1.0
 94
        5
 62
     0
340
55
144
0.18
309
CONTENTFORMAT_END
171
     0
 94
        0
309
TABLEFORMAT_END
  1
CELLSTYLE_BEGIN
 90
        2
 91
        1
300
_HEADER
309
CELLSTYLE_END
300
CELLSTYLE
  1
TABLEFORMAT_BEGIN
 90
        5
170
     1
 91
        0
 92
        0
 62
   257
 93
        1
300
CONTENTFORMAT
  1
CONTENTFORMAT_BEGIN
 90
        0
 91
        0
 92
      512
 93
        0
300

 40
0.0
140
1.0
 94
        2
 62
     0
340
55
144
0.18
309
CONTENTFORMAT_END
171
     0
 94
        0
309
TABLEFORMAT_END
  1
CELLSTYLE_BEGIN
 90
        3
 91
        2
300
_DATA
309
CELLSTYLE_END
  0
ENDSEC
  0
EOF
