M48
; DRILL file {KiCad (6.0.2)} date Wed Mar  9 19:45:31 2022
; FORMAT={-:-/ absolute / metric / decimal}
; #@! TF.CreationDate,2022-03-09T19:45:31-08:00
; #@! TF.GenerationSoftware,Kicad,Pcbnew,(6.0.2)
; #@! TF.FileFunction,Plated,1,2,PTH
FMAT,2
METRIC
; #@! TA.AperFunction,Plated,PTH,ViaDrill
T1C0.400
; #@! TA.AperFunction,Plated,PTH,ComponentDrill
T2C1.000
%
G90
G05
T1
X25.987Y-40.188
X26.0Y-33.9
X29.188Y-30.087
X29.2Y-23.8
X29.787Y-40.188
X29.8Y-33.9
X33.587Y-40.188
X33.6Y-33.9
X33.887Y-30.188
X33.9Y-23.9
X37.487Y-40.188
X37.5Y-33.9
X37.788Y-30.087
X37.8Y-23.8
X41.288Y-40.188
X41.3Y-33.9
X41.387Y-30.087
X41.4Y-23.8
X44.987Y-40.188
X45.0Y-33.9
X45.8Y-30.1
X45.812Y-23.812
X48.887Y-40.188
X48.9Y-33.9
T2
X59.2Y-22.725
X59.2Y-25.265
T0
M30
