%TF.GenerationSoftware,KiCad,Pcbnew,(6.0.2)*%
%TF.CreationDate,2022-03-09T19:45:25-08:00*%
%TF.ProjectId,IFLFU-test-back,49464c46-552d-4746-9573-742d6261636b,rev?*%
%TF.SameCoordinates,Original*%
%TF.FileFunction,Legend,Top*%
%TF.FilePolarity,Positive*%
%FSLAX46Y46*%
G04 Gerber Fmt 4.6, Leading zero omitted, Abs format (unit mm)*
G04 Created by KiCad (PCBNEW (6.0.2)) date 2022-03-09 19:45:25*
%MOMM*%
%LPD*%
G01*
G04 APERTURE LIST*
%ADD10C,0.300000*%
%ADD11C,0.150000*%
%ADD12C,0.120000*%
G04 APERTURE END LIST*
D10*
X58235714Y-27450000D02*
X58092857Y-27378571D01*
X57878571Y-27378571D01*
X57664285Y-27450000D01*
X57521428Y-27592857D01*
X57450000Y-27735714D01*
X57378571Y-28021428D01*
X57378571Y-28235714D01*
X57450000Y-28521428D01*
X57521428Y-28664285D01*
X57664285Y-28807142D01*
X57878571Y-28878571D01*
X58021428Y-28878571D01*
X58235714Y-28807142D01*
X58307142Y-28735714D01*
X58307142Y-28235714D01*
X58021428Y-28235714D01*
X58950000Y-27878571D02*
X58950000Y-28878571D01*
X58950000Y-28021428D02*
X59021428Y-27950000D01*
X59164285Y-27878571D01*
X59378571Y-27878571D01*
X59521428Y-27950000D01*
X59592857Y-28092857D01*
X59592857Y-28878571D01*
X60950000Y-28878571D02*
X60950000Y-27378571D01*
X60950000Y-28807142D02*
X60807142Y-28878571D01*
X60521428Y-28878571D01*
X60378571Y-28807142D01*
X60307142Y-28735714D01*
X60235714Y-28592857D01*
X60235714Y-28164285D01*
X60307142Y-28021428D01*
X60378571Y-27950000D01*
X60521428Y-27878571D01*
X60807142Y-27878571D01*
X60950000Y-27950000D01*
D11*
%TO.C,D24*%
X48445714Y-37262380D02*
X48445714Y-36262380D01*
X48683809Y-36262380D01*
X48826666Y-36310000D01*
X48921904Y-36405238D01*
X48969523Y-36500476D01*
X49017142Y-36690952D01*
X49017142Y-36833809D01*
X48969523Y-37024285D01*
X48921904Y-37119523D01*
X48826666Y-37214761D01*
X48683809Y-37262380D01*
X48445714Y-37262380D01*
X49398095Y-36357619D02*
X49445714Y-36310000D01*
X49540952Y-36262380D01*
X49779047Y-36262380D01*
X49874285Y-36310000D01*
X49921904Y-36357619D01*
X49969523Y-36452857D01*
X49969523Y-36548095D01*
X49921904Y-36690952D01*
X49350476Y-37262380D01*
X49969523Y-37262380D01*
X50826666Y-36595714D02*
X50826666Y-37262380D01*
X50588571Y-36214761D02*
X50350476Y-36929047D01*
X50969523Y-36929047D01*
%TO.C,D23*%
X44635714Y-37262380D02*
X44635714Y-36262380D01*
X44873809Y-36262380D01*
X45016666Y-36310000D01*
X45111904Y-36405238D01*
X45159523Y-36500476D01*
X45207142Y-36690952D01*
X45207142Y-36833809D01*
X45159523Y-37024285D01*
X45111904Y-37119523D01*
X45016666Y-37214761D01*
X44873809Y-37262380D01*
X44635714Y-37262380D01*
X45588095Y-36357619D02*
X45635714Y-36310000D01*
X45730952Y-36262380D01*
X45969047Y-36262380D01*
X46064285Y-36310000D01*
X46111904Y-36357619D01*
X46159523Y-36452857D01*
X46159523Y-36548095D01*
X46111904Y-36690952D01*
X45540476Y-37262380D01*
X46159523Y-37262380D01*
X46492857Y-36262380D02*
X47111904Y-36262380D01*
X46778571Y-36643333D01*
X46921428Y-36643333D01*
X47016666Y-36690952D01*
X47064285Y-36738571D01*
X47111904Y-36833809D01*
X47111904Y-37071904D01*
X47064285Y-37167142D01*
X47016666Y-37214761D01*
X46921428Y-37262380D01*
X46635714Y-37262380D01*
X46540476Y-37214761D01*
X46492857Y-37167142D01*
%TO.C,D22*%
X40825714Y-37262380D02*
X40825714Y-36262380D01*
X41063809Y-36262380D01*
X41206666Y-36310000D01*
X41301904Y-36405238D01*
X41349523Y-36500476D01*
X41397142Y-36690952D01*
X41397142Y-36833809D01*
X41349523Y-37024285D01*
X41301904Y-37119523D01*
X41206666Y-37214761D01*
X41063809Y-37262380D01*
X40825714Y-37262380D01*
X41778095Y-36357619D02*
X41825714Y-36310000D01*
X41920952Y-36262380D01*
X42159047Y-36262380D01*
X42254285Y-36310000D01*
X42301904Y-36357619D01*
X42349523Y-36452857D01*
X42349523Y-36548095D01*
X42301904Y-36690952D01*
X41730476Y-37262380D01*
X42349523Y-37262380D01*
X42730476Y-36357619D02*
X42778095Y-36310000D01*
X42873333Y-36262380D01*
X43111428Y-36262380D01*
X43206666Y-36310000D01*
X43254285Y-36357619D01*
X43301904Y-36452857D01*
X43301904Y-36548095D01*
X43254285Y-36690952D01*
X42682857Y-37262380D01*
X43301904Y-37262380D01*
%TO.C,D21*%
X37015714Y-37262380D02*
X37015714Y-36262380D01*
X37253809Y-36262380D01*
X37396666Y-36310000D01*
X37491904Y-36405238D01*
X37539523Y-36500476D01*
X37587142Y-36690952D01*
X37587142Y-36833809D01*
X37539523Y-37024285D01*
X37491904Y-37119523D01*
X37396666Y-37214761D01*
X37253809Y-37262380D01*
X37015714Y-37262380D01*
X37968095Y-36357619D02*
X38015714Y-36310000D01*
X38110952Y-36262380D01*
X38349047Y-36262380D01*
X38444285Y-36310000D01*
X38491904Y-36357619D01*
X38539523Y-36452857D01*
X38539523Y-36548095D01*
X38491904Y-36690952D01*
X37920476Y-37262380D01*
X38539523Y-37262380D01*
X39491904Y-37262380D02*
X38920476Y-37262380D01*
X39206190Y-37262380D02*
X39206190Y-36262380D01*
X39110952Y-36405238D01*
X39015714Y-36500476D01*
X38920476Y-36548095D01*
%TO.C,D20*%
X33205714Y-37262380D02*
X33205714Y-36262380D01*
X33443809Y-36262380D01*
X33586666Y-36310000D01*
X33681904Y-36405238D01*
X33729523Y-36500476D01*
X33777142Y-36690952D01*
X33777142Y-36833809D01*
X33729523Y-37024285D01*
X33681904Y-37119523D01*
X33586666Y-37214761D01*
X33443809Y-37262380D01*
X33205714Y-37262380D01*
X34158095Y-36357619D02*
X34205714Y-36310000D01*
X34300952Y-36262380D01*
X34539047Y-36262380D01*
X34634285Y-36310000D01*
X34681904Y-36357619D01*
X34729523Y-36452857D01*
X34729523Y-36548095D01*
X34681904Y-36690952D01*
X34110476Y-37262380D01*
X34729523Y-37262380D01*
X35348571Y-36262380D02*
X35443809Y-36262380D01*
X35539047Y-36310000D01*
X35586666Y-36357619D01*
X35634285Y-36452857D01*
X35681904Y-36643333D01*
X35681904Y-36881428D01*
X35634285Y-37071904D01*
X35586666Y-37167142D01*
X35539047Y-37214761D01*
X35443809Y-37262380D01*
X35348571Y-37262380D01*
X35253333Y-37214761D01*
X35205714Y-37167142D01*
X35158095Y-37071904D01*
X35110476Y-36881428D01*
X35110476Y-36643333D01*
X35158095Y-36452857D01*
X35205714Y-36357619D01*
X35253333Y-36310000D01*
X35348571Y-36262380D01*
%TO.C,D19*%
X29395714Y-37262380D02*
X29395714Y-36262380D01*
X29633809Y-36262380D01*
X29776666Y-36310000D01*
X29871904Y-36405238D01*
X29919523Y-36500476D01*
X29967142Y-36690952D01*
X29967142Y-36833809D01*
X29919523Y-37024285D01*
X29871904Y-37119523D01*
X29776666Y-37214761D01*
X29633809Y-37262380D01*
X29395714Y-37262380D01*
X30919523Y-37262380D02*
X30348095Y-37262380D01*
X30633809Y-37262380D02*
X30633809Y-36262380D01*
X30538571Y-36405238D01*
X30443333Y-36500476D01*
X30348095Y-36548095D01*
X31395714Y-37262380D02*
X31586190Y-37262380D01*
X31681428Y-37214761D01*
X31729047Y-37167142D01*
X31824285Y-37024285D01*
X31871904Y-36833809D01*
X31871904Y-36452857D01*
X31824285Y-36357619D01*
X31776666Y-36310000D01*
X31681428Y-36262380D01*
X31490952Y-36262380D01*
X31395714Y-36310000D01*
X31348095Y-36357619D01*
X31300476Y-36452857D01*
X31300476Y-36690952D01*
X31348095Y-36786190D01*
X31395714Y-36833809D01*
X31490952Y-36881428D01*
X31681428Y-36881428D01*
X31776666Y-36833809D01*
X31824285Y-36786190D01*
X31871904Y-36690952D01*
%TO.C,D18*%
X25585714Y-37262380D02*
X25585714Y-36262380D01*
X25823809Y-36262380D01*
X25966666Y-36310000D01*
X26061904Y-36405238D01*
X26109523Y-36500476D01*
X26157142Y-36690952D01*
X26157142Y-36833809D01*
X26109523Y-37024285D01*
X26061904Y-37119523D01*
X25966666Y-37214761D01*
X25823809Y-37262380D01*
X25585714Y-37262380D01*
X27109523Y-37262380D02*
X26538095Y-37262380D01*
X26823809Y-37262380D02*
X26823809Y-36262380D01*
X26728571Y-36405238D01*
X26633333Y-36500476D01*
X26538095Y-36548095D01*
X27680952Y-36690952D02*
X27585714Y-36643333D01*
X27538095Y-36595714D01*
X27490476Y-36500476D01*
X27490476Y-36452857D01*
X27538095Y-36357619D01*
X27585714Y-36310000D01*
X27680952Y-36262380D01*
X27871428Y-36262380D01*
X27966666Y-36310000D01*
X28014285Y-36357619D01*
X28061904Y-36452857D01*
X28061904Y-36500476D01*
X28014285Y-36595714D01*
X27966666Y-36643333D01*
X27871428Y-36690952D01*
X27680952Y-36690952D01*
X27585714Y-36738571D01*
X27538095Y-36786190D01*
X27490476Y-36881428D01*
X27490476Y-37071904D01*
X27538095Y-37167142D01*
X27585714Y-37214761D01*
X27680952Y-37262380D01*
X27871428Y-37262380D01*
X27966666Y-37214761D01*
X28014285Y-37167142D01*
X28061904Y-37071904D01*
X28061904Y-36881428D01*
X28014285Y-36786190D01*
X27966666Y-36738571D01*
X27871428Y-36690952D01*
%TO.C,D17*%
X48445714Y-34722380D02*
X48445714Y-33722380D01*
X48683809Y-33722380D01*
X48826666Y-33770000D01*
X48921904Y-33865238D01*
X48969523Y-33960476D01*
X49017142Y-34150952D01*
X49017142Y-34293809D01*
X48969523Y-34484285D01*
X48921904Y-34579523D01*
X48826666Y-34674761D01*
X48683809Y-34722380D01*
X48445714Y-34722380D01*
X49969523Y-34722380D02*
X49398095Y-34722380D01*
X49683809Y-34722380D02*
X49683809Y-33722380D01*
X49588571Y-33865238D01*
X49493333Y-33960476D01*
X49398095Y-34008095D01*
X50302857Y-33722380D02*
X50969523Y-33722380D01*
X50540952Y-34722380D01*
%TO.C,D16*%
X44635714Y-34722380D02*
X44635714Y-33722380D01*
X44873809Y-33722380D01*
X45016666Y-33770000D01*
X45111904Y-33865238D01*
X45159523Y-33960476D01*
X45207142Y-34150952D01*
X45207142Y-34293809D01*
X45159523Y-34484285D01*
X45111904Y-34579523D01*
X45016666Y-34674761D01*
X44873809Y-34722380D01*
X44635714Y-34722380D01*
X46159523Y-34722380D02*
X45588095Y-34722380D01*
X45873809Y-34722380D02*
X45873809Y-33722380D01*
X45778571Y-33865238D01*
X45683333Y-33960476D01*
X45588095Y-34008095D01*
X47016666Y-33722380D02*
X46826190Y-33722380D01*
X46730952Y-33770000D01*
X46683333Y-33817619D01*
X46588095Y-33960476D01*
X46540476Y-34150952D01*
X46540476Y-34531904D01*
X46588095Y-34627142D01*
X46635714Y-34674761D01*
X46730952Y-34722380D01*
X46921428Y-34722380D01*
X47016666Y-34674761D01*
X47064285Y-34627142D01*
X47111904Y-34531904D01*
X47111904Y-34293809D01*
X47064285Y-34198571D01*
X47016666Y-34150952D01*
X46921428Y-34103333D01*
X46730952Y-34103333D01*
X46635714Y-34150952D01*
X46588095Y-34198571D01*
X46540476Y-34293809D01*
%TO.C,D15*%
X40825714Y-34722380D02*
X40825714Y-33722380D01*
X41063809Y-33722380D01*
X41206666Y-33770000D01*
X41301904Y-33865238D01*
X41349523Y-33960476D01*
X41397142Y-34150952D01*
X41397142Y-34293809D01*
X41349523Y-34484285D01*
X41301904Y-34579523D01*
X41206666Y-34674761D01*
X41063809Y-34722380D01*
X40825714Y-34722380D01*
X42349523Y-34722380D02*
X41778095Y-34722380D01*
X42063809Y-34722380D02*
X42063809Y-33722380D01*
X41968571Y-33865238D01*
X41873333Y-33960476D01*
X41778095Y-34008095D01*
X43254285Y-33722380D02*
X42778095Y-33722380D01*
X42730476Y-34198571D01*
X42778095Y-34150952D01*
X42873333Y-34103333D01*
X43111428Y-34103333D01*
X43206666Y-34150952D01*
X43254285Y-34198571D01*
X43301904Y-34293809D01*
X43301904Y-34531904D01*
X43254285Y-34627142D01*
X43206666Y-34674761D01*
X43111428Y-34722380D01*
X42873333Y-34722380D01*
X42778095Y-34674761D01*
X42730476Y-34627142D01*
%TO.C,D14*%
X37015714Y-34722380D02*
X37015714Y-33722380D01*
X37253809Y-33722380D01*
X37396666Y-33770000D01*
X37491904Y-33865238D01*
X37539523Y-33960476D01*
X37587142Y-34150952D01*
X37587142Y-34293809D01*
X37539523Y-34484285D01*
X37491904Y-34579523D01*
X37396666Y-34674761D01*
X37253809Y-34722380D01*
X37015714Y-34722380D01*
X38539523Y-34722380D02*
X37968095Y-34722380D01*
X38253809Y-34722380D02*
X38253809Y-33722380D01*
X38158571Y-33865238D01*
X38063333Y-33960476D01*
X37968095Y-34008095D01*
X39396666Y-34055714D02*
X39396666Y-34722380D01*
X39158571Y-33674761D02*
X38920476Y-34389047D01*
X39539523Y-34389047D01*
%TO.C,D13*%
X33205714Y-34722380D02*
X33205714Y-33722380D01*
X33443809Y-33722380D01*
X33586666Y-33770000D01*
X33681904Y-33865238D01*
X33729523Y-33960476D01*
X33777142Y-34150952D01*
X33777142Y-34293809D01*
X33729523Y-34484285D01*
X33681904Y-34579523D01*
X33586666Y-34674761D01*
X33443809Y-34722380D01*
X33205714Y-34722380D01*
X34729523Y-34722380D02*
X34158095Y-34722380D01*
X34443809Y-34722380D02*
X34443809Y-33722380D01*
X34348571Y-33865238D01*
X34253333Y-33960476D01*
X34158095Y-34008095D01*
X35062857Y-33722380D02*
X35681904Y-33722380D01*
X35348571Y-34103333D01*
X35491428Y-34103333D01*
X35586666Y-34150952D01*
X35634285Y-34198571D01*
X35681904Y-34293809D01*
X35681904Y-34531904D01*
X35634285Y-34627142D01*
X35586666Y-34674761D01*
X35491428Y-34722380D01*
X35205714Y-34722380D01*
X35110476Y-34674761D01*
X35062857Y-34627142D01*
%TO.C,D12*%
X29395714Y-34722380D02*
X29395714Y-33722380D01*
X29633809Y-33722380D01*
X29776666Y-33770000D01*
X29871904Y-33865238D01*
X29919523Y-33960476D01*
X29967142Y-34150952D01*
X29967142Y-34293809D01*
X29919523Y-34484285D01*
X29871904Y-34579523D01*
X29776666Y-34674761D01*
X29633809Y-34722380D01*
X29395714Y-34722380D01*
X30919523Y-34722380D02*
X30348095Y-34722380D01*
X30633809Y-34722380D02*
X30633809Y-33722380D01*
X30538571Y-33865238D01*
X30443333Y-33960476D01*
X30348095Y-34008095D01*
X31300476Y-33817619D02*
X31348095Y-33770000D01*
X31443333Y-33722380D01*
X31681428Y-33722380D01*
X31776666Y-33770000D01*
X31824285Y-33817619D01*
X31871904Y-33912857D01*
X31871904Y-34008095D01*
X31824285Y-34150952D01*
X31252857Y-34722380D01*
X31871904Y-34722380D01*
%TO.C,D11*%
X25585714Y-34722380D02*
X25585714Y-33722380D01*
X25823809Y-33722380D01*
X25966666Y-33770000D01*
X26061904Y-33865238D01*
X26109523Y-33960476D01*
X26157142Y-34150952D01*
X26157142Y-34293809D01*
X26109523Y-34484285D01*
X26061904Y-34579523D01*
X25966666Y-34674761D01*
X25823809Y-34722380D01*
X25585714Y-34722380D01*
X27109523Y-34722380D02*
X26538095Y-34722380D01*
X26823809Y-34722380D02*
X26823809Y-33722380D01*
X26728571Y-33865238D01*
X26633333Y-33960476D01*
X26538095Y-34008095D01*
X28061904Y-34722380D02*
X27490476Y-34722380D01*
X27776190Y-34722380D02*
X27776190Y-33722380D01*
X27680952Y-33865238D01*
X27585714Y-33960476D01*
X27490476Y-34008095D01*
%TO.C,J1*%
X58866666Y-19847380D02*
X58866666Y-20561666D01*
X58819047Y-20704523D01*
X58723809Y-20799761D01*
X58580952Y-20847380D01*
X58485714Y-20847380D01*
X59866666Y-20847380D02*
X59295238Y-20847380D01*
X59580952Y-20847380D02*
X59580952Y-19847380D01*
X59485714Y-19990238D01*
X59390476Y-20085476D01*
X59295238Y-20133095D01*
%TO.C,D10*%
X45385714Y-27422380D02*
X45385714Y-26422380D01*
X45623809Y-26422380D01*
X45766666Y-26470000D01*
X45861904Y-26565238D01*
X45909523Y-26660476D01*
X45957142Y-26850952D01*
X45957142Y-26993809D01*
X45909523Y-27184285D01*
X45861904Y-27279523D01*
X45766666Y-27374761D01*
X45623809Y-27422380D01*
X45385714Y-27422380D01*
X46909523Y-27422380D02*
X46338095Y-27422380D01*
X46623809Y-27422380D02*
X46623809Y-26422380D01*
X46528571Y-26565238D01*
X46433333Y-26660476D01*
X46338095Y-26708095D01*
X47528571Y-26422380D02*
X47623809Y-26422380D01*
X47719047Y-26470000D01*
X47766666Y-26517619D01*
X47814285Y-26612857D01*
X47861904Y-26803333D01*
X47861904Y-27041428D01*
X47814285Y-27231904D01*
X47766666Y-27327142D01*
X47719047Y-27374761D01*
X47623809Y-27422380D01*
X47528571Y-27422380D01*
X47433333Y-27374761D01*
X47385714Y-27327142D01*
X47338095Y-27231904D01*
X47290476Y-27041428D01*
X47290476Y-26803333D01*
X47338095Y-26612857D01*
X47385714Y-26517619D01*
X47433333Y-26470000D01*
X47528571Y-26422380D01*
%TO.C,D9*%
X45861904Y-24422380D02*
X45861904Y-23422380D01*
X46100000Y-23422380D01*
X46242857Y-23470000D01*
X46338095Y-23565238D01*
X46385714Y-23660476D01*
X46433333Y-23850952D01*
X46433333Y-23993809D01*
X46385714Y-24184285D01*
X46338095Y-24279523D01*
X46242857Y-24374761D01*
X46100000Y-24422380D01*
X45861904Y-24422380D01*
X46909523Y-24422380D02*
X47100000Y-24422380D01*
X47195238Y-24374761D01*
X47242857Y-24327142D01*
X47338095Y-24184285D01*
X47385714Y-23993809D01*
X47385714Y-23612857D01*
X47338095Y-23517619D01*
X47290476Y-23470000D01*
X47195238Y-23422380D01*
X47004761Y-23422380D01*
X46909523Y-23470000D01*
X46861904Y-23517619D01*
X46814285Y-23612857D01*
X46814285Y-23850952D01*
X46861904Y-23946190D01*
X46909523Y-23993809D01*
X47004761Y-24041428D01*
X47195238Y-24041428D01*
X47290476Y-23993809D01*
X47338095Y-23946190D01*
X47385714Y-23850952D01*
%TO.C,D8*%
X41361904Y-27422380D02*
X41361904Y-26422380D01*
X41600000Y-26422380D01*
X41742857Y-26470000D01*
X41838095Y-26565238D01*
X41885714Y-26660476D01*
X41933333Y-26850952D01*
X41933333Y-26993809D01*
X41885714Y-27184285D01*
X41838095Y-27279523D01*
X41742857Y-27374761D01*
X41600000Y-27422380D01*
X41361904Y-27422380D01*
X42504761Y-26850952D02*
X42409523Y-26803333D01*
X42361904Y-26755714D01*
X42314285Y-26660476D01*
X42314285Y-26612857D01*
X42361904Y-26517619D01*
X42409523Y-26470000D01*
X42504761Y-26422380D01*
X42695238Y-26422380D01*
X42790476Y-26470000D01*
X42838095Y-26517619D01*
X42885714Y-26612857D01*
X42885714Y-26660476D01*
X42838095Y-26755714D01*
X42790476Y-26803333D01*
X42695238Y-26850952D01*
X42504761Y-26850952D01*
X42409523Y-26898571D01*
X42361904Y-26946190D01*
X42314285Y-27041428D01*
X42314285Y-27231904D01*
X42361904Y-27327142D01*
X42409523Y-27374761D01*
X42504761Y-27422380D01*
X42695238Y-27422380D01*
X42790476Y-27374761D01*
X42838095Y-27327142D01*
X42885714Y-27231904D01*
X42885714Y-27041428D01*
X42838095Y-26946190D01*
X42790476Y-26898571D01*
X42695238Y-26850952D01*
%TO.C,D7*%
X41361904Y-24422380D02*
X41361904Y-23422380D01*
X41600000Y-23422380D01*
X41742857Y-23470000D01*
X41838095Y-23565238D01*
X41885714Y-23660476D01*
X41933333Y-23850952D01*
X41933333Y-23993809D01*
X41885714Y-24184285D01*
X41838095Y-24279523D01*
X41742857Y-24374761D01*
X41600000Y-24422380D01*
X41361904Y-24422380D01*
X42266666Y-23422380D02*
X42933333Y-23422380D01*
X42504761Y-24422380D01*
%TO.C,D6*%
X37761904Y-27422380D02*
X37761904Y-26422380D01*
X38000000Y-26422380D01*
X38142857Y-26470000D01*
X38238095Y-26565238D01*
X38285714Y-26660476D01*
X38333333Y-26850952D01*
X38333333Y-26993809D01*
X38285714Y-27184285D01*
X38238095Y-27279523D01*
X38142857Y-27374761D01*
X38000000Y-27422380D01*
X37761904Y-27422380D01*
X39190476Y-26422380D02*
X39000000Y-26422380D01*
X38904761Y-26470000D01*
X38857142Y-26517619D01*
X38761904Y-26660476D01*
X38714285Y-26850952D01*
X38714285Y-27231904D01*
X38761904Y-27327142D01*
X38809523Y-27374761D01*
X38904761Y-27422380D01*
X39095238Y-27422380D01*
X39190476Y-27374761D01*
X39238095Y-27327142D01*
X39285714Y-27231904D01*
X39285714Y-26993809D01*
X39238095Y-26898571D01*
X39190476Y-26850952D01*
X39095238Y-26803333D01*
X38904761Y-26803333D01*
X38809523Y-26850952D01*
X38761904Y-26898571D01*
X38714285Y-26993809D01*
%TO.C,D5*%
X37761904Y-24422380D02*
X37761904Y-23422380D01*
X38000000Y-23422380D01*
X38142857Y-23470000D01*
X38238095Y-23565238D01*
X38285714Y-23660476D01*
X38333333Y-23850952D01*
X38333333Y-23993809D01*
X38285714Y-24184285D01*
X38238095Y-24279523D01*
X38142857Y-24374761D01*
X38000000Y-24422380D01*
X37761904Y-24422380D01*
X39238095Y-23422380D02*
X38761904Y-23422380D01*
X38714285Y-23898571D01*
X38761904Y-23850952D01*
X38857142Y-23803333D01*
X39095238Y-23803333D01*
X39190476Y-23850952D01*
X39238095Y-23898571D01*
X39285714Y-23993809D01*
X39285714Y-24231904D01*
X39238095Y-24327142D01*
X39190476Y-24374761D01*
X39095238Y-24422380D01*
X38857142Y-24422380D01*
X38761904Y-24374761D01*
X38714285Y-24327142D01*
%TO.C,D4*%
X33961904Y-27422380D02*
X33961904Y-26422380D01*
X34200000Y-26422380D01*
X34342857Y-26470000D01*
X34438095Y-26565238D01*
X34485714Y-26660476D01*
X34533333Y-26850952D01*
X34533333Y-26993809D01*
X34485714Y-27184285D01*
X34438095Y-27279523D01*
X34342857Y-27374761D01*
X34200000Y-27422380D01*
X33961904Y-27422380D01*
X35390476Y-26755714D02*
X35390476Y-27422380D01*
X35152380Y-26374761D02*
X34914285Y-27089047D01*
X35533333Y-27089047D01*
%TO.C,D3*%
X33961904Y-24422380D02*
X33961904Y-23422380D01*
X34200000Y-23422380D01*
X34342857Y-23470000D01*
X34438095Y-23565238D01*
X34485714Y-23660476D01*
X34533333Y-23850952D01*
X34533333Y-23993809D01*
X34485714Y-24184285D01*
X34438095Y-24279523D01*
X34342857Y-24374761D01*
X34200000Y-24422380D01*
X33961904Y-24422380D01*
X34866666Y-23422380D02*
X35485714Y-23422380D01*
X35152380Y-23803333D01*
X35295238Y-23803333D01*
X35390476Y-23850952D01*
X35438095Y-23898571D01*
X35485714Y-23993809D01*
X35485714Y-24231904D01*
X35438095Y-24327142D01*
X35390476Y-24374761D01*
X35295238Y-24422380D01*
X35009523Y-24422380D01*
X34914285Y-24374761D01*
X34866666Y-24327142D01*
%TO.C,D2*%
X29261904Y-27422380D02*
X29261904Y-26422380D01*
X29500000Y-26422380D01*
X29642857Y-26470000D01*
X29738095Y-26565238D01*
X29785714Y-26660476D01*
X29833333Y-26850952D01*
X29833333Y-26993809D01*
X29785714Y-27184285D01*
X29738095Y-27279523D01*
X29642857Y-27374761D01*
X29500000Y-27422380D01*
X29261904Y-27422380D01*
X30214285Y-26517619D02*
X30261904Y-26470000D01*
X30357142Y-26422380D01*
X30595238Y-26422380D01*
X30690476Y-26470000D01*
X30738095Y-26517619D01*
X30785714Y-26612857D01*
X30785714Y-26708095D01*
X30738095Y-26850952D01*
X30166666Y-27422380D01*
X30785714Y-27422380D01*
%TO.C,D1*%
X29361904Y-24422380D02*
X29361904Y-23422380D01*
X29600000Y-23422380D01*
X29742857Y-23470000D01*
X29838095Y-23565238D01*
X29885714Y-23660476D01*
X29933333Y-23850952D01*
X29933333Y-23993809D01*
X29885714Y-24184285D01*
X29838095Y-24279523D01*
X29742857Y-24374761D01*
X29600000Y-24422380D01*
X29361904Y-24422380D01*
X30885714Y-24422380D02*
X30314285Y-24422380D01*
X30600000Y-24422380D02*
X30600000Y-23422380D01*
X30504761Y-23565238D01*
X30409523Y-23660476D01*
X30314285Y-23708095D01*
D12*
%TO.C,D24*%
X50460000Y-37505000D02*
X48175000Y-37505000D01*
X48175000Y-37505000D02*
X48175000Y-38975000D01*
X48175000Y-38975000D02*
X50460000Y-38975000D01*
%TO.C,D23*%
X46650000Y-37505000D02*
X44365000Y-37505000D01*
X44365000Y-37505000D02*
X44365000Y-38975000D01*
X44365000Y-38975000D02*
X46650000Y-38975000D01*
%TO.C,D22*%
X42840000Y-37505000D02*
X40555000Y-37505000D01*
X40555000Y-37505000D02*
X40555000Y-38975000D01*
X40555000Y-38975000D02*
X42840000Y-38975000D01*
%TO.C,D21*%
X39030000Y-37505000D02*
X36745000Y-37505000D01*
X36745000Y-37505000D02*
X36745000Y-38975000D01*
X36745000Y-38975000D02*
X39030000Y-38975000D01*
%TO.C,D20*%
X35220000Y-37505000D02*
X32935000Y-37505000D01*
X32935000Y-37505000D02*
X32935000Y-38975000D01*
X32935000Y-38975000D02*
X35220000Y-38975000D01*
%TO.C,D19*%
X31410000Y-37505000D02*
X29125000Y-37505000D01*
X29125000Y-37505000D02*
X29125000Y-38975000D01*
X29125000Y-38975000D02*
X31410000Y-38975000D01*
%TO.C,D18*%
X27600000Y-37505000D02*
X25315000Y-37505000D01*
X25315000Y-37505000D02*
X25315000Y-38975000D01*
X25315000Y-38975000D02*
X27600000Y-38975000D01*
%TO.C,D17*%
X50460000Y-34965000D02*
X48175000Y-34965000D01*
X48175000Y-34965000D02*
X48175000Y-36435000D01*
X48175000Y-36435000D02*
X50460000Y-36435000D01*
%TO.C,D16*%
X46650000Y-34965000D02*
X44365000Y-34965000D01*
X44365000Y-34965000D02*
X44365000Y-36435000D01*
X44365000Y-36435000D02*
X46650000Y-36435000D01*
%TO.C,D15*%
X42840000Y-34965000D02*
X40555000Y-34965000D01*
X40555000Y-34965000D02*
X40555000Y-36435000D01*
X40555000Y-36435000D02*
X42840000Y-36435000D01*
%TO.C,D14*%
X39030000Y-34965000D02*
X36745000Y-34965000D01*
X36745000Y-34965000D02*
X36745000Y-36435000D01*
X36745000Y-36435000D02*
X39030000Y-36435000D01*
%TO.C,D13*%
X35220000Y-34965000D02*
X32935000Y-34965000D01*
X32935000Y-34965000D02*
X32935000Y-36435000D01*
X32935000Y-36435000D02*
X35220000Y-36435000D01*
%TO.C,D12*%
X31410000Y-34965000D02*
X29125000Y-34965000D01*
X29125000Y-34965000D02*
X29125000Y-36435000D01*
X29125000Y-36435000D02*
X31410000Y-36435000D01*
%TO.C,D11*%
X27600000Y-34965000D02*
X25315000Y-34965000D01*
X25315000Y-34965000D02*
X25315000Y-36435000D01*
X25315000Y-36435000D02*
X27600000Y-36435000D01*
%TO.C,J1*%
X57870000Y-22725000D02*
X57870000Y-21395000D01*
X57870000Y-26595000D02*
X60530000Y-26595000D01*
X57870000Y-23995000D02*
X57870000Y-26595000D01*
X57870000Y-23995000D02*
X60530000Y-23995000D01*
X57870000Y-21395000D02*
X59200000Y-21395000D01*
X60530000Y-23995000D02*
X60530000Y-26595000D01*
%TO.C,D10*%
X45115000Y-29135000D02*
X47400000Y-29135000D01*
X45115000Y-27665000D02*
X45115000Y-29135000D01*
X47400000Y-27665000D02*
X45115000Y-27665000D01*
%TO.C,D9*%
X45115000Y-26135000D02*
X47400000Y-26135000D01*
X45115000Y-24665000D02*
X45115000Y-26135000D01*
X47400000Y-24665000D02*
X45115000Y-24665000D01*
%TO.C,D8*%
X40615000Y-29135000D02*
X42900000Y-29135000D01*
X40615000Y-27665000D02*
X40615000Y-29135000D01*
X42900000Y-27665000D02*
X40615000Y-27665000D01*
%TO.C,D7*%
X40615000Y-26135000D02*
X42900000Y-26135000D01*
X40615000Y-24665000D02*
X40615000Y-26135000D01*
X42900000Y-24665000D02*
X40615000Y-24665000D01*
%TO.C,D6*%
X37015000Y-29135000D02*
X39300000Y-29135000D01*
X37015000Y-27665000D02*
X37015000Y-29135000D01*
X39300000Y-27665000D02*
X37015000Y-27665000D01*
%TO.C,D5*%
X37015000Y-26135000D02*
X39300000Y-26135000D01*
X37015000Y-24665000D02*
X37015000Y-26135000D01*
X39300000Y-24665000D02*
X37015000Y-24665000D01*
%TO.C,D4*%
X35500000Y-27665000D02*
X33215000Y-27665000D01*
X33215000Y-27665000D02*
X33215000Y-29135000D01*
X33215000Y-29135000D02*
X35500000Y-29135000D01*
%TO.C,D3*%
X33215000Y-26135000D02*
X35500000Y-26135000D01*
X33215000Y-24665000D02*
X33215000Y-26135000D01*
X35500000Y-24665000D02*
X33215000Y-24665000D01*
%TO.C,D2*%
X28515000Y-29135000D02*
X30800000Y-29135000D01*
X28515000Y-27665000D02*
X28515000Y-29135000D01*
X30800000Y-27665000D02*
X28515000Y-27665000D01*
%TO.C,D1*%
X28615000Y-26135000D02*
X30900000Y-26135000D01*
X28615000Y-24665000D02*
X28615000Y-26135000D01*
X30900000Y-24665000D02*
X28615000Y-24665000D01*
%TD*%
M02*
