%TF.GenerationSoftware,KiCad,Pcbnew,(6.0.2)*%
%TF.CreationDate,2022-03-09T19:45:25-08:00*%
%TF.ProjectId,IFLFU-test-back,49464c46-552d-4746-9573-742d6261636b,rev?*%
%TF.SameCoordinates,Original*%
%TF.FileFunction,Soldermask,Top*%
%TF.FilePolarity,Negative*%
%FSLAX46Y46*%
G04 Gerber Fmt 4.6, Leading zero omitted, Abs format (unit mm)*
G04 Created by KiCad (PCBNEW (6.0.2)) date 2022-03-09 19:45:25*
%MOMM*%
%LPD*%
G01*
G04 APERTURE LIST*
G04 Aperture macros list*
%AMRoundRect*
0 Rectangle with rounded corners*
0 $1 Rounding radius*
0 $2 $3 $4 $5 $6 $7 $8 $9 X,Y pos of 4 corners*
0 Add a 4 corners polygon primitive as box body*
4,1,4,$2,$3,$4,$5,$6,$7,$8,$9,$2,$3,0*
0 Add four circle primitives for the rounded corners*
1,1,$1+$1,$2,$3*
1,1,$1+$1,$4,$5*
1,1,$1+$1,$6,$7*
1,1,$1+$1,$8,$9*
0 Add four rect primitives between the rounded corners*
20,1,$1+$1,$2,$3,$4,$5,0*
20,1,$1+$1,$4,$5,$6,$7,0*
20,1,$1+$1,$6,$7,$8,$9,0*
20,1,$1+$1,$8,$9,$2,$3,0*%
G04 Aperture macros list end*
%ADD10RoundRect,0.218750X-0.218750X-0.256250X0.218750X-0.256250X0.218750X0.256250X-0.218750X0.256250X0*%
%ADD11R,1.700000X1.700000*%
%ADD12O,1.700000X1.700000*%
G04 APERTURE END LIST*
D10*
%TO.C,D24*%
X50447500Y-38240000D03*
X48872500Y-38240000D03*
%TD*%
%TO.C,D23*%
X46637500Y-38240000D03*
X45062500Y-38240000D03*
%TD*%
%TO.C,D22*%
X42827500Y-38240000D03*
X41252500Y-38240000D03*
%TD*%
%TO.C,D21*%
X39017500Y-38240000D03*
X37442500Y-38240000D03*
%TD*%
%TO.C,D20*%
X35207500Y-38240000D03*
X33632500Y-38240000D03*
%TD*%
%TO.C,D19*%
X31397500Y-38240000D03*
X29822500Y-38240000D03*
%TD*%
%TO.C,D18*%
X27587500Y-38240000D03*
X26012500Y-38240000D03*
%TD*%
%TO.C,D17*%
X50447500Y-35700000D03*
X48872500Y-35700000D03*
%TD*%
%TO.C,D16*%
X46637500Y-35700000D03*
X45062500Y-35700000D03*
%TD*%
%TO.C,D15*%
X42827500Y-35700000D03*
X41252500Y-35700000D03*
%TD*%
%TO.C,D14*%
X39017500Y-35700000D03*
X37442500Y-35700000D03*
%TD*%
%TO.C,D13*%
X35207500Y-35700000D03*
X33632500Y-35700000D03*
%TD*%
%TO.C,D12*%
X31397500Y-35700000D03*
X29822500Y-35700000D03*
%TD*%
%TO.C,D11*%
X27587500Y-35700000D03*
X26012500Y-35700000D03*
%TD*%
D11*
%TO.C,J1*%
X59200000Y-22725000D03*
D12*
X59200000Y-25265000D03*
%TD*%
D10*
%TO.C,D10*%
X45812500Y-28400000D03*
X47387500Y-28400000D03*
%TD*%
%TO.C,D9*%
X45812500Y-25400000D03*
X47387500Y-25400000D03*
%TD*%
%TO.C,D8*%
X41312500Y-28400000D03*
X42887500Y-28400000D03*
%TD*%
%TO.C,D7*%
X41312500Y-25400000D03*
X42887500Y-25400000D03*
%TD*%
%TO.C,D6*%
X37712500Y-28400000D03*
X39287500Y-28400000D03*
%TD*%
%TO.C,D5*%
X37712500Y-25400000D03*
X39287500Y-25400000D03*
%TD*%
%TO.C,D4*%
X35487500Y-28400000D03*
X33912500Y-28400000D03*
%TD*%
%TO.C,D3*%
X33912500Y-25400000D03*
X35487500Y-25400000D03*
%TD*%
%TO.C,D2*%
X29212500Y-28400000D03*
X30787500Y-28400000D03*
%TD*%
%TO.C,D1*%
X29312500Y-25400000D03*
X30887500Y-25400000D03*
%TD*%
M02*
