  0
SECTION
  2
HEADER
  9
$ANGBASE
  50
0.0
  9
$ANGDIR
  70
1
  9
$MEASUREMENT
  70
0
  0
ENDSEC
  0
SECTION
  2
TABLES
  0
TABLE
  2
LTYPE
  70
4
  0
LTYPE
  5
40F
  2
CONTINUOUS
  70
0
  3
Solid line
  72
65
  73
0
  40
0.0
  0
LTYPE
  5
410
  2
DASHDOT
 70
0
  3
Dash Dot ____ _ ____ _
 72
65
 73
4
 40
2.0
 49
1.25
 49
-0.25
 49
0.25
 49
-0.25
  0
LTYPE
  5
411
  2
DASHED
 70
0
  3
Dashed __ __ __ __ __
 72
65
 73
2
 40
0.75
 49
0.5
 49
-0.25
  0
LTYPE
  5
43B
  2
DOTTED
 70
0
  3
Dotted .  .  .  .
 72
65
 73
2
 40
0.2
 49
0.0
 49
-0.2
  0
ENDTAB
  0
TABLE
  2
STYLE
  70
4
  0
STYLE
  2
KICAD
  70
0
  40
0
  41
1
  42
1
  50
0
  71
0
  3
isocp.shx
  0
STYLE
  2
KICADB
  70
0
  40
0
  41
1
  42
1
  50
0
  71
0
  3
isocp.shx
  0
STYLE
  2
KICADI
  70
0
  40
0
  41
1
  42
1
  50
15
  71
0
  3
isocp.shx
  0
STYLE
  2
KICADBI
  70
0
  40
0
  41
1
  42
1
  50
15
  71
0
  3
isocp.shx
  0
ENDTAB
  0
TABLE
  2
LAYER
  70
1
  0
LAYER
  2
BLACK
  70
0
  62
7
  6
CONTINUOUS
  0
ENDTAB
  0
ENDSEC
  0
SECTION
  2
ENTITIES
0
LINE
8
BLACK
6
CONTINUOUS
10
7.66126
20
-5.78499
11
7.6614
21
-5.78531
0
LINE
8
BLACK
6
CONTINUOUS
10
7.6614
20
-5.78531
11
7.6614
21
-5.80528
0
LINE
8
BLACK
6
CONTINUOUS
10
7.6614
20
-5.80528
11
7.66126
21
-5.8056
0
LINE
8
BLACK
6
CONTINUOUS
10
7.66126
20
-5.8056
11
7.66093
21
-5.80574
0
LINE
8
BLACK
6
CONTINUOUS
10
7.66093
20
-5.80574
11
7.65484
21
-5.80566
0
LINE
8
BLACK
6
CONTINUOUS
10
7.65484
20
-5.80566
11
7.65146
21
-5.80562
0
LINE
8
BLACK
6
CONTINUOUS
10
7.65146
20
-5.80562
11
7.64205
21
-5.80706
0
LINE
8
BLACK
6
CONTINUOUS
10
7.64205
20
-5.80706
11
7.633
21
-5.81002
0
LINE
8
BLACK
6
CONTINUOUS
10
7.633
20
-5.81002
11
7.62456
21
-5.81441
0
LINE
8
BLACK
6
CONTINUOUS
10
7.62456
20
-5.81441
11
7.61694
21
-5.82013
0
LINE
8
BLACK
6
CONTINUOUS
10
7.61694
20
-5.82013
11
7.61693
21
-5.82014
0
LINE
8
BLACK
6
CONTINUOUS
10
7.61693
20
-5.82014
11
7.61693
21
-5.82014
0
LINE
8
BLACK
6
CONTINUOUS
10
7.61693
20
-5.82014
11
7.61603
21
-5.82109
0
LINE
8
BLACK
6
CONTINUOUS
10
7.61603
20
-5.82109
11
7.61037
21
-5.82701
0
LINE
8
BLACK
6
CONTINUOUS
10
7.61037
20
-5.82701
11
7.605
21
-5.83488
0
LINE
8
BLACK
6
CONTINUOUS
10
7.605
20
-5.83488
11
7.60499
21
-5.83489
0
LINE
8
BLACK
6
CONTINUOUS
10
7.60499
20
-5.83489
11
7.60499
21
-5.83489
0
LINE
8
BLACK
6
CONTINUOUS
10
7.60499
20
-5.83489
11
7.60317
21
-5.83881
0
LINE
8
BLACK
6
CONTINUOUS
10
7.60317
20
-5.83881
11
7.60099
21
-5.84351
0
LINE
8
BLACK
6
CONTINUOUS
10
7.60099
20
-5.84351
11
7.60099
21
-5.84353
0
LINE
8
BLACK
6
CONTINUOUS
10
7.60099
20
-5.84353
11
7.60099
21
-5.84353
0
LINE
8
BLACK
6
CONTINUOUS
10
7.60099
20
-5.84353
11
7.59866
21
-5.85191
0
LINE
8
BLACK
6
CONTINUOUS
10
7.59866
20
-5.85191
11
7.59845
21
-5.85269
0
LINE
8
BLACK
6
CONTINUOUS
10
7.59845
20
-5.85269
11
7.59845
21
-5.8527
0
LINE
8
BLACK
6
CONTINUOUS
10
7.59845
20
-5.8527
11
7.59845
21
-5.8527
0
LINE
8
BLACK
6
CONTINUOUS
10
7.59845
20
-5.8527
11
7.59814
21
-5.85559
0
LINE
8
BLACK
6
CONTINUOUS
10
7.59814
20
-5.85559
11
7.59744
21
-5.86215
0
LINE
8
BLACK
6
CONTINUOUS
10
7.59744
20
-5.86215
11
7.59799
21
-5.87166
0
LINE
8
BLACK
6
CONTINUOUS
10
7.59799
20
-5.87166
11
7.60008
21
-5.88094
0
LINE
8
BLACK
6
CONTINUOUS
10
7.60008
20
-5.88094
11
7.60366
21
-5.88976
0
LINE
8
BLACK
6
CONTINUOUS
10
7.60366
20
-5.88976
11
7.60863
21
-5.89788
0
LINE
8
BLACK
6
CONTINUOUS
10
7.60863
20
-5.89788
11
7.61487
21
-5.90508
0
LINE
8
BLACK
6
CONTINUOUS
10
7.61487
20
-5.90508
11
7.62219
21
-5.91116
0
LINE
8
BLACK
6
CONTINUOUS
10
7.62219
20
-5.91116
11
7.63041
21
-5.91596
0
LINE
8
BLACK
6
CONTINUOUS
10
7.63041
20
-5.91596
11
7.6393
21
-5.91936
0
LINE
8
BLACK
6
CONTINUOUS
10
7.6393
20
-5.91936
11
7.64863
21
-5.92125
0
LINE
8
BLACK
6
CONTINUOUS
10
7.64863
20
-5.92125
11
7.64865
21
-5.92126
0
LINE
8
BLACK
6
CONTINUOUS
10
7.64865
20
-5.92126
11
7.64865
21
-5.92126
0
LINE
8
BLACK
6
CONTINUOUS
10
7.64865
20
-5.92126
11
7.65279
21
-5.92141
0
LINE
8
BLACK
6
CONTINUOUS
10
7.65279
20
-5.92141
11
7.65815
21
-5.9216
0
LINE
8
BLACK
6
CONTINUOUS
10
7.65815
20
-5.9216
11
7.65817
21
-5.9216
0
LINE
8
BLACK
6
CONTINUOUS
10
7.65817
20
-5.9216
11
7.65817
21
-5.9216
0
LINE
8
BLACK
6
CONTINUOUS
10
7.65817
20
-5.9216
11
7.6596
21
-5.92142
0
LINE
8
BLACK
6
CONTINUOUS
10
7.6596
20
-5.92142
11
7.66088
21
-5.92125
0
LINE
8
BLACK
6
CONTINUOUS
10
7.66088
20
-5.92125
11
7.66122
21
-5.92135
0
LINE
8
BLACK
6
CONTINUOUS
10
7.66122
20
-5.92135
11
7.66139
21
-5.92165
0
LINE
8
BLACK
6
CONTINUOUS
10
7.66139
20
-5.92165
11
7.6614
21
-5.92171
0
LINE
8
BLACK
6
CONTINUOUS
10
7.6614
20
-5.92171
11
7.6614
21
-7.73441
0
LINE
8
BLACK
6
CONTINUOUS
10
7.6614
20
-7.73441
11
7.66126
21
-7.73474
0
LINE
8
BLACK
6
CONTINUOUS
10
7.66126
20
-7.73474
11
7.66093
21
-7.73487
0
LINE
8
BLACK
6
CONTINUOUS
10
7.66093
20
-7.73487
11
7.65484
21
-7.7348
0
LINE
8
BLACK
6
CONTINUOUS
10
7.65484
20
-7.7348
11
7.65146
21
-7.73475
0
LINE
8
BLACK
6
CONTINUOUS
10
7.65146
20
-7.73475
11
7.64205
21
-7.73619
0
LINE
8
BLACK
6
CONTINUOUS
10
7.64205
20
-7.73619
11
7.633
21
-7.73915
0
LINE
8
BLACK
6
CONTINUOUS
10
7.633
20
-7.73915
11
7.62759
21
-7.74197
0
LINE
8
BLACK
6
CONTINUOUS
10
7.62759
20
-7.74197
11
7.62579
21
-7.7429
0
LINE
8
BLACK
6
CONTINUOUS
10
7.62579
20
-7.7429
11
7.62456
21
-7.74355
0
LINE
8
BLACK
6
CONTINUOUS
10
7.62456
20
-7.74355
11
7.61694
21
-7.74926
0
LINE
8
BLACK
6
CONTINUOUS
10
7.61694
20
-7.74926
11
7.61693
21
-7.74928
0
LINE
8
BLACK
6
CONTINUOUS
10
7.61693
20
-7.74928
11
7.61693
21
-7.74928
0
LINE
8
BLACK
6
CONTINUOUS
10
7.61693
20
-7.74928
11
7.61603
21
-7.75022
0
LINE
8
BLACK
6
CONTINUOUS
10
7.61603
20
-7.75022
11
7.61037
21
-7.75615
0
LINE
8
BLACK
6
CONTINUOUS
10
7.61037
20
-7.75615
11
7.605
21
-7.76401
0
LINE
8
BLACK
6
CONTINUOUS
10
7.605
20
-7.76401
11
7.60499
21
-7.76403
0
LINE
8
BLACK
6
CONTINUOUS
10
7.60499
20
-7.76403
11
7.60499
21
-7.76403
0
LINE
8
BLACK
6
CONTINUOUS
10
7.60499
20
-7.76403
11
7.60213
21
-7.77019
0
LINE
8
BLACK
6
CONTINUOUS
10
7.60213
20
-7.77019
11
7.60099
21
-7.77265
0
LINE
8
BLACK
6
CONTINUOUS
10
7.60099
20
-7.77265
11
7.60099
21
-7.77266
0
LINE
8
BLACK
6
CONTINUOUS
10
7.60099
20
-7.77266
11
7.60099
21
-7.77266
0
LINE
8
BLACK
6
CONTINUOUS
10
7.60099
20
-7.77266
11
7.599
21
-7.77984
0
LINE
8
BLACK
6
CONTINUOUS
10
7.599
20
-7.77984
11
7.59845
21
-7.78182
0
LINE
8
BLACK
6
CONTINUOUS
10
7.59845
20
-7.78182
11
7.59845
21
-7.78184
0
LINE
8
BLACK
6
CONTINUOUS
10
7.59845
20
-7.78184
11
7.59845
21
-7.78184
0
LINE
8
BLACK
6
CONTINUOUS
10
7.59845
20
-7.78184
11
7.59791
21
-7.78685
0
LINE
8
BLACK
6
CONTINUOUS
10
7.59791
20
-7.78685
11
7.59744
21
-7.79129
0
LINE
8
BLACK
6
CONTINUOUS
10
7.59744
20
-7.79129
11
7.59799
21
-7.80079
0
LINE
8
BLACK
6
CONTINUOUS
10
7.59799
20
-7.80079
11
7.60008
21
-7.81008
0
LINE
8
BLACK
6
CONTINUOUS
10
7.60008
20
-7.81008
11
7.60009
21
-7.8101
0
LINE
8
BLACK
6
CONTINUOUS
10
7.60009
20
-7.8101
11
7.60009
21
-7.8101
0
LINE
8
BLACK
6
CONTINUOUS
10
7.60009
20
-7.8101
11
7.603
21
-7.81727
0
LINE
8
BLACK
6
CONTINUOUS
10
7.603
20
-7.81727
11
7.60366
21
-7.8189
0
LINE
8
BLACK
6
CONTINUOUS
10
7.60366
20
-7.8189
11
7.60367
21
-7.81891
0
LINE
8
BLACK
6
CONTINUOUS
10
7.60367
20
-7.81891
11
7.60832
21
-7.82651
0
LINE
8
BLACK
6
CONTINUOUS
10
7.60832
20
-7.82651
11
7.60863
21
-7.82701
0
LINE
8
BLACK
6
CONTINUOUS
10
7.60863
20
-7.82701
11
7.61487
21
-7.83421
0
LINE
8
BLACK
6
CONTINUOUS
10
7.61487
20
-7.83421
11
7.61488
21
-7.83422
0
LINE
8
BLACK
6
CONTINUOUS
10
7.61488
20
-7.83422
11
7.61488
21
-7.83422
0
LINE
8
BLACK
6
CONTINUOUS
10
7.61488
20
-7.83422
11
7.62077
21
-7.83911
0
LINE
8
BLACK
6
CONTINUOUS
10
7.62077
20
-7.83911
11
7.62094
21
-7.83943
0
LINE
8
BLACK
6
CONTINUOUS
10
7.62094
20
-7.83943
11
7.62083
21
-7.83976
0
LINE
8
BLACK
6
CONTINUOUS
10
7.62083
20
-7.83976
11
7.62052
21
-7.83993
0
LINE
8
BLACK
6
CONTINUOUS
10
7.62052
20
-7.83993
11
7.62048
21
-7.83993
0
LINE
8
BLACK
6
CONTINUOUS
10
7.62048
20
-7.83993
11
7.51904
21
-7.83993
0
LINE
8
BLACK
6
CONTINUOUS
10
7.51904
20
-7.83993
11
7.51871
21
-7.83979
0
LINE
8
BLACK
6
CONTINUOUS
10
7.51871
20
-7.83979
11
7.51858
21
-7.83947
0
LINE
8
BLACK
6
CONTINUOUS
10
7.51858
20
-7.83947
11
7.51858
21
-7.83941
0
LINE
8
BLACK
6
CONTINUOUS
10
7.51858
20
-7.83941
11
7.51865
21
-7.83885
0
LINE
8
BLACK
6
CONTINUOUS
10
7.51865
20
-7.83885
11
7.51872
21
-7.83601
0
LINE
8
BLACK
6
CONTINUOUS
10
7.51872
20
-7.83601
11
7.51794
21
-7.82652
0
LINE
8
BLACK
6
CONTINUOUS
10
7.51794
20
-7.82652
11
7.51562
21
-7.81729
0
LINE
8
BLACK
6
CONTINUOUS
10
7.51562
20
-7.81729
11
7.51183
21
-7.80856
0
LINE
8
BLACK
6
CONTINUOUS
10
7.51183
20
-7.80856
11
7.50666
21
-7.80057
0
LINE
8
BLACK
6
CONTINUOUS
10
7.50666
20
-7.80057
11
7.50025
21
-7.79353
0
LINE
8
BLACK
6
CONTINUOUS
10
7.50025
20
-7.79353
11
7.49904
21
-7.79257
0
LINE
8
BLACK
6
CONTINUOUS
10
7.49904
20
-7.79257
11
7.49431
21
-7.78883
0
LINE
8
BLACK
6
CONTINUOUS
10
7.49431
20
-7.78883
11
7.49278
21
-7.78763
0
LINE
8
BLACK
6
CONTINUOUS
10
7.49278
20
-7.78763
11
7.49276
21
-7.78762
0
LINE
8
BLACK
6
CONTINUOUS
10
7.49276
20
-7.78762
11
7.49276
21
-7.78762
0
LINE
8
BLACK
6
CONTINUOUS
10
7.49276
20
-7.78762
11
7.48446
21
-7.78303
0
LINE
8
BLACK
6
CONTINUOUS
10
7.48446
20
-7.78303
11
7.48446
21
-7.78303
0
LINE
8
BLACK
6
CONTINUOUS
10
7.48446
20
-7.78303
11
7.48444
21
-7.78303
0
LINE
8
BLACK
6
CONTINUOUS
10
7.48444
20
-7.78303
11
7.48443
21
-7.78302
0
LINE
8
BLACK
6
CONTINUOUS
10
7.48443
20
-7.78302
11
7.48443
21
-7.78302
0
LINE
8
BLACK
6
CONTINUOUS
10
7.48443
20
-7.78302
11
7.47549
21
-7.77985
0
LINE
8
BLACK
6
CONTINUOUS
10
7.47549
20
-7.77985
11
7.47549
21
-7.77985
0
LINE
8
BLACK
6
CONTINUOUS
10
7.47549
20
-7.77985
11
7.47547
21
-7.77985
0
LINE
8
BLACK
6
CONTINUOUS
10
7.47547
20
-7.77985
11
7.47545
21
-7.77984
0
LINE
8
BLACK
6
CONTINUOUS
10
7.47545
20
-7.77984
11
7.47545
21
-7.77984
0
LINE
8
BLACK
6
CONTINUOUS
10
7.47545
20
-7.77984
11
7.46612
21
-7.77818
0
LINE
8
BLACK
6
CONTINUOUS
10
7.46612
20
-7.77818
11
7.4661
21
-7.77818
0
LINE
8
BLACK
6
CONTINUOUS
10
7.4661
20
-7.77818
11
7.46608
21
-7.77818
0
LINE
8
BLACK
6
CONTINUOUS
10
7.46608
20
-7.77818
11
7.46608
21
-7.77818
0
LINE
8
BLACK
6
CONTINUOUS
10
7.46608
20
-7.77818
11
7.461
21
-7.77812
0
LINE
8
BLACK
6
CONTINUOUS
10
7.461
20
-7.77812
11
7.45658
21
-7.77806
0
LINE
8
BLACK
6
CONTINUOUS
10
7.45658
20
-7.77806
11
7.44717
21
-7.7795
0
LINE
8
BLACK
6
CONTINUOUS
10
7.44717
20
-7.7795
11
7.43812
21
-7.78246
0
LINE
8
BLACK
6
CONTINUOUS
10
7.43812
20
-7.78246
11
7.42967
21
-7.78686
0
LINE
8
BLACK
6
CONTINUOUS
10
7.42967
20
-7.78686
11
7.42206
21
-7.79257
0
LINE
8
BLACK
6
CONTINUOUS
10
7.42206
20
-7.79257
11
7.42205
21
-7.79258
0
LINE
8
BLACK
6
CONTINUOUS
10
7.42205
20
-7.79258
11
7.42205
21
-7.79258
0
LINE
8
BLACK
6
CONTINUOUS
10
7.42205
20
-7.79258
11
7.41922
21
-7.79554
0
LINE
8
BLACK
6
CONTINUOUS
10
7.41922
20
-7.79554
11
7.41548
21
-7.79945
0
LINE
8
BLACK
6
CONTINUOUS
10
7.41548
20
-7.79945
11
7.41012
21
-7.80732
0
LINE
8
BLACK
6
CONTINUOUS
10
7.41012
20
-7.80732
11
7.41011
21
-7.80734
0
LINE
8
BLACK
6
CONTINUOUS
10
7.41011
20
-7.80734
11
7.41011
21
-7.80734
0
LINE
8
BLACK
6
CONTINUOUS
10
7.41011
20
-7.80734
11
7.40883
21
-7.8101
0
LINE
8
BLACK
6
CONTINUOUS
10
7.40883
20
-7.8101
11
7.40611
21
-7.81595
0
LINE
8
BLACK
6
CONTINUOUS
10
7.40611
20
-7.81595
11
7.40611
21
-7.81597
0
LINE
8
BLACK
6
CONTINUOUS
10
7.40611
20
-7.81597
11
7.40611
21
-7.81597
0
LINE
8
BLACK
6
CONTINUOUS
10
7.40611
20
-7.81597
11
7.40384
21
-7.82413
0
LINE
8
BLACK
6
CONTINUOUS
10
7.40384
20
-7.82413
11
7.40357
21
-7.82513
0
LINE
8
BLACK
6
CONTINUOUS
10
7.40357
20
-7.82513
11
7.40356
21
-7.82515
0
LINE
8
BLACK
6
CONTINUOUS
10
7.40356
20
-7.82515
11
7.40356
21
-7.82515
0
LINE
8
BLACK
6
CONTINUOUS
10
7.40356
20
-7.82515
11
7.40301
21
-7.83036
0
LINE
8
BLACK
6
CONTINUOUS
10
7.40301
20
-7.83036
11
7.40256
21
-7.83459
0
LINE
8
BLACK
6
CONTINUOUS
10
7.40256
20
-7.83459
11
7.40283
21
-7.83943
0
LINE
8
BLACK
6
CONTINUOUS
10
7.40283
20
-7.83943
11
7.40283
21
-7.83944
0
LINE
8
BLACK
6
CONTINUOUS
10
7.40283
20
-7.83944
11
7.40272
21
-7.83978
0
LINE
8
BLACK
6
CONTINUOUS
10
7.40272
20
-7.83978
11
7.40237
21
-7.83993
0
LINE
8
BLACK
6
CONTINUOUS
10
7.40237
20
-7.83993
11
7.24016
21
-7.83993
0
LINE
8
BLACK
6
CONTINUOUS
10
7.24016
20
-7.83993
11
7.24016
21
-7.83993
0
LINE
8
BLACK
6
CONTINUOUS
10
7.24016
20
-7.83993
11
7.24015
21
-7.83993
0
LINE
8
BLACK
6
CONTINUOUS
10
7.24015
20
-7.83993
11
7.24014
21
-7.83993
0
LINE
8
BLACK
6
CONTINUOUS
10
7.24014
20
-7.83993
11
7.24014
21
-7.83995
0
LINE
8
BLACK
6
CONTINUOUS
10
7.24014
20
-7.83995
11
7.24014
21
-7.83995
0
LINE
8
BLACK
6
CONTINUOUS
10
7.24014
20
-7.83995
11
7.24014
21
-7.92732
0
LINE
8
BLACK
6
CONTINUOUS
10
7.24014
20
-7.92732
11
7.24
21
-7.92765
0
LINE
8
BLACK
6
CONTINUOUS
10
7.24
20
-7.92765
11
7.23967
21
-7.92778
0
LINE
8
BLACK
6
CONTINUOUS
10
7.23967
20
-7.92778
11
7.23358
21
-7.92771
0
LINE
8
BLACK
6
CONTINUOUS
10
7.23358
20
-7.92771
11
7.2302
21
-7.92767
0
LINE
8
BLACK
6
CONTINUOUS
10
7.2302
20
-7.92767
11
7.22079
21
-7.92911
0
LINE
8
BLACK
6
CONTINUOUS
10
7.22079
20
-7.92911
11
7.21174
21
-7.93207
0
LINE
8
BLACK
6
CONTINUOUS
10
7.21174
20
-7.93207
11
7.2033
21
-7.93646
0
LINE
8
BLACK
6
CONTINUOUS
10
7.2033
20
-7.93646
11
7.19568
21
-7.94218
0
LINE
8
BLACK
6
CONTINUOUS
10
7.19568
20
-7.94218
11
7.18911
21
-7.94906
0
LINE
8
BLACK
6
CONTINUOUS
10
7.18911
20
-7.94906
11
7.18374
21
-7.95692
0
LINE
8
BLACK
6
CONTINUOUS
10
7.18374
20
-7.95692
11
7.18373
21
-7.95694
0
LINE
8
BLACK
6
CONTINUOUS
10
7.18373
20
-7.95694
11
7.18373
21
-7.95694
0
LINE
8
BLACK
6
CONTINUOUS
10
7.18373
20
-7.95694
11
7.18122
21
-7.96235
0
LINE
8
BLACK
6
CONTINUOUS
10
7.18122
20
-7.96235
11
7.17973
21
-7.96556
0
LINE
8
BLACK
6
CONTINUOUS
10
7.17973
20
-7.96556
11
7.17719
21
-7.97473
0
LINE
8
BLACK
6
CONTINUOUS
10
7.17719
20
-7.97473
11
7.17719
21
-7.97475
0
LINE
8
BLACK
6
CONTINUOUS
10
7.17719
20
-7.97475
11
7.17719
21
-7.97475
0
LINE
8
BLACK
6
CONTINUOUS
10
7.17719
20
-7.97475
11
7.17618
21
-7.98418
0
LINE
8
BLACK
6
CONTINUOUS
10
7.17618
20
-7.98418
11
7.17618
21
-7.9842
0
LINE
8
BLACK
6
CONTINUOUS
10
7.17618
20
-7.9842
11
7.17673
21
-7.9937
0
LINE
8
BLACK
6
CONTINUOUS
10
7.17673
20
-7.9937
11
7.17882
21
-8.00299
0
LINE
8
BLACK
6
CONTINUOUS
10
7.17882
20
-8.00299
11
7.1824
21
-8.01181
0
LINE
8
BLACK
6
CONTINUOUS
10
7.1824
20
-8.01181
11
7.18737
21
-8.01993
0
LINE
8
BLACK
6
CONTINUOUS
10
7.18737
20
-8.01993
11
7.19361
21
-8.02712
0
LINE
8
BLACK
6
CONTINUOUS
10
7.19361
20
-8.02712
11
7.20093
21
-8.03321
0
LINE
8
BLACK
6
CONTINUOUS
10
7.20093
20
-8.03321
11
7.20915
21
-8.03801
0
LINE
8
BLACK
6
CONTINUOUS
10
7.20915
20
-8.03801
11
7.21804
21
-8.0414
0
LINE
8
BLACK
6
CONTINUOUS
10
7.21804
20
-8.0414
11
7.22737
21
-8.0433
0
LINE
8
BLACK
6
CONTINUOUS
10
7.22737
20
-8.0433
11
7.22739
21
-8.0433
0
LINE
8
BLACK
6
CONTINUOUS
10
7.22739
20
-8.0433
11
7.22739
21
-8.0433
0
LINE
8
BLACK
6
CONTINUOUS
10
7.22739
20
-8.0433
11
7.23153
21
-8.04345
0
LINE
8
BLACK
6
CONTINUOUS
10
7.23153
20
-8.04345
11
7.23689
21
-8.04365
0
LINE
8
BLACK
6
CONTINUOUS
10
7.23689
20
-8.04365
11
7.23691
21
-8.04365
0
LINE
8
BLACK
6
CONTINUOUS
10
7.23691
20
-8.04365
11
7.23691
21
-8.04365
0
LINE
8
BLACK
6
CONTINUOUS
10
7.23691
20
-8.04365
11
7.23834
21
-8.04346
0
LINE
8
BLACK
6
CONTINUOUS
10
7.23834
20
-8.04346
11
7.23962
21
-8.0433
0
LINE
8
BLACK
6
CONTINUOUS
10
7.23962
20
-8.0433
11
7.23996
21
-8.04339
0
LINE
8
BLACK
6
CONTINUOUS
10
7.23996
20
-8.04339
11
7.24013
21
-8.0437
0
LINE
8
BLACK
6
CONTINUOUS
10
7.24013
20
-8.0437
11
7.24014
21
-8.04376
0
LINE
8
BLACK
6
CONTINUOUS
10
7.24014
20
-8.04376
11
7.24014
21
-8.20291
0
LINE
8
BLACK
6
CONTINUOUS
10
7.24014
20
-8.20291
11
7.24
21
-8.20324
0
LINE
8
BLACK
6
CONTINUOUS
10
7.24
20
-8.20324
11
7.23967
21
-8.20337
0
LINE
8
BLACK
6
CONTINUOUS
10
7.23967
20
-8.20337
11
7.23358
21
-8.2033
0
LINE
8
BLACK
6
CONTINUOUS
10
7.23358
20
-8.2033
11
7.2302
21
-8.20326
0
LINE
8
BLACK
6
CONTINUOUS
10
7.2302
20
-8.20326
11
7.22079
21
-8.2047
0
LINE
8
BLACK
6
CONTINUOUS
10
7.22079
20
-8.2047
11
7.21174
21
-8.20766
0
LINE
8
BLACK
6
CONTINUOUS
10
7.21174
20
-8.20766
11
7.2033
21
-8.21205
0
LINE
8
BLACK
6
CONTINUOUS
10
7.2033
20
-8.21205
11
7.19568
21
-8.21777
0
LINE
8
BLACK
6
CONTINUOUS
10
7.19568
20
-8.21777
11
7.18911
21
-8.22465
0
LINE
8
BLACK
6
CONTINUOUS
10
7.18911
20
-8.22465
11
7.18374
21
-8.23252
0
LINE
8
BLACK
6
CONTINUOUS
10
7.18374
20
-8.23252
11
7.18373
21
-8.23253
0
LINE
8
BLACK
6
CONTINUOUS
10
7.18373
20
-8.23253
11
7.18373
21
-8.23253
0
LINE
8
BLACK
6
CONTINUOUS
10
7.18373
20
-8.23253
11
7.18243
21
-8.23533
0
LINE
8
BLACK
6
CONTINUOUS
10
7.18243
20
-8.23533
11
7.17973
21
-8.24115
0
LINE
8
BLACK
6
CONTINUOUS
10
7.17973
20
-8.24115
11
7.17973
21
-8.24117
0
LINE
8
BLACK
6
CONTINUOUS
10
7.17973
20
-8.24117
11
7.17973
21
-8.24117
0
LINE
8
BLACK
6
CONTINUOUS
10
7.17973
20
-8.24117
11
7.17897
21
-8.24388
0
LINE
8
BLACK
6
CONTINUOUS
10
7.17897
20
-8.24388
11
7.17719
21
-8.25032
0
LINE
8
BLACK
6
CONTINUOUS
10
7.17719
20
-8.25032
11
7.17719
21
-8.25034
0
LINE
8
BLACK
6
CONTINUOUS
10
7.17719
20
-8.25034
11
7.17719
21
-8.25034
0
LINE
8
BLACK
6
CONTINUOUS
10
7.17719
20
-8.25034
11
7.17633
21
-8.25835
0
LINE
8
BLACK
6
CONTINUOUS
10
7.17633
20
-8.25835
11
7.17618
21
-8.25979
0
LINE
8
BLACK
6
CONTINUOUS
10
7.17618
20
-8.25979
11
7.17673
21
-8.26929
0
LINE
8
BLACK
6
CONTINUOUS
10
7.17673
20
-8.26929
11
7.17882
21
-8.27858
0
LINE
8
BLACK
6
CONTINUOUS
10
7.17882
20
-8.27858
11
7.1824
21
-8.2874
0
LINE
8
BLACK
6
CONTINUOUS
10
7.1824
20
-8.2874
11
7.18737
21
-8.29552
0
LINE
8
BLACK
6
CONTINUOUS
10
7.18737
20
-8.29552
11
7.19361
21
-8.30271
0
LINE
8
BLACK
6
CONTINUOUS
10
7.19361
20
-8.30271
11
7.20093
21
-8.3088
0
LINE
8
BLACK
6
CONTINUOUS
10
7.20093
20
-8.3088
11
7.20915
21
-8.3136
0
LINE
8
BLACK
6
CONTINUOUS
10
7.20915
20
-8.3136
11
7.21804
21
-8.31699
0
LINE
8
BLACK
6
CONTINUOUS
10
7.21804
20
-8.31699
11
7.22737
21
-8.31889
0
LINE
8
BLACK
6
CONTINUOUS
10
7.22737
20
-8.31889
11
7.22739
21
-8.31889
0
LINE
8
BLACK
6
CONTINUOUS
10
7.22739
20
-8.31889
11
7.22739
21
-8.31889
0
LINE
8
BLACK
6
CONTINUOUS
10
7.22739
20
-8.31889
11
7.23153
21
-8.31905
0
LINE
8
BLACK
6
CONTINUOUS
10
7.23153
20
-8.31905
11
7.23689
21
-8.31924
0
LINE
8
BLACK
6
CONTINUOUS
10
7.23689
20
-8.31924
11
7.23691
21
-8.31924
0
LINE
8
BLACK
6
CONTINUOUS
10
7.23691
20
-8.31924
11
7.23691
21
-8.31924
0
LINE
8
BLACK
6
CONTINUOUS
10
7.23691
20
-8.31924
11
7.23834
21
-8.31906
0
LINE
8
BLACK
6
CONTINUOUS
10
7.23834
20
-8.31906
11
7.23962
21
-8.31889
0
LINE
8
BLACK
6
CONTINUOUS
10
7.23962
20
-8.31889
11
7.23996
21
-8.31898
0
LINE
8
BLACK
6
CONTINUOUS
10
7.23996
20
-8.31898
11
7.24013
21
-8.31929
0
LINE
8
BLACK
6
CONTINUOUS
10
7.24013
20
-8.31929
11
7.24014
21
-8.31935
0
LINE
8
BLACK
6
CONTINUOUS
10
7.24014
20
-8.31935
11
7.24014
21
-8.34341
0
LINE
8
BLACK
6
CONTINUOUS
10
7.24014
20
-8.34341
11
7.24
21
-8.34373
0
LINE
8
BLACK
6
CONTINUOUS
10
7.24
20
-8.34373
11
7.23968
21
-8.34387
0
LINE
8
BLACK
6
CONTINUOUS
10
7.23968
20
-8.34387
11
6.15402
21
-8.34387
0
LINE
8
BLACK
6
CONTINUOUS
10
6.15402
20
-8.34387
11
6.1537
21
-8.34373
0
LINE
8
BLACK
6
CONTINUOUS
10
6.1537
20
-8.34373
11
6.15356
21
-8.34341
0
LINE
8
BLACK
6
CONTINUOUS
10
6.15356
20
-8.34341
11
6.15356
21
-8.27216
0
LINE
8
BLACK
6
CONTINUOUS
10
6.15356
20
-8.27216
11
6.1537
21
-8.27184
0
LINE
8
BLACK
6
CONTINUOUS
10
6.1537
20
-8.27184
11
6.15404
21
-8.2717
0
LINE
8
BLACK
6
CONTINUOUS
10
6.15404
20
-8.2717
11
6.1572
21
-8.27182
0
LINE
8
BLACK
6
CONTINUOUS
10
6.1572
20
-8.27182
11
6.16208
21
-8.272
0
LINE
8
BLACK
6
CONTINUOUS
10
6.16208
20
-8.272
11
6.1621
21
-8.272
0
LINE
8
BLACK
6
CONTINUOUS
10
6.1621
20
-8.272
11
6.1621
21
-8.272
0
LINE
8
BLACK
6
CONTINUOUS
10
6.1621
20
-8.272
11
6.17151
21
-8.27079
0
LINE
8
BLACK
6
CONTINUOUS
10
6.17151
20
-8.27079
11
6.17151
21
-8.27079
0
LINE
8
BLACK
6
CONTINUOUS
10
6.17151
20
-8.27079
11
6.17153
21
-8.27079
0
LINE
8
BLACK
6
CONTINUOUS
10
6.17153
20
-8.27079
11
6.18065
21
-8.26805
0
LINE
8
BLACK
6
CONTINUOUS
10
6.18065
20
-8.26805
11
6.18919
21
-8.26386
0
LINE
8
BLACK
6
CONTINUOUS
10
6.18919
20
-8.26386
11
6.19244
21
-8.26155
0
LINE
8
BLACK
6
CONTINUOUS
10
6.19244
20
-8.26155
11
6.19693
21
-8.25835
0
LINE
8
BLACK
6
CONTINUOUS
10
6.19693
20
-8.25835
11
6.19693
21
-8.25835
0
LINE
8
BLACK
6
CONTINUOUS
10
6.19693
20
-8.25835
11
6.19694
21
-8.25834
0
LINE
8
BLACK
6
CONTINUOUS
10
6.19694
20
-8.25834
11
6.20369
21
-8.25162
0
LINE
8
BLACK
6
CONTINUOUS
10
6.20369
20
-8.25162
11
6.20924
21
-8.24388
0
LINE
8
BLACK
6
CONTINUOUS
10
6.20924
20
-8.24388
11
6.21346
21
-8.23535
0
LINE
8
BLACK
6
CONTINUOUS
10
6.21346
20
-8.23535
11
6.21468
21
-8.23134
0
LINE
8
BLACK
6
CONTINUOUS
10
6.21468
20
-8.23134
11
6.21622
21
-8.22626
0
LINE
8
BLACK
6
CONTINUOUS
10
6.21622
20
-8.22626
11
6.21623
21
-8.22624
0
LINE
8
BLACK
6
CONTINUOUS
10
6.21623
20
-8.22624
11
6.21747
21
-8.2168
0
LINE
8
BLACK
6
CONTINUOUS
10
6.21747
20
-8.2168
11
6.21754
21
-8.21397
0
LINE
8
BLACK
6
CONTINUOUS
10
6.21754
20
-8.21397
11
6.21676
21
-8.20448
0
LINE
8
BLACK
6
CONTINUOUS
10
6.21676
20
-8.20448
11
6.21444
21
-8.19524
0
LINE
8
BLACK
6
CONTINUOUS
10
6.21444
20
-8.19524
11
6.21065
21
-8.18651
0
LINE
8
BLACK
6
CONTINUOUS
10
6.21065
20
-8.18651
11
6.20547
21
-8.17852
0
LINE
8
BLACK
6
CONTINUOUS
10
6.20547
20
-8.17852
11
6.19907
21
-8.17148
0
LINE
8
BLACK
6
CONTINUOUS
10
6.19907
20
-8.17148
11
6.19786
21
-8.17052
0
LINE
8
BLACK
6
CONTINUOUS
10
6.19786
20
-8.17052
11
6.19619
21
-8.16921
0
LINE
8
BLACK
6
CONTINUOUS
10
6.19619
20
-8.16921
11
6.1916
21
-8.16558
0
LINE
8
BLACK
6
CONTINUOUS
10
6.1916
20
-8.16558
11
6.19158
21
-8.16557
0
LINE
8
BLACK
6
CONTINUOUS
10
6.19158
20
-8.16557
11
6.19158
21
-8.16557
0
LINE
8
BLACK
6
CONTINUOUS
10
6.19158
20
-8.16557
11
6.18328
21
-8.16099
0
LINE
8
BLACK
6
CONTINUOUS
10
6.18328
20
-8.16099
11
6.18328
21
-8.16099
0
LINE
8
BLACK
6
CONTINUOUS
10
6.18328
20
-8.16099
11
6.18326
21
-8.16098
0
LINE
8
BLACK
6
CONTINUOUS
10
6.18326
20
-8.16098
11
6.18324
21
-8.16097
0
LINE
8
BLACK
6
CONTINUOUS
10
6.18324
20
-8.16097
11
6.18324
21
-8.16097
0
LINE
8
BLACK
6
CONTINUOUS
10
6.18324
20
-8.16097
11
6.17431
21
-8.15781
0
LINE
8
BLACK
6
CONTINUOUS
10
6.17431
20
-8.15781
11
6.17431
21
-8.15781
0
LINE
8
BLACK
6
CONTINUOUS
10
6.17431
20
-8.15781
11
6.17429
21
-8.1578
0
LINE
8
BLACK
6
CONTINUOUS
10
6.17429
20
-8.1578
11
6.17427
21
-8.1578
0
LINE
8
BLACK
6
CONTINUOUS
10
6.17427
20
-8.1578
11
6.17427
21
-8.1578
0
LINE
8
BLACK
6
CONTINUOUS
10
6.17427
20
-8.1578
11
6.16493
21
-8.15613
0
LINE
8
BLACK
6
CONTINUOUS
10
6.16493
20
-8.15613
11
6.16492
21
-8.15613
0
LINE
8
BLACK
6
CONTINUOUS
10
6.16492
20
-8.15613
11
6.1649
21
-8.15613
0
LINE
8
BLACK
6
CONTINUOUS
10
6.1649
20
-8.15613
11
6.1649
21
-8.15613
0
LINE
8
BLACK
6
CONTINUOUS
10
6.1649
20
-8.15613
11
6.15982
21
-8.15607
0
LINE
8
BLACK
6
CONTINUOUS
10
6.15982
20
-8.15607
11
6.1554
21
-8.15601
0
LINE
8
BLACK
6
CONTINUOUS
10
6.1554
20
-8.15601
11
6.15538
21
-8.15602
0
LINE
8
BLACK
6
CONTINUOUS
10
6.15538
20
-8.15602
11
6.15538
21
-8.15602
0
LINE
8
BLACK
6
CONTINUOUS
10
6.15538
20
-8.15602
11
6.15464
21
-8.15613
0
LINE
8
BLACK
6
CONTINUOUS
10
6.15464
20
-8.15613
11
6.15409
21
-8.15621
0
LINE
8
BLACK
6
CONTINUOUS
10
6.15409
20
-8.15621
11
6.15375
21
-8.15613
0
LINE
8
BLACK
6
CONTINUOUS
10
6.15375
20
-8.15613
11
6.15357
21
-8.15583
0
LINE
8
BLACK
6
CONTINUOUS
10
6.15357
20
-8.15583
11
6.15356
21
-8.15576
0
LINE
8
BLACK
6
CONTINUOUS
10
6.15356
20
-8.15576
11
6.15356
21
-7.96252
0
LINE
8
BLACK
6
CONTINUOUS
10
6.15356
20
-7.96252
11
6.1537
21
-7.96219
0
LINE
8
BLACK
6
CONTINUOUS
10
6.1537
20
-7.96219
11
6.15404
21
-7.96206
0
LINE
8
BLACK
6
CONTINUOUS
10
6.15404
20
-7.96206
11
6.1572
21
-7.96217
0
LINE
8
BLACK
6
CONTINUOUS
10
6.1572
20
-7.96217
11
6.16208
21
-7.96235
0
LINE
8
BLACK
6
CONTINUOUS
10
6.16208
20
-7.96235
11
6.1621
21
-7.96235
0
LINE
8
BLACK
6
CONTINUOUS
10
6.1621
20
-7.96235
11
6.1621
21
-7.96235
0
LINE
8
BLACK
6
CONTINUOUS
10
6.1621
20
-7.96235
11
6.17151
21
-7.96114
0
LINE
8
BLACK
6
CONTINUOUS
10
6.17151
20
-7.96114
11
6.17151
21
-7.96114
0
LINE
8
BLACK
6
CONTINUOUS
10
6.17151
20
-7.96114
11
6.17153
21
-7.96114
0
LINE
8
BLACK
6
CONTINUOUS
10
6.17153
20
-7.96114
11
6.18065
21
-7.95841
0
LINE
8
BLACK
6
CONTINUOUS
10
6.18065
20
-7.95841
11
6.18919
21
-7.95422
0
LINE
8
BLACK
6
CONTINUOUS
10
6.18919
20
-7.95422
11
6.19244
21
-7.95191
0
LINE
8
BLACK
6
CONTINUOUS
10
6.19244
20
-7.95191
11
6.19693
21
-7.9487
0
LINE
8
BLACK
6
CONTINUOUS
10
6.19693
20
-7.9487
11
6.19693
21
-7.9487
0
LINE
8
BLACK
6
CONTINUOUS
10
6.19693
20
-7.9487
11
6.19694
21
-7.94869
0
LINE
8
BLACK
6
CONTINUOUS
10
6.19694
20
-7.94869
11
6.20252
21
-7.94313
0
LINE
8
BLACK
6
CONTINUOUS
10
6.20252
20
-7.94313
11
6.20367
21
-7.94198
0
LINE
8
BLACK
6
CONTINUOUS
10
6.20367
20
-7.94198
11
6.20367
21
-7.94198
0
LINE
8
BLACK
6
CONTINUOUS
10
6.20367
20
-7.94198
11
6.20369
21
-7.94197
0
LINE
8
BLACK
6
CONTINUOUS
10
6.20369
20
-7.94197
11
6.20924
21
-7.93424
0
LINE
8
BLACK
6
CONTINUOUS
10
6.20924
20
-7.93424
11
6.21346
21
-7.9257
0
LINE
8
BLACK
6
CONTINUOUS
10
6.21346
20
-7.9257
11
6.21468
21
-7.92169
0
LINE
8
BLACK
6
CONTINUOUS
10
6.21468
20
-7.92169
11
6.21622
21
-7.91661
0
LINE
8
BLACK
6
CONTINUOUS
10
6.21622
20
-7.91661
11
6.21623
21
-7.9166
0
LINE
8
BLACK
6
CONTINUOUS
10
6.21623
20
-7.9166
11
6.21747
21
-7.90716
0
LINE
8
BLACK
6
CONTINUOUS
10
6.21747
20
-7.90716
11
6.21754
21
-7.90432
0
LINE
8
BLACK
6
CONTINUOUS
10
6.21754
20
-7.90432
11
6.21676
21
-7.89483
0
LINE
8
BLACK
6
CONTINUOUS
10
6.21676
20
-7.89483
11
6.21626
21
-7.89284
0
LINE
8
BLACK
6
CONTINUOUS
10
6.21626
20
-7.89284
11
6.21445
21
-7.88562
0
LINE
8
BLACK
6
CONTINUOUS
10
6.21445
20
-7.88562
11
6.21444
21
-7.8856
0
LINE
8
BLACK
6
CONTINUOUS
10
6.21444
20
-7.8856
11
6.21065
21
-7.87687
0
LINE
8
BLACK
6
CONTINUOUS
10
6.21065
20
-7.87687
11
6.20547
21
-7.86887
0
LINE
8
BLACK
6
CONTINUOUS
10
6.20547
20
-7.86887
11
6.19907
21
-7.86183
0
LINE
8
BLACK
6
CONTINUOUS
10
6.19907
20
-7.86183
11
6.19786
21
-7.86088
0
LINE
8
BLACK
6
CONTINUOUS
10
6.19786
20
-7.86088
11
6.19345
21
-7.8574
0
LINE
8
BLACK
6
CONTINUOUS
10
6.19345
20
-7.8574
11
6.1916
21
-7.85593
0
LINE
8
BLACK
6
CONTINUOUS
10
6.1916
20
-7.85593
11
6.19158
21
-7.85592
0
LINE
8
BLACK
6
CONTINUOUS
10
6.19158
20
-7.85592
11
6.19158
21
-7.85592
0
LINE
8
BLACK
6
CONTINUOUS
10
6.19158
20
-7.85592
11
6.18328
21
-7.85134
0
LINE
8
BLACK
6
CONTINUOUS
10
6.18328
20
-7.85134
11
6.18328
21
-7.85134
0
LINE
8
BLACK
6
CONTINUOUS
10
6.18328
20
-7.85134
11
6.18326
21
-7.85133
0
LINE
8
BLACK
6
CONTINUOUS
10
6.18326
20
-7.85133
11
6.18324
21
-7.85133
0
LINE
8
BLACK
6
CONTINUOUS
10
6.18324
20
-7.85133
11
6.18324
21
-7.85133
0
LINE
8
BLACK
6
CONTINUOUS
10
6.18324
20
-7.85133
11
6.17431
21
-7.84816
0
LINE
8
BLACK
6
CONTINUOUS
10
6.17431
20
-7.84816
11
6.17431
21
-7.84816
0
LINE
8
BLACK
6
CONTINUOUS
10
6.17431
20
-7.84816
11
6.17429
21
-7.84815
0
LINE
8
BLACK
6
CONTINUOUS
10
6.17429
20
-7.84815
11
6.17427
21
-7.84815
0
LINE
8
BLACK
6
CONTINUOUS
10
6.17427
20
-7.84815
11
6.17427
21
-7.84815
0
LINE
8
BLACK
6
CONTINUOUS
10
6.17427
20
-7.84815
11
6.16493
21
-7.84649
0
LINE
8
BLACK
6
CONTINUOUS
10
6.16493
20
-7.84649
11
6.16492
21
-7.84649
0
LINE
8
BLACK
6
CONTINUOUS
10
6.16492
20
-7.84649
11
6.1649
21
-7.84648
0
LINE
8
BLACK
6
CONTINUOUS
10
6.1649
20
-7.84648
11
6.1649
21
-7.84648
0
LINE
8
BLACK
6
CONTINUOUS
10
6.1649
20
-7.84648
11
6.15982
21
-7.84642
0
LINE
8
BLACK
6
CONTINUOUS
10
6.15982
20
-7.84642
11
6.1554
21
-7.84637
0
LINE
8
BLACK
6
CONTINUOUS
10
6.1554
20
-7.84637
11
6.15538
21
-7.84637
0
LINE
8
BLACK
6
CONTINUOUS
10
6.15538
20
-7.84637
11
6.15538
21
-7.84637
0
LINE
8
BLACK
6
CONTINUOUS
10
6.15538
20
-7.84637
11
6.15464
21
-7.84648
0
LINE
8
BLACK
6
CONTINUOUS
10
6.15464
20
-7.84648
11
6.15409
21
-7.84657
0
LINE
8
BLACK
6
CONTINUOUS
10
6.15409
20
-7.84657
11
6.15375
21
-7.84648
0
LINE
8
BLACK
6
CONTINUOUS
10
6.15375
20
-7.84648
11
6.15357
21
-7.84618
0
LINE
8
BLACK
6
CONTINUOUS
10
6.15357
20
-7.84618
11
6.15356
21
-7.84611
0
LINE
8
BLACK
6
CONTINUOUS
10
6.15356
20
-7.84611
11
6.15356
21
-7.83995
0
LINE
8
BLACK
6
CONTINUOUS
10
6.15356
20
-7.83995
11
6.15356
21
-7.83995
0
LINE
8
BLACK
6
CONTINUOUS
10
6.15356
20
-7.83995
11
6.15356
21
-7.83993
0
LINE
8
BLACK
6
CONTINUOUS
10
6.15356
20
-7.83993
11
6.15355
21
-7.83993
0
LINE
8
BLACK
6
CONTINUOUS
10
6.15355
20
-7.83993
11
6.15354
21
-7.83993
0
LINE
8
BLACK
6
CONTINUOUS
10
6.15354
20
-7.83993
11
6.15354
21
-7.83993
0
LINE
8
BLACK
6
CONTINUOUS
10
6.15354
20
-7.83993
11
5.77117
21
-7.83993
0
LINE
8
BLACK
6
CONTINUOUS
10
5.77117
20
-7.83993
11
5.77084
21
-7.83979
0
LINE
8
BLACK
6
CONTINUOUS
10
5.77084
20
-7.83979
11
5.77071
21
-7.83947
0
LINE
8
BLACK
6
CONTINUOUS
10
5.77071
20
-7.83947
11
5.77084
21
-7.83914
0
LINE
8
BLACK
6
CONTINUOUS
10
5.77084
20
-7.83914
11
5.77093
21
-7.83908
0
LINE
8
BLACK
6
CONTINUOUS
10
5.77093
20
-7.83908
11
5.77355
21
-7.83747
0
LINE
8
BLACK
6
CONTINUOUS
10
5.77355
20
-7.83747
11
5.77358
21
-7.83745
0
LINE
8
BLACK
6
CONTINUOUS
10
5.77358
20
-7.83745
11
5.77686
21
-7.83464
0
LINE
8
BLACK
6
CONTINUOUS
10
5.77686
20
-7.83464
11
5.77689
21
-7.83458
0
LINE
8
BLACK
6
CONTINUOUS
10
5.77689
20
-7.83458
11
5.77688
21
-7.83453
0
LINE
8
BLACK
6
CONTINUOUS
10
5.77688
20
-7.83453
11
5.76979
21
-7.82744
0
LINE
8
BLACK
6
CONTINUOUS
10
5.76979
20
-7.82744
11
5.76319
21
-7.83207
0
LINE
8
BLACK
6
CONTINUOUS
10
5.76319
20
-7.83207
11
5.75529
21
-7.83575
0
LINE
8
BLACK
6
CONTINUOUS
10
5.75529
20
-7.83575
11
5.74687
21
-7.83801
0
LINE
8
BLACK
6
CONTINUOUS
10
5.74687
20
-7.83801
11
5.73819
21
-7.83877
0
LINE
8
BLACK
6
CONTINUOUS
10
5.73819
20
-7.83877
11
5.72951
21
-7.83801
0
LINE
8
BLACK
6
CONTINUOUS
10
5.72951
20
-7.83801
11
5.72109
21
-7.83575
0
LINE
8
BLACK
6
CONTINUOUS
10
5.72109
20
-7.83575
11
5.71319
21
-7.83207
0
LINE
8
BLACK
6
CONTINUOUS
10
5.71319
20
-7.83207
11
5.70605
21
-7.82707
0
LINE
8
BLACK
6
CONTINUOUS
10
5.70605
20
-7.82707
11
5.69989
21
-7.82091
0
LINE
8
BLACK
6
CONTINUOUS
10
5.69989
20
-7.82091
11
5.69489
21
-7.81377
0
LINE
8
BLACK
6
CONTINUOUS
10
5.69489
20
-7.81377
11
5.6912
21
-7.80587
0
LINE
8
BLACK
6
CONTINUOUS
10
5.6912
20
-7.80587
11
5.68895
21
-7.79745
0
LINE
8
BLACK
6
CONTINUOUS
10
5.68895
20
-7.79745
11
5.68819
21
-7.78877
0
LINE
8
BLACK
6
CONTINUOUS
10
5.68819
20
-7.78877
11
5.68895
21
-7.78009
0
LINE
8
BLACK
6
CONTINUOUS
10
5.68895
20
-7.78009
11
5.6912
21
-7.77167
0
LINE
8
BLACK
6
CONTINUOUS
10
5.6912
20
-7.77167
11
5.69489
21
-7.76377
0
LINE
8
BLACK
6
CONTINUOUS
10
5.69489
20
-7.76377
11
5.69989
21
-7.75663
0
LINE
8
BLACK
6
CONTINUOUS
10
5.69989
20
-7.75663
11
5.70605
21
-7.75047
0
LINE
8
BLACK
6
CONTINUOUS
10
5.70605
20
-7.75047
11
5.71319
21
-7.74547
0
LINE
8
BLACK
6
CONTINUOUS
10
5.71319
20
-7.74547
11
5.72109
21
-7.74178
0
LINE
8
BLACK
6
CONTINUOUS
10
5.72109
20
-7.74178
11
5.72951
21
-7.73953
0
LINE
8
BLACK
6
CONTINUOUS
10
5.72951
20
-7.73953
11
5.73819
21
-7.73877
0
LINE
8
BLACK
6
CONTINUOUS
10
5.73819
20
-7.73877
11
5.74687
21
-7.73953
0
LINE
8
BLACK
6
CONTINUOUS
10
5.74687
20
-7.73953
11
5.75529
21
-7.74178
0
LINE
8
BLACK
6
CONTINUOUS
10
5.75529
20
-7.74178
11
5.76319
21
-7.74547
0
LINE
8
BLACK
6
CONTINUOUS
10
5.76319
20
-7.74547
11
5.76979
21
-7.75009
0
LINE
8
BLACK
6
CONTINUOUS
10
5.76979
20
-7.75009
11
5.77687
21
-7.74302
0
LINE
8
BLACK
6
CONTINUOUS
10
5.77687
20
-7.74302
11
5.77689
21
-7.74295
0
LINE
8
BLACK
6
CONTINUOUS
10
5.77689
20
-7.74295
11
5.77687
21
-7.7429
0
LINE
8
BLACK
6
CONTINUOUS
10
5.77687
20
-7.7429
11
5.77358
21
-7.74009
0
LINE
8
BLACK
6
CONTINUOUS
10
5.77358
20
-7.74009
11
5.77355
21
-7.74007
0
LINE
8
BLACK
6
CONTINUOUS
10
5.77355
20
-7.74007
11
5.76553
21
-7.73515
0
LINE
8
BLACK
6
CONTINUOUS
10
5.76553
20
-7.73515
11
5.7655
21
-7.73514
0
LINE
8
BLACK
6
CONTINUOUS
10
5.7655
20
-7.73514
11
5.7568
21
-7.73154
0
LINE
8
BLACK
6
CONTINUOUS
10
5.7568
20
-7.73154
11
5.75677
21
-7.73152
0
LINE
8
BLACK
6
CONTINUOUS
10
5.75677
20
-7.73152
11
5.74762
21
-7.72933
0
LINE
8
BLACK
6
CONTINUOUS
10
5.74762
20
-7.72933
11
5.74759
21
-7.72932
0
LINE
8
BLACK
6
CONTINUOUS
10
5.74759
20
-7.72932
11
5.73821
21
-7.72858
0
LINE
8
BLACK
6
CONTINUOUS
10
5.73821
20
-7.72858
11
5.73817
21
-7.72858
0
LINE
8
BLACK
6
CONTINUOUS
10
5.73817
20
-7.72858
11
5.7328
21
-7.72901
0
LINE
8
BLACK
6
CONTINUOUS
10
5.7328
20
-7.72901
11
5.73246
21
-7.7289
0
LINE
8
BLACK
6
CONTINUOUS
10
5.73246
20
-7.7289
11
5.7323
21
-7.72858
0
LINE
8
BLACK
6
CONTINUOUS
10
5.7323
20
-7.72858
11
5.7323
21
-7.72855
0
LINE
8
BLACK
6
CONTINUOUS
10
5.7323
20
-7.72855
11
5.7323
21
-5.93442
0
LINE
8
BLACK
6
CONTINUOUS
10
5.7323
20
-5.93442
11
5.73244
21
-5.9341
0
LINE
8
BLACK
6
CONTINUOUS
10
5.73244
20
-5.9341
11
5.73276
21
-5.93396
0
LINE
8
BLACK
6
CONTINUOUS
10
5.73276
20
-5.93396
11
5.7328
21
-5.93396
0
LINE
8
BLACK
6
CONTINUOUS
10
5.7328
20
-5.93396
11
5.73817
21
-5.93439
0
LINE
8
BLACK
6
CONTINUOUS
10
5.73817
20
-5.93439
11
5.73821
21
-5.93439
0
LINE
8
BLACK
6
CONTINUOUS
10
5.73821
20
-5.93439
11
5.74759
21
-5.93365
0
LINE
8
BLACK
6
CONTINUOUS
10
5.74759
20
-5.93365
11
5.74762
21
-5.93364
0
LINE
8
BLACK
6
CONTINUOUS
10
5.74762
20
-5.93364
11
5.75677
21
-5.93145
0
LINE
8
BLACK
6
CONTINUOUS
10
5.75677
20
-5.93145
11
5.7568
21
-5.93143
0
LINE
8
BLACK
6
CONTINUOUS
10
5.7568
20
-5.93143
11
5.7655
21
-5.92783
0
LINE
8
BLACK
6
CONTINUOUS
10
5.7655
20
-5.92783
11
5.76553
21
-5.92782
0
LINE
8
BLACK
6
CONTINUOUS
10
5.76553
20
-5.92782
11
5.77355
21
-5.9229
0
LINE
8
BLACK
6
CONTINUOUS
10
5.77355
20
-5.9229
11
5.77358
21
-5.92288
0
LINE
8
BLACK
6
CONTINUOUS
10
5.77358
20
-5.92288
11
5.77686
21
-5.92008
0
LINE
8
BLACK
6
CONTINUOUS
10
5.77686
20
-5.92008
11
5.77689
21
-5.92001
0
LINE
8
BLACK
6
CONTINUOUS
10
5.77689
20
-5.92001
11
5.77688
21
-5.91996
0
LINE
8
BLACK
6
CONTINUOUS
10
5.77688
20
-5.91996
11
5.76979
21
-5.91288
0
LINE
8
BLACK
6
CONTINUOUS
10
5.76979
20
-5.91288
11
5.76319
21
-5.9175
0
LINE
8
BLACK
6
CONTINUOUS
10
5.76319
20
-5.9175
11
5.75529
21
-5.92119
0
LINE
8
BLACK
6
CONTINUOUS
10
5.75529
20
-5.92119
11
5.74687
21
-5.92344
0
LINE
8
BLACK
6
CONTINUOUS
10
5.74687
20
-5.92344
11
5.73819
21
-5.9242
0
LINE
8
BLACK
6
CONTINUOUS
10
5.73819
20
-5.9242
11
5.72951
21
-5.92344
0
LINE
8
BLACK
6
CONTINUOUS
10
5.72951
20
-5.92344
11
5.72109
21
-5.92119
0
LINE
8
BLACK
6
CONTINUOUS
10
5.72109
20
-5.92119
11
5.71319
21
-5.9175
0
LINE
8
BLACK
6
CONTINUOUS
10
5.71319
20
-5.9175
11
5.70605
21
-5.9125
0
LINE
8
BLACK
6
CONTINUOUS
10
5.70605
20
-5.9125
11
5.69989
21
-5.90634
0
LINE
8
BLACK
6
CONTINUOUS
10
5.69989
20
-5.90634
11
5.69489
21
-5.8992
0
LINE
8
BLACK
6
CONTINUOUS
10
5.69489
20
-5.8992
11
5.6912
21
-5.8913
0
LINE
8
BLACK
6
CONTINUOUS
10
5.6912
20
-5.8913
11
5.68895
21
-5.88288
0
LINE
8
BLACK
6
CONTINUOUS
10
5.68895
20
-5.88288
11
5.68819
21
-5.8742
0
LINE
8
BLACK
6
CONTINUOUS
10
5.68819
20
-5.8742
11
5.68895
21
-5.86552
0
LINE
8
BLACK
6
CONTINUOUS
10
5.68895
20
-5.86552
11
5.6912
21
-5.8571
0
LINE
8
BLACK
6
CONTINUOUS
10
5.6912
20
-5.8571
11
5.69489
21
-5.8492
0
LINE
8
BLACK
6
CONTINUOUS
10
5.69489
20
-5.8492
11
5.69989
21
-5.84206
0
LINE
8
BLACK
6
CONTINUOUS
10
5.69989
20
-5.84206
11
5.70605
21
-5.8359
0
LINE
8
BLACK
6
CONTINUOUS
10
5.70605
20
-5.8359
11
5.71319
21
-5.8309
0
LINE
8
BLACK
6
CONTINUOUS
10
5.71319
20
-5.8309
11
5.72109
21
-5.82722
0
LINE
8
BLACK
6
CONTINUOUS
10
5.72109
20
-5.82722
11
5.72951
21
-5.82496
0
LINE
8
BLACK
6
CONTINUOUS
10
5.72951
20
-5.82496
11
5.73819
21
-5.8242
0
LINE
8
BLACK
6
CONTINUOUS
10
5.73819
20
-5.8242
11
5.74687
21
-5.82496
0
LINE
8
BLACK
6
CONTINUOUS
10
5.74687
20
-5.82496
11
5.75529
21
-5.82722
0
LINE
8
BLACK
6
CONTINUOUS
10
5.75529
20
-5.82722
11
5.76319
21
-5.8309
0
LINE
8
BLACK
6
CONTINUOUS
10
5.76319
20
-5.8309
11
5.76979
21
-5.83553
0
LINE
8
BLACK
6
CONTINUOUS
10
5.76979
20
-5.83553
11
5.77687
21
-5.82845
0
LINE
8
BLACK
6
CONTINUOUS
10
5.77687
20
-5.82845
11
5.77689
21
-5.82839
0
LINE
8
BLACK
6
CONTINUOUS
10
5.77689
20
-5.82839
11
5.77687
21
-5.82834
0
LINE
8
BLACK
6
CONTINUOUS
10
5.77687
20
-5.82834
11
5.77358
21
-5.82552
0
LINE
8
BLACK
6
CONTINUOUS
10
5.77358
20
-5.82552
11
5.77355
21
-5.8255
0
LINE
8
BLACK
6
CONTINUOUS
10
5.77355
20
-5.8255
11
5.76553
21
-5.82059
0
LINE
8
BLACK
6
CONTINUOUS
10
5.76553
20
-5.82059
11
5.7655
21
-5.82057
0
LINE
8
BLACK
6
CONTINUOUS
10
5.7655
20
-5.82057
11
5.7568
21
-5.81697
0
LINE
8
BLACK
6
CONTINUOUS
10
5.7568
20
-5.81697
11
5.75677
21
-5.81696
0
LINE
8
BLACK
6
CONTINUOUS
10
5.75677
20
-5.81696
11
5.74762
21
-5.81476
0
LINE
8
BLACK
6
CONTINUOUS
10
5.74762
20
-5.81476
11
5.74759
21
-5.81476
0
LINE
8
BLACK
6
CONTINUOUS
10
5.74759
20
-5.81476
11
5.73821
21
-5.81402
0
LINE
8
BLACK
6
CONTINUOUS
10
5.73821
20
-5.81402
11
5.73817
21
-5.81402
0
LINE
8
BLACK
6
CONTINUOUS
10
5.73817
20
-5.81402
11
5.7328
21
-5.81444
0
LINE
8
BLACK
6
CONTINUOUS
10
5.7328
20
-5.81444
11
5.73246
21
-5.81433
0
LINE
8
BLACK
6
CONTINUOUS
10
5.73246
20
-5.81433
11
5.7323
21
-5.81402
0
LINE
8
BLACK
6
CONTINUOUS
10
5.7323
20
-5.81402
11
5.7323
21
-5.81398
0
LINE
8
BLACK
6
CONTINUOUS
10
5.7323
20
-5.81398
11
5.7323
21
-5.78531
0
LINE
8
BLACK
6
CONTINUOUS
10
5.7323
20
-5.78531
11
5.73244
21
-5.78499
0
LINE
8
BLACK
6
CONTINUOUS
10
5.73244
20
-5.78499
11
5.73276
21
-5.78485
0
LINE
8
BLACK
6
CONTINUOUS
10
5.73276
20
-5.78485
11
7.66094
21
-5.78485
0
LINE
8
BLACK
6
CONTINUOUS
10
7.66094
20
-5.78485
11
7.66126
21
-5.78499
0
LINE
8
BLACK
6
CONTINUOUS
10
5.78395
20
-7.75008
11
5.77687
21
-7.75716
0
LINE
8
BLACK
6
CONTINUOUS
10
5.77687
20
-7.75716
11
5.78149
21
-7.76377
0
LINE
8
BLACK
6
CONTINUOUS
10
5.78149
20
-7.76377
11
5.78517
21
-7.77167
0
LINE
8
BLACK
6
CONTINUOUS
10
5.78517
20
-7.77167
11
5.78743
21
-7.78009
0
LINE
8
BLACK
6
CONTINUOUS
10
5.78743
20
-7.78009
11
5.78819
21
-7.78877
0
LINE
8
BLACK
6
CONTINUOUS
10
5.78819
20
-7.78877
11
5.78743
21
-7.79745
0
LINE
8
BLACK
6
CONTINUOUS
10
5.78743
20
-7.79745
11
5.78517
21
-7.80587
0
LINE
8
BLACK
6
CONTINUOUS
10
5.78517
20
-7.80587
11
5.78149
21
-7.81377
0
LINE
8
BLACK
6
CONTINUOUS
10
5.78149
20
-7.81377
11
5.77687
21
-7.82037
0
LINE
8
BLACK
6
CONTINUOUS
10
5.77687
20
-7.82037
11
5.78394
21
-7.82745
0
LINE
8
BLACK
6
CONTINUOUS
10
5.78394
20
-7.82745
11
5.784
21
-7.82747
0
LINE
8
BLACK
6
CONTINUOUS
10
5.784
20
-7.82747
11
5.78405
21
-7.82745
0
LINE
8
BLACK
6
CONTINUOUS
10
5.78405
20
-7.82745
11
5.78687
21
-7.82416
0
LINE
8
BLACK
6
CONTINUOUS
10
5.78687
20
-7.82416
11
5.78689
21
-7.82413
0
LINE
8
BLACK
6
CONTINUOUS
10
5.78689
20
-7.82413
11
5.79181
21
-7.81611
0
LINE
8
BLACK
6
CONTINUOUS
10
5.79181
20
-7.81611
11
5.79182
21
-7.81608
0
LINE
8
BLACK
6
CONTINUOUS
10
5.79182
20
-7.81608
11
5.79542
21
-7.80738
0
LINE
8
BLACK
6
CONTINUOUS
10
5.79542
20
-7.80738
11
5.79543
21
-7.80735
0
LINE
8
BLACK
6
CONTINUOUS
10
5.79543
20
-7.80735
11
5.79763
21
-7.7982
0
LINE
8
BLACK
6
CONTINUOUS
10
5.79763
20
-7.7982
11
5.79763
21
-7.79817
0
LINE
8
BLACK
6
CONTINUOUS
10
5.79763
20
-7.79817
11
5.79837
21
-7.78879
0
LINE
8
BLACK
6
CONTINUOUS
10
5.79837
20
-7.78879
11
5.79837
21
-7.78875
0
LINE
8
BLACK
6
CONTINUOUS
10
5.79837
20
-7.78875
11
5.79763
21
-7.77937
0
LINE
8
BLACK
6
CONTINUOUS
10
5.79763
20
-7.77937
11
5.79763
21
-7.77934
0
LINE
8
BLACK
6
CONTINUOUS
10
5.79763
20
-7.77934
11
5.79543
21
-7.77019
0
LINE
8
BLACK
6
CONTINUOUS
10
5.79543
20
-7.77019
11
5.79542
21
-7.77015
0
LINE
8
BLACK
6
CONTINUOUS
10
5.79542
20
-7.77015
11
5.79182
21
-7.76146
0
LINE
8
BLACK
6
CONTINUOUS
10
5.79182
20
-7.76146
11
5.79181
21
-7.76143
0
LINE
8
BLACK
6
CONTINUOUS
10
5.79181
20
-7.76143
11
5.78689
21
-7.75341
0
LINE
8
BLACK
6
CONTINUOUS
10
5.78689
20
-7.75341
11
5.78687
21
-7.75338
0
LINE
8
BLACK
6
CONTINUOUS
10
5.78687
20
-7.75338
11
5.78406
21
-7.75009
0
LINE
8
BLACK
6
CONTINUOUS
10
5.78406
20
-7.75009
11
5.784
21
-7.75006
0
LINE
8
BLACK
6
CONTINUOUS
10
5.784
20
-7.75006
11
5.78395
21
-7.75008
0
LINE
8
BLACK
6
CONTINUOUS
10
5.78395
20
-5.83551
11
5.77687
21
-5.8426
0
LINE
8
BLACK
6
CONTINUOUS
10
5.77687
20
-5.8426
11
5.78149
21
-5.8492
0
LINE
8
BLACK
6
CONTINUOUS
10
5.78149
20
-5.8492
11
5.78517
21
-5.8571
0
LINE
8
BLACK
6
CONTINUOUS
10
5.78517
20
-5.8571
11
5.78743
21
-5.86552
0
LINE
8
BLACK
6
CONTINUOUS
10
5.78743
20
-5.86552
11
5.78819
21
-5.8742
0
LINE
8
BLACK
6
CONTINUOUS
10
5.78819
20
-5.8742
11
5.78743
21
-5.88288
0
LINE
8
BLACK
6
CONTINUOUS
10
5.78743
20
-5.88288
11
5.78517
21
-5.8913
0
LINE
8
BLACK
6
CONTINUOUS
10
5.78517
20
-5.8913
11
5.78149
21
-5.8992
0
LINE
8
BLACK
6
CONTINUOUS
10
5.78149
20
-5.8992
11
5.77687
21
-5.90581
0
LINE
8
BLACK
6
CONTINUOUS
10
5.77687
20
-5.90581
11
5.78394
21
-5.91288
0
LINE
8
BLACK
6
CONTINUOUS
10
5.78394
20
-5.91288
11
5.784
21
-5.91291
0
LINE
8
BLACK
6
CONTINUOUS
10
5.784
20
-5.91291
11
5.78405
21
-5.91289
0
LINE
8
BLACK
6
CONTINUOUS
10
5.78405
20
-5.91289
11
5.78687
21
-5.90959
0
LINE
8
BLACK
6
CONTINUOUS
10
5.78687
20
-5.90959
11
5.78689
21
-5.90956
0
LINE
8
BLACK
6
CONTINUOUS
10
5.78689
20
-5.90956
11
5.79181
21
-5.90154
0
LINE
8
BLACK
6
CONTINUOUS
10
5.79181
20
-5.90154
11
5.79182
21
-5.90151
0
LINE
8
BLACK
6
CONTINUOUS
10
5.79182
20
-5.90151
11
5.79542
21
-5.89282
0
LINE
8
BLACK
6
CONTINUOUS
10
5.79542
20
-5.89282
11
5.79543
21
-5.89278
0
LINE
8
BLACK
6
CONTINUOUS
10
5.79543
20
-5.89278
11
5.79763
21
-5.88363
0
LINE
8
BLACK
6
CONTINUOUS
10
5.79763
20
-5.88363
11
5.79763
21
-5.8836
0
LINE
8
BLACK
6
CONTINUOUS
10
5.79763
20
-5.8836
11
5.79837
21
-5.87422
0
LINE
8
BLACK
6
CONTINUOUS
10
5.79837
20
-5.87422
11
5.79837
21
-5.87418
0
LINE
8
BLACK
6
CONTINUOUS
10
5.79837
20
-5.87418
11
5.79763
21
-5.8648
0
LINE
8
BLACK
6
CONTINUOUS
10
5.79763
20
-5.8648
11
5.79763
21
-5.86477
0
LINE
8
BLACK
6
CONTINUOUS
10
5.79763
20
-5.86477
11
5.79543
21
-5.85562
0
LINE
8
BLACK
6
CONTINUOUS
10
5.79543
20
-5.85562
11
5.79542
21
-5.85559
0
LINE
8
BLACK
6
CONTINUOUS
10
5.79542
20
-5.85559
11
5.79182
21
-5.84689
0
LINE
8
BLACK
6
CONTINUOUS
10
5.79182
20
-5.84689
11
5.79181
21
-5.84686
0
LINE
8
BLACK
6
CONTINUOUS
10
5.79181
20
-5.84686
11
5.78689
21
-5.83884
0
LINE
8
BLACK
6
CONTINUOUS
10
5.78689
20
-5.83884
11
5.78687
21
-5.83881
0
LINE
8
BLACK
6
CONTINUOUS
10
5.78687
20
-5.83881
11
5.78406
21
-5.83553
0
LINE
8
BLACK
6
CONTINUOUS
10
5.78406
20
-5.83553
11
5.784
21
-5.8355
0
LINE
8
BLACK
6
CONTINUOUS
10
5.784
20
-5.8355
11
5.78395
21
-5.83551
0
LINE
8
BLACK
6
CONTINUOUS
10
7.24293
20
-8.21197
11
7.25135
21
-8.21422
0
LINE
8
BLACK
6
CONTINUOUS
10
7.25135
20
-8.21422
11
7.25925
21
-8.21791
0
LINE
8
BLACK
6
CONTINUOUS
10
7.25925
20
-8.21791
11
7.26639
21
-8.22291
0
LINE
8
BLACK
6
CONTINUOUS
10
7.26639
20
-8.22291
11
7.27255
21
-8.22907
0
LINE
8
BLACK
6
CONTINUOUS
10
7.27255
20
-8.22907
11
7.27755
21
-8.23621
0
LINE
8
BLACK
6
CONTINUOUS
10
7.27755
20
-8.23621
11
7.28124
21
-8.24411
0
LINE
8
BLACK
6
CONTINUOUS
10
7.28124
20
-8.24411
11
7.28349
21
-8.25253
0
LINE
8
BLACK
6
CONTINUOUS
10
7.28349
20
-8.25253
11
7.28425
21
-8.26121
0
LINE
8
BLACK
6
CONTINUOUS
10
7.28425
20
-8.26121
11
7.28349
21
-8.26989
0
LINE
8
BLACK
6
CONTINUOUS
10
7.28349
20
-8.26989
11
7.28124
21
-8.27831
0
LINE
8
BLACK
6
CONTINUOUS
10
7.28124
20
-8.27831
11
7.27755
21
-8.28621
0
LINE
8
BLACK
6
CONTINUOUS
10
7.27755
20
-8.28621
11
7.27255
21
-8.29335
0
LINE
8
BLACK
6
CONTINUOUS
10
7.27255
20
-8.29335
11
7.26639
21
-8.29951
0
LINE
8
BLACK
6
CONTINUOUS
10
7.26639
20
-8.29951
11
7.25925
21
-8.30451
0
LINE
8
BLACK
6
CONTINUOUS
10
7.25925
20
-8.30451
11
7.25135
21
-8.30819
0
LINE
8
BLACK
6
CONTINUOUS
10
7.25135
20
-8.30819
11
7.24293
21
-8.31045
0
LINE
8
BLACK
6
CONTINUOUS
10
7.24293
20
-8.31045
11
7.23425
21
-8.31121
0
LINE
8
BLACK
6
CONTINUOUS
10
7.23425
20
-8.31121
11
7.22557
21
-8.31045
0
LINE
8
BLACK
6
CONTINUOUS
10
7.22557
20
-8.31045
11
7.21715
21
-8.30819
0
LINE
8
BLACK
6
CONTINUOUS
10
7.21715
20
-8.30819
11
7.20925
21
-8.30451
0
LINE
8
BLACK
6
CONTINUOUS
10
7.20925
20
-8.30451
11
7.20211
21
-8.29951
0
LINE
8
BLACK
6
CONTINUOUS
10
7.20211
20
-8.29951
11
7.19595
21
-8.29335
0
LINE
8
BLACK
6
CONTINUOUS
10
7.19595
20
-8.29335
11
7.19095
21
-8.28621
0
LINE
8
BLACK
6
CONTINUOUS
10
7.19095
20
-8.28621
11
7.18727
21
-8.27831
0
LINE
8
BLACK
6
CONTINUOUS
10
7.18727
20
-8.27831
11
7.18501
21
-8.26989
0
LINE
8
BLACK
6
CONTINUOUS
10
7.18501
20
-8.26989
11
7.18425
21
-8.26121
0
LINE
8
BLACK
6
CONTINUOUS
10
7.18425
20
-8.26121
11
7.18501
21
-8.25253
0
LINE
8
BLACK
6
CONTINUOUS
10
7.18501
20
-8.25253
11
7.18727
21
-8.24411
0
LINE
8
BLACK
6
CONTINUOUS
10
7.18727
20
-8.24411
11
7.19095
21
-8.23621
0
LINE
8
BLACK
6
CONTINUOUS
10
7.19095
20
-8.23621
11
7.19595
21
-8.22907
0
LINE
8
BLACK
6
CONTINUOUS
10
7.19595
20
-8.22907
11
7.20211
21
-8.22291
0
LINE
8
BLACK
6
CONTINUOUS
10
7.20211
20
-8.22291
11
7.20925
21
-8.21791
0
LINE
8
BLACK
6
CONTINUOUS
10
7.20925
20
-8.21791
11
7.21715
21
-8.21422
0
LINE
8
BLACK
6
CONTINUOUS
10
7.21715
20
-8.21422
11
7.22557
21
-8.21197
0
LINE
8
BLACK
6
CONTINUOUS
10
7.22557
20
-8.21197
11
7.23425
21
-8.21121
0
LINE
8
BLACK
6
CONTINUOUS
10
7.23425
20
-8.21121
11
7.24293
21
-8.21197
0
LINE
8
BLACK
6
CONTINUOUS
10
6.16813
20
-8.16472
11
6.17655
21
-8.16698
0
LINE
8
BLACK
6
CONTINUOUS
10
6.17655
20
-8.16698
11
6.18445
21
-8.17066
0
LINE
8
BLACK
6
CONTINUOUS
10
6.18445
20
-8.17066
11
6.19159
21
-8.17566
0
LINE
8
BLACK
6
CONTINUOUS
10
6.19159
20
-8.17566
11
6.19775
21
-8.18183
0
LINE
8
BLACK
6
CONTINUOUS
10
6.19775
20
-8.18183
11
6.20275
21
-8.18897
0
LINE
8
BLACK
6
CONTINUOUS
10
6.20275
20
-8.18897
11
6.20643
21
-8.19686
0
LINE
8
BLACK
6
CONTINUOUS
10
6.20643
20
-8.19686
11
6.20869
21
-8.20528
0
LINE
8
BLACK
6
CONTINUOUS
10
6.20869
20
-8.20528
11
6.20945
21
-8.21397
0
LINE
8
BLACK
6
CONTINUOUS
10
6.20945
20
-8.21397
11
6.20869
21
-8.22265
0
LINE
8
BLACK
6
CONTINUOUS
10
6.20869
20
-8.22265
11
6.20643
21
-8.23107
0
LINE
8
BLACK
6
CONTINUOUS
10
6.20643
20
-8.23107
11
6.20275
21
-8.23897
0
LINE
8
BLACK
6
CONTINUOUS
10
6.20275
20
-8.23897
11
6.19775
21
-8.2461
0
LINE
8
BLACK
6
CONTINUOUS
10
6.19775
20
-8.2461
11
6.19159
21
-8.25227
0
LINE
8
BLACK
6
CONTINUOUS
10
6.19159
20
-8.25227
11
6.18445
21
-8.25727
0
LINE
8
BLACK
6
CONTINUOUS
10
6.18445
20
-8.25727
11
6.17655
21
-8.26095
0
LINE
8
BLACK
6
CONTINUOUS
10
6.17655
20
-8.26095
11
6.16813
21
-8.26321
0
LINE
8
BLACK
6
CONTINUOUS
10
6.16813
20
-8.26321
11
6.15945
21
-8.26397
0
LINE
8
BLACK
6
CONTINUOUS
10
6.15945
20
-8.26397
11
6.15077
21
-8.26321
0
LINE
8
BLACK
6
CONTINUOUS
10
6.15077
20
-8.26321
11
6.14235
21
-8.26095
0
LINE
8
BLACK
6
CONTINUOUS
10
6.14235
20
-8.26095
11
6.13445
21
-8.25727
0
LINE
8
BLACK
6
CONTINUOUS
10
6.13445
20
-8.25727
11
6.12731
21
-8.25227
0
LINE
8
BLACK
6
CONTINUOUS
10
6.12731
20
-8.25227
11
6.12115
21
-8.2461
0
LINE
8
BLACK
6
CONTINUOUS
10
6.12115
20
-8.2461
11
6.11615
21
-8.23897
0
LINE
8
BLACK
6
CONTINUOUS
10
6.11615
20
-8.23897
11
6.11246
21
-8.23107
0
LINE
8
BLACK
6
CONTINUOUS
10
6.11246
20
-8.23107
11
6.11021
21
-8.22265
0
LINE
8
BLACK
6
CONTINUOUS
10
6.11021
20
-8.22265
11
6.10945
21
-8.21397
0
LINE
8
BLACK
6
CONTINUOUS
10
6.10945
20
-8.21397
11
6.11021
21
-8.20528
0
LINE
8
BLACK
6
CONTINUOUS
10
6.11021
20
-8.20528
11
6.11246
21
-8.19686
0
LINE
8
BLACK
6
CONTINUOUS
10
6.11246
20
-8.19686
11
6.11615
21
-8.18897
0
LINE
8
BLACK
6
CONTINUOUS
10
6.11615
20
-8.18897
11
6.12115
21
-8.18183
0
LINE
8
BLACK
6
CONTINUOUS
10
6.12115
20
-8.18183
11
6.12731
21
-8.17566
0
LINE
8
BLACK
6
CONTINUOUS
10
6.12731
20
-8.17566
11
6.13445
21
-8.17066
0
LINE
8
BLACK
6
CONTINUOUS
10
6.13445
20
-8.17066
11
6.14235
21
-8.16698
0
LINE
8
BLACK
6
CONTINUOUS
10
6.14235
20
-8.16698
11
6.15077
21
-8.16472
0
LINE
8
BLACK
6
CONTINUOUS
10
6.15077
20
-8.16472
11
6.15945
21
-8.16397
0
LINE
8
BLACK
6
CONTINUOUS
10
6.15945
20
-8.16397
11
6.16813
21
-8.16472
0
LINE
8
BLACK
6
CONTINUOUS
10
7.24293
20
-7.93638
11
7.25135
21
-7.93863
0
LINE
8
BLACK
6
CONTINUOUS
10
7.25135
20
-7.93863
11
7.25925
21
-7.94232
0
LINE
8
BLACK
6
CONTINUOUS
10
7.25925
20
-7.94232
11
7.26639
21
-7.94732
0
LINE
8
BLACK
6
CONTINUOUS
10
7.26639
20
-7.94732
11
7.27255
21
-7.95348
0
LINE
8
BLACK
6
CONTINUOUS
10
7.27255
20
-7.95348
11
7.27755
21
-7.96062
0
LINE
8
BLACK
6
CONTINUOUS
10
7.27755
20
-7.96062
11
7.28124
21
-7.96852
0
LINE
8
BLACK
6
CONTINUOUS
10
7.28124
20
-7.96852
11
7.28349
21
-7.97694
0
LINE
8
BLACK
6
CONTINUOUS
10
7.28349
20
-7.97694
11
7.28425
21
-7.98562
0
LINE
8
BLACK
6
CONTINUOUS
10
7.28425
20
-7.98562
11
7.28349
21
-7.9943
0
LINE
8
BLACK
6
CONTINUOUS
10
7.28349
20
-7.9943
11
7.28124
21
-8.00272
0
LINE
8
BLACK
6
CONTINUOUS
10
7.28124
20
-8.00272
11
7.27755
21
-8.01062
0
LINE
8
BLACK
6
CONTINUOUS
10
7.27755
20
-8.01062
11
7.27255
21
-8.01776
0
LINE
8
BLACK
6
CONTINUOUS
10
7.27255
20
-8.01776
11
7.26639
21
-8.02392
0
LINE
8
BLACK
6
CONTINUOUS
10
7.26639
20
-8.02392
11
7.25925
21
-8.02892
0
LINE
8
BLACK
6
CONTINUOUS
10
7.25925
20
-8.02892
11
7.25135
21
-8.0326
0
LINE
8
BLACK
6
CONTINUOUS
10
7.25135
20
-8.0326
11
7.24293
21
-8.03486
0
LINE
8
BLACK
6
CONTINUOUS
10
7.24293
20
-8.03486
11
7.23425
21
-8.03562
0
LINE
8
BLACK
6
CONTINUOUS
10
7.23425
20
-8.03562
11
7.22557
21
-8.03486
0
LINE
8
BLACK
6
CONTINUOUS
10
7.22557
20
-8.03486
11
7.21715
21
-8.0326
0
LINE
8
BLACK
6
CONTINUOUS
10
7.21715
20
-8.0326
11
7.20925
21
-8.02892
0
LINE
8
BLACK
6
CONTINUOUS
10
7.20925
20
-8.02892
11
7.20211
21
-8.02392
0
LINE
8
BLACK
6
CONTINUOUS
10
7.20211
20
-8.02392
11
7.19595
21
-8.01776
0
LINE
8
BLACK
6
CONTINUOUS
10
7.19595
20
-8.01776
11
7.19095
21
-8.01062
0
LINE
8
BLACK
6
CONTINUOUS
10
7.19095
20
-8.01062
11
7.18727
21
-8.00272
0
LINE
8
BLACK
6
CONTINUOUS
10
7.18727
20
-8.00272
11
7.18501
21
-7.9943
0
LINE
8
BLACK
6
CONTINUOUS
10
7.18501
20
-7.9943
11
7.18425
21
-7.98562
0
LINE
8
BLACK
6
CONTINUOUS
10
7.18425
20
-7.98562
11
7.18501
21
-7.97694
0
LINE
8
BLACK
6
CONTINUOUS
10
7.18501
20
-7.97694
11
7.18727
21
-7.96852
0
LINE
8
BLACK
6
CONTINUOUS
10
7.18727
20
-7.96852
11
7.19095
21
-7.96062
0
LINE
8
BLACK
6
CONTINUOUS
10
7.19095
20
-7.96062
11
7.19595
21
-7.95348
0
LINE
8
BLACK
6
CONTINUOUS
10
7.19595
20
-7.95348
11
7.20211
21
-7.94732
0
LINE
8
BLACK
6
CONTINUOUS
10
7.20211
20
-7.94732
11
7.20925
21
-7.94232
0
LINE
8
BLACK
6
CONTINUOUS
10
7.20925
20
-7.94232
11
7.21715
21
-7.93863
0
LINE
8
BLACK
6
CONTINUOUS
10
7.21715
20
-7.93863
11
7.22557
21
-7.93638
0
LINE
8
BLACK
6
CONTINUOUS
10
7.22557
20
-7.93638
11
7.23425
21
-7.93562
0
LINE
8
BLACK
6
CONTINUOUS
10
7.23425
20
-7.93562
11
7.24293
21
-7.93638
0
LINE
8
BLACK
6
CONTINUOUS
10
6.16813
20
-7.85508
11
6.17655
21
-7.85733
0
LINE
8
BLACK
6
CONTINUOUS
10
6.17655
20
-7.85733
11
6.18445
21
-7.86102
0
LINE
8
BLACK
6
CONTINUOUS
10
6.18445
20
-7.86102
11
6.19159
21
-7.86602
0
LINE
8
BLACK
6
CONTINUOUS
10
6.19159
20
-7.86602
11
6.19775
21
-7.87218
0
LINE
8
BLACK
6
CONTINUOUS
10
6.19775
20
-7.87218
11
6.20275
21
-7.87932
0
LINE
8
BLACK
6
CONTINUOUS
10
6.20275
20
-7.87932
11
6.20643
21
-7.88722
0
LINE
8
BLACK
6
CONTINUOUS
10
6.20643
20
-7.88722
11
6.20869
21
-7.89564
0
LINE
8
BLACK
6
CONTINUOUS
10
6.20869
20
-7.89564
11
6.20945
21
-7.90432
0
LINE
8
BLACK
6
CONTINUOUS
10
6.20945
20
-7.90432
11
6.20869
21
-7.913
0
LINE
8
BLACK
6
CONTINUOUS
10
6.20869
20
-7.913
11
6.20643
21
-7.92142
0
LINE
8
BLACK
6
CONTINUOUS
10
6.20643
20
-7.92142
11
6.20275
21
-7.92932
0
LINE
8
BLACK
6
CONTINUOUS
10
6.20275
20
-7.92932
11
6.19775
21
-7.93646
0
LINE
8
BLACK
6
CONTINUOUS
10
6.19775
20
-7.93646
11
6.19159
21
-7.94262
0
LINE
8
BLACK
6
CONTINUOUS
10
6.19159
20
-7.94262
11
6.18445
21
-7.94762
0
LINE
8
BLACK
6
CONTINUOUS
10
6.18445
20
-7.94762
11
6.17655
21
-7.9513
0
LINE
8
BLACK
6
CONTINUOUS
10
6.17655
20
-7.9513
11
6.16813
21
-7.95356
0
LINE
8
BLACK
6
CONTINUOUS
10
6.16813
20
-7.95356
11
6.15945
21
-7.95432
0
LINE
8
BLACK
6
CONTINUOUS
10
6.15945
20
-7.95432
11
6.15077
21
-7.95356
0
LINE
8
BLACK
6
CONTINUOUS
10
6.15077
20
-7.95356
11
6.14235
21
-7.9513
0
LINE
8
BLACK
6
CONTINUOUS
10
6.14235
20
-7.9513
11
6.13445
21
-7.94762
0
LINE
8
BLACK
6
CONTINUOUS
10
6.13445
20
-7.94762
11
6.12731
21
-7.94262
0
LINE
8
BLACK
6
CONTINUOUS
10
6.12731
20
-7.94262
11
6.12115
21
-7.93646
0
LINE
8
BLACK
6
CONTINUOUS
10
6.12115
20
-7.93646
11
6.11615
21
-7.92932
0
LINE
8
BLACK
6
CONTINUOUS
10
6.11615
20
-7.92932
11
6.11246
21
-7.92142
0
LINE
8
BLACK
6
CONTINUOUS
10
6.11246
20
-7.92142
11
6.11021
21
-7.913
0
LINE
8
BLACK
6
CONTINUOUS
10
6.11021
20
-7.913
11
6.10945
21
-7.90432
0
LINE
8
BLACK
6
CONTINUOUS
10
6.10945
20
-7.90432
11
6.11021
21
-7.89564
0
LINE
8
BLACK
6
CONTINUOUS
10
6.11021
20
-7.89564
11
6.11246
21
-7.88722
0
LINE
8
BLACK
6
CONTINUOUS
10
6.11246
20
-7.88722
11
6.11615
21
-7.87932
0
LINE
8
BLACK
6
CONTINUOUS
10
6.11615
20
-7.87932
11
6.12115
21
-7.87218
0
LINE
8
BLACK
6
CONTINUOUS
10
6.12115
20
-7.87218
11
6.12731
21
-7.86602
0
LINE
8
BLACK
6
CONTINUOUS
10
6.12731
20
-7.86602
11
6.13445
21
-7.86102
0
LINE
8
BLACK
6
CONTINUOUS
10
6.13445
20
-7.86102
11
6.14235
21
-7.85733
0
LINE
8
BLACK
6
CONTINUOUS
10
6.14235
20
-7.85733
11
6.15077
21
-7.85508
0
LINE
8
BLACK
6
CONTINUOUS
10
6.15077
20
-7.85508
11
6.15945
21
-7.85432
0
LINE
8
BLACK
6
CONTINUOUS
10
6.15945
20
-7.85432
11
6.16813
21
-7.85508
0
LINE
8
BLACK
6
CONTINUOUS
10
7.46931
20
-7.78677
11
7.47773
21
-7.78903
0
LINE
8
BLACK
6
CONTINUOUS
10
7.47773
20
-7.78903
11
7.48563
21
-7.79271
0
LINE
8
BLACK
6
CONTINUOUS
10
7.48563
20
-7.79271
11
7.49277
21
-7.79771
0
LINE
8
BLACK
6
CONTINUOUS
10
7.49277
20
-7.79771
11
7.49893
21
-7.80387
0
LINE
8
BLACK
6
CONTINUOUS
10
7.49893
20
-7.80387
11
7.50393
21
-7.81101
0
LINE
8
BLACK
6
CONTINUOUS
10
7.50393
20
-7.81101
11
7.50761
21
-7.81891
0
LINE
8
BLACK
6
CONTINUOUS
10
7.50761
20
-7.81891
11
7.50987
21
-7.82733
0
LINE
8
BLACK
6
CONTINUOUS
10
7.50987
20
-7.82733
11
7.51063
21
-7.83601
0
LINE
8
BLACK
6
CONTINUOUS
10
7.51063
20
-7.83601
11
7.50987
21
-7.84469
0
LINE
8
BLACK
6
CONTINUOUS
10
7.50987
20
-7.84469
11
7.50761
21
-7.85311
0
LINE
8
BLACK
6
CONTINUOUS
10
7.50761
20
-7.85311
11
7.50393
21
-7.86101
0
LINE
8
BLACK
6
CONTINUOUS
10
7.50393
20
-7.86101
11
7.49893
21
-7.86815
0
LINE
8
BLACK
6
CONTINUOUS
10
7.49893
20
-7.86815
11
7.49277
21
-7.87431
0
LINE
8
BLACK
6
CONTINUOUS
10
7.49277
20
-7.87431
11
7.48563
21
-7.87931
0
LINE
8
BLACK
6
CONTINUOUS
10
7.48563
20
-7.87931
11
7.47773
21
-7.883
0
LINE
8
BLACK
6
CONTINUOUS
10
7.47773
20
-7.883
11
7.46931
21
-7.88525
0
LINE
8
BLACK
6
CONTINUOUS
10
7.46931
20
-7.88525
11
7.46063
21
-7.88601
0
LINE
8
BLACK
6
CONTINUOUS
10
7.46063
20
-7.88601
11
7.45195
21
-7.88525
0
LINE
8
BLACK
6
CONTINUOUS
10
7.45195
20
-7.88525
11
7.44353
21
-7.883
0
LINE
8
BLACK
6
CONTINUOUS
10
7.44353
20
-7.883
11
7.43563
21
-7.87931
0
LINE
8
BLACK
6
CONTINUOUS
10
7.43563
20
-7.87931
11
7.42849
21
-7.87431
0
LINE
8
BLACK
6
CONTINUOUS
10
7.42849
20
-7.87431
11
7.42233
21
-7.86815
0
LINE
8
BLACK
6
CONTINUOUS
10
7.42233
20
-7.86815
11
7.41733
21
-7.86101
0
LINE
8
BLACK
6
CONTINUOUS
10
7.41733
20
-7.86101
11
7.41365
21
-7.85311
0
LINE
8
BLACK
6
CONTINUOUS
10
7.41365
20
-7.85311
11
7.41139
21
-7.84469
0
LINE
8
BLACK
6
CONTINUOUS
10
7.41139
20
-7.84469
11
7.41063
21
-7.83601
0
LINE
8
BLACK
6
CONTINUOUS
10
7.41063
20
-7.83601
11
7.41139
21
-7.82733
0
LINE
8
BLACK
6
CONTINUOUS
10
7.41139
20
-7.82733
11
7.41365
21
-7.81891
0
LINE
8
BLACK
6
CONTINUOUS
10
7.41365
20
-7.81891
11
7.41733
21
-7.81101
0
LINE
8
BLACK
6
CONTINUOUS
10
7.41733
20
-7.81101
11
7.42233
21
-7.80387
0
LINE
8
BLACK
6
CONTINUOUS
10
7.42233
20
-7.80387
11
7.42849
21
-7.79771
0
LINE
8
BLACK
6
CONTINUOUS
10
7.42849
20
-7.79771
11
7.43563
21
-7.79271
0
LINE
8
BLACK
6
CONTINUOUS
10
7.43563
20
-7.79271
11
7.44353
21
-7.78903
0
LINE
8
BLACK
6
CONTINUOUS
10
7.44353
20
-7.78903
11
7.45195
21
-7.78677
0
LINE
8
BLACK
6
CONTINUOUS
10
7.45195
20
-7.78677
11
7.46063
21
-7.78601
0
LINE
8
BLACK
6
CONTINUOUS
10
7.46063
20
-7.78601
11
7.46931
21
-7.78677
0
LINE
8
BLACK
6
CONTINUOUS
10
7.66419
20
-7.74346
11
7.67261
21
-7.74572
0
LINE
8
BLACK
6
CONTINUOUS
10
7.67261
20
-7.74572
11
7.68051
21
-7.7494
0
LINE
8
BLACK
6
CONTINUOUS
10
7.68051
20
-7.7494
11
7.68765
21
-7.7544
0
LINE
8
BLACK
6
CONTINUOUS
10
7.68765
20
-7.7544
11
7.69381
21
-7.76057
0
LINE
8
BLACK
6
CONTINUOUS
10
7.69381
20
-7.76057
11
7.69881
21
-7.76771
0
LINE
8
BLACK
6
CONTINUOUS
10
7.69881
20
-7.76771
11
7.7025
21
-7.7756
0
LINE
8
BLACK
6
CONTINUOUS
10
7.7025
20
-7.7756
11
7.70475
21
-7.78402
0
LINE
8
BLACK
6
CONTINUOUS
10
7.70475
20
-7.78402
11
7.70551
21
-7.79271
0
LINE
8
BLACK
6
CONTINUOUS
10
7.70551
20
-7.79271
11
7.70475
21
-7.80139
0
LINE
8
BLACK
6
CONTINUOUS
10
7.70475
20
-7.80139
11
7.7025
21
-7.80981
0
LINE
8
BLACK
6
CONTINUOUS
10
7.7025
20
-7.80981
11
7.69881
21
-7.81771
0
LINE
8
BLACK
6
CONTINUOUS
10
7.69881
20
-7.81771
11
7.69381
21
-7.82484
0
LINE
8
BLACK
6
CONTINUOUS
10
7.69381
20
-7.82484
11
7.68765
21
-7.83101
0
LINE
8
BLACK
6
CONTINUOUS
10
7.68765
20
-7.83101
11
7.68051
21
-7.83601
0
LINE
8
BLACK
6
CONTINUOUS
10
7.68051
20
-7.83601
11
7.67261
21
-7.83969
0
LINE
8
BLACK
6
CONTINUOUS
10
7.67261
20
-7.83969
11
7.66419
21
-7.84195
0
LINE
8
BLACK
6
CONTINUOUS
10
7.66419
20
-7.84195
11
7.65551
21
-7.84271
0
LINE
8
BLACK
6
CONTINUOUS
10
7.65551
20
-7.84271
11
7.64683
21
-7.84195
0
LINE
8
BLACK
6
CONTINUOUS
10
7.64683
20
-7.84195
11
7.63841
21
-7.83969
0
LINE
8
BLACK
6
CONTINUOUS
10
7.63841
20
-7.83969
11
7.63051
21
-7.83601
0
LINE
8
BLACK
6
CONTINUOUS
10
7.63051
20
-7.83601
11
7.62337
21
-7.83101
0
LINE
8
BLACK
6
CONTINUOUS
10
7.62337
20
-7.83101
11
7.61721
21
-7.82484
0
LINE
8
BLACK
6
CONTINUOUS
10
7.61721
20
-7.82484
11
7.61221
21
-7.81771
0
LINE
8
BLACK
6
CONTINUOUS
10
7.61221
20
-7.81771
11
7.60853
21
-7.80981
0
LINE
8
BLACK
6
CONTINUOUS
10
7.60853
20
-7.80981
11
7.60627
21
-7.80139
0
LINE
8
BLACK
6
CONTINUOUS
10
7.60627
20
-7.80139
11
7.60551
21
-7.79271
0
LINE
8
BLACK
6
CONTINUOUS
10
7.60551
20
-7.79271
11
7.60627
21
-7.78402
0
LINE
8
BLACK
6
CONTINUOUS
10
7.60627
20
-7.78402
11
7.60853
21
-7.7756
0
LINE
8
BLACK
6
CONTINUOUS
10
7.60853
20
-7.7756
11
7.61221
21
-7.76771
0
LINE
8
BLACK
6
CONTINUOUS
10
7.61221
20
-7.76771
11
7.61721
21
-7.76057
0
LINE
8
BLACK
6
CONTINUOUS
10
7.61721
20
-7.76057
11
7.62337
21
-7.7544
0
LINE
8
BLACK
6
CONTINUOUS
10
7.62337
20
-7.7544
11
7.63051
21
-7.7494
0
LINE
8
BLACK
6
CONTINUOUS
10
7.63051
20
-7.7494
11
7.63841
21
-7.74572
0
LINE
8
BLACK
6
CONTINUOUS
10
7.63841
20
-7.74572
11
7.64683
21
-7.74346
0
LINE
8
BLACK
6
CONTINUOUS
10
7.64683
20
-7.74346
11
7.65551
21
-7.74271
0
LINE
8
BLACK
6
CONTINUOUS
10
7.65551
20
-7.74271
11
7.66419
21
-7.74346
0
LINE
8
BLACK
6
CONTINUOUS
10
7.66419
20
-5.81433
11
7.67261
21
-5.81659
0
LINE
8
BLACK
6
CONTINUOUS
10
7.67261
20
-5.81659
11
7.68051
21
-5.82027
0
LINE
8
BLACK
6
CONTINUOUS
10
7.68051
20
-5.82027
11
7.68765
21
-5.82527
0
LINE
8
BLACK
6
CONTINUOUS
10
7.68765
20
-5.82527
11
7.69381
21
-5.83143
0
LINE
8
BLACK
6
CONTINUOUS
10
7.69381
20
-5.83143
11
7.69881
21
-5.83857
0
LINE
8
BLACK
6
CONTINUOUS
10
7.69881
20
-5.83857
11
7.7025
21
-5.84647
0
LINE
8
BLACK
6
CONTINUOUS
10
7.7025
20
-5.84647
11
7.70475
21
-5.85489
0
LINE
8
BLACK
6
CONTINUOUS
10
7.70475
20
-5.85489
11
7.70551
21
-5.86357
0
LINE
8
BLACK
6
CONTINUOUS
10
7.70551
20
-5.86357
11
7.70475
21
-5.87225
0
LINE
8
BLACK
6
CONTINUOUS
10
7.70475
20
-5.87225
11
7.7025
21
-5.88067
0
LINE
8
BLACK
6
CONTINUOUS
10
7.7025
20
-5.88067
11
7.69881
21
-5.88857
0
LINE
8
BLACK
6
CONTINUOUS
10
7.69881
20
-5.88857
11
7.69381
21
-5.89571
0
LINE
8
BLACK
6
CONTINUOUS
10
7.69381
20
-5.89571
11
7.68765
21
-5.90187
0
LINE
8
BLACK
6
CONTINUOUS
10
7.68765
20
-5.90187
11
7.68051
21
-5.90687
0
LINE
8
BLACK
6
CONTINUOUS
10
7.68051
20
-5.90687
11
7.67261
21
-5.91056
0
LINE
8
BLACK
6
CONTINUOUS
10
7.67261
20
-5.91056
11
7.66419
21
-5.91281
0
LINE
8
BLACK
6
CONTINUOUS
10
7.66419
20
-5.91281
11
7.65551
21
-5.91357
0
LINE
8
BLACK
6
CONTINUOUS
10
7.65551
20
-5.91357
11
7.64683
21
-5.91281
0
LINE
8
BLACK
6
CONTINUOUS
10
7.64683
20
-5.91281
11
7.63841
21
-5.91056
0
LINE
8
BLACK
6
CONTINUOUS
10
7.63841
20
-5.91056
11
7.63051
21
-5.90687
0
LINE
8
BLACK
6
CONTINUOUS
10
7.63051
20
-5.90687
11
7.62337
21
-5.90187
0
LINE
8
BLACK
6
CONTINUOUS
10
7.62337
20
-5.90187
11
7.61721
21
-5.89571
0
LINE
8
BLACK
6
CONTINUOUS
10
7.61721
20
-5.89571
11
7.61221
21
-5.88857
0
LINE
8
BLACK
6
CONTINUOUS
10
7.61221
20
-5.88857
11
7.60853
21
-5.88067
0
LINE
8
BLACK
6
CONTINUOUS
10
7.60853
20
-5.88067
11
7.60627
21
-5.87225
0
LINE
8
BLACK
6
CONTINUOUS
10
7.60627
20
-5.87225
11
7.60551
21
-5.86357
0
LINE
8
BLACK
6
CONTINUOUS
10
7.60551
20
-5.86357
11
7.60627
21
-5.85489
0
LINE
8
BLACK
6
CONTINUOUS
10
7.60627
20
-5.85489
11
7.60853
21
-5.84647
0
LINE
8
BLACK
6
CONTINUOUS
10
7.60853
20
-5.84647
11
7.61221
21
-5.83857
0
LINE
8
BLACK
6
CONTINUOUS
10
7.61221
20
-5.83857
11
7.61721
21
-5.83143
0
LINE
8
BLACK
6
CONTINUOUS
10
7.61721
20
-5.83143
11
7.62337
21
-5.82527
0
LINE
8
BLACK
6
CONTINUOUS
10
7.62337
20
-5.82527
11
7.63051
21
-5.82027
0
LINE
8
BLACK
6
CONTINUOUS
10
7.63051
20
-5.82027
11
7.63841
21
-5.81659
0
LINE
8
BLACK
6
CONTINUOUS
10
7.63841
20
-5.81659
11
7.64683
21
-5.81433
0
LINE
8
BLACK
6
CONTINUOUS
10
7.64683
20
-5.81433
11
7.65551
21
-5.81357
0
LINE
8
BLACK
6
CONTINUOUS
10
7.65551
20
-5.81357
11
7.66419
21
-5.81433
0
LINE
8
BLACK
6
CONTINUOUS
10
4.68809
20
1.25824
11
4.68817
21
1.25803
0
LINE
8
BLACK
6
CONTINUOUS
10
4.68817
20
1.25803
11
4.68817
21
1.25331
0
LINE
8
BLACK
6
CONTINUOUS
10
4.68817
20
1.25331
11
4.68809
21
1.2531
0
LINE
8
BLACK
6
CONTINUOUS
10
4.68809
20
1.2531
11
4.68788
21
1.25301
0
LINE
8
BLACK
6
CONTINUOUS
10
4.68788
20
1.25301
11
4.68767
21
1.2531
0
LINE
8
BLACK
6
CONTINUOUS
10
4.68767
20
1.2531
11
4.68758
21
1.25331
0
LINE
8
BLACK
6
CONTINUOUS
10
4.68758
20
1.25331
11
4.68758
21
1.25803
0
LINE
8
BLACK
6
CONTINUOUS
10
4.68758
20
1.25803
11
4.68767
21
1.25824
0
LINE
8
BLACK
6
CONTINUOUS
10
4.68767
20
1.25824
11
4.68788
21
1.25833
0
LINE
8
BLACK
6
CONTINUOUS
10
4.68788
20
1.25833
11
4.68809
21
1.25824
0
LINE
8
BLACK
6
CONTINUOUS
10
5.03298
20
1.26067
11
5.03307
21
1.26046
0
LINE
8
BLACK
6
CONTINUOUS
10
5.03307
20
1.26046
11
5.03298
21
1.26026
0
LINE
8
BLACK
6
CONTINUOUS
10
5.03298
20
1.26026
11
5.03277
21
1.26017
0
LINE
8
BLACK
6
CONTINUOUS
10
5.03277
20
1.26017
11
5.03104
21
1.26017
0
LINE
8
BLACK
6
CONTINUOUS
10
5.03104
20
1.26017
11
5.03104
21
1.25851
0
LINE
8
BLACK
6
CONTINUOUS
10
5.03104
20
1.25851
11
5.03217
21
1.25851
0
LINE
8
BLACK
6
CONTINUOUS
10
5.03217
20
1.25851
11
5.03237
21
1.25842
0
LINE
8
BLACK
6
CONTINUOUS
10
5.03237
20
1.25842
11
5.03246
21
1.25821
0
LINE
8
BLACK
6
CONTINUOUS
10
5.03246
20
1.25821
11
5.03237
21
1.25801
0
LINE
8
BLACK
6
CONTINUOUS
10
5.03237
20
1.25801
11
5.03217
21
1.25792
0
LINE
8
BLACK
6
CONTINUOUS
10
5.03217
20
1.25792
11
5.03104
21
1.25792
0
LINE
8
BLACK
6
CONTINUOUS
10
5.03104
20
1.25792
11
5.03104
21
1.25574
0
LINE
8
BLACK
6
CONTINUOUS
10
5.03104
20
1.25574
11
5.03096
21
1.25553
0
LINE
8
BLACK
6
CONTINUOUS
10
5.03096
20
1.25553
11
5.03075
21
1.25544
0
LINE
8
BLACK
6
CONTINUOUS
10
5.03075
20
1.25544
11
5.03054
21
1.25553
0
LINE
8
BLACK
6
CONTINUOUS
10
5.03054
20
1.25553
11
5.03045
21
1.25574
0
LINE
8
BLACK
6
CONTINUOUS
10
5.03045
20
1.25574
11
5.03045
21
1.26046
0
LINE
8
BLACK
6
CONTINUOUS
10
5.03045
20
1.26046
11
5.03054
21
1.26067
0
LINE
8
BLACK
6
CONTINUOUS
10
5.03054
20
1.26067
11
5.03075
21
1.26076
0
LINE
8
BLACK
6
CONTINUOUS
10
5.03075
20
1.26076
11
5.03277
21
1.26076
0
LINE
8
BLACK
6
CONTINUOUS
10
5.03277
20
1.26076
11
5.03298
21
1.26067
0
LINE
8
BLACK
6
CONTINUOUS
10
5.03703
20
1.26067
11
5.03712
21
1.26046
0
LINE
8
BLACK
6
CONTINUOUS
10
5.03712
20
1.26046
11
5.03712
21
1.25664
0
LINE
8
BLACK
6
CONTINUOUS
10
5.03712
20
1.25664
11
5.03709
21
1.25658
0
LINE
8
BLACK
6
CONTINUOUS
10
5.03709
20
1.25658
11
5.03709
21
1.25652
0
LINE
8
BLACK
6
CONTINUOUS
10
5.03709
20
1.25652
11
5.03689
21
1.25607
0
LINE
8
BLACK
6
CONTINUOUS
10
5.03689
20
1.25607
11
5.03685
21
1.25604
0
LINE
8
BLACK
6
CONTINUOUS
10
5.03685
20
1.25604
11
5.03684
21
1.25599
0
LINE
8
BLACK
6
CONTINUOUS
10
5.03684
20
1.25599
11
5.03664
21
1.25577
0
LINE
8
BLACK
6
CONTINUOUS
10
5.03664
20
1.25577
11
5.03659
21
1.25575
0
LINE
8
BLACK
6
CONTINUOUS
10
5.03659
20
1.25575
11
5.03656
21
1.25571
0
LINE
8
BLACK
6
CONTINUOUS
10
5.03656
20
1.25571
11
5.03616
21
1.25548
0
LINE
8
BLACK
6
CONTINUOUS
10
5.03616
20
1.25548
11
5.03608
21
1.25547
0
LINE
8
BLACK
6
CONTINUOUS
10
5.03608
20
1.25547
11
5.03601
21
1.25544
0
LINE
8
BLACK
6
CONTINUOUS
10
5.03601
20
1.25544
11
5.0352
21
1.25544
0
LINE
8
BLACK
6
CONTINUOUS
10
5.0352
20
1.25544
11
5.03513
21
1.25547
0
LINE
8
BLACK
6
CONTINUOUS
10
5.03513
20
1.25547
11
5.03506
21
1.25548
0
LINE
8
BLACK
6
CONTINUOUS
10
5.03506
20
1.25548
11
5.03465
21
1.25571
0
LINE
8
BLACK
6
CONTINUOUS
10
5.03465
20
1.25571
11
5.03462
21
1.25575
0
LINE
8
BLACK
6
CONTINUOUS
10
5.03462
20
1.25575
11
5.03458
21
1.25577
0
LINE
8
BLACK
6
CONTINUOUS
10
5.03458
20
1.25577
11
5.03438
21
1.25599
0
LINE
8
BLACK
6
CONTINUOUS
10
5.03438
20
1.25599
11
5.03436
21
1.25604
0
LINE
8
BLACK
6
CONTINUOUS
10
5.03436
20
1.25604
11
5.03433
21
1.25607
0
LINE
8
BLACK
6
CONTINUOUS
10
5.03433
20
1.25607
11
5.03412
21
1.25652
0
LINE
8
BLACK
6
CONTINUOUS
10
5.03412
20
1.25652
11
5.03412
21
1.25658
0
LINE
8
BLACK
6
CONTINUOUS
10
5.03412
20
1.25658
11
5.0341
21
1.25664
0
LINE
8
BLACK
6
CONTINUOUS
10
5.0341
20
1.25664
11
5.0341
21
1.26046
0
LINE
8
BLACK
6
CONTINUOUS
10
5.0341
20
1.26046
11
5.03418
21
1.26067
0
LINE
8
BLACK
6
CONTINUOUS
10
5.03418
20
1.26067
11
5.03439
21
1.26076
0
LINE
8
BLACK
6
CONTINUOUS
10
5.03439
20
1.26076
11
5.0346
21
1.26067
0
LINE
8
BLACK
6
CONTINUOUS
10
5.0346
20
1.26067
11
5.03469
21
1.26046
0
LINE
8
BLACK
6
CONTINUOUS
10
5.03469
20
1.26046
11
5.03469
21
1.2567
0
LINE
8
BLACK
6
CONTINUOUS
10
5.03469
20
1.2567
11
5.03485
21
1.25635
0
LINE
8
BLACK
6
CONTINUOUS
10
5.03485
20
1.25635
11
5.03498
21
1.2562
0
LINE
8
BLACK
6
CONTINUOUS
10
5.03498
20
1.2562
11
5.03528
21
1.25603
0
LINE
8
BLACK
6
CONTINUOUS
10
5.03528
20
1.25603
11
5.03594
21
1.25603
0
LINE
8
BLACK
6
CONTINUOUS
10
5.03594
20
1.25603
11
5.03623
21
1.2562
0
LINE
8
BLACK
6
CONTINUOUS
10
5.03623
20
1.2562
11
5.03637
21
1.25635
0
LINE
8
BLACK
6
CONTINUOUS
10
5.03637
20
1.25635
11
5.03653
21
1.2567
0
LINE
8
BLACK
6
CONTINUOUS
10
5.03653
20
1.2567
11
5.03653
21
1.26046
0
LINE
8
BLACK
6
CONTINUOUS
10
5.03653
20
1.26046
11
5.03661
21
1.26067
0
LINE
8
BLACK
6
CONTINUOUS
10
5.03661
20
1.26067
11
5.03682
21
1.26076
0
LINE
8
BLACK
6
CONTINUOUS
10
5.03682
20
1.26076
11
5.03703
21
1.26067
0
LINE
8
BLACK
6
CONTINUOUS
10
5.04052
20
1.26074
11
5.04057
21
1.26074
0
LINE
8
BLACK
6
CONTINUOUS
10
5.04057
20
1.26074
11
5.04118
21
1.26052
0
LINE
8
BLACK
6
CONTINUOUS
10
5.04118
20
1.26052
11
5.04123
21
1.26047
0
LINE
8
BLACK
6
CONTINUOUS
10
5.04123
20
1.26047
11
5.04129
21
1.26044
0
LINE
8
BLACK
6
CONTINUOUS
10
5.04129
20
1.26044
11
5.0415
21
1.26021
0
LINE
8
BLACK
6
CONTINUOUS
10
5.0415
20
1.26021
11
5.04157
21
1.26
0
LINE
8
BLACK
6
CONTINUOUS
10
5.04157
20
1.26
11
5.04147
21
1.25979
0
LINE
8
BLACK
6
CONTINUOUS
10
5.04147
20
1.25979
11
5.04126
21
1.25972
0
LINE
8
BLACK
6
CONTINUOUS
10
5.04126
20
1.25972
11
5.04106
21
1.25982
0
LINE
8
BLACK
6
CONTINUOUS
10
5.04106
20
1.25982
11
5.0409
21
1.25999
0
LINE
8
BLACK
6
CONTINUOUS
10
5.0409
20
1.25999
11
5.04041
21
1.26017
0
LINE
8
BLACK
6
CONTINUOUS
10
5.04041
20
1.26017
11
5.04011
21
1.26017
0
LINE
8
BLACK
6
CONTINUOUS
10
5.04011
20
1.26017
11
5.03963
21
1.25999
0
LINE
8
BLACK
6
CONTINUOUS
10
5.03963
20
1.25999
11
5.0393
21
1.25963
0
LINE
8
BLACK
6
CONTINUOUS
10
5.0393
20
1.25963
11
5.03913
21
1.25925
0
LINE
8
BLACK
6
CONTINUOUS
10
5.03913
20
1.25925
11
5.03894
21
1.25841
0
LINE
8
BLACK
6
CONTINUOUS
10
5.03894
20
1.25841
11
5.03894
21
1.2578
0
LINE
8
BLACK
6
CONTINUOUS
10
5.03894
20
1.2578
11
5.03913
21
1.25696
0
LINE
8
BLACK
6
CONTINUOUS
10
5.03913
20
1.25696
11
5.0393
21
1.25658
0
LINE
8
BLACK
6
CONTINUOUS
10
5.0393
20
1.25658
11
5.03963
21
1.25622
0
LINE
8
BLACK
6
CONTINUOUS
10
5.03963
20
1.25622
11
5.04011
21
1.25603
0
LINE
8
BLACK
6
CONTINUOUS
10
5.04011
20
1.25603
11
5.04041
21
1.25603
0
LINE
8
BLACK
6
CONTINUOUS
10
5.04041
20
1.25603
11
5.0409
21
1.25622
0
LINE
8
BLACK
6
CONTINUOUS
10
5.0409
20
1.25622
11
5.04106
21
1.25639
0
LINE
8
BLACK
6
CONTINUOUS
10
5.04106
20
1.25639
11
5.04126
21
1.25648
0
LINE
8
BLACK
6
CONTINUOUS
10
5.04126
20
1.25648
11
5.04147
21
1.25641
0
LINE
8
BLACK
6
CONTINUOUS
10
5.04147
20
1.25641
11
5.04157
21
1.2562
0
LINE
8
BLACK
6
CONTINUOUS
10
5.04157
20
1.2562
11
5.0415
21
1.25599
0
LINE
8
BLACK
6
CONTINUOUS
10
5.0415
20
1.25599
11
5.04129
21
1.25577
0
LINE
8
BLACK
6
CONTINUOUS
10
5.04129
20
1.25577
11
5.04123
21
1.25574
0
LINE
8
BLACK
6
CONTINUOUS
10
5.04123
20
1.25574
11
5.04118
21
1.25569
0
LINE
8
BLACK
6
CONTINUOUS
10
5.04118
20
1.25569
11
5.04057
21
1.25546
0
LINE
8
BLACK
6
CONTINUOUS
10
5.04057
20
1.25546
11
5.04052
21
1.25546
0
LINE
8
BLACK
6
CONTINUOUS
10
5.04052
20
1.25546
11
5.04047
21
1.25544
0
LINE
8
BLACK
6
CONTINUOUS
10
5.04047
20
1.25544
11
5.04006
21
1.25544
0
LINE
8
BLACK
6
CONTINUOUS
10
5.04006
20
1.25544
11
5.04001
21
1.25546
0
LINE
8
BLACK
6
CONTINUOUS
10
5.04001
20
1.25546
11
5.03996
21
1.25546
0
LINE
8
BLACK
6
CONTINUOUS
10
5.03996
20
1.25546
11
5.03935
21
1.25569
0
LINE
8
BLACK
6
CONTINUOUS
10
5.03935
20
1.25569
11
5.0393
21
1.25574
0
LINE
8
BLACK
6
CONTINUOUS
10
5.0393
20
1.25574
11
5.03923
21
1.25577
0
LINE
8
BLACK
6
CONTINUOUS
10
5.03923
20
1.25577
11
5.03883
21
1.25622
0
LINE
8
BLACK
6
CONTINUOUS
10
5.03883
20
1.25622
11
5.03881
21
1.25626
0
LINE
8
BLACK
6
CONTINUOUS
10
5.03881
20
1.25626
11
5.03878
21
1.25629
0
LINE
8
BLACK
6
CONTINUOUS
10
5.03878
20
1.25629
11
5.03858
21
1.25674
0
LINE
8
BLACK
6
CONTINUOUS
10
5.03858
20
1.25674
11
5.03858
21
1.25677
0
LINE
8
BLACK
6
CONTINUOUS
10
5.03858
20
1.25677
11
5.03856
21
1.2568
0
LINE
8
BLACK
6
CONTINUOUS
10
5.03856
20
1.2568
11
5.03836
21
1.2577
0
LINE
8
BLACK
6
CONTINUOUS
10
5.03836
20
1.2577
11
5.03836
21
1.25773
0
LINE
8
BLACK
6
CONTINUOUS
10
5.03836
20
1.25773
11
5.03835
21
1.25776
0
LINE
8
BLACK
6
CONTINUOUS
10
5.03835
20
1.25776
11
5.03835
21
1.25844
0
LINE
8
BLACK
6
CONTINUOUS
10
5.03835
20
1.25844
11
5.03836
21
1.25847
0
LINE
8
BLACK
6
CONTINUOUS
10
5.03836
20
1.25847
11
5.03836
21
1.2585
0
LINE
8
BLACK
6
CONTINUOUS
10
5.03836
20
1.2585
11
5.03856
21
1.2594
0
LINE
8
BLACK
6
CONTINUOUS
10
5.03856
20
1.2594
11
5.03858
21
1.25943
0
LINE
8
BLACK
6
CONTINUOUS
10
5.03858
20
1.25943
11
5.03858
21
1.25946
0
LINE
8
BLACK
6
CONTINUOUS
10
5.03858
20
1.25946
11
5.03878
21
1.25991
0
LINE
8
BLACK
6
CONTINUOUS
10
5.03878
20
1.25991
11
5.03881
21
1.25994
0
LINE
8
BLACK
6
CONTINUOUS
10
5.03881
20
1.25994
11
5.03883
21
1.25999
0
LINE
8
BLACK
6
CONTINUOUS
10
5.03883
20
1.25999
11
5.03923
21
1.26044
0
LINE
8
BLACK
6
CONTINUOUS
10
5.03923
20
1.26044
11
5.0393
21
1.26047
0
LINE
8
BLACK
6
CONTINUOUS
10
5.0393
20
1.26047
11
5.03935
21
1.26052
0
LINE
8
BLACK
6
CONTINUOUS
10
5.03935
20
1.26052
11
5.03996
21
1.26074
0
LINE
8
BLACK
6
CONTINUOUS
10
5.03996
20
1.26074
11
5.04001
21
1.26074
0
LINE
8
BLACK
6
CONTINUOUS
10
5.04001
20
1.26074
11
5.04006
21
1.26076
0
LINE
8
BLACK
6
CONTINUOUS
10
5.04006
20
1.26076
11
5.04047
21
1.26076
0
LINE
8
BLACK
6
CONTINUOUS
10
5.04047
20
1.26076
11
5.04052
21
1.26074
0
LINE
8
BLACK
6
CONTINUOUS
10
5.05201
20
1.26067
11
5.0521
21
1.26046
0
LINE
8
BLACK
6
CONTINUOUS
10
5.0521
20
1.26046
11
5.0521
21
1.25574
0
LINE
8
BLACK
6
CONTINUOUS
10
5.0521
20
1.25574
11
5.05208
21
1.2557
0
LINE
8
BLACK
6
CONTINUOUS
10
5.05208
20
1.2557
11
5.05209
21
1.25565
0
LINE
8
BLACK
6
CONTINUOUS
10
5.05209
20
1.25565
11
5.05204
21
1.2556
0
LINE
8
BLACK
6
CONTINUOUS
10
5.05204
20
1.2556
11
5.05201
21
1.25553
0
LINE
8
BLACK
6
CONTINUOUS
10
5.05201
20
1.25553
11
5.05197
21
1.25551
0
LINE
8
BLACK
6
CONTINUOUS
10
5.05197
20
1.25551
11
5.05194
21
1.25548
0
LINE
8
BLACK
6
CONTINUOUS
10
5.05194
20
1.25548
11
5.05187
21
1.25547
0
LINE
8
BLACK
6
CONTINUOUS
10
5.05187
20
1.25547
11
5.05181
21
1.25544
0
LINE
8
BLACK
6
CONTINUOUS
10
5.05181
20
1.25544
11
5.05176
21
1.25546
0
LINE
8
BLACK
6
CONTINUOUS
10
5.05176
20
1.25546
11
5.05172
21
1.25546
0
LINE
8
BLACK
6
CONTINUOUS
10
5.05172
20
1.25546
11
5.05166
21
1.2555
0
LINE
8
BLACK
6
CONTINUOUS
10
5.05166
20
1.2555
11
5.0516
21
1.25553
0
LINE
8
BLACK
6
CONTINUOUS
10
5.0516
20
1.25553
11
5.05158
21
1.25557
0
LINE
8
BLACK
6
CONTINUOUS
10
5.05158
20
1.25557
11
5.05154
21
1.2556
0
LINE
8
BLACK
6
CONTINUOUS
10
5.05154
20
1.2556
11
5.04967
21
1.25924
0
LINE
8
BLACK
6
CONTINUOUS
10
5.04967
20
1.25924
11
5.04967
21
1.25574
0
LINE
8
BLACK
6
CONTINUOUS
10
5.04967
20
1.25574
11
5.04958
21
1.25553
0
LINE
8
BLACK
6
CONTINUOUS
10
5.04958
20
1.25553
11
5.04938
21
1.25544
0
LINE
8
BLACK
6
CONTINUOUS
10
5.04938
20
1.25544
11
5.04917
21
1.25553
0
LINE
8
BLACK
6
CONTINUOUS
10
5.04917
20
1.25553
11
5.04908
21
1.25574
0
LINE
8
BLACK
6
CONTINUOUS
10
5.04908
20
1.25574
11
5.04908
21
1.26046
0
LINE
8
BLACK
6
CONTINUOUS
10
5.04908
20
1.26046
11
5.0491
21
1.26051
0
LINE
8
BLACK
6
CONTINUOUS
10
5.0491
20
1.26051
11
5.04909
21
1.26055
0
LINE
8
BLACK
6
CONTINUOUS
10
5.04909
20
1.26055
11
5.04914
21
1.26061
0
LINE
8
BLACK
6
CONTINUOUS
10
5.04914
20
1.26061
11
5.04917
21
1.26067
0
LINE
8
BLACK
6
CONTINUOUS
10
5.04917
20
1.26067
11
5.04921
21
1.26069
0
LINE
8
BLACK
6
CONTINUOUS
10
5.04921
20
1.26069
11
5.04924
21
1.26073
0
LINE
8
BLACK
6
CONTINUOUS
10
5.04924
20
1.26073
11
5.04931
21
1.26073
0
LINE
8
BLACK
6
CONTINUOUS
10
5.04931
20
1.26073
11
5.04938
21
1.26076
0
LINE
8
BLACK
6
CONTINUOUS
10
5.04938
20
1.26076
11
5.04942
21
1.26074
0
LINE
8
BLACK
6
CONTINUOUS
10
5.04942
20
1.26074
11
5.04947
21
1.26074
0
LINE
8
BLACK
6
CONTINUOUS
10
5.04947
20
1.26074
11
5.04952
21
1.2607
0
LINE
8
BLACK
6
CONTINUOUS
10
5.04952
20
1.2607
11
5.04958
21
1.26067
0
LINE
8
BLACK
6
CONTINUOUS
10
5.04958
20
1.26067
11
5.0496
21
1.26063
0
LINE
8
BLACK
6
CONTINUOUS
10
5.0496
20
1.26063
11
5.04964
21
1.2606
0
LINE
8
BLACK
6
CONTINUOUS
10
5.04964
20
1.2606
11
5.05151
21
1.25696
0
LINE
8
BLACK
6
CONTINUOUS
10
5.05151
20
1.25696
11
5.05151
21
1.26046
0
LINE
8
BLACK
6
CONTINUOUS
10
5.05151
20
1.26046
11
5.0516
21
1.26067
0
LINE
8
BLACK
6
CONTINUOUS
10
5.0516
20
1.26067
11
5.05181
21
1.26076
0
LINE
8
BLACK
6
CONTINUOUS
10
5.05181
20
1.26076
11
5.05201
21
1.26067
0
LINE
8
BLACK
6
CONTINUOUS
10
5.04331
20
1.26067
11
5.04339
21
1.26046
0
LINE
8
BLACK
6
CONTINUOUS
10
5.04339
20
1.26046
11
5.04339
21
1.25853
0
LINE
8
BLACK
6
CONTINUOUS
10
5.04339
20
1.25853
11
5.04531
21
1.26066
0
LINE
8
BLACK
6
CONTINUOUS
10
5.04531
20
1.26066
11
5.04551
21
1.26076
0
LINE
8
BLACK
6
CONTINUOUS
10
5.04551
20
1.26076
11
5.04573
21
1.26068
0
LINE
8
BLACK
6
CONTINUOUS
10
5.04573
20
1.26068
11
5.04582
21
1.26048
0
LINE
8
BLACK
6
CONTINUOUS
10
5.04582
20
1.26048
11
5.04575
21
1.26027
0
LINE
8
BLACK
6
CONTINUOUS
10
5.04575
20
1.26027
11
5.04408
21
1.25841
0
LINE
8
BLACK
6
CONTINUOUS
10
5.04408
20
1.25841
11
5.04577
21
1.2559
0
LINE
8
BLACK
6
CONTINUOUS
10
5.04577
20
1.2559
11
5.04582
21
1.25568
0
LINE
8
BLACK
6
CONTINUOUS
10
5.04582
20
1.25568
11
5.04569
21
1.25549
0
LINE
8
BLACK
6
CONTINUOUS
10
5.04569
20
1.25549
11
5.04547
21
1.25545
0
LINE
8
BLACK
6
CONTINUOUS
10
5.04547
20
1.25545
11
5.04528
21
1.25557
0
LINE
8
BLACK
6
CONTINUOUS
10
5.04528
20
1.25557
11
5.04367
21
1.25796
0
LINE
8
BLACK
6
CONTINUOUS
10
5.04367
20
1.25796
11
5.04339
21
1.25765
0
LINE
8
BLACK
6
CONTINUOUS
10
5.04339
20
1.25765
11
5.04339
21
1.25574
0
LINE
8
BLACK
6
CONTINUOUS
10
5.04339
20
1.25574
11
5.04331
21
1.25553
0
LINE
8
BLACK
6
CONTINUOUS
10
5.04331
20
1.25553
11
5.0431
21
1.25544
0
LINE
8
BLACK
6
CONTINUOUS
10
5.0431
20
1.25544
11
5.04289
21
1.25553
0
LINE
8
BLACK
6
CONTINUOUS
10
5.04289
20
1.25553
11
5.0428
21
1.25574
0
LINE
8
BLACK
6
CONTINUOUS
10
5.0428
20
1.25574
11
5.0428
21
1.26046
0
LINE
8
BLACK
6
CONTINUOUS
10
5.0428
20
1.26046
11
5.04289
21
1.26067
0
LINE
8
BLACK
6
CONTINUOUS
10
5.04289
20
1.26067
11
5.0431
21
1.26076
0
LINE
8
BLACK
6
CONTINUOUS
10
5.0431
20
1.26076
11
5.04331
21
1.26067
0
LINE
8
BLACK
6
CONTINUOUS
10
5.04756
20
1.26067
11
5.04765
21
1.26046
0
LINE
8
BLACK
6
CONTINUOUS
10
5.04765
20
1.26046
11
5.04765
21
1.25574
0
LINE
8
BLACK
6
CONTINUOUS
10
5.04765
20
1.25574
11
5.04756
21
1.25553
0
LINE
8
BLACK
6
CONTINUOUS
10
5.04756
20
1.25553
11
5.04735
21
1.25544
0
LINE
8
BLACK
6
CONTINUOUS
10
5.04735
20
1.25544
11
5.04714
21
1.25553
0
LINE
8
BLACK
6
CONTINUOUS
10
5.04714
20
1.25553
11
5.04706
21
1.25574
0
LINE
8
BLACK
6
CONTINUOUS
10
5.04706
20
1.25574
11
5.04706
21
1.26046
0
LINE
8
BLACK
6
CONTINUOUS
10
5.04706
20
1.26046
11
5.04714
21
1.26067
0
LINE
8
BLACK
6
CONTINUOUS
10
5.04714
20
1.26067
11
5.04735
21
1.26076
0
LINE
8
BLACK
6
CONTINUOUS
10
5.04735
20
1.26076
11
5.04756
21
1.26067
0
LINE
8
BLACK
6
CONTINUOUS
10
5.05656
20
1.25776
11
5.05656
21
1.25619
0
LINE
8
BLACK
6
CONTINUOUS
10
5.05656
20
1.25619
11
5.05651
21
1.25609
0
LINE
8
BLACK
6
CONTINUOUS
10
5.05651
20
1.25609
11
5.05648
21
1.25599
0
LINE
8
BLACK
6
CONTINUOUS
10
5.05648
20
1.25599
11
5.05628
21
1.25577
0
LINE
8
BLACK
6
CONTINUOUS
10
5.05628
20
1.25577
11
5.05621
21
1.25574
0
LINE
8
BLACK
6
CONTINUOUS
10
5.05621
20
1.25574
11
5.05616
21
1.25569
0
LINE
8
BLACK
6
CONTINUOUS
10
5.05616
20
1.25569
11
5.05555
21
1.25546
0
LINE
8
BLACK
6
CONTINUOUS
10
5.05555
20
1.25546
11
5.0555
21
1.25546
0
LINE
8
BLACK
6
CONTINUOUS
10
5.0555
20
1.25546
11
5.05545
21
1.25544
0
LINE
8
BLACK
6
CONTINUOUS
10
5.05545
20
1.25544
11
5.05504
21
1.25544
0
LINE
8
BLACK
6
CONTINUOUS
10
5.05504
20
1.25544
11
5.055
21
1.25546
0
LINE
8
BLACK
6
CONTINUOUS
10
5.055
20
1.25546
11
5.05494
21
1.25546
0
LINE
8
BLACK
6
CONTINUOUS
10
5.05494
20
1.25546
11
5.05433
21
1.25569
0
LINE
8
BLACK
6
CONTINUOUS
10
5.05433
20
1.25569
11
5.05428
21
1.25574
0
LINE
8
BLACK
6
CONTINUOUS
10
5.05428
20
1.25574
11
5.05422
21
1.25577
0
LINE
8
BLACK
6
CONTINUOUS
10
5.05422
20
1.25577
11
5.05381
21
1.25622
0
LINE
8
BLACK
6
CONTINUOUS
10
5.05381
20
1.25622
11
5.0538
21
1.25626
0
LINE
8
BLACK
6
CONTINUOUS
10
5.0538
20
1.25626
11
5.05376
21
1.25629
0
LINE
8
BLACK
6
CONTINUOUS
10
5.05376
20
1.25629
11
5.05356
21
1.25674
0
LINE
8
BLACK
6
CONTINUOUS
10
5.05356
20
1.25674
11
5.05356
21
1.25677
0
LINE
8
BLACK
6
CONTINUOUS
10
5.05356
20
1.25677
11
5.05354
21
1.2568
0
LINE
8
BLACK
6
CONTINUOUS
10
5.05354
20
1.2568
11
5.05334
21
1.2577
0
LINE
8
BLACK
6
CONTINUOUS
10
5.05334
20
1.2577
11
5.05335
21
1.25773
0
LINE
8
BLACK
6
CONTINUOUS
10
5.05335
20
1.25773
11
5.05333
21
1.25776
0
LINE
8
BLACK
6
CONTINUOUS
10
5.05333
20
1.25776
11
5.05333
21
1.25844
0
LINE
8
BLACK
6
CONTINUOUS
10
5.05333
20
1.25844
11
5.05335
21
1.25847
0
LINE
8
BLACK
6
CONTINUOUS
10
5.05335
20
1.25847
11
5.05334
21
1.2585
0
LINE
8
BLACK
6
CONTINUOUS
10
5.05334
20
1.2585
11
5.05354
21
1.2594
0
LINE
8
BLACK
6
CONTINUOUS
10
5.05354
20
1.2594
11
5.05356
21
1.25943
0
LINE
8
BLACK
6
CONTINUOUS
10
5.05356
20
1.25943
11
5.05356
21
1.25946
0
LINE
8
BLACK
6
CONTINUOUS
10
5.05356
20
1.25946
11
5.05376
21
1.25991
0
LINE
8
BLACK
6
CONTINUOUS
10
5.05376
20
1.25991
11
5.0538
21
1.25994
0
LINE
8
BLACK
6
CONTINUOUS
10
5.0538
20
1.25994
11
5.05381
21
1.25999
0
LINE
8
BLACK
6
CONTINUOUS
10
5.05381
20
1.25999
11
5.05422
21
1.26044
0
LINE
8
BLACK
6
CONTINUOUS
10
5.05422
20
1.26044
11
5.05428
21
1.26047
0
LINE
8
BLACK
6
CONTINUOUS
10
5.05428
20
1.26047
11
5.05433
21
1.26052
0
LINE
8
BLACK
6
CONTINUOUS
10
5.05433
20
1.26052
11
5.05494
21
1.26074
0
LINE
8
BLACK
6
CONTINUOUS
10
5.05494
20
1.26074
11
5.055
21
1.26074
0
LINE
8
BLACK
6
CONTINUOUS
10
5.055
20
1.26074
11
5.05504
21
1.26076
0
LINE
8
BLACK
6
CONTINUOUS
10
5.05504
20
1.26076
11
5.05565
21
1.26076
0
LINE
8
BLACK
6
CONTINUOUS
10
5.05565
20
1.26076
11
5.05572
21
1.26073
0
LINE
8
BLACK
6
CONTINUOUS
10
5.05572
20
1.26073
11
5.0558
21
1.26072
0
LINE
8
BLACK
6
CONTINUOUS
10
5.0558
20
1.26072
11
5.0562
21
1.2605
0
LINE
8
BLACK
6
CONTINUOUS
10
5.0562
20
1.2605
11
5.05634
21
1.26032
0
LINE
8
BLACK
6
CONTINUOUS
10
5.05634
20
1.26032
11
5.05632
21
1.2601
0
LINE
8
BLACK
6
CONTINUOUS
10
5.05632
20
1.2601
11
5.05614
21
1.25995
0
LINE
8
BLACK
6
CONTINUOUS
10
5.05614
20
1.25995
11
5.05591
21
1.25998
0
LINE
8
BLACK
6
CONTINUOUS
10
5.05591
20
1.25998
11
5.05558
21
1.26017
0
LINE
8
BLACK
6
CONTINUOUS
10
5.05558
20
1.26017
11
5.0551
21
1.26017
0
LINE
8
BLACK
6
CONTINUOUS
10
5.0551
20
1.26017
11
5.05461
21
1.25999
0
LINE
8
BLACK
6
CONTINUOUS
10
5.05461
20
1.25999
11
5.05428
21
1.25963
0
LINE
8
BLACK
6
CONTINUOUS
10
5.05428
20
1.25963
11
5.05411
21
1.25924
0
LINE
8
BLACK
6
CONTINUOUS
10
5.05411
20
1.25924
11
5.05392
21
1.25841
0
LINE
8
BLACK
6
CONTINUOUS
10
5.05392
20
1.25841
11
5.05392
21
1.2578
0
LINE
8
BLACK
6
CONTINUOUS
10
5.05392
20
1.2578
11
5.05411
21
1.25696
0
LINE
8
BLACK
6
CONTINUOUS
10
5.05411
20
1.25696
11
5.05428
21
1.25658
0
LINE
8
BLACK
6
CONTINUOUS
10
5.05428
20
1.25658
11
5.05461
21
1.25622
0
LINE
8
BLACK
6
CONTINUOUS
10
5.05461
20
1.25622
11
5.0551
21
1.25603
0
LINE
8
BLACK
6
CONTINUOUS
10
5.0551
20
1.25603
11
5.0554
21
1.25603
0
LINE
8
BLACK
6
CONTINUOUS
10
5.0554
20
1.25603
11
5.05589
21
1.25622
0
LINE
8
BLACK
6
CONTINUOUS
10
5.05589
20
1.25622
11
5.05596
21
1.2563
0
LINE
8
BLACK
6
CONTINUOUS
10
5.05596
20
1.2563
11
5.05596
21
1.25747
0
LINE
8
BLACK
6
CONTINUOUS
10
5.05596
20
1.25747
11
5.05545
21
1.25747
0
LINE
8
BLACK
6
CONTINUOUS
10
5.05545
20
1.25747
11
5.05524
21
1.25756
0
LINE
8
BLACK
6
CONTINUOUS
10
5.05524
20
1.25756
11
5.05515
21
1.25776
0
LINE
8
BLACK
6
CONTINUOUS
10
5.05515
20
1.25776
11
5.05524
21
1.25797
0
LINE
8
BLACK
6
CONTINUOUS
10
5.05524
20
1.25797
11
5.05545
21
1.25806
0
LINE
8
BLACK
6
CONTINUOUS
10
5.05545
20
1.25806
11
5.05626
21
1.25806
0
LINE
8
BLACK
6
CONTINUOUS
10
5.05626
20
1.25806
11
5.05647
21
1.25797
0
LINE
8
BLACK
6
CONTINUOUS
10
5.05647
20
1.25797
11
5.05656
21
1.25776
0
CIRCLE
8
BLACK
10
6.63268
20
-8.02942
40
0.00787402
0
CIRCLE
8
BLACK
10
7.03268
20
-8.17942
40
0.00787402
0
CIRCLE
8
BLACK
10
6.5122
20
-7.1558
40
0.00787402
0
CIRCLE
8
BLACK
10
6.7185
20
-6.14654
40
0.00787402
0
CIRCLE
8
BLACK
10
6.7185
20
-5.99546
40
0.00787402
0
CIRCLE
8
BLACK
10
6.7122
20
-7.0058
40
0.00787402
0
CIRCLE
8
BLACK
10
6.43268
20
-8.17942
40
0.00787402
0
CIRCLE
8
BLACK
10
7.1122
20
-7.1558
40
0.00787402
0
CIRCLE
8
BLACK
10
6.43268
20
-8.02942
40
0.00787402
0
CIRCLE
8
BLACK
10
6.3122
20
-7.0058
40
0.00787402
0
CIRCLE
8
BLACK
10
6.9122
20
-7.0058
40
0.00787402
0
CIRCLE
8
BLACK
10
6.9122
20
-7.1558
40
0.00787402
0
CIRCLE
8
BLACK
10
6.7122
20
-7.1558
40
0.00787402
0
CIRCLE
8
BLACK
10
6.83268
20
-8.02942
40
0.00787402
0
CIRCLE
8
BLACK
10
7.03268
20
-8.02942
40
0.00787402
0
CIRCLE
8
BLACK
10
6.5122
20
-7.0058
40
0.00787402
0
CIRCLE
8
BLACK
10
6.83268
20
-8.17942
40
0.00787402
0
CIRCLE
8
BLACK
10
6.63091
20
-8.17942
40
0.00787402
0
CIRCLE
8
BLACK
10
7.1122
20
-7.0058
40
0.00787402
0
CIRCLE
8
BLACK
10
6.3122
20
-7.1558
40
0.00787402
  0
ENDSEC
  0
EOF
