<?xml version="1.0" standalone="no"?>
 <!DOCTYPE svg PUBLIC "-//W3C//DTD SVG 1.1//EN" 
 "http://www.w3.org/Graphics/SVG/1.1/DTD/svg11.dtd"> 
<svg
  xmlns:svg="http://www.w3.org/2000/svg"
  xmlns="http://www.w3.org/2000/svg"
  xmlns:xlink="http://www.w3.org/1999/xlink"
  version="1.1"
  width="29.700220cm" height="41.998900cm" viewBox="0 0 297002200 419989000">
<title>SVG Picture created as iflfu-bottom-F_Cu.svg date 2022/05/11 10:24:38 </title>
  <desc>Picture generated by PCBNEW </desc>
<g style="fill:#000000; fill-opacity:1.000000;stroke:#000000; stroke-opacity:1.000000;
stroke-linecap:round; stroke-linejoin:round;"
 transform="translate(0 0) scale(1 1)">
</g>
<g style="fill:#000000; fill-opacity:0.0; 
stroke:#000000; stroke-width:0.000000; stroke-opacity:1; 
stroke-linecap:round; stroke-linejoin:round;">
</g>
<g style="fill:#000000; fill-opacity:0.0; 
stroke:#000000; stroke-width:15000.000000; stroke-opacity:1; 
stroke-linecap:round; stroke-linejoin:round;">
<text x="127747784.000000" y="-31890067.000000"
textLength="709286.000000" font-size="144000.000000" lengthAdjust="spacingAndGlyphs"
text-anchor="start" opacity="0">FUCKING</text>
<g class="stroked-text"><desc>FUCKING</desc>
<path d="M127819248 -31958638
L127783248 -31958638
" />
<path d="M127783248 -31895781
L127783248 -32015781
L127834676 -32015781
" />
<path d="M127875819 -32015781
L127875819 -31918638
L127880962 -31907209
L127886105 -31901495
L127896391 -31895781
L127916962 -31895781
L127927248 -31901495
L127932391 -31907209
L127937534 -31918638
L127937534 -32015781
" />
<path d="M128050676 -31907209
L128045534 -31901495
L128030105 -31895781
L128019819 -31895781
L128004391 -31901495
L127994105 -31912924
L127988962 -31924352
L127983819 -31947209
L127983819 -31964352
L127988962 -31987209
L127994105 -31998638
L128004391 -32010067
L128019819 -32015781
L128030105 -32015781
L128045534 -32010067
L128050676 -32004352
" />
<path d="M128096962 -31895781
L128096962 -32015781
" />
<path d="M128158676 -31895781
L128112391 -31964352
" />
<path d="M128158676 -32015781
L128096962 -31947209
" />
<path d="M128204962 -31895781
L128204962 -32015781
" />
<path d="M128256391 -31895781
L128256391 -32015781
L128318105 -31895781
L128318105 -32015781
" />
<path d="M128426105 -32010067
L128415819 -32015781
L128400391 -32015781
L128384962 -32010067
L128374676 -31998638
L128369534 -31987209
L128364391 -31964352
L128364391 -31947209
L128369534 -31924352
L128374676 -31912924
L128384962 -31901495
L128400391 -31895781
L128410676 -31895781
L128426105 -31901495
L128431248 -31907209
L128431248 -31947209
L128410676 -31947209
" />
</g><text x="119038852.000000" y="-31828274.000000"
textLength="153214.000000" font-size="144000.000000" lengthAdjust="spacingAndGlyphs"
text-anchor="start" opacity="0">I </text>
<g class="stroked-text"><desc>I </desc>
<path d="M119074316 -31833988
L119074316 -31953988
" />
</g><g >
</g>
<g >
</g>
<g >
</g>
<g style="fill:#000000; fill-opacity:0.0; 
stroke:#000000; stroke-width:15000.000000; stroke-opacity:1; 
stroke-linecap:round; stroke-linejoin:round;">
</g>
<g style="fill:#000000; fill-opacity:1.0; 
stroke:#000000; stroke-width:1.000000; stroke-opacity:1; 
stroke-linecap:round; stroke-linejoin:round;">
<circle cx="183750000.000000" cy="202834717.000000" r="1270000.000000" /> 
</g>
<g style="fill:#000000; fill-opacity:1.0; 
stroke:#000000; stroke-width:21200.000000; stroke-opacity:1; 
stroke-linecap:round; stroke-linejoin:round;">
</g>
<g >
</g>
<g >
</g>
<g >
</g>
<g style="fill:#000000; fill-opacity:1.0; 
stroke:#000000; stroke-width:21200.000000; stroke-opacity:1; 
stroke-linecap:round; stroke-linejoin:round;">
</g>
<g style="fill:#000000; fill-opacity:1.0; 
stroke:#000000; stroke-width:1.000000; stroke-opacity:1; 
stroke-linecap:round; stroke-linejoin:round;">
<circle cx="183750000.000000" cy="209834717.000000" r="1270000.000000" /> 
</g>
<g style="fill:#000000; fill-opacity:1.0; 
stroke:#000000; stroke-width:21200.000000; stroke-opacity:1; 
stroke-linecap:round; stroke-linejoin:round;">
</g>
<g >
</g>
<g >
</g>
<g >
</g>
<g >
</g>
<g >
</g>
<g >
</g>
<g >
</g>
<g >
</g>
<g >
</g>
<g >
</g>
<g >
</g>
<g >
</g>
<g >
</g>
<g >
</g>
<g >
</g>
<g >
</g>
<g >
</g>
<g >
</g>
<g >
</g>
<g >
</g>
<g >
</g>
<g >
</g>
<g >
</g>
<g >
</g>
<g >
</g>
<g >
</g>
<g >
</g>
<g style="fill:#000000; fill-opacity:1.0; 
stroke:#000000; stroke-width:21200.000000; stroke-opacity:1; 
stroke-linecap:round; stroke-linejoin:round;">
</g>
<g style="fill:#000000; fill-opacity:1.0; 
stroke:#000000; stroke-width:1.000000; stroke-opacity:1; 
stroke-linecap:round; stroke-linejoin:round;">
<circle cx="156450000.000000" cy="200769717.000000" r="1270000.000000" /> 
</g>
<g style="fill:#000000; fill-opacity:1.0; 
stroke:#000000; stroke-width:21200.000000; stroke-opacity:1; 
stroke-linecap:round; stroke-linejoin:round;">
</g>
<g >
</g>
<g >
</g>
<g >
</g>
<g >
</g>
<g >
</g>
<g >
</g>
<g style="fill:#000000; fill-opacity:1.0; 
stroke:#000000; stroke-width:21200.000000; stroke-opacity:1; 
stroke-linecap:round; stroke-linejoin:round;">
</g>
<g style="fill:#000000; fill-opacity:1.0; 
stroke:#000000; stroke-width:1.000000; stroke-opacity:1; 
stroke-linecap:round; stroke-linejoin:round;">
<circle cx="145750000.000000" cy="197834717.000000" r="1270000.000000" /> 
</g>
<g style="fill:#000000; fill-opacity:1.0; 
stroke:#000000; stroke-width:21200.000000; stroke-opacity:1; 
stroke-linecap:round; stroke-linejoin:round;">
</g>
<g >
</g>
<g style="fill:#000000; fill-opacity:1.0; 
stroke:#000000; stroke-width:21200.000000; stroke-opacity:1; 
stroke-linecap:round; stroke-linejoin:round;">
</g>
<g style="fill:#000000; fill-opacity:1.0; 
stroke:#000000; stroke-width:1.000000; stroke-opacity:1; 
stroke-linecap:round; stroke-linejoin:round;">
<circle cx="145750000.000000" cy="149204717.000000" r="1270000.000000" /> 
</g>
<g style="fill:#000000; fill-opacity:1.0; 
stroke:#000000; stroke-width:21200.000000; stroke-opacity:1; 
stroke-linecap:round; stroke-linejoin:round;">
</g>
<g >
</g>
<g >
</g>
<g >
</g>
<g style="fill:#000000; fill-opacity:1.0; 
stroke:#000000; stroke-width:21200.000000; stroke-opacity:1; 
stroke-linecap:round; stroke-linejoin:round;">
</g>
<g style="fill:#000000; fill-opacity:1.0; 
stroke:#000000; stroke-width:1.000000; stroke-opacity:1; 
stroke-linecap:round; stroke-linejoin:round;">
<circle cx="194450000.000000" cy="197934717.000000" r="1270000.000000" /> 
</g>
<g style="fill:#000000; fill-opacity:1.0; 
stroke:#000000; stroke-width:21200.000000; stroke-opacity:1; 
stroke-linecap:round; stroke-linejoin:round;">
</g>
<g >
</g>
<g >
</g>
<g style="fill:#000000; fill-opacity:1.0; 
stroke:#000000; stroke-width:21200.000000; stroke-opacity:1; 
stroke-linecap:round; stroke-linejoin:round;">
</g>
<g style="fill:#000000; fill-opacity:1.0; 
stroke:#000000; stroke-width:1.000000; stroke-opacity:1; 
stroke-linecap:round; stroke-linejoin:round;">
<circle cx="189500000.000000" cy="199034717.000000" r="1270000.000000" /> 
</g>
<g style="fill:#000000; fill-opacity:1.0; 
stroke:#000000; stroke-width:21200.000000; stroke-opacity:1; 
stroke-linecap:round; stroke-linejoin:round;">
</g>
<g >
</g>
<g style="fill:#000000; fill-opacity:1.0; 
stroke:#000000; stroke-width:21200.000000; stroke-opacity:1; 
stroke-linecap:round; stroke-linejoin:round;">
</g>
<g style="fill:#000000; fill-opacity:1.0; 
stroke:#000000; stroke-width:1.000000; stroke-opacity:1; 
stroke-linecap:round; stroke-linejoin:round;">
<circle cx="194450000.000000" cy="148934717.000000" r="1270000.000000" /> 
</g>
<g style="fill:#000000; fill-opacity:1.0; 
stroke:#000000; stroke-width:21200.000000; stroke-opacity:1; 
stroke-linecap:round; stroke-linejoin:round;">
</g>
<g >
</g>
<g >
</g>
<g >
</g>
<g >
</g>
<g >
</g>
<g >
</g>
<g >
</g>
<g >
</g>
<g >
</g>
<g >
</g>
<g >
</g>
<g style="fill:#000000; fill-opacity:1.0; 
stroke:#000000; stroke-width:21200.000000; stroke-opacity:1; 
stroke-linecap:round; stroke-linejoin:round;">
</g>
<g style="fill:#000000; fill-opacity:1.0; 
stroke:#000000; stroke-width:1.000000; stroke-opacity:1; 
stroke-linecap:round; stroke-linejoin:round;">
<circle cx="156450000.000000" cy="208634717.000000" r="1270000.000000" /> 
</g>
<g style="fill:#000000; fill-opacity:1.0; 
stroke:#000000; stroke-width:21200.000000; stroke-opacity:1; 
stroke-linecap:round; stroke-linejoin:round;">
</g>
<g >
</g>
<g >
</g>
<g >
</g>
<g >
</g>
<g >
</g>
<g >
</g>
<g >
</g>
<g >
</g>
<g >
</g>
<g style="fill:#000000; fill-opacity:1.0; 
stroke:#000000; stroke-width:21200.000000; stroke-opacity:1; 
stroke-linecap:round; stroke-linejoin:round;">
</g>
<g style="fill:#000000; fill-opacity:1.0; 
stroke:#000000; stroke-width:1.000000; stroke-opacity:1; 
stroke-linecap:round; stroke-linejoin:round;">
<circle cx="168470000.000000" cy="203947217.000000" r="400000.000000" /> 
</g>
<g style="fill:#000000; fill-opacity:1.0; 
stroke:#000000; stroke-width:21200.000000; stroke-opacity:1; 
stroke-linecap:round; stroke-linejoin:round;">
</g>
<g style="fill:#000000; fill-opacity:1.0; 
stroke:#000000; stroke-width:1.000000; stroke-opacity:1; 
stroke-linecap:round; stroke-linejoin:round;">
<circle cx="178630000.000000" cy="207757217.000000" r="400000.000000" /> 
</g>
<g style="fill:#000000; fill-opacity:1.0; 
stroke:#000000; stroke-width:21200.000000; stroke-opacity:1; 
stroke-linecap:round; stroke-linejoin:round;">
</g>
<g style="fill:#000000; fill-opacity:1.0; 
stroke:#000000; stroke-width:1.000000; stroke-opacity:1; 
stroke-linecap:round; stroke-linejoin:round;">
<circle cx="165410000.000000" cy="181757217.000000" r="400000.000000" /> 
</g>
<g style="fill:#000000; fill-opacity:1.0; 
stroke:#000000; stroke-width:21200.000000; stroke-opacity:1; 
stroke-linecap:round; stroke-linejoin:round;">
</g>
<g style="fill:#000000; fill-opacity:1.0; 
stroke:#000000; stroke-width:1.000000; stroke-opacity:1; 
stroke-linecap:round; stroke-linejoin:round;">
<circle cx="170650000.000000" cy="156122217.000000" r="400000.000000" /> 
</g>
<g style="fill:#000000; fill-opacity:1.0; 
stroke:#000000; stroke-width:21200.000000; stroke-opacity:1; 
stroke-linecap:round; stroke-linejoin:round;">
</g>
<g style="fill:#000000; fill-opacity:1.0; 
stroke:#000000; stroke-width:1.000000; stroke-opacity:1; 
stroke-linecap:round; stroke-linejoin:round;">
<circle cx="170650000.000000" cy="152284717.000000" r="400000.000000" /> 
</g>
<g style="fill:#000000; fill-opacity:1.0; 
stroke:#000000; stroke-width:21200.000000; stroke-opacity:1; 
stroke-linecap:round; stroke-linejoin:round;">
</g>
<g style="fill:#000000; fill-opacity:1.0; 
stroke:#000000; stroke-width:1.000000; stroke-opacity:1; 
stroke-linecap:round; stroke-linejoin:round;">
<circle cx="170490000.000000" cy="177947217.000000" r="400000.000000" /> 
</g>
<g style="fill:#000000; fill-opacity:1.0; 
stroke:#000000; stroke-width:21200.000000; stroke-opacity:1; 
stroke-linecap:round; stroke-linejoin:round;">
</g>
<g style="fill:#000000; fill-opacity:1.0; 
stroke:#000000; stroke-width:1.000000; stroke-opacity:1; 
stroke-linecap:round; stroke-linejoin:round;">
<circle cx="163390000.000000" cy="207757217.000000" r="400000.000000" /> 
</g>
<g style="fill:#000000; fill-opacity:1.0; 
stroke:#000000; stroke-width:21200.000000; stroke-opacity:1; 
stroke-linecap:round; stroke-linejoin:round;">
</g>
<g style="fill:#000000; fill-opacity:1.0; 
stroke:#000000; stroke-width:1.000000; stroke-opacity:1; 
stroke-linecap:round; stroke-linejoin:round;">
<circle cx="180650000.000000" cy="181757217.000000" r="400000.000000" /> 
</g>
<g style="fill:#000000; fill-opacity:1.0; 
stroke:#000000; stroke-width:21200.000000; stroke-opacity:1; 
stroke-linecap:round; stroke-linejoin:round;">
</g>
<g style="fill:#000000; fill-opacity:1.0; 
stroke:#000000; stroke-width:1.000000; stroke-opacity:1; 
stroke-linecap:round; stroke-linejoin:round;">
<circle cx="163390000.000000" cy="203947217.000000" r="400000.000000" /> 
</g>
<g style="fill:#000000; fill-opacity:1.0; 
stroke:#000000; stroke-width:21200.000000; stroke-opacity:1; 
stroke-linecap:round; stroke-linejoin:round;">
</g>
<g style="fill:#000000; fill-opacity:1.0; 
stroke:#000000; stroke-width:1.000000; stroke-opacity:1; 
stroke-linecap:round; stroke-linejoin:round;">
<circle cx="160330000.000000" cy="177947217.000000" r="400000.000000" /> 
</g>
<g style="fill:#000000; fill-opacity:1.0; 
stroke:#000000; stroke-width:21200.000000; stroke-opacity:1; 
stroke-linecap:round; stroke-linejoin:round;">
</g>
<g style="fill:#000000; fill-opacity:1.0; 
stroke:#000000; stroke-width:1.000000; stroke-opacity:1; 
stroke-linecap:round; stroke-linejoin:round;">
<circle cx="175570000.000000" cy="177947217.000000" r="400000.000000" /> 
</g>
<g style="fill:#000000; fill-opacity:1.0; 
stroke:#000000; stroke-width:21200.000000; stroke-opacity:1; 
stroke-linecap:round; stroke-linejoin:round;">
</g>
<g style="fill:#000000; fill-opacity:1.0; 
stroke:#000000; stroke-width:1.000000; stroke-opacity:1; 
stroke-linecap:round; stroke-linejoin:round;">
<circle cx="175570000.000000" cy="181757217.000000" r="400000.000000" /> 
</g>
<g style="fill:#000000; fill-opacity:1.0; 
stroke:#000000; stroke-width:21200.000000; stroke-opacity:1; 
stroke-linecap:round; stroke-linejoin:round;">
</g>
<g style="fill:#000000; fill-opacity:1.0; 
stroke:#000000; stroke-width:1.000000; stroke-opacity:1; 
stroke-linecap:round; stroke-linejoin:round;">
<circle cx="170490000.000000" cy="181757217.000000" r="400000.000000" /> 
</g>
<g style="fill:#000000; fill-opacity:1.0; 
stroke:#000000; stroke-width:21200.000000; stroke-opacity:1; 
stroke-linecap:round; stroke-linejoin:round;">
</g>
<g style="fill:#000000; fill-opacity:1.0; 
stroke:#000000; stroke-width:1.000000; stroke-opacity:1; 
stroke-linecap:round; stroke-linejoin:round;">
<circle cx="173550000.000000" cy="203947217.000000" r="400000.000000" /> 
</g>
<g style="fill:#000000; fill-opacity:1.0; 
stroke:#000000; stroke-width:21200.000000; stroke-opacity:1; 
stroke-linecap:round; stroke-linejoin:round;">
</g>
<g style="fill:#000000; fill-opacity:1.0; 
stroke:#000000; stroke-width:1.000000; stroke-opacity:1; 
stroke-linecap:round; stroke-linejoin:round;">
<circle cx="178630000.000000" cy="203947217.000000" r="400000.000000" /> 
</g>
<g style="fill:#000000; fill-opacity:1.0; 
stroke:#000000; stroke-width:21200.000000; stroke-opacity:1; 
stroke-linecap:round; stroke-linejoin:round;">
</g>
<g style="fill:#000000; fill-opacity:1.0; 
stroke:#000000; stroke-width:1.000000; stroke-opacity:1; 
stroke-linecap:round; stroke-linejoin:round;">
<circle cx="165410000.000000" cy="177947217.000000" r="400000.000000" /> 
</g>
<g style="fill:#000000; fill-opacity:1.0; 
stroke:#000000; stroke-width:21200.000000; stroke-opacity:1; 
stroke-linecap:round; stroke-linejoin:round;">
</g>
<g style="fill:#000000; fill-opacity:1.0; 
stroke:#000000; stroke-width:1.000000; stroke-opacity:1; 
stroke-linecap:round; stroke-linejoin:round;">
<circle cx="173550000.000000" cy="207757217.000000" r="400000.000000" /> 
</g>
<g style="fill:#000000; fill-opacity:1.0; 
stroke:#000000; stroke-width:21200.000000; stroke-opacity:1; 
stroke-linecap:round; stroke-linejoin:round;">
</g>
<g style="fill:#000000; fill-opacity:1.0; 
stroke:#000000; stroke-width:1.000000; stroke-opacity:1; 
stroke-linecap:round; stroke-linejoin:round;">
<circle cx="168425000.000000" cy="207757217.000000" r="400000.000000" /> 
</g>
<g style="fill:#000000; fill-opacity:1.0; 
stroke:#000000; stroke-width:21200.000000; stroke-opacity:1; 
stroke-linecap:round; stroke-linejoin:round;">
</g>
<g style="fill:#000000; fill-opacity:1.0; 
stroke:#000000; stroke-width:1.000000; stroke-opacity:1; 
stroke-linecap:round; stroke-linejoin:round;">
<circle cx="180650000.000000" cy="177947217.000000" r="400000.000000" /> 
</g>
<g style="fill:#000000; fill-opacity:1.0; 
stroke:#000000; stroke-width:21200.000000; stroke-opacity:1; 
stroke-linecap:round; stroke-linejoin:round;">
</g>
<g style="fill:#000000; fill-opacity:1.0; 
stroke:#000000; stroke-width:1.000000; stroke-opacity:1; 
stroke-linecap:round; stroke-linejoin:round;">
<circle cx="160330000.000000" cy="181757217.000000" r="400000.000000" /> 
</g>
<g style="fill:#000000; fill-opacity:1.0; 
stroke:#000000; stroke-width:21200.000000; stroke-opacity:1; 
stroke-linecap:round; stroke-linejoin:round;">
</g>
<g >
</g>
<g >
</g>
<g style="fill:#000000; fill-opacity:1.0; 
stroke:#000000; stroke-width:21200.000000; stroke-opacity:1; 
stroke-linecap:round; stroke-linejoin:round;">
<g >
</g>
<g style="fill:#000000; fill-opacity:1.0; 
stroke:#000000; stroke-width:1.000000; stroke-opacity:1; 
stroke-linecap:round; stroke-linejoin:round;">
<path style="fill:#000000; fill-opacity:1.0; 
stroke:#000000; stroke-width:1.000000; stroke-opacity:1; 
stroke-linecap:round; stroke-linejoin:round;fill-rule:evenodd;"
d="M 194596073.000000,146938644.000000
194599500.000000,146946917.000000
194599500.000000,147454011.000000
194596073.000000,147462284.000000
194587657.000000,147465710.000000
194432894.000000,147463820.000000
194347072.000000,147462771.000000
194108047.000000,147499347.000000
193878205.000000,147574471.000000
193663720.000000,147686125.000000
193470350.000000,147831311.000000
193470021.000000,147831656.000000
193470018.000000,147831658.000000
193447163.000000,147855575.000000
193303290.000000,148006130.000000
193167025.000000,148205886.000000
193166822.000000,148206323.000000
193166821.000000,148206325.000000
193120637.000000,148305822.000000
193065216.000000,148425216.000000
193065088.000000,148425678.000000
193065086.000000,148425683.000000
193006033.000000,148638624.000000
193000596.000000,148658228.000000
193000545.000000,148658702.000000
193000545.000000,148658704.000000
192992723.000000,148731893.000000
192974900.000000,148898666.000000
192988820.000000,149140072.000000
193041980.000000,149375964.000000
193132954.000000,149600005.000000
193259298.000000,149806179.000000
193417619.000000,149988950.000000
193603665.000000,150143409.000000
193812440.000000,150265407.000000
194038337.000000,150351669.000000
194275290.000000,150399877.000000
194275771.000000,150399895.000000
194275774.000000,150399895.000000
194380825.000000,150403747.000000
194516935.000000,150408738.000000
194517410.000000,150408677.000000
194517414.000000,150408677.000000
194553877.000000,150404006.000000
194586314.000000,150399850.000000
194594955.000000,150402198.000000
194599405.000000,150409968.000000
194599500.000000,150411455.000000
194599500.000000,196454011.000000
194596073.000000,196462284.000000
194587657.000000,196465710.000000
194432894.000000,196463820.000000
194347072.000000,196462771.000000
194108047.000000,196499347.000000
193878205.000000,196574471.000000
193740665.000000,196646070.000000
193695188.000000,196669744.000000
193663720.000000,196686125.000000
193470350.000000,196831311.000000
193470021.000000,196831656.000000
193470018.000000,196831658.000000
193447163.000000,196855575.000000
193303290.000000,197006130.000000
193167025.000000,197205886.000000
193166822.000000,197206323.000000
193166821.000000,197206325.000000
193094206.000000,197362763.000000
193065216.000000,197425216.000000
193065088.000000,197425678.000000
193065086.000000,197425683.000000
193014513.000000,197608045.000000
193000596.000000,197658228.000000
193000545.000000,197658702.000000
193000545.000000,197658704.000000
192986951.000000,197785901.000000
192974900.000000,197898666.000000
192988820.000000,198140072.000000
193041980.000000,198375964.000000
193042163.000000,198376414.000000
193042163.000000,198376415.000000
193116206.000000,198558760.000000
193132954.000000,198600005.000000
193133206.000000,198600416.000000
193251382.000000,198793261.000000
193259298.000000,198806179.000000
193417619.000000,198988950.000000
193417984.000000,198989253.000000
193417985.000000,198989254.000000
193567657.000000,199113515.000000
193571833.000000,199121436.000000
193569185.000000,199129991.000000
193561264.000000,199134167.000000
193560183.000000,199134217.000000
190983509.000000,199134217.000000
190975236.000000,199130790.000000
190971809.000000,199122517.000000
190971908.000000,199120997.000000
190973778.000000,199106797.000000
190975540.000000,199034717.000000
190955727.000000,198793723.000000
190896819.000000,198559201.000000
190800398.000000,198337449.000000
190669055.000000,198134423.000000
190506316.000000,197955575.000000
190475593.000000,197931311.000000
190355367.000000,197836363.000000
190316551.000000,197805708.000000
190316138.000000,197805480.000000
190316135.000000,197805478.000000
190105279.000000,197689079.000000
190105275.000000,197689077.000000
190104858.000000,197688847.000000
190104410.000000,197688688.000000
190104407.000000,197688687.000000
189877375.000000,197608291.000000
189877374.000000,197608291.000000
189876920.000000,197608130.000000
189876450.000000,197608046.000000
189876445.000000,197608045.000000
189639327.000000,197565808.000000
189638861.000000,197565725.000000
189638387.000000,197565719.000000
189638385.000000,197565719.000000
189509432.000000,197564144.000000
189397072.000000,197562771.000000
189158047.000000,197599347.000000
188928205.000000,197674471.000000
188713720.000000,197786125.000000
188520350.000000,197931311.000000
188520021.000000,197931656.000000
188520018.000000,197931658.000000
188448214.000000,198006797.000000
188353290.000000,198106130.000000
188217025.000000,198305886.000000
188216822.000000,198306323.000000
188216821.000000,198306325.000000
188184287.000000,198376415.000000
188115216.000000,198525216.000000
188115088.000000,198525678.000000
188115086.000000,198525683.000000
188057624.000000,198732887.000000
188050596.000000,198758228.000000
188050545.000000,198758702.000000
188050545.000000,198758704.000000
188036402.000000,198891044.000000
188024900.000000,198998666.000000
188031980.000000,199121436.000000
188032003.000000,199121843.000000
188029058.000000,199130300.000000
188020322.000000,199134217.000000
183900099.000000,199134217.000000
183900000.000000,199134176.000000
183899901.000000,199134217.000000
183899617.000000,199134334.000000
183899459.000000,199134717.000000
183899500.000000,199134816.000000
183899500.000000,201354011.000000
183896073.000000,201362284.000000
183887657.000000,201365710.000000
183732894.000000,201363820.000000
183647072.000000,201362771.000000
183408047.000000,201399347.000000
183178205.000000,201474471.000000
182963720.000000,201586125.000000
182770350.000000,201731311.000000
182603290.000000,201906130.000000
182467025.000000,202105886.000000
182466822.000000,202106323.000000
182466821.000000,202106325.000000
182403037.000000,202243738.000000
182365216.000000,202325216.000000
182300596.000000,202558228.000000
182300545.000000,202558702.000000
182300545.000000,202558704.000000
182274950.000000,202798198.000000
182274900.000000,202798666.000000
182288820.000000,203040072.000000
182341980.000000,203275964.000000
182432954.000000,203500005.000000
182559298.000000,203706179.000000
182717619.000000,203888950.000000
182903665.000000,204043409.000000
183112440.000000,204165407.000000
183338337.000000,204251669.000000
183575290.000000,204299877.000000
183575771.000000,204299895.000000
183575774.000000,204299895.000000
183680825.000000,204303747.000000
183816935.000000,204308738.000000
183817410.000000,204308677.000000
183817414.000000,204308677.000000
183853877.000000,204304006.000000
183886314.000000,204299850.000000
183894955.000000,204302198.000000
183899405.000000,204309968.000000
183899500.000000,204311455.000000
183899500.000000,208354011.000000
183896073.000000,208362284.000000
183887657.000000,208365710.000000
183732894.000000,208363820.000000
183647072.000000,208362771.000000
183408047.000000,208399347.000000
183178205.000000,208474471.000000
182963720.000000,208586125.000000
182770350.000000,208731311.000000
182603290.000000,208906130.000000
182467025.000000,209105886.000000
182466822.000000,209106323.000000
182466821.000000,209106325.000000
182433808.000000,209177447.000000
182365216.000000,209325216.000000
182365088.000000,209325678.000000
182365086.000000,209325683.000000
182345953.000000,209394676.000000
182300596.000000,209558228.000000
182300545.000000,209558702.000000
182300545.000000,209558704.000000
182278818.000000,209762005.000000
182274900.000000,209798666.000000
182288820.000000,210040072.000000
182341980.000000,210275964.000000
182432954.000000,210500005.000000
182559298.000000,210706179.000000
182717619.000000,210888950.000000
182903665.000000,211043409.000000
183112440.000000,211165407.000000
183338337.000000,211251669.000000
183575290.000000,211299877.000000
183575771.000000,211299895.000000
183575774.000000,211299895.000000
183680825.000000,211303747.000000
183816935.000000,211308738.000000
183817410.000000,211308677.000000
183817414.000000,211308677.000000
183853877.000000,211304006.000000
183886314.000000,211299850.000000
183894955.000000,211302198.000000
183899405.000000,211309968.000000
183899500.000000,211311455.000000
183899500.000000,211922517.000000
183896073.000000,211930790.000000
183887800.000000,211934217.000000
156312200.000000,211934217.000000
156303927.000000,211930790.000000
156300500.000000,211922517.000000
156300500.000000,210112938.000000
156303927.000000,210104665.000000
156312629.000000,210101246.000000
156393003.000000,210104193.000000
156516935.000000,210108738.000000
156517410.000000,210108677.000000
156517414.000000,210108677.000000
156756307.000000,210078074.000000
156756309.000000,210078074.000000
156756782.000000,210078013.000000
156988390.000000,210008527.000000
157205540.000000,209902147.000000
157287888.000000,209843409.000000
157402013.000000,209762005.000000
157402018.000000,209762001.000000
157402399.000000,209761729.000000
157573680.000000,209591044.000000
157714785.000000,209394676.000000
157821922.000000,209177900.000000
157852893.000000,209075964.000000
157892077.000000,208946991.000000
157892216.000000,208946535.000000
157923778.000000,208706797.000000
157925540.000000,208634717.000000
157905727.000000,208393723.000000
157846819.000000,208159201.000000
157750398.000000,207937449.000000
157619055.000000,207734423.000000
157456316.000000,207555575.000000
157425593.000000,207531311.000000
157383300.000000,207497911.000000
157266551.000000,207405708.000000
157266138.000000,207405480.000000
157266135.000000,207405478.000000
157055279.000000,207289079.000000
157055275.000000,207289077.000000
157054858.000000,207288847.000000
157054410.000000,207288688.000000
157054407.000000,207288687.000000
156827375.000000,207208291.000000
156827374.000000,207208291.000000
156826920.000000,207208130.000000
156826450.000000,207208046.000000
156826445.000000,207208045.000000
156589327.000000,207165808.000000
156588861.000000,207165725.000000
156588387.000000,207165719.000000
156588385.000000,207165719.000000
156459432.000000,207164144.000000
156347072.000000,207162771.000000
156346604.000000,207162843.000000
156346598.000000,207162843.000000
156327919.000000,207165702.000000
156313969.000000,207167837.000000
156305274.000000,207165702.000000
156300635.000000,207158042.000000
156300500.000000,207156272.000000
156300500.000000,202247938.000000
156303927.000000,202239665.000000
156312629.000000,202236246.000000
156393003.000000,202239193.000000
156516935.000000,202243738.000000
156517410.000000,202243677.000000
156517414.000000,202243677.000000
156756307.000000,202213074.000000
156756309.000000,202213074.000000
156756782.000000,202213013.000000
156988390.000000,202143527.000000
157205540.000000,202037147.000000
157287888.000000,201978409.000000
157402013.000000,201897005.000000
157402018.000000,201897001.000000
157402399.000000,201896729.000000
157544046.000000,201755575.000000
157573344.000000,201726379.000000
157573345.000000,201726378.000000
157573680.000000,201726044.000000
157714785.000000,201529676.000000
157821922.000000,201312900.000000
157852893.000000,201210964.000000
157892077.000000,201081991.000000
157892216.000000,201081535.000000
157923778.000000,200841797.000000
157925540.000000,200769717.000000
157905727.000000,200528723.000000
157892990.000000,200478013.000000
157846936.000000,200294667.000000
157846819.000000,200294201.000000
157750398.000000,200072449.000000
157619055.000000,199869423.000000
157456316.000000,199690575.000000
157425593.000000,199666311.000000
157313644.000000,199577900.000000
157266551.000000,199540708.000000
157266138.000000,199540480.000000
157266135.000000,199540478.000000
157055279.000000,199424079.000000
157055275.000000,199424077.000000
157054858.000000,199423847.000000
157054410.000000,199423688.000000
157054407.000000,199423687.000000
156827375.000000,199343291.000000
156827374.000000,199343291.000000
156826920.000000,199343130.000000
156826450.000000,199343046.000000
156826445.000000,199343045.000000
156589327.000000,199300808.000000
156588861.000000,199300725.000000
156588387.000000,199300719.000000
156588385.000000,199300719.000000
156459432.000000,199299144.000000
156347072.000000,199297771.000000
156346604.000000,199297843.000000
156346598.000000,199297843.000000
156327919.000000,199300702.000000
156313969.000000,199302837.000000
156305274.000000,199300702.000000
156300635.000000,199293042.000000
156300500.000000,199291272.000000
156300500.000000,199134816.000000
156300541.000000,199134717.000000
156300383.000000,199134334.000000
156300099.000000,199134217.000000
156300000.000000,199134176.000000
156299901.000000,199134217.000000
146587649.000000,199134217.000000
146579376.000000,199130790.000000
146575949.000000,199122517.000000
146579376.000000,199114244.000000
146581536.000000,199112541.000000
146648170.000000,199071708.000000
146648895.000000,199071181.000000
146732324.000000,198999927.000000
146733133.000000,198998340.000000
146732707.000000,198997030.000000
145603927.000000,197868249.000000
145600500.000000,197859976.000000
145600500.000000,197834717.000000
145930569.000000,197834717.000000
145931251.000000,197836363.000000
146912053.000000,198817164.000000
146913699.000000,198817846.000000
146914973.000000,198817318.000000
146986464.000000,198733612.000000
146986991.000000,198732887.000000
147111853.000000,198529130.000000
147112270.000000,198528310.000000
147203716.000000,198307541.000000
147203999.000000,198306671.000000
147259786.000000,198074303.000000
147259928.000000,198073405.000000
147278677.000000,197835174.000000
147278677.000000,197834260.000000
147259928.000000,197596029.000000
147259786.000000,197595131.000000
147203999.000000,197362763.000000
147203716.000000,197361893.000000
147112270.000000,197141124.000000
147111853.000000,197140304.000000
146986991.000000,196936547.000000
146986464.000000,196935822.000000
146915210.000000,196852393.000000
146913623.000000,196851584.000000
146912313.000000,196852010.000000
145931251.000000,197833071.000000
145930569.000000,197834717.000000
145600500.000000,197834717.000000
145600500.000000,197809458.000000
145603927.000000,197801185.000000
145750000.000000,197655112.000000
146732447.000000,196672664.000000
146733129.000000,196671018.000000
146732601.000000,196669744.000000
146648895.000000,196598253.000000
146648170.000000,196597726.000000
146444413.000000,196472864.000000
146443593.000000,196472447.000000
146222824.000000,196381001.000000
146221954.000000,196380718.000000
145989586.000000,196324931.000000
145988688.000000,196324789.000000
145750457.000000,196306040.000000
145749543.000000,196306040.000000
145613118.000000,196316777.000000
145604601.000000,196314010.000000
145600536.000000,196306031.000000
145600500.000000,196305113.000000
145600500.000000,150734321.000000
145603927.000000,150726048.000000
145612200.000000,150722621.000000
145613118.000000,150722657.000000
145749543.000000,150733394.000000
145750457.000000,150733394.000000
145988688.000000,150714645.000000
145989586.000000,150714503.000000
146221954.000000,150658716.000000
146222824.000000,150658433.000000
146443593.000000,150566987.000000
146444413.000000,150566570.000000
146648170.000000,150441708.000000
146648895.000000,150441181.000000
146732324.000000,150369927.000000
146733133.000000,150368340.000000
146732707.000000,150367030.000000
145603927.000000,149238249.000000
145600500.000000,149229976.000000
145600500.000000,149204717.000000
145930569.000000,149204717.000000
145931251.000000,149206363.000000
146912053.000000,150187164.000000
146913699.000000,150187846.000000
146914973.000000,150187318.000000
146986464.000000,150103612.000000
146986991.000000,150102887.000000
147111853.000000,149899130.000000
147112270.000000,149898310.000000
147203716.000000,149677541.000000
147203999.000000,149676671.000000
147259786.000000,149444303.000000
147259928.000000,149443405.000000
147278677.000000,149205174.000000
147278677.000000,149204260.000000
147259928.000000,148966029.000000
147259786.000000,148965131.000000
147203999.000000,148732763.000000
147203716.000000,148731893.000000
147112270.000000,148511124.000000
147111853.000000,148510304.000000
146986991.000000,148306547.000000
146986464.000000,148305822.000000
146915210.000000,148222393.000000
146913623.000000,148221584.000000
146912313.000000,148222010.000000
145931251.000000,149203071.000000
145930569.000000,149204717.000000
145600500.000000,149204717.000000
145600500.000000,149179458.000000
145603927.000000,149171185.000000
145750000.000000,149025112.000000
146732447.000000,148042664.000000
146733129.000000,148041018.000000
146732601.000000,148039744.000000
146648895.000000,147968253.000000
146648170.000000,147967726.000000
146444413.000000,147842864.000000
146443593.000000,147842447.000000
146222824.000000,147751001.000000
146221954.000000,147750718.000000
145989586.000000,147694931.000000
145988688.000000,147694789.000000
145750457.000000,147676040.000000
145749543.000000,147676040.000000
145613118.000000,147686777.000000
145604601.000000,147684010.000000
145600536.000000,147676031.000000
145600500.000000,147675113.000000
145600500.000000,146946917.000000
145603927.000000,146938644.000000
145612200.000000,146935217.000000
194587800.000000,146935217.000000
Z" /> 
</g>
</g>
</g> 
</svg>
