M48
; DRILL file {KiCad (6.0.2)} date Wed Jun  8 21:31:39 2022
; FORMAT={-:-/ absolute / metric / decimal}
; #@! TF.CreationDate,2022-06-08T21:31:39-07:00
; #@! TF.GenerationSoftware,Kicad,Pcbnew,(6.0.2)
; #@! TF.FileFunction,Plated,1,2,PTH
FMAT,2
METRIC
; #@! TA.AperFunction,Plated,PTH,ViaDrill
T1C0.400
; #@! TA.AperFunction,Plated,PTH,ComponentDrill
T2C1.270
%
G90
G05
T1
X147.4Y-149.235
X147.4Y-197.835
X158.1Y-208.635
X158.2Y-200.77
X160.33Y-177.947
X160.33Y-181.757
X163.39Y-203.947
X163.39Y-207.757
X165.41Y-177.947
X165.41Y-181.757
X168.425Y-207.757
X168.47Y-203.947
X170.49Y-177.947
X170.49Y-181.757
X170.65Y-152.285
X170.65Y-156.122
X173.55Y-203.947
X173.55Y-207.757
X175.57Y-177.947
X175.57Y-181.757
X178.63Y-203.947
X178.63Y-207.757
X180.65Y-177.947
X180.65Y-181.757
X182.1Y-209.835
X182.3Y-202.835
X189.5Y-197.335
X192.9Y-148.935
X192.9Y-197.935
T2
X145.75Y-149.205
X145.75Y-197.835
X156.45Y-200.77
X156.45Y-208.635
X183.75Y-202.835
X183.75Y-209.835
X189.5Y-199.035
X194.45Y-148.935
X194.45Y-197.935
T0
M30
