G04 #@! TF.GenerationSoftware,KiCad,Pcbnew,(6.0.2)*
G04 #@! TF.CreationDate,2022-06-08T21:31:36-07:00*
G04 #@! TF.ProjectId,iflfu-bottom,69666c66-752d-4626-9f74-746f6d2e6b69,rev?*
G04 #@! TF.SameCoordinates,Original*
G04 #@! TF.FileFunction,Paste,Bot*
G04 #@! TF.FilePolarity,Positive*
%FSLAX46Y46*%
G04 Gerber Fmt 4.6, Leading zero omitted, Abs format (unit mm)*
G04 Created by KiCad (PCBNEW (6.0.2)) date 2022-06-08 21:31:36*
%MOMM*%
%LPD*%
G01*
G04 APERTURE LIST*
G04 Aperture macros list*
%AMRoundRect*
0 Rectangle with rounded corners*
0 $1 Rounding radius*
0 $2 $3 $4 $5 $6 $7 $8 $9 X,Y pos of 4 corners*
0 Add a 4 corners polygon primitive as box body*
4,1,4,$2,$3,$4,$5,$6,$7,$8,$9,$2,$3,0*
0 Add four circle primitives for the rounded corners*
1,1,$1+$1,$2,$3*
1,1,$1+$1,$4,$5*
1,1,$1+$1,$6,$7*
1,1,$1+$1,$8,$9*
0 Add four rect primitives between the rounded corners*
20,1,$1+$1,$2,$3,$4,$5,0*
20,1,$1+$1,$4,$5,$6,$7,0*
20,1,$1+$1,$6,$7,$8,$9,0*
20,1,$1+$1,$8,$9,$2,$3,0*%
G04 Aperture macros list end*
%ADD10RoundRect,0.237500X0.287500X0.237500X-0.287500X0.237500X-0.287500X-0.237500X0.287500X-0.237500X0*%
G04 APERTURE END LIST*
D10*
X160395000Y-193544717D03*
X158645000Y-193544717D03*
X170655000Y-167734717D03*
X168905000Y-167734717D03*
X163415000Y-206644717D03*
X161665000Y-206644717D03*
X165475000Y-189734717D03*
X163725000Y-189734717D03*
X185795000Y-193544717D03*
X184045000Y-193544717D03*
X170515000Y-180644717D03*
X168765000Y-180644717D03*
X155415000Y-163924717D03*
X153665000Y-163924717D03*
X170655000Y-163924717D03*
X168905000Y-163924717D03*
X170555000Y-189734717D03*
X168805000Y-189734717D03*
X185895000Y-167734717D03*
X184145000Y-167734717D03*
X165435000Y-176834717D03*
X163685000Y-176834717D03*
X150335000Y-163924717D03*
X148585000Y-163924717D03*
X170675000Y-151034717D03*
X168925000Y-151034717D03*
X180675000Y-176834717D03*
X178925000Y-176834717D03*
X175735000Y-167734717D03*
X173985000Y-167734717D03*
X170555000Y-193544717D03*
X168805000Y-193544717D03*
X190975000Y-163924717D03*
X189225000Y-163924717D03*
X160355000Y-180644717D03*
X158605000Y-180644717D03*
X160395000Y-189734717D03*
X158645000Y-189734717D03*
X155315000Y-193544717D03*
X153565000Y-193544717D03*
X185795000Y-189734717D03*
X184045000Y-189734717D03*
X190875000Y-189734717D03*
X189125000Y-189734717D03*
X173575000Y-202834717D03*
X171825000Y-202834717D03*
X173575000Y-206644717D03*
X171825000Y-206644717D03*
X180815000Y-167734717D03*
X179065000Y-167734717D03*
X165435000Y-180644717D03*
X163685000Y-180644717D03*
X165575000Y-163924717D03*
X163825000Y-163924717D03*
X150235000Y-189734717D03*
X148485000Y-189734717D03*
X155415000Y-167734717D03*
X153665000Y-167734717D03*
X155315000Y-189734717D03*
X153565000Y-189734717D03*
X190975000Y-167734717D03*
X189225000Y-167734717D03*
X150335000Y-167734717D03*
X148585000Y-167734717D03*
X170515000Y-176834717D03*
X168765000Y-176834717D03*
X180815000Y-163924717D03*
X179065000Y-163924717D03*
X150235000Y-193544717D03*
X148485000Y-193544717D03*
X180715000Y-189734717D03*
X178965000Y-189734717D03*
X185895000Y-163924717D03*
X184145000Y-163924717D03*
X178655000Y-206644717D03*
X176905000Y-206644717D03*
X165475000Y-193544717D03*
X163725000Y-193544717D03*
X163415000Y-202834717D03*
X161665000Y-202834717D03*
X175635000Y-193544717D03*
X173885000Y-193544717D03*
X175735000Y-163924717D03*
X173985000Y-163924717D03*
X190875000Y-193544717D03*
X189125000Y-193544717D03*
X168495000Y-206644717D03*
X166745000Y-206644717D03*
X180715000Y-193544717D03*
X178965000Y-193544717D03*
X175635000Y-189734717D03*
X173885000Y-189734717D03*
X180675000Y-180644717D03*
X178925000Y-180644717D03*
X160495000Y-163924717D03*
X158745000Y-163924717D03*
X170675000Y-154844717D03*
X168925000Y-154844717D03*
X168495000Y-202834717D03*
X166745000Y-202834717D03*
X175595000Y-176834717D03*
X173845000Y-176834717D03*
X165575000Y-167734717D03*
X163825000Y-167734717D03*
X175595000Y-180644717D03*
X173845000Y-180644717D03*
X160355000Y-176834717D03*
X158605000Y-176834717D03*
X160495000Y-167734717D03*
X158745000Y-167734717D03*
X178655000Y-202834717D03*
X176905000Y-202834717D03*
M02*
