G04 #@! TF.GenerationSoftware,KiCad,Pcbnew,(6.0.2)*
G04 #@! TF.CreationDate,2022-06-03T10:10:03-07:00*
G04 #@! TF.ProjectId,iflfu-top,69666c66-752d-4746-9f70-2e6b69636164,rev?*
G04 #@! TF.SameCoordinates,Original*
G04 #@! TF.FileFunction,Legend,Top*
G04 #@! TF.FilePolarity,Positive*
%FSLAX46Y46*%
G04 Gerber Fmt 4.6, Leading zero omitted, Abs format (unit mm)*
G04 Created by KiCad (PCBNEW (6.0.2)) date 2022-06-03 10:10:03*
%MOMM*%
%LPD*%
G01*
G04 APERTURE LIST*
%ADD10C,0.150000*%
%ADD11C,1.000000*%
%ADD12R,1.700000X1.700000*%
%ADD13O,1.700000X1.700000*%
G04 APERTURE END LIST*
D10*
X148764166Y-39999300D02*
X148597500Y-40082633D01*
X148264166Y-40082633D01*
X148097500Y-39999300D01*
X148014166Y-39915967D01*
X147930833Y-39749300D01*
X147930833Y-39249300D01*
X148014166Y-39082633D01*
X148097500Y-38999300D01*
X148264166Y-38915967D01*
X148597500Y-38915967D01*
X148764166Y-38999300D01*
X150264166Y-40082633D02*
X150264166Y-38332633D01*
X150264166Y-39999300D02*
X150097500Y-40082633D01*
X149764166Y-40082633D01*
X149597500Y-39999300D01*
X149514166Y-39915967D01*
X149430833Y-39749300D01*
X149430833Y-39249300D01*
X149514166Y-39082633D01*
X149597500Y-38999300D01*
X149764166Y-38915967D01*
X150097500Y-38915967D01*
X150264166Y-38999300D01*
X152180833Y-39415967D02*
X152264166Y-39332633D01*
X152430833Y-39249300D01*
X152764166Y-39415967D01*
X152930833Y-39332633D01*
X153014166Y-39249300D01*
X153764166Y-39999300D02*
X153764166Y-40082633D01*
X153680833Y-40249300D01*
X153597500Y-40332633D01*
X153680833Y-38999300D02*
X153764166Y-39082633D01*
X153680833Y-39165967D01*
X153597500Y-39082633D01*
X153680833Y-38999300D01*
X153680833Y-39165967D01*
X156597500Y-38915967D02*
X156597500Y-40082633D01*
X155847500Y-38915967D02*
X155847500Y-39832633D01*
X155930833Y-39999300D01*
X156097500Y-40082633D01*
X156347500Y-40082633D01*
X156514166Y-39999300D01*
X156597500Y-39915967D01*
X157430833Y-38915967D02*
X157430833Y-40082633D01*
X157430833Y-39082633D02*
X157514166Y-38999300D01*
X157680833Y-38915967D01*
X157930833Y-38915967D01*
X158097500Y-38999300D01*
X158180833Y-39165967D01*
X158180833Y-40082633D01*
X158847500Y-38915967D02*
X159764166Y-38915967D01*
X158847500Y-40082633D01*
X159764166Y-40082633D01*
X160430833Y-40082633D02*
X160430833Y-38915967D01*
X160430833Y-38332633D02*
X160347500Y-38415967D01*
X160430833Y-38499300D01*
X160514166Y-38415967D01*
X160430833Y-38332633D01*
X160430833Y-38499300D01*
X161264166Y-38915967D02*
X161264166Y-40665967D01*
X161264166Y-38999300D02*
X161430833Y-38915967D01*
X161764166Y-38915967D01*
X161930833Y-38999300D01*
X162014166Y-39082633D01*
X162097500Y-39249300D01*
X162097500Y-39749300D01*
X162014166Y-39915967D01*
X161930833Y-39999300D01*
X161764166Y-40082633D01*
X161430833Y-40082633D01*
X161264166Y-39999300D01*
X162930833Y-39999300D02*
X162930833Y-40082633D01*
X162847500Y-40249300D01*
X162764166Y-40332633D01*
X162847500Y-38999300D02*
X162930833Y-39082633D01*
X162847500Y-39165967D01*
X162764166Y-39082633D01*
X162847500Y-38999300D01*
X162847500Y-39165967D01*
X164764166Y-38915967D02*
X165430833Y-38915967D01*
X165014166Y-38332633D02*
X165014166Y-39832633D01*
X165097500Y-39999300D01*
X165264166Y-40082633D01*
X165430833Y-40082633D01*
X166264166Y-40082633D02*
X166097500Y-39999300D01*
X166014166Y-39915967D01*
X165930833Y-39749300D01*
X165930833Y-39249300D01*
X166014166Y-39082633D01*
X166097500Y-38999300D01*
X166264166Y-38915967D01*
X166514166Y-38915967D01*
X166680833Y-38999300D01*
X166764166Y-39082633D01*
X166847500Y-39249300D01*
X166847500Y-39749300D01*
X166764166Y-39915967D01*
X166680833Y-39999300D01*
X166514166Y-40082633D01*
X166264166Y-40082633D01*
X168347500Y-38915967D02*
X168347500Y-40082633D01*
X167597500Y-38915967D02*
X167597500Y-39832633D01*
X167680833Y-39999300D01*
X167847500Y-40082633D01*
X168097500Y-40082633D01*
X168264166Y-39999300D01*
X168347500Y-39915967D01*
X169930833Y-39999300D02*
X169764166Y-40082633D01*
X169430833Y-40082633D01*
X169264166Y-39999300D01*
X169180833Y-39915967D01*
X169097500Y-39749300D01*
X169097500Y-39249300D01*
X169180833Y-39082633D01*
X169264166Y-38999300D01*
X169430833Y-38915967D01*
X169764166Y-38915967D01*
X169930833Y-38999300D01*
X170680833Y-40082633D02*
X170680833Y-38332633D01*
X171430833Y-40082633D02*
X171430833Y-39165967D01*
X171347500Y-38999300D01*
X171180833Y-38915967D01*
X170930833Y-38915967D01*
X170764166Y-38999300D01*
X170680833Y-39082633D01*
X172347500Y-39999300D02*
X172347500Y-40082633D01*
X172264166Y-40249300D01*
X172180833Y-40332633D01*
X172264166Y-38999300D02*
X172347500Y-39082633D01*
X172264166Y-39165967D01*
X172180833Y-39082633D01*
X172264166Y-38999300D01*
X172264166Y-39165967D01*
X174347500Y-39999300D02*
X174514166Y-40082633D01*
X174847500Y-40082633D01*
X175014166Y-39999300D01*
X175097500Y-39832633D01*
X175097500Y-39749300D01*
X175014166Y-39582633D01*
X174847500Y-39499300D01*
X174597500Y-39499300D01*
X174430833Y-39415967D01*
X174347500Y-39249300D01*
X174347500Y-39165967D01*
X174430833Y-38999300D01*
X174597500Y-38915967D01*
X174847500Y-38915967D01*
X175014166Y-38999300D01*
X175597500Y-38915967D02*
X176264166Y-38915967D01*
X175847500Y-38332633D02*
X175847500Y-39832633D01*
X175930833Y-39999300D01*
X176097500Y-40082633D01*
X176264166Y-40082633D01*
X176847500Y-40082633D02*
X176847500Y-38915967D01*
X176847500Y-39249300D02*
X176930833Y-39082633D01*
X177014166Y-38999300D01*
X177180833Y-38915967D01*
X177347500Y-38915967D01*
X177930833Y-40082633D02*
X177930833Y-38915967D01*
X177930833Y-38332633D02*
X177847500Y-38415967D01*
X177930833Y-38499300D01*
X178014166Y-38415967D01*
X177930833Y-38332633D01*
X177930833Y-38499300D01*
X178764166Y-38915967D02*
X178764166Y-40665967D01*
X178764166Y-38999300D02*
X178930833Y-38915967D01*
X179264166Y-38915967D01*
X179430833Y-38999300D01*
X179514166Y-39082633D01*
X179597500Y-39249300D01*
X179597500Y-39749300D01*
X179514166Y-39915967D01*
X179430833Y-39999300D01*
X179264166Y-40082633D01*
X178930833Y-40082633D01*
X178764166Y-39999300D01*
X180430833Y-39999300D02*
X180430833Y-40082633D01*
X180347500Y-40249300D01*
X180264166Y-40332633D01*
X180347500Y-38999300D02*
X180430833Y-39082633D01*
X180347500Y-39165967D01*
X180264166Y-39082633D01*
X180347500Y-38999300D01*
X180347500Y-39165967D01*
X182264166Y-38915967D02*
X182930833Y-38915967D01*
X182514166Y-40082633D02*
X182514166Y-38582633D01*
X182597500Y-38415967D01*
X182764166Y-38332633D01*
X182930833Y-38332633D01*
X183514166Y-40082633D02*
X183514166Y-38915967D01*
X183514166Y-38332633D02*
X183430833Y-38415967D01*
X183514166Y-38499300D01*
X183597500Y-38415967D01*
X183514166Y-38332633D01*
X183514166Y-38499300D01*
X184347500Y-38915967D02*
X184347500Y-40082633D01*
X184347500Y-39082633D02*
X184430833Y-38999300D01*
X184597500Y-38915967D01*
X184847500Y-38915967D01*
X185014166Y-38999300D01*
X185097500Y-39165967D01*
X185097500Y-40082633D01*
X186680833Y-38915967D02*
X186680833Y-40332633D01*
X186597500Y-40499300D01*
X186514166Y-40582633D01*
X186347500Y-40665967D01*
X186097500Y-40665967D01*
X185930833Y-40582633D01*
X186680833Y-39999300D02*
X186514166Y-40082633D01*
X186180833Y-40082633D01*
X186014166Y-39999300D01*
X185930833Y-39915967D01*
X185847500Y-39749300D01*
X185847500Y-39249300D01*
X185930833Y-39082633D01*
X186014166Y-38999300D01*
X186180833Y-38915967D01*
X186514166Y-38915967D01*
X186680833Y-38999300D01*
X188180833Y-39999300D02*
X188014166Y-40082633D01*
X187680833Y-40082633D01*
X187514166Y-39999300D01*
X187430833Y-39832633D01*
X187430833Y-39165967D01*
X187514166Y-38999300D01*
X187680833Y-38915967D01*
X188014166Y-38915967D01*
X188180833Y-38999300D01*
X188264166Y-39165967D01*
X188264166Y-39332633D01*
X187430833Y-39499300D01*
X189014166Y-40082633D02*
X189014166Y-38915967D01*
X189014166Y-39249300D02*
X189097500Y-39082633D01*
X189180833Y-38999300D01*
X189347500Y-38915967D01*
X189514166Y-38915967D01*
X190180833Y-39999300D02*
X190180833Y-40082633D01*
X190097500Y-40249300D01*
X190014166Y-40332633D01*
X190097500Y-38999300D02*
X190180833Y-39082633D01*
X190097500Y-39165967D01*
X190014166Y-39082633D01*
X190097500Y-38999300D01*
X190097500Y-39165967D01*
X148014166Y-42900133D02*
X148014166Y-41733467D01*
X148014166Y-41900133D02*
X148097500Y-41816800D01*
X148264166Y-41733467D01*
X148514166Y-41733467D01*
X148680833Y-41816800D01*
X148764166Y-41983467D01*
X148764166Y-42900133D01*
X148764166Y-41983467D02*
X148847500Y-41816800D01*
X149014166Y-41733467D01*
X149264166Y-41733467D01*
X149430833Y-41816800D01*
X149514166Y-41983467D01*
X149514166Y-42900133D01*
X150597500Y-42900133D02*
X150430833Y-42816800D01*
X150347500Y-42733467D01*
X150264166Y-42566800D01*
X150264166Y-42066800D01*
X150347500Y-41900133D01*
X150430833Y-41816800D01*
X150597500Y-41733467D01*
X150847500Y-41733467D01*
X151014166Y-41816800D01*
X151097500Y-41900133D01*
X151180833Y-42066800D01*
X151180833Y-42566800D01*
X151097500Y-42733467D01*
X151014166Y-42816800D01*
X150847500Y-42900133D01*
X150597500Y-42900133D01*
X152680833Y-41733467D02*
X152680833Y-42900133D01*
X151930833Y-41733467D02*
X151930833Y-42650133D01*
X152014166Y-42816800D01*
X152180833Y-42900133D01*
X152430833Y-42900133D01*
X152597500Y-42816800D01*
X152680833Y-42733467D01*
X153514166Y-41733467D02*
X153514166Y-42900133D01*
X153514166Y-41900133D02*
X153597500Y-41816800D01*
X153764166Y-41733467D01*
X154014166Y-41733467D01*
X154180833Y-41816800D01*
X154264166Y-41983467D01*
X154264166Y-42900133D01*
X154847500Y-41733467D02*
X155514166Y-41733467D01*
X155097500Y-41150133D02*
X155097500Y-42650133D01*
X155180833Y-42816800D01*
X155347500Y-42900133D01*
X155514166Y-42900133D01*
X156180833Y-42816800D02*
X156180833Y-42900133D01*
X156097500Y-43066800D01*
X156014166Y-43150133D01*
X156097500Y-41816800D02*
X156180833Y-41900133D01*
X156097500Y-41983467D01*
X156014166Y-41900133D01*
X156097500Y-41816800D01*
X156097500Y-41983467D01*
X187347500Y-41733467D02*
X188014166Y-41733467D01*
X187597500Y-42900133D02*
X187597500Y-41400133D01*
X187680833Y-41233467D01*
X187847500Y-41150133D01*
X188014166Y-41150133D01*
X188514166Y-42816800D02*
X188680833Y-42900133D01*
X189014166Y-42900133D01*
X189180833Y-42816800D01*
X189264166Y-42650133D01*
X189264166Y-42566800D01*
X189180833Y-42400133D01*
X189014166Y-42316800D01*
X188764166Y-42316800D01*
X188597500Y-42233467D01*
X188514166Y-42066800D01*
X188514166Y-41983467D01*
X188597500Y-41816800D01*
X188764166Y-41733467D01*
X189014166Y-41733467D01*
X189180833Y-41816800D01*
X190764166Y-42816800D02*
X190597500Y-42900133D01*
X190264166Y-42900133D01*
X190097500Y-42816800D01*
X190014166Y-42733467D01*
X189930833Y-42566800D01*
X189930833Y-42066800D01*
X190014166Y-41900133D01*
X190097500Y-41816800D01*
X190264166Y-41733467D01*
X190597500Y-41733467D01*
X190764166Y-41816800D01*
X191514166Y-42900133D02*
X191514166Y-41150133D01*
X191680833Y-42233467D02*
X192180833Y-42900133D01*
X192180833Y-41733467D02*
X191514166Y-42400133D01*
X193014166Y-42816800D02*
X193014166Y-42900133D01*
X192930833Y-43066800D01*
X192847500Y-43150133D01*
X192930833Y-41816800D02*
X193014166Y-41900133D01*
X192930833Y-41983467D01*
X192847500Y-41900133D01*
X192930833Y-41816800D01*
X192930833Y-41983467D01*
X148764166Y-44550967D02*
X148764166Y-45967633D01*
X148680833Y-46134300D01*
X148597500Y-46217633D01*
X148430833Y-46300967D01*
X148180833Y-46300967D01*
X148014166Y-46217633D01*
X148764166Y-45634300D02*
X148597500Y-45717633D01*
X148264166Y-45717633D01*
X148097500Y-45634300D01*
X148014166Y-45550967D01*
X147930833Y-45384300D01*
X147930833Y-44884300D01*
X148014166Y-44717633D01*
X148097500Y-44634300D01*
X148264166Y-44550967D01*
X148597500Y-44550967D01*
X148764166Y-44634300D01*
X150347500Y-45717633D02*
X150347500Y-44800967D01*
X150264166Y-44634300D01*
X150097500Y-44550967D01*
X149764166Y-44550967D01*
X149597500Y-44634300D01*
X150347500Y-45634300D02*
X150180833Y-45717633D01*
X149764166Y-45717633D01*
X149597500Y-45634300D01*
X149514166Y-45467633D01*
X149514166Y-45300967D01*
X149597500Y-45134300D01*
X149764166Y-45050967D01*
X150180833Y-45050967D01*
X150347500Y-44967633D01*
X151097500Y-45634300D02*
X151264166Y-45717633D01*
X151597500Y-45717633D01*
X151764166Y-45634300D01*
X151847500Y-45467633D01*
X151847500Y-45384300D01*
X151764166Y-45217633D01*
X151597500Y-45134300D01*
X151347500Y-45134300D01*
X151180833Y-45050967D01*
X151097500Y-44884300D01*
X151097500Y-44800967D01*
X151180833Y-44634300D01*
X151347500Y-44550967D01*
X151597500Y-44550967D01*
X151764166Y-44634300D01*
X152597500Y-44550967D02*
X152597500Y-46300967D01*
X152597500Y-44634300D02*
X152764166Y-44550967D01*
X153097500Y-44550967D01*
X153264166Y-44634300D01*
X153347500Y-44717633D01*
X153430833Y-44884300D01*
X153430833Y-45384300D01*
X153347500Y-45550967D01*
X153264166Y-45634300D01*
X153097500Y-45717633D01*
X152764166Y-45717633D01*
X152597500Y-45634300D01*
X154264166Y-45634300D02*
X154264166Y-45717633D01*
X154180833Y-45884300D01*
X154097500Y-45967633D01*
X154180833Y-44634300D02*
X154264166Y-44717633D01*
X154180833Y-44800967D01*
X154097500Y-44717633D01*
X154180833Y-44634300D01*
X154180833Y-44800967D01*
X186847500Y-44550967D02*
X187264166Y-45717633D01*
X187680833Y-44550967D02*
X187264166Y-45717633D01*
X187097500Y-46134300D01*
X187014166Y-46217633D01*
X186847500Y-46300967D01*
X189014166Y-45634300D02*
X188847500Y-45717633D01*
X188514166Y-45717633D01*
X188347500Y-45634300D01*
X188264166Y-45467633D01*
X188264166Y-44800967D01*
X188347500Y-44634300D01*
X188514166Y-44550967D01*
X188847500Y-44550967D01*
X189014166Y-44634300D01*
X189097500Y-44800967D01*
X189097500Y-44967633D01*
X188264166Y-45134300D01*
X189764166Y-45634300D02*
X189930833Y-45717633D01*
X190264166Y-45717633D01*
X190430833Y-45634300D01*
X190514166Y-45467633D01*
X190514166Y-45384300D01*
X190430833Y-45217633D01*
X190264166Y-45134300D01*
X190014166Y-45134300D01*
X189847500Y-45050967D01*
X189764166Y-44884300D01*
X189764166Y-44800967D01*
X189847500Y-44634300D01*
X190014166Y-44550967D01*
X190264166Y-44550967D01*
X190430833Y-44634300D01*
X191347500Y-45634300D02*
X191347500Y-45717633D01*
X191264166Y-45884300D01*
X191180833Y-45967633D01*
X191264166Y-44634300D02*
X191347500Y-44717633D01*
X191264166Y-44800967D01*
X191180833Y-44717633D01*
X191264166Y-44634300D01*
X191264166Y-44800967D01*
X148014166Y-48535133D02*
X148014166Y-47368467D01*
X148014166Y-47535133D02*
X148097500Y-47451800D01*
X148264166Y-47368467D01*
X148514166Y-47368467D01*
X148680833Y-47451800D01*
X148764166Y-47618467D01*
X148764166Y-48535133D01*
X148764166Y-47618467D02*
X148847500Y-47451800D01*
X149014166Y-47368467D01*
X149264166Y-47368467D01*
X149430833Y-47451800D01*
X149514166Y-47618467D01*
X149514166Y-48535133D01*
X150597500Y-48535133D02*
X150430833Y-48451800D01*
X150347500Y-48368467D01*
X150264166Y-48201800D01*
X150264166Y-47701800D01*
X150347500Y-47535133D01*
X150430833Y-47451800D01*
X150597500Y-47368467D01*
X150847500Y-47368467D01*
X151014166Y-47451800D01*
X151097500Y-47535133D01*
X151180833Y-47701800D01*
X151180833Y-48201800D01*
X151097500Y-48368467D01*
X151014166Y-48451800D01*
X150847500Y-48535133D01*
X150597500Y-48535133D01*
X151930833Y-48535133D02*
X151930833Y-47368467D01*
X151930833Y-47701800D02*
X152014166Y-47535133D01*
X152097500Y-47451800D01*
X152264166Y-47368467D01*
X152430833Y-47368467D01*
X153680833Y-48451800D02*
X153514166Y-48535133D01*
X153180833Y-48535133D01*
X153014166Y-48451800D01*
X152930833Y-48285133D01*
X152930833Y-47618467D01*
X153014166Y-47451800D01*
X153180833Y-47368467D01*
X153514166Y-47368467D01*
X153680833Y-47451800D01*
X153764166Y-47618467D01*
X153764166Y-47785133D01*
X152930833Y-47951800D01*
X154597500Y-48451800D02*
X154597500Y-48535133D01*
X154514166Y-48701800D01*
X154430833Y-48785133D01*
X154514166Y-47451800D02*
X154597500Y-47535133D01*
X154514166Y-47618467D01*
X154430833Y-47535133D01*
X154514166Y-47451800D01*
X154514166Y-47618467D01*
X187097500Y-47368467D02*
X187764166Y-47368467D01*
X187347500Y-48535133D02*
X187347500Y-47035133D01*
X187430833Y-46868467D01*
X187597500Y-46785133D01*
X187764166Y-46785133D01*
X188264166Y-48451800D02*
X188430833Y-48535133D01*
X188764166Y-48535133D01*
X188930833Y-48451800D01*
X189014166Y-48285133D01*
X189014166Y-48201800D01*
X188930833Y-48035133D01*
X188764166Y-47951800D01*
X188514166Y-47951800D01*
X188347500Y-47868467D01*
X188264166Y-47701800D01*
X188264166Y-47618467D01*
X188347500Y-47451800D01*
X188514166Y-47368467D01*
X188764166Y-47368467D01*
X188930833Y-47451800D01*
X190514166Y-48451800D02*
X190347500Y-48535133D01*
X190014166Y-48535133D01*
X189847500Y-48451800D01*
X189764166Y-48368467D01*
X189680833Y-48201800D01*
X189680833Y-47701800D01*
X189764166Y-47535133D01*
X189847500Y-47451800D01*
X190014166Y-47368467D01*
X190347500Y-47368467D01*
X190514166Y-47451800D01*
X191264166Y-48535133D02*
X191264166Y-46785133D01*
X191430833Y-47868467D02*
X191930833Y-48535133D01*
X191930833Y-47368467D02*
X191264166Y-48035133D01*
X192764166Y-48451800D02*
X192764166Y-48535133D01*
X192680833Y-48701800D01*
X192597500Y-48785133D01*
X192680833Y-47451800D02*
X192764166Y-47535133D01*
X192680833Y-47618467D01*
X192597500Y-47535133D01*
X192680833Y-47451800D01*
X192680833Y-47618467D01*
X148764166Y-50185967D02*
X148764166Y-51352633D01*
X148014166Y-50185967D02*
X148014166Y-51102633D01*
X148097500Y-51269300D01*
X148264166Y-51352633D01*
X148514166Y-51352633D01*
X148680833Y-51269300D01*
X148764166Y-51185967D01*
X149597500Y-50185967D02*
X149597500Y-51935967D01*
X149597500Y-50269300D02*
X149764166Y-50185967D01*
X150097500Y-50185967D01*
X150264166Y-50269300D01*
X150347500Y-50352633D01*
X150430833Y-50519300D01*
X150430833Y-51019300D01*
X150347500Y-51185967D01*
X150264166Y-51269300D01*
X150097500Y-51352633D01*
X149764166Y-51352633D01*
X149597500Y-51269300D01*
X150930833Y-50185967D02*
X151597500Y-50185967D01*
X151180833Y-49602633D02*
X151180833Y-51102633D01*
X151264166Y-51269300D01*
X151430833Y-51352633D01*
X151597500Y-51352633D01*
X152180833Y-51352633D02*
X152180833Y-50185967D01*
X152180833Y-49602633D02*
X152097500Y-49685967D01*
X152180833Y-49769300D01*
X152264166Y-49685967D01*
X152180833Y-49602633D01*
X152180833Y-49769300D01*
X153014166Y-51352633D02*
X153014166Y-50185967D01*
X153014166Y-50352633D02*
X153097500Y-50269300D01*
X153264166Y-50185967D01*
X153514166Y-50185967D01*
X153680833Y-50269300D01*
X153764166Y-50435967D01*
X153764166Y-51352633D01*
X153764166Y-50435967D02*
X153847500Y-50269300D01*
X154014166Y-50185967D01*
X154264166Y-50185967D01*
X154430833Y-50269300D01*
X154514166Y-50435967D01*
X154514166Y-51352633D01*
X156014166Y-51269300D02*
X155847500Y-51352633D01*
X155514166Y-51352633D01*
X155347500Y-51269300D01*
X155264166Y-51102633D01*
X155264166Y-50435967D01*
X155347500Y-50269300D01*
X155514166Y-50185967D01*
X155847500Y-50185967D01*
X156014166Y-50269300D01*
X156097500Y-50435967D01*
X156097500Y-50602633D01*
X155264166Y-50769300D01*
X156930833Y-51269300D02*
X156930833Y-51352633D01*
X156847500Y-51519300D01*
X156764166Y-51602633D01*
X156847500Y-50269300D02*
X156930833Y-50352633D01*
X156847500Y-50435967D01*
X156764166Y-50352633D01*
X156847500Y-50269300D01*
X156847500Y-50435967D01*
X187764166Y-50185967D02*
X187764166Y-51352633D01*
X187014166Y-50185967D02*
X187014166Y-51102633D01*
X187097500Y-51269300D01*
X187264166Y-51352633D01*
X187514166Y-51352633D01*
X187680833Y-51269300D01*
X187764166Y-51185967D01*
X188597500Y-51352633D02*
X188597500Y-50185967D01*
X188597500Y-50352633D02*
X188680833Y-50269300D01*
X188847500Y-50185967D01*
X189097500Y-50185967D01*
X189264166Y-50269300D01*
X189347500Y-50435967D01*
X189347500Y-51352633D01*
X189347500Y-50435967D02*
X189430833Y-50269300D01*
X189597500Y-50185967D01*
X189847500Y-50185967D01*
X190014166Y-50269300D01*
X190097500Y-50435967D01*
X190097500Y-51352633D01*
X191180833Y-51352633D02*
X191014166Y-51269300D01*
X190930833Y-51185967D01*
X190847500Y-51019300D01*
X190847500Y-50519300D01*
X190930833Y-50352633D01*
X191014166Y-50269300D01*
X191180833Y-50185967D01*
X191430833Y-50185967D01*
X191597500Y-50269300D01*
X191680833Y-50352633D01*
X191764166Y-50519300D01*
X191764166Y-51019300D01*
X191680833Y-51185967D01*
X191597500Y-51269300D01*
X191430833Y-51352633D01*
X191180833Y-51352633D01*
X193264166Y-50185967D02*
X193264166Y-51352633D01*
X192514166Y-50185967D02*
X192514166Y-51102633D01*
X192597500Y-51269300D01*
X192764166Y-51352633D01*
X193014166Y-51352633D01*
X193180833Y-51269300D01*
X193264166Y-51185967D01*
X194097500Y-50185967D02*
X194097500Y-51352633D01*
X194097500Y-50352633D02*
X194180833Y-50269300D01*
X194347500Y-50185967D01*
X194597500Y-50185967D01*
X194764166Y-50269300D01*
X194847500Y-50435967D01*
X194847500Y-51352633D01*
X195430833Y-50185967D02*
X196097500Y-50185967D01*
X195680833Y-49602633D02*
X195680833Y-51102633D01*
X195764166Y-51269300D01*
X195930833Y-51352633D01*
X196097500Y-51352633D01*
X196764166Y-51269300D02*
X196764166Y-51352633D01*
X196680833Y-51519300D01*
X196597500Y-51602633D01*
X196680833Y-50269300D02*
X196764166Y-50352633D01*
X196680833Y-50435967D01*
X196597500Y-50352633D01*
X196680833Y-50269300D01*
X196680833Y-50435967D01*
X147930833Y-54086800D02*
X148097500Y-54170133D01*
X148430833Y-54170133D01*
X148597500Y-54086800D01*
X148680833Y-53920133D01*
X148680833Y-53836800D01*
X148597500Y-53670133D01*
X148430833Y-53586800D01*
X148180833Y-53586800D01*
X148014166Y-53503467D01*
X147930833Y-53336800D01*
X147930833Y-53253467D01*
X148014166Y-53086800D01*
X148180833Y-53003467D01*
X148430833Y-53003467D01*
X148597500Y-53086800D01*
X149680833Y-54170133D02*
X149514166Y-54086800D01*
X149430833Y-53920133D01*
X149430833Y-52420133D01*
X151014166Y-54086800D02*
X150847500Y-54170133D01*
X150514166Y-54170133D01*
X150347500Y-54086800D01*
X150264166Y-53920133D01*
X150264166Y-53253467D01*
X150347500Y-53086800D01*
X150514166Y-53003467D01*
X150847500Y-53003467D01*
X151014166Y-53086800D01*
X151097500Y-53253467D01*
X151097500Y-53420133D01*
X150264166Y-53586800D01*
X152514166Y-54086800D02*
X152347500Y-54170133D01*
X152014166Y-54170133D01*
X151847500Y-54086800D01*
X151764166Y-53920133D01*
X151764166Y-53253467D01*
X151847500Y-53086800D01*
X152014166Y-53003467D01*
X152347500Y-53003467D01*
X152514166Y-53086800D01*
X152597500Y-53253467D01*
X152597500Y-53420133D01*
X151764166Y-53586800D01*
X153347500Y-53003467D02*
X153347500Y-54753467D01*
X153347500Y-53086800D02*
X153514166Y-53003467D01*
X153847500Y-53003467D01*
X154014166Y-53086800D01*
X154097500Y-53170133D01*
X154180833Y-53336800D01*
X154180833Y-53836800D01*
X154097500Y-54003467D01*
X154014166Y-54086800D01*
X153847500Y-54170133D01*
X153514166Y-54170133D01*
X153347500Y-54086800D01*
X155014166Y-54086800D02*
X155014166Y-54170133D01*
X154930833Y-54336800D01*
X154847500Y-54420133D01*
X154930833Y-53086800D02*
X155014166Y-53170133D01*
X154930833Y-53253467D01*
X154847500Y-53170133D01*
X154930833Y-53086800D01*
X154930833Y-53253467D01*
X156930833Y-53003467D02*
X157264166Y-54170133D01*
X157597500Y-53336800D01*
X157930833Y-54170133D01*
X158264166Y-53003467D01*
X158930833Y-54170133D02*
X158930833Y-52420133D01*
X159680833Y-54170133D02*
X159680833Y-53253467D01*
X159597500Y-53086800D01*
X159430833Y-53003467D01*
X159180833Y-53003467D01*
X159014166Y-53086800D01*
X158930833Y-53170133D01*
X160764166Y-54170133D02*
X160597500Y-54086800D01*
X160514166Y-54003467D01*
X160430833Y-53836800D01*
X160430833Y-53336800D01*
X160514166Y-53170133D01*
X160597500Y-53086800D01*
X160764166Y-53003467D01*
X161014166Y-53003467D01*
X161180833Y-53086800D01*
X161264166Y-53170133D01*
X161347500Y-53336800D01*
X161347500Y-53836800D01*
X161264166Y-54003467D01*
X161180833Y-54086800D01*
X161014166Y-54170133D01*
X160764166Y-54170133D01*
X163847500Y-54753467D02*
X163847500Y-52253467D01*
X167180833Y-53003467D02*
X167180833Y-54420133D01*
X167097500Y-54586800D01*
X167014166Y-54670133D01*
X166847500Y-54753467D01*
X166597500Y-54753467D01*
X166430833Y-54670133D01*
X167180833Y-54086800D02*
X167014166Y-54170133D01*
X166680833Y-54170133D01*
X166514166Y-54086800D01*
X166430833Y-54003467D01*
X166347500Y-53836800D01*
X166347500Y-53336800D01*
X166430833Y-53170133D01*
X166514166Y-53086800D01*
X166680833Y-53003467D01*
X167014166Y-53003467D01*
X167180833Y-53086800D01*
X168014166Y-54170133D02*
X168014166Y-53003467D01*
X168014166Y-53336800D02*
X168097500Y-53170133D01*
X168180833Y-53086800D01*
X168347500Y-53003467D01*
X168514166Y-53003467D01*
X169764166Y-54086800D02*
X169597500Y-54170133D01*
X169264166Y-54170133D01*
X169097500Y-54086800D01*
X169014166Y-53920133D01*
X169014166Y-53253467D01*
X169097500Y-53086800D01*
X169264166Y-53003467D01*
X169597500Y-53003467D01*
X169764166Y-53086800D01*
X169847500Y-53253467D01*
X169847500Y-53420133D01*
X169014166Y-53586800D01*
X170597500Y-53003467D02*
X170597500Y-54753467D01*
X170597500Y-53086800D02*
X170764166Y-53003467D01*
X171097500Y-53003467D01*
X171264166Y-53086800D01*
X171347500Y-53170133D01*
X171430833Y-53336800D01*
X171430833Y-53836800D01*
X171347500Y-54003467D01*
X171264166Y-54086800D01*
X171097500Y-54170133D01*
X170764166Y-54170133D01*
X170597500Y-54086800D01*
X173514166Y-53503467D02*
X174847500Y-53503467D01*
X175680833Y-54170133D02*
X175680833Y-53003467D01*
X175680833Y-52420133D02*
X175597500Y-52503467D01*
X175680833Y-52586800D01*
X175764166Y-52503467D01*
X175680833Y-52420133D01*
X175680833Y-52586800D01*
X177847500Y-54170133D02*
X177847500Y-52420133D01*
X177847500Y-53086800D02*
X178014166Y-53003467D01*
X178347500Y-53003467D01*
X178514166Y-53086800D01*
X178597500Y-53170133D01*
X178680833Y-53336800D01*
X178680833Y-53836800D01*
X178597500Y-54003467D01*
X178514166Y-54086800D01*
X178347500Y-54170133D01*
X178014166Y-54170133D01*
X177847500Y-54086800D01*
X179680833Y-54170133D02*
X179514166Y-54086800D01*
X179430833Y-53920133D01*
X179430833Y-52420133D01*
X180597500Y-54170133D02*
X180430833Y-54086800D01*
X180347500Y-54003467D01*
X180264166Y-53836800D01*
X180264166Y-53336800D01*
X180347500Y-53170133D01*
X180430833Y-53086800D01*
X180597500Y-53003467D01*
X180847500Y-53003467D01*
X181014166Y-53086800D01*
X181097500Y-53170133D01*
X181180833Y-53336800D01*
X181180833Y-53836800D01*
X181097500Y-54003467D01*
X181014166Y-54086800D01*
X180847500Y-54170133D01*
X180597500Y-54170133D01*
X181930833Y-53003467D02*
X181930833Y-54170133D01*
X181930833Y-53170133D02*
X182014166Y-53086800D01*
X182180833Y-53003467D01*
X182430833Y-53003467D01*
X182597500Y-53086800D01*
X182680833Y-53253467D01*
X182680833Y-54170133D01*
X184264166Y-54170133D02*
X184264166Y-52420133D01*
X184264166Y-54086800D02*
X184097500Y-54170133D01*
X183764166Y-54170133D01*
X183597500Y-54086800D01*
X183514166Y-54003467D01*
X183430833Y-53836800D01*
X183430833Y-53336800D01*
X183514166Y-53170133D01*
X183597500Y-53086800D01*
X183764166Y-53003467D01*
X184097500Y-53003467D01*
X184264166Y-53086800D01*
X185764166Y-54086800D02*
X185597500Y-54170133D01*
X185264166Y-54170133D01*
X185097500Y-54086800D01*
X185014166Y-53920133D01*
X185014166Y-53253467D01*
X185097500Y-53086800D01*
X185264166Y-53003467D01*
X185597500Y-53003467D01*
X185764166Y-53086800D01*
X185847500Y-53253467D01*
X185847500Y-53420133D01*
X185014166Y-53586800D01*
X188347500Y-54753467D02*
X188347500Y-52253467D01*
X156264166Y-77559717D02*
X156930833Y-77559717D01*
X156514166Y-78726383D02*
X156514166Y-77226383D01*
X156597500Y-77059717D01*
X156764166Y-76976383D01*
X156930833Y-76976383D01*
X157430833Y-78643050D02*
X157597500Y-78726383D01*
X157930833Y-78726383D01*
X158097500Y-78643050D01*
X158180833Y-78476383D01*
X158180833Y-78393050D01*
X158097500Y-78226383D01*
X157930833Y-78143050D01*
X157680833Y-78143050D01*
X157514166Y-78059717D01*
X157430833Y-77893050D01*
X157430833Y-77809717D01*
X157514166Y-77643050D01*
X157680833Y-77559717D01*
X157930833Y-77559717D01*
X158097500Y-77643050D01*
X159680833Y-78643050D02*
X159514166Y-78726383D01*
X159180833Y-78726383D01*
X159014166Y-78643050D01*
X158930833Y-78559717D01*
X158847500Y-78393050D01*
X158847500Y-77893050D01*
X158930833Y-77726383D01*
X159014166Y-77643050D01*
X159180833Y-77559717D01*
X159514166Y-77559717D01*
X159680833Y-77643050D01*
X160430833Y-78726383D02*
X160430833Y-76976383D01*
X160597500Y-78059717D02*
X161097500Y-78726383D01*
X161097500Y-77559717D02*
X160430833Y-78226383D01*
X161930833Y-78643050D02*
X161930833Y-78726383D01*
X161847500Y-78893050D01*
X161764166Y-78976383D01*
X161847500Y-77643050D02*
X161930833Y-77726383D01*
X161847500Y-77809717D01*
X161764166Y-77726383D01*
X161847500Y-77643050D01*
X161847500Y-77809717D01*
X164764166Y-77559717D02*
X164764166Y-78726383D01*
X164014166Y-77559717D02*
X164014166Y-78476383D01*
X164097500Y-78643050D01*
X164264166Y-78726383D01*
X164514166Y-78726383D01*
X164680833Y-78643050D01*
X164764166Y-78559717D01*
X165597500Y-77559717D02*
X165597500Y-79309717D01*
X165597500Y-77643050D02*
X165764166Y-77559717D01*
X166097500Y-77559717D01*
X166264166Y-77643050D01*
X166347500Y-77726383D01*
X166430833Y-77893050D01*
X166430833Y-78393050D01*
X166347500Y-78559717D01*
X166264166Y-78643050D01*
X166097500Y-78726383D01*
X165764166Y-78726383D01*
X165597500Y-78643050D01*
X166930833Y-77559717D02*
X167597500Y-77559717D01*
X167180833Y-76976383D02*
X167180833Y-78476383D01*
X167264166Y-78643050D01*
X167430833Y-78726383D01*
X167597500Y-78726383D01*
X168180833Y-78726383D02*
X168180833Y-77559717D01*
X168180833Y-76976383D02*
X168097500Y-77059717D01*
X168180833Y-77143050D01*
X168264166Y-77059717D01*
X168180833Y-76976383D01*
X168180833Y-77143050D01*
X169014166Y-78726383D02*
X169014166Y-77559717D01*
X169014166Y-77726383D02*
X169097500Y-77643050D01*
X169264166Y-77559717D01*
X169514166Y-77559717D01*
X169680833Y-77643050D01*
X169764166Y-77809717D01*
X169764166Y-78726383D01*
X169764166Y-77809717D02*
X169847500Y-77643050D01*
X170014166Y-77559717D01*
X170264166Y-77559717D01*
X170430833Y-77643050D01*
X170514166Y-77809717D01*
X170514166Y-78726383D01*
X172014166Y-78643050D02*
X171847500Y-78726383D01*
X171514166Y-78726383D01*
X171347500Y-78643050D01*
X171264166Y-78476383D01*
X171264166Y-77809717D01*
X171347500Y-77643050D01*
X171514166Y-77559717D01*
X171847500Y-77559717D01*
X172014166Y-77643050D01*
X172097500Y-77809717D01*
X172097500Y-77976383D01*
X171264166Y-78143050D01*
X172930833Y-78643050D02*
X172930833Y-78726383D01*
X172847500Y-78893050D01*
X172764166Y-78976383D01*
X172847500Y-77643050D02*
X172930833Y-77726383D01*
X172847500Y-77809717D01*
X172764166Y-77726383D01*
X172847500Y-77643050D01*
X172847500Y-77809717D01*
X175764166Y-77559717D02*
X175764166Y-78726383D01*
X175014166Y-77559717D02*
X175014166Y-78476383D01*
X175097500Y-78643050D01*
X175264166Y-78726383D01*
X175514166Y-78726383D01*
X175680833Y-78643050D01*
X175764166Y-78559717D01*
X176597500Y-78726383D02*
X176597500Y-77559717D01*
X176597500Y-77726383D02*
X176680833Y-77643050D01*
X176847500Y-77559717D01*
X177097500Y-77559717D01*
X177264166Y-77643050D01*
X177347500Y-77809717D01*
X177347500Y-78726383D01*
X177347500Y-77809717D02*
X177430833Y-77643050D01*
X177597500Y-77559717D01*
X177847500Y-77559717D01*
X178014166Y-77643050D01*
X178097500Y-77809717D01*
X178097500Y-78726383D01*
X179180833Y-78726383D02*
X179014166Y-78643050D01*
X178930833Y-78559717D01*
X178847500Y-78393050D01*
X178847500Y-77893050D01*
X178930833Y-77726383D01*
X179014166Y-77643050D01*
X179180833Y-77559717D01*
X179430833Y-77559717D01*
X179597500Y-77643050D01*
X179680833Y-77726383D01*
X179764166Y-77893050D01*
X179764166Y-78393050D01*
X179680833Y-78559717D01*
X179597500Y-78643050D01*
X179430833Y-78726383D01*
X179180833Y-78726383D01*
X181264166Y-77559717D02*
X181264166Y-78726383D01*
X180514166Y-77559717D02*
X180514166Y-78476383D01*
X180597500Y-78643050D01*
X180764166Y-78726383D01*
X181014166Y-78726383D01*
X181180833Y-78643050D01*
X181264166Y-78559717D01*
X182097500Y-77559717D02*
X182097500Y-78726383D01*
X182097500Y-77726383D02*
X182180833Y-77643050D01*
X182347500Y-77559717D01*
X182597500Y-77559717D01*
X182764166Y-77643050D01*
X182847500Y-77809717D01*
X182847500Y-78726383D01*
X183430833Y-77559717D02*
X184097500Y-77559717D01*
X183680833Y-76976383D02*
X183680833Y-78476383D01*
X183764166Y-78643050D01*
X183930833Y-78726383D01*
X184097500Y-78726383D01*
X184764166Y-78643050D02*
X184764166Y-78726383D01*
X184680833Y-78893050D01*
X184597500Y-78976383D01*
X184680833Y-77643050D02*
X184764166Y-77726383D01*
X184680833Y-77809717D01*
X184597500Y-77726383D01*
X184680833Y-77643050D01*
X184680833Y-77809717D01*
X186764166Y-78643050D02*
X186930833Y-78726383D01*
X187264166Y-78726383D01*
X187430833Y-78643050D01*
X187514166Y-78476383D01*
X187514166Y-78393050D01*
X187430833Y-78226383D01*
X187264166Y-78143050D01*
X187014166Y-78143050D01*
X186847500Y-78059717D01*
X186764166Y-77893050D01*
X186764166Y-77809717D01*
X186847500Y-77643050D01*
X187014166Y-77559717D01*
X187264166Y-77559717D01*
X187430833Y-77643050D01*
X188514166Y-78726383D02*
X188347500Y-78643050D01*
X188264166Y-78476383D01*
X188264166Y-76976383D01*
X189847500Y-78643050D02*
X189680833Y-78726383D01*
X189347500Y-78726383D01*
X189180833Y-78643050D01*
X189097500Y-78476383D01*
X189097500Y-77809717D01*
X189180833Y-77643050D01*
X189347500Y-77559717D01*
X189680833Y-77559717D01*
X189847500Y-77643050D01*
X189930833Y-77809717D01*
X189930833Y-77976383D01*
X189097500Y-78143050D01*
X191347500Y-78643050D02*
X191180833Y-78726383D01*
X190847500Y-78726383D01*
X190680833Y-78643050D01*
X190597500Y-78476383D01*
X190597500Y-77809717D01*
X190680833Y-77643050D01*
X190847500Y-77559717D01*
X191180833Y-77559717D01*
X191347500Y-77643050D01*
X191430833Y-77809717D01*
X191430833Y-77976383D01*
X190597500Y-78143050D01*
X192180833Y-77559717D02*
X192180833Y-79309717D01*
X192180833Y-77643050D02*
X192347500Y-77559717D01*
X192680833Y-77559717D01*
X192847500Y-77643050D01*
X192930833Y-77726383D01*
X193014166Y-77893050D01*
X193014166Y-78393050D01*
X192930833Y-78559717D01*
X192847500Y-78643050D01*
X192680833Y-78726383D01*
X192347500Y-78726383D01*
X192180833Y-78643050D01*
X193847500Y-78643050D02*
X193847500Y-78726383D01*
X193764166Y-78893050D01*
X193680833Y-78976383D01*
X193764166Y-77643050D02*
X193847500Y-77726383D01*
X193764166Y-77809717D01*
X193680833Y-77726383D01*
X193764166Y-77643050D01*
X193764166Y-77809717D01*
X151464166Y-66482633D02*
X151464166Y-64732633D01*
X151464166Y-66399300D02*
X151297500Y-66482633D01*
X150964166Y-66482633D01*
X150797500Y-66399300D01*
X150714166Y-66315967D01*
X150630833Y-66149300D01*
X150630833Y-65649300D01*
X150714166Y-65482633D01*
X150797500Y-65399300D01*
X150964166Y-65315967D01*
X151297500Y-65315967D01*
X151464166Y-65399300D01*
X153047500Y-66482633D02*
X153047500Y-65565967D01*
X152964166Y-65399300D01*
X152797500Y-65315967D01*
X152464166Y-65315967D01*
X152297500Y-65399300D01*
X153047500Y-66399300D02*
X152880833Y-66482633D01*
X152464166Y-66482633D01*
X152297500Y-66399300D01*
X152214166Y-66232633D01*
X152214166Y-66065967D01*
X152297500Y-65899300D01*
X152464166Y-65815967D01*
X152880833Y-65815967D01*
X153047500Y-65732633D01*
X153630833Y-65315967D02*
X154297500Y-65315967D01*
X153880833Y-64732633D02*
X153880833Y-66232633D01*
X153964166Y-66399300D01*
X154130833Y-66482633D01*
X154297500Y-66482633D01*
X155547500Y-66399300D02*
X155380833Y-66482633D01*
X155047500Y-66482633D01*
X154880833Y-66399300D01*
X154797500Y-66232633D01*
X154797500Y-65565967D01*
X154880833Y-65399300D01*
X155047500Y-65315967D01*
X155380833Y-65315967D01*
X155547500Y-65399300D01*
X155630833Y-65565967D01*
X155630833Y-65732633D01*
X154797500Y-65899300D01*
X156464166Y-66399300D02*
X156464166Y-66482633D01*
X156380833Y-66649300D01*
X156297500Y-66732633D01*
X156380833Y-65399300D02*
X156464166Y-65482633D01*
X156380833Y-65565967D01*
X156297500Y-65482633D01*
X156380833Y-65399300D01*
X156380833Y-65565967D01*
X159297500Y-66399300D02*
X159130833Y-66482633D01*
X158797500Y-66482633D01*
X158630833Y-66399300D01*
X158547500Y-66315967D01*
X158464166Y-66149300D01*
X158464166Y-65649300D01*
X158547500Y-65482633D01*
X158630833Y-65399300D01*
X158797500Y-65315967D01*
X159130833Y-65315967D01*
X159297500Y-65399300D01*
X160797500Y-66482633D02*
X160797500Y-64732633D01*
X160797500Y-66399300D02*
X160630833Y-66482633D01*
X160297500Y-66482633D01*
X160130833Y-66399300D01*
X160047500Y-66315967D01*
X159964166Y-66149300D01*
X159964166Y-65649300D01*
X160047500Y-65482633D01*
X160130833Y-65399300D01*
X160297500Y-65315967D01*
X160630833Y-65315967D01*
X160797500Y-65399300D01*
X162714166Y-65815967D02*
X162797500Y-65732633D01*
X162964166Y-65649300D01*
X163297500Y-65815967D01*
X163464166Y-65732633D01*
X163547500Y-65649300D01*
X164297500Y-66399300D02*
X164297500Y-66482633D01*
X164214166Y-66649300D01*
X164130833Y-66732633D01*
X164214166Y-65399300D02*
X164297500Y-65482633D01*
X164214166Y-65565967D01*
X164130833Y-65482633D01*
X164214166Y-65399300D01*
X164214166Y-65565967D01*
X167130833Y-65315967D02*
X167130833Y-66482633D01*
X166380833Y-65315967D02*
X166380833Y-66232633D01*
X166464166Y-66399300D01*
X166630833Y-66482633D01*
X166880833Y-66482633D01*
X167047500Y-66399300D01*
X167130833Y-66315967D01*
X167964166Y-65315967D02*
X167964166Y-66482633D01*
X167964166Y-65482633D02*
X168047500Y-65399300D01*
X168214166Y-65315967D01*
X168464166Y-65315967D01*
X168630833Y-65399300D01*
X168714166Y-65565967D01*
X168714166Y-66482633D01*
X169380833Y-65315967D02*
X170297500Y-65315967D01*
X169380833Y-66482633D01*
X170297500Y-66482633D01*
X170964166Y-66482633D02*
X170964166Y-65315967D01*
X170964166Y-64732633D02*
X170880833Y-64815967D01*
X170964166Y-64899300D01*
X171047500Y-64815967D01*
X170964166Y-64732633D01*
X170964166Y-64899300D01*
X171797500Y-65315967D02*
X171797500Y-67065967D01*
X171797500Y-65399300D02*
X171964166Y-65315967D01*
X172297500Y-65315967D01*
X172464166Y-65399300D01*
X172547500Y-65482633D01*
X172630833Y-65649300D01*
X172630833Y-66149300D01*
X172547500Y-66315967D01*
X172464166Y-66399300D01*
X172297500Y-66482633D01*
X171964166Y-66482633D01*
X171797500Y-66399300D01*
X173464166Y-66399300D02*
X173464166Y-66482633D01*
X173380833Y-66649300D01*
X173297500Y-66732633D01*
X173380833Y-65399300D02*
X173464166Y-65482633D01*
X173380833Y-65565967D01*
X173297500Y-65482633D01*
X173380833Y-65399300D01*
X173380833Y-65565967D01*
X175297500Y-65315967D02*
X175964166Y-65315967D01*
X175547500Y-64732633D02*
X175547500Y-66232633D01*
X175630833Y-66399300D01*
X175797500Y-66482633D01*
X175964166Y-66482633D01*
X176797500Y-66482633D02*
X176630833Y-66399300D01*
X176547500Y-66315967D01*
X176464166Y-66149300D01*
X176464166Y-65649300D01*
X176547500Y-65482633D01*
X176630833Y-65399300D01*
X176797500Y-65315967D01*
X177047500Y-65315967D01*
X177214166Y-65399300D01*
X177297500Y-65482633D01*
X177380833Y-65649300D01*
X177380833Y-66149300D01*
X177297500Y-66315967D01*
X177214166Y-66399300D01*
X177047500Y-66482633D01*
X176797500Y-66482633D01*
X178880833Y-65315967D02*
X178880833Y-66482633D01*
X178130833Y-65315967D02*
X178130833Y-66232633D01*
X178214166Y-66399300D01*
X178380833Y-66482633D01*
X178630833Y-66482633D01*
X178797500Y-66399300D01*
X178880833Y-66315967D01*
X180464166Y-66399300D02*
X180297500Y-66482633D01*
X179964166Y-66482633D01*
X179797500Y-66399300D01*
X179714166Y-66315967D01*
X179630833Y-66149300D01*
X179630833Y-65649300D01*
X179714166Y-65482633D01*
X179797500Y-65399300D01*
X179964166Y-65315967D01*
X180297500Y-65315967D01*
X180464166Y-65399300D01*
X181214166Y-66482633D02*
X181214166Y-64732633D01*
X181964166Y-66482633D02*
X181964166Y-65565967D01*
X181880833Y-65399300D01*
X181714166Y-65315967D01*
X181464166Y-65315967D01*
X181297500Y-65399300D01*
X181214166Y-65482633D01*
X182880833Y-66399300D02*
X182880833Y-66482633D01*
X182797500Y-66649300D01*
X182714166Y-66732633D01*
X182797500Y-65399300D02*
X182880833Y-65482633D01*
X182797500Y-65565967D01*
X182714166Y-65482633D01*
X182797500Y-65399300D01*
X182797500Y-65565967D01*
X184880833Y-66399300D02*
X185047500Y-66482633D01*
X185380833Y-66482633D01*
X185547500Y-66399300D01*
X185630833Y-66232633D01*
X185630833Y-66149300D01*
X185547500Y-65982633D01*
X185380833Y-65899300D01*
X185130833Y-65899300D01*
X184964166Y-65815967D01*
X184880833Y-65649300D01*
X184880833Y-65565967D01*
X184964166Y-65399300D01*
X185130833Y-65315967D01*
X185380833Y-65315967D01*
X185547500Y-65399300D01*
X186130833Y-65315967D02*
X186797500Y-65315967D01*
X186380833Y-64732633D02*
X186380833Y-66232633D01*
X186464166Y-66399300D01*
X186630833Y-66482633D01*
X186797500Y-66482633D01*
X187380833Y-66482633D02*
X187380833Y-65315967D01*
X187380833Y-65649300D02*
X187464166Y-65482633D01*
X187547500Y-65399300D01*
X187714166Y-65315967D01*
X187880833Y-65315967D01*
X188464166Y-66482633D02*
X188464166Y-65315967D01*
X188464166Y-64732633D02*
X188380833Y-64815967D01*
X188464166Y-64899300D01*
X188547500Y-64815967D01*
X188464166Y-64732633D01*
X188464166Y-64899300D01*
X189297500Y-65315967D02*
X189297500Y-67065967D01*
X189297500Y-65399300D02*
X189464166Y-65315967D01*
X189797500Y-65315967D01*
X189964166Y-65399300D01*
X190047500Y-65482633D01*
X190130833Y-65649300D01*
X190130833Y-66149300D01*
X190047500Y-66315967D01*
X189964166Y-66399300D01*
X189797500Y-66482633D01*
X189464166Y-66482633D01*
X189297500Y-66399300D01*
X190964166Y-66399300D02*
X190964166Y-66482633D01*
X190880833Y-66649300D01*
X190797500Y-66732633D01*
X190880833Y-65399300D02*
X190964166Y-65482633D01*
X190880833Y-65565967D01*
X190797500Y-65482633D01*
X190880833Y-65399300D01*
X190880833Y-65565967D01*
X150464166Y-68133467D02*
X151130833Y-68133467D01*
X150714166Y-69300133D02*
X150714166Y-67800133D01*
X150797500Y-67633467D01*
X150964166Y-67550133D01*
X151130833Y-67550133D01*
X151714166Y-69300133D02*
X151714166Y-68133467D01*
X151714166Y-67550133D02*
X151630833Y-67633467D01*
X151714166Y-67716800D01*
X151797500Y-67633467D01*
X151714166Y-67550133D01*
X151714166Y-67716800D01*
X152547500Y-68133467D02*
X152547500Y-69300133D01*
X152547500Y-68300133D02*
X152630833Y-68216800D01*
X152797500Y-68133467D01*
X153047500Y-68133467D01*
X153214166Y-68216800D01*
X153297500Y-68383467D01*
X153297500Y-69300133D01*
X154880833Y-68133467D02*
X154880833Y-69550133D01*
X154797500Y-69716800D01*
X154714166Y-69800133D01*
X154547500Y-69883467D01*
X154297500Y-69883467D01*
X154130833Y-69800133D01*
X154880833Y-69216800D02*
X154714166Y-69300133D01*
X154380833Y-69300133D01*
X154214166Y-69216800D01*
X154130833Y-69133467D01*
X154047500Y-68966800D01*
X154047500Y-68466800D01*
X154130833Y-68300133D01*
X154214166Y-68216800D01*
X154380833Y-68133467D01*
X154714166Y-68133467D01*
X154880833Y-68216800D01*
X156380833Y-69216800D02*
X156214166Y-69300133D01*
X155880833Y-69300133D01*
X155714166Y-69216800D01*
X155630833Y-69050133D01*
X155630833Y-68383467D01*
X155714166Y-68216800D01*
X155880833Y-68133467D01*
X156214166Y-68133467D01*
X156380833Y-68216800D01*
X156464166Y-68383467D01*
X156464166Y-68550133D01*
X155630833Y-68716800D01*
X157214166Y-69300133D02*
X157214166Y-68133467D01*
X157214166Y-68466800D02*
X157297500Y-68300133D01*
X157380833Y-68216800D01*
X157547500Y-68133467D01*
X157714166Y-68133467D01*
X158380833Y-69216800D02*
X158380833Y-69300133D01*
X158297500Y-69466800D01*
X158214166Y-69550133D01*
X158297500Y-68216800D02*
X158380833Y-68300133D01*
X158297500Y-68383467D01*
X158214166Y-68300133D01*
X158297500Y-68216800D01*
X158297500Y-68383467D01*
X185797500Y-69300133D02*
X185797500Y-68133467D01*
X185797500Y-68300133D02*
X185880833Y-68216800D01*
X186047500Y-68133467D01*
X186297500Y-68133467D01*
X186464166Y-68216800D01*
X186547500Y-68383467D01*
X186547500Y-69300133D01*
X186547500Y-68383467D02*
X186630833Y-68216800D01*
X186797500Y-68133467D01*
X187047500Y-68133467D01*
X187214166Y-68216800D01*
X187297500Y-68383467D01*
X187297500Y-69300133D01*
X188380833Y-69300133D02*
X188214166Y-69216800D01*
X188130833Y-69133467D01*
X188047500Y-68966800D01*
X188047500Y-68466800D01*
X188130833Y-68300133D01*
X188214166Y-68216800D01*
X188380833Y-68133467D01*
X188630833Y-68133467D01*
X188797500Y-68216800D01*
X188880833Y-68300133D01*
X188964166Y-68466800D01*
X188964166Y-68966800D01*
X188880833Y-69133467D01*
X188797500Y-69216800D01*
X188630833Y-69300133D01*
X188380833Y-69300133D01*
X190464166Y-68133467D02*
X190464166Y-69300133D01*
X189714166Y-68133467D02*
X189714166Y-69050133D01*
X189797500Y-69216800D01*
X189964166Y-69300133D01*
X190214166Y-69300133D01*
X190380833Y-69216800D01*
X190464166Y-69133467D01*
X191297500Y-68133467D02*
X191297500Y-69300133D01*
X191297500Y-68300133D02*
X191380833Y-68216800D01*
X191547500Y-68133467D01*
X191797500Y-68133467D01*
X191964166Y-68216800D01*
X192047500Y-68383467D01*
X192047500Y-69300133D01*
X192630833Y-68133467D02*
X193297500Y-68133467D01*
X192880833Y-67550133D02*
X192880833Y-69050133D01*
X192964166Y-69216800D01*
X193130833Y-69300133D01*
X193297500Y-69300133D01*
X193964166Y-69216800D02*
X193964166Y-69300133D01*
X193880833Y-69466800D01*
X193797500Y-69550133D01*
X193880833Y-68216800D02*
X193964166Y-68300133D01*
X193880833Y-68383467D01*
X193797500Y-68300133D01*
X193880833Y-68216800D01*
X193880833Y-68383467D01*
X150464166Y-70950967D02*
X151130833Y-70950967D01*
X150714166Y-72117633D02*
X150714166Y-70617633D01*
X150797500Y-70450967D01*
X150964166Y-70367633D01*
X151130833Y-70367633D01*
X151630833Y-72034300D02*
X151797500Y-72117633D01*
X152130833Y-72117633D01*
X152297500Y-72034300D01*
X152380833Y-71867633D01*
X152380833Y-71784300D01*
X152297500Y-71617633D01*
X152130833Y-71534300D01*
X151880833Y-71534300D01*
X151714166Y-71450967D01*
X151630833Y-71284300D01*
X151630833Y-71200967D01*
X151714166Y-71034300D01*
X151880833Y-70950967D01*
X152130833Y-70950967D01*
X152297500Y-71034300D01*
X153880833Y-72034300D02*
X153714166Y-72117633D01*
X153380833Y-72117633D01*
X153214166Y-72034300D01*
X153130833Y-71950967D01*
X153047500Y-71784300D01*
X153047500Y-71284300D01*
X153130833Y-71117633D01*
X153214166Y-71034300D01*
X153380833Y-70950967D01*
X153714166Y-70950967D01*
X153880833Y-71034300D01*
X154630833Y-72117633D02*
X154630833Y-70367633D01*
X154797500Y-71450967D02*
X155297500Y-72117633D01*
X155297500Y-70950967D02*
X154630833Y-71617633D01*
X156130833Y-72034300D02*
X156130833Y-72117633D01*
X156047500Y-72284300D01*
X155964166Y-72367633D01*
X156047500Y-71034300D02*
X156130833Y-71117633D01*
X156047500Y-71200967D01*
X155964166Y-71117633D01*
X156047500Y-71034300D01*
X156047500Y-71200967D01*
X186964166Y-70950967D02*
X186964166Y-72367633D01*
X186880833Y-72534300D01*
X186797500Y-72617633D01*
X186630833Y-72700967D01*
X186380833Y-72700967D01*
X186214166Y-72617633D01*
X186964166Y-72034300D02*
X186797500Y-72117633D01*
X186464166Y-72117633D01*
X186297500Y-72034300D01*
X186214166Y-71950967D01*
X186130833Y-71784300D01*
X186130833Y-71284300D01*
X186214166Y-71117633D01*
X186297500Y-71034300D01*
X186464166Y-70950967D01*
X186797500Y-70950967D01*
X186964166Y-71034300D01*
X188547500Y-72117633D02*
X188547500Y-71200967D01*
X188464166Y-71034300D01*
X188297500Y-70950967D01*
X187964166Y-70950967D01*
X187797500Y-71034300D01*
X188547500Y-72034300D02*
X188380833Y-72117633D01*
X187964166Y-72117633D01*
X187797500Y-72034300D01*
X187714166Y-71867633D01*
X187714166Y-71700967D01*
X187797500Y-71534300D01*
X187964166Y-71450967D01*
X188380833Y-71450967D01*
X188547500Y-71367633D01*
X189297500Y-72034300D02*
X189464166Y-72117633D01*
X189797500Y-72117633D01*
X189964166Y-72034300D01*
X190047500Y-71867633D01*
X190047500Y-71784300D01*
X189964166Y-71617633D01*
X189797500Y-71534300D01*
X189547500Y-71534300D01*
X189380833Y-71450967D01*
X189297500Y-71284300D01*
X189297500Y-71200967D01*
X189380833Y-71034300D01*
X189547500Y-70950967D01*
X189797500Y-70950967D01*
X189964166Y-71034300D01*
X190797500Y-70950967D02*
X190797500Y-72700967D01*
X190797500Y-71034300D02*
X190964166Y-70950967D01*
X191297500Y-70950967D01*
X191464166Y-71034300D01*
X191547500Y-71117633D01*
X191630833Y-71284300D01*
X191630833Y-71784300D01*
X191547500Y-71950967D01*
X191464166Y-72034300D01*
X191297500Y-72117633D01*
X190964166Y-72117633D01*
X190797500Y-72034300D01*
X192464166Y-72034300D02*
X192464166Y-72117633D01*
X192380833Y-72284300D01*
X192297500Y-72367633D01*
X192380833Y-71034300D02*
X192464166Y-71117633D01*
X192380833Y-71200967D01*
X192297500Y-71117633D01*
X192380833Y-71034300D01*
X192380833Y-71200967D01*
X155880833Y-73768467D02*
X156297500Y-74935133D01*
X156714166Y-73768467D02*
X156297500Y-74935133D01*
X156130833Y-75351800D01*
X156047500Y-75435133D01*
X155880833Y-75518467D01*
X158047500Y-74851800D02*
X157880833Y-74935133D01*
X157547500Y-74935133D01*
X157380833Y-74851800D01*
X157297500Y-74685133D01*
X157297500Y-74018467D01*
X157380833Y-73851800D01*
X157547500Y-73768467D01*
X157880833Y-73768467D01*
X158047500Y-73851800D01*
X158130833Y-74018467D01*
X158130833Y-74185133D01*
X157297500Y-74351800D01*
X158797500Y-74851800D02*
X158964166Y-74935133D01*
X159297500Y-74935133D01*
X159464166Y-74851800D01*
X159547500Y-74685133D01*
X159547500Y-74601800D01*
X159464166Y-74435133D01*
X159297500Y-74351800D01*
X159047500Y-74351800D01*
X158880833Y-74268467D01*
X158797500Y-74101800D01*
X158797500Y-74018467D01*
X158880833Y-73851800D01*
X159047500Y-73768467D01*
X159297500Y-73768467D01*
X159464166Y-73851800D01*
X160380833Y-74851800D02*
X160380833Y-74935133D01*
X160297500Y-75101800D01*
X160214166Y-75185133D01*
X160297500Y-73851800D02*
X160380833Y-73935133D01*
X160297500Y-74018467D01*
X160214166Y-73935133D01*
X160297500Y-73851800D01*
X160297500Y-74018467D01*
X186464166Y-74935133D02*
X186464166Y-73768467D01*
X186464166Y-73935133D02*
X186547500Y-73851800D01*
X186714166Y-73768467D01*
X186964166Y-73768467D01*
X187130833Y-73851800D01*
X187214166Y-74018467D01*
X187214166Y-74935133D01*
X187214166Y-74018467D02*
X187297500Y-73851800D01*
X187464166Y-73768467D01*
X187714166Y-73768467D01*
X187880833Y-73851800D01*
X187964166Y-74018467D01*
X187964166Y-74935133D01*
X189047500Y-74935133D02*
X188880833Y-74851800D01*
X188797500Y-74768467D01*
X188714166Y-74601800D01*
X188714166Y-74101800D01*
X188797500Y-73935133D01*
X188880833Y-73851800D01*
X189047500Y-73768467D01*
X189297500Y-73768467D01*
X189464166Y-73851800D01*
X189547500Y-73935133D01*
X189630833Y-74101800D01*
X189630833Y-74601800D01*
X189547500Y-74768467D01*
X189464166Y-74851800D01*
X189297500Y-74935133D01*
X189047500Y-74935133D01*
X190380833Y-74935133D02*
X190380833Y-73768467D01*
X190380833Y-74101800D02*
X190464166Y-73935133D01*
X190547500Y-73851800D01*
X190714166Y-73768467D01*
X190880833Y-73768467D01*
X192130833Y-74851800D02*
X191964166Y-74935133D01*
X191630833Y-74935133D01*
X191464166Y-74851800D01*
X191380833Y-74685133D01*
X191380833Y-74018467D01*
X191464166Y-73851800D01*
X191630833Y-73768467D01*
X191964166Y-73768467D01*
X192130833Y-73851800D01*
X192214166Y-74018467D01*
X192214166Y-74185133D01*
X191380833Y-74351800D01*
X193047500Y-74851800D02*
X193047500Y-74935133D01*
X192964166Y-75101800D01*
X192880833Y-75185133D01*
X192964166Y-73851800D02*
X193047500Y-73935133D01*
X192964166Y-74018467D01*
X192880833Y-73935133D01*
X192964166Y-73851800D01*
X192964166Y-74018467D01*
X147947500Y-16224717D02*
X148280833Y-17391383D01*
X148614166Y-16558050D01*
X148947500Y-17391383D01*
X149280833Y-16224717D01*
X149947500Y-17391383D02*
X149947500Y-15641383D01*
X150697500Y-17391383D02*
X150697500Y-16474717D01*
X150614166Y-16308050D01*
X150447500Y-16224717D01*
X150197500Y-16224717D01*
X150030833Y-16308050D01*
X149947500Y-16391383D01*
X151780833Y-17391383D02*
X151614166Y-17308050D01*
X151530833Y-17224717D01*
X151447500Y-17058050D01*
X151447500Y-16558050D01*
X151530833Y-16391383D01*
X151614166Y-16308050D01*
X151780833Y-16224717D01*
X152030833Y-16224717D01*
X152197500Y-16308050D01*
X152280833Y-16391383D01*
X152364166Y-16558050D01*
X152364166Y-17058050D01*
X152280833Y-17224717D01*
X152197500Y-17308050D01*
X152030833Y-17391383D01*
X151780833Y-17391383D01*
X154864166Y-17974717D02*
X154864166Y-15474717D01*
X158197500Y-16224717D02*
X158197500Y-17641383D01*
X158114166Y-17808050D01*
X158030833Y-17891383D01*
X157864166Y-17974717D01*
X157614166Y-17974717D01*
X157447500Y-17891383D01*
X158197500Y-17308050D02*
X158030833Y-17391383D01*
X157697500Y-17391383D01*
X157530833Y-17308050D01*
X157447500Y-17224717D01*
X157364166Y-17058050D01*
X157364166Y-16558050D01*
X157447500Y-16391383D01*
X157530833Y-16308050D01*
X157697500Y-16224717D01*
X158030833Y-16224717D01*
X158197500Y-16308050D01*
X159030833Y-17391383D02*
X159030833Y-16224717D01*
X159030833Y-16558050D02*
X159114166Y-16391383D01*
X159197500Y-16308050D01*
X159364166Y-16224717D01*
X159530833Y-16224717D01*
X160780833Y-17308050D02*
X160614166Y-17391383D01*
X160280833Y-17391383D01*
X160114166Y-17308050D01*
X160030833Y-17141383D01*
X160030833Y-16474717D01*
X160114166Y-16308050D01*
X160280833Y-16224717D01*
X160614166Y-16224717D01*
X160780833Y-16308050D01*
X160864166Y-16474717D01*
X160864166Y-16641383D01*
X160030833Y-16808050D01*
X161614166Y-16224717D02*
X161614166Y-17974717D01*
X161614166Y-16308050D02*
X161780833Y-16224717D01*
X162114166Y-16224717D01*
X162280833Y-16308050D01*
X162364166Y-16391383D01*
X162447500Y-16558050D01*
X162447500Y-17058050D01*
X162364166Y-17224717D01*
X162280833Y-17308050D01*
X162114166Y-17391383D01*
X161780833Y-17391383D01*
X161614166Y-17308050D01*
X164530833Y-16724717D02*
X165864166Y-16724717D01*
X166697500Y-17391383D02*
X166697500Y-16224717D01*
X166697500Y-15641383D02*
X166614166Y-15724717D01*
X166697500Y-15808050D01*
X166780833Y-15724717D01*
X166697500Y-15641383D01*
X166697500Y-15808050D01*
X175530833Y-17391383D02*
X175530833Y-15641383D01*
X175530833Y-16308050D02*
X175697500Y-16224717D01*
X176030833Y-16224717D01*
X176197500Y-16308050D01*
X176280833Y-16391383D01*
X176364166Y-16558050D01*
X176364166Y-17058050D01*
X176280833Y-17224717D01*
X176197500Y-17308050D01*
X176030833Y-17391383D01*
X175697500Y-17391383D01*
X175530833Y-17308050D01*
X177364166Y-17391383D02*
X177197500Y-17308050D01*
X177114166Y-17141383D01*
X177114166Y-15641383D01*
X178280833Y-17391383D02*
X178114166Y-17308050D01*
X178030833Y-17224717D01*
X177947500Y-17058050D01*
X177947500Y-16558050D01*
X178030833Y-16391383D01*
X178114166Y-16308050D01*
X178280833Y-16224717D01*
X178530833Y-16224717D01*
X178697500Y-16308050D01*
X178780833Y-16391383D01*
X178864166Y-16558050D01*
X178864166Y-17058050D01*
X178780833Y-17224717D01*
X178697500Y-17308050D01*
X178530833Y-17391383D01*
X178280833Y-17391383D01*
X179614166Y-16224717D02*
X179614166Y-17391383D01*
X179614166Y-16391383D02*
X179697500Y-16308050D01*
X179864166Y-16224717D01*
X180114166Y-16224717D01*
X180280833Y-16308050D01*
X180364166Y-16474717D01*
X180364166Y-17391383D01*
X181947500Y-17391383D02*
X181947500Y-15641383D01*
X181947500Y-17308050D02*
X181780833Y-17391383D01*
X181447500Y-17391383D01*
X181280833Y-17308050D01*
X181197500Y-17224717D01*
X181114166Y-17058050D01*
X181114166Y-16558050D01*
X181197500Y-16391383D01*
X181280833Y-16308050D01*
X181447500Y-16224717D01*
X181780833Y-16224717D01*
X181947500Y-16308050D01*
X183447500Y-17308050D02*
X183280833Y-17391383D01*
X182947500Y-17391383D01*
X182780833Y-17308050D01*
X182697500Y-17141383D01*
X182697500Y-16474717D01*
X182780833Y-16308050D01*
X182947500Y-16224717D01*
X183280833Y-16224717D01*
X183447500Y-16308050D01*
X183530833Y-16474717D01*
X183530833Y-16641383D01*
X182697500Y-16808050D01*
X186030833Y-17974717D02*
X186030833Y-15474717D01*
X189364166Y-17391383D02*
X189364166Y-15641383D01*
X189364166Y-17308050D02*
X189197500Y-17391383D01*
X188864166Y-17391383D01*
X188697500Y-17308050D01*
X188614166Y-17224717D01*
X188530833Y-17058050D01*
X188530833Y-16558050D01*
X188614166Y-16391383D01*
X188697500Y-16308050D01*
X188864166Y-16224717D01*
X189197500Y-16224717D01*
X189364166Y-16308050D01*
X190947500Y-17391383D02*
X190947500Y-16474717D01*
X190864166Y-16308050D01*
X190697500Y-16224717D01*
X190364166Y-16224717D01*
X190197500Y-16308050D01*
X190947500Y-17308050D02*
X190780833Y-17391383D01*
X190364166Y-17391383D01*
X190197500Y-17308050D01*
X190114166Y-17141383D01*
X190114166Y-16974717D01*
X190197500Y-16808050D01*
X190364166Y-16724717D01*
X190780833Y-16724717D01*
X190947500Y-16641383D01*
X191530833Y-16224717D02*
X192197500Y-16224717D01*
X191780833Y-15641383D02*
X191780833Y-17141383D01*
X191864166Y-17308050D01*
X192030833Y-17391383D01*
X192197500Y-17391383D01*
X193447500Y-17308050D02*
X193280833Y-17391383D01*
X192947500Y-17391383D01*
X192780833Y-17308050D01*
X192697500Y-17141383D01*
X192697500Y-16474717D01*
X192780833Y-16308050D01*
X192947500Y-16224717D01*
X193280833Y-16224717D01*
X193447500Y-16308050D01*
X193530833Y-16474717D01*
X193530833Y-16641383D01*
X192697500Y-16808050D01*
X194364166Y-17308050D02*
X194364166Y-17391383D01*
X194280833Y-17558050D01*
X194197500Y-17641383D01*
X194280833Y-16308050D02*
X194364166Y-16391383D01*
X194280833Y-16474717D01*
X194197500Y-16391383D01*
X194280833Y-16308050D01*
X194280833Y-16474717D01*
X148864166Y-20125550D02*
X148697500Y-20208883D01*
X148364166Y-20208883D01*
X148197500Y-20125550D01*
X148114166Y-20042217D01*
X148030833Y-19875550D01*
X148030833Y-19375550D01*
X148114166Y-19208883D01*
X148197500Y-19125550D01*
X148364166Y-19042217D01*
X148697500Y-19042217D01*
X148864166Y-19125550D01*
X150364166Y-20208883D02*
X150364166Y-18458883D01*
X150364166Y-20125550D02*
X150197500Y-20208883D01*
X149864166Y-20208883D01*
X149697500Y-20125550D01*
X149614166Y-20042217D01*
X149530833Y-19875550D01*
X149530833Y-19375550D01*
X149614166Y-19208883D01*
X149697500Y-19125550D01*
X149864166Y-19042217D01*
X150197500Y-19042217D01*
X150364166Y-19125550D01*
X152280833Y-19542217D02*
X152364166Y-19458883D01*
X152530833Y-19375550D01*
X152864166Y-19542217D01*
X153030833Y-19458883D01*
X153114166Y-19375550D01*
X153864166Y-20125550D02*
X153864166Y-20208883D01*
X153780833Y-20375550D01*
X153697500Y-20458883D01*
X153780833Y-19125550D02*
X153864166Y-19208883D01*
X153780833Y-19292217D01*
X153697500Y-19208883D01*
X153780833Y-19125550D01*
X153780833Y-19292217D01*
X156697500Y-19042217D02*
X156697500Y-20208883D01*
X155947500Y-19042217D02*
X155947500Y-19958883D01*
X156030833Y-20125550D01*
X156197500Y-20208883D01*
X156447500Y-20208883D01*
X156614166Y-20125550D01*
X156697500Y-20042217D01*
X157530833Y-19042217D02*
X157530833Y-20208883D01*
X157530833Y-19208883D02*
X157614166Y-19125550D01*
X157780833Y-19042217D01*
X158030833Y-19042217D01*
X158197500Y-19125550D01*
X158280833Y-19292217D01*
X158280833Y-20208883D01*
X158947500Y-19042217D02*
X159864166Y-19042217D01*
X158947500Y-20208883D01*
X159864166Y-20208883D01*
X160530833Y-20208883D02*
X160530833Y-19042217D01*
X160530833Y-18458883D02*
X160447500Y-18542217D01*
X160530833Y-18625550D01*
X160614166Y-18542217D01*
X160530833Y-18458883D01*
X160530833Y-18625550D01*
X161364166Y-19042217D02*
X161364166Y-20792217D01*
X161364166Y-19125550D02*
X161530833Y-19042217D01*
X161864166Y-19042217D01*
X162030833Y-19125550D01*
X162114166Y-19208883D01*
X162197500Y-19375550D01*
X162197500Y-19875550D01*
X162114166Y-20042217D01*
X162030833Y-20125550D01*
X161864166Y-20208883D01*
X161530833Y-20208883D01*
X161364166Y-20125550D01*
X163030833Y-20125550D02*
X163030833Y-20208883D01*
X162947500Y-20375550D01*
X162864166Y-20458883D01*
X162947500Y-19125550D02*
X163030833Y-19208883D01*
X162947500Y-19292217D01*
X162864166Y-19208883D01*
X162947500Y-19125550D01*
X162947500Y-19292217D01*
X175530833Y-19042217D02*
X176197500Y-19042217D01*
X175780833Y-18458883D02*
X175780833Y-19958883D01*
X175864166Y-20125550D01*
X176030833Y-20208883D01*
X176197500Y-20208883D01*
X177030833Y-20208883D02*
X176864166Y-20125550D01*
X176780833Y-20042217D01*
X176697500Y-19875550D01*
X176697500Y-19375550D01*
X176780833Y-19208883D01*
X176864166Y-19125550D01*
X177030833Y-19042217D01*
X177280833Y-19042217D01*
X177447500Y-19125550D01*
X177530833Y-19208883D01*
X177614166Y-19375550D01*
X177614166Y-19875550D01*
X177530833Y-20042217D01*
X177447500Y-20125550D01*
X177280833Y-20208883D01*
X177030833Y-20208883D01*
X179114166Y-19042217D02*
X179114166Y-20208883D01*
X178364166Y-19042217D02*
X178364166Y-19958883D01*
X178447500Y-20125550D01*
X178614166Y-20208883D01*
X178864166Y-20208883D01*
X179030833Y-20125550D01*
X179114166Y-20042217D01*
X180697500Y-20125550D02*
X180530833Y-20208883D01*
X180197500Y-20208883D01*
X180030833Y-20125550D01*
X179947500Y-20042217D01*
X179864166Y-19875550D01*
X179864166Y-19375550D01*
X179947500Y-19208883D01*
X180030833Y-19125550D01*
X180197500Y-19042217D01*
X180530833Y-19042217D01*
X180697500Y-19125550D01*
X181447500Y-20208883D02*
X181447500Y-18458883D01*
X182197500Y-20208883D02*
X182197500Y-19292217D01*
X182114166Y-19125550D01*
X181947500Y-19042217D01*
X181697500Y-19042217D01*
X181530833Y-19125550D01*
X181447500Y-19208883D01*
X183114166Y-20125550D02*
X183114166Y-20208883D01*
X183030833Y-20375550D01*
X182947500Y-20458883D01*
X183030833Y-19125550D02*
X183114166Y-19208883D01*
X183030833Y-19292217D01*
X182947500Y-19208883D01*
X183030833Y-19125550D01*
X183030833Y-19292217D01*
X185114166Y-20125550D02*
X185280833Y-20208883D01*
X185614166Y-20208883D01*
X185780833Y-20125550D01*
X185864166Y-19958883D01*
X185864166Y-19875550D01*
X185780833Y-19708883D01*
X185614166Y-19625550D01*
X185364166Y-19625550D01*
X185197500Y-19542217D01*
X185114166Y-19375550D01*
X185114166Y-19292217D01*
X185197500Y-19125550D01*
X185364166Y-19042217D01*
X185614166Y-19042217D01*
X185780833Y-19125550D01*
X186364166Y-19042217D02*
X187030833Y-19042217D01*
X186614166Y-18458883D02*
X186614166Y-19958883D01*
X186697500Y-20125550D01*
X186864166Y-20208883D01*
X187030833Y-20208883D01*
X187614166Y-20208883D02*
X187614166Y-19042217D01*
X187614166Y-19375550D02*
X187697500Y-19208883D01*
X187780833Y-19125550D01*
X187947500Y-19042217D01*
X188114166Y-19042217D01*
X188697500Y-20208883D02*
X188697500Y-19042217D01*
X188697500Y-18458883D02*
X188614166Y-18542217D01*
X188697500Y-18625550D01*
X188780833Y-18542217D01*
X188697500Y-18458883D01*
X188697500Y-18625550D01*
X189530833Y-19042217D02*
X189530833Y-20792217D01*
X189530833Y-19125550D02*
X189697500Y-19042217D01*
X190030833Y-19042217D01*
X190197500Y-19125550D01*
X190280833Y-19208883D01*
X190364166Y-19375550D01*
X190364166Y-19875550D01*
X190280833Y-20042217D01*
X190197500Y-20125550D01*
X190030833Y-20208883D01*
X189697500Y-20208883D01*
X189530833Y-20125550D01*
X191197500Y-20125550D02*
X191197500Y-20208883D01*
X191114166Y-20375550D01*
X191030833Y-20458883D01*
X191114166Y-19125550D02*
X191197500Y-19208883D01*
X191114166Y-19292217D01*
X191030833Y-19208883D01*
X191114166Y-19125550D01*
X191114166Y-19292217D01*
X147864166Y-21859717D02*
X148530833Y-21859717D01*
X148114166Y-23026383D02*
X148114166Y-21526383D01*
X148197500Y-21359717D01*
X148364166Y-21276383D01*
X148530833Y-21276383D01*
X149114166Y-23026383D02*
X149114166Y-21859717D01*
X149114166Y-21276383D02*
X149030833Y-21359717D01*
X149114166Y-21443050D01*
X149197500Y-21359717D01*
X149114166Y-21276383D01*
X149114166Y-21443050D01*
X149947500Y-21859717D02*
X149947500Y-23026383D01*
X149947500Y-22026383D02*
X150030833Y-21943050D01*
X150197500Y-21859717D01*
X150447500Y-21859717D01*
X150614166Y-21943050D01*
X150697500Y-22109717D01*
X150697500Y-23026383D01*
X152280833Y-21859717D02*
X152280833Y-23276383D01*
X152197500Y-23443050D01*
X152114166Y-23526383D01*
X151947500Y-23609717D01*
X151697500Y-23609717D01*
X151530833Y-23526383D01*
X152280833Y-22943050D02*
X152114166Y-23026383D01*
X151780833Y-23026383D01*
X151614166Y-22943050D01*
X151530833Y-22859717D01*
X151447500Y-22693050D01*
X151447500Y-22193050D01*
X151530833Y-22026383D01*
X151614166Y-21943050D01*
X151780833Y-21859717D01*
X152114166Y-21859717D01*
X152280833Y-21943050D01*
X153780833Y-22943050D02*
X153614166Y-23026383D01*
X153280833Y-23026383D01*
X153114166Y-22943050D01*
X153030833Y-22776383D01*
X153030833Y-22109717D01*
X153114166Y-21943050D01*
X153280833Y-21859717D01*
X153614166Y-21859717D01*
X153780833Y-21943050D01*
X153864166Y-22109717D01*
X153864166Y-22276383D01*
X153030833Y-22443050D01*
X154614166Y-23026383D02*
X154614166Y-21859717D01*
X154614166Y-22193050D02*
X154697500Y-22026383D01*
X154780833Y-21943050D01*
X154947500Y-21859717D01*
X155114166Y-21859717D01*
X155780833Y-22943050D02*
X155780833Y-23026383D01*
X155697500Y-23193050D01*
X155614166Y-23276383D01*
X155697500Y-21943050D02*
X155780833Y-22026383D01*
X155697500Y-22109717D01*
X155614166Y-22026383D01*
X155697500Y-21943050D01*
X155697500Y-22109717D01*
X157864166Y-23026383D02*
X157864166Y-21859717D01*
X157864166Y-22026383D02*
X157947500Y-21943050D01*
X158114166Y-21859717D01*
X158364166Y-21859717D01*
X158530833Y-21943050D01*
X158614166Y-22109717D01*
X158614166Y-23026383D01*
X158614166Y-22109717D02*
X158697500Y-21943050D01*
X158864166Y-21859717D01*
X159114166Y-21859717D01*
X159280833Y-21943050D01*
X159364166Y-22109717D01*
X159364166Y-23026383D01*
X160447500Y-23026383D02*
X160280833Y-22943050D01*
X160197500Y-22859717D01*
X160114166Y-22693050D01*
X160114166Y-22193050D01*
X160197500Y-22026383D01*
X160280833Y-21943050D01*
X160447500Y-21859717D01*
X160697500Y-21859717D01*
X160864166Y-21943050D01*
X160947500Y-22026383D01*
X161030833Y-22193050D01*
X161030833Y-22693050D01*
X160947500Y-22859717D01*
X160864166Y-22943050D01*
X160697500Y-23026383D01*
X160447500Y-23026383D01*
X162530833Y-21859717D02*
X162530833Y-23026383D01*
X161780833Y-21859717D02*
X161780833Y-22776383D01*
X161864166Y-22943050D01*
X162030833Y-23026383D01*
X162280833Y-23026383D01*
X162447500Y-22943050D01*
X162530833Y-22859717D01*
X163364166Y-21859717D02*
X163364166Y-23026383D01*
X163364166Y-22026383D02*
X163447500Y-21943050D01*
X163614166Y-21859717D01*
X163864166Y-21859717D01*
X164030833Y-21943050D01*
X164114166Y-22109717D01*
X164114166Y-23026383D01*
X164697500Y-21859717D02*
X165364166Y-21859717D01*
X164947500Y-21276383D02*
X164947500Y-22776383D01*
X165030833Y-22943050D01*
X165197500Y-23026383D01*
X165364166Y-23026383D01*
X166030833Y-22943050D02*
X166030833Y-23026383D01*
X165947500Y-23193050D01*
X165864166Y-23276383D01*
X165947500Y-21943050D02*
X166030833Y-22026383D01*
X165947500Y-22109717D01*
X165864166Y-22026383D01*
X165947500Y-21943050D01*
X165947500Y-22109717D01*
X175864166Y-21859717D02*
X176530833Y-21859717D01*
X176114166Y-23026383D02*
X176114166Y-21526383D01*
X176197500Y-21359717D01*
X176364166Y-21276383D01*
X176530833Y-21276383D01*
X177030833Y-22943050D02*
X177197500Y-23026383D01*
X177530833Y-23026383D01*
X177697500Y-22943050D01*
X177780833Y-22776383D01*
X177780833Y-22693050D01*
X177697500Y-22526383D01*
X177530833Y-22443050D01*
X177280833Y-22443050D01*
X177114166Y-22359717D01*
X177030833Y-22193050D01*
X177030833Y-22109717D01*
X177114166Y-21943050D01*
X177280833Y-21859717D01*
X177530833Y-21859717D01*
X177697500Y-21943050D01*
X179280833Y-22943050D02*
X179114166Y-23026383D01*
X178780833Y-23026383D01*
X178614166Y-22943050D01*
X178530833Y-22859717D01*
X178447500Y-22693050D01*
X178447500Y-22193050D01*
X178530833Y-22026383D01*
X178614166Y-21943050D01*
X178780833Y-21859717D01*
X179114166Y-21859717D01*
X179280833Y-21943050D01*
X180030833Y-23026383D02*
X180030833Y-21276383D01*
X180197500Y-22359717D02*
X180697500Y-23026383D01*
X180697500Y-21859717D02*
X180030833Y-22526383D01*
X181530833Y-22943050D02*
X181530833Y-23026383D01*
X181447500Y-23193050D01*
X181364166Y-23276383D01*
X181447500Y-21943050D02*
X181530833Y-22026383D01*
X181447500Y-22109717D01*
X181364166Y-22026383D01*
X181447500Y-21943050D01*
X181447500Y-22109717D01*
X184364166Y-21859717D02*
X184364166Y-23276383D01*
X184280833Y-23443050D01*
X184197500Y-23526383D01*
X184030833Y-23609717D01*
X183780833Y-23609717D01*
X183614166Y-23526383D01*
X184364166Y-22943050D02*
X184197500Y-23026383D01*
X183864166Y-23026383D01*
X183697500Y-22943050D01*
X183614166Y-22859717D01*
X183530833Y-22693050D01*
X183530833Y-22193050D01*
X183614166Y-22026383D01*
X183697500Y-21943050D01*
X183864166Y-21859717D01*
X184197500Y-21859717D01*
X184364166Y-21943050D01*
X185947500Y-23026383D02*
X185947500Y-22109717D01*
X185864166Y-21943050D01*
X185697500Y-21859717D01*
X185364166Y-21859717D01*
X185197500Y-21943050D01*
X185947500Y-22943050D02*
X185780833Y-23026383D01*
X185364166Y-23026383D01*
X185197500Y-22943050D01*
X185114166Y-22776383D01*
X185114166Y-22609717D01*
X185197500Y-22443050D01*
X185364166Y-22359717D01*
X185780833Y-22359717D01*
X185947500Y-22276383D01*
X186697500Y-22943050D02*
X186864166Y-23026383D01*
X187197500Y-23026383D01*
X187364166Y-22943050D01*
X187447500Y-22776383D01*
X187447500Y-22693050D01*
X187364166Y-22526383D01*
X187197500Y-22443050D01*
X186947500Y-22443050D01*
X186780833Y-22359717D01*
X186697500Y-22193050D01*
X186697500Y-22109717D01*
X186780833Y-21943050D01*
X186947500Y-21859717D01*
X187197500Y-21859717D01*
X187364166Y-21943050D01*
X188197500Y-21859717D02*
X188197500Y-23609717D01*
X188197500Y-21943050D02*
X188364166Y-21859717D01*
X188697500Y-21859717D01*
X188864166Y-21943050D01*
X188947500Y-22026383D01*
X189030833Y-22193050D01*
X189030833Y-22693050D01*
X188947500Y-22859717D01*
X188864166Y-22943050D01*
X188697500Y-23026383D01*
X188364166Y-23026383D01*
X188197500Y-22943050D01*
X189864166Y-22943050D02*
X189864166Y-23026383D01*
X189780833Y-23193050D01*
X189697500Y-23276383D01*
X189780833Y-21943050D02*
X189864166Y-22026383D01*
X189780833Y-22109717D01*
X189697500Y-22026383D01*
X189780833Y-21943050D01*
X189780833Y-22109717D01*
X191780833Y-21859717D02*
X192197500Y-23026383D01*
X192614166Y-21859717D02*
X192197500Y-23026383D01*
X192030833Y-23443050D01*
X191947500Y-23526383D01*
X191780833Y-23609717D01*
X193947500Y-22943050D02*
X193780833Y-23026383D01*
X193447500Y-23026383D01*
X193280833Y-22943050D01*
X193197500Y-22776383D01*
X193197500Y-22109717D01*
X193280833Y-21943050D01*
X193447500Y-21859717D01*
X193780833Y-21859717D01*
X193947500Y-21943050D01*
X194030833Y-22109717D01*
X194030833Y-22276383D01*
X193197500Y-22443050D01*
X194697500Y-22943050D02*
X194864166Y-23026383D01*
X195197500Y-23026383D01*
X195364166Y-22943050D01*
X195447500Y-22776383D01*
X195447500Y-22693050D01*
X195364166Y-22526383D01*
X195197500Y-22443050D01*
X194947500Y-22443050D01*
X194780833Y-22359717D01*
X194697500Y-22193050D01*
X194697500Y-22109717D01*
X194780833Y-21943050D01*
X194947500Y-21859717D01*
X195197500Y-21859717D01*
X195364166Y-21943050D01*
X196280833Y-22943050D02*
X196280833Y-23026383D01*
X196197500Y-23193050D01*
X196114166Y-23276383D01*
X196197500Y-21943050D02*
X196280833Y-22026383D01*
X196197500Y-22109717D01*
X196114166Y-22026383D01*
X196197500Y-21943050D01*
X196197500Y-22109717D01*
X148114166Y-25843883D02*
X148114166Y-24677217D01*
X148114166Y-24843883D02*
X148197500Y-24760550D01*
X148364166Y-24677217D01*
X148614166Y-24677217D01*
X148780833Y-24760550D01*
X148864166Y-24927217D01*
X148864166Y-25843883D01*
X148864166Y-24927217D02*
X148947500Y-24760550D01*
X149114166Y-24677217D01*
X149364166Y-24677217D01*
X149530833Y-24760550D01*
X149614166Y-24927217D01*
X149614166Y-25843883D01*
X150697500Y-25843883D02*
X150530833Y-25760550D01*
X150447500Y-25677217D01*
X150364166Y-25510550D01*
X150364166Y-25010550D01*
X150447500Y-24843883D01*
X150530833Y-24760550D01*
X150697500Y-24677217D01*
X150947500Y-24677217D01*
X151114166Y-24760550D01*
X151197500Y-24843883D01*
X151280833Y-25010550D01*
X151280833Y-25510550D01*
X151197500Y-25677217D01*
X151114166Y-25760550D01*
X150947500Y-25843883D01*
X150697500Y-25843883D01*
X152030833Y-25843883D02*
X152030833Y-24677217D01*
X152030833Y-25010550D02*
X152114166Y-24843883D01*
X152197500Y-24760550D01*
X152364166Y-24677217D01*
X152530833Y-24677217D01*
X153780833Y-25760550D02*
X153614166Y-25843883D01*
X153280833Y-25843883D01*
X153114166Y-25760550D01*
X153030833Y-25593883D01*
X153030833Y-24927217D01*
X153114166Y-24760550D01*
X153280833Y-24677217D01*
X153614166Y-24677217D01*
X153780833Y-24760550D01*
X153864166Y-24927217D01*
X153864166Y-25093883D01*
X153030833Y-25260550D01*
X154697500Y-25760550D02*
X154697500Y-25843883D01*
X154614166Y-26010550D01*
X154530833Y-26093883D01*
X154614166Y-24760550D02*
X154697500Y-24843883D01*
X154614166Y-24927217D01*
X154530833Y-24843883D01*
X154614166Y-24760550D01*
X154614166Y-24927217D01*
X156530833Y-24677217D02*
X157197500Y-24677217D01*
X156780833Y-25843883D02*
X156780833Y-24343883D01*
X156864166Y-24177217D01*
X157030833Y-24093883D01*
X157197500Y-24093883D01*
X157697500Y-25760550D02*
X157864166Y-25843883D01*
X158197500Y-25843883D01*
X158364166Y-25760550D01*
X158447500Y-25593883D01*
X158447500Y-25510550D01*
X158364166Y-25343883D01*
X158197500Y-25260550D01*
X157947500Y-25260550D01*
X157780833Y-25177217D01*
X157697500Y-25010550D01*
X157697500Y-24927217D01*
X157780833Y-24760550D01*
X157947500Y-24677217D01*
X158197500Y-24677217D01*
X158364166Y-24760550D01*
X159947500Y-25760550D02*
X159780833Y-25843883D01*
X159447500Y-25843883D01*
X159280833Y-25760550D01*
X159197500Y-25677217D01*
X159114166Y-25510550D01*
X159114166Y-25010550D01*
X159197500Y-24843883D01*
X159280833Y-24760550D01*
X159447500Y-24677217D01*
X159780833Y-24677217D01*
X159947500Y-24760550D01*
X160697500Y-25843883D02*
X160697500Y-24093883D01*
X160864166Y-25177217D02*
X161364166Y-25843883D01*
X161364166Y-24677217D02*
X160697500Y-25343883D01*
X162197500Y-25760550D02*
X162197500Y-25843883D01*
X162114166Y-26010550D01*
X162030833Y-26093883D01*
X162114166Y-24760550D02*
X162197500Y-24843883D01*
X162114166Y-24927217D01*
X162030833Y-24843883D01*
X162114166Y-24760550D01*
X162114166Y-24927217D01*
X175697500Y-24677217D02*
X175697500Y-25843883D01*
X174947500Y-24677217D02*
X174947500Y-25593883D01*
X175030833Y-25760550D01*
X175197500Y-25843883D01*
X175447500Y-25843883D01*
X175614166Y-25760550D01*
X175697500Y-25677217D01*
X176530833Y-24677217D02*
X176530833Y-26427217D01*
X176530833Y-24760550D02*
X176697500Y-24677217D01*
X177030833Y-24677217D01*
X177197500Y-24760550D01*
X177280833Y-24843883D01*
X177364166Y-25010550D01*
X177364166Y-25510550D01*
X177280833Y-25677217D01*
X177197500Y-25760550D01*
X177030833Y-25843883D01*
X176697500Y-25843883D01*
X176530833Y-25760550D01*
X177864166Y-24677217D02*
X178530833Y-24677217D01*
X178114166Y-24093883D02*
X178114166Y-25593883D01*
X178197500Y-25760550D01*
X178364166Y-25843883D01*
X178530833Y-25843883D01*
X179114166Y-25843883D02*
X179114166Y-24677217D01*
X179114166Y-24093883D02*
X179030833Y-24177217D01*
X179114166Y-24260550D01*
X179197500Y-24177217D01*
X179114166Y-24093883D01*
X179114166Y-24260550D01*
X179947500Y-25843883D02*
X179947500Y-24677217D01*
X179947500Y-24843883D02*
X180030833Y-24760550D01*
X180197500Y-24677217D01*
X180447500Y-24677217D01*
X180614166Y-24760550D01*
X180697500Y-24927217D01*
X180697500Y-25843883D01*
X180697500Y-24927217D02*
X180780833Y-24760550D01*
X180947500Y-24677217D01*
X181197500Y-24677217D01*
X181364166Y-24760550D01*
X181447500Y-24927217D01*
X181447500Y-25843883D01*
X182947500Y-25760550D02*
X182780833Y-25843883D01*
X182447500Y-25843883D01*
X182280833Y-25760550D01*
X182197500Y-25593883D01*
X182197500Y-24927217D01*
X182280833Y-24760550D01*
X182447500Y-24677217D01*
X182780833Y-24677217D01*
X182947500Y-24760550D01*
X183030833Y-24927217D01*
X183030833Y-25093883D01*
X182197500Y-25260550D01*
X183864166Y-25760550D02*
X183864166Y-25843883D01*
X183780833Y-26010550D01*
X183697500Y-26093883D01*
X183780833Y-24760550D02*
X183864166Y-24843883D01*
X183780833Y-24927217D01*
X183697500Y-24843883D01*
X183780833Y-24760550D01*
X183780833Y-24927217D01*
X186697500Y-24677217D02*
X186697500Y-25843883D01*
X185947500Y-24677217D02*
X185947500Y-25593883D01*
X186030833Y-25760550D01*
X186197500Y-25843883D01*
X186447500Y-25843883D01*
X186614166Y-25760550D01*
X186697500Y-25677217D01*
X187530833Y-25843883D02*
X187530833Y-24677217D01*
X187530833Y-24843883D02*
X187614166Y-24760550D01*
X187780833Y-24677217D01*
X188030833Y-24677217D01*
X188197500Y-24760550D01*
X188280833Y-24927217D01*
X188280833Y-25843883D01*
X188280833Y-24927217D02*
X188364166Y-24760550D01*
X188530833Y-24677217D01*
X188780833Y-24677217D01*
X188947500Y-24760550D01*
X189030833Y-24927217D01*
X189030833Y-25843883D01*
X190114166Y-25843883D02*
X189947500Y-25760550D01*
X189864166Y-25677217D01*
X189780833Y-25510550D01*
X189780833Y-25010550D01*
X189864166Y-24843883D01*
X189947500Y-24760550D01*
X190114166Y-24677217D01*
X190364166Y-24677217D01*
X190530833Y-24760550D01*
X190614166Y-24843883D01*
X190697500Y-25010550D01*
X190697500Y-25510550D01*
X190614166Y-25677217D01*
X190530833Y-25760550D01*
X190364166Y-25843883D01*
X190114166Y-25843883D01*
X192197500Y-24677217D02*
X192197500Y-25843883D01*
X191447500Y-24677217D02*
X191447500Y-25593883D01*
X191530833Y-25760550D01*
X191697500Y-25843883D01*
X191947500Y-25843883D01*
X192114166Y-25760550D01*
X192197500Y-25677217D01*
X193030833Y-24677217D02*
X193030833Y-25843883D01*
X193030833Y-24843883D02*
X193114166Y-24760550D01*
X193280833Y-24677217D01*
X193530833Y-24677217D01*
X193697500Y-24760550D01*
X193780833Y-24927217D01*
X193780833Y-25843883D01*
X194364166Y-24677217D02*
X195030833Y-24677217D01*
X194614166Y-24093883D02*
X194614166Y-25593883D01*
X194697500Y-25760550D01*
X194864166Y-25843883D01*
X195030833Y-25843883D01*
X195697500Y-25760550D02*
X195697500Y-25843883D01*
X195614166Y-26010550D01*
X195530833Y-26093883D01*
X195614166Y-24760550D02*
X195697500Y-24843883D01*
X195614166Y-24927217D01*
X195530833Y-24843883D01*
X195614166Y-24760550D01*
X195614166Y-24927217D01*
X148030833Y-28578050D02*
X148197500Y-28661383D01*
X148530833Y-28661383D01*
X148697500Y-28578050D01*
X148780833Y-28411383D01*
X148780833Y-28328050D01*
X148697500Y-28161383D01*
X148530833Y-28078050D01*
X148280833Y-28078050D01*
X148114166Y-27994717D01*
X148030833Y-27828050D01*
X148030833Y-27744717D01*
X148114166Y-27578050D01*
X148280833Y-27494717D01*
X148530833Y-27494717D01*
X148697500Y-27578050D01*
X149780833Y-28661383D02*
X149614166Y-28578050D01*
X149530833Y-28411383D01*
X149530833Y-26911383D01*
X151114166Y-28578050D02*
X150947500Y-28661383D01*
X150614166Y-28661383D01*
X150447500Y-28578050D01*
X150364166Y-28411383D01*
X150364166Y-27744717D01*
X150447500Y-27578050D01*
X150614166Y-27494717D01*
X150947500Y-27494717D01*
X151114166Y-27578050D01*
X151197500Y-27744717D01*
X151197500Y-27911383D01*
X150364166Y-28078050D01*
X152614166Y-28578050D02*
X152447500Y-28661383D01*
X152114166Y-28661383D01*
X151947500Y-28578050D01*
X151864166Y-28411383D01*
X151864166Y-27744717D01*
X151947500Y-27578050D01*
X152114166Y-27494717D01*
X152447500Y-27494717D01*
X152614166Y-27578050D01*
X152697500Y-27744717D01*
X152697500Y-27911383D01*
X151864166Y-28078050D01*
X153447500Y-27494717D02*
X153447500Y-29244717D01*
X153447500Y-27578050D02*
X153614166Y-27494717D01*
X153947500Y-27494717D01*
X154114166Y-27578050D01*
X154197500Y-27661383D01*
X154280833Y-27828050D01*
X154280833Y-28328050D01*
X154197500Y-28494717D01*
X154114166Y-28578050D01*
X153947500Y-28661383D01*
X153614166Y-28661383D01*
X153447500Y-28578050D01*
X155114166Y-28578050D02*
X155114166Y-28661383D01*
X155030833Y-28828050D01*
X154947500Y-28911383D01*
X155030833Y-27578050D02*
X155114166Y-27661383D01*
X155030833Y-27744717D01*
X154947500Y-27661383D01*
X155030833Y-27578050D01*
X155030833Y-27744717D01*
X157030833Y-27494717D02*
X157364166Y-28661383D01*
X157697500Y-27828050D01*
X158030833Y-28661383D01*
X158364166Y-27494717D01*
X159030833Y-28661383D02*
X159030833Y-26911383D01*
X159780833Y-28661383D02*
X159780833Y-27744717D01*
X159697500Y-27578050D01*
X159530833Y-27494717D01*
X159280833Y-27494717D01*
X159114166Y-27578050D01*
X159030833Y-27661383D01*
X160864166Y-28661383D02*
X160697500Y-28578050D01*
X160614166Y-28494717D01*
X160530833Y-28328050D01*
X160530833Y-27828050D01*
X160614166Y-27661383D01*
X160697500Y-27578050D01*
X160864166Y-27494717D01*
X161114166Y-27494717D01*
X161280833Y-27578050D01*
X161364166Y-27661383D01*
X161447500Y-27828050D01*
X161447500Y-28328050D01*
X161364166Y-28494717D01*
X161280833Y-28578050D01*
X161114166Y-28661383D01*
X160864166Y-28661383D01*
X163947500Y-29244717D02*
X163947500Y-26744717D01*
X167280833Y-27494717D02*
X167280833Y-28911383D01*
X167197500Y-29078050D01*
X167114166Y-29161383D01*
X166947500Y-29244717D01*
X166697500Y-29244717D01*
X166530833Y-29161383D01*
X167280833Y-28578050D02*
X167114166Y-28661383D01*
X166780833Y-28661383D01*
X166614166Y-28578050D01*
X166530833Y-28494717D01*
X166447500Y-28328050D01*
X166447500Y-27828050D01*
X166530833Y-27661383D01*
X166614166Y-27578050D01*
X166780833Y-27494717D01*
X167114166Y-27494717D01*
X167280833Y-27578050D01*
X168114166Y-28661383D02*
X168114166Y-27494717D01*
X168114166Y-27828050D02*
X168197500Y-27661383D01*
X168280833Y-27578050D01*
X168447500Y-27494717D01*
X168614166Y-27494717D01*
X169864166Y-28578050D02*
X169697500Y-28661383D01*
X169364166Y-28661383D01*
X169197500Y-28578050D01*
X169114166Y-28411383D01*
X169114166Y-27744717D01*
X169197500Y-27578050D01*
X169364166Y-27494717D01*
X169697500Y-27494717D01*
X169864166Y-27578050D01*
X169947500Y-27744717D01*
X169947500Y-27911383D01*
X169114166Y-28078050D01*
X170697500Y-27494717D02*
X170697500Y-29244717D01*
X170697500Y-27578050D02*
X170864166Y-27494717D01*
X171197500Y-27494717D01*
X171364166Y-27578050D01*
X171447500Y-27661383D01*
X171530833Y-27828050D01*
X171530833Y-28328050D01*
X171447500Y-28494717D01*
X171364166Y-28578050D01*
X171197500Y-28661383D01*
X170864166Y-28661383D01*
X170697500Y-28578050D01*
X173614166Y-27994717D02*
X174947500Y-27994717D01*
X175780833Y-28661383D02*
X175780833Y-27494717D01*
X175780833Y-26911383D02*
X175697500Y-26994717D01*
X175780833Y-27078050D01*
X175864166Y-26994717D01*
X175780833Y-26911383D01*
X175780833Y-27078050D01*
X177947500Y-28661383D02*
X177947500Y-26911383D01*
X177947500Y-27578050D02*
X178114166Y-27494717D01*
X178447500Y-27494717D01*
X178614166Y-27578050D01*
X178697500Y-27661383D01*
X178780833Y-27828050D01*
X178780833Y-28328050D01*
X178697500Y-28494717D01*
X178614166Y-28578050D01*
X178447500Y-28661383D01*
X178114166Y-28661383D01*
X177947500Y-28578050D01*
X179780833Y-28661383D02*
X179614166Y-28578050D01*
X179530833Y-28411383D01*
X179530833Y-26911383D01*
X180697500Y-28661383D02*
X180530833Y-28578050D01*
X180447500Y-28494717D01*
X180364166Y-28328050D01*
X180364166Y-27828050D01*
X180447500Y-27661383D01*
X180530833Y-27578050D01*
X180697500Y-27494717D01*
X180947500Y-27494717D01*
X181114166Y-27578050D01*
X181197500Y-27661383D01*
X181280833Y-27828050D01*
X181280833Y-28328050D01*
X181197500Y-28494717D01*
X181114166Y-28578050D01*
X180947500Y-28661383D01*
X180697500Y-28661383D01*
X182030833Y-27494717D02*
X182030833Y-28661383D01*
X182030833Y-27661383D02*
X182114166Y-27578050D01*
X182280833Y-27494717D01*
X182530833Y-27494717D01*
X182697500Y-27578050D01*
X182780833Y-27744717D01*
X182780833Y-28661383D01*
X184364166Y-28661383D02*
X184364166Y-26911383D01*
X184364166Y-28578050D02*
X184197500Y-28661383D01*
X183864166Y-28661383D01*
X183697500Y-28578050D01*
X183614166Y-28494717D01*
X183530833Y-28328050D01*
X183530833Y-27828050D01*
X183614166Y-27661383D01*
X183697500Y-27578050D01*
X183864166Y-27494717D01*
X184197500Y-27494717D01*
X184364166Y-27578050D01*
X185864166Y-28578050D02*
X185697500Y-28661383D01*
X185364166Y-28661383D01*
X185197500Y-28578050D01*
X185114166Y-28411383D01*
X185114166Y-27744717D01*
X185197500Y-27578050D01*
X185364166Y-27494717D01*
X185697500Y-27494717D01*
X185864166Y-27578050D01*
X185947500Y-27744717D01*
X185947500Y-27911383D01*
X185114166Y-28078050D01*
X188447500Y-29244717D02*
X188447500Y-26744717D01*
X191780833Y-28661383D02*
X191780833Y-26911383D01*
X191780833Y-28578050D02*
X191614166Y-28661383D01*
X191280833Y-28661383D01*
X191114166Y-28578050D01*
X191030833Y-28494717D01*
X190947500Y-28328050D01*
X190947500Y-27828050D01*
X191030833Y-27661383D01*
X191114166Y-27578050D01*
X191280833Y-27494717D01*
X191614166Y-27494717D01*
X191780833Y-27578050D01*
X193364166Y-28661383D02*
X193364166Y-27744717D01*
X193280833Y-27578050D01*
X193114166Y-27494717D01*
X192780833Y-27494717D01*
X192614166Y-27578050D01*
X193364166Y-28578050D02*
X193197500Y-28661383D01*
X192780833Y-28661383D01*
X192614166Y-28578050D01*
X192530833Y-28411383D01*
X192530833Y-28244717D01*
X192614166Y-28078050D01*
X192780833Y-27994717D01*
X193197500Y-27994717D01*
X193364166Y-27911383D01*
X193947500Y-27494717D02*
X194614166Y-27494717D01*
X194197500Y-26911383D02*
X194197500Y-28411383D01*
X194280833Y-28578050D01*
X194447500Y-28661383D01*
X194614166Y-28661383D01*
X195864166Y-28578050D02*
X195697500Y-28661383D01*
X195364166Y-28661383D01*
X195197500Y-28578050D01*
X195114166Y-28411383D01*
X195114166Y-27744717D01*
X195197500Y-27578050D01*
X195364166Y-27494717D01*
X195697500Y-27494717D01*
X195864166Y-27578050D01*
X195947500Y-27744717D01*
X195947500Y-27911383D01*
X195114166Y-28078050D01*
X196780833Y-28578050D02*
X196780833Y-28661383D01*
X196697500Y-28828050D01*
X196614166Y-28911383D01*
X196697500Y-27578050D02*
X196780833Y-27661383D01*
X196697500Y-27744717D01*
X196614166Y-27661383D01*
X196697500Y-27578050D01*
X196697500Y-27744717D01*
X136066666Y-21087097D02*
X135733333Y-20610907D01*
X135495238Y-21087097D02*
X135495238Y-20087097D01*
X135876190Y-20087097D01*
X135971428Y-20134717D01*
X136019047Y-20182336D01*
X136066666Y-20277574D01*
X136066666Y-20420431D01*
X136019047Y-20515669D01*
X135971428Y-20563288D01*
X135876190Y-20610907D01*
X135495238Y-20610907D01*
X136495238Y-20563288D02*
X136828571Y-20563288D01*
X136971428Y-21087097D02*
X136495238Y-21087097D01*
X136495238Y-20087097D01*
X136971428Y-20087097D01*
X137733333Y-20563288D02*
X137400000Y-20563288D01*
X137400000Y-21087097D02*
X137400000Y-20087097D01*
X137876190Y-20087097D01*
X138400000Y-20087097D02*
X138400000Y-20325193D01*
X138161904Y-20229955D02*
X138400000Y-20325193D01*
X138638095Y-20229955D01*
X138257142Y-20515669D02*
X138400000Y-20325193D01*
X138542857Y-20515669D01*
X139161904Y-20087097D02*
X139161904Y-20325193D01*
X138923809Y-20229955D02*
X139161904Y-20325193D01*
X139400000Y-20229955D01*
X139019047Y-20515669D02*
X139161904Y-20325193D01*
X139304761Y-20515669D01*
%LPC*%
D11*
X190300000Y-53534717D03*
X151600000Y-20634717D03*
D12*
X196900000Y-68434717D03*
D13*
X196900000Y-70974717D03*
X196900000Y-73514717D03*
X196900000Y-76054717D03*
X196900000Y-78594717D03*
D12*
X147360000Y-75594717D03*
D13*
X147360000Y-78134717D03*
X149900000Y-75594717D03*
X149900000Y-78134717D03*
X152440000Y-75594717D03*
X152440000Y-78134717D03*
M02*
