  0
SECTION
  2
HEADER
  9
$ANGBASE
  50
0.0
  9
$ANGDIR
  70
1
  9
$MEASUREMENT
  70
0
  0
ENDSEC
  0
SECTION
  2
TABLES
  0
TABLE
  2
LTYPE
  70
4
  0
LTYPE
  5
40F
  2
CONTINUOUS
  70
0
  3
Solid line
  72
65
  73
0
  40
0.0
  0
LTYPE
  5
410
  2
DASHDOT
 70
0
  3
Dash Dot ____ _ ____ _
 72
65
 73
4
 40
2.0
 49
1.25
 49
-0.25
 49
0.25
 49
-0.25
  0
LTYPE
  5
411
  2
DASHED
 70
0
  3
Dashed __ __ __ __ __
 72
65
 73
2
 40
0.75
 49
0.5
 49
-0.25
  0
LTYPE
  5
43B
  2
DOTTED
 70
0
  3
Dotted .  .  .  .
 72
65
 73
2
 40
0.2
 49
0.0
 49
-0.2
  0
ENDTAB
  0
TABLE
  2
STYLE
  70
4
  0
STYLE
  2
KICAD
  70
0
  40
0
  41
1
  42
1
  50
0
  71
0
  3
isocp.shx
  0
STYLE
  2
KICADB
  70
0
  40
0
  41
1
  42
1
  50
0
  71
0
  3
isocp.shx
  0
STYLE
  2
KICADI
  70
0
  40
0
  41
1
  42
1
  50
15
  71
0
  3
isocp.shx
  0
STYLE
  2
KICADBI
  70
0
  40
0
  41
1
  42
1
  50
15
  71
0
  3
isocp.shx
  0
ENDTAB
  0
TABLE
  2
LAYER
  70
1
  0
LAYER
  2
BLACK
  70
0
  62
7
  6
CONTINUOUS
  0
ENDTAB
  0
ENDSEC
  0
SECTION
  2
ENTITIES
0
LINE
8
BLACK
6
CONTINUOUS
10
5.74053
20
-3.14854
11
5.7372
21
-3.14716
0
LINE
8
BLACK
6
CONTINUOUS
10
5.7372
20
-3.14716
11
5.73435
21
-3.14497
0
LINE
8
BLACK
6
CONTINUOUS
10
5.73435
20
-3.14497
11
5.73216
21
-3.14211
0
LINE
8
BLACK
6
CONTINUOUS
10
5.73216
20
-3.14211
11
5.73078
21
-3.13879
0
LINE
8
BLACK
6
CONTINUOUS
10
5.73078
20
-3.13879
11
5.73031
21
-3.13523
0
LINE
8
BLACK
6
CONTINUOUS
10
5.73031
20
-3.13523
11
5.73031
21
-0.599792
0
LINE
8
BLACK
6
CONTINUOUS
10
5.73031
20
-0.599792
11
5.73078
21
-0.596226
0
LINE
8
BLACK
6
CONTINUOUS
10
5.73078
20
-0.596226
11
5.73216
21
-0.592902
0
LINE
8
BLACK
6
CONTINUOUS
10
5.73216
20
-0.592902
11
5.73435
21
-0.590048
0
LINE
8
BLACK
6
CONTINUOUS
10
5.73435
20
-0.590048
11
5.7372
21
-0.587859
0
LINE
8
BLACK
6
CONTINUOUS
10
5.7372
20
-0.587859
11
5.74053
21
-0.586482
0
LINE
8
BLACK
6
CONTINUOUS
10
5.74053
20
-0.586482
11
5.74409
21
-0.586012
0
LINE
8
BLACK
6
CONTINUOUS
10
5.74409
20
-0.586012
11
7.79528
21
-0.586012
0
LINE
8
BLACK
6
CONTINUOUS
10
7.79528
20
-0.586012
11
7.79884
21
-0.586482
0
LINE
8
BLACK
6
CONTINUOUS
10
7.79884
20
-0.586482
11
7.80217
21
-0.587859
0
LINE
8
BLACK
6
CONTINUOUS
10
7.80217
20
-0.587859
11
7.80502
21
-0.590048
0
LINE
8
BLACK
6
CONTINUOUS
10
7.80502
20
-0.590048
11
7.80721
21
-0.592902
0
LINE
8
BLACK
6
CONTINUOUS
10
7.80721
20
-0.592902
11
7.80859
21
-0.596226
0
LINE
8
BLACK
6
CONTINUOUS
10
7.80859
20
-0.596226
11
7.80906
21
-0.599792
0
LINE
8
BLACK
6
CONTINUOUS
10
7.80906
20
-0.599792
11
7.80906
21
-3.13523
0
LINE
8
BLACK
6
CONTINUOUS
10
7.80906
20
-3.13523
11
7.80859
21
-3.13879
0
LINE
8
BLACK
6
CONTINUOUS
10
7.80859
20
-3.13879
11
7.80721
21
-3.14211
0
LINE
8
BLACK
6
CONTINUOUS
10
7.80721
20
-3.14211
11
7.80502
21
-3.14497
0
LINE
8
BLACK
6
CONTINUOUS
10
7.80502
20
-3.14497
11
7.80217
21
-3.14716
0
LINE
8
BLACK
6
CONTINUOUS
10
7.80217
20
-3.14716
11
7.79884
21
-3.14854
0
LINE
8
BLACK
6
CONTINUOUS
10
7.79884
20
-3.14854
11
7.79528
21
-3.149
0
LINE
8
BLACK
6
CONTINUOUS
10
7.79528
20
-3.149
11
5.74409
21
-3.149
0
LINE
8
BLACK
6
CONTINUOUS
10
5.74409
20
-3.149
11
5.74053
21
-3.14854
0
LINE
8
BLACK
6
CONTINUOUS
10
5.74388
20
-0.589861
11
5.74102
21
-0.590315
0
LINE
8
BLACK
6
CONTINUOUS
10
5.74102
20
-0.590315
11
5.73824
21
-0.59173
0
LINE
8
BLACK
6
CONTINUOUS
10
5.73824
20
-0.59173
11
5.73603
21
-0.593935
0
LINE
8
BLACK
6
CONTINUOUS
10
5.73603
20
-0.593935
11
5.73462
21
-0.596713
0
LINE
8
BLACK
6
CONTINUOUS
10
5.73462
20
-0.596713
11
5.73416
21
-0.599578
0
LINE
8
BLACK
6
CONTINUOUS
10
5.73416
20
-0.599578
11
5.73425
21
-0.599792
0
LINE
8
BLACK
6
CONTINUOUS
10
5.73425
20
-0.599792
11
5.73425
21
-3.13523
0
LINE
8
BLACK
6
CONTINUOUS
10
5.73425
20
-3.13523
11
5.73416
21
-3.13544
0
LINE
8
BLACK
6
CONTINUOUS
10
5.73416
20
-3.13544
11
5.73462
21
-3.1383
0
LINE
8
BLACK
6
CONTINUOUS
10
5.73462
20
-3.1383
11
5.73603
21
-3.14108
0
LINE
8
BLACK
6
CONTINUOUS
10
5.73603
20
-3.14108
11
5.73824
21
-3.14329
0
LINE
8
BLACK
6
CONTINUOUS
10
5.73824
20
-3.14329
11
5.74102
21
-3.1447
0
LINE
8
BLACK
6
CONTINUOUS
10
5.74102
20
-3.1447
11
5.74388
21
-3.14516
0
LINE
8
BLACK
6
CONTINUOUS
10
5.74388
20
-3.14516
11
5.74409
21
-3.14507
0
LINE
8
BLACK
6
CONTINUOUS
10
5.74409
20
-3.14507
11
7.79528
21
-3.14507
0
LINE
8
BLACK
6
CONTINUOUS
10
7.79528
20
-3.14507
11
7.79549
21
-3.14516
0
LINE
8
BLACK
6
CONTINUOUS
10
7.79549
20
-3.14516
11
7.79835
21
-3.1447
0
LINE
8
BLACK
6
CONTINUOUS
10
7.79835
20
-3.1447
11
7.80113
21
-3.14329
0
LINE
8
BLACK
6
CONTINUOUS
10
7.80113
20
-3.14329
11
7.80334
21
-3.14108
0
LINE
8
BLACK
6
CONTINUOUS
10
7.80334
20
-3.14108
11
7.80475
21
-3.1383
0
LINE
8
BLACK
6
CONTINUOUS
10
7.80475
20
-3.1383
11
7.80521
21
-3.13544
0
LINE
8
BLACK
6
CONTINUOUS
10
7.80521
20
-3.13544
11
7.80512
21
-3.13523
0
LINE
8
BLACK
6
CONTINUOUS
10
7.80512
20
-3.13523
11
7.80512
21
-0.599792
0
LINE
8
BLACK
6
CONTINUOUS
10
7.80512
20
-0.599792
11
7.80521
21
-0.599578
0
LINE
8
BLACK
6
CONTINUOUS
10
7.80521
20
-0.599578
11
7.80475
21
-0.596713
0
LINE
8
BLACK
6
CONTINUOUS
10
7.80475
20
-0.596713
11
7.80334
21
-0.593935
0
LINE
8
BLACK
6
CONTINUOUS
10
7.80334
20
-0.593935
11
7.80113
21
-0.59173
0
LINE
8
BLACK
6
CONTINUOUS
10
7.80113
20
-0.59173
11
7.79835
21
-0.590315
0
LINE
8
BLACK
6
CONTINUOUS
10
7.79835
20
-0.590315
11
7.79549
21
-0.589861
0
LINE
8
BLACK
6
CONTINUOUS
10
7.79549
20
-0.589861
11
7.79528
21
-0.589949
0
LINE
8
BLACK
6
CONTINUOUS
10
7.79528
20
-0.589949
11
5.74409
21
-0.589949
0
LINE
8
BLACK
6
CONTINUOUS
10
5.74409
20
-0.589949
11
5.74388
21
-0.589861
  0
ENDSEC
  0
EOF
