G04 #@! TF.GenerationSoftware,KiCad,Pcbnew,(6.0.2)*
G04 #@! TF.CreationDate,2022-06-03T10:10:03-07:00*
G04 #@! TF.ProjectId,iflfu-top,69666c66-752d-4746-9f70-2e6b69636164,rev?*
G04 #@! TF.SameCoordinates,Original*
G04 #@! TF.FileFunction,Legend,Bot*
G04 #@! TF.FilePolarity,Positive*
%FSLAX46Y46*%
G04 Gerber Fmt 4.6, Leading zero omitted, Abs format (unit mm)*
G04 Created by KiCad (PCBNEW (6.0.2)) date 2022-06-03 10:10:03*
%MOMM*%
%LPD*%
G01*
G04 APERTURE LIST*
G04 Aperture macros list*
%AMRoundRect*
0 Rectangle with rounded corners*
0 $1 Rounding radius*
0 $2 $3 $4 $5 $6 $7 $8 $9 X,Y pos of 4 corners*
0 Add a 4 corners polygon primitive as box body*
4,1,4,$2,$3,$4,$5,$6,$7,$8,$9,$2,$3,0*
0 Add four circle primitives for the rounded corners*
1,1,$1+$1,$2,$3*
1,1,$1+$1,$4,$5*
1,1,$1+$1,$6,$7*
1,1,$1+$1,$8,$9*
0 Add four rect primitives between the rounded corners*
20,1,$1+$1,$2,$3,$4,$5,0*
20,1,$1+$1,$4,$5,$6,$7,0*
20,1,$1+$1,$6,$7,$8,$9,0*
20,1,$1+$1,$8,$9,$2,$3,0*%
G04 Aperture macros list end*
%ADD10C,0.187500*%
%ADD11C,0.150000*%
%ADD12C,0.120000*%
%ADD13C,1.000000*%
%ADD14RoundRect,0.444500X0.444500X0.555500X-0.444500X0.555500X-0.444500X-0.555500X0.444500X-0.555500X0*%
%ADD15RoundRect,0.444500X0.555500X-0.444500X0.555500X0.444500X-0.555500X0.444500X-0.555500X-0.444500X0*%
%ADD16RoundRect,0.150000X-0.150000X0.587500X-0.150000X-0.587500X0.150000X-0.587500X0.150000X0.587500X0*%
%ADD17RoundRect,0.237500X0.237500X-0.250000X0.237500X0.250000X-0.237500X0.250000X-0.237500X-0.250000X0*%
%ADD18R,2.000000X2.000000*%
%ADD19RoundRect,0.237500X0.237500X-0.300000X0.237500X0.300000X-0.237500X0.300000X-0.237500X-0.300000X0*%
%ADD20RoundRect,0.150000X0.150000X-0.587500X0.150000X0.587500X-0.150000X0.587500X-0.150000X-0.587500X0*%
%ADD21R,1.700000X1.700000*%
%ADD22O,1.700000X1.700000*%
%ADD23RoundRect,0.150000X-0.150000X0.512500X-0.150000X-0.512500X0.150000X-0.512500X0.150000X0.512500X0*%
G04 APERTURE END LIST*
D10*
X147982142Y-79059717D02*
X148053571Y-79024002D01*
X148160714Y-79024002D01*
X148267857Y-79059717D01*
X148339285Y-79131145D01*
X148375000Y-79202574D01*
X148410714Y-79345431D01*
X148410714Y-79452574D01*
X148375000Y-79595431D01*
X148339285Y-79666859D01*
X148267857Y-79738288D01*
X148160714Y-79774002D01*
X148089285Y-79774002D01*
X147982142Y-79738288D01*
X147946428Y-79702574D01*
X147946428Y-79452574D01*
X148089285Y-79452574D01*
X147625000Y-79274002D02*
X147625000Y-79774002D01*
X147625000Y-79345431D02*
X147589285Y-79309717D01*
X147517857Y-79274002D01*
X147410714Y-79274002D01*
X147339285Y-79309717D01*
X147303571Y-79381145D01*
X147303571Y-79774002D01*
X146625000Y-79774002D02*
X146625000Y-79024002D01*
X146625000Y-79738288D02*
X146696428Y-79774002D01*
X146839285Y-79774002D01*
X146910714Y-79738288D01*
X146946428Y-79702574D01*
X146982142Y-79631145D01*
X146982142Y-79416859D01*
X146946428Y-79345431D01*
X146910714Y-79309717D01*
X146839285Y-79274002D01*
X146696428Y-79274002D01*
X146625000Y-79309717D01*
D11*
X195100000Y-68188859D02*
X195052380Y-68105717D01*
X195052380Y-67981002D01*
X195100000Y-67856288D01*
X195195238Y-67773145D01*
X195290476Y-67731574D01*
X195480952Y-67690002D01*
X195623809Y-67690002D01*
X195814285Y-67731574D01*
X195909523Y-67773145D01*
X196004761Y-67856288D01*
X196052380Y-67981002D01*
X196052380Y-68064145D01*
X196004761Y-68188859D01*
X195957142Y-68230431D01*
X195623809Y-68230431D01*
X195623809Y-68064145D01*
X196052380Y-71098859D02*
X195576190Y-70807859D01*
X196052380Y-70600002D02*
X195052380Y-70600002D01*
X195052380Y-70932574D01*
X195100000Y-71015717D01*
X195147619Y-71057288D01*
X195242857Y-71098859D01*
X195385714Y-71098859D01*
X195480952Y-71057288D01*
X195528571Y-71015717D01*
X195576190Y-70932574D01*
X195576190Y-70600002D01*
X195957142Y-73967288D02*
X196004761Y-73925717D01*
X196052380Y-73801002D01*
X196052380Y-73717859D01*
X196004761Y-73593145D01*
X195909523Y-73510002D01*
X195814285Y-73468431D01*
X195623809Y-73426859D01*
X195480952Y-73426859D01*
X195290476Y-73468431D01*
X195195238Y-73510002D01*
X195100000Y-73593145D01*
X195052380Y-73717859D01*
X195052380Y-73801002D01*
X195100000Y-73925717D01*
X195147619Y-73967288D01*
X196052380Y-76336859D02*
X195052380Y-76336859D01*
X195052380Y-76544717D01*
X195100000Y-76669431D01*
X195195238Y-76752574D01*
X195290476Y-76794145D01*
X195480952Y-76835717D01*
X195623809Y-76835717D01*
X195814285Y-76794145D01*
X195909523Y-76752574D01*
X196004761Y-76669431D01*
X196052380Y-76544717D01*
X196052380Y-76336859D01*
X195052380Y-79080574D02*
X196052380Y-79371574D01*
X195052380Y-79662574D01*
D10*
X148592857Y-73524002D02*
X148342857Y-74274002D01*
X148092857Y-73524002D01*
X147521428Y-74238288D02*
X147592857Y-74274002D01*
X147735714Y-74274002D01*
X147807142Y-74238288D01*
X147842857Y-74202574D01*
X147878571Y-74131145D01*
X147878571Y-73916859D01*
X147842857Y-73845431D01*
X147807142Y-73809717D01*
X147735714Y-73774002D01*
X147592857Y-73774002D01*
X147521428Y-73809717D01*
X146878571Y-74238288D02*
X146950000Y-74274002D01*
X147092857Y-74274002D01*
X147164285Y-74238288D01*
X147200000Y-74202574D01*
X147235714Y-74131145D01*
X147235714Y-73916859D01*
X147200000Y-73845431D01*
X147164285Y-73809717D01*
X147092857Y-73774002D01*
X146950000Y-73774002D01*
X146878571Y-73809717D01*
D11*
X194195238Y-68082336D02*
X194290476Y-68034717D01*
X194385714Y-67939478D01*
X194528571Y-67796621D01*
X194623809Y-67749002D01*
X194719047Y-67749002D01*
X194671428Y-67987097D02*
X194766666Y-67939478D01*
X194861904Y-67844240D01*
X194909523Y-67653764D01*
X194909523Y-67320431D01*
X194861904Y-67129955D01*
X194766666Y-67034717D01*
X194671428Y-66987097D01*
X194480952Y-66987097D01*
X194385714Y-67034717D01*
X194290476Y-67129955D01*
X194242857Y-67320431D01*
X194242857Y-67653764D01*
X194290476Y-67844240D01*
X194385714Y-67939478D01*
X194480952Y-67987097D01*
X194671428Y-67987097D01*
X193290476Y-67987097D02*
X193861904Y-67987097D01*
X193576190Y-67987097D02*
X193576190Y-66987097D01*
X193671428Y-67129955D01*
X193766666Y-67225193D01*
X193861904Y-67272812D01*
X194366666Y-78087097D02*
X194700000Y-77610907D01*
X194938095Y-78087097D02*
X194938095Y-77087097D01*
X194557142Y-77087097D01*
X194461904Y-77134717D01*
X194414285Y-77182336D01*
X194366666Y-77277574D01*
X194366666Y-77420431D01*
X194414285Y-77515669D01*
X194461904Y-77563288D01*
X194557142Y-77610907D01*
X194938095Y-77610907D01*
X193509523Y-77420431D02*
X193509523Y-78087097D01*
X193747619Y-77039478D02*
X193985714Y-77753764D01*
X193366666Y-77753764D01*
X158345833Y-75276597D02*
X158345833Y-75990883D01*
X158393452Y-76133740D01*
X158488690Y-76228978D01*
X158631547Y-76276597D01*
X158726785Y-76276597D01*
X157441071Y-75609931D02*
X157441071Y-76276597D01*
X157679166Y-75228978D02*
X157917261Y-75943264D01*
X157298214Y-75943264D01*
X196833333Y-18587097D02*
X196833333Y-19301383D01*
X196880952Y-19444240D01*
X196976190Y-19539478D01*
X197119047Y-19587097D01*
X197214285Y-19587097D01*
X195928571Y-18587097D02*
X196119047Y-18587097D01*
X196214285Y-18634717D01*
X196261904Y-18682336D01*
X196357142Y-18825193D01*
X196404761Y-19015669D01*
X196404761Y-19396621D01*
X196357142Y-19491859D01*
X196309523Y-19539478D01*
X196214285Y-19587097D01*
X196023809Y-19587097D01*
X195928571Y-19539478D01*
X195880952Y-19491859D01*
X195833333Y-19396621D01*
X195833333Y-19158526D01*
X195880952Y-19063288D01*
X195928571Y-19015669D01*
X196023809Y-18968050D01*
X196214285Y-18968050D01*
X196309523Y-19015669D01*
X196357142Y-19063288D01*
X196404761Y-19158526D01*
X148109523Y-63389097D02*
X148109523Y-64103383D01*
X148157142Y-64246240D01*
X148252380Y-64341478D01*
X148395238Y-64389097D01*
X148490476Y-64389097D01*
X147109523Y-64389097D02*
X147680952Y-64389097D01*
X147395238Y-64389097D02*
X147395238Y-63389097D01*
X147490476Y-63531955D01*
X147585714Y-63627193D01*
X147680952Y-63674812D01*
X146490476Y-63389097D02*
X146395238Y-63389097D01*
X146300000Y-63436717D01*
X146252380Y-63484336D01*
X146204761Y-63579574D01*
X146157142Y-63770050D01*
X146157142Y-64008145D01*
X146204761Y-64198621D01*
X146252380Y-64293859D01*
X146300000Y-64341478D01*
X146395238Y-64389097D01*
X146490476Y-64389097D01*
X146585714Y-64341478D01*
X146633333Y-64293859D01*
X146680952Y-64198621D01*
X146728571Y-64008145D01*
X146728571Y-63770050D01*
X146680952Y-63579574D01*
X146633333Y-63484336D01*
X146585714Y-63436717D01*
X146490476Y-63389097D01*
X148209523Y-18887097D02*
X148209523Y-19601383D01*
X148257142Y-19744240D01*
X148352380Y-19839478D01*
X148495238Y-19887097D01*
X148590476Y-19887097D01*
X147209523Y-19887097D02*
X147780952Y-19887097D01*
X147495238Y-19887097D02*
X147495238Y-18887097D01*
X147590476Y-19029955D01*
X147685714Y-19125193D01*
X147780952Y-19172812D01*
X146257142Y-19887097D02*
X146828571Y-19887097D01*
X146542857Y-19887097D02*
X146542857Y-18887097D01*
X146638095Y-19029955D01*
X146733333Y-19125193D01*
X146828571Y-19172812D01*
X149282380Y-71568050D02*
X148806190Y-71234717D01*
X149282380Y-70996621D02*
X148282380Y-70996621D01*
X148282380Y-71377574D01*
X148330000Y-71472812D01*
X148377619Y-71520431D01*
X148472857Y-71568050D01*
X148615714Y-71568050D01*
X148710952Y-71520431D01*
X148758571Y-71472812D01*
X148806190Y-71377574D01*
X148806190Y-70996621D01*
X148282380Y-72472812D02*
X148282380Y-71996621D01*
X148758571Y-71949002D01*
X148710952Y-71996621D01*
X148663333Y-72091859D01*
X148663333Y-72329955D01*
X148710952Y-72425193D01*
X148758571Y-72472812D01*
X148853809Y-72520431D01*
X149091904Y-72520431D01*
X149187142Y-72472812D01*
X149234761Y-72425193D01*
X149282380Y-72329955D01*
X149282380Y-72091859D01*
X149234761Y-71996621D01*
X149187142Y-71949002D01*
X194266666Y-69187097D02*
X194600000Y-68710907D01*
X194838095Y-69187097D02*
X194838095Y-68187097D01*
X194457142Y-68187097D01*
X194361904Y-68234717D01*
X194314285Y-68282336D01*
X194266666Y-68377574D01*
X194266666Y-68520431D01*
X194314285Y-68615669D01*
X194361904Y-68663288D01*
X194457142Y-68710907D01*
X194838095Y-68710907D01*
X193885714Y-68282336D02*
X193838095Y-68234717D01*
X193742857Y-68187097D01*
X193504761Y-68187097D01*
X193409523Y-68234717D01*
X193361904Y-68282336D01*
X193314285Y-68377574D01*
X193314285Y-68472812D01*
X193361904Y-68615669D01*
X193933333Y-69187097D01*
X193314285Y-69187097D01*
X187266666Y-79387097D02*
X187600000Y-78910907D01*
X187838095Y-79387097D02*
X187838095Y-78387097D01*
X187457142Y-78387097D01*
X187361904Y-78434717D01*
X187314285Y-78482336D01*
X187266666Y-78577574D01*
X187266666Y-78720431D01*
X187314285Y-78815669D01*
X187361904Y-78863288D01*
X187457142Y-78910907D01*
X187838095Y-78910907D01*
X186933333Y-78387097D02*
X186314285Y-78387097D01*
X186647619Y-78768050D01*
X186504761Y-78768050D01*
X186409523Y-78815669D01*
X186361904Y-78863288D01*
X186314285Y-78958526D01*
X186314285Y-79196621D01*
X186361904Y-79291859D01*
X186409523Y-79339478D01*
X186504761Y-79387097D01*
X186790476Y-79387097D01*
X186885714Y-79339478D01*
X186933333Y-79291859D01*
X187757142Y-72468050D02*
X187804761Y-72420431D01*
X187852380Y-72277574D01*
X187852380Y-72182336D01*
X187804761Y-72039478D01*
X187709523Y-71944240D01*
X187614285Y-71896621D01*
X187423809Y-71849002D01*
X187280952Y-71849002D01*
X187090476Y-71896621D01*
X186995238Y-71944240D01*
X186900000Y-72039478D01*
X186852380Y-72182336D01*
X186852380Y-72277574D01*
X186900000Y-72420431D01*
X186947619Y-72468050D01*
X187852380Y-73420431D02*
X187852380Y-72849002D01*
X187852380Y-73134717D02*
X186852380Y-73134717D01*
X186995238Y-73039478D01*
X187090476Y-72944240D01*
X187138095Y-72849002D01*
X194195238Y-79582336D02*
X194290476Y-79534717D01*
X194385714Y-79439478D01*
X194528571Y-79296621D01*
X194623809Y-79249002D01*
X194719047Y-79249002D01*
X194671428Y-79487097D02*
X194766666Y-79439478D01*
X194861904Y-79344240D01*
X194909523Y-79153764D01*
X194909523Y-78820431D01*
X194861904Y-78629955D01*
X194766666Y-78534717D01*
X194671428Y-78487097D01*
X194480952Y-78487097D01*
X194385714Y-78534717D01*
X194290476Y-78629955D01*
X194242857Y-78820431D01*
X194242857Y-79153764D01*
X194290476Y-79344240D01*
X194385714Y-79439478D01*
X194480952Y-79487097D01*
X194671428Y-79487097D01*
X193861904Y-78582336D02*
X193814285Y-78534717D01*
X193719047Y-78487097D01*
X193480952Y-78487097D01*
X193385714Y-78534717D01*
X193338095Y-78582336D01*
X193290476Y-78677574D01*
X193290476Y-78772812D01*
X193338095Y-78915669D01*
X193909523Y-79487097D01*
X193290476Y-79487097D01*
X194533333Y-65787097D02*
X194533333Y-66501383D01*
X194580952Y-66644240D01*
X194676190Y-66739478D01*
X194819047Y-66787097D01*
X194914285Y-66787097D01*
X193914285Y-66215669D02*
X194009523Y-66168050D01*
X194057142Y-66120431D01*
X194104761Y-66025193D01*
X194104761Y-65977574D01*
X194057142Y-65882336D01*
X194009523Y-65834717D01*
X193914285Y-65787097D01*
X193723809Y-65787097D01*
X193628571Y-65834717D01*
X193580952Y-65882336D01*
X193533333Y-65977574D01*
X193533333Y-66025193D01*
X193580952Y-66120431D01*
X193628571Y-66168050D01*
X193723809Y-66215669D01*
X193914285Y-66215669D01*
X194009523Y-66263288D01*
X194057142Y-66310907D01*
X194104761Y-66406145D01*
X194104761Y-66596621D01*
X194057142Y-66691859D01*
X194009523Y-66739478D01*
X193914285Y-66787097D01*
X193723809Y-66787097D01*
X193628571Y-66739478D01*
X193580952Y-66691859D01*
X193533333Y-66596621D01*
X193533333Y-66406145D01*
X193580952Y-66310907D01*
X193628571Y-66263288D01*
X193723809Y-66215669D01*
X196833333Y-63289097D02*
X196833333Y-64003383D01*
X196880952Y-64146240D01*
X196976190Y-64241478D01*
X197119047Y-64289097D01*
X197214285Y-64289097D01*
X195880952Y-63289097D02*
X196357142Y-63289097D01*
X196404761Y-63765288D01*
X196357142Y-63717669D01*
X196261904Y-63670050D01*
X196023809Y-63670050D01*
X195928571Y-63717669D01*
X195880952Y-63765288D01*
X195833333Y-63860526D01*
X195833333Y-64098621D01*
X195880952Y-64193859D01*
X195928571Y-64241478D01*
X196023809Y-64289097D01*
X196261904Y-64289097D01*
X196357142Y-64241478D01*
X196404761Y-64193859D01*
X186133333Y-74089097D02*
X186133333Y-74803383D01*
X186180952Y-74946240D01*
X186276190Y-75041478D01*
X186419047Y-75089097D01*
X186514285Y-75089097D01*
X185752380Y-74089097D02*
X185085714Y-74089097D01*
X185514285Y-75089097D01*
X154252380Y-76401383D02*
X154966666Y-76401383D01*
X155109523Y-76353764D01*
X155204761Y-76258526D01*
X155252380Y-76115669D01*
X155252380Y-76020431D01*
X155252380Y-77401383D02*
X155252380Y-76829955D01*
X155252380Y-77115669D02*
X154252380Y-77115669D01*
X154395238Y-77020431D01*
X154490476Y-76925193D01*
X154538095Y-76829955D01*
X158333333Y-68189097D02*
X158333333Y-68903383D01*
X158380952Y-69046240D01*
X158476190Y-69141478D01*
X158619047Y-69189097D01*
X158714285Y-69189097D01*
X157809523Y-69189097D02*
X157619047Y-69189097D01*
X157523809Y-69141478D01*
X157476190Y-69093859D01*
X157380952Y-68951002D01*
X157333333Y-68760526D01*
X157333333Y-68379574D01*
X157380952Y-68284336D01*
X157428571Y-68236717D01*
X157523809Y-68189097D01*
X157714285Y-68189097D01*
X157809523Y-68236717D01*
X157857142Y-68284336D01*
X157904761Y-68379574D01*
X157904761Y-68617669D01*
X157857142Y-68712907D01*
X157809523Y-68760526D01*
X157714285Y-68808145D01*
X157523809Y-68808145D01*
X157428571Y-68760526D01*
X157380952Y-68712907D01*
X157333333Y-68617669D01*
X187366666Y-71387097D02*
X187700000Y-70910907D01*
X187938095Y-71387097D02*
X187938095Y-70387097D01*
X187557142Y-70387097D01*
X187461904Y-70434717D01*
X187414285Y-70482336D01*
X187366666Y-70577574D01*
X187366666Y-70720431D01*
X187414285Y-70815669D01*
X187461904Y-70863288D01*
X187557142Y-70910907D01*
X187938095Y-70910907D01*
X186414285Y-71387097D02*
X186985714Y-71387097D01*
X186700000Y-71387097D02*
X186700000Y-70387097D01*
X186795238Y-70529955D01*
X186890476Y-70625193D01*
X186985714Y-70672812D01*
X152833333Y-64639097D02*
X152833333Y-65353383D01*
X152880952Y-65496240D01*
X152976190Y-65591478D01*
X153119047Y-65639097D01*
X153214285Y-65639097D01*
X152404761Y-64734336D02*
X152357142Y-64686717D01*
X152261904Y-64639097D01*
X152023809Y-64639097D01*
X151928571Y-64686717D01*
X151880952Y-64734336D01*
X151833333Y-64829574D01*
X151833333Y-64924812D01*
X151880952Y-65067669D01*
X152452380Y-65639097D01*
X151833333Y-65639097D01*
X186133333Y-66224097D02*
X186133333Y-66938383D01*
X186180952Y-67081240D01*
X186276190Y-67176478D01*
X186419047Y-67224097D01*
X186514285Y-67224097D01*
X185752380Y-66224097D02*
X185133333Y-66224097D01*
X185466666Y-66605050D01*
X185323809Y-66605050D01*
X185228571Y-66652669D01*
X185180952Y-66700288D01*
X185133333Y-66795526D01*
X185133333Y-67033621D01*
X185180952Y-67128859D01*
X185228571Y-67176478D01*
X185323809Y-67224097D01*
X185609523Y-67224097D01*
X185704761Y-67176478D01*
X185752380Y-67128859D01*
X189361904Y-74487097D02*
X189361904Y-75296621D01*
X189314285Y-75391859D01*
X189266666Y-75439478D01*
X189171428Y-75487097D01*
X188980952Y-75487097D01*
X188885714Y-75439478D01*
X188838095Y-75391859D01*
X188790476Y-75296621D01*
X188790476Y-74487097D01*
X187790476Y-75487097D02*
X188361904Y-75487097D01*
X188076190Y-75487097D02*
X188076190Y-74487097D01*
X188171428Y-74629955D01*
X188266666Y-74725193D01*
X188361904Y-74772812D01*
D12*
X192960000Y-69034717D02*
X192960000Y-69684717D01*
X189840000Y-69034717D02*
X189840000Y-67359717D01*
X192960000Y-69034717D02*
X192960000Y-68384717D01*
X189840000Y-69034717D02*
X189840000Y-69684717D01*
X194622500Y-75489441D02*
X194622500Y-74979993D01*
X193577500Y-75489441D02*
X193577500Y-74979993D01*
X156812500Y-79022217D02*
X159212500Y-79022217D01*
X159212500Y-79022217D02*
X159212500Y-76622217D01*
X159212500Y-76622217D02*
X156812500Y-76622217D01*
X156812500Y-76622217D02*
X156812500Y-79022217D01*
X195300000Y-16004717D02*
X195300000Y-18404717D01*
X197700000Y-18404717D02*
X197700000Y-16004717D01*
X197700000Y-16004717D02*
X195300000Y-16004717D01*
X195300000Y-18404717D02*
X197700000Y-18404717D01*
X148500000Y-64734717D02*
X146100000Y-64734717D01*
X146100000Y-67134717D02*
X148500000Y-67134717D01*
X146100000Y-64734717D02*
X146100000Y-67134717D01*
X148500000Y-67134717D02*
X148500000Y-64734717D01*
X146100000Y-15734717D02*
X146100000Y-18134717D01*
X148500000Y-18134717D02*
X148500000Y-15734717D01*
X148500000Y-15734717D02*
X146100000Y-15734717D01*
X146100000Y-18134717D02*
X148500000Y-18134717D01*
X146877500Y-71989441D02*
X146877500Y-71479993D01*
X147922500Y-71989441D02*
X147922500Y-71479993D01*
X194522500Y-71189441D02*
X194522500Y-70679993D01*
X193477500Y-71189441D02*
X193477500Y-70679993D01*
X189422500Y-77789441D02*
X189422500Y-77279993D01*
X188377500Y-77789441D02*
X188377500Y-77279993D01*
X189310000Y-72680984D02*
X189310000Y-72388450D01*
X188290000Y-72680984D02*
X188290000Y-72388450D01*
X193010000Y-77334717D02*
X193010000Y-76684717D01*
X189890000Y-77334717D02*
X189890000Y-76684717D01*
X189890000Y-77334717D02*
X189890000Y-77984717D01*
X193010000Y-77334717D02*
X193010000Y-79009717D01*
X198230000Y-79924717D02*
X195570000Y-79924717D01*
X198230000Y-69704717D02*
X198230000Y-79924717D01*
X195570000Y-69704717D02*
X195570000Y-79924717D01*
X198230000Y-68434717D02*
X198230000Y-67104717D01*
X198230000Y-69704717D02*
X195570000Y-69704717D01*
X198230000Y-67104717D02*
X196900000Y-67104717D01*
X197700000Y-67034717D02*
X197700000Y-64634717D01*
X195300000Y-64634717D02*
X195300000Y-67034717D01*
X197700000Y-64634717D02*
X195300000Y-64634717D01*
X195300000Y-67034717D02*
X197700000Y-67034717D01*
X184600000Y-77834717D02*
X187000000Y-77834717D01*
X187000000Y-77834717D02*
X187000000Y-75434717D01*
X187000000Y-75434717D02*
X184600000Y-75434717D01*
X184600000Y-75434717D02*
X184600000Y-77834717D01*
X148630000Y-74264717D02*
X153770000Y-74264717D01*
X146030000Y-74264717D02*
X146030000Y-75594717D01*
X148630000Y-74264717D02*
X148630000Y-76864717D01*
X146030000Y-76864717D02*
X146030000Y-79464717D01*
X147360000Y-74264717D02*
X146030000Y-74264717D01*
X148630000Y-76864717D02*
X146030000Y-76864717D01*
X146030000Y-79464717D02*
X153770000Y-79464717D01*
X153770000Y-74264717D02*
X153770000Y-79464717D01*
X156800000Y-71934717D02*
X159200000Y-71934717D01*
X159200000Y-71934717D02*
X159200000Y-69534717D01*
X159200000Y-69534717D02*
X156800000Y-69534717D01*
X156800000Y-69534717D02*
X156800000Y-71934717D01*
X188277500Y-69289441D02*
X188277500Y-68779993D01*
X189322500Y-69289441D02*
X189322500Y-68779993D01*
X151300000Y-65984717D02*
X151300000Y-68384717D01*
X153700000Y-68384717D02*
X153700000Y-65984717D01*
X153700000Y-65984717D02*
X151300000Y-65984717D01*
X151300000Y-68384717D02*
X153700000Y-68384717D01*
X184600000Y-69969717D02*
X187000000Y-69969717D01*
X184600000Y-67569717D02*
X184600000Y-69969717D01*
X187000000Y-69969717D02*
X187000000Y-67569717D01*
X187000000Y-67569717D02*
X184600000Y-67569717D01*
X189840000Y-73034717D02*
X189840000Y-71234717D01*
X189840000Y-73034717D02*
X189840000Y-73834717D01*
X192960000Y-73034717D02*
X192960000Y-73834717D01*
X192960000Y-73034717D02*
X192960000Y-72234717D01*
%LPC*%
D13*
X190300000Y-53534717D03*
X151600000Y-20634717D03*
D14*
X152500000Y-67184717D03*
D15*
X158000000Y-77834717D03*
X196500000Y-65834717D03*
X185800000Y-68769717D03*
X196500000Y-17204717D03*
D16*
X192350000Y-68097217D03*
X190450000Y-68097217D03*
X191400000Y-69972217D03*
D17*
X194100000Y-76147217D03*
X194100000Y-74322217D03*
D18*
X158012500Y-77822217D03*
X196500000Y-17204717D03*
X147300000Y-65934717D03*
X147300000Y-16934717D03*
D17*
X147400000Y-72647217D03*
X147400000Y-70822217D03*
X194000000Y-71847217D03*
X194000000Y-70022217D03*
X188900000Y-78447217D03*
X188900000Y-76622217D03*
D19*
X188800000Y-73397217D03*
X188800000Y-71672217D03*
D20*
X190500000Y-78272217D03*
X192400000Y-78272217D03*
X191450000Y-76397217D03*
D21*
X196900000Y-68434717D03*
D22*
X196900000Y-70974717D03*
X196900000Y-73514717D03*
X196900000Y-76054717D03*
X196900000Y-78594717D03*
D18*
X196500000Y-65834717D03*
X185800000Y-76634717D03*
D21*
X147360000Y-75594717D03*
D22*
X147360000Y-78134717D03*
X149900000Y-75594717D03*
X149900000Y-78134717D03*
X152440000Y-75594717D03*
X152440000Y-78134717D03*
D18*
X158000000Y-70734717D03*
D17*
X188800000Y-69947217D03*
X188800000Y-68122217D03*
D18*
X152500000Y-67184717D03*
X185800000Y-68769717D03*
D23*
X190450000Y-71897217D03*
X191400000Y-71897217D03*
X192350000Y-71897217D03*
X192350000Y-74172217D03*
X191400000Y-74172217D03*
X190450000Y-74172217D03*
M02*
