%TF.GenerationSoftware,KiCad,Pcbnew,(6.0.2)*%
%TF.CreationDate,2022-03-28T13:54:43-07:00*%
%TF.ProjectId,i-fucking-love-fucking-you,692d6675-636b-4696-9e67-2d6c6f76652d,rev?*%
%TF.SameCoordinates,Original*%
%TF.FileFunction,Legend,Bot*%
%TF.FilePolarity,Positive*%
%FSLAX46Y46*%
G04 Gerber Fmt 4.6, Leading zero omitted, Abs format (unit mm)*
G04 Created by KiCad (PCBNEW (6.0.2)) date 2022-03-28 13:54:43*
%MOMM*%
%LPD*%
G01*
G04 APERTURE LIST*
%ADD10C,0.150000*%
%ADD11C,0.120000*%
G04 APERTURE END LIST*
D10*
%TO.C,R1*%
X149282380Y-71568050D02*
X148806190Y-71234717D01*
X149282380Y-70996621D02*
X148282380Y-70996621D01*
X148282380Y-71377574D01*
X148330000Y-71472812D01*
X148377619Y-71520431D01*
X148472857Y-71568050D01*
X148615714Y-71568050D01*
X148710952Y-71520431D01*
X148758571Y-71472812D01*
X148806190Y-71377574D01*
X148806190Y-70996621D01*
X149282380Y-72520431D02*
X149282380Y-71949002D01*
X149282380Y-72234717D02*
X148282380Y-72234717D01*
X148425238Y-72139478D01*
X148520476Y-72044240D01*
X148568095Y-71949002D01*
%TO.C,R3*%
X194552380Y-77368050D02*
X194076190Y-77034717D01*
X194552380Y-76796621D02*
X193552380Y-76796621D01*
X193552380Y-77177574D01*
X193600000Y-77272812D01*
X193647619Y-77320431D01*
X193742857Y-77368050D01*
X193885714Y-77368050D01*
X193980952Y-77320431D01*
X194028571Y-77272812D01*
X194076190Y-77177574D01*
X194076190Y-76796621D01*
X193552380Y-77701383D02*
X193552380Y-78320431D01*
X193933333Y-77987097D01*
X193933333Y-78129955D01*
X193980952Y-78225193D01*
X194028571Y-78272812D01*
X194123809Y-78320431D01*
X194361904Y-78320431D01*
X194457142Y-78272812D01*
X194504761Y-78225193D01*
X194552380Y-78129955D01*
X194552380Y-77844240D01*
X194504761Y-77749002D01*
X194457142Y-77701383D01*
%TO.C,C1*%
X194257142Y-72718050D02*
X194304761Y-72670431D01*
X194352380Y-72527574D01*
X194352380Y-72432336D01*
X194304761Y-72289478D01*
X194209523Y-72194240D01*
X194114285Y-72146621D01*
X193923809Y-72099002D01*
X193780952Y-72099002D01*
X193590476Y-72146621D01*
X193495238Y-72194240D01*
X193400000Y-72289478D01*
X193352380Y-72432336D01*
X193352380Y-72527574D01*
X193400000Y-72670431D01*
X193447619Y-72718050D01*
X194352380Y-73670431D02*
X194352380Y-73099002D01*
X194352380Y-73384717D02*
X193352380Y-73384717D01*
X193495238Y-73289478D01*
X193590476Y-73194240D01*
X193638095Y-73099002D01*
%TO.C,Q2*%
X187997619Y-78089478D02*
X187950000Y-77994240D01*
X187854761Y-77899002D01*
X187711904Y-77756145D01*
X187664285Y-77660907D01*
X187664285Y-77565669D01*
X187902380Y-77613288D02*
X187854761Y-77518050D01*
X187759523Y-77422812D01*
X187569047Y-77375193D01*
X187235714Y-77375193D01*
X187045238Y-77422812D01*
X186950000Y-77518050D01*
X186902380Y-77613288D01*
X186902380Y-77803764D01*
X186950000Y-77899002D01*
X187045238Y-77994240D01*
X187235714Y-78041859D01*
X187569047Y-78041859D01*
X187759523Y-77994240D01*
X187854761Y-77899002D01*
X187902380Y-77803764D01*
X187902380Y-77613288D01*
X186997619Y-78422812D02*
X186950000Y-78470431D01*
X186902380Y-78565669D01*
X186902380Y-78803764D01*
X186950000Y-78899002D01*
X186997619Y-78946621D01*
X187092857Y-78994240D01*
X187188095Y-78994240D01*
X187330952Y-78946621D01*
X187902380Y-78375193D01*
X187902380Y-78994240D01*
%TO.C,J2*%
X194433333Y-65937097D02*
X194433333Y-66651383D01*
X194480952Y-66794240D01*
X194576190Y-66889478D01*
X194719047Y-66937097D01*
X194814285Y-66937097D01*
X194004761Y-66032336D02*
X193957142Y-65984717D01*
X193861904Y-65937097D01*
X193623809Y-65937097D01*
X193528571Y-65984717D01*
X193480952Y-66032336D01*
X193433333Y-66127574D01*
X193433333Y-66222812D01*
X193480952Y-66365669D01*
X194052380Y-66937097D01*
X193433333Y-66937097D01*
%TO.C,Q1*%
X187947619Y-69539478D02*
X187900000Y-69444240D01*
X187804761Y-69349002D01*
X187661904Y-69206145D01*
X187614285Y-69110907D01*
X187614285Y-69015669D01*
X187852380Y-69063288D02*
X187804761Y-68968050D01*
X187709523Y-68872812D01*
X187519047Y-68825193D01*
X187185714Y-68825193D01*
X186995238Y-68872812D01*
X186900000Y-68968050D01*
X186852380Y-69063288D01*
X186852380Y-69253764D01*
X186900000Y-69349002D01*
X186995238Y-69444240D01*
X187185714Y-69491859D01*
X187519047Y-69491859D01*
X187709523Y-69444240D01*
X187804761Y-69349002D01*
X187852380Y-69253764D01*
X187852380Y-69063288D01*
X187852380Y-70444240D02*
X187852380Y-69872812D01*
X187852380Y-70158526D02*
X186852380Y-70158526D01*
X186995238Y-70063288D01*
X187090476Y-69968050D01*
X187138095Y-69872812D01*
%TO.C,J1*%
X154252380Y-76401383D02*
X154966666Y-76401383D01*
X155109523Y-76353764D01*
X155204761Y-76258526D01*
X155252380Y-76115669D01*
X155252380Y-76020431D01*
X155252380Y-77401383D02*
X155252380Y-76829955D01*
X155252380Y-77115669D02*
X154252380Y-77115669D01*
X154395238Y-77020431D01*
X154490476Y-76925193D01*
X154538095Y-76829955D01*
%TO.C,R2*%
X194302380Y-68868050D02*
X193826190Y-68534717D01*
X194302380Y-68296621D02*
X193302380Y-68296621D01*
X193302380Y-68677574D01*
X193350000Y-68772812D01*
X193397619Y-68820431D01*
X193492857Y-68868050D01*
X193635714Y-68868050D01*
X193730952Y-68820431D01*
X193778571Y-68772812D01*
X193826190Y-68677574D01*
X193826190Y-68296621D01*
X193397619Y-69249002D02*
X193350000Y-69296621D01*
X193302380Y-69391859D01*
X193302380Y-69629955D01*
X193350000Y-69725193D01*
X193397619Y-69772812D01*
X193492857Y-69820431D01*
X193588095Y-69820431D01*
X193730952Y-69772812D01*
X194302380Y-69201383D01*
X194302380Y-69820431D01*
%TO.C,U1*%
X186802380Y-71722812D02*
X187611904Y-71722812D01*
X187707142Y-71770431D01*
X187754761Y-71818050D01*
X187802380Y-71913288D01*
X187802380Y-72103764D01*
X187754761Y-72199002D01*
X187707142Y-72246621D01*
X187611904Y-72294240D01*
X186802380Y-72294240D01*
X187802380Y-73294240D02*
X187802380Y-72722812D01*
X187802380Y-73008526D02*
X186802380Y-73008526D01*
X186945238Y-72913288D01*
X187040476Y-72818050D01*
X187088095Y-72722812D01*
D11*
%TO.C,R1*%
X146877500Y-71989441D02*
X146877500Y-71479993D01*
X147922500Y-71989441D02*
X147922500Y-71479993D01*
%TO.C,R3*%
X189422500Y-77789441D02*
X189422500Y-77279993D01*
X188377500Y-77789441D02*
X188377500Y-77279993D01*
%TO.C,C1*%
X189310000Y-72680984D02*
X189310000Y-72388450D01*
X188290000Y-72680984D02*
X188290000Y-72388450D01*
%TO.C,Q2*%
X193060000Y-77434717D02*
X193060000Y-76784717D01*
X189940000Y-77434717D02*
X189940000Y-75759717D01*
X189940000Y-77434717D02*
X189940000Y-78084717D01*
X193060000Y-77434717D02*
X193060000Y-78084717D01*
%TO.C,J2*%
X198230000Y-79924717D02*
X195570000Y-79924717D01*
X198230000Y-69704717D02*
X198230000Y-79924717D01*
X195570000Y-69704717D02*
X195570000Y-79924717D01*
X198230000Y-68434717D02*
X198230000Y-67104717D01*
X198230000Y-69704717D02*
X195570000Y-69704717D01*
X198230000Y-67104717D02*
X196900000Y-67104717D01*
%TO.C,Q1*%
X189840000Y-69034717D02*
X189840000Y-69684717D01*
X192960000Y-69034717D02*
X192960000Y-69684717D01*
X192960000Y-69034717D02*
X192960000Y-68384717D01*
X189840000Y-69034717D02*
X189840000Y-67359717D01*
%TO.C,J1*%
X148630000Y-74264717D02*
X153770000Y-74264717D01*
X146030000Y-74264717D02*
X146030000Y-75594717D01*
X148630000Y-74264717D02*
X148630000Y-76864717D01*
X146030000Y-76864717D02*
X146030000Y-79464717D01*
X147360000Y-74264717D02*
X146030000Y-74264717D01*
X148630000Y-76864717D02*
X146030000Y-76864717D01*
X146030000Y-79464717D02*
X153770000Y-79464717D01*
X153770000Y-74264717D02*
X153770000Y-79464717D01*
%TO.C,R2*%
X188277500Y-69289441D02*
X188277500Y-68779993D01*
X189322500Y-69289441D02*
X189322500Y-68779993D01*
%TO.C,U1*%
X189840000Y-73034717D02*
X189840000Y-71234717D01*
X189840000Y-73034717D02*
X189840000Y-73834717D01*
X192960000Y-73034717D02*
X192960000Y-73834717D01*
X192960000Y-73034717D02*
X192960000Y-72234717D01*
%TD*%
M02*
