M48
; DRILL file {KiCad (6.0.2)} date Mon Apr 25 21:38:33 2022
; FORMAT={-:-/ absolute / metric / decimal}
; #@! TF.CreationDate,2022-04-25T21:38:33-07:00
; #@! TF.GenerationSoftware,Kicad,Pcbnew,(6.0.2)
; #@! TF.FileFunction,Plated,1,2,PTH
FMAT,2
METRIC
; #@! TA.AperFunction,Plated,PTH,ViaDrill
T1C0.400
; #@! TA.AperFunction,Plated,PTH,ComponentDrill
T2C0.762
; #@! TA.AperFunction,Plated,PTH,ComponentDrill
T3C1.000
%
G90
G05
T1
X152.5Y-67.185
X158.012Y-77.822
X160.33Y-177.947
X160.33Y-181.757
X163.39Y-203.947
X163.39Y-207.757
X165.41Y-177.947
X165.41Y-181.757
X168.425Y-207.757
X168.47Y-203.947
X170.49Y-177.947
X170.49Y-181.757
X170.65Y-152.285
X170.65Y-156.122
X173.55Y-203.947
X173.55Y-207.757
X175.57Y-177.947
X175.57Y-181.757
X178.63Y-203.947
X178.63Y-207.757
X180.65Y-177.947
X180.65Y-181.757
X188.8Y-74.735
X191.4Y-75.435
T2
X145.75Y-82.885
X145.75Y-131.885
X145.75Y-147.935
X145.75Y-197.835
X150.7Y-133.085
X156.45Y-136.785
X156.45Y-143.785
X156.45Y-200.135
X156.45Y-208.635
X183.75Y-134.135
X183.75Y-142.635
X183.75Y-202.835
X183.75Y-209.835
X189.5Y-199.035
X194.45Y-81.935
X194.45Y-131.835
X194.45Y-148.935
X194.45Y-197.935
T3
X147.36Y-75.595
X147.36Y-78.135
X149.9Y-75.595
X149.9Y-78.135
X152.44Y-75.595
X152.44Y-78.135
X196.9Y-68.435
X196.9Y-70.975
X196.9Y-73.515
X196.9Y-76.055
X196.9Y-78.595
T0
M30
