%TF.GenerationSoftware,KiCad,Pcbnew,(6.0.2)*%
%TF.CreationDate,2022-03-28T13:54:43-07:00*%
%TF.ProjectId,i-fucking-love-fucking-you,692d6675-636b-4696-9e67-2d6c6f76652d,rev?*%
%TF.SameCoordinates,Original*%
%TF.FileFunction,Legend,Top*%
%TF.FilePolarity,Positive*%
%FSLAX46Y46*%
G04 Gerber Fmt 4.6, Leading zero omitted, Abs format (unit mm)*
G04 Created by KiCad (PCBNEW (6.0.2)) date 2022-03-28 13:54:43*
%MOMM*%
%LPD*%
G01*
G04 APERTURE LIST*
%ADD10C,0.150000*%
%ADD11C,0.120000*%
G04 APERTURE END LIST*
D10*
%TO.C,*%
%TO.C,D54*%
X179465714Y-192567097D02*
X179465714Y-191567097D01*
X179703809Y-191567097D01*
X179846666Y-191614717D01*
X179941904Y-191709955D01*
X179989523Y-191805193D01*
X180037142Y-191995669D01*
X180037142Y-192138526D01*
X179989523Y-192329002D01*
X179941904Y-192424240D01*
X179846666Y-192519478D01*
X179703809Y-192567097D01*
X179465714Y-192567097D01*
X180941904Y-191567097D02*
X180465714Y-191567097D01*
X180418095Y-192043288D01*
X180465714Y-191995669D01*
X180560952Y-191948050D01*
X180799047Y-191948050D01*
X180894285Y-191995669D01*
X180941904Y-192043288D01*
X180989523Y-192138526D01*
X180989523Y-192376621D01*
X180941904Y-192471859D01*
X180894285Y-192519478D01*
X180799047Y-192567097D01*
X180560952Y-192567097D01*
X180465714Y-192519478D01*
X180418095Y-192471859D01*
X181846666Y-191900431D02*
X181846666Y-192567097D01*
X181608571Y-191519478D02*
X181370476Y-192233764D01*
X181989523Y-192233764D01*
%TO.C,D34*%
X169205714Y-166757097D02*
X169205714Y-165757097D01*
X169443809Y-165757097D01*
X169586666Y-165804717D01*
X169681904Y-165899955D01*
X169729523Y-165995193D01*
X169777142Y-166185669D01*
X169777142Y-166328526D01*
X169729523Y-166519002D01*
X169681904Y-166614240D01*
X169586666Y-166709478D01*
X169443809Y-166757097D01*
X169205714Y-166757097D01*
X170110476Y-165757097D02*
X170729523Y-165757097D01*
X170396190Y-166138050D01*
X170539047Y-166138050D01*
X170634285Y-166185669D01*
X170681904Y-166233288D01*
X170729523Y-166328526D01*
X170729523Y-166566621D01*
X170681904Y-166661859D01*
X170634285Y-166709478D01*
X170539047Y-166757097D01*
X170253333Y-166757097D01*
X170158095Y-166709478D01*
X170110476Y-166661859D01*
X171586666Y-166090431D02*
X171586666Y-166757097D01*
X171348571Y-165709478D02*
X171110476Y-166423764D01*
X171729523Y-166423764D01*
%TO.C,REF\u002A\u002A*%
X155266666Y-145439097D02*
X154933333Y-144962907D01*
X154695238Y-145439097D02*
X154695238Y-144439097D01*
X155076190Y-144439097D01*
X155171428Y-144486717D01*
X155219047Y-144534336D01*
X155266666Y-144629574D01*
X155266666Y-144772431D01*
X155219047Y-144867669D01*
X155171428Y-144915288D01*
X155076190Y-144962907D01*
X154695238Y-144962907D01*
X155695238Y-144915288D02*
X156028571Y-144915288D01*
X156171428Y-145439097D02*
X155695238Y-145439097D01*
X155695238Y-144439097D01*
X156171428Y-144439097D01*
X156933333Y-144915288D02*
X156600000Y-144915288D01*
X156600000Y-145439097D02*
X156600000Y-144439097D01*
X157076190Y-144439097D01*
X157600000Y-144439097D02*
X157600000Y-144677193D01*
X157361904Y-144581955D02*
X157600000Y-144677193D01*
X157838095Y-144581955D01*
X157457142Y-144867669D02*
X157600000Y-144677193D01*
X157742857Y-144867669D01*
X158361904Y-144439097D02*
X158361904Y-144677193D01*
X158123809Y-144581955D02*
X158361904Y-144677193D01*
X158600000Y-144581955D01*
X158219047Y-144867669D02*
X158361904Y-144677193D01*
X158504761Y-144867669D01*
%TO.C,D20*%
X176445714Y-205667097D02*
X176445714Y-204667097D01*
X176683809Y-204667097D01*
X176826666Y-204714717D01*
X176921904Y-204809955D01*
X176969523Y-204905193D01*
X177017142Y-205095669D01*
X177017142Y-205238526D01*
X176969523Y-205429002D01*
X176921904Y-205524240D01*
X176826666Y-205619478D01*
X176683809Y-205667097D01*
X176445714Y-205667097D01*
X177398095Y-204762336D02*
X177445714Y-204714717D01*
X177540952Y-204667097D01*
X177779047Y-204667097D01*
X177874285Y-204714717D01*
X177921904Y-204762336D01*
X177969523Y-204857574D01*
X177969523Y-204952812D01*
X177921904Y-205095669D01*
X177350476Y-205667097D01*
X177969523Y-205667097D01*
X178588571Y-204667097D02*
X178683809Y-204667097D01*
X178779047Y-204714717D01*
X178826666Y-204762336D01*
X178874285Y-204857574D01*
X178921904Y-205048050D01*
X178921904Y-205286145D01*
X178874285Y-205476621D01*
X178826666Y-205571859D01*
X178779047Y-205619478D01*
X178683809Y-205667097D01*
X178588571Y-205667097D01*
X178493333Y-205619478D01*
X178445714Y-205571859D01*
X178398095Y-205476621D01*
X178350476Y-205286145D01*
X178350476Y-205048050D01*
X178398095Y-204857574D01*
X178445714Y-204762336D01*
X178493333Y-204714717D01*
X178588571Y-204667097D01*
%TO.C,D44*%
X174385714Y-188757097D02*
X174385714Y-187757097D01*
X174623809Y-187757097D01*
X174766666Y-187804717D01*
X174861904Y-187899955D01*
X174909523Y-187995193D01*
X174957142Y-188185669D01*
X174957142Y-188328526D01*
X174909523Y-188519002D01*
X174861904Y-188614240D01*
X174766666Y-188709478D01*
X174623809Y-188757097D01*
X174385714Y-188757097D01*
X175814285Y-188090431D02*
X175814285Y-188757097D01*
X175576190Y-187709478D02*
X175338095Y-188423764D01*
X175957142Y-188423764D01*
X176766666Y-188090431D02*
X176766666Y-188757097D01*
X176528571Y-187709478D02*
X176290476Y-188423764D01*
X176909523Y-188423764D01*
%TO.C,D49*%
X154065714Y-192567097D02*
X154065714Y-191567097D01*
X154303809Y-191567097D01*
X154446666Y-191614717D01*
X154541904Y-191709955D01*
X154589523Y-191805193D01*
X154637142Y-191995669D01*
X154637142Y-192138526D01*
X154589523Y-192329002D01*
X154541904Y-192424240D01*
X154446666Y-192519478D01*
X154303809Y-192567097D01*
X154065714Y-192567097D01*
X155494285Y-191900431D02*
X155494285Y-192567097D01*
X155256190Y-191519478D02*
X155018095Y-192233764D01*
X155637142Y-192233764D01*
X156065714Y-192567097D02*
X156256190Y-192567097D01*
X156351428Y-192519478D01*
X156399047Y-192471859D01*
X156494285Y-192329002D01*
X156541904Y-192138526D01*
X156541904Y-191757574D01*
X156494285Y-191662336D01*
X156446666Y-191614717D01*
X156351428Y-191567097D01*
X156160952Y-191567097D01*
X156065714Y-191614717D01*
X156018095Y-191662336D01*
X155970476Y-191757574D01*
X155970476Y-191995669D01*
X156018095Y-192090907D01*
X156065714Y-192138526D01*
X156160952Y-192186145D01*
X156351428Y-192186145D01*
X156446666Y-192138526D01*
X156494285Y-192090907D01*
X156541904Y-191995669D01*
%TO.C,D10*%
X169345714Y-179667097D02*
X169345714Y-178667097D01*
X169583809Y-178667097D01*
X169726666Y-178714717D01*
X169821904Y-178809955D01*
X169869523Y-178905193D01*
X169917142Y-179095669D01*
X169917142Y-179238526D01*
X169869523Y-179429002D01*
X169821904Y-179524240D01*
X169726666Y-179619478D01*
X169583809Y-179667097D01*
X169345714Y-179667097D01*
X170869523Y-179667097D02*
X170298095Y-179667097D01*
X170583809Y-179667097D02*
X170583809Y-178667097D01*
X170488571Y-178809955D01*
X170393333Y-178905193D01*
X170298095Y-178952812D01*
X171488571Y-178667097D02*
X171583809Y-178667097D01*
X171679047Y-178714717D01*
X171726666Y-178762336D01*
X171774285Y-178857574D01*
X171821904Y-179048050D01*
X171821904Y-179286145D01*
X171774285Y-179476621D01*
X171726666Y-179571859D01*
X171679047Y-179619478D01*
X171583809Y-179667097D01*
X171488571Y-179667097D01*
X171393333Y-179619478D01*
X171345714Y-179571859D01*
X171298095Y-179476621D01*
X171250476Y-179286145D01*
X171250476Y-179048050D01*
X171298095Y-178857574D01*
X171345714Y-178762336D01*
X171393333Y-178714717D01*
X171488571Y-178667097D01*
%TO.C,*%
%TO.C,D28*%
X184445714Y-162947097D02*
X184445714Y-161947097D01*
X184683809Y-161947097D01*
X184826666Y-161994717D01*
X184921904Y-162089955D01*
X184969523Y-162185193D01*
X185017142Y-162375669D01*
X185017142Y-162518526D01*
X184969523Y-162709002D01*
X184921904Y-162804240D01*
X184826666Y-162899478D01*
X184683809Y-162947097D01*
X184445714Y-162947097D01*
X185398095Y-162042336D02*
X185445714Y-161994717D01*
X185540952Y-161947097D01*
X185779047Y-161947097D01*
X185874285Y-161994717D01*
X185921904Y-162042336D01*
X185969523Y-162137574D01*
X185969523Y-162232812D01*
X185921904Y-162375669D01*
X185350476Y-162947097D01*
X185969523Y-162947097D01*
X186540952Y-162375669D02*
X186445714Y-162328050D01*
X186398095Y-162280431D01*
X186350476Y-162185193D01*
X186350476Y-162137574D01*
X186398095Y-162042336D01*
X186445714Y-161994717D01*
X186540952Y-161947097D01*
X186731428Y-161947097D01*
X186826666Y-161994717D01*
X186874285Y-162042336D01*
X186921904Y-162137574D01*
X186921904Y-162185193D01*
X186874285Y-162280431D01*
X186826666Y-162328050D01*
X186731428Y-162375669D01*
X186540952Y-162375669D01*
X186445714Y-162423288D01*
X186398095Y-162470907D01*
X186350476Y-162566145D01*
X186350476Y-162756621D01*
X186398095Y-162851859D01*
X186445714Y-162899478D01*
X186540952Y-162947097D01*
X186731428Y-162947097D01*
X186826666Y-162899478D01*
X186874285Y-162851859D01*
X186921904Y-162756621D01*
X186921904Y-162566145D01*
X186874285Y-162470907D01*
X186826666Y-162423288D01*
X186731428Y-162375669D01*
%TO.C,D25*%
X169205714Y-162947097D02*
X169205714Y-161947097D01*
X169443809Y-161947097D01*
X169586666Y-161994717D01*
X169681904Y-162089955D01*
X169729523Y-162185193D01*
X169777142Y-162375669D01*
X169777142Y-162518526D01*
X169729523Y-162709002D01*
X169681904Y-162804240D01*
X169586666Y-162899478D01*
X169443809Y-162947097D01*
X169205714Y-162947097D01*
X170158095Y-162042336D02*
X170205714Y-161994717D01*
X170300952Y-161947097D01*
X170539047Y-161947097D01*
X170634285Y-161994717D01*
X170681904Y-162042336D01*
X170729523Y-162137574D01*
X170729523Y-162232812D01*
X170681904Y-162375669D01*
X170110476Y-162947097D01*
X170729523Y-162947097D01*
X171634285Y-161947097D02*
X171158095Y-161947097D01*
X171110476Y-162423288D01*
X171158095Y-162375669D01*
X171253333Y-162328050D01*
X171491428Y-162328050D01*
X171586666Y-162375669D01*
X171634285Y-162423288D01*
X171681904Y-162518526D01*
X171681904Y-162756621D01*
X171634285Y-162851859D01*
X171586666Y-162899478D01*
X171491428Y-162947097D01*
X171253333Y-162947097D01*
X171158095Y-162899478D01*
X171110476Y-162851859D01*
%TO.C,D43*%
X169305714Y-188757097D02*
X169305714Y-187757097D01*
X169543809Y-187757097D01*
X169686666Y-187804717D01*
X169781904Y-187899955D01*
X169829523Y-187995193D01*
X169877142Y-188185669D01*
X169877142Y-188328526D01*
X169829523Y-188519002D01*
X169781904Y-188614240D01*
X169686666Y-188709478D01*
X169543809Y-188757097D01*
X169305714Y-188757097D01*
X170734285Y-188090431D02*
X170734285Y-188757097D01*
X170496190Y-187709478D02*
X170258095Y-188423764D01*
X170877142Y-188423764D01*
X171162857Y-187757097D02*
X171781904Y-187757097D01*
X171448571Y-188138050D01*
X171591428Y-188138050D01*
X171686666Y-188185669D01*
X171734285Y-188233288D01*
X171781904Y-188328526D01*
X171781904Y-188566621D01*
X171734285Y-188661859D01*
X171686666Y-188709478D01*
X171591428Y-188757097D01*
X171305714Y-188757097D01*
X171210476Y-188709478D01*
X171162857Y-188661859D01*
%TO.C,*%
%TO.C,D31*%
X153965714Y-166757097D02*
X153965714Y-165757097D01*
X154203809Y-165757097D01*
X154346666Y-165804717D01*
X154441904Y-165899955D01*
X154489523Y-165995193D01*
X154537142Y-166185669D01*
X154537142Y-166328526D01*
X154489523Y-166519002D01*
X154441904Y-166614240D01*
X154346666Y-166709478D01*
X154203809Y-166757097D01*
X153965714Y-166757097D01*
X154870476Y-165757097D02*
X155489523Y-165757097D01*
X155156190Y-166138050D01*
X155299047Y-166138050D01*
X155394285Y-166185669D01*
X155441904Y-166233288D01*
X155489523Y-166328526D01*
X155489523Y-166566621D01*
X155441904Y-166661859D01*
X155394285Y-166709478D01*
X155299047Y-166757097D01*
X155013333Y-166757097D01*
X154918095Y-166709478D01*
X154870476Y-166661859D01*
X156441904Y-166757097D02*
X155870476Y-166757097D01*
X156156190Y-166757097D02*
X156156190Y-165757097D01*
X156060952Y-165899955D01*
X155965714Y-165995193D01*
X155870476Y-166042812D01*
%TO.C,*%
%TO.C,D6*%
X174901904Y-175857097D02*
X174901904Y-174857097D01*
X175140000Y-174857097D01*
X175282857Y-174904717D01*
X175378095Y-174999955D01*
X175425714Y-175095193D01*
X175473333Y-175285669D01*
X175473333Y-175428526D01*
X175425714Y-175619002D01*
X175378095Y-175714240D01*
X175282857Y-175809478D01*
X175140000Y-175857097D01*
X174901904Y-175857097D01*
X176330476Y-174857097D02*
X176140000Y-174857097D01*
X176044761Y-174904717D01*
X175997142Y-174952336D01*
X175901904Y-175095193D01*
X175854285Y-175285669D01*
X175854285Y-175666621D01*
X175901904Y-175761859D01*
X175949523Y-175809478D01*
X176044761Y-175857097D01*
X176235238Y-175857097D01*
X176330476Y-175809478D01*
X176378095Y-175761859D01*
X176425714Y-175666621D01*
X176425714Y-175428526D01*
X176378095Y-175333288D01*
X176330476Y-175285669D01*
X176235238Y-175238050D01*
X176044761Y-175238050D01*
X175949523Y-175285669D01*
X175901904Y-175333288D01*
X175854285Y-175428526D01*
%TO.C,D29*%
X189525714Y-162947097D02*
X189525714Y-161947097D01*
X189763809Y-161947097D01*
X189906666Y-161994717D01*
X190001904Y-162089955D01*
X190049523Y-162185193D01*
X190097142Y-162375669D01*
X190097142Y-162518526D01*
X190049523Y-162709002D01*
X190001904Y-162804240D01*
X189906666Y-162899478D01*
X189763809Y-162947097D01*
X189525714Y-162947097D01*
X190478095Y-162042336D02*
X190525714Y-161994717D01*
X190620952Y-161947097D01*
X190859047Y-161947097D01*
X190954285Y-161994717D01*
X191001904Y-162042336D01*
X191049523Y-162137574D01*
X191049523Y-162232812D01*
X191001904Y-162375669D01*
X190430476Y-162947097D01*
X191049523Y-162947097D01*
X191525714Y-162947097D02*
X191716190Y-162947097D01*
X191811428Y-162899478D01*
X191859047Y-162851859D01*
X191954285Y-162709002D01*
X192001904Y-162518526D01*
X192001904Y-162137574D01*
X191954285Y-162042336D01*
X191906666Y-161994717D01*
X191811428Y-161947097D01*
X191620952Y-161947097D01*
X191525714Y-161994717D01*
X191478095Y-162042336D01*
X191430476Y-162137574D01*
X191430476Y-162375669D01*
X191478095Y-162470907D01*
X191525714Y-162518526D01*
X191620952Y-162566145D01*
X191811428Y-162566145D01*
X191906666Y-162518526D01*
X191954285Y-162470907D01*
X192001904Y-162375669D01*
%TO.C,D1*%
X169661904Y-150057097D02*
X169661904Y-149057097D01*
X169900000Y-149057097D01*
X170042857Y-149104717D01*
X170138095Y-149199955D01*
X170185714Y-149295193D01*
X170233333Y-149485669D01*
X170233333Y-149628526D01*
X170185714Y-149819002D01*
X170138095Y-149914240D01*
X170042857Y-150009478D01*
X169900000Y-150057097D01*
X169661904Y-150057097D01*
X171185714Y-150057097D02*
X170614285Y-150057097D01*
X170900000Y-150057097D02*
X170900000Y-149057097D01*
X170804761Y-149199955D01*
X170709523Y-149295193D01*
X170614285Y-149342812D01*
%TO.C,*%
%TO.C,D3*%
X159661904Y-175857097D02*
X159661904Y-174857097D01*
X159900000Y-174857097D01*
X160042857Y-174904717D01*
X160138095Y-174999955D01*
X160185714Y-175095193D01*
X160233333Y-175285669D01*
X160233333Y-175428526D01*
X160185714Y-175619002D01*
X160138095Y-175714240D01*
X160042857Y-175809478D01*
X159900000Y-175857097D01*
X159661904Y-175857097D01*
X160566666Y-174857097D02*
X161185714Y-174857097D01*
X160852380Y-175238050D01*
X160995238Y-175238050D01*
X161090476Y-175285669D01*
X161138095Y-175333288D01*
X161185714Y-175428526D01*
X161185714Y-175666621D01*
X161138095Y-175761859D01*
X161090476Y-175809478D01*
X160995238Y-175857097D01*
X160709523Y-175857097D01*
X160614285Y-175809478D01*
X160566666Y-175761859D01*
%TO.C,*%
%TO.C,D33*%
X164125714Y-166757097D02*
X164125714Y-165757097D01*
X164363809Y-165757097D01*
X164506666Y-165804717D01*
X164601904Y-165899955D01*
X164649523Y-165995193D01*
X164697142Y-166185669D01*
X164697142Y-166328526D01*
X164649523Y-166519002D01*
X164601904Y-166614240D01*
X164506666Y-166709478D01*
X164363809Y-166757097D01*
X164125714Y-166757097D01*
X165030476Y-165757097D02*
X165649523Y-165757097D01*
X165316190Y-166138050D01*
X165459047Y-166138050D01*
X165554285Y-166185669D01*
X165601904Y-166233288D01*
X165649523Y-166328526D01*
X165649523Y-166566621D01*
X165601904Y-166661859D01*
X165554285Y-166709478D01*
X165459047Y-166757097D01*
X165173333Y-166757097D01*
X165078095Y-166709478D01*
X165030476Y-166661859D01*
X165982857Y-165757097D02*
X166601904Y-165757097D01*
X166268571Y-166138050D01*
X166411428Y-166138050D01*
X166506666Y-166185669D01*
X166554285Y-166233288D01*
X166601904Y-166328526D01*
X166601904Y-166566621D01*
X166554285Y-166661859D01*
X166506666Y-166709478D01*
X166411428Y-166757097D01*
X166125714Y-166757097D01*
X166030476Y-166709478D01*
X165982857Y-166661859D01*
%TO.C,D52*%
X169305714Y-192567097D02*
X169305714Y-191567097D01*
X169543809Y-191567097D01*
X169686666Y-191614717D01*
X169781904Y-191709955D01*
X169829523Y-191805193D01*
X169877142Y-191995669D01*
X169877142Y-192138526D01*
X169829523Y-192329002D01*
X169781904Y-192424240D01*
X169686666Y-192519478D01*
X169543809Y-192567097D01*
X169305714Y-192567097D01*
X170781904Y-191567097D02*
X170305714Y-191567097D01*
X170258095Y-192043288D01*
X170305714Y-191995669D01*
X170400952Y-191948050D01*
X170639047Y-191948050D01*
X170734285Y-191995669D01*
X170781904Y-192043288D01*
X170829523Y-192138526D01*
X170829523Y-192376621D01*
X170781904Y-192471859D01*
X170734285Y-192519478D01*
X170639047Y-192567097D01*
X170400952Y-192567097D01*
X170305714Y-192519478D01*
X170258095Y-192471859D01*
X171210476Y-191662336D02*
X171258095Y-191614717D01*
X171353333Y-191567097D01*
X171591428Y-191567097D01*
X171686666Y-191614717D01*
X171734285Y-191662336D01*
X171781904Y-191757574D01*
X171781904Y-191852812D01*
X171734285Y-191995669D01*
X171162857Y-192567097D01*
X171781904Y-192567097D01*
%TO.C,D21*%
X148885714Y-162947097D02*
X148885714Y-161947097D01*
X149123809Y-161947097D01*
X149266666Y-161994717D01*
X149361904Y-162089955D01*
X149409523Y-162185193D01*
X149457142Y-162375669D01*
X149457142Y-162518526D01*
X149409523Y-162709002D01*
X149361904Y-162804240D01*
X149266666Y-162899478D01*
X149123809Y-162947097D01*
X148885714Y-162947097D01*
X149838095Y-162042336D02*
X149885714Y-161994717D01*
X149980952Y-161947097D01*
X150219047Y-161947097D01*
X150314285Y-161994717D01*
X150361904Y-162042336D01*
X150409523Y-162137574D01*
X150409523Y-162232812D01*
X150361904Y-162375669D01*
X149790476Y-162947097D01*
X150409523Y-162947097D01*
X151361904Y-162947097D02*
X150790476Y-162947097D01*
X151076190Y-162947097D02*
X151076190Y-161947097D01*
X150980952Y-162089955D01*
X150885714Y-162185193D01*
X150790476Y-162232812D01*
%TO.C,D12*%
X179505714Y-179667097D02*
X179505714Y-178667097D01*
X179743809Y-178667097D01*
X179886666Y-178714717D01*
X179981904Y-178809955D01*
X180029523Y-178905193D01*
X180077142Y-179095669D01*
X180077142Y-179238526D01*
X180029523Y-179429002D01*
X179981904Y-179524240D01*
X179886666Y-179619478D01*
X179743809Y-179667097D01*
X179505714Y-179667097D01*
X181029523Y-179667097D02*
X180458095Y-179667097D01*
X180743809Y-179667097D02*
X180743809Y-178667097D01*
X180648571Y-178809955D01*
X180553333Y-178905193D01*
X180458095Y-178952812D01*
X181410476Y-178762336D02*
X181458095Y-178714717D01*
X181553333Y-178667097D01*
X181791428Y-178667097D01*
X181886666Y-178714717D01*
X181934285Y-178762336D01*
X181981904Y-178857574D01*
X181981904Y-178952812D01*
X181934285Y-179095669D01*
X181362857Y-179667097D01*
X181981904Y-179667097D01*
%TO.C,D45*%
X179465714Y-188757097D02*
X179465714Y-187757097D01*
X179703809Y-187757097D01*
X179846666Y-187804717D01*
X179941904Y-187899955D01*
X179989523Y-187995193D01*
X180037142Y-188185669D01*
X180037142Y-188328526D01*
X179989523Y-188519002D01*
X179941904Y-188614240D01*
X179846666Y-188709478D01*
X179703809Y-188757097D01*
X179465714Y-188757097D01*
X180894285Y-188090431D02*
X180894285Y-188757097D01*
X180656190Y-187709478D02*
X180418095Y-188423764D01*
X181037142Y-188423764D01*
X181894285Y-187757097D02*
X181418095Y-187757097D01*
X181370476Y-188233288D01*
X181418095Y-188185669D01*
X181513333Y-188138050D01*
X181751428Y-188138050D01*
X181846666Y-188185669D01*
X181894285Y-188233288D01*
X181941904Y-188328526D01*
X181941904Y-188566621D01*
X181894285Y-188661859D01*
X181846666Y-188709478D01*
X181751428Y-188757097D01*
X181513333Y-188757097D01*
X181418095Y-188709478D01*
X181370476Y-188661859D01*
%TO.C,D55*%
X184545714Y-192567097D02*
X184545714Y-191567097D01*
X184783809Y-191567097D01*
X184926666Y-191614717D01*
X185021904Y-191709955D01*
X185069523Y-191805193D01*
X185117142Y-191995669D01*
X185117142Y-192138526D01*
X185069523Y-192329002D01*
X185021904Y-192424240D01*
X184926666Y-192519478D01*
X184783809Y-192567097D01*
X184545714Y-192567097D01*
X186021904Y-191567097D02*
X185545714Y-191567097D01*
X185498095Y-192043288D01*
X185545714Y-191995669D01*
X185640952Y-191948050D01*
X185879047Y-191948050D01*
X185974285Y-191995669D01*
X186021904Y-192043288D01*
X186069523Y-192138526D01*
X186069523Y-192376621D01*
X186021904Y-192471859D01*
X185974285Y-192519478D01*
X185879047Y-192567097D01*
X185640952Y-192567097D01*
X185545714Y-192519478D01*
X185498095Y-192471859D01*
X186974285Y-191567097D02*
X186498095Y-191567097D01*
X186450476Y-192043288D01*
X186498095Y-191995669D01*
X186593333Y-191948050D01*
X186831428Y-191948050D01*
X186926666Y-191995669D01*
X186974285Y-192043288D01*
X187021904Y-192138526D01*
X187021904Y-192376621D01*
X186974285Y-192471859D01*
X186926666Y-192519478D01*
X186831428Y-192567097D01*
X186593333Y-192567097D01*
X186498095Y-192519478D01*
X186450476Y-192471859D01*
%TO.C,D40*%
X154065714Y-188757097D02*
X154065714Y-187757097D01*
X154303809Y-187757097D01*
X154446666Y-187804717D01*
X154541904Y-187899955D01*
X154589523Y-187995193D01*
X154637142Y-188185669D01*
X154637142Y-188328526D01*
X154589523Y-188519002D01*
X154541904Y-188614240D01*
X154446666Y-188709478D01*
X154303809Y-188757097D01*
X154065714Y-188757097D01*
X155494285Y-188090431D02*
X155494285Y-188757097D01*
X155256190Y-187709478D02*
X155018095Y-188423764D01*
X155637142Y-188423764D01*
X156208571Y-187757097D02*
X156303809Y-187757097D01*
X156399047Y-187804717D01*
X156446666Y-187852336D01*
X156494285Y-187947574D01*
X156541904Y-188138050D01*
X156541904Y-188376145D01*
X156494285Y-188566621D01*
X156446666Y-188661859D01*
X156399047Y-188709478D01*
X156303809Y-188757097D01*
X156208571Y-188757097D01*
X156113333Y-188709478D01*
X156065714Y-188661859D01*
X156018095Y-188566621D01*
X155970476Y-188376145D01*
X155970476Y-188138050D01*
X156018095Y-187947574D01*
X156065714Y-187852336D01*
X156113333Y-187804717D01*
X156208571Y-187757097D01*
%TO.C,D39*%
X148985714Y-188757097D02*
X148985714Y-187757097D01*
X149223809Y-187757097D01*
X149366666Y-187804717D01*
X149461904Y-187899955D01*
X149509523Y-187995193D01*
X149557142Y-188185669D01*
X149557142Y-188328526D01*
X149509523Y-188519002D01*
X149461904Y-188614240D01*
X149366666Y-188709478D01*
X149223809Y-188757097D01*
X148985714Y-188757097D01*
X149890476Y-187757097D02*
X150509523Y-187757097D01*
X150176190Y-188138050D01*
X150319047Y-188138050D01*
X150414285Y-188185669D01*
X150461904Y-188233288D01*
X150509523Y-188328526D01*
X150509523Y-188566621D01*
X150461904Y-188661859D01*
X150414285Y-188709478D01*
X150319047Y-188757097D01*
X150033333Y-188757097D01*
X149938095Y-188709478D01*
X149890476Y-188661859D01*
X150985714Y-188757097D02*
X151176190Y-188757097D01*
X151271428Y-188709478D01*
X151319047Y-188661859D01*
X151414285Y-188519002D01*
X151461904Y-188328526D01*
X151461904Y-187947574D01*
X151414285Y-187852336D01*
X151366666Y-187804717D01*
X151271428Y-187757097D01*
X151080952Y-187757097D01*
X150985714Y-187804717D01*
X150938095Y-187852336D01*
X150890476Y-187947574D01*
X150890476Y-188185669D01*
X150938095Y-188280907D01*
X150985714Y-188328526D01*
X151080952Y-188376145D01*
X151271428Y-188376145D01*
X151366666Y-188328526D01*
X151414285Y-188280907D01*
X151461904Y-188185669D01*
%TO.C,*%
%TO.C,D14*%
X166285714Y-201857097D02*
X166285714Y-200857097D01*
X166523809Y-200857097D01*
X166666666Y-200904717D01*
X166761904Y-200999955D01*
X166809523Y-201095193D01*
X166857142Y-201285669D01*
X166857142Y-201428526D01*
X166809523Y-201619002D01*
X166761904Y-201714240D01*
X166666666Y-201809478D01*
X166523809Y-201857097D01*
X166285714Y-201857097D01*
X167809523Y-201857097D02*
X167238095Y-201857097D01*
X167523809Y-201857097D02*
X167523809Y-200857097D01*
X167428571Y-200999955D01*
X167333333Y-201095193D01*
X167238095Y-201142812D01*
X168666666Y-201190431D02*
X168666666Y-201857097D01*
X168428571Y-200809478D02*
X168190476Y-201523764D01*
X168809523Y-201523764D01*
%TO.C,D18*%
X166285714Y-205667097D02*
X166285714Y-204667097D01*
X166523809Y-204667097D01*
X166666666Y-204714717D01*
X166761904Y-204809955D01*
X166809523Y-204905193D01*
X166857142Y-205095669D01*
X166857142Y-205238526D01*
X166809523Y-205429002D01*
X166761904Y-205524240D01*
X166666666Y-205619478D01*
X166523809Y-205667097D01*
X166285714Y-205667097D01*
X167809523Y-205667097D02*
X167238095Y-205667097D01*
X167523809Y-205667097D02*
X167523809Y-204667097D01*
X167428571Y-204809955D01*
X167333333Y-204905193D01*
X167238095Y-204952812D01*
X168380952Y-205095669D02*
X168285714Y-205048050D01*
X168238095Y-205000431D01*
X168190476Y-204905193D01*
X168190476Y-204857574D01*
X168238095Y-204762336D01*
X168285714Y-204714717D01*
X168380952Y-204667097D01*
X168571428Y-204667097D01*
X168666666Y-204714717D01*
X168714285Y-204762336D01*
X168761904Y-204857574D01*
X168761904Y-204905193D01*
X168714285Y-205000431D01*
X168666666Y-205048050D01*
X168571428Y-205095669D01*
X168380952Y-205095669D01*
X168285714Y-205143288D01*
X168238095Y-205190907D01*
X168190476Y-205286145D01*
X168190476Y-205476621D01*
X168238095Y-205571859D01*
X168285714Y-205619478D01*
X168380952Y-205667097D01*
X168571428Y-205667097D01*
X168666666Y-205619478D01*
X168714285Y-205571859D01*
X168761904Y-205476621D01*
X168761904Y-205286145D01*
X168714285Y-205190907D01*
X168666666Y-205143288D01*
X168571428Y-205095669D01*
%TO.C,D32*%
X159045714Y-166757097D02*
X159045714Y-165757097D01*
X159283809Y-165757097D01*
X159426666Y-165804717D01*
X159521904Y-165899955D01*
X159569523Y-165995193D01*
X159617142Y-166185669D01*
X159617142Y-166328526D01*
X159569523Y-166519002D01*
X159521904Y-166614240D01*
X159426666Y-166709478D01*
X159283809Y-166757097D01*
X159045714Y-166757097D01*
X159950476Y-165757097D02*
X160569523Y-165757097D01*
X160236190Y-166138050D01*
X160379047Y-166138050D01*
X160474285Y-166185669D01*
X160521904Y-166233288D01*
X160569523Y-166328526D01*
X160569523Y-166566621D01*
X160521904Y-166661859D01*
X160474285Y-166709478D01*
X160379047Y-166757097D01*
X160093333Y-166757097D01*
X159998095Y-166709478D01*
X159950476Y-166661859D01*
X160950476Y-165852336D02*
X160998095Y-165804717D01*
X161093333Y-165757097D01*
X161331428Y-165757097D01*
X161426666Y-165804717D01*
X161474285Y-165852336D01*
X161521904Y-165947574D01*
X161521904Y-166042812D01*
X161474285Y-166185669D01*
X160902857Y-166757097D01*
X161521904Y-166757097D01*
%TO.C,D11*%
X174425714Y-179667097D02*
X174425714Y-178667097D01*
X174663809Y-178667097D01*
X174806666Y-178714717D01*
X174901904Y-178809955D01*
X174949523Y-178905193D01*
X174997142Y-179095669D01*
X174997142Y-179238526D01*
X174949523Y-179429002D01*
X174901904Y-179524240D01*
X174806666Y-179619478D01*
X174663809Y-179667097D01*
X174425714Y-179667097D01*
X175949523Y-179667097D02*
X175378095Y-179667097D01*
X175663809Y-179667097D02*
X175663809Y-178667097D01*
X175568571Y-178809955D01*
X175473333Y-178905193D01*
X175378095Y-178952812D01*
X176901904Y-179667097D02*
X176330476Y-179667097D01*
X176616190Y-179667097D02*
X176616190Y-178667097D01*
X176520952Y-178809955D01*
X176425714Y-178905193D01*
X176330476Y-178952812D01*
%TO.C,D26*%
X174285714Y-162947097D02*
X174285714Y-161947097D01*
X174523809Y-161947097D01*
X174666666Y-161994717D01*
X174761904Y-162089955D01*
X174809523Y-162185193D01*
X174857142Y-162375669D01*
X174857142Y-162518526D01*
X174809523Y-162709002D01*
X174761904Y-162804240D01*
X174666666Y-162899478D01*
X174523809Y-162947097D01*
X174285714Y-162947097D01*
X175238095Y-162042336D02*
X175285714Y-161994717D01*
X175380952Y-161947097D01*
X175619047Y-161947097D01*
X175714285Y-161994717D01*
X175761904Y-162042336D01*
X175809523Y-162137574D01*
X175809523Y-162232812D01*
X175761904Y-162375669D01*
X175190476Y-162947097D01*
X175809523Y-162947097D01*
X176666666Y-161947097D02*
X176476190Y-161947097D01*
X176380952Y-161994717D01*
X176333333Y-162042336D01*
X176238095Y-162185193D01*
X176190476Y-162375669D01*
X176190476Y-162756621D01*
X176238095Y-162851859D01*
X176285714Y-162899478D01*
X176380952Y-162947097D01*
X176571428Y-162947097D01*
X176666666Y-162899478D01*
X176714285Y-162851859D01*
X176761904Y-162756621D01*
X176761904Y-162518526D01*
X176714285Y-162423288D01*
X176666666Y-162375669D01*
X176571428Y-162328050D01*
X176380952Y-162328050D01*
X176285714Y-162375669D01*
X176238095Y-162423288D01*
X176190476Y-162518526D01*
%TO.C,D47*%
X189625714Y-188757097D02*
X189625714Y-187757097D01*
X189863809Y-187757097D01*
X190006666Y-187804717D01*
X190101904Y-187899955D01*
X190149523Y-187995193D01*
X190197142Y-188185669D01*
X190197142Y-188328526D01*
X190149523Y-188519002D01*
X190101904Y-188614240D01*
X190006666Y-188709478D01*
X189863809Y-188757097D01*
X189625714Y-188757097D01*
X191054285Y-188090431D02*
X191054285Y-188757097D01*
X190816190Y-187709478D02*
X190578095Y-188423764D01*
X191197142Y-188423764D01*
X191482857Y-187757097D02*
X192149523Y-187757097D01*
X191720952Y-188757097D01*
%TO.C,D37*%
X184445714Y-166757097D02*
X184445714Y-165757097D01*
X184683809Y-165757097D01*
X184826666Y-165804717D01*
X184921904Y-165899955D01*
X184969523Y-165995193D01*
X185017142Y-166185669D01*
X185017142Y-166328526D01*
X184969523Y-166519002D01*
X184921904Y-166614240D01*
X184826666Y-166709478D01*
X184683809Y-166757097D01*
X184445714Y-166757097D01*
X185350476Y-165757097D02*
X185969523Y-165757097D01*
X185636190Y-166138050D01*
X185779047Y-166138050D01*
X185874285Y-166185669D01*
X185921904Y-166233288D01*
X185969523Y-166328526D01*
X185969523Y-166566621D01*
X185921904Y-166661859D01*
X185874285Y-166709478D01*
X185779047Y-166757097D01*
X185493333Y-166757097D01*
X185398095Y-166709478D01*
X185350476Y-166661859D01*
X186302857Y-165757097D02*
X186969523Y-165757097D01*
X186540952Y-166757097D01*
%TO.C,D46*%
X184545714Y-188757097D02*
X184545714Y-187757097D01*
X184783809Y-187757097D01*
X184926666Y-187804717D01*
X185021904Y-187899955D01*
X185069523Y-187995193D01*
X185117142Y-188185669D01*
X185117142Y-188328526D01*
X185069523Y-188519002D01*
X185021904Y-188614240D01*
X184926666Y-188709478D01*
X184783809Y-188757097D01*
X184545714Y-188757097D01*
X185974285Y-188090431D02*
X185974285Y-188757097D01*
X185736190Y-187709478D02*
X185498095Y-188423764D01*
X186117142Y-188423764D01*
X186926666Y-187757097D02*
X186736190Y-187757097D01*
X186640952Y-187804717D01*
X186593333Y-187852336D01*
X186498095Y-187995193D01*
X186450476Y-188185669D01*
X186450476Y-188566621D01*
X186498095Y-188661859D01*
X186545714Y-188709478D01*
X186640952Y-188757097D01*
X186831428Y-188757097D01*
X186926666Y-188709478D01*
X186974285Y-188661859D01*
X187021904Y-188566621D01*
X187021904Y-188328526D01*
X186974285Y-188233288D01*
X186926666Y-188185669D01*
X186831428Y-188138050D01*
X186640952Y-188138050D01*
X186545714Y-188185669D01*
X186498095Y-188233288D01*
X186450476Y-188328526D01*
%TO.C,D30*%
X148885714Y-166757097D02*
X148885714Y-165757097D01*
X149123809Y-165757097D01*
X149266666Y-165804717D01*
X149361904Y-165899955D01*
X149409523Y-165995193D01*
X149457142Y-166185669D01*
X149457142Y-166328526D01*
X149409523Y-166519002D01*
X149361904Y-166614240D01*
X149266666Y-166709478D01*
X149123809Y-166757097D01*
X148885714Y-166757097D01*
X149790476Y-165757097D02*
X150409523Y-165757097D01*
X150076190Y-166138050D01*
X150219047Y-166138050D01*
X150314285Y-166185669D01*
X150361904Y-166233288D01*
X150409523Y-166328526D01*
X150409523Y-166566621D01*
X150361904Y-166661859D01*
X150314285Y-166709478D01*
X150219047Y-166757097D01*
X149933333Y-166757097D01*
X149838095Y-166709478D01*
X149790476Y-166661859D01*
X151028571Y-165757097D02*
X151123809Y-165757097D01*
X151219047Y-165804717D01*
X151266666Y-165852336D01*
X151314285Y-165947574D01*
X151361904Y-166138050D01*
X151361904Y-166376145D01*
X151314285Y-166566621D01*
X151266666Y-166661859D01*
X151219047Y-166709478D01*
X151123809Y-166757097D01*
X151028571Y-166757097D01*
X150933333Y-166709478D01*
X150885714Y-166661859D01*
X150838095Y-166566621D01*
X150790476Y-166376145D01*
X150790476Y-166138050D01*
X150838095Y-165947574D01*
X150885714Y-165852336D01*
X150933333Y-165804717D01*
X151028571Y-165757097D01*
%TO.C,*%
%TO.C,D38*%
X189525714Y-166757097D02*
X189525714Y-165757097D01*
X189763809Y-165757097D01*
X189906666Y-165804717D01*
X190001904Y-165899955D01*
X190049523Y-165995193D01*
X190097142Y-166185669D01*
X190097142Y-166328526D01*
X190049523Y-166519002D01*
X190001904Y-166614240D01*
X189906666Y-166709478D01*
X189763809Y-166757097D01*
X189525714Y-166757097D01*
X190430476Y-165757097D02*
X191049523Y-165757097D01*
X190716190Y-166138050D01*
X190859047Y-166138050D01*
X190954285Y-166185669D01*
X191001904Y-166233288D01*
X191049523Y-166328526D01*
X191049523Y-166566621D01*
X191001904Y-166661859D01*
X190954285Y-166709478D01*
X190859047Y-166757097D01*
X190573333Y-166757097D01*
X190478095Y-166709478D01*
X190430476Y-166661859D01*
X191620952Y-166185669D02*
X191525714Y-166138050D01*
X191478095Y-166090431D01*
X191430476Y-165995193D01*
X191430476Y-165947574D01*
X191478095Y-165852336D01*
X191525714Y-165804717D01*
X191620952Y-165757097D01*
X191811428Y-165757097D01*
X191906666Y-165804717D01*
X191954285Y-165852336D01*
X192001904Y-165947574D01*
X192001904Y-165995193D01*
X191954285Y-166090431D01*
X191906666Y-166138050D01*
X191811428Y-166185669D01*
X191620952Y-166185669D01*
X191525714Y-166233288D01*
X191478095Y-166280907D01*
X191430476Y-166376145D01*
X191430476Y-166566621D01*
X191478095Y-166661859D01*
X191525714Y-166709478D01*
X191620952Y-166757097D01*
X191811428Y-166757097D01*
X191906666Y-166709478D01*
X191954285Y-166661859D01*
X192001904Y-166566621D01*
X192001904Y-166376145D01*
X191954285Y-166280907D01*
X191906666Y-166233288D01*
X191811428Y-166185669D01*
%TO.C,D5*%
X169821904Y-175857097D02*
X169821904Y-174857097D01*
X170060000Y-174857097D01*
X170202857Y-174904717D01*
X170298095Y-174999955D01*
X170345714Y-175095193D01*
X170393333Y-175285669D01*
X170393333Y-175428526D01*
X170345714Y-175619002D01*
X170298095Y-175714240D01*
X170202857Y-175809478D01*
X170060000Y-175857097D01*
X169821904Y-175857097D01*
X171298095Y-174857097D02*
X170821904Y-174857097D01*
X170774285Y-175333288D01*
X170821904Y-175285669D01*
X170917142Y-175238050D01*
X171155238Y-175238050D01*
X171250476Y-175285669D01*
X171298095Y-175333288D01*
X171345714Y-175428526D01*
X171345714Y-175666621D01*
X171298095Y-175761859D01*
X171250476Y-175809478D01*
X171155238Y-175857097D01*
X170917142Y-175857097D01*
X170821904Y-175809478D01*
X170774285Y-175761859D01*
%TO.C,D23*%
X159045714Y-162947097D02*
X159045714Y-161947097D01*
X159283809Y-161947097D01*
X159426666Y-161994717D01*
X159521904Y-162089955D01*
X159569523Y-162185193D01*
X159617142Y-162375669D01*
X159617142Y-162518526D01*
X159569523Y-162709002D01*
X159521904Y-162804240D01*
X159426666Y-162899478D01*
X159283809Y-162947097D01*
X159045714Y-162947097D01*
X159998095Y-162042336D02*
X160045714Y-161994717D01*
X160140952Y-161947097D01*
X160379047Y-161947097D01*
X160474285Y-161994717D01*
X160521904Y-162042336D01*
X160569523Y-162137574D01*
X160569523Y-162232812D01*
X160521904Y-162375669D01*
X159950476Y-162947097D01*
X160569523Y-162947097D01*
X160902857Y-161947097D02*
X161521904Y-161947097D01*
X161188571Y-162328050D01*
X161331428Y-162328050D01*
X161426666Y-162375669D01*
X161474285Y-162423288D01*
X161521904Y-162518526D01*
X161521904Y-162756621D01*
X161474285Y-162851859D01*
X161426666Y-162899478D01*
X161331428Y-162947097D01*
X161045714Y-162947097D01*
X160950476Y-162899478D01*
X160902857Y-162851859D01*
%TO.C,*%
%TO.C,D56*%
X189625714Y-192567097D02*
X189625714Y-191567097D01*
X189863809Y-191567097D01*
X190006666Y-191614717D01*
X190101904Y-191709955D01*
X190149523Y-191805193D01*
X190197142Y-191995669D01*
X190197142Y-192138526D01*
X190149523Y-192329002D01*
X190101904Y-192424240D01*
X190006666Y-192519478D01*
X189863809Y-192567097D01*
X189625714Y-192567097D01*
X191101904Y-191567097D02*
X190625714Y-191567097D01*
X190578095Y-192043288D01*
X190625714Y-191995669D01*
X190720952Y-191948050D01*
X190959047Y-191948050D01*
X191054285Y-191995669D01*
X191101904Y-192043288D01*
X191149523Y-192138526D01*
X191149523Y-192376621D01*
X191101904Y-192471859D01*
X191054285Y-192519478D01*
X190959047Y-192567097D01*
X190720952Y-192567097D01*
X190625714Y-192519478D01*
X190578095Y-192471859D01*
X192006666Y-191567097D02*
X191816190Y-191567097D01*
X191720952Y-191614717D01*
X191673333Y-191662336D01*
X191578095Y-191805193D01*
X191530476Y-191995669D01*
X191530476Y-192376621D01*
X191578095Y-192471859D01*
X191625714Y-192519478D01*
X191720952Y-192567097D01*
X191911428Y-192567097D01*
X192006666Y-192519478D01*
X192054285Y-192471859D01*
X192101904Y-192376621D01*
X192101904Y-192138526D01*
X192054285Y-192043288D01*
X192006666Y-191995669D01*
X191911428Y-191948050D01*
X191720952Y-191948050D01*
X191625714Y-191995669D01*
X191578095Y-192043288D01*
X191530476Y-192138526D01*
%TO.C,*%
%TO.C,D41*%
X159145714Y-188757097D02*
X159145714Y-187757097D01*
X159383809Y-187757097D01*
X159526666Y-187804717D01*
X159621904Y-187899955D01*
X159669523Y-187995193D01*
X159717142Y-188185669D01*
X159717142Y-188328526D01*
X159669523Y-188519002D01*
X159621904Y-188614240D01*
X159526666Y-188709478D01*
X159383809Y-188757097D01*
X159145714Y-188757097D01*
X160574285Y-188090431D02*
X160574285Y-188757097D01*
X160336190Y-187709478D02*
X160098095Y-188423764D01*
X160717142Y-188423764D01*
X161621904Y-188757097D02*
X161050476Y-188757097D01*
X161336190Y-188757097D02*
X161336190Y-187757097D01*
X161240952Y-187899955D01*
X161145714Y-187995193D01*
X161050476Y-188042812D01*
%TO.C,*%
%TO.C,D22*%
X153965714Y-162947097D02*
X153965714Y-161947097D01*
X154203809Y-161947097D01*
X154346666Y-161994717D01*
X154441904Y-162089955D01*
X154489523Y-162185193D01*
X154537142Y-162375669D01*
X154537142Y-162518526D01*
X154489523Y-162709002D01*
X154441904Y-162804240D01*
X154346666Y-162899478D01*
X154203809Y-162947097D01*
X153965714Y-162947097D01*
X154918095Y-162042336D02*
X154965714Y-161994717D01*
X155060952Y-161947097D01*
X155299047Y-161947097D01*
X155394285Y-161994717D01*
X155441904Y-162042336D01*
X155489523Y-162137574D01*
X155489523Y-162232812D01*
X155441904Y-162375669D01*
X154870476Y-162947097D01*
X155489523Y-162947097D01*
X155870476Y-162042336D02*
X155918095Y-161994717D01*
X156013333Y-161947097D01*
X156251428Y-161947097D01*
X156346666Y-161994717D01*
X156394285Y-162042336D01*
X156441904Y-162137574D01*
X156441904Y-162232812D01*
X156394285Y-162375669D01*
X155822857Y-162947097D01*
X156441904Y-162947097D01*
%TO.C,D17*%
X161205714Y-205667097D02*
X161205714Y-204667097D01*
X161443809Y-204667097D01*
X161586666Y-204714717D01*
X161681904Y-204809955D01*
X161729523Y-204905193D01*
X161777142Y-205095669D01*
X161777142Y-205238526D01*
X161729523Y-205429002D01*
X161681904Y-205524240D01*
X161586666Y-205619478D01*
X161443809Y-205667097D01*
X161205714Y-205667097D01*
X162729523Y-205667097D02*
X162158095Y-205667097D01*
X162443809Y-205667097D02*
X162443809Y-204667097D01*
X162348571Y-204809955D01*
X162253333Y-204905193D01*
X162158095Y-204952812D01*
X163062857Y-204667097D02*
X163729523Y-204667097D01*
X163300952Y-205667097D01*
%TO.C,D53*%
X174385714Y-192567097D02*
X174385714Y-191567097D01*
X174623809Y-191567097D01*
X174766666Y-191614717D01*
X174861904Y-191709955D01*
X174909523Y-191805193D01*
X174957142Y-191995669D01*
X174957142Y-192138526D01*
X174909523Y-192329002D01*
X174861904Y-192424240D01*
X174766666Y-192519478D01*
X174623809Y-192567097D01*
X174385714Y-192567097D01*
X175861904Y-191567097D02*
X175385714Y-191567097D01*
X175338095Y-192043288D01*
X175385714Y-191995669D01*
X175480952Y-191948050D01*
X175719047Y-191948050D01*
X175814285Y-191995669D01*
X175861904Y-192043288D01*
X175909523Y-192138526D01*
X175909523Y-192376621D01*
X175861904Y-192471859D01*
X175814285Y-192519478D01*
X175719047Y-192567097D01*
X175480952Y-192567097D01*
X175385714Y-192519478D01*
X175338095Y-192471859D01*
X176242857Y-191567097D02*
X176861904Y-191567097D01*
X176528571Y-191948050D01*
X176671428Y-191948050D01*
X176766666Y-191995669D01*
X176814285Y-192043288D01*
X176861904Y-192138526D01*
X176861904Y-192376621D01*
X176814285Y-192471859D01*
X176766666Y-192519478D01*
X176671428Y-192567097D01*
X176385714Y-192567097D01*
X176290476Y-192519478D01*
X176242857Y-192471859D01*
%TO.C,D16*%
X176445714Y-201857097D02*
X176445714Y-200857097D01*
X176683809Y-200857097D01*
X176826666Y-200904717D01*
X176921904Y-200999955D01*
X176969523Y-201095193D01*
X177017142Y-201285669D01*
X177017142Y-201428526D01*
X176969523Y-201619002D01*
X176921904Y-201714240D01*
X176826666Y-201809478D01*
X176683809Y-201857097D01*
X176445714Y-201857097D01*
X177969523Y-201857097D02*
X177398095Y-201857097D01*
X177683809Y-201857097D02*
X177683809Y-200857097D01*
X177588571Y-200999955D01*
X177493333Y-201095193D01*
X177398095Y-201142812D01*
X178826666Y-200857097D02*
X178636190Y-200857097D01*
X178540952Y-200904717D01*
X178493333Y-200952336D01*
X178398095Y-201095193D01*
X178350476Y-201285669D01*
X178350476Y-201666621D01*
X178398095Y-201761859D01*
X178445714Y-201809478D01*
X178540952Y-201857097D01*
X178731428Y-201857097D01*
X178826666Y-201809478D01*
X178874285Y-201761859D01*
X178921904Y-201666621D01*
X178921904Y-201428526D01*
X178874285Y-201333288D01*
X178826666Y-201285669D01*
X178731428Y-201238050D01*
X178540952Y-201238050D01*
X178445714Y-201285669D01*
X178398095Y-201333288D01*
X178350476Y-201428526D01*
%TO.C,D51*%
X164225714Y-192567097D02*
X164225714Y-191567097D01*
X164463809Y-191567097D01*
X164606666Y-191614717D01*
X164701904Y-191709955D01*
X164749523Y-191805193D01*
X164797142Y-191995669D01*
X164797142Y-192138526D01*
X164749523Y-192329002D01*
X164701904Y-192424240D01*
X164606666Y-192519478D01*
X164463809Y-192567097D01*
X164225714Y-192567097D01*
X165701904Y-191567097D02*
X165225714Y-191567097D01*
X165178095Y-192043288D01*
X165225714Y-191995669D01*
X165320952Y-191948050D01*
X165559047Y-191948050D01*
X165654285Y-191995669D01*
X165701904Y-192043288D01*
X165749523Y-192138526D01*
X165749523Y-192376621D01*
X165701904Y-192471859D01*
X165654285Y-192519478D01*
X165559047Y-192567097D01*
X165320952Y-192567097D01*
X165225714Y-192519478D01*
X165178095Y-192471859D01*
X166701904Y-192567097D02*
X166130476Y-192567097D01*
X166416190Y-192567097D02*
X166416190Y-191567097D01*
X166320952Y-191709955D01*
X166225714Y-191805193D01*
X166130476Y-191852812D01*
%TO.C,*%
%TO.C,D24*%
X164125714Y-162947097D02*
X164125714Y-161947097D01*
X164363809Y-161947097D01*
X164506666Y-161994717D01*
X164601904Y-162089955D01*
X164649523Y-162185193D01*
X164697142Y-162375669D01*
X164697142Y-162518526D01*
X164649523Y-162709002D01*
X164601904Y-162804240D01*
X164506666Y-162899478D01*
X164363809Y-162947097D01*
X164125714Y-162947097D01*
X165078095Y-162042336D02*
X165125714Y-161994717D01*
X165220952Y-161947097D01*
X165459047Y-161947097D01*
X165554285Y-161994717D01*
X165601904Y-162042336D01*
X165649523Y-162137574D01*
X165649523Y-162232812D01*
X165601904Y-162375669D01*
X165030476Y-162947097D01*
X165649523Y-162947097D01*
X166506666Y-162280431D02*
X166506666Y-162947097D01*
X166268571Y-161899478D02*
X166030476Y-162613764D01*
X166649523Y-162613764D01*
%TO.C,D48*%
X148985714Y-192567097D02*
X148985714Y-191567097D01*
X149223809Y-191567097D01*
X149366666Y-191614717D01*
X149461904Y-191709955D01*
X149509523Y-191805193D01*
X149557142Y-191995669D01*
X149557142Y-192138526D01*
X149509523Y-192329002D01*
X149461904Y-192424240D01*
X149366666Y-192519478D01*
X149223809Y-192567097D01*
X148985714Y-192567097D01*
X150414285Y-191900431D02*
X150414285Y-192567097D01*
X150176190Y-191519478D02*
X149938095Y-192233764D01*
X150557142Y-192233764D01*
X151080952Y-191995669D02*
X150985714Y-191948050D01*
X150938095Y-191900431D01*
X150890476Y-191805193D01*
X150890476Y-191757574D01*
X150938095Y-191662336D01*
X150985714Y-191614717D01*
X151080952Y-191567097D01*
X151271428Y-191567097D01*
X151366666Y-191614717D01*
X151414285Y-191662336D01*
X151461904Y-191757574D01*
X151461904Y-191805193D01*
X151414285Y-191900431D01*
X151366666Y-191948050D01*
X151271428Y-191995669D01*
X151080952Y-191995669D01*
X150985714Y-192043288D01*
X150938095Y-192090907D01*
X150890476Y-192186145D01*
X150890476Y-192376621D01*
X150938095Y-192471859D01*
X150985714Y-192519478D01*
X151080952Y-192567097D01*
X151271428Y-192567097D01*
X151366666Y-192519478D01*
X151414285Y-192471859D01*
X151461904Y-192376621D01*
X151461904Y-192186145D01*
X151414285Y-192090907D01*
X151366666Y-192043288D01*
X151271428Y-191995669D01*
%TO.C,D19*%
X171365714Y-205667097D02*
X171365714Y-204667097D01*
X171603809Y-204667097D01*
X171746666Y-204714717D01*
X171841904Y-204809955D01*
X171889523Y-204905193D01*
X171937142Y-205095669D01*
X171937142Y-205238526D01*
X171889523Y-205429002D01*
X171841904Y-205524240D01*
X171746666Y-205619478D01*
X171603809Y-205667097D01*
X171365714Y-205667097D01*
X172889523Y-205667097D02*
X172318095Y-205667097D01*
X172603809Y-205667097D02*
X172603809Y-204667097D01*
X172508571Y-204809955D01*
X172413333Y-204905193D01*
X172318095Y-204952812D01*
X173365714Y-205667097D02*
X173556190Y-205667097D01*
X173651428Y-205619478D01*
X173699047Y-205571859D01*
X173794285Y-205429002D01*
X173841904Y-205238526D01*
X173841904Y-204857574D01*
X173794285Y-204762336D01*
X173746666Y-204714717D01*
X173651428Y-204667097D01*
X173460952Y-204667097D01*
X173365714Y-204714717D01*
X173318095Y-204762336D01*
X173270476Y-204857574D01*
X173270476Y-205095669D01*
X173318095Y-205190907D01*
X173365714Y-205238526D01*
X173460952Y-205286145D01*
X173651428Y-205286145D01*
X173746666Y-205238526D01*
X173794285Y-205190907D01*
X173841904Y-205095669D01*
%TO.C,D50*%
X159145714Y-192567097D02*
X159145714Y-191567097D01*
X159383809Y-191567097D01*
X159526666Y-191614717D01*
X159621904Y-191709955D01*
X159669523Y-191805193D01*
X159717142Y-191995669D01*
X159717142Y-192138526D01*
X159669523Y-192329002D01*
X159621904Y-192424240D01*
X159526666Y-192519478D01*
X159383809Y-192567097D01*
X159145714Y-192567097D01*
X160621904Y-191567097D02*
X160145714Y-191567097D01*
X160098095Y-192043288D01*
X160145714Y-191995669D01*
X160240952Y-191948050D01*
X160479047Y-191948050D01*
X160574285Y-191995669D01*
X160621904Y-192043288D01*
X160669523Y-192138526D01*
X160669523Y-192376621D01*
X160621904Y-192471859D01*
X160574285Y-192519478D01*
X160479047Y-192567097D01*
X160240952Y-192567097D01*
X160145714Y-192519478D01*
X160098095Y-192471859D01*
X161288571Y-191567097D02*
X161383809Y-191567097D01*
X161479047Y-191614717D01*
X161526666Y-191662336D01*
X161574285Y-191757574D01*
X161621904Y-191948050D01*
X161621904Y-192186145D01*
X161574285Y-192376621D01*
X161526666Y-192471859D01*
X161479047Y-192519478D01*
X161383809Y-192567097D01*
X161288571Y-192567097D01*
X161193333Y-192519478D01*
X161145714Y-192471859D01*
X161098095Y-192376621D01*
X161050476Y-192186145D01*
X161050476Y-191948050D01*
X161098095Y-191757574D01*
X161145714Y-191662336D01*
X161193333Y-191614717D01*
X161288571Y-191567097D01*
%TO.C,D42*%
X164225714Y-188757097D02*
X164225714Y-187757097D01*
X164463809Y-187757097D01*
X164606666Y-187804717D01*
X164701904Y-187899955D01*
X164749523Y-187995193D01*
X164797142Y-188185669D01*
X164797142Y-188328526D01*
X164749523Y-188519002D01*
X164701904Y-188614240D01*
X164606666Y-188709478D01*
X164463809Y-188757097D01*
X164225714Y-188757097D01*
X165654285Y-188090431D02*
X165654285Y-188757097D01*
X165416190Y-187709478D02*
X165178095Y-188423764D01*
X165797142Y-188423764D01*
X166130476Y-187852336D02*
X166178095Y-187804717D01*
X166273333Y-187757097D01*
X166511428Y-187757097D01*
X166606666Y-187804717D01*
X166654285Y-187852336D01*
X166701904Y-187947574D01*
X166701904Y-188042812D01*
X166654285Y-188185669D01*
X166082857Y-188757097D01*
X166701904Y-188757097D01*
%TO.C,D8*%
X159661904Y-179667097D02*
X159661904Y-178667097D01*
X159900000Y-178667097D01*
X160042857Y-178714717D01*
X160138095Y-178809955D01*
X160185714Y-178905193D01*
X160233333Y-179095669D01*
X160233333Y-179238526D01*
X160185714Y-179429002D01*
X160138095Y-179524240D01*
X160042857Y-179619478D01*
X159900000Y-179667097D01*
X159661904Y-179667097D01*
X160804761Y-179095669D02*
X160709523Y-179048050D01*
X160661904Y-179000431D01*
X160614285Y-178905193D01*
X160614285Y-178857574D01*
X160661904Y-178762336D01*
X160709523Y-178714717D01*
X160804761Y-178667097D01*
X160995238Y-178667097D01*
X161090476Y-178714717D01*
X161138095Y-178762336D01*
X161185714Y-178857574D01*
X161185714Y-178905193D01*
X161138095Y-179000431D01*
X161090476Y-179048050D01*
X160995238Y-179095669D01*
X160804761Y-179095669D01*
X160709523Y-179143288D01*
X160661904Y-179190907D01*
X160614285Y-179286145D01*
X160614285Y-179476621D01*
X160661904Y-179571859D01*
X160709523Y-179619478D01*
X160804761Y-179667097D01*
X160995238Y-179667097D01*
X161090476Y-179619478D01*
X161138095Y-179571859D01*
X161185714Y-179476621D01*
X161185714Y-179286145D01*
X161138095Y-179190907D01*
X161090476Y-179143288D01*
X160995238Y-179095669D01*
%TO.C,D27*%
X179365714Y-162947097D02*
X179365714Y-161947097D01*
X179603809Y-161947097D01*
X179746666Y-161994717D01*
X179841904Y-162089955D01*
X179889523Y-162185193D01*
X179937142Y-162375669D01*
X179937142Y-162518526D01*
X179889523Y-162709002D01*
X179841904Y-162804240D01*
X179746666Y-162899478D01*
X179603809Y-162947097D01*
X179365714Y-162947097D01*
X180318095Y-162042336D02*
X180365714Y-161994717D01*
X180460952Y-161947097D01*
X180699047Y-161947097D01*
X180794285Y-161994717D01*
X180841904Y-162042336D01*
X180889523Y-162137574D01*
X180889523Y-162232812D01*
X180841904Y-162375669D01*
X180270476Y-162947097D01*
X180889523Y-162947097D01*
X181222857Y-161947097D02*
X181889523Y-161947097D01*
X181460952Y-162947097D01*
%TO.C,D2*%
X169661904Y-153867097D02*
X169661904Y-152867097D01*
X169900000Y-152867097D01*
X170042857Y-152914717D01*
X170138095Y-153009955D01*
X170185714Y-153105193D01*
X170233333Y-153295669D01*
X170233333Y-153438526D01*
X170185714Y-153629002D01*
X170138095Y-153724240D01*
X170042857Y-153819478D01*
X169900000Y-153867097D01*
X169661904Y-153867097D01*
X170614285Y-152962336D02*
X170661904Y-152914717D01*
X170757142Y-152867097D01*
X170995238Y-152867097D01*
X171090476Y-152914717D01*
X171138095Y-152962336D01*
X171185714Y-153057574D01*
X171185714Y-153152812D01*
X171138095Y-153295669D01*
X170566666Y-153867097D01*
X171185714Y-153867097D01*
%TO.C,D15*%
X171365714Y-201857097D02*
X171365714Y-200857097D01*
X171603809Y-200857097D01*
X171746666Y-200904717D01*
X171841904Y-200999955D01*
X171889523Y-201095193D01*
X171937142Y-201285669D01*
X171937142Y-201428526D01*
X171889523Y-201619002D01*
X171841904Y-201714240D01*
X171746666Y-201809478D01*
X171603809Y-201857097D01*
X171365714Y-201857097D01*
X172889523Y-201857097D02*
X172318095Y-201857097D01*
X172603809Y-201857097D02*
X172603809Y-200857097D01*
X172508571Y-200999955D01*
X172413333Y-201095193D01*
X172318095Y-201142812D01*
X173794285Y-200857097D02*
X173318095Y-200857097D01*
X173270476Y-201333288D01*
X173318095Y-201285669D01*
X173413333Y-201238050D01*
X173651428Y-201238050D01*
X173746666Y-201285669D01*
X173794285Y-201333288D01*
X173841904Y-201428526D01*
X173841904Y-201666621D01*
X173794285Y-201761859D01*
X173746666Y-201809478D01*
X173651428Y-201857097D01*
X173413333Y-201857097D01*
X173318095Y-201809478D01*
X173270476Y-201761859D01*
%TO.C,D4*%
X164741904Y-175857097D02*
X164741904Y-174857097D01*
X164980000Y-174857097D01*
X165122857Y-174904717D01*
X165218095Y-174999955D01*
X165265714Y-175095193D01*
X165313333Y-175285669D01*
X165313333Y-175428526D01*
X165265714Y-175619002D01*
X165218095Y-175714240D01*
X165122857Y-175809478D01*
X164980000Y-175857097D01*
X164741904Y-175857097D01*
X166170476Y-175190431D02*
X166170476Y-175857097D01*
X165932380Y-174809478D02*
X165694285Y-175523764D01*
X166313333Y-175523764D01*
%TO.C,*%
%TO.C,D35*%
X174285714Y-166757097D02*
X174285714Y-165757097D01*
X174523809Y-165757097D01*
X174666666Y-165804717D01*
X174761904Y-165899955D01*
X174809523Y-165995193D01*
X174857142Y-166185669D01*
X174857142Y-166328526D01*
X174809523Y-166519002D01*
X174761904Y-166614240D01*
X174666666Y-166709478D01*
X174523809Y-166757097D01*
X174285714Y-166757097D01*
X175190476Y-165757097D02*
X175809523Y-165757097D01*
X175476190Y-166138050D01*
X175619047Y-166138050D01*
X175714285Y-166185669D01*
X175761904Y-166233288D01*
X175809523Y-166328526D01*
X175809523Y-166566621D01*
X175761904Y-166661859D01*
X175714285Y-166709478D01*
X175619047Y-166757097D01*
X175333333Y-166757097D01*
X175238095Y-166709478D01*
X175190476Y-166661859D01*
X176714285Y-165757097D02*
X176238095Y-165757097D01*
X176190476Y-166233288D01*
X176238095Y-166185669D01*
X176333333Y-166138050D01*
X176571428Y-166138050D01*
X176666666Y-166185669D01*
X176714285Y-166233288D01*
X176761904Y-166328526D01*
X176761904Y-166566621D01*
X176714285Y-166661859D01*
X176666666Y-166709478D01*
X176571428Y-166757097D01*
X176333333Y-166757097D01*
X176238095Y-166709478D01*
X176190476Y-166661859D01*
%TO.C,D9*%
X164741904Y-179667097D02*
X164741904Y-178667097D01*
X164980000Y-178667097D01*
X165122857Y-178714717D01*
X165218095Y-178809955D01*
X165265714Y-178905193D01*
X165313333Y-179095669D01*
X165313333Y-179238526D01*
X165265714Y-179429002D01*
X165218095Y-179524240D01*
X165122857Y-179619478D01*
X164980000Y-179667097D01*
X164741904Y-179667097D01*
X165789523Y-179667097D02*
X165980000Y-179667097D01*
X166075238Y-179619478D01*
X166122857Y-179571859D01*
X166218095Y-179429002D01*
X166265714Y-179238526D01*
X166265714Y-178857574D01*
X166218095Y-178762336D01*
X166170476Y-178714717D01*
X166075238Y-178667097D01*
X165884761Y-178667097D01*
X165789523Y-178714717D01*
X165741904Y-178762336D01*
X165694285Y-178857574D01*
X165694285Y-179095669D01*
X165741904Y-179190907D01*
X165789523Y-179238526D01*
X165884761Y-179286145D01*
X166075238Y-179286145D01*
X166170476Y-179238526D01*
X166218095Y-179190907D01*
X166265714Y-179095669D01*
%TO.C,D7*%
X179981904Y-175857097D02*
X179981904Y-174857097D01*
X180220000Y-174857097D01*
X180362857Y-174904717D01*
X180458095Y-174999955D01*
X180505714Y-175095193D01*
X180553333Y-175285669D01*
X180553333Y-175428526D01*
X180505714Y-175619002D01*
X180458095Y-175714240D01*
X180362857Y-175809478D01*
X180220000Y-175857097D01*
X179981904Y-175857097D01*
X180886666Y-174857097D02*
X181553333Y-174857097D01*
X181124761Y-175857097D01*
%TO.C,D36*%
X179365714Y-166757097D02*
X179365714Y-165757097D01*
X179603809Y-165757097D01*
X179746666Y-165804717D01*
X179841904Y-165899955D01*
X179889523Y-165995193D01*
X179937142Y-166185669D01*
X179937142Y-166328526D01*
X179889523Y-166519002D01*
X179841904Y-166614240D01*
X179746666Y-166709478D01*
X179603809Y-166757097D01*
X179365714Y-166757097D01*
X180270476Y-165757097D02*
X180889523Y-165757097D01*
X180556190Y-166138050D01*
X180699047Y-166138050D01*
X180794285Y-166185669D01*
X180841904Y-166233288D01*
X180889523Y-166328526D01*
X180889523Y-166566621D01*
X180841904Y-166661859D01*
X180794285Y-166709478D01*
X180699047Y-166757097D01*
X180413333Y-166757097D01*
X180318095Y-166709478D01*
X180270476Y-166661859D01*
X181746666Y-165757097D02*
X181556190Y-165757097D01*
X181460952Y-165804717D01*
X181413333Y-165852336D01*
X181318095Y-165995193D01*
X181270476Y-166185669D01*
X181270476Y-166566621D01*
X181318095Y-166661859D01*
X181365714Y-166709478D01*
X181460952Y-166757097D01*
X181651428Y-166757097D01*
X181746666Y-166709478D01*
X181794285Y-166661859D01*
X181841904Y-166566621D01*
X181841904Y-166328526D01*
X181794285Y-166233288D01*
X181746666Y-166185669D01*
X181651428Y-166138050D01*
X181460952Y-166138050D01*
X181365714Y-166185669D01*
X181318095Y-166233288D01*
X181270476Y-166328526D01*
%TO.C,D13*%
X161205714Y-201857097D02*
X161205714Y-200857097D01*
X161443809Y-200857097D01*
X161586666Y-200904717D01*
X161681904Y-200999955D01*
X161729523Y-201095193D01*
X161777142Y-201285669D01*
X161777142Y-201428526D01*
X161729523Y-201619002D01*
X161681904Y-201714240D01*
X161586666Y-201809478D01*
X161443809Y-201857097D01*
X161205714Y-201857097D01*
X162729523Y-201857097D02*
X162158095Y-201857097D01*
X162443809Y-201857097D02*
X162443809Y-200857097D01*
X162348571Y-200999955D01*
X162253333Y-201095193D01*
X162158095Y-201142812D01*
X163062857Y-200857097D02*
X163681904Y-200857097D01*
X163348571Y-201238050D01*
X163491428Y-201238050D01*
X163586666Y-201285669D01*
X163634285Y-201333288D01*
X163681904Y-201428526D01*
X163681904Y-201666621D01*
X163634285Y-201761859D01*
X163586666Y-201809478D01*
X163491428Y-201857097D01*
X163205714Y-201857097D01*
X163110476Y-201809478D01*
X163062857Y-201761859D01*
%TO.C,*%
D11*
%TO.C,D54*%
X181480000Y-192809717D02*
X179020000Y-192809717D01*
X179020000Y-192809717D02*
X179020000Y-194279717D01*
X179020000Y-194279717D02*
X181480000Y-194279717D01*
%TO.C,D34*%
X168760000Y-168469717D02*
X171220000Y-168469717D01*
X168760000Y-166999717D02*
X168760000Y-168469717D01*
X171220000Y-166999717D02*
X168760000Y-166999717D01*
%TO.C,REF\u002A\u002A*%
X155900000Y-147134717D02*
X155900000Y-145734717D01*
X157300000Y-145734717D02*
X157300000Y-147134717D01*
X155900000Y-145734717D02*
X157300000Y-145734717D01*
X157300000Y-147134717D02*
X155900000Y-147134717D01*
%TO.C,D20*%
X176000000Y-205909717D02*
X176000000Y-207379717D01*
X178460000Y-205909717D02*
X176000000Y-205909717D01*
X176000000Y-207379717D02*
X178460000Y-207379717D01*
%TO.C,D44*%
X173940000Y-190469717D02*
X176400000Y-190469717D01*
X173940000Y-188999717D02*
X173940000Y-190469717D01*
X176400000Y-188999717D02*
X173940000Y-188999717D01*
%TO.C,D49*%
X153620000Y-192809717D02*
X153620000Y-194279717D01*
X156080000Y-192809717D02*
X153620000Y-192809717D01*
X153620000Y-194279717D02*
X156080000Y-194279717D01*
%TO.C,D10*%
X168900000Y-181379717D02*
X171360000Y-181379717D01*
X171360000Y-179909717D02*
X168900000Y-179909717D01*
X168900000Y-179909717D02*
X168900000Y-181379717D01*
%TO.C,D28*%
X184000000Y-164659717D02*
X186460000Y-164659717D01*
X184000000Y-163189717D02*
X184000000Y-164659717D01*
X186460000Y-163189717D02*
X184000000Y-163189717D01*
%TO.C,D25*%
X168760000Y-163189717D02*
X168760000Y-164659717D01*
X168760000Y-164659717D02*
X171220000Y-164659717D01*
X171220000Y-163189717D02*
X168760000Y-163189717D01*
%TO.C,D43*%
X168860000Y-190469717D02*
X171320000Y-190469717D01*
X168860000Y-188999717D02*
X168860000Y-190469717D01*
X171320000Y-188999717D02*
X168860000Y-188999717D01*
%TO.C,D31*%
X153520000Y-166999717D02*
X153520000Y-168469717D01*
X155980000Y-166999717D02*
X153520000Y-166999717D01*
X153520000Y-168469717D02*
X155980000Y-168469717D01*
%TO.C,D6*%
X173980000Y-176099717D02*
X173980000Y-177569717D01*
X173980000Y-177569717D02*
X176440000Y-177569717D01*
X176440000Y-176099717D02*
X173980000Y-176099717D01*
%TO.C,D29*%
X191540000Y-163189717D02*
X189080000Y-163189717D01*
X189080000Y-163189717D02*
X189080000Y-164659717D01*
X189080000Y-164659717D02*
X191540000Y-164659717D01*
%TO.C,D1*%
X171200000Y-150299717D02*
X168740000Y-150299717D01*
X168740000Y-150299717D02*
X168740000Y-151769717D01*
X168740000Y-151769717D02*
X171200000Y-151769717D01*
%TO.C,D3*%
X158740000Y-176099717D02*
X158740000Y-177569717D01*
X161200000Y-176099717D02*
X158740000Y-176099717D01*
X158740000Y-177569717D02*
X161200000Y-177569717D01*
%TO.C,D33*%
X163680000Y-168469717D02*
X166140000Y-168469717D01*
X166140000Y-166999717D02*
X163680000Y-166999717D01*
X163680000Y-166999717D02*
X163680000Y-168469717D01*
%TO.C,D52*%
X168860000Y-192809717D02*
X168860000Y-194279717D01*
X171320000Y-192809717D02*
X168860000Y-192809717D01*
X168860000Y-194279717D02*
X171320000Y-194279717D01*
%TO.C,D21*%
X148440000Y-164659717D02*
X150900000Y-164659717D01*
X150900000Y-163189717D02*
X148440000Y-163189717D01*
X148440000Y-163189717D02*
X148440000Y-164659717D01*
%TO.C,D12*%
X179060000Y-179909717D02*
X179060000Y-181379717D01*
X179060000Y-181379717D02*
X181520000Y-181379717D01*
X181520000Y-179909717D02*
X179060000Y-179909717D01*
%TO.C,D45*%
X181480000Y-188999717D02*
X179020000Y-188999717D01*
X179020000Y-188999717D02*
X179020000Y-190469717D01*
X179020000Y-190469717D02*
X181480000Y-190469717D01*
%TO.C,D55*%
X186560000Y-192809717D02*
X184100000Y-192809717D01*
X184100000Y-194279717D02*
X186560000Y-194279717D01*
X184100000Y-192809717D02*
X184100000Y-194279717D01*
%TO.C,D40*%
X153620000Y-190469717D02*
X156080000Y-190469717D01*
X153620000Y-188999717D02*
X153620000Y-190469717D01*
X156080000Y-188999717D02*
X153620000Y-188999717D01*
%TO.C,D39*%
X148540000Y-190469717D02*
X151000000Y-190469717D01*
X148540000Y-188999717D02*
X148540000Y-190469717D01*
X151000000Y-188999717D02*
X148540000Y-188999717D01*
%TO.C,D14*%
X165840000Y-203569717D02*
X168300000Y-203569717D01*
X168300000Y-202099717D02*
X165840000Y-202099717D01*
X165840000Y-202099717D02*
X165840000Y-203569717D01*
%TO.C,D18*%
X165840000Y-207379717D02*
X168300000Y-207379717D01*
X168300000Y-205909717D02*
X165840000Y-205909717D01*
X165840000Y-205909717D02*
X165840000Y-207379717D01*
%TO.C,D32*%
X158600000Y-166999717D02*
X158600000Y-168469717D01*
X158600000Y-168469717D02*
X161060000Y-168469717D01*
X161060000Y-166999717D02*
X158600000Y-166999717D01*
%TO.C,D11*%
X173980000Y-179909717D02*
X173980000Y-181379717D01*
X173980000Y-181379717D02*
X176440000Y-181379717D01*
X176440000Y-179909717D02*
X173980000Y-179909717D01*
%TO.C,D26*%
X176300000Y-163189717D02*
X173840000Y-163189717D01*
X173840000Y-163189717D02*
X173840000Y-164659717D01*
X173840000Y-164659717D02*
X176300000Y-164659717D01*
%TO.C,D47*%
X189180000Y-190469717D02*
X191640000Y-190469717D01*
X189180000Y-188999717D02*
X189180000Y-190469717D01*
X191640000Y-188999717D02*
X189180000Y-188999717D01*
%TO.C,D37*%
X184000000Y-168469717D02*
X186460000Y-168469717D01*
X186460000Y-166999717D02*
X184000000Y-166999717D01*
X184000000Y-166999717D02*
X184000000Y-168469717D01*
%TO.C,D46*%
X184100000Y-190469717D02*
X186560000Y-190469717D01*
X186560000Y-188999717D02*
X184100000Y-188999717D01*
X184100000Y-188999717D02*
X184100000Y-190469717D01*
%TO.C,D30*%
X150900000Y-166999717D02*
X148440000Y-166999717D01*
X148440000Y-166999717D02*
X148440000Y-168469717D01*
X148440000Y-168469717D02*
X150900000Y-168469717D01*
%TO.C,D38*%
X191540000Y-166999717D02*
X189080000Y-166999717D01*
X189080000Y-168469717D02*
X191540000Y-168469717D01*
X189080000Y-166999717D02*
X189080000Y-168469717D01*
%TO.C,D5*%
X171360000Y-176099717D02*
X168900000Y-176099717D01*
X168900000Y-176099717D02*
X168900000Y-177569717D01*
X168900000Y-177569717D02*
X171360000Y-177569717D01*
%TO.C,D23*%
X158600000Y-163189717D02*
X158600000Y-164659717D01*
X161060000Y-163189717D02*
X158600000Y-163189717D01*
X158600000Y-164659717D02*
X161060000Y-164659717D01*
%TO.C,D56*%
X191640000Y-192809717D02*
X189180000Y-192809717D01*
X189180000Y-194279717D02*
X191640000Y-194279717D01*
X189180000Y-192809717D02*
X189180000Y-194279717D01*
%TO.C,D41*%
X158700000Y-190469717D02*
X161160000Y-190469717D01*
X158700000Y-188999717D02*
X158700000Y-190469717D01*
X161160000Y-188999717D02*
X158700000Y-188999717D01*
%TO.C,D22*%
X155980000Y-163189717D02*
X153520000Y-163189717D01*
X153520000Y-163189717D02*
X153520000Y-164659717D01*
X153520000Y-164659717D02*
X155980000Y-164659717D01*
%TO.C,D17*%
X163220000Y-205909717D02*
X160760000Y-205909717D01*
X160760000Y-207379717D02*
X163220000Y-207379717D01*
X160760000Y-205909717D02*
X160760000Y-207379717D01*
%TO.C,D53*%
X176400000Y-192809717D02*
X173940000Y-192809717D01*
X173940000Y-192809717D02*
X173940000Y-194279717D01*
X173940000Y-194279717D02*
X176400000Y-194279717D01*
%TO.C,D16*%
X176000000Y-203569717D02*
X178460000Y-203569717D01*
X176000000Y-202099717D02*
X176000000Y-203569717D01*
X178460000Y-202099717D02*
X176000000Y-202099717D01*
%TO.C,D51*%
X163780000Y-192809717D02*
X163780000Y-194279717D01*
X166240000Y-192809717D02*
X163780000Y-192809717D01*
X163780000Y-194279717D02*
X166240000Y-194279717D01*
%TO.C,D24*%
X166140000Y-163189717D02*
X163680000Y-163189717D01*
X163680000Y-164659717D02*
X166140000Y-164659717D01*
X163680000Y-163189717D02*
X163680000Y-164659717D01*
%TO.C,D48*%
X151000000Y-192809717D02*
X148540000Y-192809717D01*
X148540000Y-194279717D02*
X151000000Y-194279717D01*
X148540000Y-192809717D02*
X148540000Y-194279717D01*
%TO.C,D19*%
X170920000Y-207379717D02*
X173380000Y-207379717D01*
X173380000Y-205909717D02*
X170920000Y-205909717D01*
X170920000Y-205909717D02*
X170920000Y-207379717D01*
%TO.C,D50*%
X161160000Y-192809717D02*
X158700000Y-192809717D01*
X158700000Y-192809717D02*
X158700000Y-194279717D01*
X158700000Y-194279717D02*
X161160000Y-194279717D01*
%TO.C,D42*%
X163780000Y-188999717D02*
X163780000Y-190469717D01*
X166240000Y-188999717D02*
X163780000Y-188999717D01*
X163780000Y-190469717D02*
X166240000Y-190469717D01*
%TO.C,D8*%
X161200000Y-179909717D02*
X158740000Y-179909717D01*
X158740000Y-181379717D02*
X161200000Y-181379717D01*
X158740000Y-179909717D02*
X158740000Y-181379717D01*
%TO.C,D27*%
X178920000Y-163189717D02*
X178920000Y-164659717D01*
X178920000Y-164659717D02*
X181380000Y-164659717D01*
X181380000Y-163189717D02*
X178920000Y-163189717D01*
%TO.C,D2*%
X168740000Y-155579717D02*
X171200000Y-155579717D01*
X171200000Y-154109717D02*
X168740000Y-154109717D01*
X168740000Y-154109717D02*
X168740000Y-155579717D01*
%TO.C,D15*%
X173380000Y-202099717D02*
X170920000Y-202099717D01*
X170920000Y-202099717D02*
X170920000Y-203569717D01*
X170920000Y-203569717D02*
X173380000Y-203569717D01*
%TO.C,D4*%
X163820000Y-176099717D02*
X163820000Y-177569717D01*
X163820000Y-177569717D02*
X166280000Y-177569717D01*
X166280000Y-176099717D02*
X163820000Y-176099717D01*
%TO.C,D35*%
X173840000Y-168469717D02*
X176300000Y-168469717D01*
X173840000Y-166999717D02*
X173840000Y-168469717D01*
X176300000Y-166999717D02*
X173840000Y-166999717D01*
%TO.C,D9*%
X166280000Y-179909717D02*
X163820000Y-179909717D01*
X163820000Y-181379717D02*
X166280000Y-181379717D01*
X163820000Y-179909717D02*
X163820000Y-181379717D01*
%TO.C,D7*%
X181520000Y-176099717D02*
X179060000Y-176099717D01*
X179060000Y-176099717D02*
X179060000Y-177569717D01*
X179060000Y-177569717D02*
X181520000Y-177569717D01*
%TO.C,D36*%
X178920000Y-168469717D02*
X181380000Y-168469717D01*
X178920000Y-166999717D02*
X178920000Y-168469717D01*
X181380000Y-166999717D02*
X178920000Y-166999717D01*
%TO.C,D13*%
X160760000Y-202099717D02*
X160760000Y-203569717D01*
X163220000Y-202099717D02*
X160760000Y-202099717D01*
X160760000Y-203569717D02*
X163220000Y-203569717D01*
%TD*%
M02*
