M48
; DRILL file {KiCad (6.0.2)} date Mon Mar 28 13:54:45 2022
; FORMAT={-:-/ absolute / metric / decimal}
; #@! TF.CreationDate,2022-03-28T13:54:45-07:00
; #@! TF.GenerationSoftware,Kicad,Pcbnew,(6.0.2)
; #@! TF.FileFunction,Plated,1,2,PTH
FMAT,2
METRIC
; #@! TA.AperFunction,Plated,PTH,ViaDrill
T1C0.400
; #@! TA.AperFunction,Plated,PTH,ComponentDrill
T2C0.762
; #@! TA.AperFunction,Plated,PTH,ComponentDrill
T3C1.000
%
G90
G05
T1
X152.5Y-67.185
X158.012Y-77.822
X159.55Y-177.947
X159.55Y-181.757
X161.57Y-203.947
X161.57Y-207.757
X164.63Y-177.947
X164.63Y-181.757
X166.65Y-203.947
X166.65Y-207.757
X169.55Y-152.285
X169.55Y-156.122
X169.71Y-177.947
X169.71Y-181.757
X171.73Y-203.947
X171.775Y-207.757
X174.79Y-177.947
X174.79Y-181.757
X176.81Y-203.947
X176.81Y-207.757
X179.87Y-177.947
X179.87Y-181.757
X188.8Y-74.735
X191.4Y-75.435
T2
X145.75Y-82.885
X145.75Y-131.885
X145.75Y-148.935
X145.75Y-197.935
X150.7Y-133.085
X152.5Y-199.035
X156.45Y-136.785
X156.45Y-143.785
X156.45Y-202.835
X156.45Y-209.835
X183.75Y-134.135
X183.75Y-142.635
X183.75Y-200.135
X183.75Y-208.635
X194.45Y-81.935
X194.45Y-131.835
X194.45Y-147.935
X194.45Y-197.835
T3
X147.36Y-75.595
X147.36Y-78.135
X149.9Y-75.595
X149.9Y-78.135
X152.44Y-75.595
X152.44Y-78.135
X196.9Y-68.435
X196.9Y-70.975
X196.9Y-73.515
X196.9Y-76.055
X196.9Y-78.595
T0
M30
