G04 #@! TF.GenerationSoftware,KiCad,Pcbnew,(6.0.2)*
G04 #@! TF.CreationDate,2022-04-25T21:38:28-07:00*
G04 #@! TF.ProjectId,i-fucking-love-fucking-you,692d6675-636b-4696-9e67-2d6c6f76652d,rev?*
G04 #@! TF.SameCoordinates,Original*
G04 #@! TF.FileFunction,Soldermask,Bot*
G04 #@! TF.FilePolarity,Negative*
%FSLAX46Y46*%
G04 Gerber Fmt 4.6, Leading zero omitted, Abs format (unit mm)*
G04 Created by KiCad (PCBNEW (6.0.2)) date 2022-04-25 21:38:28*
%MOMM*%
%LPD*%
G01*
G04 APERTURE LIST*
G04 Aperture macros list*
%AMRoundRect*
0 Rectangle with rounded corners*
0 $1 Rounding radius*
0 $2 $3 $4 $5 $6 $7 $8 $9 X,Y pos of 4 corners*
0 Add a 4 corners polygon primitive as box body*
4,1,4,$2,$3,$4,$5,$6,$7,$8,$9,$2,$3,0*
0 Add four circle primitives for the rounded corners*
1,1,$1+$1,$2,$3*
1,1,$1+$1,$4,$5*
1,1,$1+$1,$6,$7*
1,1,$1+$1,$8,$9*
0 Add four rect primitives between the rounded corners*
20,1,$1+$1,$2,$3,$4,$5,0*
20,1,$1+$1,$4,$5,$6,$7,0*
20,1,$1+$1,$6,$7,$8,$9,0*
20,1,$1+$1,$8,$9,$2,$3,0*%
G04 Aperture macros list end*
%ADD10RoundRect,0.237500X0.237500X-0.250000X0.237500X0.250000X-0.237500X0.250000X-0.237500X-0.250000X0*%
%ADD11RoundRect,0.150000X-0.150000X0.587500X-0.150000X-0.587500X0.150000X-0.587500X0.150000X0.587500X0*%
%ADD12C,1.524000*%
%ADD13RoundRect,0.250000X0.250000X0.750000X-0.250000X0.750000X-0.250000X-0.750000X0.250000X-0.750000X0*%
%ADD14RoundRect,0.250000X0.750000X-0.250000X0.750000X0.250000X-0.750000X0.250000X-0.750000X-0.250000X0*%
%ADD15RoundRect,0.237500X0.287500X0.237500X-0.287500X0.237500X-0.287500X-0.237500X0.287500X-0.237500X0*%
%ADD16RoundRect,0.237500X0.237500X-0.300000X0.237500X0.300000X-0.237500X0.300000X-0.237500X-0.300000X0*%
%ADD17O,1.700000X1.700000*%
%ADD18R,1.700000X1.700000*%
%ADD19RoundRect,0.150000X-0.150000X0.512500X-0.150000X-0.512500X0.150000X-0.512500X0.150000X0.512500X0*%
G04 APERTURE END LIST*
D10*
G04 #@! TO.C,R5*
X194100000Y-76147217D03*
X194100000Y-74322217D03*
G04 #@! TD*
G04 #@! TO.C,R3*
X194000000Y-71847217D03*
X194000000Y-70022217D03*
G04 #@! TD*
D11*
G04 #@! TO.C,Q2*
X190500000Y-76397217D03*
X192400000Y-76397217D03*
X191450000Y-78272217D03*
G04 #@! TD*
G04 #@! TO.C,Q1*
X190450000Y-68097217D03*
X192350000Y-68097217D03*
X191400000Y-69972217D03*
G04 #@! TD*
D12*
G04 #@! TO.C,*
X145750000Y-82884717D03*
G04 #@! TD*
D13*
G04 #@! TO.C,*
X152500000Y-67184717D03*
G04 #@! TD*
D14*
G04 #@! TO.C,*
X158000000Y-77834717D03*
G04 #@! TD*
G04 #@! TO.C,*
X185800000Y-76634717D03*
G04 #@! TD*
D12*
G04 #@! TO.C,*
X145750000Y-131884717D03*
G04 #@! TD*
D14*
G04 #@! TO.C,*
X196500000Y-65834717D03*
G04 #@! TD*
D12*
G04 #@! TO.C,*
X194450000Y-131834717D03*
G04 #@! TD*
G04 #@! TO.C,*
X183750000Y-142634717D03*
G04 #@! TD*
D14*
G04 #@! TO.C,*
X185800000Y-68134717D03*
G04 #@! TD*
G04 #@! TO.C,*
X147300000Y-16934717D03*
G04 #@! TD*
D12*
G04 #@! TO.C,*
X156450000Y-136784717D03*
G04 #@! TD*
G04 #@! TO.C,*
X150700000Y-133084717D03*
G04 #@! TD*
D14*
G04 #@! TO.C,*
X196500000Y-15934717D03*
G04 #@! TD*
D12*
G04 #@! TO.C,*
X156450000Y-143784717D03*
G04 #@! TD*
G04 #@! TO.C,*
X183750000Y-134134717D03*
G04 #@! TD*
D14*
G04 #@! TO.C,*
X158000000Y-70834717D03*
G04 #@! TD*
D12*
G04 #@! TO.C,*
X194450000Y-81934717D03*
G04 #@! TD*
D15*
G04 #@! TO.C,D54*
X160395000Y-193544717D03*
X158645000Y-193544717D03*
G04 #@! TD*
G04 #@! TO.C,D34*
X170655000Y-167734717D03*
X168905000Y-167734717D03*
G04 #@! TD*
D12*
G04 #@! TO.C,*
X183750000Y-202834717D03*
G04 #@! TD*
D15*
G04 #@! TO.C,D20*
X163415000Y-206644717D03*
X161665000Y-206644717D03*
G04 #@! TD*
G04 #@! TO.C,D44*
X165475000Y-189734717D03*
X163725000Y-189734717D03*
G04 #@! TD*
D12*
G04 #@! TO.C,*
X183750000Y-209834717D03*
G04 #@! TD*
D15*
G04 #@! TO.C,D49*
X185795000Y-193544717D03*
X184045000Y-193544717D03*
G04 #@! TD*
G04 #@! TO.C,D10*
X170515000Y-180644717D03*
X168765000Y-180644717D03*
G04 #@! TD*
G04 #@! TO.C,D28*
X155415000Y-163924717D03*
X153665000Y-163924717D03*
G04 #@! TD*
G04 #@! TO.C,D25*
X170655000Y-163924717D03*
X168905000Y-163924717D03*
G04 #@! TD*
G04 #@! TO.C,D43*
X170555000Y-189734717D03*
X168805000Y-189734717D03*
G04 #@! TD*
G04 #@! TO.C,D31*
X185895000Y-167734717D03*
X184145000Y-167734717D03*
G04 #@! TD*
G04 #@! TO.C,D6*
X165435000Y-176834717D03*
X163685000Y-176834717D03*
G04 #@! TD*
G04 #@! TO.C,D29*
X150335000Y-163924717D03*
X148585000Y-163924717D03*
G04 #@! TD*
G04 #@! TO.C,D1*
X170675000Y-151034717D03*
X168925000Y-151034717D03*
G04 #@! TD*
G04 #@! TO.C,D3*
X180675000Y-176834717D03*
X178925000Y-176834717D03*
G04 #@! TD*
G04 #@! TO.C,D33*
X175735000Y-167734717D03*
X173985000Y-167734717D03*
G04 #@! TD*
G04 #@! TO.C,D52*
X170555000Y-193544717D03*
X168805000Y-193544717D03*
G04 #@! TD*
G04 #@! TO.C,D21*
X190975000Y-163924717D03*
X189225000Y-163924717D03*
G04 #@! TD*
D10*
G04 #@! TO.C,R1*
X147400000Y-72647217D03*
X147400000Y-70822217D03*
G04 #@! TD*
D15*
G04 #@! TO.C,D12*
X160355000Y-180644717D03*
X158605000Y-180644717D03*
G04 #@! TD*
G04 #@! TO.C,D45*
X160395000Y-189734717D03*
X158645000Y-189734717D03*
G04 #@! TD*
G04 #@! TO.C,D55*
X155315000Y-193544717D03*
X153565000Y-193544717D03*
G04 #@! TD*
G04 #@! TO.C,D40*
X185795000Y-189734717D03*
X184045000Y-189734717D03*
G04 #@! TD*
G04 #@! TO.C,D39*
X190875000Y-189734717D03*
X189125000Y-189734717D03*
G04 #@! TD*
G04 #@! TO.C,D14*
X173575000Y-202834717D03*
X171825000Y-202834717D03*
G04 #@! TD*
G04 #@! TO.C,D18*
X173575000Y-206644717D03*
X171825000Y-206644717D03*
G04 #@! TD*
G04 #@! TO.C,D32*
X180815000Y-167734717D03*
X179065000Y-167734717D03*
G04 #@! TD*
D10*
G04 #@! TO.C,R4*
X188900000Y-78447217D03*
X188900000Y-76622217D03*
G04 #@! TD*
D15*
G04 #@! TO.C,D11*
X165435000Y-180644717D03*
X163685000Y-180644717D03*
G04 #@! TD*
D14*
G04 #@! TO.C,REF\u002A\u002A*
X147300000Y-65934717D03*
G04 #@! TD*
D16*
G04 #@! TO.C,C1*
X188800000Y-73397217D03*
X188800000Y-71672217D03*
G04 #@! TD*
D15*
G04 #@! TO.C,D26*
X165575000Y-163924717D03*
X163825000Y-163924717D03*
G04 #@! TD*
G04 #@! TO.C,D47*
X150235000Y-189734717D03*
X148485000Y-189734717D03*
G04 #@! TD*
G04 #@! TO.C,D37*
X155415000Y-167734717D03*
X153665000Y-167734717D03*
G04 #@! TD*
G04 #@! TO.C,D46*
X155315000Y-189734717D03*
X153565000Y-189734717D03*
G04 #@! TD*
D12*
G04 #@! TO.C,*
X156450000Y-200134717D03*
G04 #@! TD*
D15*
G04 #@! TO.C,D30*
X190975000Y-167734717D03*
X189225000Y-167734717D03*
G04 #@! TD*
G04 #@! TO.C,D38*
X150335000Y-167734717D03*
X148585000Y-167734717D03*
G04 #@! TD*
G04 #@! TO.C,D5*
X170515000Y-176834717D03*
X168765000Y-176834717D03*
G04 #@! TD*
G04 #@! TO.C,D23*
X180815000Y-163924717D03*
X179065000Y-163924717D03*
G04 #@! TD*
G04 #@! TO.C,D56*
X150235000Y-193544717D03*
X148485000Y-193544717D03*
G04 #@! TD*
D12*
G04 #@! TO.C,*
X145750000Y-197834717D03*
G04 #@! TD*
G04 #@! TO.C,*
X145750000Y-147934717D03*
G04 #@! TD*
D17*
G04 #@! TO.C,J2*
X196900000Y-78594717D03*
X196900000Y-76054717D03*
X196900000Y-73514717D03*
X196900000Y-70974717D03*
D18*
X196900000Y-68434717D03*
G04 #@! TD*
D15*
G04 #@! TO.C,D41*
X180715000Y-189734717D03*
X178965000Y-189734717D03*
G04 #@! TD*
G04 #@! TO.C,D22*
X185895000Y-163924717D03*
X184145000Y-163924717D03*
G04 #@! TD*
D12*
G04 #@! TO.C,*
X194450000Y-197934717D03*
G04 #@! TD*
D15*
G04 #@! TO.C,D17*
X178655000Y-206644717D03*
X176905000Y-206644717D03*
G04 #@! TD*
D12*
G04 #@! TO.C,*
X189500000Y-199034717D03*
G04 #@! TD*
G04 #@! TO.C,*
X194450000Y-148934717D03*
G04 #@! TD*
D15*
G04 #@! TO.C,D53*
X165475000Y-193544717D03*
X163725000Y-193544717D03*
G04 #@! TD*
G04 #@! TO.C,D16*
X163415000Y-202834717D03*
X161665000Y-202834717D03*
G04 #@! TD*
G04 #@! TO.C,D51*
X175635000Y-193544717D03*
X173885000Y-193544717D03*
G04 #@! TD*
G04 #@! TO.C,D24*
X175735000Y-163924717D03*
X173985000Y-163924717D03*
G04 #@! TD*
G04 #@! TO.C,D48*
X190875000Y-193544717D03*
X189125000Y-193544717D03*
G04 #@! TD*
G04 #@! TO.C,D19*
X168495000Y-206644717D03*
X166745000Y-206644717D03*
G04 #@! TD*
G04 #@! TO.C,D50*
X180715000Y-193544717D03*
X178965000Y-193544717D03*
G04 #@! TD*
G04 #@! TO.C,D42*
X175635000Y-189734717D03*
X173885000Y-189734717D03*
G04 #@! TD*
G04 #@! TO.C,D8*
X180675000Y-180644717D03*
X178925000Y-180644717D03*
G04 #@! TD*
G04 #@! TO.C,D27*
X160495000Y-163924717D03*
X158745000Y-163924717D03*
G04 #@! TD*
D12*
G04 #@! TO.C,*
X156450000Y-208634717D03*
G04 #@! TD*
D15*
G04 #@! TO.C,D2*
X170675000Y-154844717D03*
X168925000Y-154844717D03*
G04 #@! TD*
D18*
G04 #@! TO.C,J1*
X147360000Y-75594717D03*
D17*
X147360000Y-78134717D03*
X149900000Y-75594717D03*
X149900000Y-78134717D03*
X152440000Y-75594717D03*
X152440000Y-78134717D03*
G04 #@! TD*
D15*
G04 #@! TO.C,D15*
X168495000Y-202834717D03*
X166745000Y-202834717D03*
G04 #@! TD*
G04 #@! TO.C,D4*
X175595000Y-176834717D03*
X173845000Y-176834717D03*
G04 #@! TD*
G04 #@! TO.C,D35*
X165575000Y-167734717D03*
X163825000Y-167734717D03*
G04 #@! TD*
G04 #@! TO.C,D9*
X175595000Y-180644717D03*
X173845000Y-180644717D03*
G04 #@! TD*
G04 #@! TO.C,D7*
X160355000Y-176834717D03*
X158605000Y-176834717D03*
G04 #@! TD*
G04 #@! TO.C,D36*
X160495000Y-167734717D03*
X158745000Y-167734717D03*
G04 #@! TD*
D10*
G04 #@! TO.C,R2*
X188800000Y-69947217D03*
X188800000Y-68122217D03*
G04 #@! TD*
D15*
G04 #@! TO.C,D13*
X178655000Y-202834717D03*
X176905000Y-202834717D03*
G04 #@! TD*
D19*
G04 #@! TO.C,U1*
X190450000Y-71897217D03*
X191400000Y-71897217D03*
X192350000Y-71897217D03*
X192350000Y-74172217D03*
X191400000Y-74172217D03*
X190450000Y-74172217D03*
G04 #@! TD*
M02*
