G04 #@! TF.GenerationSoftware,KiCad,Pcbnew,(6.0.2)*
G04 #@! TF.CreationDate,2022-04-25T21:38:28-07:00*
G04 #@! TF.ProjectId,i-fucking-love-fucking-you,692d6675-636b-4696-9e67-2d6c6f76652d,rev?*
G04 #@! TF.SameCoordinates,Original*
G04 #@! TF.FileFunction,Legend,Top*
G04 #@! TF.FilePolarity,Positive*
%FSLAX46Y46*%
G04 Gerber Fmt 4.6, Leading zero omitted, Abs format (unit mm)*
G04 Created by KiCad (PCBNEW (6.0.2)) date 2022-04-25 21:38:28*
%MOMM*%
%LPD*%
G01*
G04 APERTURE LIST*
%ADD10C,0.150000*%
%ADD11C,0.120000*%
G04 APERTURE END LIST*
D10*
G04 #@! TO.C,REF\u002A\u002A*
X155266666Y-145439097D02*
X154933333Y-144962907D01*
X154695238Y-145439097D02*
X154695238Y-144439097D01*
X155076190Y-144439097D01*
X155171428Y-144486717D01*
X155219047Y-144534336D01*
X155266666Y-144629574D01*
X155266666Y-144772431D01*
X155219047Y-144867669D01*
X155171428Y-144915288D01*
X155076190Y-144962907D01*
X154695238Y-144962907D01*
X155695238Y-144915288D02*
X156028571Y-144915288D01*
X156171428Y-145439097D02*
X155695238Y-145439097D01*
X155695238Y-144439097D01*
X156171428Y-144439097D01*
X156933333Y-144915288D02*
X156600000Y-144915288D01*
X156600000Y-145439097D02*
X156600000Y-144439097D01*
X157076190Y-144439097D01*
X157600000Y-144439097D02*
X157600000Y-144677193D01*
X157361904Y-144581955D02*
X157600000Y-144677193D01*
X157838095Y-144581955D01*
X157457142Y-144867669D02*
X157600000Y-144677193D01*
X157742857Y-144867669D01*
X158361904Y-144439097D02*
X158361904Y-144677193D01*
X158123809Y-144581955D02*
X158361904Y-144677193D01*
X158600000Y-144581955D01*
X158219047Y-144867669D02*
X158361904Y-144677193D01*
X158504761Y-144867669D01*
G04 #@! TO.C,*
D11*
G04 #@! TO.C,REF\u002A\u002A*
X155900000Y-147134717D02*
X155900000Y-145734717D01*
X157300000Y-145734717D02*
X157300000Y-147134717D01*
X155900000Y-145734717D02*
X157300000Y-145734717D01*
X157300000Y-147134717D02*
X155900000Y-147134717D01*
G04 #@! TD*
M02*
