%TF.GenerationSoftware,KiCad,Pcbnew,(6.0.2)*%
%TF.CreationDate,2022-03-09T20:11:30-08:00*%
%TF.ProjectId,IFLFU-test-all,49464c46-552d-4746-9573-742d616c6c2e,rev?*%
%TF.SameCoordinates,Original*%
%TF.FileFunction,Profile,NP*%
%FSLAX46Y46*%
G04 Gerber Fmt 4.6, Leading zero omitted, Abs format (unit mm)*
G04 Created by KiCad (PCBNEW (6.0.2)) date 2022-03-09 20:11:30*
%MOMM*%
%LPD*%
G01*
G04 APERTURE LIST*
%TA.AperFunction,Profile*%
%ADD10C,0.100000*%
%TD*%
G04 APERTURE END LIST*
D10*
X61600000Y-44900000D02*
X22000000Y-44900000D01*
X22000000Y-44900000D02*
X22000000Y-46100000D01*
X22000000Y-46100000D02*
X56600000Y-46100000D01*
X56600000Y-46100000D02*
X56600000Y-71000000D01*
X56600000Y-71000000D02*
X21900000Y-71000000D01*
X21900000Y-71000000D02*
X21900000Y-72100000D01*
X21900000Y-72100000D02*
X56600000Y-72100000D01*
X56600000Y-72100000D02*
X56600000Y-97000000D01*
X56600000Y-97000000D02*
X20000000Y-97000000D01*
X20000000Y-97000000D02*
X20000000Y-20000000D01*
X20000000Y-20000000D02*
X61600000Y-20000000D01*
X61600000Y-20000000D02*
X61600000Y-44900000D01*
X24400000Y-85800000D02*
X52200000Y-85800000D01*
X52200000Y-85800000D02*
X52200000Y-92600000D01*
X52200000Y-92600000D02*
X24400000Y-92600000D01*
X24400000Y-92600000D02*
X24400000Y-85800000D01*
X27200000Y-75600000D02*
X49800000Y-75600000D01*
X49800000Y-75600000D02*
X49800000Y-82300000D01*
X49800000Y-82300000D02*
X27200000Y-82300000D01*
X27200000Y-82300000D02*
X27200000Y-75600000D01*
M02*
