%TF.GenerationSoftware,KiCad,Pcbnew,(6.0.2)*%
%TF.CreationDate,2022-03-09T20:11:30-08:00*%
%TF.ProjectId,IFLFU-test-all,49464c46-552d-4746-9573-742d616c6c2e,rev?*%
%TF.SameCoordinates,Original*%
%TF.FileFunction,Legend,Top*%
%TF.FilePolarity,Positive*%
%FSLAX46Y46*%
G04 Gerber Fmt 4.6, Leading zero omitted, Abs format (unit mm)*
G04 Created by KiCad (PCBNEW (6.0.2)) date 2022-03-09 20:11:30*
%MOMM*%
%LPD*%
G01*
G04 APERTURE LIST*
%ADD10C,0.300000*%
%ADD11C,0.150000*%
%ADD12C,0.120000*%
G04 APERTURE END LIST*
D10*
X58335714Y-27450000D02*
X58192857Y-27378571D01*
X57978571Y-27378571D01*
X57764285Y-27450000D01*
X57621428Y-27592857D01*
X57550000Y-27735714D01*
X57478571Y-28021428D01*
X57478571Y-28235714D01*
X57550000Y-28521428D01*
X57621428Y-28664285D01*
X57764285Y-28807142D01*
X57978571Y-28878571D01*
X58121428Y-28878571D01*
X58335714Y-28807142D01*
X58407142Y-28735714D01*
X58407142Y-28235714D01*
X58121428Y-28235714D01*
X59050000Y-27878571D02*
X59050000Y-28878571D01*
X59050000Y-28021428D02*
X59121428Y-27950000D01*
X59264285Y-27878571D01*
X59478571Y-27878571D01*
X59621428Y-27950000D01*
X59692857Y-28092857D01*
X59692857Y-28878571D01*
X61050000Y-28878571D02*
X61050000Y-27378571D01*
X61050000Y-28807142D02*
X60907142Y-28878571D01*
X60621428Y-28878571D01*
X60478571Y-28807142D01*
X60407142Y-28735714D01*
X60335714Y-28592857D01*
X60335714Y-28164285D01*
X60407142Y-28021428D01*
X60478571Y-27950000D01*
X60621428Y-27878571D01*
X60907142Y-27878571D01*
X61050000Y-27950000D01*
D11*
%TO.C,D24*%
X48545714Y-37262380D02*
X48545714Y-36262380D01*
X48783809Y-36262380D01*
X48926666Y-36310000D01*
X49021904Y-36405238D01*
X49069523Y-36500476D01*
X49117142Y-36690952D01*
X49117142Y-36833809D01*
X49069523Y-37024285D01*
X49021904Y-37119523D01*
X48926666Y-37214761D01*
X48783809Y-37262380D01*
X48545714Y-37262380D01*
X49498095Y-36357619D02*
X49545714Y-36310000D01*
X49640952Y-36262380D01*
X49879047Y-36262380D01*
X49974285Y-36310000D01*
X50021904Y-36357619D01*
X50069523Y-36452857D01*
X50069523Y-36548095D01*
X50021904Y-36690952D01*
X49450476Y-37262380D01*
X50069523Y-37262380D01*
X50926666Y-36595714D02*
X50926666Y-37262380D01*
X50688571Y-36214761D02*
X50450476Y-36929047D01*
X51069523Y-36929047D01*
%TO.C,D23*%
X44735714Y-37262380D02*
X44735714Y-36262380D01*
X44973809Y-36262380D01*
X45116666Y-36310000D01*
X45211904Y-36405238D01*
X45259523Y-36500476D01*
X45307142Y-36690952D01*
X45307142Y-36833809D01*
X45259523Y-37024285D01*
X45211904Y-37119523D01*
X45116666Y-37214761D01*
X44973809Y-37262380D01*
X44735714Y-37262380D01*
X45688095Y-36357619D02*
X45735714Y-36310000D01*
X45830952Y-36262380D01*
X46069047Y-36262380D01*
X46164285Y-36310000D01*
X46211904Y-36357619D01*
X46259523Y-36452857D01*
X46259523Y-36548095D01*
X46211904Y-36690952D01*
X45640476Y-37262380D01*
X46259523Y-37262380D01*
X46592857Y-36262380D02*
X47211904Y-36262380D01*
X46878571Y-36643333D01*
X47021428Y-36643333D01*
X47116666Y-36690952D01*
X47164285Y-36738571D01*
X47211904Y-36833809D01*
X47211904Y-37071904D01*
X47164285Y-37167142D01*
X47116666Y-37214761D01*
X47021428Y-37262380D01*
X46735714Y-37262380D01*
X46640476Y-37214761D01*
X46592857Y-37167142D01*
%TO.C,D22*%
X40925714Y-37262380D02*
X40925714Y-36262380D01*
X41163809Y-36262380D01*
X41306666Y-36310000D01*
X41401904Y-36405238D01*
X41449523Y-36500476D01*
X41497142Y-36690952D01*
X41497142Y-36833809D01*
X41449523Y-37024285D01*
X41401904Y-37119523D01*
X41306666Y-37214761D01*
X41163809Y-37262380D01*
X40925714Y-37262380D01*
X41878095Y-36357619D02*
X41925714Y-36310000D01*
X42020952Y-36262380D01*
X42259047Y-36262380D01*
X42354285Y-36310000D01*
X42401904Y-36357619D01*
X42449523Y-36452857D01*
X42449523Y-36548095D01*
X42401904Y-36690952D01*
X41830476Y-37262380D01*
X42449523Y-37262380D01*
X42830476Y-36357619D02*
X42878095Y-36310000D01*
X42973333Y-36262380D01*
X43211428Y-36262380D01*
X43306666Y-36310000D01*
X43354285Y-36357619D01*
X43401904Y-36452857D01*
X43401904Y-36548095D01*
X43354285Y-36690952D01*
X42782857Y-37262380D01*
X43401904Y-37262380D01*
%TO.C,D21*%
X37115714Y-37262380D02*
X37115714Y-36262380D01*
X37353809Y-36262380D01*
X37496666Y-36310000D01*
X37591904Y-36405238D01*
X37639523Y-36500476D01*
X37687142Y-36690952D01*
X37687142Y-36833809D01*
X37639523Y-37024285D01*
X37591904Y-37119523D01*
X37496666Y-37214761D01*
X37353809Y-37262380D01*
X37115714Y-37262380D01*
X38068095Y-36357619D02*
X38115714Y-36310000D01*
X38210952Y-36262380D01*
X38449047Y-36262380D01*
X38544285Y-36310000D01*
X38591904Y-36357619D01*
X38639523Y-36452857D01*
X38639523Y-36548095D01*
X38591904Y-36690952D01*
X38020476Y-37262380D01*
X38639523Y-37262380D01*
X39591904Y-37262380D02*
X39020476Y-37262380D01*
X39306190Y-37262380D02*
X39306190Y-36262380D01*
X39210952Y-36405238D01*
X39115714Y-36500476D01*
X39020476Y-36548095D01*
%TO.C,D20*%
X33305714Y-37262380D02*
X33305714Y-36262380D01*
X33543809Y-36262380D01*
X33686666Y-36310000D01*
X33781904Y-36405238D01*
X33829523Y-36500476D01*
X33877142Y-36690952D01*
X33877142Y-36833809D01*
X33829523Y-37024285D01*
X33781904Y-37119523D01*
X33686666Y-37214761D01*
X33543809Y-37262380D01*
X33305714Y-37262380D01*
X34258095Y-36357619D02*
X34305714Y-36310000D01*
X34400952Y-36262380D01*
X34639047Y-36262380D01*
X34734285Y-36310000D01*
X34781904Y-36357619D01*
X34829523Y-36452857D01*
X34829523Y-36548095D01*
X34781904Y-36690952D01*
X34210476Y-37262380D01*
X34829523Y-37262380D01*
X35448571Y-36262380D02*
X35543809Y-36262380D01*
X35639047Y-36310000D01*
X35686666Y-36357619D01*
X35734285Y-36452857D01*
X35781904Y-36643333D01*
X35781904Y-36881428D01*
X35734285Y-37071904D01*
X35686666Y-37167142D01*
X35639047Y-37214761D01*
X35543809Y-37262380D01*
X35448571Y-37262380D01*
X35353333Y-37214761D01*
X35305714Y-37167142D01*
X35258095Y-37071904D01*
X35210476Y-36881428D01*
X35210476Y-36643333D01*
X35258095Y-36452857D01*
X35305714Y-36357619D01*
X35353333Y-36310000D01*
X35448571Y-36262380D01*
%TO.C,D19*%
X29495714Y-37262380D02*
X29495714Y-36262380D01*
X29733809Y-36262380D01*
X29876666Y-36310000D01*
X29971904Y-36405238D01*
X30019523Y-36500476D01*
X30067142Y-36690952D01*
X30067142Y-36833809D01*
X30019523Y-37024285D01*
X29971904Y-37119523D01*
X29876666Y-37214761D01*
X29733809Y-37262380D01*
X29495714Y-37262380D01*
X31019523Y-37262380D02*
X30448095Y-37262380D01*
X30733809Y-37262380D02*
X30733809Y-36262380D01*
X30638571Y-36405238D01*
X30543333Y-36500476D01*
X30448095Y-36548095D01*
X31495714Y-37262380D02*
X31686190Y-37262380D01*
X31781428Y-37214761D01*
X31829047Y-37167142D01*
X31924285Y-37024285D01*
X31971904Y-36833809D01*
X31971904Y-36452857D01*
X31924285Y-36357619D01*
X31876666Y-36310000D01*
X31781428Y-36262380D01*
X31590952Y-36262380D01*
X31495714Y-36310000D01*
X31448095Y-36357619D01*
X31400476Y-36452857D01*
X31400476Y-36690952D01*
X31448095Y-36786190D01*
X31495714Y-36833809D01*
X31590952Y-36881428D01*
X31781428Y-36881428D01*
X31876666Y-36833809D01*
X31924285Y-36786190D01*
X31971904Y-36690952D01*
%TO.C,D18*%
X25685714Y-37262380D02*
X25685714Y-36262380D01*
X25923809Y-36262380D01*
X26066666Y-36310000D01*
X26161904Y-36405238D01*
X26209523Y-36500476D01*
X26257142Y-36690952D01*
X26257142Y-36833809D01*
X26209523Y-37024285D01*
X26161904Y-37119523D01*
X26066666Y-37214761D01*
X25923809Y-37262380D01*
X25685714Y-37262380D01*
X27209523Y-37262380D02*
X26638095Y-37262380D01*
X26923809Y-37262380D02*
X26923809Y-36262380D01*
X26828571Y-36405238D01*
X26733333Y-36500476D01*
X26638095Y-36548095D01*
X27780952Y-36690952D02*
X27685714Y-36643333D01*
X27638095Y-36595714D01*
X27590476Y-36500476D01*
X27590476Y-36452857D01*
X27638095Y-36357619D01*
X27685714Y-36310000D01*
X27780952Y-36262380D01*
X27971428Y-36262380D01*
X28066666Y-36310000D01*
X28114285Y-36357619D01*
X28161904Y-36452857D01*
X28161904Y-36500476D01*
X28114285Y-36595714D01*
X28066666Y-36643333D01*
X27971428Y-36690952D01*
X27780952Y-36690952D01*
X27685714Y-36738571D01*
X27638095Y-36786190D01*
X27590476Y-36881428D01*
X27590476Y-37071904D01*
X27638095Y-37167142D01*
X27685714Y-37214761D01*
X27780952Y-37262380D01*
X27971428Y-37262380D01*
X28066666Y-37214761D01*
X28114285Y-37167142D01*
X28161904Y-37071904D01*
X28161904Y-36881428D01*
X28114285Y-36786190D01*
X28066666Y-36738571D01*
X27971428Y-36690952D01*
%TO.C,D17*%
X48545714Y-34722380D02*
X48545714Y-33722380D01*
X48783809Y-33722380D01*
X48926666Y-33770000D01*
X49021904Y-33865238D01*
X49069523Y-33960476D01*
X49117142Y-34150952D01*
X49117142Y-34293809D01*
X49069523Y-34484285D01*
X49021904Y-34579523D01*
X48926666Y-34674761D01*
X48783809Y-34722380D01*
X48545714Y-34722380D01*
X50069523Y-34722380D02*
X49498095Y-34722380D01*
X49783809Y-34722380D02*
X49783809Y-33722380D01*
X49688571Y-33865238D01*
X49593333Y-33960476D01*
X49498095Y-34008095D01*
X50402857Y-33722380D02*
X51069523Y-33722380D01*
X50640952Y-34722380D01*
%TO.C,D16*%
X44735714Y-34722380D02*
X44735714Y-33722380D01*
X44973809Y-33722380D01*
X45116666Y-33770000D01*
X45211904Y-33865238D01*
X45259523Y-33960476D01*
X45307142Y-34150952D01*
X45307142Y-34293809D01*
X45259523Y-34484285D01*
X45211904Y-34579523D01*
X45116666Y-34674761D01*
X44973809Y-34722380D01*
X44735714Y-34722380D01*
X46259523Y-34722380D02*
X45688095Y-34722380D01*
X45973809Y-34722380D02*
X45973809Y-33722380D01*
X45878571Y-33865238D01*
X45783333Y-33960476D01*
X45688095Y-34008095D01*
X47116666Y-33722380D02*
X46926190Y-33722380D01*
X46830952Y-33770000D01*
X46783333Y-33817619D01*
X46688095Y-33960476D01*
X46640476Y-34150952D01*
X46640476Y-34531904D01*
X46688095Y-34627142D01*
X46735714Y-34674761D01*
X46830952Y-34722380D01*
X47021428Y-34722380D01*
X47116666Y-34674761D01*
X47164285Y-34627142D01*
X47211904Y-34531904D01*
X47211904Y-34293809D01*
X47164285Y-34198571D01*
X47116666Y-34150952D01*
X47021428Y-34103333D01*
X46830952Y-34103333D01*
X46735714Y-34150952D01*
X46688095Y-34198571D01*
X46640476Y-34293809D01*
%TO.C,D15*%
X40925714Y-34722380D02*
X40925714Y-33722380D01*
X41163809Y-33722380D01*
X41306666Y-33770000D01*
X41401904Y-33865238D01*
X41449523Y-33960476D01*
X41497142Y-34150952D01*
X41497142Y-34293809D01*
X41449523Y-34484285D01*
X41401904Y-34579523D01*
X41306666Y-34674761D01*
X41163809Y-34722380D01*
X40925714Y-34722380D01*
X42449523Y-34722380D02*
X41878095Y-34722380D01*
X42163809Y-34722380D02*
X42163809Y-33722380D01*
X42068571Y-33865238D01*
X41973333Y-33960476D01*
X41878095Y-34008095D01*
X43354285Y-33722380D02*
X42878095Y-33722380D01*
X42830476Y-34198571D01*
X42878095Y-34150952D01*
X42973333Y-34103333D01*
X43211428Y-34103333D01*
X43306666Y-34150952D01*
X43354285Y-34198571D01*
X43401904Y-34293809D01*
X43401904Y-34531904D01*
X43354285Y-34627142D01*
X43306666Y-34674761D01*
X43211428Y-34722380D01*
X42973333Y-34722380D01*
X42878095Y-34674761D01*
X42830476Y-34627142D01*
%TO.C,D14*%
X37115714Y-34722380D02*
X37115714Y-33722380D01*
X37353809Y-33722380D01*
X37496666Y-33770000D01*
X37591904Y-33865238D01*
X37639523Y-33960476D01*
X37687142Y-34150952D01*
X37687142Y-34293809D01*
X37639523Y-34484285D01*
X37591904Y-34579523D01*
X37496666Y-34674761D01*
X37353809Y-34722380D01*
X37115714Y-34722380D01*
X38639523Y-34722380D02*
X38068095Y-34722380D01*
X38353809Y-34722380D02*
X38353809Y-33722380D01*
X38258571Y-33865238D01*
X38163333Y-33960476D01*
X38068095Y-34008095D01*
X39496666Y-34055714D02*
X39496666Y-34722380D01*
X39258571Y-33674761D02*
X39020476Y-34389047D01*
X39639523Y-34389047D01*
%TO.C,D13*%
X33305714Y-34722380D02*
X33305714Y-33722380D01*
X33543809Y-33722380D01*
X33686666Y-33770000D01*
X33781904Y-33865238D01*
X33829523Y-33960476D01*
X33877142Y-34150952D01*
X33877142Y-34293809D01*
X33829523Y-34484285D01*
X33781904Y-34579523D01*
X33686666Y-34674761D01*
X33543809Y-34722380D01*
X33305714Y-34722380D01*
X34829523Y-34722380D02*
X34258095Y-34722380D01*
X34543809Y-34722380D02*
X34543809Y-33722380D01*
X34448571Y-33865238D01*
X34353333Y-33960476D01*
X34258095Y-34008095D01*
X35162857Y-33722380D02*
X35781904Y-33722380D01*
X35448571Y-34103333D01*
X35591428Y-34103333D01*
X35686666Y-34150952D01*
X35734285Y-34198571D01*
X35781904Y-34293809D01*
X35781904Y-34531904D01*
X35734285Y-34627142D01*
X35686666Y-34674761D01*
X35591428Y-34722380D01*
X35305714Y-34722380D01*
X35210476Y-34674761D01*
X35162857Y-34627142D01*
%TO.C,D12*%
X29495714Y-34722380D02*
X29495714Y-33722380D01*
X29733809Y-33722380D01*
X29876666Y-33770000D01*
X29971904Y-33865238D01*
X30019523Y-33960476D01*
X30067142Y-34150952D01*
X30067142Y-34293809D01*
X30019523Y-34484285D01*
X29971904Y-34579523D01*
X29876666Y-34674761D01*
X29733809Y-34722380D01*
X29495714Y-34722380D01*
X31019523Y-34722380D02*
X30448095Y-34722380D01*
X30733809Y-34722380D02*
X30733809Y-33722380D01*
X30638571Y-33865238D01*
X30543333Y-33960476D01*
X30448095Y-34008095D01*
X31400476Y-33817619D02*
X31448095Y-33770000D01*
X31543333Y-33722380D01*
X31781428Y-33722380D01*
X31876666Y-33770000D01*
X31924285Y-33817619D01*
X31971904Y-33912857D01*
X31971904Y-34008095D01*
X31924285Y-34150952D01*
X31352857Y-34722380D01*
X31971904Y-34722380D01*
%TO.C,D11*%
X25685714Y-34722380D02*
X25685714Y-33722380D01*
X25923809Y-33722380D01*
X26066666Y-33770000D01*
X26161904Y-33865238D01*
X26209523Y-33960476D01*
X26257142Y-34150952D01*
X26257142Y-34293809D01*
X26209523Y-34484285D01*
X26161904Y-34579523D01*
X26066666Y-34674761D01*
X25923809Y-34722380D01*
X25685714Y-34722380D01*
X27209523Y-34722380D02*
X26638095Y-34722380D01*
X26923809Y-34722380D02*
X26923809Y-33722380D01*
X26828571Y-33865238D01*
X26733333Y-33960476D01*
X26638095Y-34008095D01*
X28161904Y-34722380D02*
X27590476Y-34722380D01*
X27876190Y-34722380D02*
X27876190Y-33722380D01*
X27780952Y-33865238D01*
X27685714Y-33960476D01*
X27590476Y-34008095D01*
%TO.C,J1*%
X58966666Y-19847380D02*
X58966666Y-20561666D01*
X58919047Y-20704523D01*
X58823809Y-20799761D01*
X58680952Y-20847380D01*
X58585714Y-20847380D01*
X59966666Y-20847380D02*
X59395238Y-20847380D01*
X59680952Y-20847380D02*
X59680952Y-19847380D01*
X59585714Y-19990238D01*
X59490476Y-20085476D01*
X59395238Y-20133095D01*
%TO.C,D10*%
X45485714Y-27422380D02*
X45485714Y-26422380D01*
X45723809Y-26422380D01*
X45866666Y-26470000D01*
X45961904Y-26565238D01*
X46009523Y-26660476D01*
X46057142Y-26850952D01*
X46057142Y-26993809D01*
X46009523Y-27184285D01*
X45961904Y-27279523D01*
X45866666Y-27374761D01*
X45723809Y-27422380D01*
X45485714Y-27422380D01*
X47009523Y-27422380D02*
X46438095Y-27422380D01*
X46723809Y-27422380D02*
X46723809Y-26422380D01*
X46628571Y-26565238D01*
X46533333Y-26660476D01*
X46438095Y-26708095D01*
X47628571Y-26422380D02*
X47723809Y-26422380D01*
X47819047Y-26470000D01*
X47866666Y-26517619D01*
X47914285Y-26612857D01*
X47961904Y-26803333D01*
X47961904Y-27041428D01*
X47914285Y-27231904D01*
X47866666Y-27327142D01*
X47819047Y-27374761D01*
X47723809Y-27422380D01*
X47628571Y-27422380D01*
X47533333Y-27374761D01*
X47485714Y-27327142D01*
X47438095Y-27231904D01*
X47390476Y-27041428D01*
X47390476Y-26803333D01*
X47438095Y-26612857D01*
X47485714Y-26517619D01*
X47533333Y-26470000D01*
X47628571Y-26422380D01*
%TO.C,D9*%
X45961904Y-24422380D02*
X45961904Y-23422380D01*
X46200000Y-23422380D01*
X46342857Y-23470000D01*
X46438095Y-23565238D01*
X46485714Y-23660476D01*
X46533333Y-23850952D01*
X46533333Y-23993809D01*
X46485714Y-24184285D01*
X46438095Y-24279523D01*
X46342857Y-24374761D01*
X46200000Y-24422380D01*
X45961904Y-24422380D01*
X47009523Y-24422380D02*
X47200000Y-24422380D01*
X47295238Y-24374761D01*
X47342857Y-24327142D01*
X47438095Y-24184285D01*
X47485714Y-23993809D01*
X47485714Y-23612857D01*
X47438095Y-23517619D01*
X47390476Y-23470000D01*
X47295238Y-23422380D01*
X47104761Y-23422380D01*
X47009523Y-23470000D01*
X46961904Y-23517619D01*
X46914285Y-23612857D01*
X46914285Y-23850952D01*
X46961904Y-23946190D01*
X47009523Y-23993809D01*
X47104761Y-24041428D01*
X47295238Y-24041428D01*
X47390476Y-23993809D01*
X47438095Y-23946190D01*
X47485714Y-23850952D01*
%TO.C,D8*%
X41461904Y-27422380D02*
X41461904Y-26422380D01*
X41700000Y-26422380D01*
X41842857Y-26470000D01*
X41938095Y-26565238D01*
X41985714Y-26660476D01*
X42033333Y-26850952D01*
X42033333Y-26993809D01*
X41985714Y-27184285D01*
X41938095Y-27279523D01*
X41842857Y-27374761D01*
X41700000Y-27422380D01*
X41461904Y-27422380D01*
X42604761Y-26850952D02*
X42509523Y-26803333D01*
X42461904Y-26755714D01*
X42414285Y-26660476D01*
X42414285Y-26612857D01*
X42461904Y-26517619D01*
X42509523Y-26470000D01*
X42604761Y-26422380D01*
X42795238Y-26422380D01*
X42890476Y-26470000D01*
X42938095Y-26517619D01*
X42985714Y-26612857D01*
X42985714Y-26660476D01*
X42938095Y-26755714D01*
X42890476Y-26803333D01*
X42795238Y-26850952D01*
X42604761Y-26850952D01*
X42509523Y-26898571D01*
X42461904Y-26946190D01*
X42414285Y-27041428D01*
X42414285Y-27231904D01*
X42461904Y-27327142D01*
X42509523Y-27374761D01*
X42604761Y-27422380D01*
X42795238Y-27422380D01*
X42890476Y-27374761D01*
X42938095Y-27327142D01*
X42985714Y-27231904D01*
X42985714Y-27041428D01*
X42938095Y-26946190D01*
X42890476Y-26898571D01*
X42795238Y-26850952D01*
%TO.C,D7*%
X41461904Y-24422380D02*
X41461904Y-23422380D01*
X41700000Y-23422380D01*
X41842857Y-23470000D01*
X41938095Y-23565238D01*
X41985714Y-23660476D01*
X42033333Y-23850952D01*
X42033333Y-23993809D01*
X41985714Y-24184285D01*
X41938095Y-24279523D01*
X41842857Y-24374761D01*
X41700000Y-24422380D01*
X41461904Y-24422380D01*
X42366666Y-23422380D02*
X43033333Y-23422380D01*
X42604761Y-24422380D01*
%TO.C,D6*%
X37861904Y-27422380D02*
X37861904Y-26422380D01*
X38100000Y-26422380D01*
X38242857Y-26470000D01*
X38338095Y-26565238D01*
X38385714Y-26660476D01*
X38433333Y-26850952D01*
X38433333Y-26993809D01*
X38385714Y-27184285D01*
X38338095Y-27279523D01*
X38242857Y-27374761D01*
X38100000Y-27422380D01*
X37861904Y-27422380D01*
X39290476Y-26422380D02*
X39100000Y-26422380D01*
X39004761Y-26470000D01*
X38957142Y-26517619D01*
X38861904Y-26660476D01*
X38814285Y-26850952D01*
X38814285Y-27231904D01*
X38861904Y-27327142D01*
X38909523Y-27374761D01*
X39004761Y-27422380D01*
X39195238Y-27422380D01*
X39290476Y-27374761D01*
X39338095Y-27327142D01*
X39385714Y-27231904D01*
X39385714Y-26993809D01*
X39338095Y-26898571D01*
X39290476Y-26850952D01*
X39195238Y-26803333D01*
X39004761Y-26803333D01*
X38909523Y-26850952D01*
X38861904Y-26898571D01*
X38814285Y-26993809D01*
%TO.C,D5*%
X37861904Y-24422380D02*
X37861904Y-23422380D01*
X38100000Y-23422380D01*
X38242857Y-23470000D01*
X38338095Y-23565238D01*
X38385714Y-23660476D01*
X38433333Y-23850952D01*
X38433333Y-23993809D01*
X38385714Y-24184285D01*
X38338095Y-24279523D01*
X38242857Y-24374761D01*
X38100000Y-24422380D01*
X37861904Y-24422380D01*
X39338095Y-23422380D02*
X38861904Y-23422380D01*
X38814285Y-23898571D01*
X38861904Y-23850952D01*
X38957142Y-23803333D01*
X39195238Y-23803333D01*
X39290476Y-23850952D01*
X39338095Y-23898571D01*
X39385714Y-23993809D01*
X39385714Y-24231904D01*
X39338095Y-24327142D01*
X39290476Y-24374761D01*
X39195238Y-24422380D01*
X38957142Y-24422380D01*
X38861904Y-24374761D01*
X38814285Y-24327142D01*
%TO.C,D4*%
X34061904Y-27422380D02*
X34061904Y-26422380D01*
X34300000Y-26422380D01*
X34442857Y-26470000D01*
X34538095Y-26565238D01*
X34585714Y-26660476D01*
X34633333Y-26850952D01*
X34633333Y-26993809D01*
X34585714Y-27184285D01*
X34538095Y-27279523D01*
X34442857Y-27374761D01*
X34300000Y-27422380D01*
X34061904Y-27422380D01*
X35490476Y-26755714D02*
X35490476Y-27422380D01*
X35252380Y-26374761D02*
X35014285Y-27089047D01*
X35633333Y-27089047D01*
%TO.C,D3*%
X34061904Y-24422380D02*
X34061904Y-23422380D01*
X34300000Y-23422380D01*
X34442857Y-23470000D01*
X34538095Y-23565238D01*
X34585714Y-23660476D01*
X34633333Y-23850952D01*
X34633333Y-23993809D01*
X34585714Y-24184285D01*
X34538095Y-24279523D01*
X34442857Y-24374761D01*
X34300000Y-24422380D01*
X34061904Y-24422380D01*
X34966666Y-23422380D02*
X35585714Y-23422380D01*
X35252380Y-23803333D01*
X35395238Y-23803333D01*
X35490476Y-23850952D01*
X35538095Y-23898571D01*
X35585714Y-23993809D01*
X35585714Y-24231904D01*
X35538095Y-24327142D01*
X35490476Y-24374761D01*
X35395238Y-24422380D01*
X35109523Y-24422380D01*
X35014285Y-24374761D01*
X34966666Y-24327142D01*
%TO.C,D2*%
X29361904Y-27422380D02*
X29361904Y-26422380D01*
X29600000Y-26422380D01*
X29742857Y-26470000D01*
X29838095Y-26565238D01*
X29885714Y-26660476D01*
X29933333Y-26850952D01*
X29933333Y-26993809D01*
X29885714Y-27184285D01*
X29838095Y-27279523D01*
X29742857Y-27374761D01*
X29600000Y-27422380D01*
X29361904Y-27422380D01*
X30314285Y-26517619D02*
X30361904Y-26470000D01*
X30457142Y-26422380D01*
X30695238Y-26422380D01*
X30790476Y-26470000D01*
X30838095Y-26517619D01*
X30885714Y-26612857D01*
X30885714Y-26708095D01*
X30838095Y-26850952D01*
X30266666Y-27422380D01*
X30885714Y-27422380D01*
%TO.C,D1*%
X29461904Y-24422380D02*
X29461904Y-23422380D01*
X29700000Y-23422380D01*
X29842857Y-23470000D01*
X29938095Y-23565238D01*
X29985714Y-23660476D01*
X30033333Y-23850952D01*
X30033333Y-23993809D01*
X29985714Y-24184285D01*
X29938095Y-24279523D01*
X29842857Y-24374761D01*
X29700000Y-24422380D01*
X29461904Y-24422380D01*
X30985714Y-24422380D02*
X30414285Y-24422380D01*
X30700000Y-24422380D02*
X30700000Y-23422380D01*
X30604761Y-23565238D01*
X30509523Y-23660476D01*
X30414285Y-23708095D01*
D12*
%TO.C,D24*%
X50560000Y-37505000D02*
X48275000Y-37505000D01*
X48275000Y-37505000D02*
X48275000Y-38975000D01*
X48275000Y-38975000D02*
X50560000Y-38975000D01*
%TO.C,D23*%
X46750000Y-37505000D02*
X44465000Y-37505000D01*
X44465000Y-37505000D02*
X44465000Y-38975000D01*
X44465000Y-38975000D02*
X46750000Y-38975000D01*
%TO.C,D22*%
X42940000Y-37505000D02*
X40655000Y-37505000D01*
X40655000Y-37505000D02*
X40655000Y-38975000D01*
X40655000Y-38975000D02*
X42940000Y-38975000D01*
%TO.C,D21*%
X39130000Y-37505000D02*
X36845000Y-37505000D01*
X36845000Y-37505000D02*
X36845000Y-38975000D01*
X36845000Y-38975000D02*
X39130000Y-38975000D01*
%TO.C,D20*%
X35320000Y-37505000D02*
X33035000Y-37505000D01*
X33035000Y-37505000D02*
X33035000Y-38975000D01*
X33035000Y-38975000D02*
X35320000Y-38975000D01*
%TO.C,D19*%
X31510000Y-37505000D02*
X29225000Y-37505000D01*
X29225000Y-37505000D02*
X29225000Y-38975000D01*
X29225000Y-38975000D02*
X31510000Y-38975000D01*
%TO.C,D18*%
X27700000Y-37505000D02*
X25415000Y-37505000D01*
X25415000Y-37505000D02*
X25415000Y-38975000D01*
X25415000Y-38975000D02*
X27700000Y-38975000D01*
%TO.C,D17*%
X50560000Y-34965000D02*
X48275000Y-34965000D01*
X48275000Y-34965000D02*
X48275000Y-36435000D01*
X48275000Y-36435000D02*
X50560000Y-36435000D01*
%TO.C,D16*%
X46750000Y-34965000D02*
X44465000Y-34965000D01*
X44465000Y-34965000D02*
X44465000Y-36435000D01*
X44465000Y-36435000D02*
X46750000Y-36435000D01*
%TO.C,D15*%
X42940000Y-34965000D02*
X40655000Y-34965000D01*
X40655000Y-34965000D02*
X40655000Y-36435000D01*
X40655000Y-36435000D02*
X42940000Y-36435000D01*
%TO.C,D14*%
X39130000Y-34965000D02*
X36845000Y-34965000D01*
X36845000Y-34965000D02*
X36845000Y-36435000D01*
X36845000Y-36435000D02*
X39130000Y-36435000D01*
%TO.C,D13*%
X35320000Y-34965000D02*
X33035000Y-34965000D01*
X33035000Y-34965000D02*
X33035000Y-36435000D01*
X33035000Y-36435000D02*
X35320000Y-36435000D01*
%TO.C,D12*%
X31510000Y-34965000D02*
X29225000Y-34965000D01*
X29225000Y-34965000D02*
X29225000Y-36435000D01*
X29225000Y-36435000D02*
X31510000Y-36435000D01*
%TO.C,D11*%
X27700000Y-34965000D02*
X25415000Y-34965000D01*
X25415000Y-34965000D02*
X25415000Y-36435000D01*
X25415000Y-36435000D02*
X27700000Y-36435000D01*
%TO.C,J1*%
X57970000Y-22725000D02*
X57970000Y-21395000D01*
X57970000Y-26595000D02*
X60630000Y-26595000D01*
X57970000Y-23995000D02*
X57970000Y-26595000D01*
X57970000Y-23995000D02*
X60630000Y-23995000D01*
X57970000Y-21395000D02*
X59300000Y-21395000D01*
X60630000Y-23995000D02*
X60630000Y-26595000D01*
%TO.C,D10*%
X45215000Y-29135000D02*
X47500000Y-29135000D01*
X45215000Y-27665000D02*
X45215000Y-29135000D01*
X47500000Y-27665000D02*
X45215000Y-27665000D01*
%TO.C,D9*%
X45215000Y-26135000D02*
X47500000Y-26135000D01*
X45215000Y-24665000D02*
X45215000Y-26135000D01*
X47500000Y-24665000D02*
X45215000Y-24665000D01*
%TO.C,D8*%
X40715000Y-29135000D02*
X43000000Y-29135000D01*
X40715000Y-27665000D02*
X40715000Y-29135000D01*
X43000000Y-27665000D02*
X40715000Y-27665000D01*
%TO.C,D7*%
X40715000Y-26135000D02*
X43000000Y-26135000D01*
X40715000Y-24665000D02*
X40715000Y-26135000D01*
X43000000Y-24665000D02*
X40715000Y-24665000D01*
%TO.C,D6*%
X37115000Y-29135000D02*
X39400000Y-29135000D01*
X37115000Y-27665000D02*
X37115000Y-29135000D01*
X39400000Y-27665000D02*
X37115000Y-27665000D01*
%TO.C,D5*%
X37115000Y-26135000D02*
X39400000Y-26135000D01*
X37115000Y-24665000D02*
X37115000Y-26135000D01*
X39400000Y-24665000D02*
X37115000Y-24665000D01*
%TO.C,D4*%
X35600000Y-27665000D02*
X33315000Y-27665000D01*
X33315000Y-27665000D02*
X33315000Y-29135000D01*
X33315000Y-29135000D02*
X35600000Y-29135000D01*
%TO.C,D3*%
X33315000Y-26135000D02*
X35600000Y-26135000D01*
X33315000Y-24665000D02*
X33315000Y-26135000D01*
X35600000Y-24665000D02*
X33315000Y-24665000D01*
%TO.C,D2*%
X28615000Y-29135000D02*
X30900000Y-29135000D01*
X28615000Y-27665000D02*
X28615000Y-29135000D01*
X30900000Y-27665000D02*
X28615000Y-27665000D01*
%TO.C,D1*%
X28715000Y-26135000D02*
X31000000Y-26135000D01*
X28715000Y-24665000D02*
X28715000Y-26135000D01*
X31000000Y-24665000D02*
X28715000Y-24665000D01*
%TD*%
M02*
